M48
; DRILL file {KiCad 5.1.9-73d0e3b20d~88~ubuntu20.04.1} date Wed Mar 10 20:09:01 2021
; FORMAT={-:-/ absolute / inch / decimal}
; #@! TF.CreationDate,2021-03-10T20:09:01+09:00
; #@! TF.GenerationSoftware,Kicad,Pcbnew,5.1.9-73d0e3b20d~88~ubuntu20.04.1
; #@! TF.FileFunction,Plated,1,2,PTH
FMAT,2
INCH
T1C0.0118
T2C0.0236
T3C0.0315
T4C0.0354
T5C0.0394
T6C0.0402
T7C0.0433
T8C0.0472
T9C0.0500
T10C0.0591
T11C0.0669
T12C0.1063
T13C0.1378
%
G90
G05
T1
X4.2005Y-3.1234
X4.3701Y-3.1496
X6.0415Y-3.4067
X6.0532Y-3.2932
X6.0649Y-3.417
X6.0855Y-3.4362
X6.0862Y-3.2969
X6.1128Y-3.2884
X6.7776Y-3.5138
X6.7939Y-3.7311
X6.811Y-3.5256
X6.8219Y-3.7415
X6.8235Y-4.2319
X6.8448Y-4.2461
X6.8545Y-3.5392
X6.8625Y-4.0846
X6.8858Y-3.8169
X6.8884Y-4.0846
X6.9125Y-3.5629
X6.9154Y-3.8346
X6.9807Y-4.2292
X7.0085Y-4.2282
X7.4329Y-3.6416
X7.4678Y-3.6344
X7.4806Y-3.5242
X7.5412Y-3.5483
T2
X5.9843Y-3.1693
X6.4803Y-4.8209
T3
X3.622Y-3.189
X3.722Y-3.189
X3.822Y-3.189
X3.922Y-3.189
X4.165Y-3.2462
X4.2913Y-3.3858
X5.0661Y-3.0858
X5.0661Y-3.3858
X5.1661Y-3.0858
X5.1661Y-3.3858
X5.2661Y-3.0858
X5.2661Y-3.3858
X5.3661Y-3.0858
X5.3661Y-3.3858
X5.4301Y-3.5648
X5.4661Y-3.0858
X5.4661Y-3.3858
X5.5661Y-3.0858
X5.5661Y-3.3858
X5.6661Y-3.0858
X5.6661Y-3.3858
X5.7661Y-3.0858
X5.7661Y-3.3858
X5.8661Y-3.0858
X5.8661Y-3.3858
X6.4035Y-3.939
X6.4587Y-4.002
X6.6791Y-3.7677
X7.1385Y-3.4303
X7.1763Y-3.4838
X7.4803Y-3.9213
X7.5591Y-3.8976
X7.6299Y-3.8661
X7.9775Y-3.9359
T4
X6.4875Y-3.5981
X6.5049Y-3.6966
X6.5223Y-3.7951
X6.5396Y-3.8935
T5
X1.1417Y-3.7047
X1.1417Y-3.8047
X1.4173Y-3.8228
X1.4173Y-3.9228
X1.6929Y-3.9803
X1.6929Y-4.0803
X1.9291Y-4.0984
X1.9291Y-4.1984
X2.2638Y-4.0551
X2.2638Y-4.626
X2.3622Y-4.626
X2.4606Y-4.0551
X2.4606Y-4.626
X3.0039Y-4.1804
X3.0039Y-4.2804
X3.0039Y-4.3804
X3.0039Y-4.4804
X4.4724Y-4.1732
X4.4724Y-4.2732
X4.4724Y-4.6638
X4.4724Y-4.7638
X4.5276Y-3.0866
X4.5276Y-3.2874
X4.5276Y-3.3858
X4.5669Y-4.1732
X4.5669Y-4.2732
X4.5669Y-4.6638
X4.5669Y-4.7638
X4.7441Y-4.7835
X5.5906Y-4.1732
X5.5906Y-4.2732
X5.5906Y-4.6638
X5.5906Y-4.7638
X5.685Y-4.1732
X5.685Y-4.2732
X5.685Y-4.6638
X5.685Y-4.7638
X6.3228Y-3.6804
X6.3228Y-3.7804
X6.3228Y-3.8804
X6.3228Y-3.9804
X6.3228Y-4.0804
X6.3228Y-4.1804
X6.3228Y-4.2804
X6.3228Y-4.3804
X6.3228Y-4.4804
X6.3228Y-4.5804
X6.3228Y-4.6804
X6.3228Y-4.7804
X6.3228Y-4.8804
X6.3228Y-4.9804
X6.5945Y-4.0551
X6.5945Y-4.626
X6.6929Y-4.626
X6.7913Y-4.0551
X6.7913Y-4.626
X7.0427Y-3.2658
X7.0472Y-4.3685
X7.0472Y-4.4685
X7.1334Y-3.3081
X7.224Y-3.3503
X7.3146Y-3.3926
X7.4053Y-3.4349
X7.4959Y-3.4771
X7.5865Y-3.5194
X7.6772Y-3.5616
X7.7678Y-3.6039
X7.8584Y-3.6462
T6
X5.5874Y-5.6496
X5.6874Y-5.6496
X5.7874Y-5.6496
X6.0402Y-5.6496
X6.1402Y-5.6496
X6.2402Y-5.6496
T7
X6.04Y-5.16
X6.04Y-5.26
X6.04Y-5.36
T8
X1.1417Y-4.2047
X1.1417Y-4.4047
X1.1417Y-4.4921
X1.4173Y-4.3228
X1.4173Y-4.5228
X1.4173Y-4.6102
X1.6929Y-4.4803
X1.6929Y-4.6803
X1.6929Y-4.7677
X1.9291Y-4.5984
X1.9291Y-4.7984
X1.9291Y-4.8858
T9
X4.4134Y-3.8307
X5.863Y-3.893
X5.876Y-4.1437
X5.9252Y-4.4783
X7.3425Y-4.2126
X7.4016Y-4.3701
X7.6575Y-4.3898
X7.7756Y-4.1929
T10
X3.3858Y-5.0394
X3.5433Y-3.7087
X3.5433Y-4.5276
X3.5827Y-5.0394
X4.0551Y-5.0394
X4.2638Y-5.0394
X5.315Y-3.7087
X5.315Y-4.0236
T11
X1.1417Y-4.9213
X1.3201Y-5.0045
X1.5354Y-5.0984
X1.7138Y-5.1816
X1.9291Y-5.2756
X2.1075Y-5.3588
X3.4252Y-5.4724
X3.5811Y-5.4724
X3.737Y-5.4724
X4.0551Y-5.4724
X4.252Y-5.4724
X4.4488Y-5.4724
X4.6457Y-5.4724
T12
X3.0039Y-3.3661
X3.0039Y-5.2953
X6.2835Y-3.3661
X6.2835Y-5.2953
T13
X2.3622Y-3.1496
X2.3622Y-5.5118
X6.6929Y-3.1496
X6.6929Y-5.5118
T10
G00X2.1417Y-4.3563
M15
G01X2.1417Y-4.3051
M16
G05
G00X2.5827Y-4.3563
M15
G01X2.5827Y-4.3051
M16
G05
G00X6.4724Y-4.3563
M15
G01X6.4724Y-4.3051
M16
G05
G00X6.9134Y-4.3563
M15
G01X6.9134Y-4.3051
M16
G05
T0
M30
