G04 #@! TF.GenerationSoftware,KiCad,Pcbnew,5.1.7-a382d34a8~87~ubuntu20.04.1*
G04 #@! TF.CreationDate,2020-12-06T18:05:45+09:00*
G04 #@! TF.ProjectId,ESP32DUALDIAL,45535033-3244-4554-914c-4449414c2e6b,rev?*
G04 #@! TF.SameCoordinates,Original*
G04 #@! TF.FileFunction,Soldermask,Top*
G04 #@! TF.FilePolarity,Negative*
%FSLAX46Y46*%
G04 Gerber Fmt 4.6, Leading zero omitted, Abs format (unit mm)*
G04 Created by KiCad (PCBNEW 5.1.7-a382d34a8~87~ubuntu20.04.1) date 2020-12-06 18:05:45*
%MOMM*%
%LPD*%
G01*
G04 APERTURE LIST*
%ADD10R,1.500000X1.500000*%
%ADD11C,1.500000*%
%ADD12C,4.000000*%
%ADD13C,3.000000*%
%ADD14R,2.000000X2.000000*%
%ADD15C,2.000000*%
%ADD16R,3.000000X3.000000*%
%ADD17O,1.700000X1.700000*%
%ADD18R,1.700000X1.700000*%
%ADD19R,2.000000X1.905000*%
%ADD20O,2.000000X1.905000*%
%ADD21R,2.000000X3.200000*%
%ADD22R,0.900000X1.400000*%
%ADD23R,1.400000X0.900000*%
%ADD24C,5.000000*%
%ADD25C,0.100000*%
%ADD26C,6.400000*%
%ADD27R,1.000000X1.500000*%
%ADD28R,1.500000X1.000000*%
%ADD29R,1.600000X1.600000*%
%ADD30O,1.600000X1.600000*%
%ADD31O,3.000000X2.200000*%
%ADD32R,1.800000X1.800000*%
G04 APERTURE END LIST*
D10*
X160600000Y-126501000D03*
D11*
X160600000Y-123961000D03*
X160600000Y-121421000D03*
X160600000Y-118881000D03*
X160600000Y-116341000D03*
X160600000Y-113801000D03*
X160600000Y-111261000D03*
X160600000Y-108721000D03*
X160600000Y-106181000D03*
D12*
X159600000Y-134500000D03*
X159600000Y-85500000D03*
X76300000Y-134500000D03*
D13*
X76300000Y-85500000D03*
D11*
X160600000Y-98561000D03*
X160600000Y-101101000D03*
X160600000Y-103641000D03*
X160600000Y-96021000D03*
X160600000Y-93481000D03*
X76300000Y-111261000D03*
D10*
X76300000Y-113801000D03*
D11*
X76300000Y-108721000D03*
X76300000Y-106181000D03*
D14*
X107950000Y-138049000D03*
D15*
X115550000Y-138049000D03*
G36*
G01*
X197100000Y-95275000D02*
X197100000Y-94725000D01*
G75*
G02*
X197300000Y-94525000I200000J0D01*
G01*
X197700000Y-94525000D01*
G75*
G02*
X197900000Y-94725000I0J-200000D01*
G01*
X197900000Y-95275000D01*
G75*
G02*
X197700000Y-95475000I-200000J0D01*
G01*
X197300000Y-95475000D01*
G75*
G02*
X197100000Y-95275000I0J200000D01*
G01*
G37*
G36*
G01*
X195450000Y-95275000D02*
X195450000Y-94725000D01*
G75*
G02*
X195650000Y-94525000I200000J0D01*
G01*
X196050000Y-94525000D01*
G75*
G02*
X196250000Y-94725000I0J-200000D01*
G01*
X196250000Y-95275000D01*
G75*
G02*
X196050000Y-95475000I-200000J0D01*
G01*
X195650000Y-95475000D01*
G75*
G02*
X195450000Y-95275000I0J200000D01*
G01*
G37*
G36*
G01*
X201275000Y-98275000D02*
X201275000Y-97725000D01*
G75*
G02*
X201475000Y-97525000I200000J0D01*
G01*
X201875000Y-97525000D01*
G75*
G02*
X202075000Y-97725000I0J-200000D01*
G01*
X202075000Y-98275000D01*
G75*
G02*
X201875000Y-98475000I-200000J0D01*
G01*
X201475000Y-98475000D01*
G75*
G02*
X201275000Y-98275000I0J200000D01*
G01*
G37*
G36*
G01*
X202925000Y-98275000D02*
X202925000Y-97725000D01*
G75*
G02*
X203125000Y-97525000I200000J0D01*
G01*
X203525000Y-97525000D01*
G75*
G02*
X203725000Y-97725000I0J-200000D01*
G01*
X203725000Y-98275000D01*
G75*
G02*
X203525000Y-98475000I-200000J0D01*
G01*
X203125000Y-98475000D01*
G75*
G02*
X202925000Y-98275000I0J200000D01*
G01*
G37*
G36*
G01*
X202720000Y-96670000D02*
X202720000Y-96330000D01*
G75*
G02*
X202860000Y-96190000I140000J0D01*
G01*
X203140000Y-96190000D01*
G75*
G02*
X203280000Y-96330000I0J-140000D01*
G01*
X203280000Y-96670000D01*
G75*
G02*
X203140000Y-96810000I-140000J0D01*
G01*
X202860000Y-96810000D01*
G75*
G02*
X202720000Y-96670000I0J140000D01*
G01*
G37*
G36*
G01*
X201760000Y-96670000D02*
X201760000Y-96330000D01*
G75*
G02*
X201900000Y-96190000I140000J0D01*
G01*
X202180000Y-96190000D01*
G75*
G02*
X202320000Y-96330000I0J-140000D01*
G01*
X202320000Y-96670000D01*
G75*
G02*
X202180000Y-96810000I-140000J0D01*
G01*
X201900000Y-96810000D01*
G75*
G02*
X201760000Y-96670000I0J140000D01*
G01*
G37*
G36*
G01*
X163740000Y-80670000D02*
X163740000Y-80330000D01*
G75*
G02*
X163880000Y-80190000I140000J0D01*
G01*
X164160000Y-80190000D01*
G75*
G02*
X164300000Y-80330000I0J-140000D01*
G01*
X164300000Y-80670000D01*
G75*
G02*
X164160000Y-80810000I-140000J0D01*
G01*
X163880000Y-80810000D01*
G75*
G02*
X163740000Y-80670000I0J140000D01*
G01*
G37*
G36*
G01*
X164700000Y-80670000D02*
X164700000Y-80330000D01*
G75*
G02*
X164840000Y-80190000I140000J0D01*
G01*
X165120000Y-80190000D01*
G75*
G02*
X165260000Y-80330000I0J-140000D01*
G01*
X165260000Y-80670000D01*
G75*
G02*
X165120000Y-80810000I-140000J0D01*
G01*
X164840000Y-80810000D01*
G75*
G02*
X164700000Y-80670000I0J140000D01*
G01*
G37*
X114300000Y-78740000D03*
X125700000Y-78740000D03*
D16*
X141500000Y-78000000D03*
D13*
X136420000Y-78000000D03*
D17*
X151000000Y-79000000D03*
D18*
X153540000Y-79000000D03*
X161000000Y-78740000D03*
D17*
X158460000Y-78740000D03*
D13*
X135000000Y-94200000D03*
X90000000Y-94200000D03*
X135000000Y-102200000D03*
D16*
X90000000Y-115000000D03*
D19*
X155500000Y-92500000D03*
D20*
X155500000Y-95040000D03*
X155500000Y-97580000D03*
G36*
G01*
X105365000Y-140695000D02*
X105365000Y-141245000D01*
G75*
G02*
X105165000Y-141445000I-200000J0D01*
G01*
X104765000Y-141445000D01*
G75*
G02*
X104565000Y-141245000I0J200000D01*
G01*
X104565000Y-140695000D01*
G75*
G02*
X104765000Y-140495000I200000J0D01*
G01*
X105165000Y-140495000D01*
G75*
G02*
X105365000Y-140695000I0J-200000D01*
G01*
G37*
G36*
G01*
X103715000Y-140695000D02*
X103715000Y-141245000D01*
G75*
G02*
X103515000Y-141445000I-200000J0D01*
G01*
X103115000Y-141445000D01*
G75*
G02*
X102915000Y-141245000I0J200000D01*
G01*
X102915000Y-140695000D01*
G75*
G02*
X103115000Y-140495000I200000J0D01*
G01*
X103515000Y-140495000D01*
G75*
G02*
X103715000Y-140695000I0J-200000D01*
G01*
G37*
G36*
G01*
X196400000Y-97225000D02*
X196400000Y-97775000D01*
G75*
G02*
X196200000Y-97975000I-200000J0D01*
G01*
X195800000Y-97975000D01*
G75*
G02*
X195600000Y-97775000I0J200000D01*
G01*
X195600000Y-97225000D01*
G75*
G02*
X195800000Y-97025000I200000J0D01*
G01*
X196200000Y-97025000D01*
G75*
G02*
X196400000Y-97225000I0J-200000D01*
G01*
G37*
G36*
G01*
X198050000Y-97225000D02*
X198050000Y-97775000D01*
G75*
G02*
X197850000Y-97975000I-200000J0D01*
G01*
X197450000Y-97975000D01*
G75*
G02*
X197250000Y-97775000I0J200000D01*
G01*
X197250000Y-97225000D01*
G75*
G02*
X197450000Y-97025000I200000J0D01*
G01*
X197850000Y-97025000D01*
G75*
G02*
X198050000Y-97225000I0J-200000D01*
G01*
G37*
G36*
G01*
X184775000Y-90275000D02*
X184775000Y-89725000D01*
G75*
G02*
X184975000Y-89525000I200000J0D01*
G01*
X185375000Y-89525000D01*
G75*
G02*
X185575000Y-89725000I0J-200000D01*
G01*
X185575000Y-90275000D01*
G75*
G02*
X185375000Y-90475000I-200000J0D01*
G01*
X184975000Y-90475000D01*
G75*
G02*
X184775000Y-90275000I0J200000D01*
G01*
G37*
G36*
G01*
X186425000Y-90275000D02*
X186425000Y-89725000D01*
G75*
G02*
X186625000Y-89525000I200000J0D01*
G01*
X187025000Y-89525000D01*
G75*
G02*
X187225000Y-89725000I0J-200000D01*
G01*
X187225000Y-90275000D01*
G75*
G02*
X187025000Y-90475000I-200000J0D01*
G01*
X186625000Y-90475000D01*
G75*
G02*
X186425000Y-90275000I0J200000D01*
G01*
G37*
G36*
G01*
X101725000Y-131775000D02*
X102275000Y-131775000D01*
G75*
G02*
X102475000Y-131975000I0J-200000D01*
G01*
X102475000Y-132375000D01*
G75*
G02*
X102275000Y-132575000I-200000J0D01*
G01*
X101725000Y-132575000D01*
G75*
G02*
X101525000Y-132375000I0J200000D01*
G01*
X101525000Y-131975000D01*
G75*
G02*
X101725000Y-131775000I200000J0D01*
G01*
G37*
G36*
G01*
X101725000Y-133425000D02*
X102275000Y-133425000D01*
G75*
G02*
X102475000Y-133625000I0J-200000D01*
G01*
X102475000Y-134025000D01*
G75*
G02*
X102275000Y-134225000I-200000J0D01*
G01*
X101725000Y-134225000D01*
G75*
G02*
X101525000Y-134025000I0J200000D01*
G01*
X101525000Y-133625000D01*
G75*
G02*
X101725000Y-133425000I200000J0D01*
G01*
G37*
G36*
G01*
X97725000Y-133600000D02*
X98275000Y-133600000D01*
G75*
G02*
X98475000Y-133800000I0J-200000D01*
G01*
X98475000Y-134200000D01*
G75*
G02*
X98275000Y-134400000I-200000J0D01*
G01*
X97725000Y-134400000D01*
G75*
G02*
X97525000Y-134200000I0J200000D01*
G01*
X97525000Y-133800000D01*
G75*
G02*
X97725000Y-133600000I200000J0D01*
G01*
G37*
G36*
G01*
X97725000Y-131950000D02*
X98275000Y-131950000D01*
G75*
G02*
X98475000Y-132150000I0J-200000D01*
G01*
X98475000Y-132550000D01*
G75*
G02*
X98275000Y-132750000I-200000J0D01*
G01*
X97725000Y-132750000D01*
G75*
G02*
X97525000Y-132550000I0J200000D01*
G01*
X97525000Y-132150000D01*
G75*
G02*
X97725000Y-131950000I200000J0D01*
G01*
G37*
G36*
G01*
X93260000Y-131775000D02*
X93810000Y-131775000D01*
G75*
G02*
X94010000Y-131975000I0J-200000D01*
G01*
X94010000Y-132375000D01*
G75*
G02*
X93810000Y-132575000I-200000J0D01*
G01*
X93260000Y-132575000D01*
G75*
G02*
X93060000Y-132375000I0J200000D01*
G01*
X93060000Y-131975000D01*
G75*
G02*
X93260000Y-131775000I200000J0D01*
G01*
G37*
G36*
G01*
X93260000Y-133425000D02*
X93810000Y-133425000D01*
G75*
G02*
X94010000Y-133625000I0J-200000D01*
G01*
X94010000Y-134025000D01*
G75*
G02*
X93810000Y-134225000I-200000J0D01*
G01*
X93260000Y-134225000D01*
G75*
G02*
X93060000Y-134025000I0J200000D01*
G01*
X93060000Y-133625000D01*
G75*
G02*
X93260000Y-133425000I200000J0D01*
G01*
G37*
G36*
G01*
X88725000Y-133425000D02*
X89275000Y-133425000D01*
G75*
G02*
X89475000Y-133625000I0J-200000D01*
G01*
X89475000Y-134025000D01*
G75*
G02*
X89275000Y-134225000I-200000J0D01*
G01*
X88725000Y-134225000D01*
G75*
G02*
X88525000Y-134025000I0J200000D01*
G01*
X88525000Y-133625000D01*
G75*
G02*
X88725000Y-133425000I200000J0D01*
G01*
G37*
G36*
G01*
X88725000Y-131775000D02*
X89275000Y-131775000D01*
G75*
G02*
X89475000Y-131975000I0J-200000D01*
G01*
X89475000Y-132375000D01*
G75*
G02*
X89275000Y-132575000I-200000J0D01*
G01*
X88725000Y-132575000D01*
G75*
G02*
X88525000Y-132375000I0J200000D01*
G01*
X88525000Y-131975000D01*
G75*
G02*
X88725000Y-131775000I200000J0D01*
G01*
G37*
G36*
G01*
X163275000Y-83775000D02*
X163275000Y-83225000D01*
G75*
G02*
X163475000Y-83025000I200000J0D01*
G01*
X163875000Y-83025000D01*
G75*
G02*
X164075000Y-83225000I0J-200000D01*
G01*
X164075000Y-83775000D01*
G75*
G02*
X163875000Y-83975000I-200000J0D01*
G01*
X163475000Y-83975000D01*
G75*
G02*
X163275000Y-83775000I0J200000D01*
G01*
G37*
G36*
G01*
X164925000Y-83775000D02*
X164925000Y-83225000D01*
G75*
G02*
X165125000Y-83025000I200000J0D01*
G01*
X165525000Y-83025000D01*
G75*
G02*
X165725000Y-83225000I0J-200000D01*
G01*
X165725000Y-83775000D01*
G75*
G02*
X165525000Y-83975000I-200000J0D01*
G01*
X165125000Y-83975000D01*
G75*
G02*
X164925000Y-83775000I0J200000D01*
G01*
G37*
G36*
G01*
X165725000Y-86725000D02*
X165725000Y-87275000D01*
G75*
G02*
X165525000Y-87475000I-200000J0D01*
G01*
X165125000Y-87475000D01*
G75*
G02*
X164925000Y-87275000I0J200000D01*
G01*
X164925000Y-86725000D01*
G75*
G02*
X165125000Y-86525000I200000J0D01*
G01*
X165525000Y-86525000D01*
G75*
G02*
X165725000Y-86725000I0J-200000D01*
G01*
G37*
G36*
G01*
X164075000Y-86725000D02*
X164075000Y-87275000D01*
G75*
G02*
X163875000Y-87475000I-200000J0D01*
G01*
X163475000Y-87475000D01*
G75*
G02*
X163275000Y-87275000I0J200000D01*
G01*
X163275000Y-86725000D01*
G75*
G02*
X163475000Y-86525000I200000J0D01*
G01*
X163875000Y-86525000D01*
G75*
G02*
X164075000Y-86725000I0J-200000D01*
G01*
G37*
D15*
X172500000Y-103000000D03*
X167500000Y-103000000D03*
D21*
X175600000Y-110000000D03*
X164400000Y-110000000D03*
D15*
X172500000Y-117500000D03*
X170000000Y-117500000D03*
D14*
X167500000Y-117500000D03*
X57500000Y-117500000D03*
D15*
X60000000Y-117500000D03*
X62500000Y-117500000D03*
D21*
X54400000Y-110000000D03*
X65600000Y-110000000D03*
D15*
X57500000Y-103000000D03*
X62500000Y-103000000D03*
D22*
X203500000Y-101110000D03*
X202230000Y-101110000D03*
X200960000Y-101110000D03*
X199690000Y-101110000D03*
X198420000Y-101110000D03*
X197150000Y-101110000D03*
X195880000Y-101110000D03*
X194610000Y-101110000D03*
X193340000Y-101110000D03*
X192070000Y-101110000D03*
X190800000Y-101110000D03*
X189530000Y-101110000D03*
X188260000Y-101110000D03*
X186990000Y-101110000D03*
D23*
X185466000Y-104285000D03*
X185466000Y-105555000D03*
X185466000Y-106825000D03*
X185466000Y-108095000D03*
X185466000Y-109365000D03*
X185466000Y-110635000D03*
X185466000Y-111905000D03*
X185466000Y-113175000D03*
X185466000Y-114445000D03*
X185466000Y-115715000D03*
D22*
X186990000Y-118890000D03*
X188260000Y-118890000D03*
X189530000Y-118890000D03*
X190800000Y-118890000D03*
X192070000Y-118890000D03*
X193340000Y-118890000D03*
X194610000Y-118890000D03*
X195880000Y-118890000D03*
X197150000Y-118890000D03*
X198420000Y-118890000D03*
X199690000Y-118890000D03*
X200960000Y-118890000D03*
X202230000Y-118890000D03*
X203500000Y-118890000D03*
D24*
X197100000Y-111470000D03*
D10*
X91948000Y-139827000D03*
D11*
X94488000Y-139827000D03*
X97028000Y-139827000D03*
X99568000Y-139827000D03*
G36*
G01*
X178526622Y-83721852D02*
X178526622Y-83721852D01*
G75*
G02*
X178115486Y-82592264I359226J770362D01*
G01*
X178115486Y-82592264D01*
G75*
G02*
X179245074Y-82181128I770362J-359226D01*
G01*
X179245074Y-82181128D01*
G75*
G02*
X179656210Y-83310716I-359226J-770362D01*
G01*
X179656210Y-83310716D01*
G75*
G02*
X178526622Y-83721852I-770362J359226D01*
G01*
G37*
G36*
G01*
X180828644Y-84795302D02*
X180828644Y-84795302D01*
G75*
G02*
X180417508Y-83665714I359226J770362D01*
G01*
X180417508Y-83665714D01*
G75*
G02*
X181547096Y-83254578I770362J-359226D01*
G01*
X181547096Y-83254578D01*
G75*
G02*
X181958232Y-84384166I-359226J-770362D01*
G01*
X181958232Y-84384166D01*
G75*
G02*
X180828644Y-84795302I-770362J359226D01*
G01*
G37*
G36*
G01*
X183130666Y-85868752D02*
X183130666Y-85868752D01*
G75*
G02*
X182719530Y-84739164I359226J770362D01*
G01*
X182719530Y-84739164D01*
G75*
G02*
X183849118Y-84328028I770362J-359226D01*
G01*
X183849118Y-84328028D01*
G75*
G02*
X184260254Y-85457616I-359226J-770362D01*
G01*
X184260254Y-85457616D01*
G75*
G02*
X183130666Y-85868752I-770362J359226D01*
G01*
G37*
G36*
G01*
X185432687Y-86942203D02*
X185432687Y-86942203D01*
G75*
G02*
X185021551Y-85812615I359226J770362D01*
G01*
X185021551Y-85812615D01*
G75*
G02*
X186151139Y-85401479I770362J-359226D01*
G01*
X186151139Y-85401479D01*
G75*
G02*
X186562275Y-86531067I-359226J-770362D01*
G01*
X186562275Y-86531067D01*
G75*
G02*
X185432687Y-86942203I-770362J359226D01*
G01*
G37*
G36*
G01*
X187734709Y-88015653D02*
X187734709Y-88015653D01*
G75*
G02*
X187323573Y-86886065I359226J770362D01*
G01*
X187323573Y-86886065D01*
G75*
G02*
X188453161Y-86474929I770362J-359226D01*
G01*
X188453161Y-86474929D01*
G75*
G02*
X188864297Y-87604517I-359226J-770362D01*
G01*
X188864297Y-87604517D01*
G75*
G02*
X187734709Y-88015653I-770362J359226D01*
G01*
G37*
G36*
G01*
X190036731Y-89089103D02*
X190036731Y-89089103D01*
G75*
G02*
X189625595Y-87959515I359226J770362D01*
G01*
X189625595Y-87959515D01*
G75*
G02*
X190755183Y-87548379I770362J-359226D01*
G01*
X190755183Y-87548379D01*
G75*
G02*
X191166319Y-88677967I-359226J-770362D01*
G01*
X191166319Y-88677967D01*
G75*
G02*
X190036731Y-89089103I-770362J359226D01*
G01*
G37*
G36*
G01*
X192338753Y-90162554D02*
X192338753Y-90162554D01*
G75*
G02*
X191927617Y-89032966I359226J770362D01*
G01*
X191927617Y-89032966D01*
G75*
G02*
X193057205Y-88621830I770362J-359226D01*
G01*
X193057205Y-88621830D01*
G75*
G02*
X193468341Y-89751418I-359226J-770362D01*
G01*
X193468341Y-89751418D01*
G75*
G02*
X192338753Y-90162554I-770362J359226D01*
G01*
G37*
G36*
G01*
X194640774Y-91236004D02*
X194640774Y-91236004D01*
G75*
G02*
X194229638Y-90106416I359226J770362D01*
G01*
X194229638Y-90106416D01*
G75*
G02*
X195359226Y-89695280I770362J-359226D01*
G01*
X195359226Y-89695280D01*
G75*
G02*
X195770362Y-90824868I-359226J-770362D01*
G01*
X195770362Y-90824868D01*
G75*
G02*
X194640774Y-91236004I-770362J359226D01*
G01*
G37*
G36*
G01*
X196942796Y-92309455D02*
X196942796Y-92309455D01*
G75*
G02*
X196531660Y-91179867I359226J770362D01*
G01*
X196531660Y-91179867D01*
G75*
G02*
X197661248Y-90768731I770362J-359226D01*
G01*
X197661248Y-90768731D01*
G75*
G02*
X198072384Y-91898319I-359226J-770362D01*
G01*
X198072384Y-91898319D01*
G75*
G02*
X196942796Y-92309455I-770362J359226D01*
G01*
G37*
D25*
G36*
X200015180Y-93742130D02*
G01*
X198474457Y-93023679D01*
X199192908Y-91482956D01*
X200733631Y-92201407D01*
X200015180Y-93742130D01*
G37*
D26*
X60000000Y-140000000D03*
X170000000Y-80000000D03*
X170000000Y-140000000D03*
X60000000Y-80000000D03*
D16*
X103160000Y-77000000D03*
D13*
X98080000Y-77000000D03*
X87920000Y-77000000D03*
X82840000Y-77000000D03*
D16*
X93000000Y-77000000D03*
D13*
X77760000Y-77000000D03*
X72680000Y-77000000D03*
X67600000Y-77000000D03*
D27*
X168350000Y-86000000D03*
X169650000Y-86000000D03*
D25*
G36*
X141749398Y-123800000D02*
G01*
X141749398Y-123824534D01*
X141744588Y-123873365D01*
X141735016Y-123921490D01*
X141720772Y-123968445D01*
X141701995Y-124013778D01*
X141678864Y-124057051D01*
X141651604Y-124097850D01*
X141620476Y-124135779D01*
X141585779Y-124170476D01*
X141547850Y-124201604D01*
X141507051Y-124228864D01*
X141463778Y-124251995D01*
X141418445Y-124270772D01*
X141371490Y-124285016D01*
X141323365Y-124294588D01*
X141274534Y-124299398D01*
X141250000Y-124299398D01*
X141250000Y-124300000D01*
X140750000Y-124300000D01*
X140750000Y-124299398D01*
X140725466Y-124299398D01*
X140676635Y-124294588D01*
X140628510Y-124285016D01*
X140581555Y-124270772D01*
X140536222Y-124251995D01*
X140492949Y-124228864D01*
X140452150Y-124201604D01*
X140414221Y-124170476D01*
X140379524Y-124135779D01*
X140348396Y-124097850D01*
X140321136Y-124057051D01*
X140298005Y-124013778D01*
X140279228Y-123968445D01*
X140264984Y-123921490D01*
X140255412Y-123873365D01*
X140250602Y-123824534D01*
X140250602Y-123800000D01*
X140250000Y-123800000D01*
X140250000Y-123250000D01*
X141750000Y-123250000D01*
X141750000Y-123800000D01*
X141749398Y-123800000D01*
G37*
D28*
X141000000Y-122500000D03*
D25*
G36*
X140250000Y-121750000D02*
G01*
X140250000Y-121200000D01*
X140250602Y-121200000D01*
X140250602Y-121175466D01*
X140255412Y-121126635D01*
X140264984Y-121078510D01*
X140279228Y-121031555D01*
X140298005Y-120986222D01*
X140321136Y-120942949D01*
X140348396Y-120902150D01*
X140379524Y-120864221D01*
X140414221Y-120829524D01*
X140452150Y-120798396D01*
X140492949Y-120771136D01*
X140536222Y-120748005D01*
X140581555Y-120729228D01*
X140628510Y-120714984D01*
X140676635Y-120705412D01*
X140725466Y-120700602D01*
X140750000Y-120700602D01*
X140750000Y-120700000D01*
X141250000Y-120700000D01*
X141250000Y-120700602D01*
X141274534Y-120700602D01*
X141323365Y-120705412D01*
X141371490Y-120714984D01*
X141418445Y-120729228D01*
X141463778Y-120748005D01*
X141507051Y-120771136D01*
X141547850Y-120798396D01*
X141585779Y-120829524D01*
X141620476Y-120864221D01*
X141651604Y-120902150D01*
X141678864Y-120942949D01*
X141701995Y-120986222D01*
X141720772Y-121031555D01*
X141735016Y-121078510D01*
X141744588Y-121126635D01*
X141749398Y-121175466D01*
X141749398Y-121200000D01*
X141750000Y-121200000D01*
X141750000Y-121750000D01*
X140250000Y-121750000D01*
G37*
G36*
G01*
X171775000Y-86275000D02*
X171775000Y-85725000D01*
G75*
G02*
X171975000Y-85525000I200000J0D01*
G01*
X172375000Y-85525000D01*
G75*
G02*
X172575000Y-85725000I0J-200000D01*
G01*
X172575000Y-86275000D01*
G75*
G02*
X172375000Y-86475000I-200000J0D01*
G01*
X171975000Y-86475000D01*
G75*
G02*
X171775000Y-86275000I0J200000D01*
G01*
G37*
G36*
G01*
X173425000Y-86275000D02*
X173425000Y-85725000D01*
G75*
G02*
X173625000Y-85525000I200000J0D01*
G01*
X174025000Y-85525000D01*
G75*
G02*
X174225000Y-85725000I0J-200000D01*
G01*
X174225000Y-86275000D01*
G75*
G02*
X174025000Y-86475000I-200000J0D01*
G01*
X173625000Y-86475000D01*
G75*
G02*
X173425000Y-86275000I0J200000D01*
G01*
G37*
D29*
X115500000Y-122500000D03*
D30*
X135820000Y-130120000D03*
X118040000Y-122500000D03*
X133280000Y-130120000D03*
X120580000Y-122500000D03*
X130740000Y-130120000D03*
X123120000Y-122500000D03*
X128200000Y-130120000D03*
X125660000Y-122500000D03*
X125660000Y-130120000D03*
X128200000Y-122500000D03*
X123120000Y-130120000D03*
X130740000Y-122500000D03*
X120580000Y-130120000D03*
X133280000Y-122500000D03*
X118040000Y-130120000D03*
X135820000Y-122500000D03*
X115500000Y-130120000D03*
D31*
X47000000Y-100680001D03*
X47000000Y-105760001D03*
X47000000Y-115920001D03*
X47000000Y-118460001D03*
X39000000Y-118460001D03*
X39000000Y-115920001D03*
X39000000Y-105760001D03*
X39000000Y-100680001D03*
X31000000Y-118460001D03*
X31000000Y-115920001D03*
X31000000Y-105760001D03*
X31000000Y-100680001D03*
X23000000Y-100680001D03*
X23000000Y-105760001D03*
X23000000Y-115920001D03*
X23000000Y-118460001D03*
D32*
X165110000Y-96810000D03*
X165110000Y-94270000D03*
X165110000Y-91730000D03*
X165110000Y-89190000D03*
M02*
