G04 #@! TF.GenerationSoftware,KiCad,Pcbnew,5.1.9-73d0e3b20d~88~ubuntu20.04.1*
G04 #@! TF.CreationDate,2021-02-01T03:30:19+09:00*
G04 #@! TF.ProjectId,ESP32DUALDIAL,45535033-3244-4554-914c-4449414c2e6b,rev?*
G04 #@! TF.SameCoordinates,Original*
G04 #@! TF.FileFunction,Soldermask,Bot*
G04 #@! TF.FilePolarity,Negative*
%FSLAX46Y46*%
G04 Gerber Fmt 4.6, Leading zero omitted, Abs format (unit mm)*
G04 Created by KiCad (PCBNEW 5.1.9-73d0e3b20d~88~ubuntu20.04.1) date 2021-02-01 03:30:19*
%MOMM*%
%LPD*%
G01*
G04 APERTURE LIST*
%ADD10C,5.000000*%
%ADD11R,1.500000X1.500000*%
%ADD12C,1.500000*%
%ADD13C,4.000000*%
%ADD14C,3.000000*%
%ADD15R,2.000000X2.000000*%
%ADD16C,2.000000*%
%ADD17R,3.000000X3.000000*%
%ADD18R,2.000000X1.905000*%
%ADD19O,2.000000X1.905000*%
%ADD20R,2.000000X3.200000*%
%ADD21C,0.100000*%
%ADD22C,6.400000*%
%ADD23R,1.600000X1.600000*%
%ADD24O,1.600000X1.600000*%
%ADD25O,3.000000X2.200000*%
%ADD26R,2.700000X2.700000*%
%ADD27C,2.700000*%
%ADD28R,1.730000X2.030000*%
%ADD29O,1.730000X2.030000*%
G04 APERTURE END LIST*
D10*
X192908929Y-108024626D03*
D11*
X160600000Y-126501000D03*
D12*
X160600000Y-123961000D03*
X160600000Y-121421000D03*
X160600000Y-118881000D03*
X160600000Y-116341000D03*
X160600000Y-113801000D03*
X160600000Y-111261000D03*
X160600000Y-108721000D03*
X160600000Y-106181000D03*
D13*
X159600000Y-134500000D03*
X159600000Y-85500000D03*
X76300000Y-134500000D03*
D14*
X76300000Y-85500000D03*
D12*
X160600000Y-98561000D03*
X160600000Y-101101000D03*
X160600000Y-103641000D03*
X160600000Y-96021000D03*
X160600000Y-93481000D03*
X76300000Y-111261000D03*
D11*
X76300000Y-113801000D03*
D12*
X76300000Y-108721000D03*
X76300000Y-106181000D03*
D15*
X115000000Y-86000000D03*
D16*
X115000000Y-78400000D03*
D14*
X135000000Y-94200000D03*
X90000000Y-94200000D03*
X135000000Y-102200000D03*
D17*
X90000000Y-115000000D03*
D18*
X153416000Y-136144000D03*
D19*
X153416000Y-133604000D03*
X153416000Y-131064000D03*
D16*
X172500000Y-103000000D03*
X167500000Y-103000000D03*
D20*
X175600000Y-110000000D03*
X164400000Y-110000000D03*
D16*
X172500000Y-117500000D03*
X170000000Y-117500000D03*
D15*
X167500000Y-117500000D03*
X57500000Y-117500000D03*
D16*
X60000000Y-117500000D03*
X62500000Y-117500000D03*
D20*
X54400000Y-110000000D03*
X65600000Y-110000000D03*
D16*
X57500000Y-103000000D03*
X62500000Y-103000000D03*
D11*
X92000000Y-81000000D03*
D12*
X94540000Y-81000000D03*
X97080000Y-81000000D03*
X99620000Y-81000000D03*
G36*
G01*
X178526622Y-83721852D02*
X178526622Y-83721852D01*
G75*
G02*
X178115486Y-82592264I359226J770362D01*
G01*
X178115486Y-82592264D01*
G75*
G02*
X179245074Y-82181128I770362J-359226D01*
G01*
X179245074Y-82181128D01*
G75*
G02*
X179656210Y-83310716I-359226J-770362D01*
G01*
X179656210Y-83310716D01*
G75*
G02*
X178526622Y-83721852I-770362J359226D01*
G01*
G37*
G36*
G01*
X180828644Y-84795302D02*
X180828644Y-84795302D01*
G75*
G02*
X180417508Y-83665714I359226J770362D01*
G01*
X180417508Y-83665714D01*
G75*
G02*
X181547096Y-83254578I770362J-359226D01*
G01*
X181547096Y-83254578D01*
G75*
G02*
X181958232Y-84384166I-359226J-770362D01*
G01*
X181958232Y-84384166D01*
G75*
G02*
X180828644Y-84795302I-770362J359226D01*
G01*
G37*
G36*
G01*
X183130666Y-85868752D02*
X183130666Y-85868752D01*
G75*
G02*
X182719530Y-84739164I359226J770362D01*
G01*
X182719530Y-84739164D01*
G75*
G02*
X183849118Y-84328028I770362J-359226D01*
G01*
X183849118Y-84328028D01*
G75*
G02*
X184260254Y-85457616I-359226J-770362D01*
G01*
X184260254Y-85457616D01*
G75*
G02*
X183130666Y-85868752I-770362J359226D01*
G01*
G37*
G36*
G01*
X185432687Y-86942203D02*
X185432687Y-86942203D01*
G75*
G02*
X185021551Y-85812615I359226J770362D01*
G01*
X185021551Y-85812615D01*
G75*
G02*
X186151139Y-85401479I770362J-359226D01*
G01*
X186151139Y-85401479D01*
G75*
G02*
X186562275Y-86531067I-359226J-770362D01*
G01*
X186562275Y-86531067D01*
G75*
G02*
X185432687Y-86942203I-770362J359226D01*
G01*
G37*
G36*
G01*
X187734709Y-88015653D02*
X187734709Y-88015653D01*
G75*
G02*
X187323573Y-86886065I359226J770362D01*
G01*
X187323573Y-86886065D01*
G75*
G02*
X188453161Y-86474929I770362J-359226D01*
G01*
X188453161Y-86474929D01*
G75*
G02*
X188864297Y-87604517I-359226J-770362D01*
G01*
X188864297Y-87604517D01*
G75*
G02*
X187734709Y-88015653I-770362J359226D01*
G01*
G37*
G36*
G01*
X190036731Y-89089103D02*
X190036731Y-89089103D01*
G75*
G02*
X189625595Y-87959515I359226J770362D01*
G01*
X189625595Y-87959515D01*
G75*
G02*
X190755183Y-87548379I770362J-359226D01*
G01*
X190755183Y-87548379D01*
G75*
G02*
X191166319Y-88677967I-359226J-770362D01*
G01*
X191166319Y-88677967D01*
G75*
G02*
X190036731Y-89089103I-770362J359226D01*
G01*
G37*
G36*
G01*
X192338753Y-90162554D02*
X192338753Y-90162554D01*
G75*
G02*
X191927617Y-89032966I359226J770362D01*
G01*
X191927617Y-89032966D01*
G75*
G02*
X193057205Y-88621830I770362J-359226D01*
G01*
X193057205Y-88621830D01*
G75*
G02*
X193468341Y-89751418I-359226J-770362D01*
G01*
X193468341Y-89751418D01*
G75*
G02*
X192338753Y-90162554I-770362J359226D01*
G01*
G37*
G36*
G01*
X194640774Y-91236004D02*
X194640774Y-91236004D01*
G75*
G02*
X194229638Y-90106416I359226J770362D01*
G01*
X194229638Y-90106416D01*
G75*
G02*
X195359226Y-89695280I770362J-359226D01*
G01*
X195359226Y-89695280D01*
G75*
G02*
X195770362Y-90824868I-359226J-770362D01*
G01*
X195770362Y-90824868D01*
G75*
G02*
X194640774Y-91236004I-770362J359226D01*
G01*
G37*
G36*
G01*
X196942796Y-92309455D02*
X196942796Y-92309455D01*
G75*
G02*
X196531660Y-91179867I359226J770362D01*
G01*
X196531660Y-91179867D01*
G75*
G02*
X197661248Y-90768731I770362J-359226D01*
G01*
X197661248Y-90768731D01*
G75*
G02*
X198072384Y-91898319I-359226J-770362D01*
G01*
X198072384Y-91898319D01*
G75*
G02*
X196942796Y-92309455I-770362J359226D01*
G01*
G37*
D21*
G36*
X200015180Y-93742130D02*
G01*
X198474457Y-93023679D01*
X199192908Y-91482956D01*
X200733631Y-92201407D01*
X200015180Y-93742130D01*
G37*
D22*
X60000000Y-140000000D03*
X170000000Y-80000000D03*
X170000000Y-140000000D03*
X60000000Y-80000000D03*
D23*
X149000000Y-86000000D03*
D24*
X128680000Y-78380000D03*
X146460000Y-86000000D03*
X131220000Y-78380000D03*
X143920000Y-86000000D03*
X133760000Y-78380000D03*
X141380000Y-86000000D03*
X136300000Y-78380000D03*
X138840000Y-86000000D03*
X138840000Y-78380000D03*
X136300000Y-86000000D03*
X141380000Y-78380000D03*
X133760000Y-86000000D03*
X143920000Y-78380000D03*
X131220000Y-86000000D03*
X146460000Y-78380000D03*
X128680000Y-86000000D03*
X149000000Y-78380000D03*
D25*
X49000000Y-122880000D03*
X49000000Y-117800000D03*
X49000000Y-107640000D03*
X49000000Y-105100000D03*
X43000000Y-102100000D03*
X43000000Y-104640000D03*
X43000000Y-114800000D03*
X43000000Y-119880000D03*
X36000000Y-99100000D03*
X36000000Y-101640000D03*
X36000000Y-111800000D03*
X36000000Y-116880000D03*
X29000000Y-113880000D03*
X29000000Y-108800000D03*
X29000000Y-98640000D03*
X29000000Y-96100000D03*
D21*
G36*
X166836703Y-97853240D02*
G01*
X167149269Y-99625894D01*
X165376615Y-99938460D01*
X165064049Y-98165806D01*
X166836703Y-97853240D01*
G37*
G36*
X166395636Y-95351828D02*
G01*
X166708202Y-97124482D01*
X164935548Y-97437048D01*
X164622982Y-95664394D01*
X166395636Y-95351828D01*
G37*
G36*
X165954570Y-92850416D02*
G01*
X166267136Y-94623070D01*
X164494482Y-94935636D01*
X164181916Y-93162982D01*
X165954570Y-92850416D01*
G37*
G36*
X165513504Y-90349005D02*
G01*
X165826070Y-92121659D01*
X164053416Y-92434225D01*
X163740850Y-90661571D01*
X165513504Y-90349005D01*
G37*
D14*
X86000000Y-128000000D03*
X108300000Y-128000000D03*
X91000000Y-128000000D03*
X103000000Y-128000000D03*
D26*
X103000000Y-139000000D03*
D27*
X108000000Y-139000000D03*
X113000000Y-139000000D03*
X118000000Y-139000000D03*
G36*
G01*
X85650000Y-140099999D02*
X85650000Y-137900001D01*
G75*
G02*
X85900001Y-137650000I250001J0D01*
G01*
X88099999Y-137650000D01*
G75*
G02*
X88350000Y-137900001I0J-250001D01*
G01*
X88350000Y-140099999D01*
G75*
G02*
X88099999Y-140350000I-250001J0D01*
G01*
X85900001Y-140350000D01*
G75*
G02*
X85650000Y-140099999I0J250001D01*
G01*
G37*
X90960000Y-139000000D03*
X94920000Y-139000000D03*
G36*
G01*
X47311605Y-132426403D02*
X48241364Y-130432528D01*
G75*
G02*
X48573597Y-130311605I226578J-105655D01*
G01*
X50567472Y-131241364D01*
G75*
G02*
X50688395Y-131573597I-105655J-226578D01*
G01*
X49758636Y-133567472D01*
G75*
G02*
X49426403Y-133688395I-226578J105655D01*
G01*
X47432528Y-132758636D01*
G75*
G02*
X47311605Y-132426403I105655J226578D01*
G01*
G37*
X53531539Y-134113091D03*
G36*
G01*
X37311605Y-127926403D02*
X38241364Y-125932528D01*
G75*
G02*
X38573597Y-125811605I226578J-105655D01*
G01*
X40567472Y-126741364D01*
G75*
G02*
X40688395Y-127073597I-105655J-226578D01*
G01*
X39758636Y-129067472D01*
G75*
G02*
X39426403Y-129188395I-226578J105655D01*
G01*
X37432528Y-128258636D01*
G75*
G02*
X37311605Y-127926403I105655J226578D01*
G01*
G37*
X43531539Y-129613091D03*
G36*
G01*
X27311605Y-123426403D02*
X28241364Y-121432528D01*
G75*
G02*
X28573597Y-121311605I226578J-105655D01*
G01*
X30567472Y-122241364D01*
G75*
G02*
X30688395Y-122573597I-105655J-226578D01*
G01*
X29758636Y-124567472D01*
G75*
G02*
X29426403Y-124688395I-226578J105655D01*
G01*
X27432528Y-123758636D01*
G75*
G02*
X27311605Y-123426403I105655J226578D01*
G01*
G37*
X33531539Y-125113091D03*
D17*
X130040000Y-122500000D03*
X127500000Y-122500000D03*
X130040000Y-124900000D03*
X127500000Y-124900000D03*
X130040000Y-94100000D03*
X130040000Y-96500000D03*
X127500000Y-94100000D03*
X127500000Y-96500000D03*
X139960000Y-94100000D03*
X142500000Y-124900000D03*
X142500000Y-94100000D03*
X142500000Y-96500000D03*
X139960000Y-96500000D03*
X139960000Y-124900000D03*
X142500000Y-122500000D03*
X139960000Y-122500000D03*
D16*
X143000000Y-118000000D03*
D28*
X158500000Y-143500000D03*
D29*
X155960000Y-143500000D03*
X153420000Y-143500000D03*
X141920000Y-143500000D03*
X144460000Y-143500000D03*
D28*
X147000000Y-143500000D03*
M02*
