M48
; DRILL file {KiCad 5.1.7-a382d34a8~87~ubuntu20.04.1} date Sun Dec  6 18:05:47 2020
; FORMAT={-:-/ absolute / inch / decimal}
; #@! TF.CreationDate,2020-12-06T18:05:47+09:00
; #@! TF.GenerationSoftware,Kicad,Pcbnew,5.1.7-a382d34a8~87~ubuntu20.04.1
; #@! TF.FileFunction,Plated,1,2,PTH
FMAT,2
INCH
T1C0.0118
T2C0.0236
T3C0.0315
T4C0.0354
T5C0.0394
T6C0.0394
T7C0.0433
T8C0.0472
T9C0.0591
T10C0.0598
T11C0.1063
T12C0.1260
T13C0.1575
%
G90
G05
T1
X7.5426Y-5.1342
T2
X4.0354Y-5.5118
X4.1621Y-5.3781
X6.5551Y-3.9173
X6.8504Y-4.8425
X6.8701Y-4.6063
X6.8863Y-4.8532
X6.9004Y-4.6422
X6.9031Y-4.4765
X6.9078Y-4.5556
X6.9458Y-4.4509
X6.9545Y-4.6565
X6.9594Y-3.8674
X6.973Y-4.6931
X6.9805Y-4.5528
X7.0154Y-4.7446
X7.0669Y-4.885
X7.1063Y-4.8031
X7.1063Y-5.0394
X7.1103Y-4.5658
X7.1114Y-4.5022
X7.132Y-5.0094
X7.1413Y-4.9601
X7.1477Y-4.568
X7.1523Y-4.9243
X7.171Y-4.8664
X7.2023Y-4.84
X7.2047Y-3.6811
X7.2634Y-4.958
X7.3294Y-4.7624
X7.3589Y-4.9469
X7.4606Y-5.1575
X7.5197Y-3.7598
T3
X3.62Y-5.505
X3.72Y-5.505
X3.82Y-5.505
X3.92Y-5.505
X4.5472Y-4.8228
X4.5472Y-5.1228
X4.6472Y-4.8228
X4.6472Y-5.1228
X4.7472Y-4.8228
X4.7472Y-5.1228
X4.8472Y-4.8228
X4.8472Y-5.1228
X4.9472Y-4.8228
X4.9472Y-5.1228
X5.0472Y-4.8228
X5.0472Y-5.1228
X5.1472Y-4.8228
X5.1472Y-5.1228
X5.2472Y-4.8228
X5.2472Y-5.1228
X5.3472Y-4.8228
X5.3472Y-5.1228
T4
X6.5004Y-3.5114
X6.5004Y-3.6114
X6.5004Y-3.7114
X6.5004Y-3.8114
T5
X3.0039Y-4.1804
X3.0039Y-4.2804
X3.0039Y-4.3804
X3.0039Y-4.4804
X6.3228Y-3.6804
X6.3228Y-3.7804
X6.3228Y-3.8804
X6.3228Y-3.9804
X6.3228Y-4.0804
X6.3228Y-4.1804
X6.3228Y-4.2804
X6.3228Y-4.3804
X6.3228Y-4.4804
X6.3228Y-4.5804
X6.3228Y-4.6804
X6.3228Y-4.7804
X6.3228Y-4.8804
X6.3228Y-4.9804
X2.2638Y-4.0551
X2.2638Y-4.626
X2.3622Y-4.626
X2.4606Y-4.0551
X2.4606Y-4.626
X4.5Y-3.1
X4.9488Y-3.1
X7.0427Y-3.2658
X7.1334Y-3.3081
X7.224Y-3.3503
X7.3146Y-3.3926
X7.4053Y-3.4349
X7.4959Y-3.4771
X7.5865Y-3.5194
X7.6772Y-3.5616
X7.7678Y-3.6039
X7.8584Y-3.6462
X6.2386Y-3.1
X6.3386Y-3.1
X5.9449Y-3.1102
X6.0449Y-3.1102
X4.25Y-5.435
X4.5492Y-5.435
X6.5945Y-4.0551
X6.5945Y-4.626
X6.6929Y-4.626
X6.7913Y-4.0551
X6.7913Y-4.626
T6
X7.5197Y-4.1929
T7
X6.122Y-3.6417
X6.122Y-3.7417
X6.122Y-3.8417
T8
X1.8504Y-3.9638
X1.8504Y-4.1638
X1.8504Y-4.5638
X1.8504Y-4.6638
X0.9055Y-3.9638
X0.9055Y-4.1638
X0.9055Y-4.5638
X0.9055Y-4.6638
X1.5354Y-3.9638
X1.5354Y-4.1638
X1.5354Y-4.5638
X1.5354Y-4.6638
X1.2205Y-3.9638
X1.2205Y-4.1638
X1.2205Y-4.5638
X1.2205Y-4.6638
T9
X3.5433Y-3.7087
X3.5433Y-4.5276
X5.315Y-3.7087
X5.315Y-4.0236
T10
X5.3709Y-3.0709
X5.5709Y-3.0709
X2.6614Y-3.0315
X2.8614Y-3.0315
X3.0614Y-3.0315
X3.2614Y-3.0315
X3.4614Y-3.0315
X3.6614Y-3.0315
X3.8614Y-3.0315
X4.0614Y-3.0315
T11
X3.0039Y-3.3661
X3.0039Y-5.2953
X6.2835Y-3.3661
X6.2835Y-5.2953
T12
X6.6929Y-5.5118
X2.3622Y-5.5118
X2.3622Y-3.1496
X6.6929Y-3.1496
T13
X7.7598Y-4.3886
T9
G00X2.1417Y-4.3563
M15
G01X2.1417Y-4.3051
M16
G05
G00X2.5827Y-4.3563
M15
G01X2.5827Y-4.3051
M16
G05
G00X6.4724Y-4.3563
M15
G01X6.4724Y-4.3051
M16
G05
G00X6.9134Y-4.3563
M15
G01X6.9134Y-4.3051
M16
G05
T0
M30
