G04 #@! TF.GenerationSoftware,KiCad,Pcbnew,5.1.9-73d0e3b20d~88~ubuntu20.04.1*
G04 #@! TF.CreationDate,2021-01-19T15:00:29+09:00*
G04 #@! TF.ProjectId,ESP32DUALDIAL,45535033-3244-4554-914c-4449414c2e6b,rev?*
G04 #@! TF.SameCoordinates,Original*
G04 #@! TF.FileFunction,Legend,Top*
G04 #@! TF.FilePolarity,Positive*
%FSLAX46Y46*%
G04 Gerber Fmt 4.6, Leading zero omitted, Abs format (unit mm)*
G04 Created by KiCad (PCBNEW 5.1.9-73d0e3b20d~88~ubuntu20.04.1) date 2021-01-19 15:00:29*
%MOMM*%
%LPD*%
G01*
G04 APERTURE LIST*
%ADD10C,0.150000*%
%ADD11C,0.200000*%
%ADD12C,0.250000*%
%ADD13C,0.120000*%
G04 APERTURE END LIST*
D10*
X149000000Y-136500000D02*
X152750000Y-136500000D01*
X151500000Y-137250000D02*
X150500000Y-136500000D01*
X151500000Y-135750000D02*
X151500000Y-137250000D01*
X150250000Y-136500000D02*
X151500000Y-135750000D01*
X150250000Y-135750000D02*
X150250000Y-137250000D01*
X146428571Y-130952380D02*
X145857142Y-130952380D01*
X146142857Y-130952380D02*
X146142857Y-129952380D01*
X146047619Y-130095238D01*
X145952380Y-130190476D01*
X145857142Y-130238095D01*
X147047619Y-129952380D02*
X147142857Y-129952380D01*
X147238095Y-130000000D01*
X147285714Y-130047619D01*
X147333333Y-130142857D01*
X147380952Y-130333333D01*
X147380952Y-130571428D01*
X147333333Y-130761904D01*
X147285714Y-130857142D01*
X147238095Y-130904761D01*
X147142857Y-130952380D01*
X147047619Y-130952380D01*
X146952380Y-130904761D01*
X146904761Y-130857142D01*
X146857142Y-130761904D01*
X146809523Y-130571428D01*
X146809523Y-130333333D01*
X146857142Y-130142857D01*
X146904761Y-130047619D01*
X146952380Y-130000000D01*
X147047619Y-129952380D01*
X148238095Y-130285714D02*
X148238095Y-130952380D01*
X147809523Y-130285714D02*
X147809523Y-130809523D01*
X147857142Y-130904761D01*
X147952380Y-130952380D01*
X148095238Y-130952380D01*
X148190476Y-130904761D01*
X148238095Y-130857142D01*
X149047619Y-130428571D02*
X148714285Y-130428571D01*
X148714285Y-130952380D02*
X148714285Y-129952380D01*
X149190476Y-129952380D01*
X148928571Y-114827380D02*
X148357142Y-114827380D01*
X148642857Y-114827380D02*
X148642857Y-113827380D01*
X148547619Y-113970238D01*
X148452380Y-114065476D01*
X148357142Y-114113095D01*
X149547619Y-113827380D02*
X149642857Y-113827380D01*
X149738095Y-113875000D01*
X149785714Y-113922619D01*
X149833333Y-114017857D01*
X149880952Y-114208333D01*
X149880952Y-114446428D01*
X149833333Y-114636904D01*
X149785714Y-114732142D01*
X149738095Y-114779761D01*
X149642857Y-114827380D01*
X149547619Y-114827380D01*
X149452380Y-114779761D01*
X149404761Y-114732142D01*
X149357142Y-114636904D01*
X149309523Y-114446428D01*
X149309523Y-114208333D01*
X149357142Y-114017857D01*
X149404761Y-113922619D01*
X149452380Y-113875000D01*
X149547619Y-113827380D01*
X150738095Y-114160714D02*
X150738095Y-114827380D01*
X150309523Y-114160714D02*
X150309523Y-114684523D01*
X150357142Y-114779761D01*
X150452380Y-114827380D01*
X150595238Y-114827380D01*
X150690476Y-114779761D01*
X150738095Y-114732142D01*
X151547619Y-114303571D02*
X151214285Y-114303571D01*
X151214285Y-114827380D02*
X151214285Y-113827380D01*
X151690476Y-113827380D01*
X148357142Y-115572619D02*
X148404761Y-115525000D01*
X148500000Y-115477380D01*
X148738095Y-115477380D01*
X148833333Y-115525000D01*
X148880952Y-115572619D01*
X148928571Y-115667857D01*
X148928571Y-115763095D01*
X148880952Y-115905952D01*
X148309523Y-116477380D01*
X148928571Y-116477380D01*
X149547619Y-115477380D02*
X149642857Y-115477380D01*
X149738095Y-115525000D01*
X149785714Y-115572619D01*
X149833333Y-115667857D01*
X149880952Y-115858333D01*
X149880952Y-116096428D01*
X149833333Y-116286904D01*
X149785714Y-116382142D01*
X149738095Y-116429761D01*
X149642857Y-116477380D01*
X149547619Y-116477380D01*
X149452380Y-116429761D01*
X149404761Y-116382142D01*
X149357142Y-116286904D01*
X149309523Y-116096428D01*
X149309523Y-115858333D01*
X149357142Y-115667857D01*
X149404761Y-115572619D01*
X149452380Y-115525000D01*
X149547619Y-115477380D01*
X150309523Y-115810714D02*
X150309523Y-116810714D01*
X150309523Y-115858333D02*
X150404761Y-115810714D01*
X150595238Y-115810714D01*
X150690476Y-115858333D01*
X150738095Y-115905952D01*
X150785714Y-116001190D01*
X150785714Y-116286904D01*
X150738095Y-116382142D01*
X150690476Y-116429761D01*
X150595238Y-116477380D01*
X150404761Y-116477380D01*
X150309523Y-116429761D01*
X151547619Y-115953571D02*
X151214285Y-115953571D01*
X151214285Y-116477380D02*
X151214285Y-115477380D01*
X151690476Y-115477380D01*
X149685714Y-120252380D02*
X149114285Y-120252380D01*
X149400000Y-120252380D02*
X149400000Y-119252380D01*
X149304761Y-119395238D01*
X149209523Y-119490476D01*
X149114285Y-119538095D01*
X150304761Y-119252380D02*
X150400000Y-119252380D01*
X150495238Y-119300000D01*
X150542857Y-119347619D01*
X150590476Y-119442857D01*
X150638095Y-119633333D01*
X150638095Y-119871428D01*
X150590476Y-120061904D01*
X150542857Y-120157142D01*
X150495238Y-120204761D01*
X150400000Y-120252380D01*
X150304761Y-120252380D01*
X150209523Y-120204761D01*
X150161904Y-120157142D01*
X150114285Y-120061904D01*
X150066666Y-119871428D01*
X150066666Y-119633333D01*
X150114285Y-119442857D01*
X150161904Y-119347619D01*
X150209523Y-119300000D01*
X150304761Y-119252380D01*
X151257142Y-119252380D02*
X151352380Y-119252380D01*
X151447619Y-119300000D01*
X151495238Y-119347619D01*
X151542857Y-119442857D01*
X151590476Y-119633333D01*
X151590476Y-119871428D01*
X151542857Y-120061904D01*
X151495238Y-120157142D01*
X151447619Y-120204761D01*
X151352380Y-120252380D01*
X151257142Y-120252380D01*
X151161904Y-120204761D01*
X151114285Y-120157142D01*
X151066666Y-120061904D01*
X151019047Y-119871428D01*
X151019047Y-119633333D01*
X151066666Y-119442857D01*
X151114285Y-119347619D01*
X151161904Y-119300000D01*
X151257142Y-119252380D01*
X152019047Y-120252380D02*
X152019047Y-119252380D01*
X152114285Y-119871428D02*
X152400000Y-120252380D01*
X152400000Y-119585714D02*
X152019047Y-119966666D01*
X155638095Y-120252380D02*
X155066666Y-120252380D01*
X155352380Y-120252380D02*
X155352380Y-119252380D01*
X155257142Y-119395238D01*
X155161904Y-119490476D01*
X155066666Y-119538095D01*
X156066666Y-120252380D02*
X156066666Y-119252380D01*
X156161904Y-119871428D02*
X156447619Y-120252380D01*
X156447619Y-119585714D02*
X156066666Y-119966666D01*
X156876190Y-119871428D02*
X157638095Y-119871428D01*
X103300000Y-77985714D02*
X103300000Y-78652380D01*
X103061904Y-77604761D02*
X102823809Y-78319047D01*
X103442857Y-78319047D01*
X103823809Y-78557142D02*
X103871428Y-78604761D01*
X103823809Y-78652380D01*
X103776190Y-78604761D01*
X103823809Y-78557142D01*
X103823809Y-78652380D01*
X104204761Y-77652380D02*
X104871428Y-77652380D01*
X104442857Y-78652380D01*
X105252380Y-78271428D02*
X106014285Y-78271428D01*
X107014285Y-78652380D02*
X106442857Y-78652380D01*
X106728571Y-78652380D02*
X106728571Y-77652380D01*
X106633333Y-77795238D01*
X106538095Y-77890476D01*
X106442857Y-77938095D01*
X107633333Y-77652380D02*
X107728571Y-77652380D01*
X107823809Y-77700000D01*
X107871428Y-77747619D01*
X107919047Y-77842857D01*
X107966666Y-78033333D01*
X107966666Y-78271428D01*
X107919047Y-78461904D01*
X107871428Y-78557142D01*
X107823809Y-78604761D01*
X107728571Y-78652380D01*
X107633333Y-78652380D01*
X107538095Y-78604761D01*
X107490476Y-78557142D01*
X107442857Y-78461904D01*
X107395238Y-78271428D01*
X107395238Y-78033333D01*
X107442857Y-77842857D01*
X107490476Y-77747619D01*
X107538095Y-77700000D01*
X107633333Y-77652380D01*
X108395238Y-78652380D02*
X108395238Y-77652380D01*
X108490476Y-78271428D02*
X108776190Y-78652380D01*
X108776190Y-77985714D02*
X108395238Y-78366666D01*
X185985714Y-94500000D02*
X186652380Y-94500000D01*
X185604761Y-94738095D02*
X186319047Y-94976190D01*
X186319047Y-94357142D01*
X186557142Y-93976190D02*
X186604761Y-93928571D01*
X186652380Y-93976190D01*
X186604761Y-94023809D01*
X186557142Y-93976190D01*
X186652380Y-93976190D01*
X185652380Y-93595238D02*
X185652380Y-92928571D01*
X186652380Y-93357142D01*
X186271428Y-92547619D02*
X186271428Y-91785714D01*
X186652380Y-90785714D02*
X186652380Y-91357142D01*
X186652380Y-91071428D02*
X185652380Y-91071428D01*
X185795238Y-91166666D01*
X185890476Y-91261904D01*
X185938095Y-91357142D01*
X185652380Y-90166666D02*
X185652380Y-90071428D01*
X185700000Y-89976190D01*
X185747619Y-89928571D01*
X185842857Y-89880952D01*
X186033333Y-89833333D01*
X186271428Y-89833333D01*
X186461904Y-89880952D01*
X186557142Y-89928571D01*
X186604761Y-89976190D01*
X186652380Y-90071428D01*
X186652380Y-90166666D01*
X186604761Y-90261904D01*
X186557142Y-90309523D01*
X186461904Y-90357142D01*
X186271428Y-90404761D01*
X186033333Y-90404761D01*
X185842857Y-90357142D01*
X185747619Y-90309523D01*
X185700000Y-90261904D01*
X185652380Y-90166666D01*
X186652380Y-89404761D02*
X185652380Y-89404761D01*
X186271428Y-89309523D02*
X186652380Y-89023809D01*
X185985714Y-89023809D02*
X186366666Y-89404761D01*
X199652380Y-97395238D02*
X199652380Y-97966666D01*
X199652380Y-97680952D02*
X198652380Y-97680952D01*
X198795238Y-97776190D01*
X198890476Y-97871428D01*
X198938095Y-97966666D01*
X198652380Y-96776190D02*
X198652380Y-96680952D01*
X198700000Y-96585714D01*
X198747619Y-96538095D01*
X198842857Y-96490476D01*
X199033333Y-96442857D01*
X199271428Y-96442857D01*
X199461904Y-96490476D01*
X199557142Y-96538095D01*
X199604761Y-96585714D01*
X199652380Y-96680952D01*
X199652380Y-96776190D01*
X199604761Y-96871428D01*
X199557142Y-96919047D01*
X199461904Y-96966666D01*
X199271428Y-97014285D01*
X199033333Y-97014285D01*
X198842857Y-96966666D01*
X198747619Y-96919047D01*
X198700000Y-96871428D01*
X198652380Y-96776190D01*
X199652380Y-96014285D02*
X198652380Y-96014285D01*
X199271428Y-95919047D02*
X199652380Y-95633333D01*
X198985714Y-95633333D02*
X199366666Y-96014285D01*
X202652380Y-96671428D02*
X202652380Y-97242857D01*
X202652380Y-96957142D02*
X201652380Y-96957142D01*
X201795238Y-97052380D01*
X201890476Y-97147619D01*
X201938095Y-97242857D01*
X201652380Y-96052380D02*
X201652380Y-95957142D01*
X201700000Y-95861904D01*
X201747619Y-95814285D01*
X201842857Y-95766666D01*
X202033333Y-95719047D01*
X202271428Y-95719047D01*
X202461904Y-95766666D01*
X202557142Y-95814285D01*
X202604761Y-95861904D01*
X202652380Y-95957142D01*
X202652380Y-96052380D01*
X202604761Y-96147619D01*
X202557142Y-96195238D01*
X202461904Y-96242857D01*
X202271428Y-96290476D01*
X202033333Y-96290476D01*
X201842857Y-96242857D01*
X201747619Y-96195238D01*
X201700000Y-96147619D01*
X201652380Y-96052380D01*
X201985714Y-94861904D02*
X202652380Y-94861904D01*
X201985714Y-95290476D02*
X202509523Y-95290476D01*
X202604761Y-95242857D01*
X202652380Y-95147619D01*
X202652380Y-95004761D01*
X202604761Y-94909523D01*
X202557142Y-94861904D01*
X202128571Y-94052380D02*
X202128571Y-94385714D01*
X202652380Y-94385714D02*
X201652380Y-94385714D01*
X201652380Y-93909523D01*
D11*
X203652380Y-105085714D02*
X203652380Y-104990476D01*
X203700000Y-104895238D01*
X203747619Y-104847619D01*
X203842857Y-104800000D01*
X204033333Y-104752380D01*
X204271428Y-104752380D01*
X204461904Y-104800000D01*
X204557142Y-104847619D01*
X204604761Y-104895238D01*
X204652380Y-104990476D01*
X204652380Y-105085714D01*
X204604761Y-105180952D01*
X204557142Y-105228571D01*
X204461904Y-105276190D01*
X204271428Y-105323809D01*
X204033333Y-105323809D01*
X203842857Y-105276190D01*
X203747619Y-105228571D01*
X203700000Y-105180952D01*
X203652380Y-105085714D01*
X204557142Y-104323809D02*
X204604761Y-104276190D01*
X204652380Y-104323809D01*
X204604761Y-104371428D01*
X204557142Y-104323809D01*
X204652380Y-104323809D01*
X204652380Y-103323809D02*
X204652380Y-103895238D01*
X204652380Y-103609523D02*
X203652380Y-103609523D01*
X203795238Y-103704761D01*
X203890476Y-103800000D01*
X203938095Y-103895238D01*
X203985714Y-102466666D02*
X204652380Y-102466666D01*
X203985714Y-102895238D02*
X204509523Y-102895238D01*
X204604761Y-102847619D01*
X204652380Y-102752380D01*
X204652380Y-102609523D01*
X204604761Y-102514285D01*
X204557142Y-102466666D01*
X204128571Y-101657142D02*
X204128571Y-101990476D01*
X204652380Y-101990476D02*
X203652380Y-101990476D01*
X203652380Y-101514285D01*
X204652380Y-100466666D02*
X203985714Y-99942857D01*
X203985714Y-100466666D02*
X204652380Y-99942857D01*
X203747619Y-98847619D02*
X203700000Y-98800000D01*
X203652380Y-98704761D01*
X203652380Y-98466666D01*
X203700000Y-98371428D01*
X203747619Y-98323809D01*
X203842857Y-98276190D01*
X203938095Y-98276190D01*
X204080952Y-98323809D01*
X204652380Y-98895238D01*
X204652380Y-98276190D01*
D12*
X166714285Y-120852380D02*
X166809523Y-120852380D01*
X166904761Y-120900000D01*
X166952380Y-120947619D01*
X167000000Y-121042857D01*
X167047619Y-121233333D01*
X167047619Y-121471428D01*
X167000000Y-121661904D01*
X166952380Y-121757142D01*
X166904761Y-121804761D01*
X166809523Y-121852380D01*
X166714285Y-121852380D01*
X166619047Y-121804761D01*
X166571428Y-121757142D01*
X166523809Y-121661904D01*
X166476190Y-121471428D01*
X166476190Y-121233333D01*
X166523809Y-121042857D01*
X166571428Y-120947619D01*
X166619047Y-120900000D01*
X166714285Y-120852380D01*
X167476190Y-121757142D02*
X167523809Y-121804761D01*
X167476190Y-121852380D01*
X167428571Y-121804761D01*
X167476190Y-121757142D01*
X167476190Y-121852380D01*
X168476190Y-121852380D02*
X167904761Y-121852380D01*
X168190476Y-121852380D02*
X168190476Y-120852380D01*
X168095238Y-120995238D01*
X168000000Y-121090476D01*
X167904761Y-121138095D01*
X169333333Y-121185714D02*
X169333333Y-121852380D01*
X168904761Y-121185714D02*
X168904761Y-121709523D01*
X168952380Y-121804761D01*
X169047619Y-121852380D01*
X169190476Y-121852380D01*
X169285714Y-121804761D01*
X169333333Y-121757142D01*
X170142857Y-121328571D02*
X169809523Y-121328571D01*
X169809523Y-121852380D02*
X169809523Y-120852380D01*
X170285714Y-120852380D01*
X171333333Y-121852380D02*
X171857142Y-121185714D01*
X171333333Y-121185714D02*
X171857142Y-121852380D01*
X172904761Y-120852380D02*
X173523809Y-120852380D01*
X173190476Y-121233333D01*
X173333333Y-121233333D01*
X173428571Y-121280952D01*
X173476190Y-121328571D01*
X173523809Y-121423809D01*
X173523809Y-121661904D01*
X173476190Y-121757142D01*
X173428571Y-121804761D01*
X173333333Y-121852380D01*
X173047619Y-121852380D01*
X172952380Y-121804761D01*
X172904761Y-121757142D01*
X80271428Y-86747619D02*
X80319047Y-86700000D01*
X80414285Y-86652380D01*
X80652380Y-86652380D01*
X80747619Y-86700000D01*
X80795238Y-86747619D01*
X80842857Y-86842857D01*
X80842857Y-86938095D01*
X80795238Y-87080952D01*
X80223809Y-87652380D01*
X80842857Y-87652380D01*
X81176190Y-86652380D02*
X81842857Y-86652380D01*
X81414285Y-87652380D01*
X82414285Y-86652380D02*
X82509523Y-86652380D01*
X82604761Y-86700000D01*
X82652380Y-86747619D01*
X82700000Y-86842857D01*
X82747619Y-87033333D01*
X82747619Y-87271428D01*
X82700000Y-87461904D01*
X82652380Y-87557142D01*
X82604761Y-87604761D01*
X82509523Y-87652380D01*
X82414285Y-87652380D01*
X82319047Y-87604761D01*
X82271428Y-87557142D01*
X82223809Y-87461904D01*
X82176190Y-87271428D01*
X82176190Y-87033333D01*
X82223809Y-86842857D01*
X82271428Y-86747619D01*
X82319047Y-86700000D01*
X82414285Y-86652380D01*
X83176190Y-87271428D02*
X83938095Y-87271428D01*
X84842857Y-86985714D02*
X84842857Y-87652380D01*
X84604761Y-86604761D02*
X84366666Y-87319047D01*
X84985714Y-87319047D01*
X85271428Y-86652380D02*
X85938095Y-86652380D01*
X85509523Y-87652380D01*
X86509523Y-86652380D02*
X86604761Y-86652380D01*
X86700000Y-86700000D01*
X86747619Y-86747619D01*
X86795238Y-86842857D01*
X86842857Y-87033333D01*
X86842857Y-87271428D01*
X86795238Y-87461904D01*
X86747619Y-87557142D01*
X86700000Y-87604761D01*
X86604761Y-87652380D01*
X86509523Y-87652380D01*
X86414285Y-87604761D01*
X86366666Y-87557142D01*
X86319047Y-87461904D01*
X86271428Y-87271428D01*
X86271428Y-87033333D01*
X86319047Y-86842857D01*
X86366666Y-86747619D01*
X86414285Y-86700000D01*
X86509523Y-86652380D01*
X87938095Y-87652380D02*
X88461904Y-86985714D01*
X87938095Y-86985714D02*
X88461904Y-87652380D01*
X90033333Y-86985714D02*
X90033333Y-87652380D01*
X89795238Y-86604761D02*
X89557142Y-87319047D01*
X90176190Y-87319047D01*
X69652380Y-96485714D02*
X69652380Y-96390476D01*
X69700000Y-96295238D01*
X69747619Y-96247619D01*
X69842857Y-96200000D01*
X70033333Y-96152380D01*
X70271428Y-96152380D01*
X70461904Y-96200000D01*
X70557142Y-96247619D01*
X70604761Y-96295238D01*
X70652380Y-96390476D01*
X70652380Y-96485714D01*
X70604761Y-96580952D01*
X70557142Y-96628571D01*
X70461904Y-96676190D01*
X70271428Y-96723809D01*
X70033333Y-96723809D01*
X69842857Y-96676190D01*
X69747619Y-96628571D01*
X69700000Y-96580952D01*
X69652380Y-96485714D01*
X70557142Y-95723809D02*
X70604761Y-95676190D01*
X70652380Y-95723809D01*
X70604761Y-95771428D01*
X70557142Y-95723809D01*
X70652380Y-95723809D01*
X70652380Y-94723809D02*
X70652380Y-95295238D01*
X70652380Y-95009523D02*
X69652380Y-95009523D01*
X69795238Y-95104761D01*
X69890476Y-95200000D01*
X69938095Y-95295238D01*
X69985714Y-93866666D02*
X70652380Y-93866666D01*
X69985714Y-94295238D02*
X70509523Y-94295238D01*
X70604761Y-94247619D01*
X70652380Y-94152380D01*
X70652380Y-94009523D01*
X70604761Y-93914285D01*
X70557142Y-93866666D01*
X70128571Y-93057142D02*
X70128571Y-93390476D01*
X70652380Y-93390476D02*
X69652380Y-93390476D01*
X69652380Y-92914285D01*
X70652380Y-91866666D02*
X69985714Y-91342857D01*
X69985714Y-91866666D02*
X70652380Y-91342857D01*
X69652380Y-90295238D02*
X69652380Y-89676190D01*
X70033333Y-90009523D01*
X70033333Y-89866666D01*
X70080952Y-89771428D01*
X70128571Y-89723809D01*
X70223809Y-89676190D01*
X70461904Y-89676190D01*
X70557142Y-89723809D01*
X70604761Y-89771428D01*
X70652380Y-89866666D01*
X70652380Y-90152380D01*
X70604761Y-90247619D01*
X70557142Y-90295238D01*
D13*
X162600000Y-137500000D02*
X162600000Y-82500000D01*
X162600000Y-82500000D02*
X73300000Y-82500000D01*
X73300000Y-82500000D02*
X73300000Y-137500000D01*
X73300000Y-137500000D02*
X162600000Y-137500000D01*
X156800000Y-137500000D02*
X156800000Y-82500000D01*
X79100000Y-137500000D02*
X79100000Y-82500000D01*
X82600000Y-85700000D02*
X82600000Y-134300000D01*
X147400000Y-85700000D02*
X147400000Y-134300000D01*
X147400000Y-85700000D02*
X82600000Y-85700000D01*
X82600000Y-134300000D02*
X147400000Y-134300000D01*
X202272500Y-101937742D02*
X202272500Y-102412258D01*
X201227500Y-101937742D02*
X201227500Y-102412258D01*
X203272500Y-106237258D02*
X203272500Y-105762742D01*
X202227500Y-106237258D02*
X202227500Y-105762742D01*
X202360000Y-98372164D02*
X202360000Y-98587836D01*
X201640000Y-98372164D02*
X201640000Y-98587836D01*
X156212164Y-116160000D02*
X156427836Y-116160000D01*
X156212164Y-115440000D02*
X156427836Y-115440000D01*
X105412258Y-80477500D02*
X104937742Y-80477500D01*
X105412258Y-81522500D02*
X104937742Y-81522500D01*
X201272500Y-97937742D02*
X201272500Y-98412258D01*
X200227500Y-97937742D02*
X200227500Y-98412258D01*
X188197500Y-92737258D02*
X188197500Y-92262742D01*
X187152500Y-92737258D02*
X187152500Y-92262742D01*
X101477500Y-86937742D02*
X101477500Y-87412258D01*
X102522500Y-86937742D02*
X102522500Y-87412258D01*
X99522500Y-86937742D02*
X99522500Y-87412258D01*
X98477500Y-86937742D02*
X98477500Y-87412258D01*
X94477500Y-86937742D02*
X94477500Y-87412258D01*
X95522500Y-86937742D02*
X95522500Y-87412258D01*
X91522500Y-86937742D02*
X91522500Y-87412258D01*
X90477500Y-86937742D02*
X90477500Y-87412258D01*
X156137742Y-118722500D02*
X156612258Y-118722500D01*
X156137742Y-117677500D02*
X156612258Y-117677500D01*
X151137742Y-118722500D02*
X151612258Y-118722500D01*
X151137742Y-117677500D02*
X151612258Y-117677500D01*
X173000000Y-110000000D02*
G75*
G03*
X173000000Y-110000000I-3000000J0D01*
G01*
X164100000Y-108000000D02*
X164100000Y-103900000D01*
X175900000Y-103900000D02*
X175900000Y-108000000D01*
X175900000Y-112000000D02*
X175900000Y-116100000D01*
X164100000Y-112000000D02*
X164100000Y-116100000D01*
X164100000Y-116100000D02*
X175900000Y-116100000D01*
X166200000Y-117500000D02*
X165900000Y-117800000D01*
X165900000Y-117800000D02*
X165900000Y-117200000D01*
X165900000Y-117200000D02*
X166200000Y-117500000D01*
X164100000Y-103900000D02*
X166500000Y-103900000D01*
X168700000Y-103900000D02*
X171300000Y-103900000D01*
X173500000Y-103900000D02*
X175900000Y-103900000D01*
X169500000Y-110000000D02*
X170500000Y-110000000D01*
X170000000Y-110500000D02*
X170000000Y-109500000D01*
X60000000Y-110500000D02*
X60000000Y-109500000D01*
X59500000Y-110000000D02*
X60500000Y-110000000D01*
X63500000Y-103900000D02*
X65900000Y-103900000D01*
X58700000Y-103900000D02*
X61300000Y-103900000D01*
X54100000Y-103900000D02*
X56500000Y-103900000D01*
X55900000Y-117200000D02*
X56200000Y-117500000D01*
X55900000Y-117800000D02*
X55900000Y-117200000D01*
X56200000Y-117500000D02*
X55900000Y-117800000D01*
X54100000Y-116100000D02*
X65900000Y-116100000D01*
X54100000Y-112000000D02*
X54100000Y-116100000D01*
X65900000Y-112000000D02*
X65900000Y-116100000D01*
X65900000Y-103900000D02*
X65900000Y-108000000D01*
X54100000Y-108000000D02*
X54100000Y-103900000D01*
X63000000Y-110000000D02*
G75*
G03*
X63000000Y-110000000I-3000000J0D01*
G01*
D10*
X186259109Y-119329970D02*
X194574025Y-115885819D01*
X188555210Y-124873247D02*
X186259109Y-119329970D01*
X205185042Y-117984946D02*
X188555210Y-124873247D01*
X202888941Y-112441668D02*
X205185042Y-117984946D01*
X194574025Y-115885819D02*
X202888941Y-112441668D01*
X178796782Y-101314319D02*
X186259109Y-119329970D01*
X195426614Y-94426018D02*
X178796782Y-101314319D01*
X202888941Y-112441668D02*
X195426614Y-94426018D01*
D13*
X152200000Y-93600000D02*
X152200000Y-96400000D01*
X152200000Y-96400000D02*
X150200000Y-96400000D01*
X150200000Y-96400000D02*
X150200000Y-93600000D01*
X150200000Y-93600000D02*
X152200000Y-93600000D01*
X148800000Y-93500000D02*
X148800000Y-96300000D01*
X148100000Y-96950000D02*
X147500000Y-96950000D01*
X146800000Y-96300000D02*
X146800000Y-93500000D01*
X147500000Y-92850000D02*
X148100000Y-92850000D01*
X148800000Y-96250000D02*
G75*
G02*
X148100000Y-96950000I-700000J0D01*
G01*
X147500000Y-96950000D02*
G75*
G02*
X146800000Y-96250000I0J700000D01*
G01*
X146800000Y-93550000D02*
G75*
G02*
X147500000Y-92850000I700000J0D01*
G01*
X148100000Y-92850000D02*
G75*
G02*
X148800000Y-93550000I0J-700000D01*
G01*
X155522500Y-92837258D02*
X155522500Y-92362742D01*
X154477500Y-92837258D02*
X154477500Y-92362742D01*
X170153329Y-96247925D02*
X169050663Y-89994396D01*
X176406859Y-95145259D02*
X170153329Y-96247925D01*
X175304193Y-88891730D02*
X176406859Y-95145259D01*
X169050663Y-89994396D02*
X175304193Y-88891730D01*
X175568568Y-92569827D02*
G75*
G03*
X175568568Y-92569827I-2839807J0D01*
G01*
X184300824Y-95293299D02*
G75*
G03*
X184300824Y-95293299I-1419903J0D01*
G01*
X183323514Y-86832911D02*
X163312220Y-90361442D01*
X185087780Y-96838558D02*
X183323514Y-86832911D01*
X165076486Y-100367089D02*
X185087780Y-96838558D01*
X163312220Y-90361442D02*
X165076486Y-100367089D01*
X165037258Y-122122500D02*
X164562742Y-122122500D01*
X165037258Y-121077500D02*
X164562742Y-121077500D01*
X70412258Y-104977500D02*
X69937742Y-104977500D01*
X70412258Y-106022500D02*
X69937742Y-106022500D01*
X70412258Y-102922500D02*
X69937742Y-102922500D01*
X70412258Y-101877500D02*
X69937742Y-101877500D01*
X163812258Y-117277500D02*
X163337742Y-117277500D01*
X163812258Y-118322500D02*
X163337742Y-118322500D01*
X164212258Y-119077500D02*
X163737742Y-119077500D01*
X164212258Y-120122500D02*
X163737742Y-120122500D01*
X156507836Y-114160000D02*
X156292164Y-114160000D01*
X156507836Y-113440000D02*
X156292164Y-113440000D01*
X147707836Y-131440000D02*
X147492164Y-131440000D01*
X147707836Y-132160000D02*
X147492164Y-132160000D01*
X148800000Y-133400000D02*
X152650000Y-133400000D01*
X148800000Y-135400000D02*
X152650000Y-135400000D01*
X148800000Y-133400000D02*
X148800000Y-135400000D01*
X69962742Y-100322500D02*
X70437258Y-100322500D01*
X69962742Y-99277500D02*
X70437258Y-99277500D01*
D10*
X116598095Y-139932380D02*
X116598095Y-140741904D01*
X116645714Y-140837142D01*
X116693333Y-140884761D01*
X116788571Y-140932380D01*
X116979047Y-140932380D01*
X117074285Y-140884761D01*
X117121904Y-140837142D01*
X117169523Y-140741904D01*
X117169523Y-139932380D01*
X118169523Y-140932380D02*
X117598095Y-140932380D01*
X117883809Y-140932380D02*
X117883809Y-139932380D01*
X117788571Y-140075238D01*
X117693333Y-140170476D01*
X117598095Y-140218095D01*
X200757142Y-102166666D02*
X200804761Y-102214285D01*
X200852380Y-102357142D01*
X200852380Y-102452380D01*
X200804761Y-102595238D01*
X200709523Y-102690476D01*
X200614285Y-102738095D01*
X200423809Y-102785714D01*
X200280952Y-102785714D01*
X200090476Y-102738095D01*
X199995238Y-102690476D01*
X199900000Y-102595238D01*
X199852380Y-102452380D01*
X199852380Y-102357142D01*
X199900000Y-102214285D01*
X199947619Y-102166666D01*
X200852380Y-101214285D02*
X200852380Y-101785714D01*
X200852380Y-101500000D02*
X199852380Y-101500000D01*
X199995238Y-101595238D01*
X200090476Y-101690476D01*
X200138095Y-101785714D01*
X201757142Y-104966666D02*
X201804761Y-105014285D01*
X201852380Y-105157142D01*
X201852380Y-105252380D01*
X201804761Y-105395238D01*
X201709523Y-105490476D01*
X201614285Y-105538095D01*
X201423809Y-105585714D01*
X201280952Y-105585714D01*
X201090476Y-105538095D01*
X200995238Y-105490476D01*
X200900000Y-105395238D01*
X200852380Y-105252380D01*
X200852380Y-105157142D01*
X200900000Y-105014285D01*
X200947619Y-104966666D01*
X200947619Y-104585714D02*
X200900000Y-104538095D01*
X200852380Y-104442857D01*
X200852380Y-104204761D01*
X200900000Y-104109523D01*
X200947619Y-104061904D01*
X201042857Y-104014285D01*
X201138095Y-104014285D01*
X201280952Y-104061904D01*
X201852380Y-104633333D01*
X201852380Y-104014285D01*
X203517142Y-98646666D02*
X203564761Y-98694285D01*
X203612380Y-98837142D01*
X203612380Y-98932380D01*
X203564761Y-99075238D01*
X203469523Y-99170476D01*
X203374285Y-99218095D01*
X203183809Y-99265714D01*
X203040952Y-99265714D01*
X202850476Y-99218095D01*
X202755238Y-99170476D01*
X202660000Y-99075238D01*
X202612380Y-98932380D01*
X202612380Y-98837142D01*
X202660000Y-98694285D01*
X202707619Y-98646666D01*
X202612380Y-98313333D02*
X202612380Y-97694285D01*
X202993333Y-98027619D01*
X202993333Y-97884761D01*
X203040952Y-97789523D01*
X203088571Y-97741904D01*
X203183809Y-97694285D01*
X203421904Y-97694285D01*
X203517142Y-97741904D01*
X203564761Y-97789523D01*
X203612380Y-97884761D01*
X203612380Y-98170476D01*
X203564761Y-98265714D01*
X203517142Y-98313333D01*
X153633333Y-116357142D02*
X153585714Y-116404761D01*
X153442857Y-116452380D01*
X153347619Y-116452380D01*
X153204761Y-116404761D01*
X153109523Y-116309523D01*
X153061904Y-116214285D01*
X153014285Y-116023809D01*
X153014285Y-115880952D01*
X153061904Y-115690476D01*
X153109523Y-115595238D01*
X153204761Y-115500000D01*
X153347619Y-115452380D01*
X153442857Y-115452380D01*
X153585714Y-115500000D01*
X153633333Y-115547619D01*
X154490476Y-115452380D02*
X154300000Y-115452380D01*
X154204761Y-115500000D01*
X154157142Y-115547619D01*
X154061904Y-115690476D01*
X154014285Y-115880952D01*
X154014285Y-116261904D01*
X154061904Y-116357142D01*
X154109523Y-116404761D01*
X154204761Y-116452380D01*
X154395238Y-116452380D01*
X154490476Y-116404761D01*
X154538095Y-116357142D01*
X154585714Y-116261904D01*
X154585714Y-116023809D01*
X154538095Y-115928571D01*
X154490476Y-115880952D01*
X154395238Y-115833333D01*
X154204761Y-115833333D01*
X154109523Y-115880952D01*
X154061904Y-115928571D01*
X154014285Y-116023809D01*
X105008333Y-82882380D02*
X104675000Y-82406190D01*
X104436904Y-82882380D02*
X104436904Y-81882380D01*
X104817857Y-81882380D01*
X104913095Y-81930000D01*
X104960714Y-81977619D01*
X105008333Y-82072857D01*
X105008333Y-82215714D01*
X104960714Y-82310952D01*
X104913095Y-82358571D01*
X104817857Y-82406190D01*
X104436904Y-82406190D01*
X105960714Y-82882380D02*
X105389285Y-82882380D01*
X105675000Y-82882380D02*
X105675000Y-81882380D01*
X105579761Y-82025238D01*
X105484523Y-82120476D01*
X105389285Y-82168095D01*
X201202380Y-95666666D02*
X200726190Y-96000000D01*
X201202380Y-96238095D02*
X200202380Y-96238095D01*
X200202380Y-95857142D01*
X200250000Y-95761904D01*
X200297619Y-95714285D01*
X200392857Y-95666666D01*
X200535714Y-95666666D01*
X200630952Y-95714285D01*
X200678571Y-95761904D01*
X200726190Y-95857142D01*
X200726190Y-96238095D01*
X200297619Y-95285714D02*
X200250000Y-95238095D01*
X200202380Y-95142857D01*
X200202380Y-94904761D01*
X200250000Y-94809523D01*
X200297619Y-94761904D01*
X200392857Y-94714285D01*
X200488095Y-94714285D01*
X200630952Y-94761904D01*
X201202380Y-95333333D01*
X201202380Y-94714285D01*
X185452380Y-91366666D02*
X184976190Y-91700000D01*
X185452380Y-91938095D02*
X184452380Y-91938095D01*
X184452380Y-91557142D01*
X184500000Y-91461904D01*
X184547619Y-91414285D01*
X184642857Y-91366666D01*
X184785714Y-91366666D01*
X184880952Y-91414285D01*
X184928571Y-91461904D01*
X184976190Y-91557142D01*
X184976190Y-91938095D01*
X184452380Y-91033333D02*
X184452380Y-90414285D01*
X184833333Y-90747619D01*
X184833333Y-90604761D01*
X184880952Y-90509523D01*
X184928571Y-90461904D01*
X185023809Y-90414285D01*
X185261904Y-90414285D01*
X185357142Y-90461904D01*
X185404761Y-90509523D01*
X185452380Y-90604761D01*
X185452380Y-90890476D01*
X185404761Y-90985714D01*
X185357142Y-91033333D01*
X103882380Y-87341666D02*
X103406190Y-87675000D01*
X103882380Y-87913095D02*
X102882380Y-87913095D01*
X102882380Y-87532142D01*
X102930000Y-87436904D01*
X102977619Y-87389285D01*
X103072857Y-87341666D01*
X103215714Y-87341666D01*
X103310952Y-87389285D01*
X103358571Y-87436904D01*
X103406190Y-87532142D01*
X103406190Y-87913095D01*
X102882380Y-86436904D02*
X102882380Y-86913095D01*
X103358571Y-86960714D01*
X103310952Y-86913095D01*
X103263333Y-86817857D01*
X103263333Y-86579761D01*
X103310952Y-86484523D01*
X103358571Y-86436904D01*
X103453809Y-86389285D01*
X103691904Y-86389285D01*
X103787142Y-86436904D01*
X103834761Y-86484523D01*
X103882380Y-86579761D01*
X103882380Y-86817857D01*
X103834761Y-86913095D01*
X103787142Y-86960714D01*
X100882380Y-87341666D02*
X100406190Y-87675000D01*
X100882380Y-87913095D02*
X99882380Y-87913095D01*
X99882380Y-87532142D01*
X99930000Y-87436904D01*
X99977619Y-87389285D01*
X100072857Y-87341666D01*
X100215714Y-87341666D01*
X100310952Y-87389285D01*
X100358571Y-87436904D01*
X100406190Y-87532142D01*
X100406190Y-87913095D01*
X99882380Y-86484523D02*
X99882380Y-86675000D01*
X99930000Y-86770238D01*
X99977619Y-86817857D01*
X100120476Y-86913095D01*
X100310952Y-86960714D01*
X100691904Y-86960714D01*
X100787142Y-86913095D01*
X100834761Y-86865476D01*
X100882380Y-86770238D01*
X100882380Y-86579761D01*
X100834761Y-86484523D01*
X100787142Y-86436904D01*
X100691904Y-86389285D01*
X100453809Y-86389285D01*
X100358571Y-86436904D01*
X100310952Y-86484523D01*
X100263333Y-86579761D01*
X100263333Y-86770238D01*
X100310952Y-86865476D01*
X100358571Y-86913095D01*
X100453809Y-86960714D01*
X96882380Y-87341666D02*
X96406190Y-87675000D01*
X96882380Y-87913095D02*
X95882380Y-87913095D01*
X95882380Y-87532142D01*
X95930000Y-87436904D01*
X95977619Y-87389285D01*
X96072857Y-87341666D01*
X96215714Y-87341666D01*
X96310952Y-87389285D01*
X96358571Y-87436904D01*
X96406190Y-87532142D01*
X96406190Y-87913095D01*
X95882380Y-87008333D02*
X95882380Y-86341666D01*
X96882380Y-86770238D01*
X92882380Y-87341666D02*
X92406190Y-87675000D01*
X92882380Y-87913095D02*
X91882380Y-87913095D01*
X91882380Y-87532142D01*
X91930000Y-87436904D01*
X91977619Y-87389285D01*
X92072857Y-87341666D01*
X92215714Y-87341666D01*
X92310952Y-87389285D01*
X92358571Y-87436904D01*
X92406190Y-87532142D01*
X92406190Y-87913095D01*
X92310952Y-86770238D02*
X92263333Y-86865476D01*
X92215714Y-86913095D01*
X92120476Y-86960714D01*
X92072857Y-86960714D01*
X91977619Y-86913095D01*
X91930000Y-86865476D01*
X91882380Y-86770238D01*
X91882380Y-86579761D01*
X91930000Y-86484523D01*
X91977619Y-86436904D01*
X92072857Y-86389285D01*
X92120476Y-86389285D01*
X92215714Y-86436904D01*
X92263333Y-86484523D01*
X92310952Y-86579761D01*
X92310952Y-86770238D01*
X92358571Y-86865476D01*
X92406190Y-86913095D01*
X92501428Y-86960714D01*
X92691904Y-86960714D01*
X92787142Y-86913095D01*
X92834761Y-86865476D01*
X92882380Y-86770238D01*
X92882380Y-86579761D01*
X92834761Y-86484523D01*
X92787142Y-86436904D01*
X92691904Y-86389285D01*
X92501428Y-86389285D01*
X92406190Y-86436904D01*
X92358571Y-86484523D01*
X92310952Y-86579761D01*
X153633333Y-118652380D02*
X153300000Y-118176190D01*
X153061904Y-118652380D02*
X153061904Y-117652380D01*
X153442857Y-117652380D01*
X153538095Y-117700000D01*
X153585714Y-117747619D01*
X153633333Y-117842857D01*
X153633333Y-117985714D01*
X153585714Y-118080952D01*
X153538095Y-118128571D01*
X153442857Y-118176190D01*
X153061904Y-118176190D01*
X154109523Y-118652380D02*
X154300000Y-118652380D01*
X154395238Y-118604761D01*
X154442857Y-118557142D01*
X154538095Y-118414285D01*
X154585714Y-118223809D01*
X154585714Y-117842857D01*
X154538095Y-117747619D01*
X154490476Y-117700000D01*
X154395238Y-117652380D01*
X154204761Y-117652380D01*
X154109523Y-117700000D01*
X154061904Y-117747619D01*
X154014285Y-117842857D01*
X154014285Y-118080952D01*
X154061904Y-118176190D01*
X154109523Y-118223809D01*
X154204761Y-118271428D01*
X154395238Y-118271428D01*
X154490476Y-118223809D01*
X154538095Y-118176190D01*
X154585714Y-118080952D01*
X147557142Y-118652380D02*
X147223809Y-118176190D01*
X146985714Y-118652380D02*
X146985714Y-117652380D01*
X147366666Y-117652380D01*
X147461904Y-117700000D01*
X147509523Y-117747619D01*
X147557142Y-117842857D01*
X147557142Y-117985714D01*
X147509523Y-118080952D01*
X147461904Y-118128571D01*
X147366666Y-118176190D01*
X146985714Y-118176190D01*
X148509523Y-118652380D02*
X147938095Y-118652380D01*
X148223809Y-118652380D02*
X148223809Y-117652380D01*
X148128571Y-117795238D01*
X148033333Y-117890476D01*
X147938095Y-117938095D01*
X149128571Y-117652380D02*
X149223809Y-117652380D01*
X149319047Y-117700000D01*
X149366666Y-117747619D01*
X149414285Y-117842857D01*
X149461904Y-118033333D01*
X149461904Y-118271428D01*
X149414285Y-118461904D01*
X149366666Y-118557142D01*
X149319047Y-118604761D01*
X149223809Y-118652380D01*
X149128571Y-118652380D01*
X149033333Y-118604761D01*
X148985714Y-118557142D01*
X148938095Y-118461904D01*
X148890476Y-118271428D01*
X148890476Y-118033333D01*
X148938095Y-117842857D01*
X148985714Y-117747619D01*
X149033333Y-117700000D01*
X149128571Y-117652380D01*
X163204761Y-116033333D02*
X163252380Y-115890476D01*
X163252380Y-115652380D01*
X163204761Y-115557142D01*
X163157142Y-115509523D01*
X163061904Y-115461904D01*
X162966666Y-115461904D01*
X162871428Y-115509523D01*
X162823809Y-115557142D01*
X162776190Y-115652380D01*
X162728571Y-115842857D01*
X162680952Y-115938095D01*
X162633333Y-115985714D01*
X162538095Y-116033333D01*
X162442857Y-116033333D01*
X162347619Y-115985714D01*
X162300000Y-115938095D01*
X162252380Y-115842857D01*
X162252380Y-115604761D01*
X162300000Y-115461904D01*
X162252380Y-115128571D02*
X163252380Y-114890476D01*
X162538095Y-114700000D01*
X163252380Y-114509523D01*
X162252380Y-114271428D01*
X163252380Y-113366666D02*
X163252380Y-113938095D01*
X163252380Y-113652380D02*
X162252380Y-113652380D01*
X162395238Y-113747619D01*
X162490476Y-113842857D01*
X162538095Y-113938095D01*
X53204761Y-116033333D02*
X53252380Y-115890476D01*
X53252380Y-115652380D01*
X53204761Y-115557142D01*
X53157142Y-115509523D01*
X53061904Y-115461904D01*
X52966666Y-115461904D01*
X52871428Y-115509523D01*
X52823809Y-115557142D01*
X52776190Y-115652380D01*
X52728571Y-115842857D01*
X52680952Y-115938095D01*
X52633333Y-115985714D01*
X52538095Y-116033333D01*
X52442857Y-116033333D01*
X52347619Y-115985714D01*
X52300000Y-115938095D01*
X52252380Y-115842857D01*
X52252380Y-115604761D01*
X52300000Y-115461904D01*
X52252380Y-115128571D02*
X53252380Y-114890476D01*
X52538095Y-114700000D01*
X53252380Y-114509523D01*
X52252380Y-114271428D01*
X52347619Y-113938095D02*
X52300000Y-113890476D01*
X52252380Y-113795238D01*
X52252380Y-113557142D01*
X52300000Y-113461904D01*
X52347619Y-113414285D01*
X52442857Y-113366666D01*
X52538095Y-113366666D01*
X52680952Y-113414285D01*
X53252380Y-113985714D01*
X53252380Y-113366666D01*
X196339336Y-122138610D02*
X196649127Y-122886512D01*
X196729567Y-122956278D01*
X196791784Y-122982049D01*
X196897996Y-122989597D01*
X197073973Y-122916705D01*
X197143739Y-122836265D01*
X197169510Y-122774048D01*
X197177058Y-122667836D01*
X196867267Y-121919934D01*
X197299661Y-121843915D02*
X197325432Y-121781698D01*
X197395198Y-121701257D01*
X197615169Y-121610142D01*
X197721381Y-121617690D01*
X197783598Y-121643462D01*
X197864038Y-121713227D01*
X197900484Y-121801216D01*
X197911159Y-121951422D01*
X197601904Y-122698029D01*
X198173830Y-122461130D01*
X59238095Y-136252380D02*
X59238095Y-135252380D01*
X59238095Y-135728571D02*
X59809523Y-135728571D01*
X59809523Y-136252380D02*
X59809523Y-135252380D01*
X60238095Y-135347619D02*
X60285714Y-135300000D01*
X60380952Y-135252380D01*
X60619047Y-135252380D01*
X60714285Y-135300000D01*
X60761904Y-135347619D01*
X60809523Y-135442857D01*
X60809523Y-135538095D01*
X60761904Y-135680952D01*
X60190476Y-136252380D01*
X60809523Y-136252380D01*
X169238095Y-76252380D02*
X169238095Y-75252380D01*
X169238095Y-75728571D02*
X169809523Y-75728571D01*
X169809523Y-76252380D02*
X169809523Y-75252380D01*
X170190476Y-75252380D02*
X170809523Y-75252380D01*
X170476190Y-75633333D01*
X170619047Y-75633333D01*
X170714285Y-75680952D01*
X170761904Y-75728571D01*
X170809523Y-75823809D01*
X170809523Y-76061904D01*
X170761904Y-76157142D01*
X170714285Y-76204761D01*
X170619047Y-76252380D01*
X170333333Y-76252380D01*
X170238095Y-76204761D01*
X170190476Y-76157142D01*
X169238095Y-136252380D02*
X169238095Y-135252380D01*
X169238095Y-135728571D02*
X169809523Y-135728571D01*
X169809523Y-136252380D02*
X169809523Y-135252380D01*
X170714285Y-135585714D02*
X170714285Y-136252380D01*
X170476190Y-135204761D02*
X170238095Y-135919047D01*
X170857142Y-135919047D01*
X59238095Y-76252380D02*
X59238095Y-75252380D01*
X59238095Y-75728571D02*
X59809523Y-75728571D01*
X59809523Y-76252380D02*
X59809523Y-75252380D01*
X60809523Y-76252380D02*
X60238095Y-76252380D01*
X60523809Y-76252380D02*
X60523809Y-75252380D01*
X60428571Y-75395238D01*
X60333333Y-75490476D01*
X60238095Y-75538095D01*
X152452380Y-95833333D02*
X153166666Y-95833333D01*
X153309523Y-95880952D01*
X153404761Y-95976190D01*
X153452380Y-96119047D01*
X153452380Y-96214285D01*
X153452380Y-95357142D02*
X152452380Y-95357142D01*
X152452380Y-94976190D01*
X152500000Y-94880952D01*
X152547619Y-94833333D01*
X152642857Y-94785714D01*
X152785714Y-94785714D01*
X152880952Y-94833333D01*
X152928571Y-94880952D01*
X152976190Y-94976190D01*
X152976190Y-95357142D01*
X153452380Y-93833333D02*
X153452380Y-94404761D01*
X153452380Y-94119047D02*
X152452380Y-94119047D01*
X152595238Y-94214285D01*
X152690476Y-94309523D01*
X152738095Y-94404761D01*
X149052380Y-95733333D02*
X149766666Y-95733333D01*
X149909523Y-95780952D01*
X150004761Y-95876190D01*
X150052380Y-96019047D01*
X150052380Y-96114285D01*
X150052380Y-95257142D02*
X149052380Y-95257142D01*
X149052380Y-94876190D01*
X149100000Y-94780952D01*
X149147619Y-94733333D01*
X149242857Y-94685714D01*
X149385714Y-94685714D01*
X149480952Y-94733333D01*
X149528571Y-94780952D01*
X149576190Y-94876190D01*
X149576190Y-95257142D01*
X149147619Y-94304761D02*
X149100000Y-94257142D01*
X149052380Y-94161904D01*
X149052380Y-93923809D01*
X149100000Y-93828571D01*
X149147619Y-93780952D01*
X149242857Y-93733333D01*
X149338095Y-93733333D01*
X149480952Y-93780952D01*
X150052380Y-94352380D01*
X150052380Y-93733333D01*
X147252380Y-97833333D02*
X147252380Y-97214285D01*
X147633333Y-97547619D01*
X147633333Y-97404761D01*
X147680952Y-97309523D01*
X147728571Y-97261904D01*
X147823809Y-97214285D01*
X148061904Y-97214285D01*
X148157142Y-97261904D01*
X148204761Y-97309523D01*
X148252380Y-97404761D01*
X148252380Y-97690476D01*
X148204761Y-97785714D01*
X148157142Y-97833333D01*
X148252380Y-92014285D02*
X148252380Y-92585714D01*
X148252380Y-92300000D02*
X147252380Y-92300000D01*
X147395238Y-92395238D01*
X147490476Y-92490476D01*
X147538095Y-92585714D01*
X154022380Y-92766666D02*
X153546190Y-93100000D01*
X154022380Y-93338095D02*
X153022380Y-93338095D01*
X153022380Y-92957142D01*
X153070000Y-92861904D01*
X153117619Y-92814285D01*
X153212857Y-92766666D01*
X153355714Y-92766666D01*
X153450952Y-92814285D01*
X153498571Y-92861904D01*
X153546190Y-92957142D01*
X153546190Y-93338095D01*
X153355714Y-91909523D02*
X154022380Y-91909523D01*
X152974761Y-92147619D02*
X153689047Y-92385714D01*
X153689047Y-91766666D01*
X174016177Y-96945121D02*
X174156749Y-97742347D01*
X174220183Y-97827869D01*
X174275347Y-97866496D01*
X174377407Y-97896853D01*
X174564990Y-97863777D01*
X174650512Y-97800344D01*
X174689139Y-97745179D01*
X174719496Y-97643119D01*
X174578924Y-96845894D01*
X174954089Y-96779742D02*
X175563732Y-96672246D01*
X175301614Y-97105293D01*
X175442301Y-97080486D01*
X175544361Y-97110844D01*
X175599526Y-97149471D01*
X175662959Y-97234993D01*
X175704304Y-97469471D01*
X175673946Y-97571531D01*
X175635320Y-97626696D01*
X175549798Y-97690129D01*
X175268424Y-97739743D01*
X175166364Y-97709385D01*
X175111199Y-97670759D01*
X164633333Y-123387142D02*
X164585714Y-123434761D01*
X164442857Y-123482380D01*
X164347619Y-123482380D01*
X164204761Y-123434761D01*
X164109523Y-123339523D01*
X164061904Y-123244285D01*
X164014285Y-123053809D01*
X164014285Y-122910952D01*
X164061904Y-122720476D01*
X164109523Y-122625238D01*
X164204761Y-122530000D01*
X164347619Y-122482380D01*
X164442857Y-122482380D01*
X164585714Y-122530000D01*
X164633333Y-122577619D01*
X165490476Y-122815714D02*
X165490476Y-123482380D01*
X165252380Y-122434761D02*
X165014285Y-123149047D01*
X165633333Y-123149047D01*
X70008333Y-107287142D02*
X69960714Y-107334761D01*
X69817857Y-107382380D01*
X69722619Y-107382380D01*
X69579761Y-107334761D01*
X69484523Y-107239523D01*
X69436904Y-107144285D01*
X69389285Y-106953809D01*
X69389285Y-106810952D01*
X69436904Y-106620476D01*
X69484523Y-106525238D01*
X69579761Y-106430000D01*
X69722619Y-106382380D01*
X69817857Y-106382380D01*
X69960714Y-106430000D01*
X70008333Y-106477619D01*
X70913095Y-106382380D02*
X70436904Y-106382380D01*
X70389285Y-106858571D01*
X70436904Y-106810952D01*
X70532142Y-106763333D01*
X70770238Y-106763333D01*
X70865476Y-106810952D01*
X70913095Y-106858571D01*
X70960714Y-106953809D01*
X70960714Y-107191904D01*
X70913095Y-107287142D01*
X70865476Y-107334761D01*
X70770238Y-107382380D01*
X70532142Y-107382380D01*
X70436904Y-107334761D01*
X70389285Y-107287142D01*
X70008333Y-104187142D02*
X69960714Y-104234761D01*
X69817857Y-104282380D01*
X69722619Y-104282380D01*
X69579761Y-104234761D01*
X69484523Y-104139523D01*
X69436904Y-104044285D01*
X69389285Y-103853809D01*
X69389285Y-103710952D01*
X69436904Y-103520476D01*
X69484523Y-103425238D01*
X69579761Y-103330000D01*
X69722619Y-103282380D01*
X69817857Y-103282380D01*
X69960714Y-103330000D01*
X70008333Y-103377619D01*
X70341666Y-103282380D02*
X71008333Y-103282380D01*
X70579761Y-104282380D01*
X163408333Y-119587142D02*
X163360714Y-119634761D01*
X163217857Y-119682380D01*
X163122619Y-119682380D01*
X162979761Y-119634761D01*
X162884523Y-119539523D01*
X162836904Y-119444285D01*
X162789285Y-119253809D01*
X162789285Y-119110952D01*
X162836904Y-118920476D01*
X162884523Y-118825238D01*
X162979761Y-118730000D01*
X163122619Y-118682380D01*
X163217857Y-118682380D01*
X163360714Y-118730000D01*
X163408333Y-118777619D01*
X163979761Y-119110952D02*
X163884523Y-119063333D01*
X163836904Y-119015714D01*
X163789285Y-118920476D01*
X163789285Y-118872857D01*
X163836904Y-118777619D01*
X163884523Y-118730000D01*
X163979761Y-118682380D01*
X164170238Y-118682380D01*
X164265476Y-118730000D01*
X164313095Y-118777619D01*
X164360714Y-118872857D01*
X164360714Y-118920476D01*
X164313095Y-119015714D01*
X164265476Y-119063333D01*
X164170238Y-119110952D01*
X163979761Y-119110952D01*
X163884523Y-119158571D01*
X163836904Y-119206190D01*
X163789285Y-119301428D01*
X163789285Y-119491904D01*
X163836904Y-119587142D01*
X163884523Y-119634761D01*
X163979761Y-119682380D01*
X164170238Y-119682380D01*
X164265476Y-119634761D01*
X164313095Y-119587142D01*
X164360714Y-119491904D01*
X164360714Y-119301428D01*
X164313095Y-119206190D01*
X164265476Y-119158571D01*
X164170238Y-119110952D01*
X163808333Y-121387142D02*
X163760714Y-121434761D01*
X163617857Y-121482380D01*
X163522619Y-121482380D01*
X163379761Y-121434761D01*
X163284523Y-121339523D01*
X163236904Y-121244285D01*
X163189285Y-121053809D01*
X163189285Y-120910952D01*
X163236904Y-120720476D01*
X163284523Y-120625238D01*
X163379761Y-120530000D01*
X163522619Y-120482380D01*
X163617857Y-120482380D01*
X163760714Y-120530000D01*
X163808333Y-120577619D01*
X164284523Y-121482380D02*
X164475000Y-121482380D01*
X164570238Y-121434761D01*
X164617857Y-121387142D01*
X164713095Y-121244285D01*
X164760714Y-121053809D01*
X164760714Y-120672857D01*
X164713095Y-120577619D01*
X164665476Y-120530000D01*
X164570238Y-120482380D01*
X164379761Y-120482380D01*
X164284523Y-120530000D01*
X164236904Y-120577619D01*
X164189285Y-120672857D01*
X164189285Y-120910952D01*
X164236904Y-121006190D01*
X164284523Y-121053809D01*
X164379761Y-121101428D01*
X164570238Y-121101428D01*
X164665476Y-121053809D01*
X164713095Y-121006190D01*
X164760714Y-120910952D01*
X152957142Y-114357142D02*
X152909523Y-114404761D01*
X152766666Y-114452380D01*
X152671428Y-114452380D01*
X152528571Y-114404761D01*
X152433333Y-114309523D01*
X152385714Y-114214285D01*
X152338095Y-114023809D01*
X152338095Y-113880952D01*
X152385714Y-113690476D01*
X152433333Y-113595238D01*
X152528571Y-113500000D01*
X152671428Y-113452380D01*
X152766666Y-113452380D01*
X152909523Y-113500000D01*
X152957142Y-113547619D01*
X153909523Y-114452380D02*
X153338095Y-114452380D01*
X153623809Y-114452380D02*
X153623809Y-113452380D01*
X153528571Y-113595238D01*
X153433333Y-113690476D01*
X153338095Y-113738095D01*
X154528571Y-113452380D02*
X154623809Y-113452380D01*
X154719047Y-113500000D01*
X154766666Y-113547619D01*
X154814285Y-113642857D01*
X154861904Y-113833333D01*
X154861904Y-114071428D01*
X154814285Y-114261904D01*
X154766666Y-114357142D01*
X154719047Y-114404761D01*
X154623809Y-114452380D01*
X154528571Y-114452380D01*
X154433333Y-114404761D01*
X154385714Y-114357142D01*
X154338095Y-114261904D01*
X154290476Y-114071428D01*
X154290476Y-113833333D01*
X154338095Y-113642857D01*
X154385714Y-113547619D01*
X154433333Y-113500000D01*
X154528571Y-113452380D01*
X146957142Y-133317142D02*
X146909523Y-133364761D01*
X146766666Y-133412380D01*
X146671428Y-133412380D01*
X146528571Y-133364761D01*
X146433333Y-133269523D01*
X146385714Y-133174285D01*
X146338095Y-132983809D01*
X146338095Y-132840952D01*
X146385714Y-132650476D01*
X146433333Y-132555238D01*
X146528571Y-132460000D01*
X146671428Y-132412380D01*
X146766666Y-132412380D01*
X146909523Y-132460000D01*
X146957142Y-132507619D01*
X147909523Y-133412380D02*
X147338095Y-133412380D01*
X147623809Y-133412380D02*
X147623809Y-132412380D01*
X147528571Y-132555238D01*
X147433333Y-132650476D01*
X147338095Y-132698095D01*
X148861904Y-133412380D02*
X148290476Y-133412380D01*
X148576190Y-133412380D02*
X148576190Y-132412380D01*
X148480952Y-132555238D01*
X148385714Y-132650476D01*
X148290476Y-132698095D01*
X150134904Y-132947380D02*
X150134904Y-131947380D01*
X150373000Y-131947380D01*
X150515857Y-131995000D01*
X150611095Y-132090238D01*
X150658714Y-132185476D01*
X150706333Y-132375952D01*
X150706333Y-132518809D01*
X150658714Y-132709285D01*
X150611095Y-132804523D01*
X150515857Y-132899761D01*
X150373000Y-132947380D01*
X150134904Y-132947380D01*
X151658714Y-132947380D02*
X151087285Y-132947380D01*
X151373000Y-132947380D02*
X151373000Y-131947380D01*
X151277761Y-132090238D01*
X151182523Y-132185476D01*
X151087285Y-132233095D01*
X69557142Y-98727142D02*
X69509523Y-98774761D01*
X69366666Y-98822380D01*
X69271428Y-98822380D01*
X69128571Y-98774761D01*
X69033333Y-98679523D01*
X68985714Y-98584285D01*
X68938095Y-98393809D01*
X68938095Y-98250952D01*
X68985714Y-98060476D01*
X69033333Y-97965238D01*
X69128571Y-97870000D01*
X69271428Y-97822380D01*
X69366666Y-97822380D01*
X69509523Y-97870000D01*
X69557142Y-97917619D01*
X70509523Y-98822380D02*
X69938095Y-98822380D01*
X70223809Y-98822380D02*
X70223809Y-97822380D01*
X70128571Y-97965238D01*
X70033333Y-98060476D01*
X69938095Y-98108095D01*
X70890476Y-97917619D02*
X70938095Y-97870000D01*
X71033333Y-97822380D01*
X71271428Y-97822380D01*
X71366666Y-97870000D01*
X71414285Y-97917619D01*
X71461904Y-98012857D01*
X71461904Y-98108095D01*
X71414285Y-98250952D01*
X70842857Y-98822380D01*
X71461904Y-98822380D01*
M02*
