G04 #@! TF.GenerationSoftware,KiCad,Pcbnew,5.1.7-a382d34a8~87~ubuntu20.04.1*
G04 #@! TF.CreationDate,2020-11-09T10:39:38+09:00*
G04 #@! TF.ProjectId,ESP32DUALDIAL,45535033-3244-4554-914c-4449414c2e6b,rev?*
G04 #@! TF.SameCoordinates,Original*
G04 #@! TF.FileFunction,Legend,Bot*
G04 #@! TF.FilePolarity,Positive*
%FSLAX46Y46*%
G04 Gerber Fmt 4.6, Leading zero omitted, Abs format (unit mm)*
G04 Created by KiCad (PCBNEW 5.1.7-a382d34a8~87~ubuntu20.04.1) date 2020-11-09 10:39:38*
%MOMM*%
%LPD*%
G01*
G04 APERTURE LIST*
%ADD10C,0.177500*%
%ADD11C,0.150000*%
%ADD12C,0.120000*%
G04 APERTURE END LIST*
D10*
X194319867Y-91574296D02*
X193928249Y-91374756D01*
X193966172Y-91821632D01*
X193875798Y-91775584D01*
X193793931Y-91787315D01*
X193742187Y-91814395D01*
X193668826Y-91883903D01*
X193560733Y-92096047D01*
X193547620Y-92196254D01*
X193556126Y-92254033D01*
X193594756Y-92327160D01*
X193775503Y-92419255D01*
X193857371Y-92407525D01*
X193909114Y-92380445D01*
X193747502Y-91282661D02*
X193082640Y-92066223D01*
X193325759Y-91067772D01*
X193175136Y-90991026D02*
X192783518Y-90791487D01*
X192821440Y-91238362D01*
X192731067Y-91192315D01*
X192649199Y-91204045D01*
X192597456Y-91231125D01*
X192524094Y-91300633D01*
X192416001Y-91512778D01*
X192402889Y-91612985D01*
X192411395Y-91670763D01*
X192450025Y-91743890D01*
X192630772Y-91835985D01*
X192712640Y-91824255D01*
X192764383Y-91797175D01*
X191677417Y-90281344D02*
X191759284Y-90269614D01*
X191849658Y-90315662D01*
X191918413Y-90404138D01*
X191935425Y-90519694D01*
X191922312Y-90619901D01*
X191865962Y-90804966D01*
X191801106Y-90932253D01*
X191684507Y-91086619D01*
X191611146Y-91156127D01*
X191507660Y-91210287D01*
X191395667Y-91206668D01*
X191335418Y-91175970D01*
X191266663Y-91087493D01*
X191258158Y-91029715D01*
X191409488Y-90732713D01*
X191529986Y-90794110D01*
X190943800Y-90976430D02*
X191397790Y-90085423D01*
X190582306Y-90792240D01*
X191036296Y-89901233D01*
X190281061Y-90638748D02*
X190735051Y-89747741D01*
X190584429Y-89670995D01*
X190472437Y-89667376D01*
X190368950Y-89721536D01*
X190295589Y-89791044D01*
X190178990Y-89945411D01*
X190114134Y-90072697D01*
X190057784Y-90257762D01*
X190044671Y-90357969D01*
X190061683Y-90473525D01*
X190130438Y-90562002D01*
X190281061Y-90638748D01*
X189166454Y-90070827D02*
X189620444Y-89179821D01*
X188804960Y-89886637D02*
X189335504Y-89515633D01*
X189258950Y-88995630D02*
X189361021Y-89688967D01*
X188771644Y-89281776D02*
X188560772Y-89174332D01*
X188232594Y-89595002D02*
X188533839Y-89748494D01*
X188987830Y-88857487D01*
X188686585Y-88703995D01*
X188057162Y-88971173D02*
X187840976Y-89395462D01*
X188505838Y-88611900D02*
X188057162Y-88971173D01*
X188084095Y-88397011D01*
X187481605Y-88090027D02*
X187120110Y-87905837D01*
X186846867Y-88888938D02*
X187300857Y-87997932D01*
X186969488Y-87829091D02*
X186093754Y-88505208D01*
X186547745Y-87614202D02*
X186515497Y-88720097D01*
X185852758Y-88382415D02*
X186306749Y-87491408D01*
X186156126Y-87414662D01*
X186044134Y-87411043D01*
X185940648Y-87465203D01*
X185867286Y-87534711D01*
X185750687Y-87689078D01*
X185685832Y-87816364D01*
X185629482Y-88001429D01*
X185616369Y-88101636D01*
X185633381Y-88217192D01*
X185702136Y-88305669D01*
X185852758Y-88382415D01*
X184376657Y-87630304D02*
X184803715Y-87313459D01*
X184738152Y-87814494D02*
X185192142Y-86923488D01*
X184951146Y-86800694D01*
X184869278Y-86812425D01*
X184817535Y-86839504D01*
X184744174Y-86909013D01*
X184679318Y-87036299D01*
X184666205Y-87136506D01*
X184674711Y-87194285D01*
X184713341Y-87267412D01*
X184954337Y-87390205D01*
X184619776Y-86631853D02*
X183744043Y-87307971D01*
X184198033Y-86416964D02*
X184165786Y-87522859D01*
X183503047Y-87185177D02*
X183957037Y-86294170D01*
X183806415Y-86217424D01*
X183694423Y-86213806D01*
X183590936Y-86267965D01*
X183517575Y-86337474D01*
X183400976Y-86491840D01*
X183336120Y-86619127D01*
X183279770Y-86804191D01*
X183266657Y-86904398D01*
X183283669Y-87019954D01*
X183352424Y-87108431D01*
X183503047Y-87185177D01*
X182902680Y-85756948D02*
X182511061Y-85557409D01*
X182548984Y-86004284D01*
X182458610Y-85958237D01*
X182376743Y-85969967D01*
X182325000Y-85997047D01*
X182251638Y-86066555D01*
X182143545Y-86278700D01*
X182130432Y-86378907D01*
X182138938Y-86436685D01*
X182177568Y-86509812D01*
X182358316Y-86601907D01*
X182440183Y-86590177D01*
X182491926Y-86563097D01*
X182330314Y-85465313D02*
X181665452Y-86248876D01*
X181908571Y-85250425D01*
X181757948Y-85173679D02*
X181366330Y-84974139D01*
X181404253Y-85421014D01*
X181313879Y-85374967D01*
X181232011Y-85386697D01*
X181180268Y-85413777D01*
X181106907Y-85483286D01*
X180998814Y-85695430D01*
X180985701Y-85795637D01*
X180994207Y-85853415D01*
X181032837Y-85926542D01*
X181213584Y-86018638D01*
X181295452Y-86006907D01*
X181347195Y-85979827D01*
X180159227Y-85481415D02*
X180613217Y-84590409D01*
X180372221Y-84467615D01*
X180290353Y-84479346D01*
X180238610Y-84506425D01*
X180165249Y-84575934D01*
X180100393Y-84703221D01*
X180087280Y-84803428D01*
X180095786Y-84861206D01*
X180134416Y-84934333D01*
X180375413Y-85057127D01*
X179165118Y-84974892D02*
X179592175Y-84658047D01*
X179526612Y-85159082D02*
X179980602Y-84268076D01*
X179739606Y-84145282D01*
X179657739Y-84157013D01*
X179605996Y-84184092D01*
X179532634Y-84253601D01*
X179467778Y-84380887D01*
X179454666Y-84481094D01*
X179463171Y-84538872D01*
X179501802Y-84612000D01*
X179742798Y-84734793D01*
X178995000Y-83819330D02*
X179076867Y-83807600D01*
X179167241Y-83853647D01*
X179235996Y-83942124D01*
X179253008Y-84057680D01*
X179239895Y-84157887D01*
X179183545Y-84342952D01*
X179118689Y-84470238D01*
X179002090Y-84624605D01*
X178928729Y-84694113D01*
X178825242Y-84748272D01*
X178713250Y-84744654D01*
X178653001Y-84713955D01*
X178584246Y-84625479D01*
X178575740Y-84567701D01*
X178727071Y-84270699D01*
X178847569Y-84332095D01*
X177880393Y-83251410D02*
X177962261Y-83239679D01*
X178052634Y-83285727D01*
X178121389Y-83374203D01*
X178138401Y-83489759D01*
X178125288Y-83589966D01*
X178068938Y-83775031D01*
X178004082Y-83902318D01*
X177887484Y-84056684D01*
X177814122Y-84126193D01*
X177710636Y-84180352D01*
X177598644Y-84176733D01*
X177538395Y-84146035D01*
X177469640Y-84057558D01*
X177461134Y-83999780D01*
X177612464Y-83702778D01*
X177732962Y-83764175D01*
X177146776Y-83946495D02*
X177600766Y-83055489D01*
X176785282Y-83762305D01*
X177239272Y-82871298D01*
X176484037Y-83608813D02*
X176938027Y-82717806D01*
X176787405Y-82641060D01*
X176675413Y-82637441D01*
X176571926Y-82691601D01*
X176498565Y-82761109D01*
X176381966Y-82915476D01*
X176317110Y-83042762D01*
X176260760Y-83227827D01*
X176247648Y-83328034D01*
X176264659Y-83443590D01*
X176333414Y-83532067D01*
X176484037Y-83608813D01*
X175007936Y-82856702D02*
X175434993Y-82539857D01*
X175369430Y-83040892D02*
X175823421Y-82149886D01*
X175582425Y-82027092D01*
X175500557Y-82038823D01*
X175448814Y-82065902D01*
X175375452Y-82135411D01*
X175310596Y-82262697D01*
X175297484Y-82362904D01*
X175305990Y-82420683D01*
X175344620Y-82493810D01*
X175585616Y-82616603D01*
X174788559Y-82691479D02*
X174676566Y-82687861D01*
X174525944Y-82611115D01*
X174487313Y-82537987D01*
X174478808Y-82480209D01*
X174491920Y-82380002D01*
X174535157Y-82295144D01*
X174608519Y-82225636D01*
X174660262Y-82198556D01*
X174742130Y-82186826D01*
X174884246Y-82205794D01*
X174966114Y-82194063D01*
X175017857Y-82166984D01*
X175091219Y-82097475D01*
X175134456Y-82012617D01*
X175147569Y-81912410D01*
X175139063Y-81854632D01*
X175100432Y-81781505D01*
X174949810Y-81704759D01*
X174837818Y-81701140D01*
X174678689Y-81566616D02*
X174317195Y-81382426D01*
X174043952Y-82365527D02*
X174497942Y-81474521D01*
X173271343Y-80902982D02*
X173353211Y-80891251D01*
X173443585Y-80937299D01*
X173512339Y-81025775D01*
X173529351Y-81141331D01*
X173516239Y-81241538D01*
X173459889Y-81426603D01*
X173395033Y-81553890D01*
X173278434Y-81708256D01*
X173205072Y-81777765D01*
X173101586Y-81831924D01*
X172989594Y-81828305D01*
X172929345Y-81797607D01*
X172860590Y-81709130D01*
X172852084Y-81651352D01*
X173003414Y-81354350D01*
X173123912Y-81415747D01*
X172537726Y-81598067D02*
X172991717Y-80707061D01*
X172176232Y-81413877D01*
X172630223Y-80522870D01*
X171874987Y-81260385D02*
X172328978Y-80369378D01*
X172178355Y-80292632D01*
X172066363Y-80289013D01*
X171962877Y-80343173D01*
X171889515Y-80412681D01*
X171772916Y-80567048D01*
X171708061Y-80694334D01*
X171651711Y-80879399D01*
X171638598Y-80979606D01*
X171655610Y-81095162D01*
X171724365Y-81183639D01*
X171874987Y-81260385D01*
D11*
X83680000Y-130330000D02*
X83680000Y-89990000D01*
X151120000Y-130330000D02*
X83680000Y-130330000D01*
X151120000Y-89990000D02*
X151120000Y-130330000D01*
X83680000Y-89990000D02*
X151120000Y-89990000D01*
D12*
X83470000Y-113320000D02*
X83470000Y-91820000D01*
X83470000Y-91820000D02*
X71470000Y-91820000D01*
X71470000Y-91820000D02*
X71470000Y-134820000D01*
X71470000Y-134820000D02*
X83470000Y-134820000D01*
X83470000Y-134820000D02*
X83470000Y-113320000D01*
X117850000Y-138049000D02*
G75*
G03*
X117850000Y-138049000I-6100000J0D01*
G01*
X46150000Y-91150000D02*
X71250000Y-91150000D01*
X46150000Y-91150000D02*
X46150000Y-84850000D01*
X71250000Y-84850000D02*
X71250000Y-91150000D01*
X71250000Y-84850000D02*
X46150000Y-84850000D01*
X81620000Y-77460000D02*
X71460000Y-77460000D01*
X81620000Y-76190000D02*
X81620000Y-83810000D01*
X81620000Y-83810000D02*
X71460000Y-83810000D01*
X71460000Y-83810000D02*
X71460000Y-76190000D01*
X71460000Y-76190000D02*
X81620000Y-76190000D01*
X151190000Y-78740000D02*
X151190000Y-77410000D01*
X151190000Y-77410000D02*
X149860000Y-77410000D01*
X148590000Y-77410000D02*
X145990000Y-77410000D01*
X145990000Y-80070000D02*
X145990000Y-77410000D01*
X148590000Y-80070000D02*
X145990000Y-80070000D01*
X148590000Y-80070000D02*
X148590000Y-77410000D01*
X157480000Y-80070000D02*
X157480000Y-77410000D01*
X157480000Y-80070000D02*
X154880000Y-80070000D01*
X154880000Y-80070000D02*
X154880000Y-77410000D01*
X157480000Y-77410000D02*
X154880000Y-77410000D01*
X160080000Y-77410000D02*
X158750000Y-77410000D01*
X160080000Y-78740000D02*
X160080000Y-77410000D01*
X113540000Y-86810000D02*
X88140000Y-86810000D01*
X113540000Y-85540000D02*
X88140000Y-85540000D01*
X113540000Y-79190000D02*
X88140000Y-79190000D01*
X88140000Y-79190000D02*
X88140000Y-86810000D01*
X113540000Y-79190000D02*
X113540000Y-86810000D01*
X116350000Y-84000000D02*
X116350000Y-82000000D01*
X116680000Y-132120000D02*
X144120000Y-132120000D01*
X116680000Y-79480000D02*
X116680000Y-132120000D01*
X144120000Y-79480000D02*
X144120000Y-132120000D01*
X116680000Y-79480000D02*
X144120000Y-79480000D01*
X156250000Y-81820000D02*
X146010000Y-81820000D01*
X156250000Y-86461000D02*
X146010000Y-86461000D01*
X156250000Y-81820000D02*
X156250000Y-86461000D01*
X146010000Y-81820000D02*
X146010000Y-86461000D01*
X156250000Y-83330000D02*
X146010000Y-83330000D01*
X152980000Y-81820000D02*
X152980000Y-83330000D01*
X149279000Y-81820000D02*
X149279000Y-83330000D01*
X89628000Y-136957000D02*
X89628000Y-142697000D01*
X89628000Y-142707000D02*
X101888000Y-142707000D01*
X101888000Y-142707000D02*
X101888000Y-136947000D01*
X101888000Y-136947000D02*
X89638000Y-136947000D01*
X89348000Y-136667000D02*
X91348000Y-136667000D01*
X89348000Y-136667000D02*
X89348000Y-138277000D01*
X115000000Y-110000000D02*
X115000000Y-88500000D01*
X115000000Y-88500000D02*
X103000000Y-88500000D01*
X103000000Y-88500000D02*
X103000000Y-131500000D01*
X103000000Y-131500000D02*
X115000000Y-131500000D01*
X115000000Y-131500000D02*
X115000000Y-110000000D01*
X102000000Y-131500000D02*
X102000000Y-110000000D01*
X90000000Y-131500000D02*
X102000000Y-131500000D01*
X90000000Y-88500000D02*
X90000000Y-131500000D01*
X102000000Y-88500000D02*
X90000000Y-88500000D01*
X102000000Y-110000000D02*
X102000000Y-88500000D01*
X58070000Y-113320000D02*
X58070000Y-91820000D01*
X58070000Y-91820000D02*
X46070000Y-91820000D01*
X46070000Y-91820000D02*
X46070000Y-134820000D01*
X46070000Y-134820000D02*
X58070000Y-134820000D01*
X58070000Y-134820000D02*
X58070000Y-113320000D01*
X192351231Y-95768846D02*
X192955039Y-94583807D01*
X191166193Y-95165039D02*
X192351231Y-95768846D01*
X190034614Y-94588471D02*
X191242229Y-92218393D01*
X191242229Y-92218393D02*
X170820360Y-81812931D01*
X190034614Y-94588471D02*
X169612745Y-84183008D01*
X169612745Y-84183008D02*
X170820360Y-81812931D01*
D11*
X69922380Y-112558095D02*
X70731904Y-112558095D01*
X70827142Y-112605714D01*
X70874761Y-112653333D01*
X70922380Y-112748571D01*
X70922380Y-112939047D01*
X70874761Y-113034285D01*
X70827142Y-113081904D01*
X70731904Y-113129523D01*
X69922380Y-113129523D01*
X69922380Y-113510476D02*
X69922380Y-114177142D01*
X70922380Y-113748571D01*
X112630952Y-145177571D02*
X112488095Y-145225190D01*
X112440476Y-145272809D01*
X112392857Y-145368047D01*
X112392857Y-145510904D01*
X112440476Y-145606142D01*
X112488095Y-145653761D01*
X112583333Y-145701380D01*
X112964285Y-145701380D01*
X112964285Y-144701380D01*
X112630952Y-144701380D01*
X112535714Y-144749000D01*
X112488095Y-144796619D01*
X112440476Y-144891857D01*
X112440476Y-144987095D01*
X112488095Y-145082333D01*
X112535714Y-145129952D01*
X112630952Y-145177571D01*
X112964285Y-145177571D01*
X112059523Y-144701380D02*
X111392857Y-144701380D01*
X112059523Y-145701380D01*
X111392857Y-145701380D01*
X110488095Y-145701380D02*
X111059523Y-145701380D01*
X110773809Y-145701380D02*
X110773809Y-144701380D01*
X110869047Y-144844238D01*
X110964285Y-144939476D01*
X111059523Y-144987095D01*
X108320952Y-140660428D02*
X107559047Y-140660428D01*
X107940000Y-141041380D02*
X107940000Y-140279476D01*
X59633333Y-92028571D02*
X59966666Y-92028571D01*
X59966666Y-92552380D02*
X59966666Y-91552380D01*
X59490476Y-91552380D01*
X58585714Y-92552380D02*
X59157142Y-92552380D01*
X58871428Y-92552380D02*
X58871428Y-91552380D01*
X58966666Y-91695238D01*
X59061904Y-91790476D01*
X59157142Y-91838095D01*
X76873333Y-84532380D02*
X76873333Y-85246666D01*
X76920952Y-85389523D01*
X77016190Y-85484761D01*
X77159047Y-85532380D01*
X77254285Y-85532380D01*
X76444761Y-84627619D02*
X76397142Y-84580000D01*
X76301904Y-84532380D01*
X76063809Y-84532380D01*
X75968571Y-84580000D01*
X75920952Y-84627619D01*
X75873333Y-84722857D01*
X75873333Y-84818095D01*
X75920952Y-84960952D01*
X76492380Y-85532380D01*
X75873333Y-85532380D01*
X153177619Y-79073333D02*
X152463333Y-79073333D01*
X152320476Y-79120952D01*
X152225238Y-79216190D01*
X152177619Y-79359047D01*
X152177619Y-79454285D01*
X153177619Y-78692380D02*
X153177619Y-78073333D01*
X152796666Y-78406666D01*
X152796666Y-78263809D01*
X152749047Y-78168571D01*
X152701428Y-78120952D01*
X152606190Y-78073333D01*
X152368095Y-78073333D01*
X152272857Y-78120952D01*
X152225238Y-78168571D01*
X152177619Y-78263809D01*
X152177619Y-78549523D01*
X152225238Y-78644761D01*
X152272857Y-78692380D01*
X162067619Y-79073333D02*
X161353333Y-79073333D01*
X161210476Y-79120952D01*
X161115238Y-79216190D01*
X161067619Y-79359047D01*
X161067619Y-79454285D01*
X161734285Y-78168571D02*
X161067619Y-78168571D01*
X162115238Y-78406666D02*
X161400952Y-78644761D01*
X161400952Y-78025714D01*
X101183333Y-77902380D02*
X101183333Y-78616666D01*
X101230952Y-78759523D01*
X101326190Y-78854761D01*
X101469047Y-78902380D01*
X101564285Y-78902380D01*
X100230952Y-77902380D02*
X100707142Y-77902380D01*
X100754761Y-78378571D01*
X100707142Y-78330952D01*
X100611904Y-78283333D01*
X100373809Y-78283333D01*
X100278571Y-78330952D01*
X100230952Y-78378571D01*
X100183333Y-78473809D01*
X100183333Y-78711904D01*
X100230952Y-78807142D01*
X100278571Y-78854761D01*
X100373809Y-78902380D01*
X100611904Y-78902380D01*
X100707142Y-78854761D01*
X100754761Y-78807142D01*
X116452380Y-104285714D02*
X115452380Y-104285714D01*
X115452380Y-104666666D01*
X115500000Y-104761904D01*
X115547619Y-104809523D01*
X115642857Y-104857142D01*
X115785714Y-104857142D01*
X115880952Y-104809523D01*
X115928571Y-104761904D01*
X115976190Y-104666666D01*
X115976190Y-104285714D01*
X116404761Y-105238095D02*
X116452380Y-105380952D01*
X116452380Y-105619047D01*
X116404761Y-105714285D01*
X116357142Y-105761904D01*
X116261904Y-105809523D01*
X116166666Y-105809523D01*
X116071428Y-105761904D01*
X116023809Y-105714285D01*
X115976190Y-105619047D01*
X115928571Y-105428571D01*
X115880952Y-105333333D01*
X115833333Y-105285714D01*
X115738095Y-105238095D01*
X115642857Y-105238095D01*
X115547619Y-105285714D01*
X115500000Y-105333333D01*
X115452380Y-105428571D01*
X115452380Y-105666666D01*
X115500000Y-105809523D01*
X116452380Y-106761904D02*
X116452380Y-106190476D01*
X116452380Y-106476190D02*
X115452380Y-106476190D01*
X115595238Y-106380952D01*
X115690476Y-106285714D01*
X115738095Y-106190476D01*
X151225238Y-81367619D02*
X151320476Y-81320000D01*
X151415714Y-81224761D01*
X151558571Y-81081904D01*
X151653809Y-81034285D01*
X151749047Y-81034285D01*
X151701428Y-81272380D02*
X151796666Y-81224761D01*
X151891904Y-81129523D01*
X151939523Y-80939047D01*
X151939523Y-80605714D01*
X151891904Y-80415238D01*
X151796666Y-80320000D01*
X151701428Y-80272380D01*
X151510952Y-80272380D01*
X151415714Y-80320000D01*
X151320476Y-80415238D01*
X151272857Y-80605714D01*
X151272857Y-80939047D01*
X151320476Y-81129523D01*
X151415714Y-81224761D01*
X151510952Y-81272380D01*
X151701428Y-81272380D01*
X150320476Y-81272380D02*
X150891904Y-81272380D01*
X150606190Y-81272380D02*
X150606190Y-80272380D01*
X150701428Y-80415238D01*
X150796666Y-80510476D01*
X150891904Y-80558095D01*
X87900380Y-138065095D02*
X88709904Y-138065095D01*
X88805142Y-138112714D01*
X88852761Y-138160333D01*
X88900380Y-138255571D01*
X88900380Y-138446047D01*
X88852761Y-138541285D01*
X88805142Y-138588904D01*
X88709904Y-138636523D01*
X87900380Y-138636523D01*
X88233714Y-139541285D02*
X88900380Y-139541285D01*
X87852761Y-139303190D02*
X88567047Y-139065095D01*
X88567047Y-139684142D01*
X101452380Y-109238095D02*
X102261904Y-109238095D01*
X102357142Y-109285714D01*
X102404761Y-109333333D01*
X102452380Y-109428571D01*
X102452380Y-109619047D01*
X102404761Y-109714285D01*
X102357142Y-109761904D01*
X102261904Y-109809523D01*
X101452380Y-109809523D01*
X101452380Y-110761904D02*
X101452380Y-110285714D01*
X101928571Y-110238095D01*
X101880952Y-110285714D01*
X101833333Y-110380952D01*
X101833333Y-110619047D01*
X101880952Y-110714285D01*
X101928571Y-110761904D01*
X102023809Y-110809523D01*
X102261904Y-110809523D01*
X102357142Y-110761904D01*
X102404761Y-110714285D01*
X102452380Y-110619047D01*
X102452380Y-110380952D01*
X102404761Y-110285714D01*
X102357142Y-110238095D01*
X88452380Y-109238095D02*
X89261904Y-109238095D01*
X89357142Y-109285714D01*
X89404761Y-109333333D01*
X89452380Y-109428571D01*
X89452380Y-109619047D01*
X89404761Y-109714285D01*
X89357142Y-109761904D01*
X89261904Y-109809523D01*
X88452380Y-109809523D01*
X88452380Y-110714285D02*
X88452380Y-110523809D01*
X88500000Y-110428571D01*
X88547619Y-110380952D01*
X88690476Y-110285714D01*
X88880952Y-110238095D01*
X89261904Y-110238095D01*
X89357142Y-110285714D01*
X89404761Y-110333333D01*
X89452380Y-110428571D01*
X89452380Y-110619047D01*
X89404761Y-110714285D01*
X89357142Y-110761904D01*
X89261904Y-110809523D01*
X89023809Y-110809523D01*
X88928571Y-110761904D01*
X88880952Y-110714285D01*
X88833333Y-110619047D01*
X88833333Y-110428571D01*
X88880952Y-110333333D01*
X88928571Y-110285714D01*
X89023809Y-110238095D01*
X44522380Y-112558095D02*
X45331904Y-112558095D01*
X45427142Y-112605714D01*
X45474761Y-112653333D01*
X45522380Y-112748571D01*
X45522380Y-112939047D01*
X45474761Y-113034285D01*
X45427142Y-113081904D01*
X45331904Y-113129523D01*
X44522380Y-113129523D01*
X44950952Y-113748571D02*
X44903333Y-113653333D01*
X44855714Y-113605714D01*
X44760476Y-113558095D01*
X44712857Y-113558095D01*
X44617619Y-113605714D01*
X44570000Y-113653333D01*
X44522380Y-113748571D01*
X44522380Y-113939047D01*
X44570000Y-114034285D01*
X44617619Y-114081904D01*
X44712857Y-114129523D01*
X44760476Y-114129523D01*
X44855714Y-114081904D01*
X44903333Y-114034285D01*
X44950952Y-113939047D01*
X44950952Y-113748571D01*
X44998571Y-113653333D01*
X45046190Y-113605714D01*
X45141428Y-113558095D01*
X45331904Y-113558095D01*
X45427142Y-113605714D01*
X45474761Y-113653333D01*
X45522380Y-113748571D01*
X45522380Y-113939047D01*
X45474761Y-114034285D01*
X45427142Y-114081904D01*
X45331904Y-114129523D01*
X45141428Y-114129523D01*
X45046190Y-114081904D01*
X44998571Y-114034285D01*
X44950952Y-113939047D01*
X193509443Y-94492181D02*
X194145876Y-94816460D01*
X194294781Y-94838887D01*
X194422876Y-94797267D01*
X194530161Y-94691599D01*
X194573398Y-94606741D01*
X193946459Y-95837179D02*
X194205882Y-95328032D01*
X194076170Y-95582605D02*
X193185164Y-95128615D01*
X193355687Y-95108613D01*
X193483782Y-95066992D01*
X193569448Y-95003753D01*
X170983307Y-80182004D02*
X170960880Y-80330909D01*
X170852787Y-80543053D01*
X170767121Y-80606292D01*
X170703073Y-80627103D01*
X170596597Y-80626294D01*
X170511739Y-80583057D01*
X170448500Y-80497391D01*
X170427690Y-80433344D01*
X170428498Y-80326867D01*
X170472544Y-80135533D01*
X170473352Y-80029057D01*
X170452542Y-79965009D01*
X170389302Y-79879343D01*
X170304445Y-79836106D01*
X170197968Y-79835298D01*
X170133921Y-79856108D01*
X170048255Y-79919347D01*
X169940162Y-80131492D01*
X169917735Y-80280397D01*
X170105027Y-80856824D02*
X169953697Y-81153826D01*
X170355559Y-81518918D02*
X170571745Y-81094629D01*
X169680739Y-80640638D01*
X169464553Y-81064927D01*
X169901569Y-82409924D02*
X169628610Y-81896736D01*
X170160992Y-81900778D02*
X169269985Y-81446787D01*
X169097036Y-81786218D01*
X169096228Y-81892694D01*
X169117038Y-81956742D01*
X169180278Y-82042408D01*
X169307564Y-82107264D01*
X169414041Y-82108072D01*
X169478088Y-82087262D01*
X169563754Y-82024023D01*
X169736703Y-81684592D01*
X168880851Y-82210507D02*
X169620527Y-82961500D01*
X168578190Y-82804511D01*
X169317867Y-83555504D02*
X168426860Y-83101513D01*
X168757400Y-84445702D02*
X168821447Y-84424892D01*
X168928732Y-84319224D01*
X168971969Y-84234366D01*
X168994396Y-84085461D01*
X168952775Y-83957366D01*
X168889536Y-83871700D01*
X168741439Y-83742796D01*
X168614153Y-83677941D01*
X168422819Y-83633895D01*
X168316342Y-83633087D01*
X168188247Y-83674707D01*
X168080963Y-83780376D01*
X168037725Y-83865233D01*
X168015298Y-84014139D01*
X168036109Y-84078186D01*
X168180972Y-84632995D02*
X168029642Y-84929997D01*
X168431504Y-85295088D02*
X168647690Y-84870799D01*
X167756684Y-84416809D01*
X167540498Y-84841098D01*
M02*
