G04 #@! TF.GenerationSoftware,KiCad,Pcbnew,5.1.7-a382d34a8~87~ubuntu20.04.1*
G04 #@! TF.CreationDate,2020-11-09T10:39:38+09:00*
G04 #@! TF.ProjectId,ESP32DUALDIAL,45535033-3244-4554-914c-4449414c2e6b,rev?*
G04 #@! TF.SameCoordinates,Original*
G04 #@! TF.FileFunction,Legend,Top*
G04 #@! TF.FilePolarity,Positive*
%FSLAX46Y46*%
G04 Gerber Fmt 4.6, Leading zero omitted, Abs format (unit mm)*
G04 Created by KiCad (PCBNEW 5.1.7-a382d34a8~87~ubuntu20.04.1) date 2020-11-09 10:39:38*
%MOMM*%
%LPD*%
G01*
G04 APERTURE LIST*
%ADD10C,0.120000*%
%ADD11C,0.150000*%
G04 APERTURE END LIST*
D10*
X173355000Y-127615000D02*
X169905000Y-127615000D01*
X173355000Y-127615000D02*
X175305000Y-127615000D01*
X173355000Y-132735000D02*
X171405000Y-132735000D01*
X173355000Y-132735000D02*
X175305000Y-132735000D01*
X180894258Y-96759500D02*
X180419742Y-96759500D01*
X180894258Y-97804500D02*
X180419742Y-97804500D01*
X186198742Y-97267500D02*
X186673258Y-97267500D01*
X186198742Y-98312500D02*
X186673258Y-98312500D01*
X186229164Y-95102000D02*
X186444836Y-95102000D01*
X186229164Y-94382000D02*
X186444836Y-94382000D01*
X164512164Y-135615000D02*
X164727836Y-135615000D01*
X164512164Y-134895000D02*
X164727836Y-134895000D01*
X166482500Y-128667742D02*
X166482500Y-129142258D01*
X167527500Y-128667742D02*
X167527500Y-129142258D01*
X158377836Y-85450000D02*
X158162164Y-85450000D01*
X158377836Y-84730000D02*
X158162164Y-84730000D01*
X174862258Y-125842500D02*
X174387742Y-125842500D01*
X174862258Y-126887500D02*
X174387742Y-126887500D01*
X172591252Y-136165000D02*
X171168748Y-136165000D01*
X172591252Y-134345000D02*
X171168748Y-134345000D01*
X171497164Y-126005000D02*
X171712836Y-126005000D01*
X171497164Y-126725000D02*
X171712836Y-126725000D01*
X104377258Y-141492500D02*
X103902742Y-141492500D01*
X104377258Y-140447500D02*
X103902742Y-140447500D01*
X180356742Y-94756500D02*
X180831258Y-94756500D01*
X180356742Y-93711500D02*
X180831258Y-93711500D01*
X175022742Y-89647500D02*
X175497258Y-89647500D01*
X175022742Y-90692500D02*
X175497258Y-90692500D01*
X166797258Y-133237500D02*
X166322742Y-133237500D01*
X166797258Y-132192500D02*
X166322742Y-132192500D01*
X102522500Y-132762742D02*
X102522500Y-133237258D01*
X101477500Y-132762742D02*
X101477500Y-133237258D01*
X97477500Y-132937742D02*
X97477500Y-133412258D01*
X98522500Y-132937742D02*
X98522500Y-133412258D01*
X94057500Y-132762742D02*
X94057500Y-133237258D01*
X93012500Y-132762742D02*
X93012500Y-133237258D01*
X88477500Y-132762742D02*
X88477500Y-133237258D01*
X89522500Y-132762742D02*
X89522500Y-133237258D01*
X158797258Y-89422500D02*
X158322742Y-89422500D01*
X158797258Y-88377500D02*
X158322742Y-88377500D01*
X162797258Y-88152500D02*
X162322742Y-88152500D01*
X162797258Y-87107500D02*
X162322742Y-87107500D01*
X177402258Y-133589500D02*
X176927742Y-133589500D01*
X177402258Y-134634500D02*
X176927742Y-134634500D01*
X168736742Y-126252500D02*
X169211258Y-126252500D01*
X168736742Y-125207500D02*
X169211258Y-125207500D01*
X168067258Y-135777500D02*
X167592742Y-135777500D01*
X168067258Y-134732500D02*
X167592742Y-134732500D01*
X161000000Y-110500000D02*
X161000000Y-109500000D01*
X160500000Y-110000000D02*
X161500000Y-110000000D01*
X164500000Y-103900000D02*
X166900000Y-103900000D01*
X159700000Y-103900000D02*
X162300000Y-103900000D01*
X155100000Y-103900000D02*
X157500000Y-103900000D01*
X156900000Y-117200000D02*
X157200000Y-117500000D01*
X156900000Y-117800000D02*
X156900000Y-117200000D01*
X157200000Y-117500000D02*
X156900000Y-117800000D01*
X155100000Y-116100000D02*
X166900000Y-116100000D01*
X155100000Y-112000000D02*
X155100000Y-116100000D01*
X166900000Y-112000000D02*
X166900000Y-116100000D01*
X166900000Y-103900000D02*
X166900000Y-108000000D01*
X155100000Y-108000000D02*
X155100000Y-103900000D01*
X164000000Y-110000000D02*
G75*
G03*
X164000000Y-110000000I-3000000J0D01*
G01*
X68000000Y-110000000D02*
G75*
G03*
X68000000Y-110000000I-3000000J0D01*
G01*
X59100000Y-108000000D02*
X59100000Y-103900000D01*
X70900000Y-103900000D02*
X70900000Y-108000000D01*
X70900000Y-112000000D02*
X70900000Y-116100000D01*
X59100000Y-112000000D02*
X59100000Y-116100000D01*
X59100000Y-116100000D02*
X70900000Y-116100000D01*
X61200000Y-117500000D02*
X60900000Y-117800000D01*
X60900000Y-117800000D02*
X60900000Y-117200000D01*
X60900000Y-117200000D02*
X61200000Y-117500000D01*
X59100000Y-103900000D02*
X61500000Y-103900000D01*
X63700000Y-103900000D02*
X66300000Y-103900000D01*
X68500000Y-103900000D02*
X70900000Y-103900000D01*
X64500000Y-110000000D02*
X65500000Y-110000000D01*
X65000000Y-110500000D02*
X65000000Y-109500000D01*
D11*
X189000000Y-101000000D02*
X169500000Y-101000000D01*
X169500000Y-101000000D02*
X169500000Y-119000000D01*
X169500000Y-119000000D02*
X189000000Y-119000000D01*
X189000000Y-110000000D02*
X189000000Y-101000000D01*
X189000000Y-101000000D02*
X195000000Y-101000000D01*
X195000000Y-101000000D02*
X195000000Y-119000000D01*
X195000000Y-119000000D02*
X189000000Y-119000000D01*
X189000000Y-119000000D02*
X189000000Y-110000000D01*
D10*
X143500000Y-128250000D02*
X91500000Y-128250000D01*
X91500000Y-128250000D02*
X91500000Y-92250000D01*
X91500000Y-92250000D02*
X143500000Y-92250000D01*
X143500000Y-92250000D02*
X143500000Y-128250000D01*
X151500000Y-123250000D02*
X151500000Y-118250000D01*
X151120000Y-130260000D02*
X83680000Y-130260000D01*
X83680000Y-130260000D02*
X83680000Y-89920000D01*
X83680000Y-89920000D02*
X151120000Y-89920000D01*
X151120000Y-89920000D02*
X151120000Y-130260000D01*
D11*
X157340000Y-131410000D02*
X157340000Y-142910000D01*
X139840000Y-131410000D02*
X157340000Y-131410000D01*
X139840000Y-142910000D02*
X139840000Y-131410000D01*
X157340000Y-142910000D02*
X139840000Y-142910000D01*
X149590000Y-142160000D02*
X155590000Y-142160000D01*
X155590000Y-142160000D02*
X155590000Y-136160000D01*
X148590000Y-142160000D02*
X155590000Y-142160000D01*
X148590000Y-135160000D02*
X148590000Y-142160000D01*
X155590000Y-135160000D02*
X148590000Y-135160000D01*
X155590000Y-142160000D02*
X155590000Y-135160000D01*
X154004214Y-133160000D02*
G75*
G03*
X154004214Y-133160000I-1414214J0D01*
G01*
X142590000Y-140160000D02*
X147590000Y-140160000D01*
X142590000Y-136160000D02*
X142590000Y-140160000D01*
X147590000Y-136160000D02*
X142590000Y-136160000D01*
X147590000Y-140160000D02*
X147590000Y-136160000D01*
X172593095Y-126227380D02*
X172593095Y-127036904D01*
X172640714Y-127132142D01*
X172688333Y-127179761D01*
X172783571Y-127227380D01*
X172974047Y-127227380D01*
X173069285Y-127179761D01*
X173116904Y-127132142D01*
X173164523Y-127036904D01*
X173164523Y-126227380D01*
X173688333Y-127227380D02*
X173878809Y-127227380D01*
X173974047Y-127179761D01*
X174021666Y-127132142D01*
X174116904Y-126989285D01*
X174164523Y-126798809D01*
X174164523Y-126417857D01*
X174116904Y-126322619D01*
X174069285Y-126275000D01*
X173974047Y-126227380D01*
X173783571Y-126227380D01*
X173688333Y-126275000D01*
X173640714Y-126322619D01*
X173593095Y-126417857D01*
X173593095Y-126655952D01*
X173640714Y-126751190D01*
X173688333Y-126798809D01*
X173783571Y-126846428D01*
X173974047Y-126846428D01*
X174069285Y-126798809D01*
X174116904Y-126751190D01*
X174164523Y-126655952D01*
X180490333Y-99069142D02*
X180442714Y-99116761D01*
X180299857Y-99164380D01*
X180204619Y-99164380D01*
X180061761Y-99116761D01*
X179966523Y-99021523D01*
X179918904Y-98926285D01*
X179871285Y-98735809D01*
X179871285Y-98592952D01*
X179918904Y-98402476D01*
X179966523Y-98307238D01*
X180061761Y-98212000D01*
X180204619Y-98164380D01*
X180299857Y-98164380D01*
X180442714Y-98212000D01*
X180490333Y-98259619D01*
X181442714Y-99164380D02*
X180871285Y-99164380D01*
X181157000Y-99164380D02*
X181157000Y-98164380D01*
X181061761Y-98307238D01*
X180966523Y-98402476D01*
X180871285Y-98450095D01*
X186269333Y-96717142D02*
X186221714Y-96764761D01*
X186078857Y-96812380D01*
X185983619Y-96812380D01*
X185840761Y-96764761D01*
X185745523Y-96669523D01*
X185697904Y-96574285D01*
X185650285Y-96383809D01*
X185650285Y-96240952D01*
X185697904Y-96050476D01*
X185745523Y-95955238D01*
X185840761Y-95860000D01*
X185983619Y-95812380D01*
X186078857Y-95812380D01*
X186221714Y-95860000D01*
X186269333Y-95907619D01*
X186650285Y-95907619D02*
X186697904Y-95860000D01*
X186793142Y-95812380D01*
X187031238Y-95812380D01*
X187126476Y-95860000D01*
X187174095Y-95907619D01*
X187221714Y-96002857D01*
X187221714Y-96098095D01*
X187174095Y-96240952D01*
X186602666Y-96812380D01*
X187221714Y-96812380D01*
X186170333Y-93939142D02*
X186122714Y-93986761D01*
X185979857Y-94034380D01*
X185884619Y-94034380D01*
X185741761Y-93986761D01*
X185646523Y-93891523D01*
X185598904Y-93796285D01*
X185551285Y-93605809D01*
X185551285Y-93462952D01*
X185598904Y-93272476D01*
X185646523Y-93177238D01*
X185741761Y-93082000D01*
X185884619Y-93034380D01*
X185979857Y-93034380D01*
X186122714Y-93082000D01*
X186170333Y-93129619D01*
X186503666Y-93034380D02*
X187122714Y-93034380D01*
X186789380Y-93415333D01*
X186932238Y-93415333D01*
X187027476Y-93462952D01*
X187075095Y-93510571D01*
X187122714Y-93605809D01*
X187122714Y-93843904D01*
X187075095Y-93939142D01*
X187027476Y-93986761D01*
X186932238Y-94034380D01*
X186646523Y-94034380D01*
X186551285Y-93986761D01*
X186503666Y-93939142D01*
X164453333Y-134452142D02*
X164405714Y-134499761D01*
X164262857Y-134547380D01*
X164167619Y-134547380D01*
X164024761Y-134499761D01*
X163929523Y-134404523D01*
X163881904Y-134309285D01*
X163834285Y-134118809D01*
X163834285Y-133975952D01*
X163881904Y-133785476D01*
X163929523Y-133690238D01*
X164024761Y-133595000D01*
X164167619Y-133547380D01*
X164262857Y-133547380D01*
X164405714Y-133595000D01*
X164453333Y-133642619D01*
X165310476Y-133880714D02*
X165310476Y-134547380D01*
X165072380Y-133499761D02*
X164834285Y-134214047D01*
X165453333Y-134214047D01*
X168792142Y-129071666D02*
X168839761Y-129119285D01*
X168887380Y-129262142D01*
X168887380Y-129357380D01*
X168839761Y-129500238D01*
X168744523Y-129595476D01*
X168649285Y-129643095D01*
X168458809Y-129690714D01*
X168315952Y-129690714D01*
X168125476Y-129643095D01*
X168030238Y-129595476D01*
X167935000Y-129500238D01*
X167887380Y-129357380D01*
X167887380Y-129262142D01*
X167935000Y-129119285D01*
X167982619Y-129071666D01*
X167887380Y-128166904D02*
X167887380Y-128643095D01*
X168363571Y-128690714D01*
X168315952Y-128643095D01*
X168268333Y-128547857D01*
X168268333Y-128309761D01*
X168315952Y-128214523D01*
X168363571Y-128166904D01*
X168458809Y-128119285D01*
X168696904Y-128119285D01*
X168792142Y-128166904D01*
X168839761Y-128214523D01*
X168887380Y-128309761D01*
X168887380Y-128547857D01*
X168839761Y-128643095D01*
X168792142Y-128690714D01*
X158103333Y-86607142D02*
X158055714Y-86654761D01*
X157912857Y-86702380D01*
X157817619Y-86702380D01*
X157674761Y-86654761D01*
X157579523Y-86559523D01*
X157531904Y-86464285D01*
X157484285Y-86273809D01*
X157484285Y-86130952D01*
X157531904Y-85940476D01*
X157579523Y-85845238D01*
X157674761Y-85750000D01*
X157817619Y-85702380D01*
X157912857Y-85702380D01*
X158055714Y-85750000D01*
X158103333Y-85797619D01*
X158960476Y-85702380D02*
X158770000Y-85702380D01*
X158674761Y-85750000D01*
X158627142Y-85797619D01*
X158531904Y-85940476D01*
X158484285Y-86130952D01*
X158484285Y-86511904D01*
X158531904Y-86607142D01*
X158579523Y-86654761D01*
X158674761Y-86702380D01*
X158865238Y-86702380D01*
X158960476Y-86654761D01*
X159008095Y-86607142D01*
X159055714Y-86511904D01*
X159055714Y-86273809D01*
X159008095Y-86178571D01*
X158960476Y-86130952D01*
X158865238Y-86083333D01*
X158674761Y-86083333D01*
X158579523Y-86130952D01*
X158531904Y-86178571D01*
X158484285Y-86273809D01*
X174458333Y-128152142D02*
X174410714Y-128199761D01*
X174267857Y-128247380D01*
X174172619Y-128247380D01*
X174029761Y-128199761D01*
X173934523Y-128104523D01*
X173886904Y-128009285D01*
X173839285Y-127818809D01*
X173839285Y-127675952D01*
X173886904Y-127485476D01*
X173934523Y-127390238D01*
X174029761Y-127295000D01*
X174172619Y-127247380D01*
X174267857Y-127247380D01*
X174410714Y-127295000D01*
X174458333Y-127342619D01*
X174791666Y-127247380D02*
X175458333Y-127247380D01*
X175029761Y-128247380D01*
X171713333Y-137462142D02*
X171665714Y-137509761D01*
X171522857Y-137557380D01*
X171427619Y-137557380D01*
X171284761Y-137509761D01*
X171189523Y-137414523D01*
X171141904Y-137319285D01*
X171094285Y-137128809D01*
X171094285Y-136985952D01*
X171141904Y-136795476D01*
X171189523Y-136700238D01*
X171284761Y-136605000D01*
X171427619Y-136557380D01*
X171522857Y-136557380D01*
X171665714Y-136605000D01*
X171713333Y-136652619D01*
X172284761Y-136985952D02*
X172189523Y-136938333D01*
X172141904Y-136890714D01*
X172094285Y-136795476D01*
X172094285Y-136747857D01*
X172141904Y-136652619D01*
X172189523Y-136605000D01*
X172284761Y-136557380D01*
X172475238Y-136557380D01*
X172570476Y-136605000D01*
X172618095Y-136652619D01*
X172665714Y-136747857D01*
X172665714Y-136795476D01*
X172618095Y-136890714D01*
X172570476Y-136938333D01*
X172475238Y-136985952D01*
X172284761Y-136985952D01*
X172189523Y-137033571D01*
X172141904Y-137081190D01*
X172094285Y-137176428D01*
X172094285Y-137366904D01*
X172141904Y-137462142D01*
X172189523Y-137509761D01*
X172284761Y-137557380D01*
X172475238Y-137557380D01*
X172570476Y-137509761D01*
X172618095Y-137462142D01*
X172665714Y-137366904D01*
X172665714Y-137176428D01*
X172618095Y-137081190D01*
X172570476Y-137033571D01*
X172475238Y-136985952D01*
X171438333Y-125562142D02*
X171390714Y-125609761D01*
X171247857Y-125657380D01*
X171152619Y-125657380D01*
X171009761Y-125609761D01*
X170914523Y-125514523D01*
X170866904Y-125419285D01*
X170819285Y-125228809D01*
X170819285Y-125085952D01*
X170866904Y-124895476D01*
X170914523Y-124800238D01*
X171009761Y-124705000D01*
X171152619Y-124657380D01*
X171247857Y-124657380D01*
X171390714Y-124705000D01*
X171438333Y-124752619D01*
X171914523Y-125657380D02*
X172105000Y-125657380D01*
X172200238Y-125609761D01*
X172247857Y-125562142D01*
X172343095Y-125419285D01*
X172390714Y-125228809D01*
X172390714Y-124847857D01*
X172343095Y-124752619D01*
X172295476Y-124705000D01*
X172200238Y-124657380D01*
X172009761Y-124657380D01*
X171914523Y-124705000D01*
X171866904Y-124752619D01*
X171819285Y-124847857D01*
X171819285Y-125085952D01*
X171866904Y-125181190D01*
X171914523Y-125228809D01*
X172009761Y-125276428D01*
X172200238Y-125276428D01*
X172295476Y-125228809D01*
X172343095Y-125181190D01*
X172390714Y-125085952D01*
X103973333Y-142852380D02*
X103640000Y-142376190D01*
X103401904Y-142852380D02*
X103401904Y-141852380D01*
X103782857Y-141852380D01*
X103878095Y-141900000D01*
X103925714Y-141947619D01*
X103973333Y-142042857D01*
X103973333Y-142185714D01*
X103925714Y-142280952D01*
X103878095Y-142328571D01*
X103782857Y-142376190D01*
X103401904Y-142376190D01*
X104925714Y-142852380D02*
X104354285Y-142852380D01*
X104640000Y-142852380D02*
X104640000Y-141852380D01*
X104544761Y-141995238D01*
X104449523Y-142090476D01*
X104354285Y-142138095D01*
X180427333Y-93256380D02*
X180094000Y-92780190D01*
X179855904Y-93256380D02*
X179855904Y-92256380D01*
X180236857Y-92256380D01*
X180332095Y-92304000D01*
X180379714Y-92351619D01*
X180427333Y-92446857D01*
X180427333Y-92589714D01*
X180379714Y-92684952D01*
X180332095Y-92732571D01*
X180236857Y-92780190D01*
X179855904Y-92780190D01*
X180808285Y-92351619D02*
X180855904Y-92304000D01*
X180951142Y-92256380D01*
X181189238Y-92256380D01*
X181284476Y-92304000D01*
X181332095Y-92351619D01*
X181379714Y-92446857D01*
X181379714Y-92542095D01*
X181332095Y-92684952D01*
X180760666Y-93256380D01*
X181379714Y-93256380D01*
X175093333Y-89192380D02*
X174760000Y-88716190D01*
X174521904Y-89192380D02*
X174521904Y-88192380D01*
X174902857Y-88192380D01*
X174998095Y-88240000D01*
X175045714Y-88287619D01*
X175093333Y-88382857D01*
X175093333Y-88525714D01*
X175045714Y-88620952D01*
X174998095Y-88668571D01*
X174902857Y-88716190D01*
X174521904Y-88716190D01*
X175426666Y-88192380D02*
X176045714Y-88192380D01*
X175712380Y-88573333D01*
X175855238Y-88573333D01*
X175950476Y-88620952D01*
X175998095Y-88668571D01*
X176045714Y-88763809D01*
X176045714Y-89001904D01*
X175998095Y-89097142D01*
X175950476Y-89144761D01*
X175855238Y-89192380D01*
X175569523Y-89192380D01*
X175474285Y-89144761D01*
X175426666Y-89097142D01*
X166393333Y-134597380D02*
X166060000Y-134121190D01*
X165821904Y-134597380D02*
X165821904Y-133597380D01*
X166202857Y-133597380D01*
X166298095Y-133645000D01*
X166345714Y-133692619D01*
X166393333Y-133787857D01*
X166393333Y-133930714D01*
X166345714Y-134025952D01*
X166298095Y-134073571D01*
X166202857Y-134121190D01*
X165821904Y-134121190D01*
X167250476Y-133930714D02*
X167250476Y-134597380D01*
X167012380Y-133549761D02*
X166774285Y-134264047D01*
X167393333Y-134264047D01*
X103882380Y-133166666D02*
X103406190Y-133500000D01*
X103882380Y-133738095D02*
X102882380Y-133738095D01*
X102882380Y-133357142D01*
X102930000Y-133261904D01*
X102977619Y-133214285D01*
X103072857Y-133166666D01*
X103215714Y-133166666D01*
X103310952Y-133214285D01*
X103358571Y-133261904D01*
X103406190Y-133357142D01*
X103406190Y-133738095D01*
X102882380Y-132261904D02*
X102882380Y-132738095D01*
X103358571Y-132785714D01*
X103310952Y-132738095D01*
X103263333Y-132642857D01*
X103263333Y-132404761D01*
X103310952Y-132309523D01*
X103358571Y-132261904D01*
X103453809Y-132214285D01*
X103691904Y-132214285D01*
X103787142Y-132261904D01*
X103834761Y-132309523D01*
X103882380Y-132404761D01*
X103882380Y-132642857D01*
X103834761Y-132738095D01*
X103787142Y-132785714D01*
X99882380Y-133341666D02*
X99406190Y-133675000D01*
X99882380Y-133913095D02*
X98882380Y-133913095D01*
X98882380Y-133532142D01*
X98930000Y-133436904D01*
X98977619Y-133389285D01*
X99072857Y-133341666D01*
X99215714Y-133341666D01*
X99310952Y-133389285D01*
X99358571Y-133436904D01*
X99406190Y-133532142D01*
X99406190Y-133913095D01*
X98882380Y-132484523D02*
X98882380Y-132675000D01*
X98930000Y-132770238D01*
X98977619Y-132817857D01*
X99120476Y-132913095D01*
X99310952Y-132960714D01*
X99691904Y-132960714D01*
X99787142Y-132913095D01*
X99834761Y-132865476D01*
X99882380Y-132770238D01*
X99882380Y-132579761D01*
X99834761Y-132484523D01*
X99787142Y-132436904D01*
X99691904Y-132389285D01*
X99453809Y-132389285D01*
X99358571Y-132436904D01*
X99310952Y-132484523D01*
X99263333Y-132579761D01*
X99263333Y-132770238D01*
X99310952Y-132865476D01*
X99358571Y-132913095D01*
X99453809Y-132960714D01*
X95417380Y-133166666D02*
X94941190Y-133500000D01*
X95417380Y-133738095D02*
X94417380Y-133738095D01*
X94417380Y-133357142D01*
X94465000Y-133261904D01*
X94512619Y-133214285D01*
X94607857Y-133166666D01*
X94750714Y-133166666D01*
X94845952Y-133214285D01*
X94893571Y-133261904D01*
X94941190Y-133357142D01*
X94941190Y-133738095D01*
X94417380Y-132833333D02*
X94417380Y-132166666D01*
X95417380Y-132595238D01*
X90882380Y-133166666D02*
X90406190Y-133500000D01*
X90882380Y-133738095D02*
X89882380Y-133738095D01*
X89882380Y-133357142D01*
X89930000Y-133261904D01*
X89977619Y-133214285D01*
X90072857Y-133166666D01*
X90215714Y-133166666D01*
X90310952Y-133214285D01*
X90358571Y-133261904D01*
X90406190Y-133357142D01*
X90406190Y-133738095D01*
X90310952Y-132595238D02*
X90263333Y-132690476D01*
X90215714Y-132738095D01*
X90120476Y-132785714D01*
X90072857Y-132785714D01*
X89977619Y-132738095D01*
X89930000Y-132690476D01*
X89882380Y-132595238D01*
X89882380Y-132404761D01*
X89930000Y-132309523D01*
X89977619Y-132261904D01*
X90072857Y-132214285D01*
X90120476Y-132214285D01*
X90215714Y-132261904D01*
X90263333Y-132309523D01*
X90310952Y-132404761D01*
X90310952Y-132595238D01*
X90358571Y-132690476D01*
X90406190Y-132738095D01*
X90501428Y-132785714D01*
X90691904Y-132785714D01*
X90787142Y-132738095D01*
X90834761Y-132690476D01*
X90882380Y-132595238D01*
X90882380Y-132404761D01*
X90834761Y-132309523D01*
X90787142Y-132261904D01*
X90691904Y-132214285D01*
X90501428Y-132214285D01*
X90406190Y-132261904D01*
X90358571Y-132309523D01*
X90310952Y-132404761D01*
X158393333Y-90782380D02*
X158060000Y-90306190D01*
X157821904Y-90782380D02*
X157821904Y-89782380D01*
X158202857Y-89782380D01*
X158298095Y-89830000D01*
X158345714Y-89877619D01*
X158393333Y-89972857D01*
X158393333Y-90115714D01*
X158345714Y-90210952D01*
X158298095Y-90258571D01*
X158202857Y-90306190D01*
X157821904Y-90306190D01*
X158869523Y-90782380D02*
X159060000Y-90782380D01*
X159155238Y-90734761D01*
X159202857Y-90687142D01*
X159298095Y-90544285D01*
X159345714Y-90353809D01*
X159345714Y-89972857D01*
X159298095Y-89877619D01*
X159250476Y-89830000D01*
X159155238Y-89782380D01*
X158964761Y-89782380D01*
X158869523Y-89830000D01*
X158821904Y-89877619D01*
X158774285Y-89972857D01*
X158774285Y-90210952D01*
X158821904Y-90306190D01*
X158869523Y-90353809D01*
X158964761Y-90401428D01*
X159155238Y-90401428D01*
X159250476Y-90353809D01*
X159298095Y-90306190D01*
X159345714Y-90210952D01*
X161917142Y-89512380D02*
X161583809Y-89036190D01*
X161345714Y-89512380D02*
X161345714Y-88512380D01*
X161726666Y-88512380D01*
X161821904Y-88560000D01*
X161869523Y-88607619D01*
X161917142Y-88702857D01*
X161917142Y-88845714D01*
X161869523Y-88940952D01*
X161821904Y-88988571D01*
X161726666Y-89036190D01*
X161345714Y-89036190D01*
X162869523Y-89512380D02*
X162298095Y-89512380D01*
X162583809Y-89512380D02*
X162583809Y-88512380D01*
X162488571Y-88655238D01*
X162393333Y-88750476D01*
X162298095Y-88798095D01*
X163488571Y-88512380D02*
X163583809Y-88512380D01*
X163679047Y-88560000D01*
X163726666Y-88607619D01*
X163774285Y-88702857D01*
X163821904Y-88893333D01*
X163821904Y-89131428D01*
X163774285Y-89321904D01*
X163726666Y-89417142D01*
X163679047Y-89464761D01*
X163583809Y-89512380D01*
X163488571Y-89512380D01*
X163393333Y-89464761D01*
X163345714Y-89417142D01*
X163298095Y-89321904D01*
X163250476Y-89131428D01*
X163250476Y-88893333D01*
X163298095Y-88702857D01*
X163345714Y-88607619D01*
X163393333Y-88560000D01*
X163488571Y-88512380D01*
X176522142Y-135994380D02*
X176188809Y-135518190D01*
X175950714Y-135994380D02*
X175950714Y-134994380D01*
X176331666Y-134994380D01*
X176426904Y-135042000D01*
X176474523Y-135089619D01*
X176522142Y-135184857D01*
X176522142Y-135327714D01*
X176474523Y-135422952D01*
X176426904Y-135470571D01*
X176331666Y-135518190D01*
X175950714Y-135518190D01*
X177474523Y-135994380D02*
X176903095Y-135994380D01*
X177188809Y-135994380D02*
X177188809Y-134994380D01*
X177093571Y-135137238D01*
X176998333Y-135232476D01*
X176903095Y-135280095D01*
X178426904Y-135994380D02*
X177855476Y-135994380D01*
X178141190Y-135994380D02*
X178141190Y-134994380D01*
X178045952Y-135137238D01*
X177950714Y-135232476D01*
X177855476Y-135280095D01*
X168331142Y-124752380D02*
X167997809Y-124276190D01*
X167759714Y-124752380D02*
X167759714Y-123752380D01*
X168140666Y-123752380D01*
X168235904Y-123800000D01*
X168283523Y-123847619D01*
X168331142Y-123942857D01*
X168331142Y-124085714D01*
X168283523Y-124180952D01*
X168235904Y-124228571D01*
X168140666Y-124276190D01*
X167759714Y-124276190D01*
X169283523Y-124752380D02*
X168712095Y-124752380D01*
X168997809Y-124752380D02*
X168997809Y-123752380D01*
X168902571Y-123895238D01*
X168807333Y-123990476D01*
X168712095Y-124038095D01*
X169664476Y-123847619D02*
X169712095Y-123800000D01*
X169807333Y-123752380D01*
X170045428Y-123752380D01*
X170140666Y-123800000D01*
X170188285Y-123847619D01*
X170235904Y-123942857D01*
X170235904Y-124038095D01*
X170188285Y-124180952D01*
X169616857Y-124752380D01*
X170235904Y-124752380D01*
X167187142Y-137137380D02*
X166853809Y-136661190D01*
X166615714Y-137137380D02*
X166615714Y-136137380D01*
X166996666Y-136137380D01*
X167091904Y-136185000D01*
X167139523Y-136232619D01*
X167187142Y-136327857D01*
X167187142Y-136470714D01*
X167139523Y-136565952D01*
X167091904Y-136613571D01*
X166996666Y-136661190D01*
X166615714Y-136661190D01*
X168139523Y-137137380D02*
X167568095Y-137137380D01*
X167853809Y-137137380D02*
X167853809Y-136137380D01*
X167758571Y-136280238D01*
X167663333Y-136375476D01*
X167568095Y-136423095D01*
X168472857Y-136137380D02*
X169091904Y-136137380D01*
X168758571Y-136518333D01*
X168901428Y-136518333D01*
X168996666Y-136565952D01*
X169044285Y-136613571D01*
X169091904Y-136708809D01*
X169091904Y-136946904D01*
X169044285Y-137042142D01*
X168996666Y-137089761D01*
X168901428Y-137137380D01*
X168615714Y-137137380D01*
X168520476Y-137089761D01*
X168472857Y-137042142D01*
X154204761Y-116033333D02*
X154252380Y-115890476D01*
X154252380Y-115652380D01*
X154204761Y-115557142D01*
X154157142Y-115509523D01*
X154061904Y-115461904D01*
X153966666Y-115461904D01*
X153871428Y-115509523D01*
X153823809Y-115557142D01*
X153776190Y-115652380D01*
X153728571Y-115842857D01*
X153680952Y-115938095D01*
X153633333Y-115985714D01*
X153538095Y-116033333D01*
X153442857Y-116033333D01*
X153347619Y-115985714D01*
X153300000Y-115938095D01*
X153252380Y-115842857D01*
X153252380Y-115604761D01*
X153300000Y-115461904D01*
X153252380Y-115128571D02*
X154252380Y-114890476D01*
X153538095Y-114700000D01*
X154252380Y-114509523D01*
X153252380Y-114271428D01*
X154252380Y-113366666D02*
X154252380Y-113938095D01*
X154252380Y-113652380D02*
X153252380Y-113652380D01*
X153395238Y-113747619D01*
X153490476Y-113842857D01*
X153538095Y-113938095D01*
X58204761Y-116033333D02*
X58252380Y-115890476D01*
X58252380Y-115652380D01*
X58204761Y-115557142D01*
X58157142Y-115509523D01*
X58061904Y-115461904D01*
X57966666Y-115461904D01*
X57871428Y-115509523D01*
X57823809Y-115557142D01*
X57776190Y-115652380D01*
X57728571Y-115842857D01*
X57680952Y-115938095D01*
X57633333Y-115985714D01*
X57538095Y-116033333D01*
X57442857Y-116033333D01*
X57347619Y-115985714D01*
X57300000Y-115938095D01*
X57252380Y-115842857D01*
X57252380Y-115604761D01*
X57300000Y-115461904D01*
X57252380Y-115128571D02*
X58252380Y-114890476D01*
X57538095Y-114700000D01*
X58252380Y-114509523D01*
X57252380Y-114271428D01*
X57347619Y-113938095D02*
X57300000Y-113890476D01*
X57252380Y-113795238D01*
X57252380Y-113557142D01*
X57300000Y-113461904D01*
X57347619Y-113414285D01*
X57442857Y-113366666D01*
X57538095Y-113366666D01*
X57680952Y-113414285D01*
X58252380Y-113985714D01*
X58252380Y-113366666D01*
X195452380Y-110761904D02*
X196261904Y-110761904D01*
X196357142Y-110714285D01*
X196404761Y-110666666D01*
X196452380Y-110571428D01*
X196452380Y-110380952D01*
X196404761Y-110285714D01*
X196357142Y-110238095D01*
X196261904Y-110190476D01*
X195452380Y-110190476D01*
X195547619Y-109761904D02*
X195500000Y-109714285D01*
X195452380Y-109619047D01*
X195452380Y-109380952D01*
X195500000Y-109285714D01*
X195547619Y-109238095D01*
X195642857Y-109190476D01*
X195738095Y-109190476D01*
X195880952Y-109238095D01*
X196452380Y-109809523D01*
X196452380Y-109190476D01*
X148148095Y-130882380D02*
X148148095Y-131691904D01*
X148195714Y-131787142D01*
X148243333Y-131834761D01*
X148338571Y-131882380D01*
X148529047Y-131882380D01*
X148624285Y-131834761D01*
X148671904Y-131787142D01*
X148719523Y-131691904D01*
X148719523Y-130882380D01*
X149719523Y-131882380D02*
X149148095Y-131882380D01*
X149433809Y-131882380D02*
X149433809Y-130882380D01*
X149338571Y-131025238D01*
X149243333Y-131120476D01*
X149148095Y-131168095D01*
X147828095Y-129612380D02*
X147828095Y-130421904D01*
X147875714Y-130517142D01*
X147923333Y-130564761D01*
X148018571Y-130612380D01*
X148209047Y-130612380D01*
X148304285Y-130564761D01*
X148351904Y-130517142D01*
X148399523Y-130421904D01*
X148399523Y-129612380D01*
X148780476Y-129612380D02*
X149399523Y-129612380D01*
X149066190Y-129993333D01*
X149209047Y-129993333D01*
X149304285Y-130040952D01*
X149351904Y-130088571D01*
X149399523Y-130183809D01*
X149399523Y-130421904D01*
X149351904Y-130517142D01*
X149304285Y-130564761D01*
X149209047Y-130612380D01*
X148923333Y-130612380D01*
X148828095Y-130564761D01*
X148780476Y-130517142D01*
X157970952Y-141612380D02*
X158161428Y-141612380D01*
X158256666Y-141660000D01*
X158351904Y-141755238D01*
X158399523Y-141945714D01*
X158399523Y-142279047D01*
X158351904Y-142469523D01*
X158256666Y-142564761D01*
X158161428Y-142612380D01*
X157970952Y-142612380D01*
X157875714Y-142564761D01*
X157780476Y-142469523D01*
X157732857Y-142279047D01*
X157732857Y-141945714D01*
X157780476Y-141755238D01*
X157875714Y-141660000D01*
X157970952Y-141612380D01*
X158828095Y-141612380D02*
X158828095Y-142421904D01*
X158875714Y-142517142D01*
X158923333Y-142564761D01*
X159018571Y-142612380D01*
X159209047Y-142612380D01*
X159304285Y-142564761D01*
X159351904Y-142517142D01*
X159399523Y-142421904D01*
X159399523Y-141612380D01*
X159732857Y-141612380D02*
X160304285Y-141612380D01*
X160018571Y-142612380D02*
X160018571Y-141612380D01*
X160637619Y-142231428D02*
X161399523Y-142231428D01*
X161018571Y-142612380D02*
X161018571Y-141850476D01*
X157970952Y-131612380D02*
X158161428Y-131612380D01*
X158256666Y-131660000D01*
X158351904Y-131755238D01*
X158399523Y-131945714D01*
X158399523Y-132279047D01*
X158351904Y-132469523D01*
X158256666Y-132564761D01*
X158161428Y-132612380D01*
X157970952Y-132612380D01*
X157875714Y-132564761D01*
X157780476Y-132469523D01*
X157732857Y-132279047D01*
X157732857Y-131945714D01*
X157780476Y-131755238D01*
X157875714Y-131660000D01*
X157970952Y-131612380D01*
X158828095Y-131612380D02*
X158828095Y-132421904D01*
X158875714Y-132517142D01*
X158923333Y-132564761D01*
X159018571Y-132612380D01*
X159209047Y-132612380D01*
X159304285Y-132564761D01*
X159351904Y-132517142D01*
X159399523Y-132421904D01*
X159399523Y-131612380D01*
X159732857Y-131612380D02*
X160304285Y-131612380D01*
X160018571Y-132612380D02*
X160018571Y-131612380D01*
X160637619Y-132231428D02*
X161399523Y-132231428D01*
X136447142Y-132612380D02*
X136447142Y-131612380D01*
X136923333Y-132612380D02*
X136923333Y-131612380D01*
X137494761Y-132612380D01*
X137494761Y-131612380D01*
X137970952Y-132231428D02*
X138732857Y-132231428D01*
X136447142Y-142612380D02*
X136447142Y-141612380D01*
X136923333Y-142612380D02*
X136923333Y-141612380D01*
X137494761Y-142612380D01*
X137494761Y-141612380D01*
X137970952Y-142231428D02*
X138732857Y-142231428D01*
X138351904Y-142612380D02*
X138351904Y-141850476D01*
X199238095Y-106252380D02*
X199238095Y-105252380D01*
X199238095Y-105728571D02*
X199809523Y-105728571D01*
X199809523Y-106252380D02*
X199809523Y-105252380D01*
X200714285Y-105252380D02*
X200523809Y-105252380D01*
X200428571Y-105300000D01*
X200380952Y-105347619D01*
X200285714Y-105490476D01*
X200238095Y-105680952D01*
X200238095Y-106061904D01*
X200285714Y-106157142D01*
X200333333Y-106204761D01*
X200428571Y-106252380D01*
X200619047Y-106252380D01*
X200714285Y-106204761D01*
X200761904Y-106157142D01*
X200809523Y-106061904D01*
X200809523Y-105823809D01*
X200761904Y-105728571D01*
X200714285Y-105680952D01*
X200619047Y-105633333D01*
X200428571Y-105633333D01*
X200333333Y-105680952D01*
X200285714Y-105728571D01*
X200238095Y-105823809D01*
X29238095Y-106252380D02*
X29238095Y-105252380D01*
X29238095Y-105728571D02*
X29809523Y-105728571D01*
X29809523Y-106252380D02*
X29809523Y-105252380D01*
X30809523Y-106252380D02*
X30238095Y-106252380D01*
X30523809Y-106252380D02*
X30523809Y-105252380D01*
X30428571Y-105395238D01*
X30333333Y-105490476D01*
X30238095Y-105538095D01*
X64238095Y-76252380D02*
X64238095Y-75252380D01*
X64238095Y-75728571D02*
X64809523Y-75728571D01*
X64809523Y-76252380D02*
X64809523Y-75252380D01*
X65238095Y-75347619D02*
X65285714Y-75300000D01*
X65380952Y-75252380D01*
X65619047Y-75252380D01*
X65714285Y-75300000D01*
X65761904Y-75347619D01*
X65809523Y-75442857D01*
X65809523Y-75538095D01*
X65761904Y-75680952D01*
X65190476Y-76252380D01*
X65809523Y-76252380D01*
X64238095Y-136252380D02*
X64238095Y-135252380D01*
X64238095Y-135728571D02*
X64809523Y-135728571D01*
X64809523Y-136252380D02*
X64809523Y-135252380D01*
X65190476Y-135252380D02*
X65809523Y-135252380D01*
X65476190Y-135633333D01*
X65619047Y-135633333D01*
X65714285Y-135680952D01*
X65761904Y-135728571D01*
X65809523Y-135823809D01*
X65809523Y-136061904D01*
X65761904Y-136157142D01*
X65714285Y-136204761D01*
X65619047Y-136252380D01*
X65333333Y-136252380D01*
X65238095Y-136204761D01*
X65190476Y-136157142D01*
X164238095Y-76252380D02*
X164238095Y-75252380D01*
X164238095Y-75728571D02*
X164809523Y-75728571D01*
X164809523Y-76252380D02*
X164809523Y-75252380D01*
X165714285Y-75585714D02*
X165714285Y-76252380D01*
X165476190Y-75204761D02*
X165238095Y-75919047D01*
X165857142Y-75919047D01*
X164238095Y-136252380D02*
X164238095Y-135252380D01*
X164238095Y-135728571D02*
X164809523Y-135728571D01*
X164809523Y-136252380D02*
X164809523Y-135252380D01*
X165761904Y-135252380D02*
X165285714Y-135252380D01*
X165238095Y-135728571D01*
X165285714Y-135680952D01*
X165380952Y-135633333D01*
X165619047Y-135633333D01*
X165714285Y-135680952D01*
X165761904Y-135728571D01*
X165809523Y-135823809D01*
X165809523Y-136061904D01*
X165761904Y-136157142D01*
X165714285Y-136204761D01*
X165619047Y-136252380D01*
X165380952Y-136252380D01*
X165285714Y-136204761D01*
X165238095Y-136157142D01*
M02*
