M48
; DRILL file {KiCad 5.1.9-73d0e3b20d~88~ubuntu20.04.1} date Mon Feb  1 03:28:46 2021
; FORMAT={-:-/ absolute / inch / decimal}
; #@! TF.CreationDate,2021-02-01T03:28:46+09:00
; #@! TF.GenerationSoftware,Kicad,Pcbnew,5.1.9-73d0e3b20d~88~ubuntu20.04.1
; #@! TF.FileFunction,Plated,1,2,PTH
FMAT,2
INCH
T1C0.0118
T2C0.0236
T3C0.0315
T4C0.0354
T5C0.0394
T6C0.0402
T7C0.0433
T8C0.0472
T9C0.0500
T10C0.0591
T11C0.0669
T12C0.1063
T13C0.1378
T14C0.1575
%
G90
G05
T1
X4.2005Y-3.1234
X4.3701Y-3.1496
X6.0415Y-3.4067
X6.0532Y-3.2932
X6.0649Y-3.417
X6.0866Y-3.3012
X6.0984Y-3.4232
X6.1219Y-3.3049
X6.7776Y-3.5138
X6.7976Y-3.7256
X6.811Y-3.5256
X6.8235Y-4.2319
X6.8306Y-3.7306
X6.8448Y-4.2461
X6.8504Y-3.5669
X6.8625Y-4.0846
X6.8858Y-3.8169
X6.8884Y-4.0846
X6.9075Y-3.5807
X6.9154Y-3.8346
X6.9826Y-4.2303
X7.0085Y-4.2282
X7.4372Y-3.6511
X7.4678Y-3.6344
X7.4806Y-3.5242
X7.5412Y-3.5483
T2
X6.4803Y-4.8209
T3
X3.622Y-3.189
X3.722Y-3.189
X3.822Y-3.189
X3.922Y-3.189
X4.165Y-3.2462
X4.2913Y-3.3858
X5.0661Y-3.0858
X5.0661Y-3.3858
X5.1661Y-3.0858
X5.1661Y-3.3858
X5.2661Y-3.0858
X5.2661Y-3.3858
X5.3661Y-3.0858
X5.3661Y-3.3858
X5.4301Y-3.5648
X5.4661Y-3.0858
X5.4661Y-3.3858
X5.5661Y-3.0858
X5.5661Y-3.3858
X5.6661Y-3.0858
X5.6661Y-3.3858
X5.7661Y-3.0858
X5.7661Y-3.3858
X5.8661Y-3.0858
X5.8661Y-3.3858
X6.4035Y-3.939
X6.4587Y-4.002
X6.6791Y-3.7677
X7.1385Y-3.4303
X7.1763Y-3.4838
X7.4803Y-3.9213
X7.5591Y-3.8976
X7.6299Y-3.8661
X7.9775Y-3.9359
T4
X6.4875Y-3.5981
X6.5049Y-3.6966
X6.5223Y-3.7951
X6.5396Y-3.8935
T5
X2.2638Y-4.0551
X2.2638Y-4.626
X2.3622Y-4.626
X2.4606Y-4.0551
X2.4606Y-4.626
X3.0039Y-4.1804
X3.0039Y-4.2804
X3.0039Y-4.3804
X3.0039Y-4.4804
X4.5276Y-3.0866
X4.5276Y-3.3858
X5.0197Y-3.7047
X5.0197Y-3.7992
X5.0197Y-4.8228
X5.0197Y-4.9173
X5.1197Y-3.7047
X5.1197Y-3.7992
X5.1197Y-4.8228
X5.1197Y-4.9173
X5.5102Y-3.7047
X5.5102Y-3.7992
X5.5102Y-4.8228
X5.5102Y-4.9173
X5.6102Y-3.7047
X5.6102Y-3.7992
X5.6102Y-4.8228
X5.6102Y-4.9173
X5.6299Y-4.6457
X6.3228Y-3.6804
X6.3228Y-3.7804
X6.3228Y-3.8804
X6.3228Y-3.9804
X6.3228Y-4.0804
X6.3228Y-4.1804
X6.3228Y-4.2804
X6.3228Y-4.3804
X6.3228Y-4.4804
X6.3228Y-4.5804
X6.3228Y-4.6804
X6.3228Y-4.7804
X6.3228Y-4.8804
X6.3228Y-4.9804
X6.5945Y-4.0551
X6.5945Y-4.626
X6.6929Y-4.626
X6.7913Y-4.0551
X6.7913Y-4.626
X7.0427Y-3.2658
X7.1334Y-3.3081
X7.224Y-3.3503
X7.3146Y-3.3926
X7.4053Y-3.4349
X7.4959Y-3.4771
X7.5865Y-3.5194
X7.6772Y-3.5616
X7.7678Y-3.6039
X7.8584Y-3.6462
T6
X5.5874Y-5.6496
X5.6874Y-5.6496
X5.7874Y-5.6496
X6.0402Y-5.6496
X6.1402Y-5.6496
X6.2402Y-5.6496
T7
X6.04Y-5.16
X6.04Y-5.26
X6.04Y-5.36
T8
X1.1417Y-3.7835
X1.1417Y-3.8835
X1.1417Y-4.2835
X1.1417Y-4.4835
X1.4173Y-3.9016
X1.4173Y-4.0016
X1.4173Y-4.4016
X1.4173Y-4.6016
X1.6929Y-4.0197
X1.6929Y-4.1197
X1.6929Y-4.5197
X1.6929Y-4.7197
X1.9291Y-4.1378
X1.9291Y-4.2378
X1.9291Y-4.6378
X1.9291Y-4.8378
T9
X4.4134Y-3.8307
X5.863Y-3.893
T10
X3.3858Y-5.0394
X3.5433Y-3.7087
X3.5433Y-4.5276
X3.5827Y-5.0394
X4.0551Y-5.0394
X4.2638Y-5.0394
X5.315Y-3.7087
X5.315Y-4.0236
T11
X1.1417Y-4.8425
X1.3201Y-4.9257
X1.5354Y-5.0197
X1.7138Y-5.1029
X1.9291Y-5.1969
X2.1075Y-5.28
X3.4252Y-5.4724
X3.5811Y-5.4724
X3.737Y-5.4724
X4.0551Y-5.4724
X4.252Y-5.4724
X4.4488Y-5.4724
X4.6457Y-5.4724
T12
X3.0039Y-3.3661
X3.0039Y-5.2953
X6.2835Y-3.3661
X6.2835Y-5.2953
T13
X2.3622Y-3.1496
X2.3622Y-5.5118
X6.6929Y-3.1496
X6.6929Y-5.5118
T14
X7.5948Y-4.2529
T10
G00X2.1417Y-4.3563
M15
G01X2.1417Y-4.3051
M16
G05
G00X2.5827Y-4.3563
M15
G01X2.5827Y-4.3051
M16
G05
G00X6.4724Y-4.3563
M15
G01X6.4724Y-4.3051
M16
G05
G00X6.9134Y-4.3563
M15
G01X6.9134Y-4.3051
M16
G05
T0
M30
