G04 #@! TF.GenerationSoftware,KiCad,Pcbnew,5.1.9-73d0e3b20d~88~ubuntu20.04.1*
G04 #@! TF.CreationDate,2021-01-28T18:17:13+09:00*
G04 #@! TF.ProjectId,ESP32DUALDIAL,45535033-3244-4554-914c-4449414c2e6b,rev?*
G04 #@! TF.SameCoordinates,Original*
G04 #@! TF.FileFunction,Copper,L2,Bot*
G04 #@! TF.FilePolarity,Positive*
%FSLAX46Y46*%
G04 Gerber Fmt 4.6, Leading zero omitted, Abs format (unit mm)*
G04 Created by KiCad (PCBNEW 5.1.9-73d0e3b20d~88~ubuntu20.04.1) date 2021-01-28 18:17:13*
%MOMM*%
%LPD*%
G01*
G04 APERTURE LIST*
G04 #@! TA.AperFunction,ComponentPad*
%ADD10C,5.000000*%
G04 #@! TD*
G04 #@! TA.AperFunction,ComponentPad*
%ADD11R,1.500000X1.500000*%
G04 #@! TD*
G04 #@! TA.AperFunction,ComponentPad*
%ADD12C,1.500000*%
G04 #@! TD*
G04 #@! TA.AperFunction,ComponentPad*
%ADD13C,4.000000*%
G04 #@! TD*
G04 #@! TA.AperFunction,ComponentPad*
%ADD14C,3.000000*%
G04 #@! TD*
G04 #@! TA.AperFunction,ComponentPad*
%ADD15R,2.000000X2.000000*%
G04 #@! TD*
G04 #@! TA.AperFunction,ComponentPad*
%ADD16C,2.000000*%
G04 #@! TD*
G04 #@! TA.AperFunction,ComponentPad*
%ADD17R,3.000000X3.000000*%
G04 #@! TD*
G04 #@! TA.AperFunction,ComponentPad*
%ADD18R,2.000000X1.905000*%
G04 #@! TD*
G04 #@! TA.AperFunction,ComponentPad*
%ADD19O,2.000000X1.905000*%
G04 #@! TD*
G04 #@! TA.AperFunction,ComponentPad*
%ADD20R,2.000000X3.200000*%
G04 #@! TD*
G04 #@! TA.AperFunction,ComponentPad*
%ADD21C,0.100000*%
G04 #@! TD*
G04 #@! TA.AperFunction,ComponentPad*
%ADD22C,6.400000*%
G04 #@! TD*
G04 #@! TA.AperFunction,ComponentPad*
%ADD23R,1.600000X1.600000*%
G04 #@! TD*
G04 #@! TA.AperFunction,ComponentPad*
%ADD24O,1.600000X1.600000*%
G04 #@! TD*
G04 #@! TA.AperFunction,ComponentPad*
%ADD25O,3.000000X2.200000*%
G04 #@! TD*
G04 #@! TA.AperFunction,ComponentPad*
%ADD26R,2.700000X2.700000*%
G04 #@! TD*
G04 #@! TA.AperFunction,ComponentPad*
%ADD27C,2.700000*%
G04 #@! TD*
G04 #@! TA.AperFunction,ComponentPad*
%ADD28R,1.730000X2.030000*%
G04 #@! TD*
G04 #@! TA.AperFunction,ComponentPad*
%ADD29O,1.730000X2.030000*%
G04 #@! TD*
G04 #@! TA.AperFunction,ViaPad*
%ADD30C,1.100000*%
G04 #@! TD*
G04 #@! TA.AperFunction,ViaPad*
%ADD31C,2.540000*%
G04 #@! TD*
G04 #@! TA.AperFunction,ViaPad*
%ADD32C,0.500000*%
G04 #@! TD*
G04 #@! TA.AperFunction,Conductor*
%ADD33C,2.000000*%
G04 #@! TD*
G04 #@! TA.AperFunction,Conductor*
%ADD34C,1.016000*%
G04 #@! TD*
G04 #@! TA.AperFunction,Conductor*
%ADD35C,0.508000*%
G04 #@! TD*
G04 #@! TA.AperFunction,Conductor*
%ADD36C,1.270000*%
G04 #@! TD*
G04 #@! TA.AperFunction,Conductor*
%ADD37C,0.203200*%
G04 #@! TD*
G04 #@! TA.AperFunction,Conductor*
%ADD38C,2.540000*%
G04 #@! TD*
G04 #@! TA.AperFunction,Conductor*
%ADD39C,0.254000*%
G04 #@! TD*
G04 #@! TA.AperFunction,Conductor*
%ADD40C,0.100000*%
G04 #@! TD*
G04 APERTURE END LIST*
D10*
X192908929Y-108024626D03*
D11*
X160600000Y-126501000D03*
D12*
X160600000Y-123961000D03*
X160600000Y-121421000D03*
X160600000Y-118881000D03*
X160600000Y-116341000D03*
X160600000Y-113801000D03*
X160600000Y-111261000D03*
X160600000Y-108721000D03*
X160600000Y-106181000D03*
D13*
X159600000Y-134500000D03*
X159600000Y-85500000D03*
X76300000Y-134500000D03*
D14*
X76300000Y-85500000D03*
D12*
X160600000Y-98561000D03*
X160600000Y-101101000D03*
X160600000Y-103641000D03*
X160600000Y-96021000D03*
X160600000Y-93481000D03*
X76300000Y-111261000D03*
D11*
X76300000Y-113801000D03*
D12*
X76300000Y-108721000D03*
X76300000Y-106181000D03*
D15*
X115000000Y-86000000D03*
D16*
X115000000Y-78400000D03*
D14*
X135000000Y-94200000D03*
X90000000Y-94200000D03*
X135000000Y-102200000D03*
D17*
X90000000Y-115000000D03*
D18*
X153416000Y-136144000D03*
D19*
X153416000Y-133604000D03*
X153416000Y-131064000D03*
D16*
X172500000Y-103000000D03*
X167500000Y-103000000D03*
D20*
X175600000Y-110000000D03*
X164400000Y-110000000D03*
D16*
X172500000Y-117500000D03*
X170000000Y-117500000D03*
D15*
X167500000Y-117500000D03*
X57500000Y-117500000D03*
D16*
X60000000Y-117500000D03*
X62500000Y-117500000D03*
D20*
X54400000Y-110000000D03*
X65600000Y-110000000D03*
D16*
X57500000Y-103000000D03*
X62500000Y-103000000D03*
D11*
X92000000Y-81000000D03*
D12*
X94540000Y-81000000D03*
X97080000Y-81000000D03*
X99620000Y-81000000D03*
G04 #@! TA.AperFunction,ComponentPad*
G36*
G01*
X178526622Y-83721852D02*
X178526622Y-83721852D01*
G75*
G02*
X178115486Y-82592264I359226J770362D01*
G01*
X178115486Y-82592264D01*
G75*
G02*
X179245074Y-82181128I770362J-359226D01*
G01*
X179245074Y-82181128D01*
G75*
G02*
X179656210Y-83310716I-359226J-770362D01*
G01*
X179656210Y-83310716D01*
G75*
G02*
X178526622Y-83721852I-770362J359226D01*
G01*
G37*
G04 #@! TD.AperFunction*
G04 #@! TA.AperFunction,ComponentPad*
G36*
G01*
X180828644Y-84795302D02*
X180828644Y-84795302D01*
G75*
G02*
X180417508Y-83665714I359226J770362D01*
G01*
X180417508Y-83665714D01*
G75*
G02*
X181547096Y-83254578I770362J-359226D01*
G01*
X181547096Y-83254578D01*
G75*
G02*
X181958232Y-84384166I-359226J-770362D01*
G01*
X181958232Y-84384166D01*
G75*
G02*
X180828644Y-84795302I-770362J359226D01*
G01*
G37*
G04 #@! TD.AperFunction*
G04 #@! TA.AperFunction,ComponentPad*
G36*
G01*
X183130666Y-85868752D02*
X183130666Y-85868752D01*
G75*
G02*
X182719530Y-84739164I359226J770362D01*
G01*
X182719530Y-84739164D01*
G75*
G02*
X183849118Y-84328028I770362J-359226D01*
G01*
X183849118Y-84328028D01*
G75*
G02*
X184260254Y-85457616I-359226J-770362D01*
G01*
X184260254Y-85457616D01*
G75*
G02*
X183130666Y-85868752I-770362J359226D01*
G01*
G37*
G04 #@! TD.AperFunction*
G04 #@! TA.AperFunction,ComponentPad*
G36*
G01*
X185432687Y-86942203D02*
X185432687Y-86942203D01*
G75*
G02*
X185021551Y-85812615I359226J770362D01*
G01*
X185021551Y-85812615D01*
G75*
G02*
X186151139Y-85401479I770362J-359226D01*
G01*
X186151139Y-85401479D01*
G75*
G02*
X186562275Y-86531067I-359226J-770362D01*
G01*
X186562275Y-86531067D01*
G75*
G02*
X185432687Y-86942203I-770362J359226D01*
G01*
G37*
G04 #@! TD.AperFunction*
G04 #@! TA.AperFunction,ComponentPad*
G36*
G01*
X187734709Y-88015653D02*
X187734709Y-88015653D01*
G75*
G02*
X187323573Y-86886065I359226J770362D01*
G01*
X187323573Y-86886065D01*
G75*
G02*
X188453161Y-86474929I770362J-359226D01*
G01*
X188453161Y-86474929D01*
G75*
G02*
X188864297Y-87604517I-359226J-770362D01*
G01*
X188864297Y-87604517D01*
G75*
G02*
X187734709Y-88015653I-770362J359226D01*
G01*
G37*
G04 #@! TD.AperFunction*
G04 #@! TA.AperFunction,ComponentPad*
G36*
G01*
X190036731Y-89089103D02*
X190036731Y-89089103D01*
G75*
G02*
X189625595Y-87959515I359226J770362D01*
G01*
X189625595Y-87959515D01*
G75*
G02*
X190755183Y-87548379I770362J-359226D01*
G01*
X190755183Y-87548379D01*
G75*
G02*
X191166319Y-88677967I-359226J-770362D01*
G01*
X191166319Y-88677967D01*
G75*
G02*
X190036731Y-89089103I-770362J359226D01*
G01*
G37*
G04 #@! TD.AperFunction*
G04 #@! TA.AperFunction,ComponentPad*
G36*
G01*
X192338753Y-90162554D02*
X192338753Y-90162554D01*
G75*
G02*
X191927617Y-89032966I359226J770362D01*
G01*
X191927617Y-89032966D01*
G75*
G02*
X193057205Y-88621830I770362J-359226D01*
G01*
X193057205Y-88621830D01*
G75*
G02*
X193468341Y-89751418I-359226J-770362D01*
G01*
X193468341Y-89751418D01*
G75*
G02*
X192338753Y-90162554I-770362J359226D01*
G01*
G37*
G04 #@! TD.AperFunction*
G04 #@! TA.AperFunction,ComponentPad*
G36*
G01*
X194640774Y-91236004D02*
X194640774Y-91236004D01*
G75*
G02*
X194229638Y-90106416I359226J770362D01*
G01*
X194229638Y-90106416D01*
G75*
G02*
X195359226Y-89695280I770362J-359226D01*
G01*
X195359226Y-89695280D01*
G75*
G02*
X195770362Y-90824868I-359226J-770362D01*
G01*
X195770362Y-90824868D01*
G75*
G02*
X194640774Y-91236004I-770362J359226D01*
G01*
G37*
G04 #@! TD.AperFunction*
G04 #@! TA.AperFunction,ComponentPad*
G36*
G01*
X196942796Y-92309455D02*
X196942796Y-92309455D01*
G75*
G02*
X196531660Y-91179867I359226J770362D01*
G01*
X196531660Y-91179867D01*
G75*
G02*
X197661248Y-90768731I770362J-359226D01*
G01*
X197661248Y-90768731D01*
G75*
G02*
X198072384Y-91898319I-359226J-770362D01*
G01*
X198072384Y-91898319D01*
G75*
G02*
X196942796Y-92309455I-770362J359226D01*
G01*
G37*
G04 #@! TD.AperFunction*
G04 #@! TA.AperFunction,ComponentPad*
D21*
G36*
X200015180Y-93742130D02*
G01*
X198474457Y-93023679D01*
X199192908Y-91482956D01*
X200733631Y-92201407D01*
X200015180Y-93742130D01*
G37*
G04 #@! TD.AperFunction*
D22*
X60000000Y-140000000D03*
X170000000Y-80000000D03*
X170000000Y-140000000D03*
X60000000Y-80000000D03*
D23*
X149000000Y-86000000D03*
D24*
X128680000Y-78380000D03*
X146460000Y-86000000D03*
X131220000Y-78380000D03*
X143920000Y-86000000D03*
X133760000Y-78380000D03*
X141380000Y-86000000D03*
X136300000Y-78380000D03*
X138840000Y-86000000D03*
X138840000Y-78380000D03*
X136300000Y-86000000D03*
X141380000Y-78380000D03*
X133760000Y-86000000D03*
X143920000Y-78380000D03*
X131220000Y-86000000D03*
X146460000Y-78380000D03*
X128680000Y-86000000D03*
X149000000Y-78380000D03*
D25*
X49000000Y-122880000D03*
X49000000Y-117800000D03*
X49000000Y-107640000D03*
X49000000Y-105100000D03*
X43000000Y-102100000D03*
X43000000Y-104640000D03*
X43000000Y-114800000D03*
X43000000Y-119880000D03*
X36000000Y-99100000D03*
X36000000Y-101640000D03*
X36000000Y-111800000D03*
X36000000Y-116880000D03*
X29000000Y-113880000D03*
X29000000Y-108800000D03*
X29000000Y-98640000D03*
X29000000Y-96100000D03*
G04 #@! TA.AperFunction,ComponentPad*
D21*
G36*
X166836703Y-97853240D02*
G01*
X167149269Y-99625894D01*
X165376615Y-99938460D01*
X165064049Y-98165806D01*
X166836703Y-97853240D01*
G37*
G04 #@! TD.AperFunction*
G04 #@! TA.AperFunction,ComponentPad*
G36*
X166395636Y-95351828D02*
G01*
X166708202Y-97124482D01*
X164935548Y-97437048D01*
X164622982Y-95664394D01*
X166395636Y-95351828D01*
G37*
G04 #@! TD.AperFunction*
G04 #@! TA.AperFunction,ComponentPad*
G36*
X165954570Y-92850416D02*
G01*
X166267136Y-94623070D01*
X164494482Y-94935636D01*
X164181916Y-93162982D01*
X165954570Y-92850416D01*
G37*
G04 #@! TD.AperFunction*
G04 #@! TA.AperFunction,ComponentPad*
G36*
X165513504Y-90349005D02*
G01*
X165826070Y-92121659D01*
X164053416Y-92434225D01*
X163740850Y-90661571D01*
X165513504Y-90349005D01*
G37*
G04 #@! TD.AperFunction*
D14*
X86000000Y-128000000D03*
X108300000Y-128000000D03*
X91000000Y-128000000D03*
X103000000Y-128000000D03*
D26*
X103000000Y-139000000D03*
D27*
X108000000Y-139000000D03*
X113000000Y-139000000D03*
X118000000Y-139000000D03*
G04 #@! TA.AperFunction,ComponentPad*
G36*
G01*
X85650000Y-140099999D02*
X85650000Y-137900001D01*
G75*
G02*
X85900001Y-137650000I250001J0D01*
G01*
X88099999Y-137650000D01*
G75*
G02*
X88350000Y-137900001I0J-250001D01*
G01*
X88350000Y-140099999D01*
G75*
G02*
X88099999Y-140350000I-250001J0D01*
G01*
X85900001Y-140350000D01*
G75*
G02*
X85650000Y-140099999I0J250001D01*
G01*
G37*
G04 #@! TD.AperFunction*
X90960000Y-139000000D03*
X94920000Y-139000000D03*
G04 #@! TA.AperFunction,ComponentPad*
G36*
G01*
X47311605Y-132426403D02*
X48241364Y-130432528D01*
G75*
G02*
X48573597Y-130311605I226578J-105655D01*
G01*
X50567472Y-131241364D01*
G75*
G02*
X50688395Y-131573597I-105655J-226578D01*
G01*
X49758636Y-133567472D01*
G75*
G02*
X49426403Y-133688395I-226578J105655D01*
G01*
X47432528Y-132758636D01*
G75*
G02*
X47311605Y-132426403I105655J226578D01*
G01*
G37*
G04 #@! TD.AperFunction*
X53531539Y-134113091D03*
G04 #@! TA.AperFunction,ComponentPad*
G36*
G01*
X37311605Y-127926403D02*
X38241364Y-125932528D01*
G75*
G02*
X38573597Y-125811605I226578J-105655D01*
G01*
X40567472Y-126741364D01*
G75*
G02*
X40688395Y-127073597I-105655J-226578D01*
G01*
X39758636Y-129067472D01*
G75*
G02*
X39426403Y-129188395I-226578J105655D01*
G01*
X37432528Y-128258636D01*
G75*
G02*
X37311605Y-127926403I105655J226578D01*
G01*
G37*
G04 #@! TD.AperFunction*
X43531539Y-129613091D03*
G04 #@! TA.AperFunction,ComponentPad*
G36*
G01*
X27311605Y-123426403D02*
X28241364Y-121432528D01*
G75*
G02*
X28573597Y-121311605I226578J-105655D01*
G01*
X30567472Y-122241364D01*
G75*
G02*
X30688395Y-122573597I-105655J-226578D01*
G01*
X29758636Y-124567472D01*
G75*
G02*
X29426403Y-124688395I-226578J105655D01*
G01*
X27432528Y-123758636D01*
G75*
G02*
X27311605Y-123426403I105655J226578D01*
G01*
G37*
G04 #@! TD.AperFunction*
X33531539Y-125113091D03*
D17*
X130040000Y-122500000D03*
X127500000Y-122500000D03*
X130040000Y-124900000D03*
X127500000Y-124900000D03*
X130040000Y-94100000D03*
X130040000Y-96500000D03*
X127500000Y-94100000D03*
X127500000Y-96500000D03*
X139960000Y-94100000D03*
X142500000Y-124900000D03*
X142500000Y-94100000D03*
X142500000Y-96500000D03*
X139960000Y-96500000D03*
X139960000Y-124900000D03*
X142500000Y-122500000D03*
X139960000Y-122500000D03*
D16*
X143000000Y-118000000D03*
D28*
X158500000Y-143500000D03*
D29*
X155960000Y-143500000D03*
X153420000Y-143500000D03*
X141920000Y-143500000D03*
X144460000Y-143500000D03*
D28*
X147000000Y-143500000D03*
D30*
X190000000Y-99600000D03*
X192000000Y-99000000D03*
X193800000Y-98200000D03*
X202629010Y-99970990D03*
D31*
X112100000Y-97300000D03*
D30*
X109000000Y-86000000D03*
X105790602Y-82678661D03*
D31*
X148919000Y-98881000D03*
D32*
X178015861Y-107397093D03*
X189750000Y-93500000D03*
X191293827Y-90434923D03*
X175354821Y-117929380D03*
X177404693Y-119828837D03*
X106691892Y-79335255D03*
X111000000Y-79999998D03*
X177357842Y-107448458D03*
X176195551Y-104395551D03*
X188731885Y-88868567D03*
X189114365Y-93635957D03*
X185943816Y-94260005D03*
X112000000Y-78250000D03*
X179000000Y-108500000D03*
X189998390Y-90198390D03*
X190452748Y-93439323D03*
X188393057Y-90198390D03*
D30*
X137924792Y-90545988D03*
D33*
X170000000Y-139520000D02*
X170000000Y-140000000D01*
D34*
X161731999Y-125092999D02*
X161876401Y-125092999D01*
X160600000Y-123961000D02*
X161731999Y-125092999D01*
X170000000Y-140000000D02*
X165908000Y-140000000D01*
X163933701Y-138025701D02*
X163933701Y-127150299D01*
X165908000Y-140000000D02*
X163933701Y-138025701D01*
X161876401Y-125092999D02*
X163933701Y-127150299D01*
D33*
X178529226Y-96810000D02*
X185044613Y-90294613D01*
X185044613Y-90294613D02*
X188093935Y-87245291D01*
D35*
X105790602Y-82790602D02*
X105790602Y-82678661D01*
X109000000Y-86000000D02*
X105790602Y-82790602D01*
D33*
X176443376Y-98895850D02*
X178529226Y-96810000D01*
X166106659Y-98895850D02*
X176443376Y-98895850D01*
D36*
X166106659Y-98895850D02*
X165192776Y-98895850D01*
X158545999Y-91945999D02*
X157654001Y-91945999D01*
D33*
X150800000Y-98800000D02*
X157654001Y-91945999D01*
X149000000Y-98800000D02*
X150800000Y-98800000D01*
X158910999Y-91580999D02*
X162330999Y-91580999D01*
X158545999Y-91945999D02*
X158910999Y-91580999D01*
X163000000Y-93007171D02*
X163000000Y-96703074D01*
X162330999Y-92338170D02*
X163000000Y-93007171D01*
X162330999Y-91580999D02*
X162330999Y-92338170D01*
X163648463Y-98148463D02*
X165250000Y-99750000D01*
X163648463Y-97351537D02*
X163648463Y-98148463D01*
D36*
X165192776Y-98895850D02*
X163648463Y-97351537D01*
X163648463Y-97351537D02*
X163000000Y-96703074D01*
X158545999Y-123001613D02*
X159064999Y-123520613D01*
X158545999Y-91945999D02*
X158545999Y-123001613D01*
X159064999Y-123520613D02*
X159064999Y-124965999D01*
X159064999Y-124965999D02*
X160600000Y-126501000D01*
D33*
X186789322Y-92039322D02*
X191124749Y-92039322D01*
X198677493Y-93539094D02*
X199604044Y-92612543D01*
X185044613Y-90294613D02*
X186789322Y-92039322D01*
X191124749Y-92039322D02*
X192624521Y-93539094D01*
X192624521Y-93539094D02*
X198677493Y-93539094D01*
D37*
X178015861Y-107397093D02*
X178015861Y-105484625D01*
X178015861Y-105484625D02*
X189750000Y-93750486D01*
X189750000Y-93750486D02*
X189750000Y-93500000D01*
X191655248Y-90434923D02*
X191293827Y-90434923D01*
X192697979Y-89392192D02*
X191655248Y-90434923D01*
X175354821Y-117929380D02*
X177254278Y-119828837D01*
X177254278Y-119828837D02*
X177404693Y-119828837D01*
X106691892Y-79335255D02*
X110335257Y-79335255D01*
X110335257Y-79335255D02*
X111000000Y-79999998D01*
D36*
X195000000Y-90465642D02*
X195000000Y-88250000D01*
X195000000Y-88250000D02*
X177000000Y-80000000D01*
D38*
X108300000Y-128000000D02*
X103000000Y-128000000D01*
X108040008Y-138959992D02*
X108000000Y-138959992D01*
X108300000Y-138700000D02*
X108040008Y-138959992D01*
X108300000Y-128000000D02*
X108300000Y-138700000D01*
D36*
X177000000Y-83485444D02*
X181514556Y-88000000D01*
X177000000Y-80000000D02*
X177000000Y-83485444D01*
X181514556Y-88000000D02*
X181514556Y-89514556D01*
X181514556Y-89514556D02*
X175250000Y-95779112D01*
X175250000Y-95779112D02*
X169470888Y-95779112D01*
X169470888Y-95779112D02*
X168191776Y-94500000D01*
X168191776Y-94500000D02*
X168000000Y-94500000D01*
X167393026Y-93893026D02*
X165224526Y-93893026D01*
X168000000Y-94500000D02*
X167393026Y-93893026D01*
D37*
X177357842Y-105392480D02*
X189114365Y-93635957D01*
X177357842Y-107448458D02*
X177357842Y-105392480D01*
X176195551Y-104395551D02*
X185943816Y-94647286D01*
X185943816Y-94647286D02*
X185943816Y-94260005D01*
X112000000Y-78999998D02*
X111000000Y-79999998D01*
X112000000Y-78250000D02*
X112000000Y-78999998D01*
D38*
X53120000Y-128000000D02*
X49000000Y-123880000D01*
X87080000Y-136080000D02*
X79000000Y-128000000D01*
X87080000Y-139000000D02*
X87080000Y-136080000D01*
X72000000Y-128000000D02*
X71000000Y-129000000D01*
X79000000Y-128000000D02*
X72000000Y-128000000D01*
X55000000Y-128000000D02*
X55111375Y-128111375D01*
X53120000Y-128000000D02*
X55000000Y-128000000D01*
X71000000Y-129000000D02*
X65000000Y-129000000D01*
X64111375Y-128111375D02*
X55111375Y-128111375D01*
X65000000Y-129000000D02*
X64111375Y-128111375D01*
X49000000Y-132000000D02*
X49000000Y-129500000D01*
X43000000Y-123500000D02*
X43000000Y-119880000D01*
X49000000Y-129500000D02*
X43000000Y-123500000D01*
D33*
X53619398Y-133913417D02*
X54006003Y-134300022D01*
D38*
X90000000Y-94200000D02*
X90000000Y-105000000D01*
X90000000Y-105000000D02*
X97000000Y-112000000D01*
X97000000Y-137000000D02*
X95000000Y-139000000D01*
X97000000Y-112000000D02*
X97000000Y-137000000D01*
X33531539Y-125113091D02*
X33531539Y-128131539D01*
X43531539Y-134031539D02*
X44302325Y-134802325D01*
X43531539Y-129613091D02*
X43531539Y-134031539D01*
X44302325Y-134802325D02*
X51000000Y-137900000D01*
X35000000Y-130500000D02*
X44302325Y-134802325D01*
X51000000Y-137900000D02*
X51600000Y-137900000D01*
X53531539Y-135968461D02*
X53531539Y-134113091D01*
X51600000Y-137900000D02*
X53531539Y-135968461D01*
X35000000Y-129600000D02*
X33531539Y-128131539D01*
X35000000Y-130500000D02*
X35000000Y-129600000D01*
X103000000Y-139000000D02*
X95000000Y-139000000D01*
X95000000Y-142000000D02*
X95000000Y-139000000D01*
X93500000Y-143500000D02*
X95000000Y-142000000D01*
X73000000Y-143500000D02*
X93500000Y-143500000D01*
X62500000Y-133000000D02*
X73000000Y-143500000D01*
X54644630Y-133000000D02*
X62500000Y-133000000D01*
X53531539Y-134113091D02*
X54644630Y-133000000D01*
D37*
X190395957Y-88318741D02*
X190395957Y-89800823D01*
X190395957Y-89800823D02*
X189998390Y-90198390D01*
X179000000Y-108500000D02*
X190452748Y-97047252D01*
X190452748Y-97047252D02*
X190452748Y-93439323D01*
X188731885Y-89859562D02*
X188393057Y-90198390D01*
X188731885Y-88868567D02*
X188731885Y-89859562D01*
D35*
X128680000Y-86000000D02*
X133225988Y-90545988D01*
X133225988Y-90545988D02*
X137924792Y-90545988D01*
D38*
X113000000Y-139000000D02*
X118000000Y-139000000D01*
X39000000Y-127500000D02*
X39000000Y-123000000D01*
X36000000Y-120000000D02*
X36000000Y-116880000D01*
X39000000Y-123000000D02*
X36000000Y-120000000D01*
X29000000Y-113880000D02*
X29000000Y-123000000D01*
X33000000Y-108800000D02*
X36000000Y-111800000D01*
X29000000Y-108800000D02*
X33000000Y-108800000D01*
X39500000Y-111800000D02*
X42500000Y-114800000D01*
X36000000Y-111800000D02*
X39500000Y-111800000D01*
X46000000Y-114800000D02*
X49000000Y-117800000D01*
X42500000Y-114800000D02*
X46000000Y-114800000D01*
X91000000Y-128000000D02*
X86000000Y-128000000D01*
X90000000Y-124000000D02*
X86000000Y-128000000D01*
X90000000Y-115000000D02*
X90000000Y-124000000D01*
X89000000Y-123000000D02*
X90000000Y-124000000D01*
X72000000Y-124000000D02*
X73000000Y-123000000D01*
X55000000Y-122500000D02*
X55000000Y-123000000D01*
X56000000Y-124000000D02*
X72000000Y-124000000D01*
X55000000Y-123000000D02*
X56000000Y-124000000D01*
X50300000Y-117800000D02*
X55000000Y-122500000D01*
X73000000Y-123000000D02*
X89000000Y-123000000D01*
X49000000Y-117800000D02*
X50300000Y-117800000D01*
D39*
X176720774Y-78757557D02*
X176653863Y-78777854D01*
X176555664Y-78803711D01*
X176534344Y-78814110D01*
X176511641Y-78820997D01*
X176422069Y-78868874D01*
X176330818Y-78913383D01*
X176311940Y-78927739D01*
X176291012Y-78938925D01*
X176212499Y-79003359D01*
X176131687Y-79064813D01*
X176115970Y-79082578D01*
X176097630Y-79097630D01*
X176033199Y-79176139D01*
X175965926Y-79252182D01*
X175953978Y-79272671D01*
X175938925Y-79291013D01*
X175891052Y-79380577D01*
X175839903Y-79468289D01*
X175832180Y-79490720D01*
X175820997Y-79511642D01*
X175791521Y-79608811D01*
X175758462Y-79704829D01*
X175755263Y-79728337D01*
X175748377Y-79751038D01*
X175738423Y-79852100D01*
X175724733Y-79952713D01*
X175730000Y-80038796D01*
X175730001Y-83423061D01*
X175723857Y-83485444D01*
X175748377Y-83734407D01*
X175811592Y-83942797D01*
X175820998Y-83973803D01*
X175938926Y-84194432D01*
X176097631Y-84387814D01*
X176146087Y-84427581D01*
X180244556Y-88526051D01*
X180244556Y-88988505D01*
X174723950Y-94509112D01*
X169996939Y-94509112D01*
X169133917Y-93646091D01*
X169094146Y-93597630D01*
X168900764Y-93438925D01*
X168680135Y-93320997D01*
X168589577Y-93293527D01*
X168335167Y-93039117D01*
X168295396Y-92990656D01*
X168102014Y-92831951D01*
X167881385Y-92714023D01*
X167641989Y-92641403D01*
X167455406Y-92623026D01*
X167455399Y-92623026D01*
X167393026Y-92616883D01*
X167330653Y-92623026D01*
X166550341Y-92623026D01*
X166549258Y-92619155D01*
X166492715Y-92507580D01*
X166415490Y-92409181D01*
X166400266Y-92396121D01*
X166410105Y-92378641D01*
X166449017Y-92259763D01*
X166463990Y-92135579D01*
X166454448Y-92010859D01*
X166141882Y-90238205D01*
X166108192Y-90117744D01*
X166051649Y-90006169D01*
X165974424Y-89907770D01*
X165879487Y-89826327D01*
X165770486Y-89764970D01*
X165651608Y-89726058D01*
X165527424Y-89711085D01*
X165402704Y-89720627D01*
X163630050Y-90033193D01*
X163509589Y-90066883D01*
X163398014Y-90123426D01*
X163299615Y-90200651D01*
X163269327Y-90235957D01*
X163243751Y-90214968D01*
X162959714Y-90063147D01*
X162651515Y-89969656D01*
X162411321Y-89945999D01*
X162330999Y-89938088D01*
X162250677Y-89945999D01*
X158991318Y-89945999D01*
X158910999Y-89938088D01*
X158830679Y-89945999D01*
X158830677Y-89945999D01*
X158590483Y-89969656D01*
X158282284Y-90063147D01*
X157998247Y-90214968D01*
X157865490Y-90323918D01*
X157654000Y-90303088D01*
X157333484Y-90334657D01*
X157025286Y-90428148D01*
X156741248Y-90579969D01*
X156554677Y-90733084D01*
X150122762Y-97165000D01*
X149754214Y-97165000D01*
X149474668Y-97049209D01*
X149106626Y-96976000D01*
X148731374Y-96976000D01*
X148363332Y-97049209D01*
X148016644Y-97192811D01*
X147704634Y-97401290D01*
X147439290Y-97666634D01*
X147230811Y-97978644D01*
X147087209Y-98325332D01*
X147014000Y-98693374D01*
X147014000Y-99068626D01*
X147087209Y-99436668D01*
X147230811Y-99783356D01*
X147439290Y-100095366D01*
X147704634Y-100360710D01*
X148016644Y-100569189D01*
X148363332Y-100712791D01*
X148731374Y-100786000D01*
X149106626Y-100786000D01*
X149474668Y-100712791D01*
X149821356Y-100569189D01*
X150022183Y-100435000D01*
X150719681Y-100435000D01*
X150800000Y-100442911D01*
X150880319Y-100435000D01*
X150880322Y-100435000D01*
X151120516Y-100411343D01*
X151428715Y-100317852D01*
X151712752Y-100166031D01*
X151961714Y-99961714D01*
X152012925Y-99899313D01*
X157275999Y-94636240D01*
X157276000Y-122939230D01*
X157269856Y-123001613D01*
X157294376Y-123250576D01*
X157339704Y-123400000D01*
X157366997Y-123489972D01*
X157484925Y-123710601D01*
X157643630Y-123903983D01*
X157692085Y-123943749D01*
X157794999Y-124046663D01*
X157794999Y-124903626D01*
X157788856Y-124965999D01*
X157794999Y-125028372D01*
X157794999Y-125028379D01*
X157813376Y-125214962D01*
X157885997Y-125454358D01*
X158003925Y-125674987D01*
X158162630Y-125868369D01*
X158211085Y-125908135D01*
X159211928Y-126908979D01*
X159211928Y-127251000D01*
X159224188Y-127375482D01*
X159260498Y-127495180D01*
X159319463Y-127605494D01*
X159398815Y-127702185D01*
X159495506Y-127781537D01*
X159605820Y-127840502D01*
X159725518Y-127876812D01*
X159850000Y-127889072D01*
X161350000Y-127889072D01*
X161474482Y-127876812D01*
X161594180Y-127840502D01*
X161704494Y-127781537D01*
X161801185Y-127702185D01*
X161880537Y-127605494D01*
X161939502Y-127495180D01*
X161975812Y-127375482D01*
X161988072Y-127251000D01*
X161988072Y-125751000D01*
X161975812Y-125626518D01*
X161939502Y-125506820D01*
X161880537Y-125396506D01*
X161801185Y-125299815D01*
X161704494Y-125220463D01*
X161594180Y-125161498D01*
X161474482Y-125125188D01*
X161350000Y-125112928D01*
X161323914Y-125112928D01*
X161377388Y-124917993D01*
X160600000Y-124140605D01*
X160585858Y-124154748D01*
X160406253Y-123975143D01*
X160420395Y-123961000D01*
X160779605Y-123961000D01*
X161556993Y-124738388D01*
X161795860Y-124672863D01*
X161911760Y-124425884D01*
X161977250Y-124161040D01*
X161989812Y-123888508D01*
X161948965Y-123618762D01*
X161856277Y-123362168D01*
X161795860Y-123249137D01*
X161556993Y-123183612D01*
X160779605Y-123961000D01*
X160420395Y-123961000D01*
X160406253Y-123946858D01*
X160585858Y-123767253D01*
X160600000Y-123781395D01*
X161377388Y-123004007D01*
X161311863Y-122765140D01*
X161153523Y-122690836D01*
X161256043Y-122648371D01*
X161482886Y-122496799D01*
X161675799Y-122303886D01*
X161827371Y-122077043D01*
X161931775Y-121824989D01*
X161985000Y-121557411D01*
X161985000Y-121284589D01*
X161931775Y-121017011D01*
X161827371Y-120764957D01*
X161675799Y-120538114D01*
X161482886Y-120345201D01*
X161256043Y-120193629D01*
X161153127Y-120151000D01*
X161256043Y-120108371D01*
X161482886Y-119956799D01*
X161675799Y-119763886D01*
X161827371Y-119537043D01*
X161931775Y-119284989D01*
X161985000Y-119017411D01*
X161985000Y-118744589D01*
X161931775Y-118477011D01*
X161827371Y-118224957D01*
X161675799Y-117998114D01*
X161482886Y-117805201D01*
X161256043Y-117653629D01*
X161153127Y-117611000D01*
X161256043Y-117568371D01*
X161482886Y-117416799D01*
X161675799Y-117223886D01*
X161827371Y-116997043D01*
X161931775Y-116744989D01*
X161980506Y-116500000D01*
X165861928Y-116500000D01*
X165861928Y-118500000D01*
X165874188Y-118624482D01*
X165910498Y-118744180D01*
X165969463Y-118854494D01*
X166048815Y-118951185D01*
X166145506Y-119030537D01*
X166255820Y-119089502D01*
X166375518Y-119125812D01*
X166500000Y-119138072D01*
X168500000Y-119138072D01*
X168624482Y-119125812D01*
X168744180Y-119089502D01*
X168854494Y-119030537D01*
X168951185Y-118951185D01*
X169030537Y-118854494D01*
X169085976Y-118750777D01*
X169139956Y-118899814D01*
X169429571Y-119040704D01*
X169741108Y-119122384D01*
X170062595Y-119141718D01*
X170381675Y-119097961D01*
X170686088Y-118992795D01*
X170860044Y-118899814D01*
X170955808Y-118635413D01*
X170000000Y-117679605D01*
X169985858Y-117693748D01*
X169806253Y-117514143D01*
X169820395Y-117500000D01*
X170179605Y-117500000D01*
X171135413Y-118455808D01*
X171165075Y-118445065D01*
X171230013Y-118542252D01*
X171457748Y-118769987D01*
X171725537Y-118948918D01*
X172023088Y-119072168D01*
X172338967Y-119135000D01*
X172661033Y-119135000D01*
X172976912Y-119072168D01*
X173274463Y-118948918D01*
X173542252Y-118769987D01*
X173769987Y-118542252D01*
X173948918Y-118274463D01*
X174072168Y-117976912D01*
X174098960Y-117842215D01*
X174469821Y-117842215D01*
X174469821Y-118016545D01*
X174503831Y-118187525D01*
X174570544Y-118348585D01*
X174667397Y-118493535D01*
X174790666Y-118616804D01*
X174935616Y-118713657D01*
X175096676Y-118780370D01*
X175180844Y-118797112D01*
X176612385Y-120228654D01*
X176620416Y-120248042D01*
X176717269Y-120392992D01*
X176840538Y-120516261D01*
X176985488Y-120613114D01*
X177146548Y-120679827D01*
X177317528Y-120713837D01*
X177491858Y-120713837D01*
X177662838Y-120679827D01*
X177823898Y-120613114D01*
X177968848Y-120516261D01*
X178092117Y-120392992D01*
X178188970Y-120248042D01*
X178255683Y-120086982D01*
X178289693Y-119916002D01*
X178289693Y-119741672D01*
X178255683Y-119570692D01*
X178188970Y-119409632D01*
X178092117Y-119264682D01*
X177968848Y-119141413D01*
X177823898Y-119044560D01*
X177662838Y-118977847D01*
X177491858Y-118943837D01*
X177410988Y-118943837D01*
X176222553Y-117755403D01*
X176205811Y-117671235D01*
X176139098Y-117510175D01*
X176042245Y-117365225D01*
X175918976Y-117241956D01*
X175774026Y-117145103D01*
X175612966Y-117078390D01*
X175441986Y-117044380D01*
X175267656Y-117044380D01*
X175096676Y-117078390D01*
X174935616Y-117145103D01*
X174790666Y-117241956D01*
X174667397Y-117365225D01*
X174570544Y-117510175D01*
X174503831Y-117671235D01*
X174469821Y-117842215D01*
X174098960Y-117842215D01*
X174135000Y-117661033D01*
X174135000Y-117338967D01*
X174072168Y-117023088D01*
X173948918Y-116725537D01*
X173769987Y-116457748D01*
X173542252Y-116230013D01*
X173274463Y-116051082D01*
X172976912Y-115927832D01*
X172661033Y-115865000D01*
X172338967Y-115865000D01*
X172023088Y-115927832D01*
X171725537Y-116051082D01*
X171457748Y-116230013D01*
X171230013Y-116457748D01*
X171165075Y-116554935D01*
X171135413Y-116544192D01*
X170179605Y-117500000D01*
X169820395Y-117500000D01*
X169806253Y-117485858D01*
X169985858Y-117306253D01*
X170000000Y-117320395D01*
X170955808Y-116364587D01*
X170860044Y-116100186D01*
X170570429Y-115959296D01*
X170258892Y-115877616D01*
X169937405Y-115858282D01*
X169618325Y-115902039D01*
X169313912Y-116007205D01*
X169139956Y-116100186D01*
X169085976Y-116249223D01*
X169030537Y-116145506D01*
X168951185Y-116048815D01*
X168854494Y-115969463D01*
X168744180Y-115910498D01*
X168624482Y-115874188D01*
X168500000Y-115861928D01*
X166500000Y-115861928D01*
X166375518Y-115874188D01*
X166255820Y-115910498D01*
X166145506Y-115969463D01*
X166048815Y-116048815D01*
X165969463Y-116145506D01*
X165910498Y-116255820D01*
X165874188Y-116375518D01*
X165861928Y-116500000D01*
X161980506Y-116500000D01*
X161985000Y-116477411D01*
X161985000Y-116204589D01*
X161931775Y-115937011D01*
X161827371Y-115684957D01*
X161675799Y-115458114D01*
X161482886Y-115265201D01*
X161256043Y-115113629D01*
X161153127Y-115071000D01*
X161256043Y-115028371D01*
X161482886Y-114876799D01*
X161675799Y-114683886D01*
X161827371Y-114457043D01*
X161931775Y-114204989D01*
X161985000Y-113937411D01*
X161985000Y-113664589D01*
X161931775Y-113397011D01*
X161827371Y-113144957D01*
X161675799Y-112918114D01*
X161482886Y-112725201D01*
X161256043Y-112573629D01*
X161153127Y-112531000D01*
X161256043Y-112488371D01*
X161482886Y-112336799D01*
X161675799Y-112143886D01*
X161827371Y-111917043D01*
X161931775Y-111664989D01*
X161985000Y-111397411D01*
X161985000Y-111124589D01*
X161931775Y-110857011D01*
X161827371Y-110604957D01*
X161675799Y-110378114D01*
X161482886Y-110185201D01*
X161256043Y-110033629D01*
X161153127Y-109991000D01*
X161256043Y-109948371D01*
X161482886Y-109796799D01*
X161675799Y-109603886D01*
X161827371Y-109377043D01*
X161931775Y-109124989D01*
X161985000Y-108857411D01*
X161985000Y-108584589D01*
X161948283Y-108400000D01*
X162761928Y-108400000D01*
X162761928Y-111600000D01*
X162774188Y-111724482D01*
X162810498Y-111844180D01*
X162869463Y-111954494D01*
X162948815Y-112051185D01*
X163045506Y-112130537D01*
X163155820Y-112189502D01*
X163275518Y-112225812D01*
X163400000Y-112238072D01*
X165400000Y-112238072D01*
X165524482Y-112225812D01*
X165644180Y-112189502D01*
X165754494Y-112130537D01*
X165851185Y-112051185D01*
X165930537Y-111954494D01*
X165989502Y-111844180D01*
X166025812Y-111724482D01*
X166038072Y-111600000D01*
X166038072Y-108400000D01*
X166025812Y-108275518D01*
X165989502Y-108155820D01*
X165930537Y-108045506D01*
X165851185Y-107948815D01*
X165754494Y-107869463D01*
X165644180Y-107810498D01*
X165524482Y-107774188D01*
X165400000Y-107761928D01*
X163400000Y-107761928D01*
X163275518Y-107774188D01*
X163155820Y-107810498D01*
X163045506Y-107869463D01*
X162948815Y-107948815D01*
X162869463Y-108045506D01*
X162810498Y-108155820D01*
X162774188Y-108275518D01*
X162761928Y-108400000D01*
X161948283Y-108400000D01*
X161931775Y-108317011D01*
X161827371Y-108064957D01*
X161675799Y-107838114D01*
X161482886Y-107645201D01*
X161256043Y-107493629D01*
X161153127Y-107451000D01*
X161256043Y-107408371D01*
X161482886Y-107256799D01*
X161675799Y-107063886D01*
X161827371Y-106837043D01*
X161931775Y-106584989D01*
X161985000Y-106317411D01*
X161985000Y-106044589D01*
X161931775Y-105777011D01*
X161827371Y-105524957D01*
X161675799Y-105298114D01*
X161482886Y-105105201D01*
X161256043Y-104953629D01*
X161153127Y-104911000D01*
X161256043Y-104868371D01*
X161482886Y-104716799D01*
X161675799Y-104523886D01*
X161827371Y-104297043D01*
X161931775Y-104044989D01*
X161985000Y-103777411D01*
X161985000Y-103504589D01*
X161931775Y-103237011D01*
X161827371Y-102984957D01*
X161729824Y-102838967D01*
X165865000Y-102838967D01*
X165865000Y-103161033D01*
X165927832Y-103476912D01*
X166051082Y-103774463D01*
X166230013Y-104042252D01*
X166457748Y-104269987D01*
X166725537Y-104448918D01*
X167023088Y-104572168D01*
X167338967Y-104635000D01*
X167661033Y-104635000D01*
X167976912Y-104572168D01*
X168274463Y-104448918D01*
X168542252Y-104269987D01*
X168676826Y-104135413D01*
X171544192Y-104135413D01*
X171639956Y-104399814D01*
X171929571Y-104540704D01*
X172241108Y-104622384D01*
X172562595Y-104641718D01*
X172881675Y-104597961D01*
X173186088Y-104492795D01*
X173360044Y-104399814D01*
X173455808Y-104135413D01*
X172500000Y-103179605D01*
X171544192Y-104135413D01*
X168676826Y-104135413D01*
X168769987Y-104042252D01*
X168948918Y-103774463D01*
X169072168Y-103476912D01*
X169135000Y-103161033D01*
X169135000Y-103062595D01*
X170858282Y-103062595D01*
X170902039Y-103381675D01*
X171007205Y-103686088D01*
X171100186Y-103860044D01*
X171364587Y-103955808D01*
X172320395Y-103000000D01*
X172679605Y-103000000D01*
X173635413Y-103955808D01*
X173899814Y-103860044D01*
X174040704Y-103570429D01*
X174122384Y-103258892D01*
X174141718Y-102937405D01*
X174097961Y-102618325D01*
X173992795Y-102313912D01*
X173899814Y-102139956D01*
X173635413Y-102044192D01*
X172679605Y-103000000D01*
X172320395Y-103000000D01*
X171364587Y-102044192D01*
X171100186Y-102139956D01*
X170959296Y-102429571D01*
X170877616Y-102741108D01*
X170858282Y-103062595D01*
X169135000Y-103062595D01*
X169135000Y-102838967D01*
X169072168Y-102523088D01*
X168948918Y-102225537D01*
X168769987Y-101957748D01*
X168676826Y-101864587D01*
X171544192Y-101864587D01*
X172500000Y-102820395D01*
X173455808Y-101864587D01*
X173360044Y-101600186D01*
X173070429Y-101459296D01*
X172758892Y-101377616D01*
X172437405Y-101358282D01*
X172118325Y-101402039D01*
X171813912Y-101507205D01*
X171639956Y-101600186D01*
X171544192Y-101864587D01*
X168676826Y-101864587D01*
X168542252Y-101730013D01*
X168274463Y-101551082D01*
X167976912Y-101427832D01*
X167661033Y-101365000D01*
X167338967Y-101365000D01*
X167023088Y-101427832D01*
X166725537Y-101551082D01*
X166457748Y-101730013D01*
X166230013Y-101957748D01*
X166051082Y-102225537D01*
X165927832Y-102523088D01*
X165865000Y-102838967D01*
X161729824Y-102838967D01*
X161675799Y-102758114D01*
X161482886Y-102565201D01*
X161256043Y-102413629D01*
X161153127Y-102371000D01*
X161256043Y-102328371D01*
X161482886Y-102176799D01*
X161675799Y-101983886D01*
X161827371Y-101757043D01*
X161931775Y-101504989D01*
X161985000Y-101237411D01*
X161985000Y-100964589D01*
X161931775Y-100697011D01*
X161827371Y-100444957D01*
X161675799Y-100218114D01*
X161482886Y-100025201D01*
X161256043Y-99873629D01*
X161153127Y-99831000D01*
X161256043Y-99788371D01*
X161482886Y-99636799D01*
X161675799Y-99443886D01*
X161827371Y-99217043D01*
X161931775Y-98964989D01*
X161985000Y-98697411D01*
X161985000Y-98424589D01*
X161931775Y-98157011D01*
X161827371Y-97904957D01*
X161675799Y-97678114D01*
X161482886Y-97485201D01*
X161256043Y-97333629D01*
X161153127Y-97291000D01*
X161256043Y-97248371D01*
X161423003Y-97136811D01*
X161482149Y-97331789D01*
X161633970Y-97615826D01*
X161838287Y-97864788D01*
X162013463Y-98008551D01*
X162013463Y-98068144D01*
X162005552Y-98148463D01*
X162013463Y-98228782D01*
X162013463Y-98228785D01*
X162037120Y-98468979D01*
X162130611Y-98777178D01*
X162282432Y-99061215D01*
X162486750Y-99310177D01*
X162549145Y-99361383D01*
X164150676Y-100962915D01*
X164337247Y-101116030D01*
X164621284Y-101267851D01*
X164929483Y-101361342D01*
X165249999Y-101392911D01*
X165570516Y-101361342D01*
X165878714Y-101267851D01*
X166162752Y-101116030D01*
X166411713Y-100911713D01*
X166616030Y-100662752D01*
X166686533Y-100530850D01*
X176363057Y-100530850D01*
X176443376Y-100538761D01*
X176523695Y-100530850D01*
X176523698Y-100530850D01*
X176763892Y-100507193D01*
X177072091Y-100413702D01*
X177356128Y-100261881D01*
X177605090Y-100057564D01*
X177656301Y-99995163D01*
X179742141Y-97909324D01*
X179742145Y-97909319D01*
X185044613Y-92606852D01*
X185576401Y-93138640D01*
X185627608Y-93201036D01*
X185842919Y-93377736D01*
X185685671Y-93409015D01*
X185524611Y-93475728D01*
X185379661Y-93572581D01*
X185256392Y-93695850D01*
X185159539Y-93840800D01*
X185092826Y-94001860D01*
X185058816Y-94172840D01*
X185058816Y-94347170D01*
X185082609Y-94466783D01*
X176021574Y-103527819D01*
X175937406Y-103544561D01*
X175776346Y-103611274D01*
X175631396Y-103708127D01*
X175508127Y-103831396D01*
X175411274Y-103976346D01*
X175344561Y-104137406D01*
X175310551Y-104308386D01*
X175310551Y-104482716D01*
X175344561Y-104653696D01*
X175411274Y-104814756D01*
X175508127Y-104959706D01*
X175631396Y-105082975D01*
X175776346Y-105179828D01*
X175937406Y-105246541D01*
X176108386Y-105280551D01*
X176282716Y-105280551D01*
X176453696Y-105246541D01*
X176614756Y-105179828D01*
X176662227Y-105148108D01*
X176631901Y-105248082D01*
X176617678Y-105392480D01*
X176621243Y-105428673D01*
X176621242Y-106957899D01*
X176573565Y-107029253D01*
X176506852Y-107190313D01*
X176472842Y-107361293D01*
X176472842Y-107535623D01*
X176506852Y-107706603D01*
X176529768Y-107761928D01*
X174600000Y-107761928D01*
X174475518Y-107774188D01*
X174355820Y-107810498D01*
X174245506Y-107869463D01*
X174148815Y-107948815D01*
X174069463Y-108045506D01*
X174010498Y-108155820D01*
X173974188Y-108275518D01*
X173961928Y-108400000D01*
X173961928Y-111600000D01*
X173974188Y-111724482D01*
X174010498Y-111844180D01*
X174069463Y-111954494D01*
X174148815Y-112051185D01*
X174245506Y-112130537D01*
X174355820Y-112189502D01*
X174475518Y-112225812D01*
X174600000Y-112238072D01*
X176600000Y-112238072D01*
X176724482Y-112225812D01*
X176844180Y-112189502D01*
X176954494Y-112130537D01*
X177051185Y-112051185D01*
X177130537Y-111954494D01*
X177189502Y-111844180D01*
X177225812Y-111724482D01*
X177238072Y-111600000D01*
X177238072Y-110834446D01*
X191882527Y-110834446D01*
X192297626Y-111114913D01*
X192912256Y-111174794D01*
X193526760Y-111113615D01*
X194117520Y-110933728D01*
X194661836Y-110642047D01*
X195037653Y-110332958D01*
X195046196Y-110341501D01*
X195133888Y-110253809D01*
X195138788Y-110249779D01*
X195142770Y-110244927D01*
X195225804Y-110161893D01*
X195217626Y-110153715D01*
X195526349Y-109777532D01*
X195621547Y-109285693D01*
X193450204Y-108386293D01*
X193102678Y-108038767D01*
X192923070Y-108218375D01*
X192953525Y-108248830D01*
X191882527Y-110834446D01*
X177238072Y-110834446D01*
X177238072Y-108400000D01*
X177230736Y-108325513D01*
X177270677Y-108333458D01*
X177445007Y-108333458D01*
X177615987Y-108299448D01*
X177748855Y-108244413D01*
X177757716Y-108248083D01*
X177928696Y-108282093D01*
X178103026Y-108282093D01*
X178142571Y-108274227D01*
X178115000Y-108412835D01*
X178115000Y-108587165D01*
X178149010Y-108758145D01*
X178215723Y-108919205D01*
X178312576Y-109064155D01*
X178435845Y-109187424D01*
X178580795Y-109284277D01*
X178741855Y-109350990D01*
X178912835Y-109385000D01*
X179087165Y-109385000D01*
X179258145Y-109350990D01*
X179419205Y-109284277D01*
X179564155Y-109187424D01*
X179687424Y-109064155D01*
X179784277Y-108919205D01*
X179850990Y-108758145D01*
X179867732Y-108673977D01*
X180513756Y-108027953D01*
X189758761Y-108027953D01*
X189819940Y-108642457D01*
X189999827Y-109233217D01*
X190291508Y-109777533D01*
X190600597Y-110153350D01*
X190592054Y-110161893D01*
X190679746Y-110249585D01*
X190683776Y-110254485D01*
X190688628Y-110258467D01*
X190771662Y-110341501D01*
X190779840Y-110333323D01*
X191156023Y-110642046D01*
X191647862Y-110737244D01*
X192547262Y-108565901D01*
X192894788Y-108218375D01*
X192715180Y-108038767D01*
X192684725Y-108069222D01*
X190099109Y-106998224D01*
X189818642Y-107413323D01*
X189758761Y-108027953D01*
X180513756Y-108027953D01*
X181778150Y-106763559D01*
X190196311Y-106763559D01*
X192367654Y-107662959D01*
X192715180Y-108010485D01*
X192894788Y-107830877D01*
X192923070Y-107830877D01*
X193102678Y-108010485D01*
X193133133Y-107980030D01*
X195718749Y-109051028D01*
X195999216Y-108635929D01*
X196059097Y-108021299D01*
X195997918Y-107406795D01*
X195818031Y-106816035D01*
X195526350Y-106271719D01*
X195217261Y-105895902D01*
X195225804Y-105887359D01*
X195138112Y-105799667D01*
X195134082Y-105794767D01*
X195129230Y-105790785D01*
X195046196Y-105707751D01*
X195038018Y-105715929D01*
X194661835Y-105407206D01*
X194169996Y-105312008D01*
X193270596Y-107483351D01*
X192923070Y-107830877D01*
X192894788Y-107830877D01*
X192864333Y-107800422D01*
X193935331Y-105214806D01*
X193520232Y-104934339D01*
X192905602Y-104874458D01*
X192291098Y-104935637D01*
X191700338Y-105115524D01*
X191156022Y-105407205D01*
X190780205Y-105716294D01*
X190771662Y-105707751D01*
X190683970Y-105795443D01*
X190679070Y-105799473D01*
X190675088Y-105804325D01*
X190592054Y-105887359D01*
X190600232Y-105895537D01*
X190291509Y-106271720D01*
X190196311Y-106763559D01*
X181778150Y-106763559D01*
X190948022Y-97593688D01*
X190976122Y-97570627D01*
X190999185Y-97542525D01*
X190999190Y-97542520D01*
X191068172Y-97458465D01*
X191096215Y-97406000D01*
X191136570Y-97330501D01*
X191178690Y-97191651D01*
X191189348Y-97083438D01*
X191189348Y-97083437D01*
X191192912Y-97047252D01*
X191189348Y-97011066D01*
X191189348Y-94416160D01*
X191411600Y-94638412D01*
X191462807Y-94700808D01*
X191711769Y-94905125D01*
X191995806Y-95056946D01*
X192304005Y-95150437D01*
X192544199Y-95174094D01*
X192544201Y-95174094D01*
X192624521Y-95182005D01*
X192704840Y-95174094D01*
X198597174Y-95174094D01*
X198677493Y-95182005D01*
X198757812Y-95174094D01*
X198757815Y-95174094D01*
X198998009Y-95150437D01*
X199306208Y-95056946D01*
X199590245Y-94905125D01*
X199839207Y-94700808D01*
X199890418Y-94638407D01*
X200171144Y-94357681D01*
X200233413Y-94341722D01*
X200346195Y-94287625D01*
X200446255Y-94212566D01*
X200529750Y-94119428D01*
X200593470Y-94011791D01*
X200660255Y-93868570D01*
X200816959Y-93711866D01*
X200970074Y-93525296D01*
X201121896Y-93241258D01*
X201215386Y-92933060D01*
X201246955Y-92612543D01*
X201246780Y-92610764D01*
X201311921Y-92471068D01*
X201353417Y-92353068D01*
X201371096Y-92229239D01*
X201364277Y-92104341D01*
X201333223Y-91983174D01*
X201279126Y-91870392D01*
X201204067Y-91770332D01*
X201110929Y-91686837D01*
X201003292Y-91623117D01*
X200847548Y-91550492D01*
X200765757Y-91450830D01*
X200516796Y-91246513D01*
X200232758Y-91094691D01*
X199924560Y-91001201D01*
X199604044Y-90969632D01*
X199602265Y-90969807D01*
X199462569Y-90904666D01*
X199344569Y-90863170D01*
X199220740Y-90845491D01*
X199095842Y-90852310D01*
X198974675Y-90883364D01*
X198861893Y-90937461D01*
X198761833Y-91012520D01*
X198705578Y-91075272D01*
X198672434Y-90967072D01*
X198534506Y-90710709D01*
X198349215Y-90486181D01*
X198234668Y-90383500D01*
X197975045Y-90396299D01*
X197470796Y-91477664D01*
X197488922Y-91486116D01*
X197381577Y-91716319D01*
X197363451Y-91707867D01*
X197354999Y-91725993D01*
X197124796Y-91618648D01*
X197133248Y-91600522D01*
X197115122Y-91592070D01*
X197222467Y-91361867D01*
X197240593Y-91370319D01*
X197744843Y-90288954D01*
X197587764Y-90081844D01*
X197435477Y-90060098D01*
X197144375Y-90062480D01*
X196859331Y-90121609D01*
X196591300Y-90235210D01*
X196482919Y-90308918D01*
X196427932Y-90032484D01*
X196315990Y-89762231D01*
X196270000Y-89693402D01*
X196270000Y-88335995D01*
X196275267Y-88297287D01*
X196270000Y-88211209D01*
X196270000Y-88187620D01*
X196266189Y-88148926D01*
X196259988Y-88047585D01*
X196253948Y-88024647D01*
X196251623Y-88001037D01*
X196222145Y-87903859D01*
X196196289Y-87805663D01*
X196185889Y-87784342D01*
X196179003Y-87761641D01*
X196162426Y-87730627D01*
X204265000Y-91470277D01*
X204265001Y-111164267D01*
X165951796Y-126882504D01*
X165929800Y-126894165D01*
X165910502Y-126909894D01*
X165894643Y-126929086D01*
X165882832Y-126951003D01*
X165875525Y-126974802D01*
X165873000Y-127000000D01*
X165873000Y-146249108D01*
X165838568Y-146265000D01*
X125127000Y-146265000D01*
X125127000Y-143276320D01*
X140420000Y-143276320D01*
X140420000Y-143723679D01*
X140441705Y-143944050D01*
X140527476Y-144226801D01*
X140666762Y-144487386D01*
X140854208Y-144715792D01*
X141082613Y-144903238D01*
X141343198Y-145042524D01*
X141625949Y-145128295D01*
X141920000Y-145157257D01*
X142214050Y-145128295D01*
X142496801Y-145042524D01*
X142757386Y-144903238D01*
X142985792Y-144715792D01*
X143173238Y-144487387D01*
X143190000Y-144456027D01*
X143206762Y-144487386D01*
X143394208Y-144715792D01*
X143622613Y-144903238D01*
X143883198Y-145042524D01*
X144165949Y-145128295D01*
X144460000Y-145157257D01*
X144754050Y-145128295D01*
X145036801Y-145042524D01*
X145297386Y-144903238D01*
X145525792Y-144715792D01*
X145530570Y-144709970D01*
X145545498Y-144759180D01*
X145604463Y-144869494D01*
X145683815Y-144966185D01*
X145780506Y-145045537D01*
X145890820Y-145104502D01*
X146010518Y-145140812D01*
X146135000Y-145153072D01*
X147865000Y-145153072D01*
X147989482Y-145140812D01*
X148109180Y-145104502D01*
X148219494Y-145045537D01*
X148316185Y-144966185D01*
X148395537Y-144869494D01*
X148454502Y-144759180D01*
X148490812Y-144639482D01*
X148503072Y-144515000D01*
X148503072Y-143276320D01*
X151920000Y-143276320D01*
X151920000Y-143723679D01*
X151941705Y-143944050D01*
X152027476Y-144226801D01*
X152166762Y-144487386D01*
X152354208Y-144715792D01*
X152582613Y-144903238D01*
X152843198Y-145042524D01*
X153125949Y-145128295D01*
X153420000Y-145157257D01*
X153714050Y-145128295D01*
X153996801Y-145042524D01*
X154257386Y-144903238D01*
X154485792Y-144715792D01*
X154673238Y-144487387D01*
X154690000Y-144456027D01*
X154706762Y-144487386D01*
X154894208Y-144715792D01*
X155122613Y-144903238D01*
X155383198Y-145042524D01*
X155665949Y-145128295D01*
X155960000Y-145157257D01*
X156254050Y-145128295D01*
X156536801Y-145042524D01*
X156797386Y-144903238D01*
X157025792Y-144715792D01*
X157030570Y-144709970D01*
X157045498Y-144759180D01*
X157104463Y-144869494D01*
X157183815Y-144966185D01*
X157280506Y-145045537D01*
X157390820Y-145104502D01*
X157510518Y-145140812D01*
X157635000Y-145153072D01*
X159365000Y-145153072D01*
X159489482Y-145140812D01*
X159609180Y-145104502D01*
X159719494Y-145045537D01*
X159816185Y-144966185D01*
X159895537Y-144869494D01*
X159954502Y-144759180D01*
X159990812Y-144639482D01*
X160003072Y-144515000D01*
X160003072Y-142485000D01*
X159990812Y-142360518D01*
X159954502Y-142240820D01*
X159895537Y-142130506D01*
X159816185Y-142033815D01*
X159719494Y-141954463D01*
X159609180Y-141895498D01*
X159489482Y-141859188D01*
X159365000Y-141846928D01*
X157635000Y-141846928D01*
X157510518Y-141859188D01*
X157390820Y-141895498D01*
X157280506Y-141954463D01*
X157183815Y-142033815D01*
X157104463Y-142130506D01*
X157045498Y-142240820D01*
X157030570Y-142290030D01*
X157025792Y-142284208D01*
X156797387Y-142096762D01*
X156536802Y-141957476D01*
X156254051Y-141871705D01*
X155960000Y-141842743D01*
X155665950Y-141871705D01*
X155383199Y-141957476D01*
X155122614Y-142096762D01*
X154894208Y-142284208D01*
X154706762Y-142512613D01*
X154690000Y-142543972D01*
X154673238Y-142512613D01*
X154485792Y-142284208D01*
X154257387Y-142096762D01*
X153996802Y-141957476D01*
X153714051Y-141871705D01*
X153420000Y-141842743D01*
X153125950Y-141871705D01*
X152843199Y-141957476D01*
X152582614Y-142096762D01*
X152354208Y-142284208D01*
X152166762Y-142512613D01*
X152027476Y-142773198D01*
X151941705Y-143055949D01*
X151920000Y-143276320D01*
X148503072Y-143276320D01*
X148503072Y-142485000D01*
X148490812Y-142360518D01*
X148454502Y-142240820D01*
X148395537Y-142130506D01*
X148316185Y-142033815D01*
X148219494Y-141954463D01*
X148109180Y-141895498D01*
X147989482Y-141859188D01*
X147865000Y-141846928D01*
X146135000Y-141846928D01*
X146010518Y-141859188D01*
X145890820Y-141895498D01*
X145780506Y-141954463D01*
X145683815Y-142033815D01*
X145604463Y-142130506D01*
X145545498Y-142240820D01*
X145530570Y-142290030D01*
X145525792Y-142284208D01*
X145297387Y-142096762D01*
X145036802Y-141957476D01*
X144754051Y-141871705D01*
X144460000Y-141842743D01*
X144165950Y-141871705D01*
X143883199Y-141957476D01*
X143622614Y-142096762D01*
X143394208Y-142284208D01*
X143206762Y-142512613D01*
X143190000Y-142543972D01*
X143173238Y-142512613D01*
X142985792Y-142284208D01*
X142757387Y-142096762D01*
X142496802Y-141957476D01*
X142214051Y-141871705D01*
X141920000Y-141842743D01*
X141625950Y-141871705D01*
X141343199Y-141957476D01*
X141082614Y-142096762D01*
X140854208Y-142284208D01*
X140666762Y-142512613D01*
X140527476Y-142773198D01*
X140441705Y-143055949D01*
X140420000Y-143276320D01*
X125127000Y-143276320D01*
X125127000Y-134000000D01*
X125124560Y-133975224D01*
X125117333Y-133951399D01*
X125105597Y-133929443D01*
X125089803Y-133910197D01*
X125070557Y-133894403D01*
X125048601Y-133882667D01*
X125024776Y-133875440D01*
X125000000Y-133873000D01*
X113127000Y-133873000D01*
X113127000Y-133604000D01*
X151773319Y-133604000D01*
X151803970Y-133915204D01*
X151894745Y-134214449D01*
X152042155Y-134490235D01*
X152145446Y-134616095D01*
X152061506Y-134660963D01*
X151964815Y-134740315D01*
X151885463Y-134837006D01*
X151826498Y-134947320D01*
X151790188Y-135067018D01*
X151777928Y-135191500D01*
X151777928Y-137096500D01*
X151790188Y-137220982D01*
X151826498Y-137340680D01*
X151885463Y-137450994D01*
X151964815Y-137547685D01*
X152061506Y-137627037D01*
X152171820Y-137686002D01*
X152291518Y-137722312D01*
X152416000Y-137734572D01*
X154416000Y-137734572D01*
X154540482Y-137722312D01*
X154660180Y-137686002D01*
X154770494Y-137627037D01*
X154867185Y-137547685D01*
X154946537Y-137450994D01*
X155005502Y-137340680D01*
X155041812Y-137220982D01*
X155054072Y-137096500D01*
X155054072Y-135191500D01*
X155041812Y-135067018D01*
X155005502Y-134947320D01*
X154946537Y-134837006D01*
X154867185Y-134740315D01*
X154770494Y-134660963D01*
X154686554Y-134616095D01*
X154789845Y-134490235D01*
X154923343Y-134240475D01*
X156965000Y-134240475D01*
X156965000Y-134759525D01*
X157066261Y-135268601D01*
X157264893Y-135748141D01*
X157553262Y-136179715D01*
X157920285Y-136546738D01*
X158351859Y-136835107D01*
X158831399Y-137033739D01*
X159340475Y-137135000D01*
X159859525Y-137135000D01*
X160368601Y-137033739D01*
X160848141Y-136835107D01*
X161279715Y-136546738D01*
X161646738Y-136179715D01*
X161935107Y-135748141D01*
X162133739Y-135268601D01*
X162235000Y-134759525D01*
X162235000Y-134240475D01*
X162133739Y-133731399D01*
X161935107Y-133251859D01*
X161646738Y-132820285D01*
X161279715Y-132453262D01*
X160848141Y-132164893D01*
X160368601Y-131966261D01*
X159859525Y-131865000D01*
X159340475Y-131865000D01*
X158831399Y-131966261D01*
X158351859Y-132164893D01*
X157920285Y-132453262D01*
X157553262Y-132820285D01*
X157264893Y-133251859D01*
X157066261Y-133731399D01*
X156965000Y-134240475D01*
X154923343Y-134240475D01*
X154937255Y-134214449D01*
X155028030Y-133915204D01*
X155058681Y-133604000D01*
X155028030Y-133292796D01*
X154937255Y-132993551D01*
X154789845Y-132717765D01*
X154591463Y-132476037D01*
X154412101Y-132328837D01*
X154597315Y-132173437D01*
X154791969Y-131930923D01*
X154935571Y-131655094D01*
X155006563Y-131436980D01*
X154886594Y-131191000D01*
X153543000Y-131191000D01*
X153543000Y-131211000D01*
X153289000Y-131211000D01*
X153289000Y-131191000D01*
X151945406Y-131191000D01*
X151825437Y-131436980D01*
X151896429Y-131655094D01*
X152040031Y-131930923D01*
X152234685Y-132173437D01*
X152419899Y-132328837D01*
X152240537Y-132476037D01*
X152042155Y-132717765D01*
X151894745Y-132993551D01*
X151803970Y-133292796D01*
X151773319Y-133604000D01*
X113127000Y-133604000D01*
X113127000Y-130691020D01*
X151825437Y-130691020D01*
X151945406Y-130937000D01*
X153289000Y-130937000D01*
X153289000Y-129638430D01*
X153543000Y-129638430D01*
X153543000Y-130937000D01*
X154886594Y-130937000D01*
X155006563Y-130691020D01*
X154935571Y-130472906D01*
X154791969Y-130197077D01*
X154597315Y-129954563D01*
X154359089Y-129754684D01*
X154086446Y-129605121D01*
X153789863Y-129511622D01*
X153543000Y-129638430D01*
X153289000Y-129638430D01*
X153042137Y-129511622D01*
X152745554Y-129605121D01*
X152472911Y-129754684D01*
X152234685Y-129954563D01*
X152040031Y-130197077D01*
X151896429Y-130472906D01*
X151825437Y-130691020D01*
X113127000Y-130691020D01*
X113127000Y-123000000D01*
X113124560Y-122975224D01*
X113117333Y-122951399D01*
X113105597Y-122929443D01*
X113089803Y-122910197D01*
X113070557Y-122894403D01*
X113048601Y-122882667D01*
X113024776Y-122875440D01*
X113000000Y-122873000D01*
X101627000Y-122873000D01*
X101627000Y-121000000D01*
X125361928Y-121000000D01*
X125361928Y-126400000D01*
X125374188Y-126524482D01*
X125410498Y-126644180D01*
X125469463Y-126754494D01*
X125548815Y-126851185D01*
X125645506Y-126930537D01*
X125755820Y-126989502D01*
X125875518Y-127025812D01*
X126000000Y-127038072D01*
X131540000Y-127038072D01*
X131664482Y-127025812D01*
X131784180Y-126989502D01*
X131894494Y-126930537D01*
X131991185Y-126851185D01*
X132070537Y-126754494D01*
X132129502Y-126644180D01*
X132165812Y-126524482D01*
X132178072Y-126400000D01*
X137821928Y-126400000D01*
X137834188Y-126524482D01*
X137870498Y-126644180D01*
X137929463Y-126754494D01*
X138008815Y-126851185D01*
X138105506Y-126930537D01*
X138215820Y-126989502D01*
X138335518Y-127025812D01*
X138460000Y-127038072D01*
X139674250Y-127035000D01*
X139833000Y-126876250D01*
X139833000Y-125027000D01*
X140087000Y-125027000D01*
X140087000Y-126876250D01*
X140245750Y-127035000D01*
X140987872Y-127036878D01*
X141000000Y-127038072D01*
X141230000Y-127037490D01*
X141460000Y-127038072D01*
X141472128Y-127036878D01*
X142214250Y-127035000D01*
X142373000Y-126876250D01*
X142373000Y-125027000D01*
X142627000Y-125027000D01*
X142627000Y-126876250D01*
X142785750Y-127035000D01*
X144000000Y-127038072D01*
X144124482Y-127025812D01*
X144244180Y-126989502D01*
X144354494Y-126930537D01*
X144451185Y-126851185D01*
X144530537Y-126754494D01*
X144589502Y-126644180D01*
X144625812Y-126524482D01*
X144638072Y-126400000D01*
X144635000Y-125185750D01*
X144476250Y-125027000D01*
X142627000Y-125027000D01*
X142373000Y-125027000D01*
X140087000Y-125027000D01*
X139833000Y-125027000D01*
X137983750Y-125027000D01*
X137825000Y-125185750D01*
X137821928Y-126400000D01*
X132178072Y-126400000D01*
X132178072Y-123400000D01*
X137821928Y-123400000D01*
X137822687Y-123700000D01*
X137821928Y-124000000D01*
X137823486Y-124015819D01*
X137825000Y-124614250D01*
X137983750Y-124773000D01*
X139833000Y-124773000D01*
X139833000Y-122627000D01*
X140087000Y-122627000D01*
X140087000Y-124773000D01*
X142373000Y-124773000D01*
X142373000Y-122627000D01*
X142627000Y-122627000D01*
X142627000Y-124773000D01*
X144476250Y-124773000D01*
X144635000Y-124614250D01*
X144636514Y-124015819D01*
X144638072Y-124000000D01*
X144637313Y-123700000D01*
X144638072Y-123400000D01*
X144636514Y-123384181D01*
X144635000Y-122785750D01*
X144476250Y-122627000D01*
X142627000Y-122627000D01*
X142373000Y-122627000D01*
X140087000Y-122627000D01*
X139833000Y-122627000D01*
X137983750Y-122627000D01*
X137825000Y-122785750D01*
X137823486Y-123384181D01*
X137821928Y-123400000D01*
X132178072Y-123400000D01*
X132178072Y-121000000D01*
X137821928Y-121000000D01*
X137825000Y-122214250D01*
X137983750Y-122373000D01*
X139833000Y-122373000D01*
X139833000Y-120523750D01*
X140087000Y-120523750D01*
X140087000Y-122373000D01*
X142373000Y-122373000D01*
X142373000Y-120523750D01*
X142627000Y-120523750D01*
X142627000Y-122373000D01*
X144476250Y-122373000D01*
X144635000Y-122214250D01*
X144638072Y-121000000D01*
X144625812Y-120875518D01*
X144589502Y-120755820D01*
X144530537Y-120645506D01*
X144451185Y-120548815D01*
X144354494Y-120469463D01*
X144244180Y-120410498D01*
X144124482Y-120374188D01*
X144000000Y-120361928D01*
X142785750Y-120365000D01*
X142627000Y-120523750D01*
X142373000Y-120523750D01*
X142214250Y-120365000D01*
X141472128Y-120363122D01*
X141460000Y-120361928D01*
X141230000Y-120362510D01*
X141000000Y-120361928D01*
X140987872Y-120363122D01*
X140245750Y-120365000D01*
X140087000Y-120523750D01*
X139833000Y-120523750D01*
X139674250Y-120365000D01*
X138460000Y-120361928D01*
X138335518Y-120374188D01*
X138215820Y-120410498D01*
X138105506Y-120469463D01*
X138008815Y-120548815D01*
X137929463Y-120645506D01*
X137870498Y-120755820D01*
X137834188Y-120875518D01*
X137821928Y-121000000D01*
X132178072Y-121000000D01*
X132165812Y-120875518D01*
X132129502Y-120755820D01*
X132070537Y-120645506D01*
X131991185Y-120548815D01*
X131894494Y-120469463D01*
X131784180Y-120410498D01*
X131664482Y-120374188D01*
X131540000Y-120361928D01*
X126000000Y-120361928D01*
X125875518Y-120374188D01*
X125755820Y-120410498D01*
X125645506Y-120469463D01*
X125548815Y-120548815D01*
X125469463Y-120645506D01*
X125410498Y-120755820D01*
X125374188Y-120875518D01*
X125361928Y-121000000D01*
X101627000Y-121000000D01*
X101627000Y-117838967D01*
X141365000Y-117838967D01*
X141365000Y-118161033D01*
X141427832Y-118476912D01*
X141551082Y-118774463D01*
X141730013Y-119042252D01*
X141957748Y-119269987D01*
X142225537Y-119448918D01*
X142523088Y-119572168D01*
X142838967Y-119635000D01*
X143161033Y-119635000D01*
X143476912Y-119572168D01*
X143774463Y-119448918D01*
X144042252Y-119269987D01*
X144269987Y-119042252D01*
X144448918Y-118774463D01*
X144572168Y-118476912D01*
X144635000Y-118161033D01*
X144635000Y-117838967D01*
X144572168Y-117523088D01*
X144448918Y-117225537D01*
X144269987Y-116957748D01*
X144042252Y-116730013D01*
X143774463Y-116551082D01*
X143476912Y-116427832D01*
X143161033Y-116365000D01*
X142838967Y-116365000D01*
X142523088Y-116427832D01*
X142225537Y-116551082D01*
X141957748Y-116730013D01*
X141730013Y-116957748D01*
X141551082Y-117225537D01*
X141427832Y-117523088D01*
X141365000Y-117838967D01*
X101627000Y-117838967D01*
X101627000Y-109500000D01*
X101624560Y-109475224D01*
X101617333Y-109451399D01*
X101605597Y-109429443D01*
X101582651Y-109403574D01*
X94627000Y-103441587D01*
X94627000Y-101989721D01*
X132865000Y-101989721D01*
X132865000Y-102410279D01*
X132947047Y-102822756D01*
X133107988Y-103211302D01*
X133341637Y-103560983D01*
X133639017Y-103858363D01*
X133988698Y-104092012D01*
X134377244Y-104252953D01*
X134789721Y-104335000D01*
X135210279Y-104335000D01*
X135622756Y-104252953D01*
X136011302Y-104092012D01*
X136360983Y-103858363D01*
X136658363Y-103560983D01*
X136892012Y-103211302D01*
X137052953Y-102822756D01*
X137135000Y-102410279D01*
X137135000Y-101989721D01*
X137052953Y-101577244D01*
X136892012Y-101188698D01*
X136658363Y-100839017D01*
X136360983Y-100541637D01*
X136011302Y-100307988D01*
X135622756Y-100147047D01*
X135210279Y-100065000D01*
X134789721Y-100065000D01*
X134377244Y-100147047D01*
X133988698Y-100307988D01*
X133639017Y-100541637D01*
X133341637Y-100839017D01*
X133107988Y-101188698D01*
X132947047Y-101577244D01*
X132865000Y-101989721D01*
X94627000Y-101989721D01*
X94627000Y-92600000D01*
X125361928Y-92600000D01*
X125361928Y-98000000D01*
X125374188Y-98124482D01*
X125410498Y-98244180D01*
X125469463Y-98354494D01*
X125548815Y-98451185D01*
X125645506Y-98530537D01*
X125755820Y-98589502D01*
X125875518Y-98625812D01*
X126000000Y-98638072D01*
X131540000Y-98638072D01*
X131664482Y-98625812D01*
X131784180Y-98589502D01*
X131894494Y-98530537D01*
X131991185Y-98451185D01*
X132070537Y-98354494D01*
X132129502Y-98244180D01*
X132165812Y-98124482D01*
X132178072Y-98000000D01*
X137821928Y-98000000D01*
X137834188Y-98124482D01*
X137870498Y-98244180D01*
X137929463Y-98354494D01*
X138008815Y-98451185D01*
X138105506Y-98530537D01*
X138215820Y-98589502D01*
X138335518Y-98625812D01*
X138460000Y-98638072D01*
X139674250Y-98635000D01*
X139833000Y-98476250D01*
X139833000Y-96627000D01*
X140087000Y-96627000D01*
X140087000Y-98476250D01*
X140245750Y-98635000D01*
X140987872Y-98636878D01*
X141000000Y-98638072D01*
X141230000Y-98637490D01*
X141460000Y-98638072D01*
X141472128Y-98636878D01*
X142214250Y-98635000D01*
X142373000Y-98476250D01*
X142373000Y-96627000D01*
X142627000Y-96627000D01*
X142627000Y-98476250D01*
X142785750Y-98635000D01*
X144000000Y-98638072D01*
X144124482Y-98625812D01*
X144244180Y-98589502D01*
X144354494Y-98530537D01*
X144451185Y-98451185D01*
X144530537Y-98354494D01*
X144589502Y-98244180D01*
X144625812Y-98124482D01*
X144638072Y-98000000D01*
X144635000Y-96785750D01*
X144476250Y-96627000D01*
X142627000Y-96627000D01*
X142373000Y-96627000D01*
X140087000Y-96627000D01*
X139833000Y-96627000D01*
X137983750Y-96627000D01*
X137825000Y-96785750D01*
X137821928Y-98000000D01*
X132178072Y-98000000D01*
X132178072Y-95691653D01*
X133687952Y-95691653D01*
X133843962Y-96007214D01*
X134218745Y-96198020D01*
X134623551Y-96312044D01*
X135042824Y-96344902D01*
X135460451Y-96295334D01*
X135860383Y-96165243D01*
X136156038Y-96007214D01*
X136312048Y-95691653D01*
X135000000Y-94379605D01*
X133687952Y-95691653D01*
X132178072Y-95691653D01*
X132178072Y-94242824D01*
X132855098Y-94242824D01*
X132904666Y-94660451D01*
X133034757Y-95060383D01*
X133192786Y-95356038D01*
X133508347Y-95512048D01*
X134820395Y-94200000D01*
X135179605Y-94200000D01*
X136491653Y-95512048D01*
X136807214Y-95356038D01*
X136988476Y-95000000D01*
X137821928Y-95000000D01*
X137822687Y-95300000D01*
X137821928Y-95600000D01*
X137823486Y-95615819D01*
X137825000Y-96214250D01*
X137983750Y-96373000D01*
X139833000Y-96373000D01*
X139833000Y-94227000D01*
X140087000Y-94227000D01*
X140087000Y-96373000D01*
X142373000Y-96373000D01*
X142373000Y-94227000D01*
X142627000Y-94227000D01*
X142627000Y-96373000D01*
X144476250Y-96373000D01*
X144635000Y-96214250D01*
X144636514Y-95615819D01*
X144638072Y-95600000D01*
X144637313Y-95300000D01*
X144638072Y-95000000D01*
X144636514Y-94984181D01*
X144635000Y-94385750D01*
X144476250Y-94227000D01*
X142627000Y-94227000D01*
X142373000Y-94227000D01*
X140087000Y-94227000D01*
X139833000Y-94227000D01*
X137983750Y-94227000D01*
X137825000Y-94385750D01*
X137823486Y-94984181D01*
X137821928Y-95000000D01*
X136988476Y-95000000D01*
X136998020Y-94981255D01*
X137112044Y-94576449D01*
X137144902Y-94157176D01*
X137095334Y-93739549D01*
X136965243Y-93339617D01*
X136807214Y-93043962D01*
X136491653Y-92887952D01*
X135179605Y-94200000D01*
X134820395Y-94200000D01*
X133508347Y-92887952D01*
X133192786Y-93043962D01*
X133001980Y-93418745D01*
X132887956Y-93823551D01*
X132855098Y-94242824D01*
X132178072Y-94242824D01*
X132178072Y-92708347D01*
X133687952Y-92708347D01*
X135000000Y-94020395D01*
X136312048Y-92708347D01*
X136258483Y-92600000D01*
X137821928Y-92600000D01*
X137825000Y-93814250D01*
X137983750Y-93973000D01*
X139833000Y-93973000D01*
X139833000Y-92123750D01*
X140087000Y-92123750D01*
X140087000Y-93973000D01*
X142373000Y-93973000D01*
X142373000Y-92123750D01*
X142627000Y-92123750D01*
X142627000Y-93973000D01*
X144476250Y-93973000D01*
X144635000Y-93814250D01*
X144638072Y-92600000D01*
X144625812Y-92475518D01*
X144589502Y-92355820D01*
X144530537Y-92245506D01*
X144451185Y-92148815D01*
X144354494Y-92069463D01*
X144244180Y-92010498D01*
X144124482Y-91974188D01*
X144000000Y-91961928D01*
X142785750Y-91965000D01*
X142627000Y-92123750D01*
X142373000Y-92123750D01*
X142214250Y-91965000D01*
X141472128Y-91963122D01*
X141460000Y-91961928D01*
X141230000Y-91962510D01*
X141000000Y-91961928D01*
X140987872Y-91963122D01*
X140245750Y-91965000D01*
X140087000Y-92123750D01*
X139833000Y-92123750D01*
X139674250Y-91965000D01*
X138460000Y-91961928D01*
X138335518Y-91974188D01*
X138215820Y-92010498D01*
X138105506Y-92069463D01*
X138008815Y-92148815D01*
X137929463Y-92245506D01*
X137870498Y-92355820D01*
X137834188Y-92475518D01*
X137821928Y-92600000D01*
X136258483Y-92600000D01*
X136156038Y-92392786D01*
X135781255Y-92201980D01*
X135376449Y-92087956D01*
X134957176Y-92055098D01*
X134539549Y-92104666D01*
X134139617Y-92234757D01*
X133843962Y-92392786D01*
X133687952Y-92708347D01*
X132178072Y-92708347D01*
X132178072Y-92600000D01*
X132165812Y-92475518D01*
X132129502Y-92355820D01*
X132070537Y-92245506D01*
X131991185Y-92148815D01*
X131894494Y-92069463D01*
X131784180Y-92010498D01*
X131664482Y-91974188D01*
X131540000Y-91961928D01*
X126000000Y-91961928D01*
X125875518Y-91974188D01*
X125755820Y-92010498D01*
X125645506Y-92069463D01*
X125548815Y-92148815D01*
X125469463Y-92245506D01*
X125410498Y-92355820D01*
X125374188Y-92475518D01*
X125361928Y-92600000D01*
X94627000Y-92600000D01*
X94627000Y-91000000D01*
X94624560Y-90975224D01*
X94617333Y-90951399D01*
X94605597Y-90929443D01*
X94589803Y-90910197D01*
X94570557Y-90894403D01*
X94548601Y-90882667D01*
X94524776Y-90875440D01*
X94500000Y-90873000D01*
X85500000Y-90873000D01*
X85475224Y-90875440D01*
X85451399Y-90882667D01*
X85429443Y-90894403D01*
X85410197Y-90910197D01*
X85394403Y-90929443D01*
X85382667Y-90951399D01*
X85375440Y-90975224D01*
X85373000Y-91000000D01*
X85373000Y-119373000D01*
X56078490Y-119373000D01*
X54641990Y-116500000D01*
X55861928Y-116500000D01*
X55861928Y-118500000D01*
X55874188Y-118624482D01*
X55910498Y-118744180D01*
X55969463Y-118854494D01*
X56048815Y-118951185D01*
X56145506Y-119030537D01*
X56255820Y-119089502D01*
X56375518Y-119125812D01*
X56500000Y-119138072D01*
X58500000Y-119138072D01*
X58624482Y-119125812D01*
X58744180Y-119089502D01*
X58854494Y-119030537D01*
X58951185Y-118951185D01*
X59030537Y-118854494D01*
X59085976Y-118750777D01*
X59139956Y-118899814D01*
X59429571Y-119040704D01*
X59741108Y-119122384D01*
X60062595Y-119141718D01*
X60381675Y-119097961D01*
X60686088Y-118992795D01*
X60860044Y-118899814D01*
X60955808Y-118635413D01*
X60000000Y-117679605D01*
X59985858Y-117693748D01*
X59806253Y-117514143D01*
X59820395Y-117500000D01*
X60179605Y-117500000D01*
X61135413Y-118455808D01*
X61165075Y-118445065D01*
X61230013Y-118542252D01*
X61457748Y-118769987D01*
X61725537Y-118948918D01*
X62023088Y-119072168D01*
X62338967Y-119135000D01*
X62661033Y-119135000D01*
X62976912Y-119072168D01*
X63274463Y-118948918D01*
X63542252Y-118769987D01*
X63769987Y-118542252D01*
X63948918Y-118274463D01*
X64072168Y-117976912D01*
X64135000Y-117661033D01*
X64135000Y-117338967D01*
X64072168Y-117023088D01*
X63948918Y-116725537D01*
X63769987Y-116457748D01*
X63542252Y-116230013D01*
X63274463Y-116051082D01*
X62976912Y-115927832D01*
X62661033Y-115865000D01*
X62338967Y-115865000D01*
X62023088Y-115927832D01*
X61725537Y-116051082D01*
X61457748Y-116230013D01*
X61230013Y-116457748D01*
X61165075Y-116554935D01*
X61135413Y-116544192D01*
X60179605Y-117500000D01*
X59820395Y-117500000D01*
X59806253Y-117485858D01*
X59985858Y-117306253D01*
X60000000Y-117320395D01*
X60955808Y-116364587D01*
X60860044Y-116100186D01*
X60570429Y-115959296D01*
X60258892Y-115877616D01*
X59937405Y-115858282D01*
X59618325Y-115902039D01*
X59313912Y-116007205D01*
X59139956Y-116100186D01*
X59085976Y-116249223D01*
X59030537Y-116145506D01*
X58951185Y-116048815D01*
X58854494Y-115969463D01*
X58744180Y-115910498D01*
X58624482Y-115874188D01*
X58500000Y-115861928D01*
X56500000Y-115861928D01*
X56375518Y-115874188D01*
X56255820Y-115910498D01*
X56145506Y-115969463D01*
X56048815Y-116048815D01*
X55969463Y-116145506D01*
X55910498Y-116255820D01*
X55874188Y-116375518D01*
X55861928Y-116500000D01*
X54641990Y-116500000D01*
X54613592Y-116443204D01*
X54600329Y-116422134D01*
X54583211Y-116404057D01*
X54565341Y-116391098D01*
X48998512Y-113051000D01*
X74911928Y-113051000D01*
X74911928Y-114551000D01*
X74924188Y-114675482D01*
X74960498Y-114795180D01*
X75019463Y-114905494D01*
X75098815Y-115002185D01*
X75195506Y-115081537D01*
X75305820Y-115140502D01*
X75425518Y-115176812D01*
X75550000Y-115189072D01*
X77050000Y-115189072D01*
X77174482Y-115176812D01*
X77294180Y-115140502D01*
X77404494Y-115081537D01*
X77501185Y-115002185D01*
X77580537Y-114905494D01*
X77639502Y-114795180D01*
X77675812Y-114675482D01*
X77688072Y-114551000D01*
X77688072Y-113051000D01*
X77675812Y-112926518D01*
X77639502Y-112806820D01*
X77580537Y-112696506D01*
X77501185Y-112599815D01*
X77404494Y-112520463D01*
X77294180Y-112461498D01*
X77174482Y-112425188D01*
X77066517Y-112414555D01*
X77182886Y-112336799D01*
X77375799Y-112143886D01*
X77527371Y-111917043D01*
X77631775Y-111664989D01*
X77685000Y-111397411D01*
X77685000Y-111124589D01*
X77631775Y-110857011D01*
X77527371Y-110604957D01*
X77375799Y-110378114D01*
X77182886Y-110185201D01*
X76956043Y-110033629D01*
X76853127Y-109991000D01*
X76956043Y-109948371D01*
X77182886Y-109796799D01*
X77375799Y-109603886D01*
X77527371Y-109377043D01*
X77631775Y-109124989D01*
X77685000Y-108857411D01*
X77685000Y-108584589D01*
X77631775Y-108317011D01*
X77527371Y-108064957D01*
X77375799Y-107838114D01*
X77182886Y-107645201D01*
X76956043Y-107493629D01*
X76853127Y-107451000D01*
X76956043Y-107408371D01*
X77182886Y-107256799D01*
X77375799Y-107063886D01*
X77527371Y-106837043D01*
X77631775Y-106584989D01*
X77685000Y-106317411D01*
X77685000Y-106044589D01*
X77631775Y-105777011D01*
X77527371Y-105524957D01*
X77375799Y-105298114D01*
X77182886Y-105105201D01*
X76956043Y-104953629D01*
X76703989Y-104849225D01*
X76436411Y-104796000D01*
X76163589Y-104796000D01*
X75896011Y-104849225D01*
X75643957Y-104953629D01*
X75417114Y-105105201D01*
X75224201Y-105298114D01*
X75072629Y-105524957D01*
X74968225Y-105777011D01*
X74915000Y-106044589D01*
X74915000Y-106317411D01*
X74968225Y-106584989D01*
X75072629Y-106837043D01*
X75224201Y-107063886D01*
X75417114Y-107256799D01*
X75643957Y-107408371D01*
X75746873Y-107451000D01*
X75643957Y-107493629D01*
X75417114Y-107645201D01*
X75224201Y-107838114D01*
X75072629Y-108064957D01*
X74968225Y-108317011D01*
X74915000Y-108584589D01*
X74915000Y-108857411D01*
X74968225Y-109124989D01*
X75072629Y-109377043D01*
X75224201Y-109603886D01*
X75417114Y-109796799D01*
X75643957Y-109948371D01*
X75746873Y-109991000D01*
X75643957Y-110033629D01*
X75417114Y-110185201D01*
X75224201Y-110378114D01*
X75072629Y-110604957D01*
X74968225Y-110857011D01*
X74915000Y-111124589D01*
X74915000Y-111397411D01*
X74968225Y-111664989D01*
X75072629Y-111917043D01*
X75224201Y-112143886D01*
X75417114Y-112336799D01*
X75533483Y-112414555D01*
X75425518Y-112425188D01*
X75305820Y-112461498D01*
X75195506Y-112520463D01*
X75098815Y-112599815D01*
X75019463Y-112696506D01*
X74960498Y-112806820D01*
X74924188Y-112926518D01*
X74911928Y-113051000D01*
X48998512Y-113051000D01*
X39980178Y-107640000D01*
X46856606Y-107640000D01*
X46890105Y-107980119D01*
X46989314Y-108307168D01*
X47150421Y-108608578D01*
X47367234Y-108872766D01*
X47631422Y-109089579D01*
X47932832Y-109250686D01*
X48259881Y-109349895D01*
X48514775Y-109375000D01*
X49485225Y-109375000D01*
X49740119Y-109349895D01*
X50067168Y-109250686D01*
X50368578Y-109089579D01*
X50632766Y-108872766D01*
X50849579Y-108608578D01*
X50961066Y-108400000D01*
X52761928Y-108400000D01*
X52761928Y-111600000D01*
X52774188Y-111724482D01*
X52810498Y-111844180D01*
X52869463Y-111954494D01*
X52948815Y-112051185D01*
X53045506Y-112130537D01*
X53155820Y-112189502D01*
X53275518Y-112225812D01*
X53400000Y-112238072D01*
X55400000Y-112238072D01*
X55524482Y-112225812D01*
X55644180Y-112189502D01*
X55754494Y-112130537D01*
X55851185Y-112051185D01*
X55930537Y-111954494D01*
X55989502Y-111844180D01*
X56025812Y-111724482D01*
X56038072Y-111600000D01*
X56038072Y-108400000D01*
X63961928Y-108400000D01*
X63961928Y-111600000D01*
X63974188Y-111724482D01*
X64010498Y-111844180D01*
X64069463Y-111954494D01*
X64148815Y-112051185D01*
X64245506Y-112130537D01*
X64355820Y-112189502D01*
X64475518Y-112225812D01*
X64600000Y-112238072D01*
X66600000Y-112238072D01*
X66724482Y-112225812D01*
X66844180Y-112189502D01*
X66954494Y-112130537D01*
X67051185Y-112051185D01*
X67130537Y-111954494D01*
X67189502Y-111844180D01*
X67225812Y-111724482D01*
X67238072Y-111600000D01*
X67238072Y-108400000D01*
X67225812Y-108275518D01*
X67189502Y-108155820D01*
X67130537Y-108045506D01*
X67051185Y-107948815D01*
X66954494Y-107869463D01*
X66844180Y-107810498D01*
X66724482Y-107774188D01*
X66600000Y-107761928D01*
X64600000Y-107761928D01*
X64475518Y-107774188D01*
X64355820Y-107810498D01*
X64245506Y-107869463D01*
X64148815Y-107948815D01*
X64069463Y-108045506D01*
X64010498Y-108155820D01*
X63974188Y-108275518D01*
X63961928Y-108400000D01*
X56038072Y-108400000D01*
X56025812Y-108275518D01*
X55989502Y-108155820D01*
X55930537Y-108045506D01*
X55851185Y-107948815D01*
X55754494Y-107869463D01*
X55644180Y-107810498D01*
X55524482Y-107774188D01*
X55400000Y-107761928D01*
X53400000Y-107761928D01*
X53275518Y-107774188D01*
X53155820Y-107810498D01*
X53045506Y-107869463D01*
X52948815Y-107948815D01*
X52869463Y-108045506D01*
X52810498Y-108155820D01*
X52774188Y-108275518D01*
X52761928Y-108400000D01*
X50961066Y-108400000D01*
X51010686Y-108307168D01*
X51109895Y-107980119D01*
X51143394Y-107640000D01*
X51109895Y-107299881D01*
X51010686Y-106972832D01*
X50849579Y-106671422D01*
X50632766Y-106407234D01*
X50581714Y-106365336D01*
X50716633Y-106237027D01*
X50913157Y-105958317D01*
X51051531Y-105646622D01*
X51089175Y-105496122D01*
X50971125Y-105227000D01*
X49127000Y-105227000D01*
X49127000Y-105247000D01*
X48873000Y-105247000D01*
X48873000Y-105227000D01*
X47028875Y-105227000D01*
X46910825Y-105496122D01*
X46948469Y-105646622D01*
X47086843Y-105958317D01*
X47283367Y-106237027D01*
X47418286Y-106365336D01*
X47367234Y-106407234D01*
X47150421Y-106671422D01*
X46989314Y-106972832D01*
X46890105Y-107299881D01*
X46856606Y-107640000D01*
X39980178Y-107640000D01*
X37065341Y-105891098D01*
X37042840Y-105880444D01*
X37029638Y-105876507D01*
X31877526Y-104640000D01*
X40856606Y-104640000D01*
X40890105Y-104980119D01*
X40989314Y-105307168D01*
X41150421Y-105608578D01*
X41367234Y-105872766D01*
X41631422Y-106089579D01*
X41932832Y-106250686D01*
X42259881Y-106349895D01*
X42514775Y-106375000D01*
X43485225Y-106375000D01*
X43740119Y-106349895D01*
X44067168Y-106250686D01*
X44368578Y-106089579D01*
X44632766Y-105872766D01*
X44849579Y-105608578D01*
X45010686Y-105307168D01*
X45109895Y-104980119D01*
X45137102Y-104703878D01*
X46910825Y-104703878D01*
X47028875Y-104973000D01*
X48873000Y-104973000D01*
X48873000Y-103365000D01*
X49127000Y-103365000D01*
X49127000Y-104973000D01*
X50971125Y-104973000D01*
X51089175Y-104703878D01*
X51051531Y-104553378D01*
X50913157Y-104241683D01*
X50716633Y-103962973D01*
X50469511Y-103727958D01*
X50181288Y-103545670D01*
X49863041Y-103423114D01*
X49527000Y-103365000D01*
X49127000Y-103365000D01*
X48873000Y-103365000D01*
X48473000Y-103365000D01*
X48136959Y-103423114D01*
X47818712Y-103545670D01*
X47530489Y-103727958D01*
X47283367Y-103962973D01*
X47086843Y-104241683D01*
X46948469Y-104553378D01*
X46910825Y-104703878D01*
X45137102Y-104703878D01*
X45143394Y-104640000D01*
X45109895Y-104299881D01*
X45010686Y-103972832D01*
X44849579Y-103671422D01*
X44632766Y-103407234D01*
X44581714Y-103365336D01*
X44716633Y-103237027D01*
X44913157Y-102958317D01*
X44966141Y-102838967D01*
X55865000Y-102838967D01*
X55865000Y-103161033D01*
X55927832Y-103476912D01*
X56051082Y-103774463D01*
X56230013Y-104042252D01*
X56457748Y-104269987D01*
X56725537Y-104448918D01*
X57023088Y-104572168D01*
X57338967Y-104635000D01*
X57661033Y-104635000D01*
X57976912Y-104572168D01*
X58274463Y-104448918D01*
X58542252Y-104269987D01*
X58676826Y-104135413D01*
X61544192Y-104135413D01*
X61639956Y-104399814D01*
X61929571Y-104540704D01*
X62241108Y-104622384D01*
X62562595Y-104641718D01*
X62881675Y-104597961D01*
X63186088Y-104492795D01*
X63360044Y-104399814D01*
X63455808Y-104135413D01*
X62500000Y-103179605D01*
X61544192Y-104135413D01*
X58676826Y-104135413D01*
X58769987Y-104042252D01*
X58948918Y-103774463D01*
X59072168Y-103476912D01*
X59135000Y-103161033D01*
X59135000Y-103062595D01*
X60858282Y-103062595D01*
X60902039Y-103381675D01*
X61007205Y-103686088D01*
X61100186Y-103860044D01*
X61364587Y-103955808D01*
X62320395Y-103000000D01*
X62679605Y-103000000D01*
X63635413Y-103955808D01*
X63899814Y-103860044D01*
X64040704Y-103570429D01*
X64122384Y-103258892D01*
X64141718Y-102937405D01*
X64097961Y-102618325D01*
X63992795Y-102313912D01*
X63899814Y-102139956D01*
X63635413Y-102044192D01*
X62679605Y-103000000D01*
X62320395Y-103000000D01*
X61364587Y-102044192D01*
X61100186Y-102139956D01*
X60959296Y-102429571D01*
X60877616Y-102741108D01*
X60858282Y-103062595D01*
X59135000Y-103062595D01*
X59135000Y-102838967D01*
X59072168Y-102523088D01*
X58948918Y-102225537D01*
X58769987Y-101957748D01*
X58676826Y-101864587D01*
X61544192Y-101864587D01*
X62500000Y-102820395D01*
X63455808Y-101864587D01*
X63360044Y-101600186D01*
X63070429Y-101459296D01*
X62758892Y-101377616D01*
X62437405Y-101358282D01*
X62118325Y-101402039D01*
X61813912Y-101507205D01*
X61639956Y-101600186D01*
X61544192Y-101864587D01*
X58676826Y-101864587D01*
X58542252Y-101730013D01*
X58274463Y-101551082D01*
X57976912Y-101427832D01*
X57661033Y-101365000D01*
X57338967Y-101365000D01*
X57023088Y-101427832D01*
X56725537Y-101551082D01*
X56457748Y-101730013D01*
X56230013Y-101957748D01*
X56051082Y-102225537D01*
X55927832Y-102523088D01*
X55865000Y-102838967D01*
X44966141Y-102838967D01*
X45051531Y-102646622D01*
X45089175Y-102496122D01*
X44971125Y-102227000D01*
X43127000Y-102227000D01*
X43127000Y-102247000D01*
X42873000Y-102247000D01*
X42873000Y-102227000D01*
X41028875Y-102227000D01*
X40910825Y-102496122D01*
X40948469Y-102646622D01*
X41086843Y-102958317D01*
X41283367Y-103237027D01*
X41418286Y-103365336D01*
X41367234Y-103407234D01*
X41150421Y-103671422D01*
X40989314Y-103972832D01*
X40890105Y-104299881D01*
X40856606Y-104640000D01*
X31877526Y-104640000D01*
X25235000Y-103045794D01*
X25235000Y-101640000D01*
X33856606Y-101640000D01*
X33890105Y-101980119D01*
X33989314Y-102307168D01*
X34150421Y-102608578D01*
X34367234Y-102872766D01*
X34631422Y-103089579D01*
X34932832Y-103250686D01*
X35259881Y-103349895D01*
X35514775Y-103375000D01*
X36485225Y-103375000D01*
X36740119Y-103349895D01*
X37067168Y-103250686D01*
X37368578Y-103089579D01*
X37632766Y-102872766D01*
X37849579Y-102608578D01*
X38010686Y-102307168D01*
X38109895Y-101980119D01*
X38137102Y-101703878D01*
X40910825Y-101703878D01*
X41028875Y-101973000D01*
X42873000Y-101973000D01*
X42873000Y-100365000D01*
X43127000Y-100365000D01*
X43127000Y-101973000D01*
X44971125Y-101973000D01*
X45089175Y-101703878D01*
X45051531Y-101553378D01*
X44913157Y-101241683D01*
X44716633Y-100962973D01*
X44469511Y-100727958D01*
X44181288Y-100545670D01*
X43863041Y-100423114D01*
X43527000Y-100365000D01*
X43127000Y-100365000D01*
X42873000Y-100365000D01*
X42473000Y-100365000D01*
X42136959Y-100423114D01*
X41818712Y-100545670D01*
X41530489Y-100727958D01*
X41283367Y-100962973D01*
X41086843Y-101241683D01*
X40948469Y-101553378D01*
X40910825Y-101703878D01*
X38137102Y-101703878D01*
X38143394Y-101640000D01*
X38109895Y-101299881D01*
X38010686Y-100972832D01*
X37849579Y-100671422D01*
X37632766Y-100407234D01*
X37581714Y-100365336D01*
X37716633Y-100237027D01*
X37913157Y-99958317D01*
X38051531Y-99646622D01*
X38089175Y-99496122D01*
X37971125Y-99227000D01*
X36127000Y-99227000D01*
X36127000Y-99247000D01*
X35873000Y-99247000D01*
X35873000Y-99227000D01*
X34028875Y-99227000D01*
X33910825Y-99496122D01*
X33948469Y-99646622D01*
X34086843Y-99958317D01*
X34283367Y-100237027D01*
X34418286Y-100365336D01*
X34367234Y-100407234D01*
X34150421Y-100671422D01*
X33989314Y-100972832D01*
X33890105Y-101299881D01*
X33856606Y-101640000D01*
X25235000Y-101640000D01*
X25235000Y-98640000D01*
X26856606Y-98640000D01*
X26890105Y-98980119D01*
X26989314Y-99307168D01*
X27150421Y-99608578D01*
X27367234Y-99872766D01*
X27631422Y-100089579D01*
X27932832Y-100250686D01*
X28259881Y-100349895D01*
X28514775Y-100375000D01*
X29485225Y-100375000D01*
X29740119Y-100349895D01*
X30067168Y-100250686D01*
X30368578Y-100089579D01*
X30632766Y-99872766D01*
X30849579Y-99608578D01*
X31010686Y-99307168D01*
X31109895Y-98980119D01*
X31137102Y-98703878D01*
X33910825Y-98703878D01*
X34028875Y-98973000D01*
X35873000Y-98973000D01*
X35873000Y-97365000D01*
X36127000Y-97365000D01*
X36127000Y-98973000D01*
X37971125Y-98973000D01*
X38089175Y-98703878D01*
X38051531Y-98553378D01*
X37913157Y-98241683D01*
X37716633Y-97962973D01*
X37469511Y-97727958D01*
X37181288Y-97545670D01*
X36863041Y-97423114D01*
X36527000Y-97365000D01*
X36127000Y-97365000D01*
X35873000Y-97365000D01*
X35473000Y-97365000D01*
X35136959Y-97423114D01*
X34818712Y-97545670D01*
X34530489Y-97727958D01*
X34283367Y-97962973D01*
X34086843Y-98241683D01*
X33948469Y-98553378D01*
X33910825Y-98703878D01*
X31137102Y-98703878D01*
X31143394Y-98640000D01*
X31109895Y-98299881D01*
X31010686Y-97972832D01*
X30849579Y-97671422D01*
X30632766Y-97407234D01*
X30581714Y-97365336D01*
X30716633Y-97237027D01*
X30913157Y-96958317D01*
X31051531Y-96646622D01*
X31089175Y-96496122D01*
X30971125Y-96227000D01*
X29127000Y-96227000D01*
X29127000Y-96247000D01*
X28873000Y-96247000D01*
X28873000Y-96227000D01*
X27028875Y-96227000D01*
X26910825Y-96496122D01*
X26948469Y-96646622D01*
X27086843Y-96958317D01*
X27283367Y-97237027D01*
X27418286Y-97365336D01*
X27367234Y-97407234D01*
X27150421Y-97671422D01*
X26989314Y-97972832D01*
X26890105Y-98299881D01*
X26856606Y-98640000D01*
X25235000Y-98640000D01*
X25235000Y-95703878D01*
X26910825Y-95703878D01*
X27028875Y-95973000D01*
X28873000Y-95973000D01*
X28873000Y-94365000D01*
X29127000Y-94365000D01*
X29127000Y-95973000D01*
X30971125Y-95973000D01*
X31089175Y-95703878D01*
X31051531Y-95553378D01*
X30913157Y-95241683D01*
X30716633Y-94962973D01*
X30469511Y-94727958D01*
X30181288Y-94545670D01*
X29863041Y-94423114D01*
X29527000Y-94365000D01*
X29127000Y-94365000D01*
X28873000Y-94365000D01*
X28473000Y-94365000D01*
X28136959Y-94423114D01*
X27818712Y-94545670D01*
X27530489Y-94727958D01*
X27283367Y-94962973D01*
X27086843Y-95241683D01*
X26948469Y-95553378D01*
X26910825Y-95703878D01*
X25235000Y-95703878D01*
X25235000Y-91472780D01*
X38803379Y-85289721D01*
X74165000Y-85289721D01*
X74165000Y-85710279D01*
X74247047Y-86122756D01*
X74407988Y-86511302D01*
X74641637Y-86860983D01*
X74939017Y-87158363D01*
X75288698Y-87392012D01*
X75677244Y-87552953D01*
X76089721Y-87635000D01*
X76510279Y-87635000D01*
X76922756Y-87552953D01*
X77311302Y-87392012D01*
X77660983Y-87158363D01*
X77958363Y-86860983D01*
X78192012Y-86511302D01*
X78352953Y-86122756D01*
X78435000Y-85710279D01*
X78435000Y-85289721D01*
X78352953Y-84877244D01*
X78192012Y-84488698D01*
X77958363Y-84139017D01*
X77660983Y-83841637D01*
X77311302Y-83607988D01*
X76922756Y-83447047D01*
X76510279Y-83365000D01*
X76089721Y-83365000D01*
X75677244Y-83447047D01*
X75288698Y-83607988D01*
X74939017Y-83841637D01*
X74641637Y-84139017D01*
X74407988Y-84488698D01*
X74247047Y-84877244D01*
X74165000Y-85289721D01*
X38803379Y-85289721D01*
X44484445Y-82700881D01*
X57478724Y-82700881D01*
X57838912Y-83190548D01*
X58502882Y-83550849D01*
X59224385Y-83774694D01*
X59975695Y-83853480D01*
X60727938Y-83784178D01*
X61452208Y-83569452D01*
X62120670Y-83217555D01*
X62161088Y-83190548D01*
X62521276Y-82700881D01*
X62382344Y-82561949D01*
X104605602Y-82561949D01*
X104605602Y-82795373D01*
X104651141Y-83024313D01*
X104740468Y-83239969D01*
X104870152Y-83434055D01*
X105035208Y-83599111D01*
X105229294Y-83728795D01*
X105444950Y-83818122D01*
X105589674Y-83846909D01*
X107815000Y-86072236D01*
X107815000Y-86116712D01*
X107860539Y-86345652D01*
X107949866Y-86561308D01*
X108079550Y-86755394D01*
X108244606Y-86920450D01*
X108438692Y-87050134D01*
X108654348Y-87139461D01*
X108883288Y-87185000D01*
X109116712Y-87185000D01*
X109345652Y-87139461D01*
X109561308Y-87050134D01*
X109755394Y-86920450D01*
X109920450Y-86755394D01*
X110050134Y-86561308D01*
X110139461Y-86345652D01*
X110185000Y-86116712D01*
X110185000Y-85883288D01*
X110139461Y-85654348D01*
X110050134Y-85438692D01*
X109920450Y-85244606D01*
X109755394Y-85079550D01*
X109636339Y-85000000D01*
X113361928Y-85000000D01*
X113361928Y-87000000D01*
X113374188Y-87124482D01*
X113410498Y-87244180D01*
X113469463Y-87354494D01*
X113548815Y-87451185D01*
X113645506Y-87530537D01*
X113755820Y-87589502D01*
X113875518Y-87625812D01*
X114000000Y-87638072D01*
X116000000Y-87638072D01*
X116124482Y-87625812D01*
X116244180Y-87589502D01*
X116354494Y-87530537D01*
X116451185Y-87451185D01*
X116530537Y-87354494D01*
X116589502Y-87244180D01*
X116625812Y-87124482D01*
X116638072Y-87000000D01*
X116638072Y-85858665D01*
X127245000Y-85858665D01*
X127245000Y-86141335D01*
X127300147Y-86418574D01*
X127408320Y-86679727D01*
X127565363Y-86914759D01*
X127765241Y-87114637D01*
X128000273Y-87271680D01*
X128261426Y-87379853D01*
X128538665Y-87435000D01*
X128821335Y-87435000D01*
X128851721Y-87428956D01*
X132566494Y-91143730D01*
X132594329Y-91177647D01*
X132628246Y-91205482D01*
X132628247Y-91205483D01*
X132637766Y-91213295D01*
X132729697Y-91288741D01*
X132864192Y-91360630D01*
X132882319Y-91370319D01*
X132884137Y-91371291D01*
X132958789Y-91393936D01*
X133051713Y-91422124D01*
X133068313Y-91423759D01*
X133182321Y-91434988D01*
X133182328Y-91434988D01*
X133225988Y-91439288D01*
X133269648Y-91434988D01*
X137137948Y-91434988D01*
X137169398Y-91466438D01*
X137363484Y-91596122D01*
X137579140Y-91685449D01*
X137808080Y-91730988D01*
X138041504Y-91730988D01*
X138270444Y-91685449D01*
X138486100Y-91596122D01*
X138680186Y-91466438D01*
X138845242Y-91301382D01*
X138974926Y-91107296D01*
X139064253Y-90891640D01*
X139109792Y-90662700D01*
X139109792Y-90429276D01*
X139064253Y-90200336D01*
X138974926Y-89984680D01*
X138845242Y-89790594D01*
X138680186Y-89625538D01*
X138486100Y-89495854D01*
X138270444Y-89406527D01*
X138041504Y-89360988D01*
X137808080Y-89360988D01*
X137579140Y-89406527D01*
X137363484Y-89495854D01*
X137169398Y-89625538D01*
X137137948Y-89656988D01*
X133594224Y-89656988D01*
X131370427Y-87433191D01*
X131638574Y-87379853D01*
X131899727Y-87271680D01*
X132134759Y-87114637D01*
X132334637Y-86914759D01*
X132490000Y-86682241D01*
X132645363Y-86914759D01*
X132845241Y-87114637D01*
X133080273Y-87271680D01*
X133341426Y-87379853D01*
X133618665Y-87435000D01*
X133901335Y-87435000D01*
X134178574Y-87379853D01*
X134439727Y-87271680D01*
X134674759Y-87114637D01*
X134874637Y-86914759D01*
X135030000Y-86682241D01*
X135185363Y-86914759D01*
X135385241Y-87114637D01*
X135620273Y-87271680D01*
X135881426Y-87379853D01*
X136158665Y-87435000D01*
X136441335Y-87435000D01*
X136718574Y-87379853D01*
X136979727Y-87271680D01*
X137214759Y-87114637D01*
X137414637Y-86914759D01*
X137570000Y-86682241D01*
X137725363Y-86914759D01*
X137925241Y-87114637D01*
X138160273Y-87271680D01*
X138421426Y-87379853D01*
X138698665Y-87435000D01*
X138981335Y-87435000D01*
X139258574Y-87379853D01*
X139519727Y-87271680D01*
X139754759Y-87114637D01*
X139954637Y-86914759D01*
X140110000Y-86682241D01*
X140265363Y-86914759D01*
X140465241Y-87114637D01*
X140700273Y-87271680D01*
X140961426Y-87379853D01*
X141238665Y-87435000D01*
X141521335Y-87435000D01*
X141798574Y-87379853D01*
X142059727Y-87271680D01*
X142294759Y-87114637D01*
X142494637Y-86914759D01*
X142650000Y-86682241D01*
X142805363Y-86914759D01*
X143005241Y-87114637D01*
X143240273Y-87271680D01*
X143501426Y-87379853D01*
X143778665Y-87435000D01*
X144061335Y-87435000D01*
X144338574Y-87379853D01*
X144599727Y-87271680D01*
X144834759Y-87114637D01*
X145034637Y-86914759D01*
X145190000Y-86682241D01*
X145345363Y-86914759D01*
X145545241Y-87114637D01*
X145780273Y-87271680D01*
X146041426Y-87379853D01*
X146318665Y-87435000D01*
X146601335Y-87435000D01*
X146878574Y-87379853D01*
X147139727Y-87271680D01*
X147374759Y-87114637D01*
X147573357Y-86916039D01*
X147574188Y-86924482D01*
X147610498Y-87044180D01*
X147669463Y-87154494D01*
X147748815Y-87251185D01*
X147845506Y-87330537D01*
X147955820Y-87389502D01*
X148075518Y-87425812D01*
X148200000Y-87438072D01*
X149800000Y-87438072D01*
X149924482Y-87425812D01*
X150044180Y-87389502D01*
X150154494Y-87330537D01*
X150251185Y-87251185D01*
X150330537Y-87154494D01*
X150389502Y-87044180D01*
X150425812Y-86924482D01*
X150438072Y-86800000D01*
X150438072Y-85240475D01*
X156965000Y-85240475D01*
X156965000Y-85759525D01*
X157066261Y-86268601D01*
X157264893Y-86748141D01*
X157553262Y-87179715D01*
X157920285Y-87546738D01*
X158351859Y-87835107D01*
X158831399Y-88033739D01*
X159340475Y-88135000D01*
X159859525Y-88135000D01*
X160368601Y-88033739D01*
X160848141Y-87835107D01*
X161279715Y-87546738D01*
X161646738Y-87179715D01*
X161935107Y-86748141D01*
X162133739Y-86268601D01*
X162235000Y-85759525D01*
X162235000Y-85240475D01*
X162133739Y-84731399D01*
X161935107Y-84251859D01*
X161646738Y-83820285D01*
X161279715Y-83453262D01*
X160848141Y-83164893D01*
X160368601Y-82966261D01*
X159859525Y-82865000D01*
X159340475Y-82865000D01*
X158831399Y-82966261D01*
X158351859Y-83164893D01*
X157920285Y-83453262D01*
X157553262Y-83820285D01*
X157264893Y-84251859D01*
X157066261Y-84731399D01*
X156965000Y-85240475D01*
X150438072Y-85240475D01*
X150438072Y-85200000D01*
X150425812Y-85075518D01*
X150389502Y-84955820D01*
X150330537Y-84845506D01*
X150251185Y-84748815D01*
X150154494Y-84669463D01*
X150044180Y-84610498D01*
X149924482Y-84574188D01*
X149800000Y-84561928D01*
X148200000Y-84561928D01*
X148075518Y-84574188D01*
X147955820Y-84610498D01*
X147845506Y-84669463D01*
X147748815Y-84748815D01*
X147669463Y-84845506D01*
X147610498Y-84955820D01*
X147574188Y-85075518D01*
X147573357Y-85083961D01*
X147374759Y-84885363D01*
X147139727Y-84728320D01*
X146878574Y-84620147D01*
X146601335Y-84565000D01*
X146318665Y-84565000D01*
X146041426Y-84620147D01*
X145780273Y-84728320D01*
X145545241Y-84885363D01*
X145345363Y-85085241D01*
X145190000Y-85317759D01*
X145034637Y-85085241D01*
X144834759Y-84885363D01*
X144599727Y-84728320D01*
X144338574Y-84620147D01*
X144061335Y-84565000D01*
X143778665Y-84565000D01*
X143501426Y-84620147D01*
X143240273Y-84728320D01*
X143005241Y-84885363D01*
X142805363Y-85085241D01*
X142650000Y-85317759D01*
X142494637Y-85085241D01*
X142294759Y-84885363D01*
X142059727Y-84728320D01*
X141798574Y-84620147D01*
X141521335Y-84565000D01*
X141238665Y-84565000D01*
X140961426Y-84620147D01*
X140700273Y-84728320D01*
X140465241Y-84885363D01*
X140265363Y-85085241D01*
X140110000Y-85317759D01*
X139954637Y-85085241D01*
X139754759Y-84885363D01*
X139519727Y-84728320D01*
X139258574Y-84620147D01*
X138981335Y-84565000D01*
X138698665Y-84565000D01*
X138421426Y-84620147D01*
X138160273Y-84728320D01*
X137925241Y-84885363D01*
X137725363Y-85085241D01*
X137570000Y-85317759D01*
X137414637Y-85085241D01*
X137214759Y-84885363D01*
X136979727Y-84728320D01*
X136718574Y-84620147D01*
X136441335Y-84565000D01*
X136158665Y-84565000D01*
X135881426Y-84620147D01*
X135620273Y-84728320D01*
X135385241Y-84885363D01*
X135185363Y-85085241D01*
X135030000Y-85317759D01*
X134874637Y-85085241D01*
X134674759Y-84885363D01*
X134439727Y-84728320D01*
X134178574Y-84620147D01*
X133901335Y-84565000D01*
X133618665Y-84565000D01*
X133341426Y-84620147D01*
X133080273Y-84728320D01*
X132845241Y-84885363D01*
X132645363Y-85085241D01*
X132490000Y-85317759D01*
X132334637Y-85085241D01*
X132134759Y-84885363D01*
X131899727Y-84728320D01*
X131638574Y-84620147D01*
X131361335Y-84565000D01*
X131078665Y-84565000D01*
X130801426Y-84620147D01*
X130540273Y-84728320D01*
X130305241Y-84885363D01*
X130105363Y-85085241D01*
X129950000Y-85317759D01*
X129794637Y-85085241D01*
X129594759Y-84885363D01*
X129359727Y-84728320D01*
X129098574Y-84620147D01*
X128821335Y-84565000D01*
X128538665Y-84565000D01*
X128261426Y-84620147D01*
X128000273Y-84728320D01*
X127765241Y-84885363D01*
X127565363Y-85085241D01*
X127408320Y-85320273D01*
X127300147Y-85581426D01*
X127245000Y-85858665D01*
X116638072Y-85858665D01*
X116638072Y-85000000D01*
X116625812Y-84875518D01*
X116589502Y-84755820D01*
X116530537Y-84645506D01*
X116451185Y-84548815D01*
X116354494Y-84469463D01*
X116244180Y-84410498D01*
X116124482Y-84374188D01*
X116000000Y-84361928D01*
X114000000Y-84361928D01*
X113875518Y-84374188D01*
X113755820Y-84410498D01*
X113645506Y-84469463D01*
X113548815Y-84548815D01*
X113469463Y-84645506D01*
X113410498Y-84755820D01*
X113374188Y-84875518D01*
X113361928Y-85000000D01*
X109636339Y-85000000D01*
X109561308Y-84949866D01*
X109345652Y-84860539D01*
X109116712Y-84815000D01*
X109072236Y-84815000D01*
X106975602Y-82718367D01*
X106975602Y-82700881D01*
X167478724Y-82700881D01*
X167838912Y-83190548D01*
X168502882Y-83550849D01*
X169224385Y-83774694D01*
X169975695Y-83853480D01*
X170727938Y-83784178D01*
X171452208Y-83569452D01*
X172120670Y-83217555D01*
X172161088Y-83190548D01*
X172521276Y-82700881D01*
X170000000Y-80179605D01*
X167478724Y-82700881D01*
X106975602Y-82700881D01*
X106975602Y-82561949D01*
X106930063Y-82333009D01*
X106840736Y-82117353D01*
X106711052Y-81923267D01*
X106545996Y-81758211D01*
X106351910Y-81628527D01*
X106136254Y-81539200D01*
X105907314Y-81493661D01*
X105673890Y-81493661D01*
X105444950Y-81539200D01*
X105229294Y-81628527D01*
X105035208Y-81758211D01*
X104870152Y-81923267D01*
X104740468Y-82117353D01*
X104651141Y-82333009D01*
X104605602Y-82561949D01*
X62382344Y-82561949D01*
X60000000Y-80179605D01*
X57478724Y-82700881D01*
X44484445Y-82700881D01*
X50464715Y-79975695D01*
X56146520Y-79975695D01*
X56215822Y-80727938D01*
X56430548Y-81452208D01*
X56782445Y-82120670D01*
X56809452Y-82161088D01*
X57299119Y-82521276D01*
X59820395Y-80000000D01*
X60179605Y-80000000D01*
X62700881Y-82521276D01*
X63190548Y-82161088D01*
X63550849Y-81497118D01*
X63774694Y-80775615D01*
X63829812Y-80250000D01*
X90611928Y-80250000D01*
X90611928Y-81750000D01*
X90624188Y-81874482D01*
X90660498Y-81994180D01*
X90719463Y-82104494D01*
X90798815Y-82201185D01*
X90895506Y-82280537D01*
X91005820Y-82339502D01*
X91125518Y-82375812D01*
X91250000Y-82388072D01*
X92750000Y-82388072D01*
X92874482Y-82375812D01*
X92994180Y-82339502D01*
X93104494Y-82280537D01*
X93201185Y-82201185D01*
X93280537Y-82104494D01*
X93339502Y-81994180D01*
X93375812Y-81874482D01*
X93386445Y-81766517D01*
X93464201Y-81882886D01*
X93657114Y-82075799D01*
X93883957Y-82227371D01*
X94136011Y-82331775D01*
X94403589Y-82385000D01*
X94676411Y-82385000D01*
X94943989Y-82331775D01*
X95196043Y-82227371D01*
X95422886Y-82075799D01*
X95615799Y-81882886D01*
X95767371Y-81656043D01*
X95810000Y-81553127D01*
X95852629Y-81656043D01*
X96004201Y-81882886D01*
X96197114Y-82075799D01*
X96423957Y-82227371D01*
X96676011Y-82331775D01*
X96943589Y-82385000D01*
X97216411Y-82385000D01*
X97483989Y-82331775D01*
X97736043Y-82227371D01*
X97962886Y-82075799D01*
X98081692Y-81956993D01*
X98842612Y-81956993D01*
X98908137Y-82195860D01*
X99155116Y-82311760D01*
X99419960Y-82377250D01*
X99692492Y-82389812D01*
X99962238Y-82348965D01*
X100218832Y-82256277D01*
X100331863Y-82195860D01*
X100397388Y-81956993D01*
X99620000Y-81179605D01*
X98842612Y-81956993D01*
X98081692Y-81956993D01*
X98155799Y-81882886D01*
X98307371Y-81656043D01*
X98348511Y-81556721D01*
X98363723Y-81598832D01*
X98424140Y-81711863D01*
X98663007Y-81777388D01*
X99440395Y-81000000D01*
X99799605Y-81000000D01*
X100576993Y-81777388D01*
X100815860Y-81711863D01*
X100931760Y-81464884D01*
X100997250Y-81200040D01*
X101009812Y-80927508D01*
X100968965Y-80657762D01*
X100876277Y-80401168D01*
X100815860Y-80288137D01*
X100576993Y-80222612D01*
X99799605Y-81000000D01*
X99440395Y-81000000D01*
X98663007Y-80222612D01*
X98424140Y-80288137D01*
X98349836Y-80446477D01*
X98307371Y-80343957D01*
X98155799Y-80117114D01*
X98081692Y-80043007D01*
X98842612Y-80043007D01*
X99620000Y-80820395D01*
X100397388Y-80043007D01*
X100331863Y-79804140D01*
X100084884Y-79688240D01*
X99820040Y-79622750D01*
X99547508Y-79610188D01*
X99277762Y-79651035D01*
X99021168Y-79743723D01*
X98908137Y-79804140D01*
X98842612Y-80043007D01*
X98081692Y-80043007D01*
X97962886Y-79924201D01*
X97736043Y-79772629D01*
X97483989Y-79668225D01*
X97216411Y-79615000D01*
X96943589Y-79615000D01*
X96676011Y-79668225D01*
X96423957Y-79772629D01*
X96197114Y-79924201D01*
X96004201Y-80117114D01*
X95852629Y-80343957D01*
X95810000Y-80446873D01*
X95767371Y-80343957D01*
X95615799Y-80117114D01*
X95422886Y-79924201D01*
X95196043Y-79772629D01*
X94943989Y-79668225D01*
X94676411Y-79615000D01*
X94403589Y-79615000D01*
X94136011Y-79668225D01*
X93883957Y-79772629D01*
X93657114Y-79924201D01*
X93464201Y-80117114D01*
X93386445Y-80233483D01*
X93375812Y-80125518D01*
X93339502Y-80005820D01*
X93280537Y-79895506D01*
X93201185Y-79798815D01*
X93104494Y-79719463D01*
X92994180Y-79660498D01*
X92874482Y-79624188D01*
X92750000Y-79611928D01*
X91250000Y-79611928D01*
X91125518Y-79624188D01*
X91005820Y-79660498D01*
X90895506Y-79719463D01*
X90798815Y-79798815D01*
X90719463Y-79895506D01*
X90660498Y-80005820D01*
X90624188Y-80125518D01*
X90611928Y-80250000D01*
X63829812Y-80250000D01*
X63853480Y-80024305D01*
X63784178Y-79272062D01*
X63777071Y-79248090D01*
X105806892Y-79248090D01*
X105806892Y-79422420D01*
X105840902Y-79593400D01*
X105907615Y-79754460D01*
X106004468Y-79899410D01*
X106127737Y-80022679D01*
X106272687Y-80119532D01*
X106433747Y-80186245D01*
X106604727Y-80220255D01*
X106779057Y-80220255D01*
X106950037Y-80186245D01*
X107111097Y-80119532D01*
X107182450Y-80071855D01*
X110030148Y-80071855D01*
X110132268Y-80173976D01*
X110149010Y-80258143D01*
X110215723Y-80419203D01*
X110312576Y-80564153D01*
X110435845Y-80687422D01*
X110580795Y-80784275D01*
X110741855Y-80850988D01*
X110912835Y-80884998D01*
X111087165Y-80884998D01*
X111258145Y-80850988D01*
X111419205Y-80784275D01*
X111564155Y-80687422D01*
X111687424Y-80564153D01*
X111784277Y-80419203D01*
X111850990Y-80258143D01*
X111867732Y-80173975D01*
X112495269Y-79546439D01*
X112508704Y-79535413D01*
X114044192Y-79535413D01*
X114139956Y-79799814D01*
X114429571Y-79940704D01*
X114741108Y-80022384D01*
X115062595Y-80041718D01*
X115381675Y-79997961D01*
X115446126Y-79975695D01*
X166146520Y-79975695D01*
X166215822Y-80727938D01*
X166430548Y-81452208D01*
X166782445Y-82120670D01*
X166809452Y-82161088D01*
X167299119Y-82521276D01*
X169820395Y-80000000D01*
X170179605Y-80000000D01*
X172700881Y-82521276D01*
X173190548Y-82161088D01*
X173550849Y-81497118D01*
X173774694Y-80775615D01*
X173853480Y-80024305D01*
X173784178Y-79272062D01*
X173569452Y-78547792D01*
X173217555Y-77879330D01*
X173190548Y-77838912D01*
X172700881Y-77478724D01*
X170179605Y-80000000D01*
X169820395Y-80000000D01*
X167299119Y-77478724D01*
X166809452Y-77838912D01*
X166449151Y-78502882D01*
X166225306Y-79224385D01*
X166146520Y-79975695D01*
X115446126Y-79975695D01*
X115686088Y-79892795D01*
X115860044Y-79799814D01*
X115955808Y-79535413D01*
X115000000Y-78579605D01*
X114044192Y-79535413D01*
X112508704Y-79535413D01*
X112523375Y-79523373D01*
X112615424Y-79411211D01*
X112683822Y-79283247D01*
X112725942Y-79144397D01*
X112736600Y-79036184D01*
X112740164Y-78999998D01*
X112736600Y-78963812D01*
X112736600Y-78740558D01*
X112784277Y-78669205D01*
X112850990Y-78508145D01*
X112860050Y-78462595D01*
X113358282Y-78462595D01*
X113402039Y-78781675D01*
X113507205Y-79086088D01*
X113600186Y-79260044D01*
X113864587Y-79355808D01*
X114820395Y-78400000D01*
X115179605Y-78400000D01*
X116135413Y-79355808D01*
X116399814Y-79260044D01*
X116540704Y-78970429D01*
X116603992Y-78729040D01*
X127288091Y-78729040D01*
X127382930Y-78993881D01*
X127527615Y-79235131D01*
X127716586Y-79443519D01*
X127942580Y-79611037D01*
X128196913Y-79731246D01*
X128330961Y-79771904D01*
X128553000Y-79649915D01*
X128553000Y-78507000D01*
X127409376Y-78507000D01*
X127288091Y-78729040D01*
X116603992Y-78729040D01*
X116622384Y-78658892D01*
X116641718Y-78337405D01*
X116599694Y-78030960D01*
X127288091Y-78030960D01*
X127409376Y-78253000D01*
X128553000Y-78253000D01*
X128553000Y-77110085D01*
X128807000Y-77110085D01*
X128807000Y-78253000D01*
X128827000Y-78253000D01*
X128827000Y-78507000D01*
X128807000Y-78507000D01*
X128807000Y-79649915D01*
X129029039Y-79771904D01*
X129163087Y-79731246D01*
X129417420Y-79611037D01*
X129643414Y-79443519D01*
X129832385Y-79235131D01*
X129943933Y-79049135D01*
X129948320Y-79059727D01*
X130105363Y-79294759D01*
X130305241Y-79494637D01*
X130540273Y-79651680D01*
X130801426Y-79759853D01*
X131078665Y-79815000D01*
X131361335Y-79815000D01*
X131638574Y-79759853D01*
X131899727Y-79651680D01*
X132134759Y-79494637D01*
X132334637Y-79294759D01*
X132490000Y-79062241D01*
X132645363Y-79294759D01*
X132845241Y-79494637D01*
X133080273Y-79651680D01*
X133341426Y-79759853D01*
X133618665Y-79815000D01*
X133901335Y-79815000D01*
X134178574Y-79759853D01*
X134439727Y-79651680D01*
X134674759Y-79494637D01*
X134874637Y-79294759D01*
X135030000Y-79062241D01*
X135185363Y-79294759D01*
X135385241Y-79494637D01*
X135620273Y-79651680D01*
X135881426Y-79759853D01*
X136158665Y-79815000D01*
X136441335Y-79815000D01*
X136718574Y-79759853D01*
X136979727Y-79651680D01*
X137214759Y-79494637D01*
X137414637Y-79294759D01*
X137570000Y-79062241D01*
X137725363Y-79294759D01*
X137925241Y-79494637D01*
X138160273Y-79651680D01*
X138421426Y-79759853D01*
X138698665Y-79815000D01*
X138981335Y-79815000D01*
X139258574Y-79759853D01*
X139519727Y-79651680D01*
X139754759Y-79494637D01*
X139954637Y-79294759D01*
X140110000Y-79062241D01*
X140265363Y-79294759D01*
X140465241Y-79494637D01*
X140700273Y-79651680D01*
X140961426Y-79759853D01*
X141238665Y-79815000D01*
X141521335Y-79815000D01*
X141798574Y-79759853D01*
X142059727Y-79651680D01*
X142294759Y-79494637D01*
X142494637Y-79294759D01*
X142650000Y-79062241D01*
X142805363Y-79294759D01*
X143005241Y-79494637D01*
X143240273Y-79651680D01*
X143501426Y-79759853D01*
X143778665Y-79815000D01*
X144061335Y-79815000D01*
X144338574Y-79759853D01*
X144599727Y-79651680D01*
X144834759Y-79494637D01*
X145034637Y-79294759D01*
X145190000Y-79062241D01*
X145345363Y-79294759D01*
X145545241Y-79494637D01*
X145780273Y-79651680D01*
X146041426Y-79759853D01*
X146318665Y-79815000D01*
X146601335Y-79815000D01*
X146878574Y-79759853D01*
X147139727Y-79651680D01*
X147374759Y-79494637D01*
X147574637Y-79294759D01*
X147730000Y-79062241D01*
X147885363Y-79294759D01*
X148085241Y-79494637D01*
X148320273Y-79651680D01*
X148581426Y-79759853D01*
X148858665Y-79815000D01*
X149141335Y-79815000D01*
X149418574Y-79759853D01*
X149679727Y-79651680D01*
X149914759Y-79494637D01*
X150114637Y-79294759D01*
X150271680Y-79059727D01*
X150379853Y-78798574D01*
X150435000Y-78521335D01*
X150435000Y-78238665D01*
X150379853Y-77961426D01*
X150271680Y-77700273D01*
X150114637Y-77465241D01*
X149948515Y-77299119D01*
X167478724Y-77299119D01*
X170000000Y-79820395D01*
X172521276Y-77299119D01*
X172161088Y-76809452D01*
X171497118Y-76449151D01*
X170775615Y-76225306D01*
X170024305Y-76146520D01*
X169272062Y-76215822D01*
X168547792Y-76430548D01*
X167879330Y-76782445D01*
X167838912Y-76809452D01*
X167478724Y-77299119D01*
X149948515Y-77299119D01*
X149914759Y-77265363D01*
X149679727Y-77108320D01*
X149418574Y-77000147D01*
X149141335Y-76945000D01*
X148858665Y-76945000D01*
X148581426Y-77000147D01*
X148320273Y-77108320D01*
X148085241Y-77265363D01*
X147885363Y-77465241D01*
X147730000Y-77697759D01*
X147574637Y-77465241D01*
X147374759Y-77265363D01*
X147139727Y-77108320D01*
X146878574Y-77000147D01*
X146601335Y-76945000D01*
X146318665Y-76945000D01*
X146041426Y-77000147D01*
X145780273Y-77108320D01*
X145545241Y-77265363D01*
X145345363Y-77465241D01*
X145190000Y-77697759D01*
X145034637Y-77465241D01*
X144834759Y-77265363D01*
X144599727Y-77108320D01*
X144338574Y-77000147D01*
X144061335Y-76945000D01*
X143778665Y-76945000D01*
X143501426Y-77000147D01*
X143240273Y-77108320D01*
X143005241Y-77265363D01*
X142805363Y-77465241D01*
X142650000Y-77697759D01*
X142494637Y-77465241D01*
X142294759Y-77265363D01*
X142059727Y-77108320D01*
X141798574Y-77000147D01*
X141521335Y-76945000D01*
X141238665Y-76945000D01*
X140961426Y-77000147D01*
X140700273Y-77108320D01*
X140465241Y-77265363D01*
X140265363Y-77465241D01*
X140110000Y-77697759D01*
X139954637Y-77465241D01*
X139754759Y-77265363D01*
X139519727Y-77108320D01*
X139258574Y-77000147D01*
X138981335Y-76945000D01*
X138698665Y-76945000D01*
X138421426Y-77000147D01*
X138160273Y-77108320D01*
X137925241Y-77265363D01*
X137725363Y-77465241D01*
X137570000Y-77697759D01*
X137414637Y-77465241D01*
X137214759Y-77265363D01*
X136979727Y-77108320D01*
X136718574Y-77000147D01*
X136441335Y-76945000D01*
X136158665Y-76945000D01*
X135881426Y-77000147D01*
X135620273Y-77108320D01*
X135385241Y-77265363D01*
X135185363Y-77465241D01*
X135030000Y-77697759D01*
X134874637Y-77465241D01*
X134674759Y-77265363D01*
X134439727Y-77108320D01*
X134178574Y-77000147D01*
X133901335Y-76945000D01*
X133618665Y-76945000D01*
X133341426Y-77000147D01*
X133080273Y-77108320D01*
X132845241Y-77265363D01*
X132645363Y-77465241D01*
X132490000Y-77697759D01*
X132334637Y-77465241D01*
X132134759Y-77265363D01*
X131899727Y-77108320D01*
X131638574Y-77000147D01*
X131361335Y-76945000D01*
X131078665Y-76945000D01*
X130801426Y-77000147D01*
X130540273Y-77108320D01*
X130305241Y-77265363D01*
X130105363Y-77465241D01*
X129948320Y-77700273D01*
X129943933Y-77710865D01*
X129832385Y-77524869D01*
X129643414Y-77316481D01*
X129417420Y-77148963D01*
X129163087Y-77028754D01*
X129029039Y-76988096D01*
X128807000Y-77110085D01*
X128553000Y-77110085D01*
X128330961Y-76988096D01*
X128196913Y-77028754D01*
X127942580Y-77148963D01*
X127716586Y-77316481D01*
X127527615Y-77524869D01*
X127382930Y-77766119D01*
X127288091Y-78030960D01*
X116599694Y-78030960D01*
X116597961Y-78018325D01*
X116492795Y-77713912D01*
X116399814Y-77539956D01*
X116135413Y-77444192D01*
X115179605Y-78400000D01*
X114820395Y-78400000D01*
X113864587Y-77444192D01*
X113600186Y-77539956D01*
X113459296Y-77829571D01*
X113377616Y-78141108D01*
X113358282Y-78462595D01*
X112860050Y-78462595D01*
X112885000Y-78337165D01*
X112885000Y-78162835D01*
X112850990Y-77991855D01*
X112784277Y-77830795D01*
X112687424Y-77685845D01*
X112564155Y-77562576D01*
X112419205Y-77465723D01*
X112258145Y-77399010D01*
X112087165Y-77365000D01*
X111912835Y-77365000D01*
X111741855Y-77399010D01*
X111580795Y-77465723D01*
X111435845Y-77562576D01*
X111312576Y-77685845D01*
X111215723Y-77830795D01*
X111149010Y-77991855D01*
X111115000Y-78162835D01*
X111115000Y-78337165D01*
X111149010Y-78508145D01*
X111215723Y-78669205D01*
X111245107Y-78713181D01*
X111000000Y-78958289D01*
X110881702Y-78839991D01*
X110858632Y-78811880D01*
X110746470Y-78719831D01*
X110618506Y-78651433D01*
X110479656Y-78609313D01*
X110371443Y-78598655D01*
X110371440Y-78598655D01*
X110335257Y-78595091D01*
X110299074Y-78598655D01*
X107182450Y-78598655D01*
X107111097Y-78550978D01*
X106950037Y-78484265D01*
X106779057Y-78450255D01*
X106604727Y-78450255D01*
X106433747Y-78484265D01*
X106272687Y-78550978D01*
X106127737Y-78647831D01*
X106004468Y-78771100D01*
X105907615Y-78916050D01*
X105840902Y-79077110D01*
X105806892Y-79248090D01*
X63777071Y-79248090D01*
X63569452Y-78547792D01*
X63217555Y-77879330D01*
X63190548Y-77838912D01*
X62700881Y-77478724D01*
X60179605Y-80000000D01*
X59820395Y-80000000D01*
X57299119Y-77478724D01*
X56809452Y-77838912D01*
X56449151Y-78502882D01*
X56225306Y-79224385D01*
X56146520Y-79975695D01*
X50464715Y-79975695D01*
X56338312Y-77299119D01*
X57478724Y-77299119D01*
X60000000Y-79820395D01*
X62521276Y-77299119D01*
X62495876Y-77264587D01*
X114044192Y-77264587D01*
X115000000Y-78220395D01*
X115955808Y-77264587D01*
X115860044Y-77000186D01*
X115570429Y-76859296D01*
X115258892Y-76777616D01*
X114937405Y-76758282D01*
X114618325Y-76802039D01*
X114313912Y-76907205D01*
X114139956Y-77000186D01*
X114044192Y-77264587D01*
X62495876Y-77264587D01*
X62161088Y-76809452D01*
X61497118Y-76449151D01*
X60775615Y-76225306D01*
X60024305Y-76146520D01*
X59272062Y-76215822D01*
X58547792Y-76430548D01*
X57879330Y-76782445D01*
X57838912Y-76809452D01*
X57478724Y-77299119D01*
X56338312Y-77299119D01*
X64159575Y-73735000D01*
X165838568Y-73735000D01*
X176720774Y-78757557D01*
G04 #@! TA.AperFunction,Conductor*
D40*
G36*
X176720774Y-78757557D02*
G01*
X176653863Y-78777854D01*
X176555664Y-78803711D01*
X176534344Y-78814110D01*
X176511641Y-78820997D01*
X176422069Y-78868874D01*
X176330818Y-78913383D01*
X176311940Y-78927739D01*
X176291012Y-78938925D01*
X176212499Y-79003359D01*
X176131687Y-79064813D01*
X176115970Y-79082578D01*
X176097630Y-79097630D01*
X176033199Y-79176139D01*
X175965926Y-79252182D01*
X175953978Y-79272671D01*
X175938925Y-79291013D01*
X175891052Y-79380577D01*
X175839903Y-79468289D01*
X175832180Y-79490720D01*
X175820997Y-79511642D01*
X175791521Y-79608811D01*
X175758462Y-79704829D01*
X175755263Y-79728337D01*
X175748377Y-79751038D01*
X175738423Y-79852100D01*
X175724733Y-79952713D01*
X175730000Y-80038796D01*
X175730001Y-83423061D01*
X175723857Y-83485444D01*
X175748377Y-83734407D01*
X175811592Y-83942797D01*
X175820998Y-83973803D01*
X175938926Y-84194432D01*
X176097631Y-84387814D01*
X176146087Y-84427581D01*
X180244556Y-88526051D01*
X180244556Y-88988505D01*
X174723950Y-94509112D01*
X169996939Y-94509112D01*
X169133917Y-93646091D01*
X169094146Y-93597630D01*
X168900764Y-93438925D01*
X168680135Y-93320997D01*
X168589577Y-93293527D01*
X168335167Y-93039117D01*
X168295396Y-92990656D01*
X168102014Y-92831951D01*
X167881385Y-92714023D01*
X167641989Y-92641403D01*
X167455406Y-92623026D01*
X167455399Y-92623026D01*
X167393026Y-92616883D01*
X167330653Y-92623026D01*
X166550341Y-92623026D01*
X166549258Y-92619155D01*
X166492715Y-92507580D01*
X166415490Y-92409181D01*
X166400266Y-92396121D01*
X166410105Y-92378641D01*
X166449017Y-92259763D01*
X166463990Y-92135579D01*
X166454448Y-92010859D01*
X166141882Y-90238205D01*
X166108192Y-90117744D01*
X166051649Y-90006169D01*
X165974424Y-89907770D01*
X165879487Y-89826327D01*
X165770486Y-89764970D01*
X165651608Y-89726058D01*
X165527424Y-89711085D01*
X165402704Y-89720627D01*
X163630050Y-90033193D01*
X163509589Y-90066883D01*
X163398014Y-90123426D01*
X163299615Y-90200651D01*
X163269327Y-90235957D01*
X163243751Y-90214968D01*
X162959714Y-90063147D01*
X162651515Y-89969656D01*
X162411321Y-89945999D01*
X162330999Y-89938088D01*
X162250677Y-89945999D01*
X158991318Y-89945999D01*
X158910999Y-89938088D01*
X158830679Y-89945999D01*
X158830677Y-89945999D01*
X158590483Y-89969656D01*
X158282284Y-90063147D01*
X157998247Y-90214968D01*
X157865490Y-90323918D01*
X157654000Y-90303088D01*
X157333484Y-90334657D01*
X157025286Y-90428148D01*
X156741248Y-90579969D01*
X156554677Y-90733084D01*
X150122762Y-97165000D01*
X149754214Y-97165000D01*
X149474668Y-97049209D01*
X149106626Y-96976000D01*
X148731374Y-96976000D01*
X148363332Y-97049209D01*
X148016644Y-97192811D01*
X147704634Y-97401290D01*
X147439290Y-97666634D01*
X147230811Y-97978644D01*
X147087209Y-98325332D01*
X147014000Y-98693374D01*
X147014000Y-99068626D01*
X147087209Y-99436668D01*
X147230811Y-99783356D01*
X147439290Y-100095366D01*
X147704634Y-100360710D01*
X148016644Y-100569189D01*
X148363332Y-100712791D01*
X148731374Y-100786000D01*
X149106626Y-100786000D01*
X149474668Y-100712791D01*
X149821356Y-100569189D01*
X150022183Y-100435000D01*
X150719681Y-100435000D01*
X150800000Y-100442911D01*
X150880319Y-100435000D01*
X150880322Y-100435000D01*
X151120516Y-100411343D01*
X151428715Y-100317852D01*
X151712752Y-100166031D01*
X151961714Y-99961714D01*
X152012925Y-99899313D01*
X157275999Y-94636240D01*
X157276000Y-122939230D01*
X157269856Y-123001613D01*
X157294376Y-123250576D01*
X157339704Y-123400000D01*
X157366997Y-123489972D01*
X157484925Y-123710601D01*
X157643630Y-123903983D01*
X157692085Y-123943749D01*
X157794999Y-124046663D01*
X157794999Y-124903626D01*
X157788856Y-124965999D01*
X157794999Y-125028372D01*
X157794999Y-125028379D01*
X157813376Y-125214962D01*
X157885997Y-125454358D01*
X158003925Y-125674987D01*
X158162630Y-125868369D01*
X158211085Y-125908135D01*
X159211928Y-126908979D01*
X159211928Y-127251000D01*
X159224188Y-127375482D01*
X159260498Y-127495180D01*
X159319463Y-127605494D01*
X159398815Y-127702185D01*
X159495506Y-127781537D01*
X159605820Y-127840502D01*
X159725518Y-127876812D01*
X159850000Y-127889072D01*
X161350000Y-127889072D01*
X161474482Y-127876812D01*
X161594180Y-127840502D01*
X161704494Y-127781537D01*
X161801185Y-127702185D01*
X161880537Y-127605494D01*
X161939502Y-127495180D01*
X161975812Y-127375482D01*
X161988072Y-127251000D01*
X161988072Y-125751000D01*
X161975812Y-125626518D01*
X161939502Y-125506820D01*
X161880537Y-125396506D01*
X161801185Y-125299815D01*
X161704494Y-125220463D01*
X161594180Y-125161498D01*
X161474482Y-125125188D01*
X161350000Y-125112928D01*
X161323914Y-125112928D01*
X161377388Y-124917993D01*
X160600000Y-124140605D01*
X160585858Y-124154748D01*
X160406253Y-123975143D01*
X160420395Y-123961000D01*
X160779605Y-123961000D01*
X161556993Y-124738388D01*
X161795860Y-124672863D01*
X161911760Y-124425884D01*
X161977250Y-124161040D01*
X161989812Y-123888508D01*
X161948965Y-123618762D01*
X161856277Y-123362168D01*
X161795860Y-123249137D01*
X161556993Y-123183612D01*
X160779605Y-123961000D01*
X160420395Y-123961000D01*
X160406253Y-123946858D01*
X160585858Y-123767253D01*
X160600000Y-123781395D01*
X161377388Y-123004007D01*
X161311863Y-122765140D01*
X161153523Y-122690836D01*
X161256043Y-122648371D01*
X161482886Y-122496799D01*
X161675799Y-122303886D01*
X161827371Y-122077043D01*
X161931775Y-121824989D01*
X161985000Y-121557411D01*
X161985000Y-121284589D01*
X161931775Y-121017011D01*
X161827371Y-120764957D01*
X161675799Y-120538114D01*
X161482886Y-120345201D01*
X161256043Y-120193629D01*
X161153127Y-120151000D01*
X161256043Y-120108371D01*
X161482886Y-119956799D01*
X161675799Y-119763886D01*
X161827371Y-119537043D01*
X161931775Y-119284989D01*
X161985000Y-119017411D01*
X161985000Y-118744589D01*
X161931775Y-118477011D01*
X161827371Y-118224957D01*
X161675799Y-117998114D01*
X161482886Y-117805201D01*
X161256043Y-117653629D01*
X161153127Y-117611000D01*
X161256043Y-117568371D01*
X161482886Y-117416799D01*
X161675799Y-117223886D01*
X161827371Y-116997043D01*
X161931775Y-116744989D01*
X161980506Y-116500000D01*
X165861928Y-116500000D01*
X165861928Y-118500000D01*
X165874188Y-118624482D01*
X165910498Y-118744180D01*
X165969463Y-118854494D01*
X166048815Y-118951185D01*
X166145506Y-119030537D01*
X166255820Y-119089502D01*
X166375518Y-119125812D01*
X166500000Y-119138072D01*
X168500000Y-119138072D01*
X168624482Y-119125812D01*
X168744180Y-119089502D01*
X168854494Y-119030537D01*
X168951185Y-118951185D01*
X169030537Y-118854494D01*
X169085976Y-118750777D01*
X169139956Y-118899814D01*
X169429571Y-119040704D01*
X169741108Y-119122384D01*
X170062595Y-119141718D01*
X170381675Y-119097961D01*
X170686088Y-118992795D01*
X170860044Y-118899814D01*
X170955808Y-118635413D01*
X170000000Y-117679605D01*
X169985858Y-117693748D01*
X169806253Y-117514143D01*
X169820395Y-117500000D01*
X170179605Y-117500000D01*
X171135413Y-118455808D01*
X171165075Y-118445065D01*
X171230013Y-118542252D01*
X171457748Y-118769987D01*
X171725537Y-118948918D01*
X172023088Y-119072168D01*
X172338967Y-119135000D01*
X172661033Y-119135000D01*
X172976912Y-119072168D01*
X173274463Y-118948918D01*
X173542252Y-118769987D01*
X173769987Y-118542252D01*
X173948918Y-118274463D01*
X174072168Y-117976912D01*
X174098960Y-117842215D01*
X174469821Y-117842215D01*
X174469821Y-118016545D01*
X174503831Y-118187525D01*
X174570544Y-118348585D01*
X174667397Y-118493535D01*
X174790666Y-118616804D01*
X174935616Y-118713657D01*
X175096676Y-118780370D01*
X175180844Y-118797112D01*
X176612385Y-120228654D01*
X176620416Y-120248042D01*
X176717269Y-120392992D01*
X176840538Y-120516261D01*
X176985488Y-120613114D01*
X177146548Y-120679827D01*
X177317528Y-120713837D01*
X177491858Y-120713837D01*
X177662838Y-120679827D01*
X177823898Y-120613114D01*
X177968848Y-120516261D01*
X178092117Y-120392992D01*
X178188970Y-120248042D01*
X178255683Y-120086982D01*
X178289693Y-119916002D01*
X178289693Y-119741672D01*
X178255683Y-119570692D01*
X178188970Y-119409632D01*
X178092117Y-119264682D01*
X177968848Y-119141413D01*
X177823898Y-119044560D01*
X177662838Y-118977847D01*
X177491858Y-118943837D01*
X177410988Y-118943837D01*
X176222553Y-117755403D01*
X176205811Y-117671235D01*
X176139098Y-117510175D01*
X176042245Y-117365225D01*
X175918976Y-117241956D01*
X175774026Y-117145103D01*
X175612966Y-117078390D01*
X175441986Y-117044380D01*
X175267656Y-117044380D01*
X175096676Y-117078390D01*
X174935616Y-117145103D01*
X174790666Y-117241956D01*
X174667397Y-117365225D01*
X174570544Y-117510175D01*
X174503831Y-117671235D01*
X174469821Y-117842215D01*
X174098960Y-117842215D01*
X174135000Y-117661033D01*
X174135000Y-117338967D01*
X174072168Y-117023088D01*
X173948918Y-116725537D01*
X173769987Y-116457748D01*
X173542252Y-116230013D01*
X173274463Y-116051082D01*
X172976912Y-115927832D01*
X172661033Y-115865000D01*
X172338967Y-115865000D01*
X172023088Y-115927832D01*
X171725537Y-116051082D01*
X171457748Y-116230013D01*
X171230013Y-116457748D01*
X171165075Y-116554935D01*
X171135413Y-116544192D01*
X170179605Y-117500000D01*
X169820395Y-117500000D01*
X169806253Y-117485858D01*
X169985858Y-117306253D01*
X170000000Y-117320395D01*
X170955808Y-116364587D01*
X170860044Y-116100186D01*
X170570429Y-115959296D01*
X170258892Y-115877616D01*
X169937405Y-115858282D01*
X169618325Y-115902039D01*
X169313912Y-116007205D01*
X169139956Y-116100186D01*
X169085976Y-116249223D01*
X169030537Y-116145506D01*
X168951185Y-116048815D01*
X168854494Y-115969463D01*
X168744180Y-115910498D01*
X168624482Y-115874188D01*
X168500000Y-115861928D01*
X166500000Y-115861928D01*
X166375518Y-115874188D01*
X166255820Y-115910498D01*
X166145506Y-115969463D01*
X166048815Y-116048815D01*
X165969463Y-116145506D01*
X165910498Y-116255820D01*
X165874188Y-116375518D01*
X165861928Y-116500000D01*
X161980506Y-116500000D01*
X161985000Y-116477411D01*
X161985000Y-116204589D01*
X161931775Y-115937011D01*
X161827371Y-115684957D01*
X161675799Y-115458114D01*
X161482886Y-115265201D01*
X161256043Y-115113629D01*
X161153127Y-115071000D01*
X161256043Y-115028371D01*
X161482886Y-114876799D01*
X161675799Y-114683886D01*
X161827371Y-114457043D01*
X161931775Y-114204989D01*
X161985000Y-113937411D01*
X161985000Y-113664589D01*
X161931775Y-113397011D01*
X161827371Y-113144957D01*
X161675799Y-112918114D01*
X161482886Y-112725201D01*
X161256043Y-112573629D01*
X161153127Y-112531000D01*
X161256043Y-112488371D01*
X161482886Y-112336799D01*
X161675799Y-112143886D01*
X161827371Y-111917043D01*
X161931775Y-111664989D01*
X161985000Y-111397411D01*
X161985000Y-111124589D01*
X161931775Y-110857011D01*
X161827371Y-110604957D01*
X161675799Y-110378114D01*
X161482886Y-110185201D01*
X161256043Y-110033629D01*
X161153127Y-109991000D01*
X161256043Y-109948371D01*
X161482886Y-109796799D01*
X161675799Y-109603886D01*
X161827371Y-109377043D01*
X161931775Y-109124989D01*
X161985000Y-108857411D01*
X161985000Y-108584589D01*
X161948283Y-108400000D01*
X162761928Y-108400000D01*
X162761928Y-111600000D01*
X162774188Y-111724482D01*
X162810498Y-111844180D01*
X162869463Y-111954494D01*
X162948815Y-112051185D01*
X163045506Y-112130537D01*
X163155820Y-112189502D01*
X163275518Y-112225812D01*
X163400000Y-112238072D01*
X165400000Y-112238072D01*
X165524482Y-112225812D01*
X165644180Y-112189502D01*
X165754494Y-112130537D01*
X165851185Y-112051185D01*
X165930537Y-111954494D01*
X165989502Y-111844180D01*
X166025812Y-111724482D01*
X166038072Y-111600000D01*
X166038072Y-108400000D01*
X166025812Y-108275518D01*
X165989502Y-108155820D01*
X165930537Y-108045506D01*
X165851185Y-107948815D01*
X165754494Y-107869463D01*
X165644180Y-107810498D01*
X165524482Y-107774188D01*
X165400000Y-107761928D01*
X163400000Y-107761928D01*
X163275518Y-107774188D01*
X163155820Y-107810498D01*
X163045506Y-107869463D01*
X162948815Y-107948815D01*
X162869463Y-108045506D01*
X162810498Y-108155820D01*
X162774188Y-108275518D01*
X162761928Y-108400000D01*
X161948283Y-108400000D01*
X161931775Y-108317011D01*
X161827371Y-108064957D01*
X161675799Y-107838114D01*
X161482886Y-107645201D01*
X161256043Y-107493629D01*
X161153127Y-107451000D01*
X161256043Y-107408371D01*
X161482886Y-107256799D01*
X161675799Y-107063886D01*
X161827371Y-106837043D01*
X161931775Y-106584989D01*
X161985000Y-106317411D01*
X161985000Y-106044589D01*
X161931775Y-105777011D01*
X161827371Y-105524957D01*
X161675799Y-105298114D01*
X161482886Y-105105201D01*
X161256043Y-104953629D01*
X161153127Y-104911000D01*
X161256043Y-104868371D01*
X161482886Y-104716799D01*
X161675799Y-104523886D01*
X161827371Y-104297043D01*
X161931775Y-104044989D01*
X161985000Y-103777411D01*
X161985000Y-103504589D01*
X161931775Y-103237011D01*
X161827371Y-102984957D01*
X161729824Y-102838967D01*
X165865000Y-102838967D01*
X165865000Y-103161033D01*
X165927832Y-103476912D01*
X166051082Y-103774463D01*
X166230013Y-104042252D01*
X166457748Y-104269987D01*
X166725537Y-104448918D01*
X167023088Y-104572168D01*
X167338967Y-104635000D01*
X167661033Y-104635000D01*
X167976912Y-104572168D01*
X168274463Y-104448918D01*
X168542252Y-104269987D01*
X168676826Y-104135413D01*
X171544192Y-104135413D01*
X171639956Y-104399814D01*
X171929571Y-104540704D01*
X172241108Y-104622384D01*
X172562595Y-104641718D01*
X172881675Y-104597961D01*
X173186088Y-104492795D01*
X173360044Y-104399814D01*
X173455808Y-104135413D01*
X172500000Y-103179605D01*
X171544192Y-104135413D01*
X168676826Y-104135413D01*
X168769987Y-104042252D01*
X168948918Y-103774463D01*
X169072168Y-103476912D01*
X169135000Y-103161033D01*
X169135000Y-103062595D01*
X170858282Y-103062595D01*
X170902039Y-103381675D01*
X171007205Y-103686088D01*
X171100186Y-103860044D01*
X171364587Y-103955808D01*
X172320395Y-103000000D01*
X172679605Y-103000000D01*
X173635413Y-103955808D01*
X173899814Y-103860044D01*
X174040704Y-103570429D01*
X174122384Y-103258892D01*
X174141718Y-102937405D01*
X174097961Y-102618325D01*
X173992795Y-102313912D01*
X173899814Y-102139956D01*
X173635413Y-102044192D01*
X172679605Y-103000000D01*
X172320395Y-103000000D01*
X171364587Y-102044192D01*
X171100186Y-102139956D01*
X170959296Y-102429571D01*
X170877616Y-102741108D01*
X170858282Y-103062595D01*
X169135000Y-103062595D01*
X169135000Y-102838967D01*
X169072168Y-102523088D01*
X168948918Y-102225537D01*
X168769987Y-101957748D01*
X168676826Y-101864587D01*
X171544192Y-101864587D01*
X172500000Y-102820395D01*
X173455808Y-101864587D01*
X173360044Y-101600186D01*
X173070429Y-101459296D01*
X172758892Y-101377616D01*
X172437405Y-101358282D01*
X172118325Y-101402039D01*
X171813912Y-101507205D01*
X171639956Y-101600186D01*
X171544192Y-101864587D01*
X168676826Y-101864587D01*
X168542252Y-101730013D01*
X168274463Y-101551082D01*
X167976912Y-101427832D01*
X167661033Y-101365000D01*
X167338967Y-101365000D01*
X167023088Y-101427832D01*
X166725537Y-101551082D01*
X166457748Y-101730013D01*
X166230013Y-101957748D01*
X166051082Y-102225537D01*
X165927832Y-102523088D01*
X165865000Y-102838967D01*
X161729824Y-102838967D01*
X161675799Y-102758114D01*
X161482886Y-102565201D01*
X161256043Y-102413629D01*
X161153127Y-102371000D01*
X161256043Y-102328371D01*
X161482886Y-102176799D01*
X161675799Y-101983886D01*
X161827371Y-101757043D01*
X161931775Y-101504989D01*
X161985000Y-101237411D01*
X161985000Y-100964589D01*
X161931775Y-100697011D01*
X161827371Y-100444957D01*
X161675799Y-100218114D01*
X161482886Y-100025201D01*
X161256043Y-99873629D01*
X161153127Y-99831000D01*
X161256043Y-99788371D01*
X161482886Y-99636799D01*
X161675799Y-99443886D01*
X161827371Y-99217043D01*
X161931775Y-98964989D01*
X161985000Y-98697411D01*
X161985000Y-98424589D01*
X161931775Y-98157011D01*
X161827371Y-97904957D01*
X161675799Y-97678114D01*
X161482886Y-97485201D01*
X161256043Y-97333629D01*
X161153127Y-97291000D01*
X161256043Y-97248371D01*
X161423003Y-97136811D01*
X161482149Y-97331789D01*
X161633970Y-97615826D01*
X161838287Y-97864788D01*
X162013463Y-98008551D01*
X162013463Y-98068144D01*
X162005552Y-98148463D01*
X162013463Y-98228782D01*
X162013463Y-98228785D01*
X162037120Y-98468979D01*
X162130611Y-98777178D01*
X162282432Y-99061215D01*
X162486750Y-99310177D01*
X162549145Y-99361383D01*
X164150676Y-100962915D01*
X164337247Y-101116030D01*
X164621284Y-101267851D01*
X164929483Y-101361342D01*
X165249999Y-101392911D01*
X165570516Y-101361342D01*
X165878714Y-101267851D01*
X166162752Y-101116030D01*
X166411713Y-100911713D01*
X166616030Y-100662752D01*
X166686533Y-100530850D01*
X176363057Y-100530850D01*
X176443376Y-100538761D01*
X176523695Y-100530850D01*
X176523698Y-100530850D01*
X176763892Y-100507193D01*
X177072091Y-100413702D01*
X177356128Y-100261881D01*
X177605090Y-100057564D01*
X177656301Y-99995163D01*
X179742141Y-97909324D01*
X179742145Y-97909319D01*
X185044613Y-92606852D01*
X185576401Y-93138640D01*
X185627608Y-93201036D01*
X185842919Y-93377736D01*
X185685671Y-93409015D01*
X185524611Y-93475728D01*
X185379661Y-93572581D01*
X185256392Y-93695850D01*
X185159539Y-93840800D01*
X185092826Y-94001860D01*
X185058816Y-94172840D01*
X185058816Y-94347170D01*
X185082609Y-94466783D01*
X176021574Y-103527819D01*
X175937406Y-103544561D01*
X175776346Y-103611274D01*
X175631396Y-103708127D01*
X175508127Y-103831396D01*
X175411274Y-103976346D01*
X175344561Y-104137406D01*
X175310551Y-104308386D01*
X175310551Y-104482716D01*
X175344561Y-104653696D01*
X175411274Y-104814756D01*
X175508127Y-104959706D01*
X175631396Y-105082975D01*
X175776346Y-105179828D01*
X175937406Y-105246541D01*
X176108386Y-105280551D01*
X176282716Y-105280551D01*
X176453696Y-105246541D01*
X176614756Y-105179828D01*
X176662227Y-105148108D01*
X176631901Y-105248082D01*
X176617678Y-105392480D01*
X176621243Y-105428673D01*
X176621242Y-106957899D01*
X176573565Y-107029253D01*
X176506852Y-107190313D01*
X176472842Y-107361293D01*
X176472842Y-107535623D01*
X176506852Y-107706603D01*
X176529768Y-107761928D01*
X174600000Y-107761928D01*
X174475518Y-107774188D01*
X174355820Y-107810498D01*
X174245506Y-107869463D01*
X174148815Y-107948815D01*
X174069463Y-108045506D01*
X174010498Y-108155820D01*
X173974188Y-108275518D01*
X173961928Y-108400000D01*
X173961928Y-111600000D01*
X173974188Y-111724482D01*
X174010498Y-111844180D01*
X174069463Y-111954494D01*
X174148815Y-112051185D01*
X174245506Y-112130537D01*
X174355820Y-112189502D01*
X174475518Y-112225812D01*
X174600000Y-112238072D01*
X176600000Y-112238072D01*
X176724482Y-112225812D01*
X176844180Y-112189502D01*
X176954494Y-112130537D01*
X177051185Y-112051185D01*
X177130537Y-111954494D01*
X177189502Y-111844180D01*
X177225812Y-111724482D01*
X177238072Y-111600000D01*
X177238072Y-110834446D01*
X191882527Y-110834446D01*
X192297626Y-111114913D01*
X192912256Y-111174794D01*
X193526760Y-111113615D01*
X194117520Y-110933728D01*
X194661836Y-110642047D01*
X195037653Y-110332958D01*
X195046196Y-110341501D01*
X195133888Y-110253809D01*
X195138788Y-110249779D01*
X195142770Y-110244927D01*
X195225804Y-110161893D01*
X195217626Y-110153715D01*
X195526349Y-109777532D01*
X195621547Y-109285693D01*
X193450204Y-108386293D01*
X193102678Y-108038767D01*
X192923070Y-108218375D01*
X192953525Y-108248830D01*
X191882527Y-110834446D01*
X177238072Y-110834446D01*
X177238072Y-108400000D01*
X177230736Y-108325513D01*
X177270677Y-108333458D01*
X177445007Y-108333458D01*
X177615987Y-108299448D01*
X177748855Y-108244413D01*
X177757716Y-108248083D01*
X177928696Y-108282093D01*
X178103026Y-108282093D01*
X178142571Y-108274227D01*
X178115000Y-108412835D01*
X178115000Y-108587165D01*
X178149010Y-108758145D01*
X178215723Y-108919205D01*
X178312576Y-109064155D01*
X178435845Y-109187424D01*
X178580795Y-109284277D01*
X178741855Y-109350990D01*
X178912835Y-109385000D01*
X179087165Y-109385000D01*
X179258145Y-109350990D01*
X179419205Y-109284277D01*
X179564155Y-109187424D01*
X179687424Y-109064155D01*
X179784277Y-108919205D01*
X179850990Y-108758145D01*
X179867732Y-108673977D01*
X180513756Y-108027953D01*
X189758761Y-108027953D01*
X189819940Y-108642457D01*
X189999827Y-109233217D01*
X190291508Y-109777533D01*
X190600597Y-110153350D01*
X190592054Y-110161893D01*
X190679746Y-110249585D01*
X190683776Y-110254485D01*
X190688628Y-110258467D01*
X190771662Y-110341501D01*
X190779840Y-110333323D01*
X191156023Y-110642046D01*
X191647862Y-110737244D01*
X192547262Y-108565901D01*
X192894788Y-108218375D01*
X192715180Y-108038767D01*
X192684725Y-108069222D01*
X190099109Y-106998224D01*
X189818642Y-107413323D01*
X189758761Y-108027953D01*
X180513756Y-108027953D01*
X181778150Y-106763559D01*
X190196311Y-106763559D01*
X192367654Y-107662959D01*
X192715180Y-108010485D01*
X192894788Y-107830877D01*
X192923070Y-107830877D01*
X193102678Y-108010485D01*
X193133133Y-107980030D01*
X195718749Y-109051028D01*
X195999216Y-108635929D01*
X196059097Y-108021299D01*
X195997918Y-107406795D01*
X195818031Y-106816035D01*
X195526350Y-106271719D01*
X195217261Y-105895902D01*
X195225804Y-105887359D01*
X195138112Y-105799667D01*
X195134082Y-105794767D01*
X195129230Y-105790785D01*
X195046196Y-105707751D01*
X195038018Y-105715929D01*
X194661835Y-105407206D01*
X194169996Y-105312008D01*
X193270596Y-107483351D01*
X192923070Y-107830877D01*
X192894788Y-107830877D01*
X192864333Y-107800422D01*
X193935331Y-105214806D01*
X193520232Y-104934339D01*
X192905602Y-104874458D01*
X192291098Y-104935637D01*
X191700338Y-105115524D01*
X191156022Y-105407205D01*
X190780205Y-105716294D01*
X190771662Y-105707751D01*
X190683970Y-105795443D01*
X190679070Y-105799473D01*
X190675088Y-105804325D01*
X190592054Y-105887359D01*
X190600232Y-105895537D01*
X190291509Y-106271720D01*
X190196311Y-106763559D01*
X181778150Y-106763559D01*
X190948022Y-97593688D01*
X190976122Y-97570627D01*
X190999185Y-97542525D01*
X190999190Y-97542520D01*
X191068172Y-97458465D01*
X191096215Y-97406000D01*
X191136570Y-97330501D01*
X191178690Y-97191651D01*
X191189348Y-97083438D01*
X191189348Y-97083437D01*
X191192912Y-97047252D01*
X191189348Y-97011066D01*
X191189348Y-94416160D01*
X191411600Y-94638412D01*
X191462807Y-94700808D01*
X191711769Y-94905125D01*
X191995806Y-95056946D01*
X192304005Y-95150437D01*
X192544199Y-95174094D01*
X192544201Y-95174094D01*
X192624521Y-95182005D01*
X192704840Y-95174094D01*
X198597174Y-95174094D01*
X198677493Y-95182005D01*
X198757812Y-95174094D01*
X198757815Y-95174094D01*
X198998009Y-95150437D01*
X199306208Y-95056946D01*
X199590245Y-94905125D01*
X199839207Y-94700808D01*
X199890418Y-94638407D01*
X200171144Y-94357681D01*
X200233413Y-94341722D01*
X200346195Y-94287625D01*
X200446255Y-94212566D01*
X200529750Y-94119428D01*
X200593470Y-94011791D01*
X200660255Y-93868570D01*
X200816959Y-93711866D01*
X200970074Y-93525296D01*
X201121896Y-93241258D01*
X201215386Y-92933060D01*
X201246955Y-92612543D01*
X201246780Y-92610764D01*
X201311921Y-92471068D01*
X201353417Y-92353068D01*
X201371096Y-92229239D01*
X201364277Y-92104341D01*
X201333223Y-91983174D01*
X201279126Y-91870392D01*
X201204067Y-91770332D01*
X201110929Y-91686837D01*
X201003292Y-91623117D01*
X200847548Y-91550492D01*
X200765757Y-91450830D01*
X200516796Y-91246513D01*
X200232758Y-91094691D01*
X199924560Y-91001201D01*
X199604044Y-90969632D01*
X199602265Y-90969807D01*
X199462569Y-90904666D01*
X199344569Y-90863170D01*
X199220740Y-90845491D01*
X199095842Y-90852310D01*
X198974675Y-90883364D01*
X198861893Y-90937461D01*
X198761833Y-91012520D01*
X198705578Y-91075272D01*
X198672434Y-90967072D01*
X198534506Y-90710709D01*
X198349215Y-90486181D01*
X198234668Y-90383500D01*
X197975045Y-90396299D01*
X197470796Y-91477664D01*
X197488922Y-91486116D01*
X197381577Y-91716319D01*
X197363451Y-91707867D01*
X197354999Y-91725993D01*
X197124796Y-91618648D01*
X197133248Y-91600522D01*
X197115122Y-91592070D01*
X197222467Y-91361867D01*
X197240593Y-91370319D01*
X197744843Y-90288954D01*
X197587764Y-90081844D01*
X197435477Y-90060098D01*
X197144375Y-90062480D01*
X196859331Y-90121609D01*
X196591300Y-90235210D01*
X196482919Y-90308918D01*
X196427932Y-90032484D01*
X196315990Y-89762231D01*
X196270000Y-89693402D01*
X196270000Y-88335995D01*
X196275267Y-88297287D01*
X196270000Y-88211209D01*
X196270000Y-88187620D01*
X196266189Y-88148926D01*
X196259988Y-88047585D01*
X196253948Y-88024647D01*
X196251623Y-88001037D01*
X196222145Y-87903859D01*
X196196289Y-87805663D01*
X196185889Y-87784342D01*
X196179003Y-87761641D01*
X196162426Y-87730627D01*
X204265000Y-91470277D01*
X204265001Y-111164267D01*
X165951796Y-126882504D01*
X165929800Y-126894165D01*
X165910502Y-126909894D01*
X165894643Y-126929086D01*
X165882832Y-126951003D01*
X165875525Y-126974802D01*
X165873000Y-127000000D01*
X165873000Y-146249108D01*
X165838568Y-146265000D01*
X125127000Y-146265000D01*
X125127000Y-143276320D01*
X140420000Y-143276320D01*
X140420000Y-143723679D01*
X140441705Y-143944050D01*
X140527476Y-144226801D01*
X140666762Y-144487386D01*
X140854208Y-144715792D01*
X141082613Y-144903238D01*
X141343198Y-145042524D01*
X141625949Y-145128295D01*
X141920000Y-145157257D01*
X142214050Y-145128295D01*
X142496801Y-145042524D01*
X142757386Y-144903238D01*
X142985792Y-144715792D01*
X143173238Y-144487387D01*
X143190000Y-144456027D01*
X143206762Y-144487386D01*
X143394208Y-144715792D01*
X143622613Y-144903238D01*
X143883198Y-145042524D01*
X144165949Y-145128295D01*
X144460000Y-145157257D01*
X144754050Y-145128295D01*
X145036801Y-145042524D01*
X145297386Y-144903238D01*
X145525792Y-144715792D01*
X145530570Y-144709970D01*
X145545498Y-144759180D01*
X145604463Y-144869494D01*
X145683815Y-144966185D01*
X145780506Y-145045537D01*
X145890820Y-145104502D01*
X146010518Y-145140812D01*
X146135000Y-145153072D01*
X147865000Y-145153072D01*
X147989482Y-145140812D01*
X148109180Y-145104502D01*
X148219494Y-145045537D01*
X148316185Y-144966185D01*
X148395537Y-144869494D01*
X148454502Y-144759180D01*
X148490812Y-144639482D01*
X148503072Y-144515000D01*
X148503072Y-143276320D01*
X151920000Y-143276320D01*
X151920000Y-143723679D01*
X151941705Y-143944050D01*
X152027476Y-144226801D01*
X152166762Y-144487386D01*
X152354208Y-144715792D01*
X152582613Y-144903238D01*
X152843198Y-145042524D01*
X153125949Y-145128295D01*
X153420000Y-145157257D01*
X153714050Y-145128295D01*
X153996801Y-145042524D01*
X154257386Y-144903238D01*
X154485792Y-144715792D01*
X154673238Y-144487387D01*
X154690000Y-144456027D01*
X154706762Y-144487386D01*
X154894208Y-144715792D01*
X155122613Y-144903238D01*
X155383198Y-145042524D01*
X155665949Y-145128295D01*
X155960000Y-145157257D01*
X156254050Y-145128295D01*
X156536801Y-145042524D01*
X156797386Y-144903238D01*
X157025792Y-144715792D01*
X157030570Y-144709970D01*
X157045498Y-144759180D01*
X157104463Y-144869494D01*
X157183815Y-144966185D01*
X157280506Y-145045537D01*
X157390820Y-145104502D01*
X157510518Y-145140812D01*
X157635000Y-145153072D01*
X159365000Y-145153072D01*
X159489482Y-145140812D01*
X159609180Y-145104502D01*
X159719494Y-145045537D01*
X159816185Y-144966185D01*
X159895537Y-144869494D01*
X159954502Y-144759180D01*
X159990812Y-144639482D01*
X160003072Y-144515000D01*
X160003072Y-142485000D01*
X159990812Y-142360518D01*
X159954502Y-142240820D01*
X159895537Y-142130506D01*
X159816185Y-142033815D01*
X159719494Y-141954463D01*
X159609180Y-141895498D01*
X159489482Y-141859188D01*
X159365000Y-141846928D01*
X157635000Y-141846928D01*
X157510518Y-141859188D01*
X157390820Y-141895498D01*
X157280506Y-141954463D01*
X157183815Y-142033815D01*
X157104463Y-142130506D01*
X157045498Y-142240820D01*
X157030570Y-142290030D01*
X157025792Y-142284208D01*
X156797387Y-142096762D01*
X156536802Y-141957476D01*
X156254051Y-141871705D01*
X155960000Y-141842743D01*
X155665950Y-141871705D01*
X155383199Y-141957476D01*
X155122614Y-142096762D01*
X154894208Y-142284208D01*
X154706762Y-142512613D01*
X154690000Y-142543972D01*
X154673238Y-142512613D01*
X154485792Y-142284208D01*
X154257387Y-142096762D01*
X153996802Y-141957476D01*
X153714051Y-141871705D01*
X153420000Y-141842743D01*
X153125950Y-141871705D01*
X152843199Y-141957476D01*
X152582614Y-142096762D01*
X152354208Y-142284208D01*
X152166762Y-142512613D01*
X152027476Y-142773198D01*
X151941705Y-143055949D01*
X151920000Y-143276320D01*
X148503072Y-143276320D01*
X148503072Y-142485000D01*
X148490812Y-142360518D01*
X148454502Y-142240820D01*
X148395537Y-142130506D01*
X148316185Y-142033815D01*
X148219494Y-141954463D01*
X148109180Y-141895498D01*
X147989482Y-141859188D01*
X147865000Y-141846928D01*
X146135000Y-141846928D01*
X146010518Y-141859188D01*
X145890820Y-141895498D01*
X145780506Y-141954463D01*
X145683815Y-142033815D01*
X145604463Y-142130506D01*
X145545498Y-142240820D01*
X145530570Y-142290030D01*
X145525792Y-142284208D01*
X145297387Y-142096762D01*
X145036802Y-141957476D01*
X144754051Y-141871705D01*
X144460000Y-141842743D01*
X144165950Y-141871705D01*
X143883199Y-141957476D01*
X143622614Y-142096762D01*
X143394208Y-142284208D01*
X143206762Y-142512613D01*
X143190000Y-142543972D01*
X143173238Y-142512613D01*
X142985792Y-142284208D01*
X142757387Y-142096762D01*
X142496802Y-141957476D01*
X142214051Y-141871705D01*
X141920000Y-141842743D01*
X141625950Y-141871705D01*
X141343199Y-141957476D01*
X141082614Y-142096762D01*
X140854208Y-142284208D01*
X140666762Y-142512613D01*
X140527476Y-142773198D01*
X140441705Y-143055949D01*
X140420000Y-143276320D01*
X125127000Y-143276320D01*
X125127000Y-134000000D01*
X125124560Y-133975224D01*
X125117333Y-133951399D01*
X125105597Y-133929443D01*
X125089803Y-133910197D01*
X125070557Y-133894403D01*
X125048601Y-133882667D01*
X125024776Y-133875440D01*
X125000000Y-133873000D01*
X113127000Y-133873000D01*
X113127000Y-133604000D01*
X151773319Y-133604000D01*
X151803970Y-133915204D01*
X151894745Y-134214449D01*
X152042155Y-134490235D01*
X152145446Y-134616095D01*
X152061506Y-134660963D01*
X151964815Y-134740315D01*
X151885463Y-134837006D01*
X151826498Y-134947320D01*
X151790188Y-135067018D01*
X151777928Y-135191500D01*
X151777928Y-137096500D01*
X151790188Y-137220982D01*
X151826498Y-137340680D01*
X151885463Y-137450994D01*
X151964815Y-137547685D01*
X152061506Y-137627037D01*
X152171820Y-137686002D01*
X152291518Y-137722312D01*
X152416000Y-137734572D01*
X154416000Y-137734572D01*
X154540482Y-137722312D01*
X154660180Y-137686002D01*
X154770494Y-137627037D01*
X154867185Y-137547685D01*
X154946537Y-137450994D01*
X155005502Y-137340680D01*
X155041812Y-137220982D01*
X155054072Y-137096500D01*
X155054072Y-135191500D01*
X155041812Y-135067018D01*
X155005502Y-134947320D01*
X154946537Y-134837006D01*
X154867185Y-134740315D01*
X154770494Y-134660963D01*
X154686554Y-134616095D01*
X154789845Y-134490235D01*
X154923343Y-134240475D01*
X156965000Y-134240475D01*
X156965000Y-134759525D01*
X157066261Y-135268601D01*
X157264893Y-135748141D01*
X157553262Y-136179715D01*
X157920285Y-136546738D01*
X158351859Y-136835107D01*
X158831399Y-137033739D01*
X159340475Y-137135000D01*
X159859525Y-137135000D01*
X160368601Y-137033739D01*
X160848141Y-136835107D01*
X161279715Y-136546738D01*
X161646738Y-136179715D01*
X161935107Y-135748141D01*
X162133739Y-135268601D01*
X162235000Y-134759525D01*
X162235000Y-134240475D01*
X162133739Y-133731399D01*
X161935107Y-133251859D01*
X161646738Y-132820285D01*
X161279715Y-132453262D01*
X160848141Y-132164893D01*
X160368601Y-131966261D01*
X159859525Y-131865000D01*
X159340475Y-131865000D01*
X158831399Y-131966261D01*
X158351859Y-132164893D01*
X157920285Y-132453262D01*
X157553262Y-132820285D01*
X157264893Y-133251859D01*
X157066261Y-133731399D01*
X156965000Y-134240475D01*
X154923343Y-134240475D01*
X154937255Y-134214449D01*
X155028030Y-133915204D01*
X155058681Y-133604000D01*
X155028030Y-133292796D01*
X154937255Y-132993551D01*
X154789845Y-132717765D01*
X154591463Y-132476037D01*
X154412101Y-132328837D01*
X154597315Y-132173437D01*
X154791969Y-131930923D01*
X154935571Y-131655094D01*
X155006563Y-131436980D01*
X154886594Y-131191000D01*
X153543000Y-131191000D01*
X153543000Y-131211000D01*
X153289000Y-131211000D01*
X153289000Y-131191000D01*
X151945406Y-131191000D01*
X151825437Y-131436980D01*
X151896429Y-131655094D01*
X152040031Y-131930923D01*
X152234685Y-132173437D01*
X152419899Y-132328837D01*
X152240537Y-132476037D01*
X152042155Y-132717765D01*
X151894745Y-132993551D01*
X151803970Y-133292796D01*
X151773319Y-133604000D01*
X113127000Y-133604000D01*
X113127000Y-130691020D01*
X151825437Y-130691020D01*
X151945406Y-130937000D01*
X153289000Y-130937000D01*
X153289000Y-129638430D01*
X153543000Y-129638430D01*
X153543000Y-130937000D01*
X154886594Y-130937000D01*
X155006563Y-130691020D01*
X154935571Y-130472906D01*
X154791969Y-130197077D01*
X154597315Y-129954563D01*
X154359089Y-129754684D01*
X154086446Y-129605121D01*
X153789863Y-129511622D01*
X153543000Y-129638430D01*
X153289000Y-129638430D01*
X153042137Y-129511622D01*
X152745554Y-129605121D01*
X152472911Y-129754684D01*
X152234685Y-129954563D01*
X152040031Y-130197077D01*
X151896429Y-130472906D01*
X151825437Y-130691020D01*
X113127000Y-130691020D01*
X113127000Y-123000000D01*
X113124560Y-122975224D01*
X113117333Y-122951399D01*
X113105597Y-122929443D01*
X113089803Y-122910197D01*
X113070557Y-122894403D01*
X113048601Y-122882667D01*
X113024776Y-122875440D01*
X113000000Y-122873000D01*
X101627000Y-122873000D01*
X101627000Y-121000000D01*
X125361928Y-121000000D01*
X125361928Y-126400000D01*
X125374188Y-126524482D01*
X125410498Y-126644180D01*
X125469463Y-126754494D01*
X125548815Y-126851185D01*
X125645506Y-126930537D01*
X125755820Y-126989502D01*
X125875518Y-127025812D01*
X126000000Y-127038072D01*
X131540000Y-127038072D01*
X131664482Y-127025812D01*
X131784180Y-126989502D01*
X131894494Y-126930537D01*
X131991185Y-126851185D01*
X132070537Y-126754494D01*
X132129502Y-126644180D01*
X132165812Y-126524482D01*
X132178072Y-126400000D01*
X137821928Y-126400000D01*
X137834188Y-126524482D01*
X137870498Y-126644180D01*
X137929463Y-126754494D01*
X138008815Y-126851185D01*
X138105506Y-126930537D01*
X138215820Y-126989502D01*
X138335518Y-127025812D01*
X138460000Y-127038072D01*
X139674250Y-127035000D01*
X139833000Y-126876250D01*
X139833000Y-125027000D01*
X140087000Y-125027000D01*
X140087000Y-126876250D01*
X140245750Y-127035000D01*
X140987872Y-127036878D01*
X141000000Y-127038072D01*
X141230000Y-127037490D01*
X141460000Y-127038072D01*
X141472128Y-127036878D01*
X142214250Y-127035000D01*
X142373000Y-126876250D01*
X142373000Y-125027000D01*
X142627000Y-125027000D01*
X142627000Y-126876250D01*
X142785750Y-127035000D01*
X144000000Y-127038072D01*
X144124482Y-127025812D01*
X144244180Y-126989502D01*
X144354494Y-126930537D01*
X144451185Y-126851185D01*
X144530537Y-126754494D01*
X144589502Y-126644180D01*
X144625812Y-126524482D01*
X144638072Y-126400000D01*
X144635000Y-125185750D01*
X144476250Y-125027000D01*
X142627000Y-125027000D01*
X142373000Y-125027000D01*
X140087000Y-125027000D01*
X139833000Y-125027000D01*
X137983750Y-125027000D01*
X137825000Y-125185750D01*
X137821928Y-126400000D01*
X132178072Y-126400000D01*
X132178072Y-123400000D01*
X137821928Y-123400000D01*
X137822687Y-123700000D01*
X137821928Y-124000000D01*
X137823486Y-124015819D01*
X137825000Y-124614250D01*
X137983750Y-124773000D01*
X139833000Y-124773000D01*
X139833000Y-122627000D01*
X140087000Y-122627000D01*
X140087000Y-124773000D01*
X142373000Y-124773000D01*
X142373000Y-122627000D01*
X142627000Y-122627000D01*
X142627000Y-124773000D01*
X144476250Y-124773000D01*
X144635000Y-124614250D01*
X144636514Y-124015819D01*
X144638072Y-124000000D01*
X144637313Y-123700000D01*
X144638072Y-123400000D01*
X144636514Y-123384181D01*
X144635000Y-122785750D01*
X144476250Y-122627000D01*
X142627000Y-122627000D01*
X142373000Y-122627000D01*
X140087000Y-122627000D01*
X139833000Y-122627000D01*
X137983750Y-122627000D01*
X137825000Y-122785750D01*
X137823486Y-123384181D01*
X137821928Y-123400000D01*
X132178072Y-123400000D01*
X132178072Y-121000000D01*
X137821928Y-121000000D01*
X137825000Y-122214250D01*
X137983750Y-122373000D01*
X139833000Y-122373000D01*
X139833000Y-120523750D01*
X140087000Y-120523750D01*
X140087000Y-122373000D01*
X142373000Y-122373000D01*
X142373000Y-120523750D01*
X142627000Y-120523750D01*
X142627000Y-122373000D01*
X144476250Y-122373000D01*
X144635000Y-122214250D01*
X144638072Y-121000000D01*
X144625812Y-120875518D01*
X144589502Y-120755820D01*
X144530537Y-120645506D01*
X144451185Y-120548815D01*
X144354494Y-120469463D01*
X144244180Y-120410498D01*
X144124482Y-120374188D01*
X144000000Y-120361928D01*
X142785750Y-120365000D01*
X142627000Y-120523750D01*
X142373000Y-120523750D01*
X142214250Y-120365000D01*
X141472128Y-120363122D01*
X141460000Y-120361928D01*
X141230000Y-120362510D01*
X141000000Y-120361928D01*
X140987872Y-120363122D01*
X140245750Y-120365000D01*
X140087000Y-120523750D01*
X139833000Y-120523750D01*
X139674250Y-120365000D01*
X138460000Y-120361928D01*
X138335518Y-120374188D01*
X138215820Y-120410498D01*
X138105506Y-120469463D01*
X138008815Y-120548815D01*
X137929463Y-120645506D01*
X137870498Y-120755820D01*
X137834188Y-120875518D01*
X137821928Y-121000000D01*
X132178072Y-121000000D01*
X132165812Y-120875518D01*
X132129502Y-120755820D01*
X132070537Y-120645506D01*
X131991185Y-120548815D01*
X131894494Y-120469463D01*
X131784180Y-120410498D01*
X131664482Y-120374188D01*
X131540000Y-120361928D01*
X126000000Y-120361928D01*
X125875518Y-120374188D01*
X125755820Y-120410498D01*
X125645506Y-120469463D01*
X125548815Y-120548815D01*
X125469463Y-120645506D01*
X125410498Y-120755820D01*
X125374188Y-120875518D01*
X125361928Y-121000000D01*
X101627000Y-121000000D01*
X101627000Y-117838967D01*
X141365000Y-117838967D01*
X141365000Y-118161033D01*
X141427832Y-118476912D01*
X141551082Y-118774463D01*
X141730013Y-119042252D01*
X141957748Y-119269987D01*
X142225537Y-119448918D01*
X142523088Y-119572168D01*
X142838967Y-119635000D01*
X143161033Y-119635000D01*
X143476912Y-119572168D01*
X143774463Y-119448918D01*
X144042252Y-119269987D01*
X144269987Y-119042252D01*
X144448918Y-118774463D01*
X144572168Y-118476912D01*
X144635000Y-118161033D01*
X144635000Y-117838967D01*
X144572168Y-117523088D01*
X144448918Y-117225537D01*
X144269987Y-116957748D01*
X144042252Y-116730013D01*
X143774463Y-116551082D01*
X143476912Y-116427832D01*
X143161033Y-116365000D01*
X142838967Y-116365000D01*
X142523088Y-116427832D01*
X142225537Y-116551082D01*
X141957748Y-116730013D01*
X141730013Y-116957748D01*
X141551082Y-117225537D01*
X141427832Y-117523088D01*
X141365000Y-117838967D01*
X101627000Y-117838967D01*
X101627000Y-109500000D01*
X101624560Y-109475224D01*
X101617333Y-109451399D01*
X101605597Y-109429443D01*
X101582651Y-109403574D01*
X94627000Y-103441587D01*
X94627000Y-101989721D01*
X132865000Y-101989721D01*
X132865000Y-102410279D01*
X132947047Y-102822756D01*
X133107988Y-103211302D01*
X133341637Y-103560983D01*
X133639017Y-103858363D01*
X133988698Y-104092012D01*
X134377244Y-104252953D01*
X134789721Y-104335000D01*
X135210279Y-104335000D01*
X135622756Y-104252953D01*
X136011302Y-104092012D01*
X136360983Y-103858363D01*
X136658363Y-103560983D01*
X136892012Y-103211302D01*
X137052953Y-102822756D01*
X137135000Y-102410279D01*
X137135000Y-101989721D01*
X137052953Y-101577244D01*
X136892012Y-101188698D01*
X136658363Y-100839017D01*
X136360983Y-100541637D01*
X136011302Y-100307988D01*
X135622756Y-100147047D01*
X135210279Y-100065000D01*
X134789721Y-100065000D01*
X134377244Y-100147047D01*
X133988698Y-100307988D01*
X133639017Y-100541637D01*
X133341637Y-100839017D01*
X133107988Y-101188698D01*
X132947047Y-101577244D01*
X132865000Y-101989721D01*
X94627000Y-101989721D01*
X94627000Y-92600000D01*
X125361928Y-92600000D01*
X125361928Y-98000000D01*
X125374188Y-98124482D01*
X125410498Y-98244180D01*
X125469463Y-98354494D01*
X125548815Y-98451185D01*
X125645506Y-98530537D01*
X125755820Y-98589502D01*
X125875518Y-98625812D01*
X126000000Y-98638072D01*
X131540000Y-98638072D01*
X131664482Y-98625812D01*
X131784180Y-98589502D01*
X131894494Y-98530537D01*
X131991185Y-98451185D01*
X132070537Y-98354494D01*
X132129502Y-98244180D01*
X132165812Y-98124482D01*
X132178072Y-98000000D01*
X137821928Y-98000000D01*
X137834188Y-98124482D01*
X137870498Y-98244180D01*
X137929463Y-98354494D01*
X138008815Y-98451185D01*
X138105506Y-98530537D01*
X138215820Y-98589502D01*
X138335518Y-98625812D01*
X138460000Y-98638072D01*
X139674250Y-98635000D01*
X139833000Y-98476250D01*
X139833000Y-96627000D01*
X140087000Y-96627000D01*
X140087000Y-98476250D01*
X140245750Y-98635000D01*
X140987872Y-98636878D01*
X141000000Y-98638072D01*
X141230000Y-98637490D01*
X141460000Y-98638072D01*
X141472128Y-98636878D01*
X142214250Y-98635000D01*
X142373000Y-98476250D01*
X142373000Y-96627000D01*
X142627000Y-96627000D01*
X142627000Y-98476250D01*
X142785750Y-98635000D01*
X144000000Y-98638072D01*
X144124482Y-98625812D01*
X144244180Y-98589502D01*
X144354494Y-98530537D01*
X144451185Y-98451185D01*
X144530537Y-98354494D01*
X144589502Y-98244180D01*
X144625812Y-98124482D01*
X144638072Y-98000000D01*
X144635000Y-96785750D01*
X144476250Y-96627000D01*
X142627000Y-96627000D01*
X142373000Y-96627000D01*
X140087000Y-96627000D01*
X139833000Y-96627000D01*
X137983750Y-96627000D01*
X137825000Y-96785750D01*
X137821928Y-98000000D01*
X132178072Y-98000000D01*
X132178072Y-95691653D01*
X133687952Y-95691653D01*
X133843962Y-96007214D01*
X134218745Y-96198020D01*
X134623551Y-96312044D01*
X135042824Y-96344902D01*
X135460451Y-96295334D01*
X135860383Y-96165243D01*
X136156038Y-96007214D01*
X136312048Y-95691653D01*
X135000000Y-94379605D01*
X133687952Y-95691653D01*
X132178072Y-95691653D01*
X132178072Y-94242824D01*
X132855098Y-94242824D01*
X132904666Y-94660451D01*
X133034757Y-95060383D01*
X133192786Y-95356038D01*
X133508347Y-95512048D01*
X134820395Y-94200000D01*
X135179605Y-94200000D01*
X136491653Y-95512048D01*
X136807214Y-95356038D01*
X136988476Y-95000000D01*
X137821928Y-95000000D01*
X137822687Y-95300000D01*
X137821928Y-95600000D01*
X137823486Y-95615819D01*
X137825000Y-96214250D01*
X137983750Y-96373000D01*
X139833000Y-96373000D01*
X139833000Y-94227000D01*
X140087000Y-94227000D01*
X140087000Y-96373000D01*
X142373000Y-96373000D01*
X142373000Y-94227000D01*
X142627000Y-94227000D01*
X142627000Y-96373000D01*
X144476250Y-96373000D01*
X144635000Y-96214250D01*
X144636514Y-95615819D01*
X144638072Y-95600000D01*
X144637313Y-95300000D01*
X144638072Y-95000000D01*
X144636514Y-94984181D01*
X144635000Y-94385750D01*
X144476250Y-94227000D01*
X142627000Y-94227000D01*
X142373000Y-94227000D01*
X140087000Y-94227000D01*
X139833000Y-94227000D01*
X137983750Y-94227000D01*
X137825000Y-94385750D01*
X137823486Y-94984181D01*
X137821928Y-95000000D01*
X136988476Y-95000000D01*
X136998020Y-94981255D01*
X137112044Y-94576449D01*
X137144902Y-94157176D01*
X137095334Y-93739549D01*
X136965243Y-93339617D01*
X136807214Y-93043962D01*
X136491653Y-92887952D01*
X135179605Y-94200000D01*
X134820395Y-94200000D01*
X133508347Y-92887952D01*
X133192786Y-93043962D01*
X133001980Y-93418745D01*
X132887956Y-93823551D01*
X132855098Y-94242824D01*
X132178072Y-94242824D01*
X132178072Y-92708347D01*
X133687952Y-92708347D01*
X135000000Y-94020395D01*
X136312048Y-92708347D01*
X136258483Y-92600000D01*
X137821928Y-92600000D01*
X137825000Y-93814250D01*
X137983750Y-93973000D01*
X139833000Y-93973000D01*
X139833000Y-92123750D01*
X140087000Y-92123750D01*
X140087000Y-93973000D01*
X142373000Y-93973000D01*
X142373000Y-92123750D01*
X142627000Y-92123750D01*
X142627000Y-93973000D01*
X144476250Y-93973000D01*
X144635000Y-93814250D01*
X144638072Y-92600000D01*
X144625812Y-92475518D01*
X144589502Y-92355820D01*
X144530537Y-92245506D01*
X144451185Y-92148815D01*
X144354494Y-92069463D01*
X144244180Y-92010498D01*
X144124482Y-91974188D01*
X144000000Y-91961928D01*
X142785750Y-91965000D01*
X142627000Y-92123750D01*
X142373000Y-92123750D01*
X142214250Y-91965000D01*
X141472128Y-91963122D01*
X141460000Y-91961928D01*
X141230000Y-91962510D01*
X141000000Y-91961928D01*
X140987872Y-91963122D01*
X140245750Y-91965000D01*
X140087000Y-92123750D01*
X139833000Y-92123750D01*
X139674250Y-91965000D01*
X138460000Y-91961928D01*
X138335518Y-91974188D01*
X138215820Y-92010498D01*
X138105506Y-92069463D01*
X138008815Y-92148815D01*
X137929463Y-92245506D01*
X137870498Y-92355820D01*
X137834188Y-92475518D01*
X137821928Y-92600000D01*
X136258483Y-92600000D01*
X136156038Y-92392786D01*
X135781255Y-92201980D01*
X135376449Y-92087956D01*
X134957176Y-92055098D01*
X134539549Y-92104666D01*
X134139617Y-92234757D01*
X133843962Y-92392786D01*
X133687952Y-92708347D01*
X132178072Y-92708347D01*
X132178072Y-92600000D01*
X132165812Y-92475518D01*
X132129502Y-92355820D01*
X132070537Y-92245506D01*
X131991185Y-92148815D01*
X131894494Y-92069463D01*
X131784180Y-92010498D01*
X131664482Y-91974188D01*
X131540000Y-91961928D01*
X126000000Y-91961928D01*
X125875518Y-91974188D01*
X125755820Y-92010498D01*
X125645506Y-92069463D01*
X125548815Y-92148815D01*
X125469463Y-92245506D01*
X125410498Y-92355820D01*
X125374188Y-92475518D01*
X125361928Y-92600000D01*
X94627000Y-92600000D01*
X94627000Y-91000000D01*
X94624560Y-90975224D01*
X94617333Y-90951399D01*
X94605597Y-90929443D01*
X94589803Y-90910197D01*
X94570557Y-90894403D01*
X94548601Y-90882667D01*
X94524776Y-90875440D01*
X94500000Y-90873000D01*
X85500000Y-90873000D01*
X85475224Y-90875440D01*
X85451399Y-90882667D01*
X85429443Y-90894403D01*
X85410197Y-90910197D01*
X85394403Y-90929443D01*
X85382667Y-90951399D01*
X85375440Y-90975224D01*
X85373000Y-91000000D01*
X85373000Y-119373000D01*
X56078490Y-119373000D01*
X54641990Y-116500000D01*
X55861928Y-116500000D01*
X55861928Y-118500000D01*
X55874188Y-118624482D01*
X55910498Y-118744180D01*
X55969463Y-118854494D01*
X56048815Y-118951185D01*
X56145506Y-119030537D01*
X56255820Y-119089502D01*
X56375518Y-119125812D01*
X56500000Y-119138072D01*
X58500000Y-119138072D01*
X58624482Y-119125812D01*
X58744180Y-119089502D01*
X58854494Y-119030537D01*
X58951185Y-118951185D01*
X59030537Y-118854494D01*
X59085976Y-118750777D01*
X59139956Y-118899814D01*
X59429571Y-119040704D01*
X59741108Y-119122384D01*
X60062595Y-119141718D01*
X60381675Y-119097961D01*
X60686088Y-118992795D01*
X60860044Y-118899814D01*
X60955808Y-118635413D01*
X60000000Y-117679605D01*
X59985858Y-117693748D01*
X59806253Y-117514143D01*
X59820395Y-117500000D01*
X60179605Y-117500000D01*
X61135413Y-118455808D01*
X61165075Y-118445065D01*
X61230013Y-118542252D01*
X61457748Y-118769987D01*
X61725537Y-118948918D01*
X62023088Y-119072168D01*
X62338967Y-119135000D01*
X62661033Y-119135000D01*
X62976912Y-119072168D01*
X63274463Y-118948918D01*
X63542252Y-118769987D01*
X63769987Y-118542252D01*
X63948918Y-118274463D01*
X64072168Y-117976912D01*
X64135000Y-117661033D01*
X64135000Y-117338967D01*
X64072168Y-117023088D01*
X63948918Y-116725537D01*
X63769987Y-116457748D01*
X63542252Y-116230013D01*
X63274463Y-116051082D01*
X62976912Y-115927832D01*
X62661033Y-115865000D01*
X62338967Y-115865000D01*
X62023088Y-115927832D01*
X61725537Y-116051082D01*
X61457748Y-116230013D01*
X61230013Y-116457748D01*
X61165075Y-116554935D01*
X61135413Y-116544192D01*
X60179605Y-117500000D01*
X59820395Y-117500000D01*
X59806253Y-117485858D01*
X59985858Y-117306253D01*
X60000000Y-117320395D01*
X60955808Y-116364587D01*
X60860044Y-116100186D01*
X60570429Y-115959296D01*
X60258892Y-115877616D01*
X59937405Y-115858282D01*
X59618325Y-115902039D01*
X59313912Y-116007205D01*
X59139956Y-116100186D01*
X59085976Y-116249223D01*
X59030537Y-116145506D01*
X58951185Y-116048815D01*
X58854494Y-115969463D01*
X58744180Y-115910498D01*
X58624482Y-115874188D01*
X58500000Y-115861928D01*
X56500000Y-115861928D01*
X56375518Y-115874188D01*
X56255820Y-115910498D01*
X56145506Y-115969463D01*
X56048815Y-116048815D01*
X55969463Y-116145506D01*
X55910498Y-116255820D01*
X55874188Y-116375518D01*
X55861928Y-116500000D01*
X54641990Y-116500000D01*
X54613592Y-116443204D01*
X54600329Y-116422134D01*
X54583211Y-116404057D01*
X54565341Y-116391098D01*
X48998512Y-113051000D01*
X74911928Y-113051000D01*
X74911928Y-114551000D01*
X74924188Y-114675482D01*
X74960498Y-114795180D01*
X75019463Y-114905494D01*
X75098815Y-115002185D01*
X75195506Y-115081537D01*
X75305820Y-115140502D01*
X75425518Y-115176812D01*
X75550000Y-115189072D01*
X77050000Y-115189072D01*
X77174482Y-115176812D01*
X77294180Y-115140502D01*
X77404494Y-115081537D01*
X77501185Y-115002185D01*
X77580537Y-114905494D01*
X77639502Y-114795180D01*
X77675812Y-114675482D01*
X77688072Y-114551000D01*
X77688072Y-113051000D01*
X77675812Y-112926518D01*
X77639502Y-112806820D01*
X77580537Y-112696506D01*
X77501185Y-112599815D01*
X77404494Y-112520463D01*
X77294180Y-112461498D01*
X77174482Y-112425188D01*
X77066517Y-112414555D01*
X77182886Y-112336799D01*
X77375799Y-112143886D01*
X77527371Y-111917043D01*
X77631775Y-111664989D01*
X77685000Y-111397411D01*
X77685000Y-111124589D01*
X77631775Y-110857011D01*
X77527371Y-110604957D01*
X77375799Y-110378114D01*
X77182886Y-110185201D01*
X76956043Y-110033629D01*
X76853127Y-109991000D01*
X76956043Y-109948371D01*
X77182886Y-109796799D01*
X77375799Y-109603886D01*
X77527371Y-109377043D01*
X77631775Y-109124989D01*
X77685000Y-108857411D01*
X77685000Y-108584589D01*
X77631775Y-108317011D01*
X77527371Y-108064957D01*
X77375799Y-107838114D01*
X77182886Y-107645201D01*
X76956043Y-107493629D01*
X76853127Y-107451000D01*
X76956043Y-107408371D01*
X77182886Y-107256799D01*
X77375799Y-107063886D01*
X77527371Y-106837043D01*
X77631775Y-106584989D01*
X77685000Y-106317411D01*
X77685000Y-106044589D01*
X77631775Y-105777011D01*
X77527371Y-105524957D01*
X77375799Y-105298114D01*
X77182886Y-105105201D01*
X76956043Y-104953629D01*
X76703989Y-104849225D01*
X76436411Y-104796000D01*
X76163589Y-104796000D01*
X75896011Y-104849225D01*
X75643957Y-104953629D01*
X75417114Y-105105201D01*
X75224201Y-105298114D01*
X75072629Y-105524957D01*
X74968225Y-105777011D01*
X74915000Y-106044589D01*
X74915000Y-106317411D01*
X74968225Y-106584989D01*
X75072629Y-106837043D01*
X75224201Y-107063886D01*
X75417114Y-107256799D01*
X75643957Y-107408371D01*
X75746873Y-107451000D01*
X75643957Y-107493629D01*
X75417114Y-107645201D01*
X75224201Y-107838114D01*
X75072629Y-108064957D01*
X74968225Y-108317011D01*
X74915000Y-108584589D01*
X74915000Y-108857411D01*
X74968225Y-109124989D01*
X75072629Y-109377043D01*
X75224201Y-109603886D01*
X75417114Y-109796799D01*
X75643957Y-109948371D01*
X75746873Y-109991000D01*
X75643957Y-110033629D01*
X75417114Y-110185201D01*
X75224201Y-110378114D01*
X75072629Y-110604957D01*
X74968225Y-110857011D01*
X74915000Y-111124589D01*
X74915000Y-111397411D01*
X74968225Y-111664989D01*
X75072629Y-111917043D01*
X75224201Y-112143886D01*
X75417114Y-112336799D01*
X75533483Y-112414555D01*
X75425518Y-112425188D01*
X75305820Y-112461498D01*
X75195506Y-112520463D01*
X75098815Y-112599815D01*
X75019463Y-112696506D01*
X74960498Y-112806820D01*
X74924188Y-112926518D01*
X74911928Y-113051000D01*
X48998512Y-113051000D01*
X39980178Y-107640000D01*
X46856606Y-107640000D01*
X46890105Y-107980119D01*
X46989314Y-108307168D01*
X47150421Y-108608578D01*
X47367234Y-108872766D01*
X47631422Y-109089579D01*
X47932832Y-109250686D01*
X48259881Y-109349895D01*
X48514775Y-109375000D01*
X49485225Y-109375000D01*
X49740119Y-109349895D01*
X50067168Y-109250686D01*
X50368578Y-109089579D01*
X50632766Y-108872766D01*
X50849579Y-108608578D01*
X50961066Y-108400000D01*
X52761928Y-108400000D01*
X52761928Y-111600000D01*
X52774188Y-111724482D01*
X52810498Y-111844180D01*
X52869463Y-111954494D01*
X52948815Y-112051185D01*
X53045506Y-112130537D01*
X53155820Y-112189502D01*
X53275518Y-112225812D01*
X53400000Y-112238072D01*
X55400000Y-112238072D01*
X55524482Y-112225812D01*
X55644180Y-112189502D01*
X55754494Y-112130537D01*
X55851185Y-112051185D01*
X55930537Y-111954494D01*
X55989502Y-111844180D01*
X56025812Y-111724482D01*
X56038072Y-111600000D01*
X56038072Y-108400000D01*
X63961928Y-108400000D01*
X63961928Y-111600000D01*
X63974188Y-111724482D01*
X64010498Y-111844180D01*
X64069463Y-111954494D01*
X64148815Y-112051185D01*
X64245506Y-112130537D01*
X64355820Y-112189502D01*
X64475518Y-112225812D01*
X64600000Y-112238072D01*
X66600000Y-112238072D01*
X66724482Y-112225812D01*
X66844180Y-112189502D01*
X66954494Y-112130537D01*
X67051185Y-112051185D01*
X67130537Y-111954494D01*
X67189502Y-111844180D01*
X67225812Y-111724482D01*
X67238072Y-111600000D01*
X67238072Y-108400000D01*
X67225812Y-108275518D01*
X67189502Y-108155820D01*
X67130537Y-108045506D01*
X67051185Y-107948815D01*
X66954494Y-107869463D01*
X66844180Y-107810498D01*
X66724482Y-107774188D01*
X66600000Y-107761928D01*
X64600000Y-107761928D01*
X64475518Y-107774188D01*
X64355820Y-107810498D01*
X64245506Y-107869463D01*
X64148815Y-107948815D01*
X64069463Y-108045506D01*
X64010498Y-108155820D01*
X63974188Y-108275518D01*
X63961928Y-108400000D01*
X56038072Y-108400000D01*
X56025812Y-108275518D01*
X55989502Y-108155820D01*
X55930537Y-108045506D01*
X55851185Y-107948815D01*
X55754494Y-107869463D01*
X55644180Y-107810498D01*
X55524482Y-107774188D01*
X55400000Y-107761928D01*
X53400000Y-107761928D01*
X53275518Y-107774188D01*
X53155820Y-107810498D01*
X53045506Y-107869463D01*
X52948815Y-107948815D01*
X52869463Y-108045506D01*
X52810498Y-108155820D01*
X52774188Y-108275518D01*
X52761928Y-108400000D01*
X50961066Y-108400000D01*
X51010686Y-108307168D01*
X51109895Y-107980119D01*
X51143394Y-107640000D01*
X51109895Y-107299881D01*
X51010686Y-106972832D01*
X50849579Y-106671422D01*
X50632766Y-106407234D01*
X50581714Y-106365336D01*
X50716633Y-106237027D01*
X50913157Y-105958317D01*
X51051531Y-105646622D01*
X51089175Y-105496122D01*
X50971125Y-105227000D01*
X49127000Y-105227000D01*
X49127000Y-105247000D01*
X48873000Y-105247000D01*
X48873000Y-105227000D01*
X47028875Y-105227000D01*
X46910825Y-105496122D01*
X46948469Y-105646622D01*
X47086843Y-105958317D01*
X47283367Y-106237027D01*
X47418286Y-106365336D01*
X47367234Y-106407234D01*
X47150421Y-106671422D01*
X46989314Y-106972832D01*
X46890105Y-107299881D01*
X46856606Y-107640000D01*
X39980178Y-107640000D01*
X37065341Y-105891098D01*
X37042840Y-105880444D01*
X37029638Y-105876507D01*
X31877526Y-104640000D01*
X40856606Y-104640000D01*
X40890105Y-104980119D01*
X40989314Y-105307168D01*
X41150421Y-105608578D01*
X41367234Y-105872766D01*
X41631422Y-106089579D01*
X41932832Y-106250686D01*
X42259881Y-106349895D01*
X42514775Y-106375000D01*
X43485225Y-106375000D01*
X43740119Y-106349895D01*
X44067168Y-106250686D01*
X44368578Y-106089579D01*
X44632766Y-105872766D01*
X44849579Y-105608578D01*
X45010686Y-105307168D01*
X45109895Y-104980119D01*
X45137102Y-104703878D01*
X46910825Y-104703878D01*
X47028875Y-104973000D01*
X48873000Y-104973000D01*
X48873000Y-103365000D01*
X49127000Y-103365000D01*
X49127000Y-104973000D01*
X50971125Y-104973000D01*
X51089175Y-104703878D01*
X51051531Y-104553378D01*
X50913157Y-104241683D01*
X50716633Y-103962973D01*
X50469511Y-103727958D01*
X50181288Y-103545670D01*
X49863041Y-103423114D01*
X49527000Y-103365000D01*
X49127000Y-103365000D01*
X48873000Y-103365000D01*
X48473000Y-103365000D01*
X48136959Y-103423114D01*
X47818712Y-103545670D01*
X47530489Y-103727958D01*
X47283367Y-103962973D01*
X47086843Y-104241683D01*
X46948469Y-104553378D01*
X46910825Y-104703878D01*
X45137102Y-104703878D01*
X45143394Y-104640000D01*
X45109895Y-104299881D01*
X45010686Y-103972832D01*
X44849579Y-103671422D01*
X44632766Y-103407234D01*
X44581714Y-103365336D01*
X44716633Y-103237027D01*
X44913157Y-102958317D01*
X44966141Y-102838967D01*
X55865000Y-102838967D01*
X55865000Y-103161033D01*
X55927832Y-103476912D01*
X56051082Y-103774463D01*
X56230013Y-104042252D01*
X56457748Y-104269987D01*
X56725537Y-104448918D01*
X57023088Y-104572168D01*
X57338967Y-104635000D01*
X57661033Y-104635000D01*
X57976912Y-104572168D01*
X58274463Y-104448918D01*
X58542252Y-104269987D01*
X58676826Y-104135413D01*
X61544192Y-104135413D01*
X61639956Y-104399814D01*
X61929571Y-104540704D01*
X62241108Y-104622384D01*
X62562595Y-104641718D01*
X62881675Y-104597961D01*
X63186088Y-104492795D01*
X63360044Y-104399814D01*
X63455808Y-104135413D01*
X62500000Y-103179605D01*
X61544192Y-104135413D01*
X58676826Y-104135413D01*
X58769987Y-104042252D01*
X58948918Y-103774463D01*
X59072168Y-103476912D01*
X59135000Y-103161033D01*
X59135000Y-103062595D01*
X60858282Y-103062595D01*
X60902039Y-103381675D01*
X61007205Y-103686088D01*
X61100186Y-103860044D01*
X61364587Y-103955808D01*
X62320395Y-103000000D01*
X62679605Y-103000000D01*
X63635413Y-103955808D01*
X63899814Y-103860044D01*
X64040704Y-103570429D01*
X64122384Y-103258892D01*
X64141718Y-102937405D01*
X64097961Y-102618325D01*
X63992795Y-102313912D01*
X63899814Y-102139956D01*
X63635413Y-102044192D01*
X62679605Y-103000000D01*
X62320395Y-103000000D01*
X61364587Y-102044192D01*
X61100186Y-102139956D01*
X60959296Y-102429571D01*
X60877616Y-102741108D01*
X60858282Y-103062595D01*
X59135000Y-103062595D01*
X59135000Y-102838967D01*
X59072168Y-102523088D01*
X58948918Y-102225537D01*
X58769987Y-101957748D01*
X58676826Y-101864587D01*
X61544192Y-101864587D01*
X62500000Y-102820395D01*
X63455808Y-101864587D01*
X63360044Y-101600186D01*
X63070429Y-101459296D01*
X62758892Y-101377616D01*
X62437405Y-101358282D01*
X62118325Y-101402039D01*
X61813912Y-101507205D01*
X61639956Y-101600186D01*
X61544192Y-101864587D01*
X58676826Y-101864587D01*
X58542252Y-101730013D01*
X58274463Y-101551082D01*
X57976912Y-101427832D01*
X57661033Y-101365000D01*
X57338967Y-101365000D01*
X57023088Y-101427832D01*
X56725537Y-101551082D01*
X56457748Y-101730013D01*
X56230013Y-101957748D01*
X56051082Y-102225537D01*
X55927832Y-102523088D01*
X55865000Y-102838967D01*
X44966141Y-102838967D01*
X45051531Y-102646622D01*
X45089175Y-102496122D01*
X44971125Y-102227000D01*
X43127000Y-102227000D01*
X43127000Y-102247000D01*
X42873000Y-102247000D01*
X42873000Y-102227000D01*
X41028875Y-102227000D01*
X40910825Y-102496122D01*
X40948469Y-102646622D01*
X41086843Y-102958317D01*
X41283367Y-103237027D01*
X41418286Y-103365336D01*
X41367234Y-103407234D01*
X41150421Y-103671422D01*
X40989314Y-103972832D01*
X40890105Y-104299881D01*
X40856606Y-104640000D01*
X31877526Y-104640000D01*
X25235000Y-103045794D01*
X25235000Y-101640000D01*
X33856606Y-101640000D01*
X33890105Y-101980119D01*
X33989314Y-102307168D01*
X34150421Y-102608578D01*
X34367234Y-102872766D01*
X34631422Y-103089579D01*
X34932832Y-103250686D01*
X35259881Y-103349895D01*
X35514775Y-103375000D01*
X36485225Y-103375000D01*
X36740119Y-103349895D01*
X37067168Y-103250686D01*
X37368578Y-103089579D01*
X37632766Y-102872766D01*
X37849579Y-102608578D01*
X38010686Y-102307168D01*
X38109895Y-101980119D01*
X38137102Y-101703878D01*
X40910825Y-101703878D01*
X41028875Y-101973000D01*
X42873000Y-101973000D01*
X42873000Y-100365000D01*
X43127000Y-100365000D01*
X43127000Y-101973000D01*
X44971125Y-101973000D01*
X45089175Y-101703878D01*
X45051531Y-101553378D01*
X44913157Y-101241683D01*
X44716633Y-100962973D01*
X44469511Y-100727958D01*
X44181288Y-100545670D01*
X43863041Y-100423114D01*
X43527000Y-100365000D01*
X43127000Y-100365000D01*
X42873000Y-100365000D01*
X42473000Y-100365000D01*
X42136959Y-100423114D01*
X41818712Y-100545670D01*
X41530489Y-100727958D01*
X41283367Y-100962973D01*
X41086843Y-101241683D01*
X40948469Y-101553378D01*
X40910825Y-101703878D01*
X38137102Y-101703878D01*
X38143394Y-101640000D01*
X38109895Y-101299881D01*
X38010686Y-100972832D01*
X37849579Y-100671422D01*
X37632766Y-100407234D01*
X37581714Y-100365336D01*
X37716633Y-100237027D01*
X37913157Y-99958317D01*
X38051531Y-99646622D01*
X38089175Y-99496122D01*
X37971125Y-99227000D01*
X36127000Y-99227000D01*
X36127000Y-99247000D01*
X35873000Y-99247000D01*
X35873000Y-99227000D01*
X34028875Y-99227000D01*
X33910825Y-99496122D01*
X33948469Y-99646622D01*
X34086843Y-99958317D01*
X34283367Y-100237027D01*
X34418286Y-100365336D01*
X34367234Y-100407234D01*
X34150421Y-100671422D01*
X33989314Y-100972832D01*
X33890105Y-101299881D01*
X33856606Y-101640000D01*
X25235000Y-101640000D01*
X25235000Y-98640000D01*
X26856606Y-98640000D01*
X26890105Y-98980119D01*
X26989314Y-99307168D01*
X27150421Y-99608578D01*
X27367234Y-99872766D01*
X27631422Y-100089579D01*
X27932832Y-100250686D01*
X28259881Y-100349895D01*
X28514775Y-100375000D01*
X29485225Y-100375000D01*
X29740119Y-100349895D01*
X30067168Y-100250686D01*
X30368578Y-100089579D01*
X30632766Y-99872766D01*
X30849579Y-99608578D01*
X31010686Y-99307168D01*
X31109895Y-98980119D01*
X31137102Y-98703878D01*
X33910825Y-98703878D01*
X34028875Y-98973000D01*
X35873000Y-98973000D01*
X35873000Y-97365000D01*
X36127000Y-97365000D01*
X36127000Y-98973000D01*
X37971125Y-98973000D01*
X38089175Y-98703878D01*
X38051531Y-98553378D01*
X37913157Y-98241683D01*
X37716633Y-97962973D01*
X37469511Y-97727958D01*
X37181288Y-97545670D01*
X36863041Y-97423114D01*
X36527000Y-97365000D01*
X36127000Y-97365000D01*
X35873000Y-97365000D01*
X35473000Y-97365000D01*
X35136959Y-97423114D01*
X34818712Y-97545670D01*
X34530489Y-97727958D01*
X34283367Y-97962973D01*
X34086843Y-98241683D01*
X33948469Y-98553378D01*
X33910825Y-98703878D01*
X31137102Y-98703878D01*
X31143394Y-98640000D01*
X31109895Y-98299881D01*
X31010686Y-97972832D01*
X30849579Y-97671422D01*
X30632766Y-97407234D01*
X30581714Y-97365336D01*
X30716633Y-97237027D01*
X30913157Y-96958317D01*
X31051531Y-96646622D01*
X31089175Y-96496122D01*
X30971125Y-96227000D01*
X29127000Y-96227000D01*
X29127000Y-96247000D01*
X28873000Y-96247000D01*
X28873000Y-96227000D01*
X27028875Y-96227000D01*
X26910825Y-96496122D01*
X26948469Y-96646622D01*
X27086843Y-96958317D01*
X27283367Y-97237027D01*
X27418286Y-97365336D01*
X27367234Y-97407234D01*
X27150421Y-97671422D01*
X26989314Y-97972832D01*
X26890105Y-98299881D01*
X26856606Y-98640000D01*
X25235000Y-98640000D01*
X25235000Y-95703878D01*
X26910825Y-95703878D01*
X27028875Y-95973000D01*
X28873000Y-95973000D01*
X28873000Y-94365000D01*
X29127000Y-94365000D01*
X29127000Y-95973000D01*
X30971125Y-95973000D01*
X31089175Y-95703878D01*
X31051531Y-95553378D01*
X30913157Y-95241683D01*
X30716633Y-94962973D01*
X30469511Y-94727958D01*
X30181288Y-94545670D01*
X29863041Y-94423114D01*
X29527000Y-94365000D01*
X29127000Y-94365000D01*
X28873000Y-94365000D01*
X28473000Y-94365000D01*
X28136959Y-94423114D01*
X27818712Y-94545670D01*
X27530489Y-94727958D01*
X27283367Y-94962973D01*
X27086843Y-95241683D01*
X26948469Y-95553378D01*
X26910825Y-95703878D01*
X25235000Y-95703878D01*
X25235000Y-91472780D01*
X38803379Y-85289721D01*
X74165000Y-85289721D01*
X74165000Y-85710279D01*
X74247047Y-86122756D01*
X74407988Y-86511302D01*
X74641637Y-86860983D01*
X74939017Y-87158363D01*
X75288698Y-87392012D01*
X75677244Y-87552953D01*
X76089721Y-87635000D01*
X76510279Y-87635000D01*
X76922756Y-87552953D01*
X77311302Y-87392012D01*
X77660983Y-87158363D01*
X77958363Y-86860983D01*
X78192012Y-86511302D01*
X78352953Y-86122756D01*
X78435000Y-85710279D01*
X78435000Y-85289721D01*
X78352953Y-84877244D01*
X78192012Y-84488698D01*
X77958363Y-84139017D01*
X77660983Y-83841637D01*
X77311302Y-83607988D01*
X76922756Y-83447047D01*
X76510279Y-83365000D01*
X76089721Y-83365000D01*
X75677244Y-83447047D01*
X75288698Y-83607988D01*
X74939017Y-83841637D01*
X74641637Y-84139017D01*
X74407988Y-84488698D01*
X74247047Y-84877244D01*
X74165000Y-85289721D01*
X38803379Y-85289721D01*
X44484445Y-82700881D01*
X57478724Y-82700881D01*
X57838912Y-83190548D01*
X58502882Y-83550849D01*
X59224385Y-83774694D01*
X59975695Y-83853480D01*
X60727938Y-83784178D01*
X61452208Y-83569452D01*
X62120670Y-83217555D01*
X62161088Y-83190548D01*
X62521276Y-82700881D01*
X62382344Y-82561949D01*
X104605602Y-82561949D01*
X104605602Y-82795373D01*
X104651141Y-83024313D01*
X104740468Y-83239969D01*
X104870152Y-83434055D01*
X105035208Y-83599111D01*
X105229294Y-83728795D01*
X105444950Y-83818122D01*
X105589674Y-83846909D01*
X107815000Y-86072236D01*
X107815000Y-86116712D01*
X107860539Y-86345652D01*
X107949866Y-86561308D01*
X108079550Y-86755394D01*
X108244606Y-86920450D01*
X108438692Y-87050134D01*
X108654348Y-87139461D01*
X108883288Y-87185000D01*
X109116712Y-87185000D01*
X109345652Y-87139461D01*
X109561308Y-87050134D01*
X109755394Y-86920450D01*
X109920450Y-86755394D01*
X110050134Y-86561308D01*
X110139461Y-86345652D01*
X110185000Y-86116712D01*
X110185000Y-85883288D01*
X110139461Y-85654348D01*
X110050134Y-85438692D01*
X109920450Y-85244606D01*
X109755394Y-85079550D01*
X109636339Y-85000000D01*
X113361928Y-85000000D01*
X113361928Y-87000000D01*
X113374188Y-87124482D01*
X113410498Y-87244180D01*
X113469463Y-87354494D01*
X113548815Y-87451185D01*
X113645506Y-87530537D01*
X113755820Y-87589502D01*
X113875518Y-87625812D01*
X114000000Y-87638072D01*
X116000000Y-87638072D01*
X116124482Y-87625812D01*
X116244180Y-87589502D01*
X116354494Y-87530537D01*
X116451185Y-87451185D01*
X116530537Y-87354494D01*
X116589502Y-87244180D01*
X116625812Y-87124482D01*
X116638072Y-87000000D01*
X116638072Y-85858665D01*
X127245000Y-85858665D01*
X127245000Y-86141335D01*
X127300147Y-86418574D01*
X127408320Y-86679727D01*
X127565363Y-86914759D01*
X127765241Y-87114637D01*
X128000273Y-87271680D01*
X128261426Y-87379853D01*
X128538665Y-87435000D01*
X128821335Y-87435000D01*
X128851721Y-87428956D01*
X132566494Y-91143730D01*
X132594329Y-91177647D01*
X132628246Y-91205482D01*
X132628247Y-91205483D01*
X132637766Y-91213295D01*
X132729697Y-91288741D01*
X132864192Y-91360630D01*
X132882319Y-91370319D01*
X132884137Y-91371291D01*
X132958789Y-91393936D01*
X133051713Y-91422124D01*
X133068313Y-91423759D01*
X133182321Y-91434988D01*
X133182328Y-91434988D01*
X133225988Y-91439288D01*
X133269648Y-91434988D01*
X137137948Y-91434988D01*
X137169398Y-91466438D01*
X137363484Y-91596122D01*
X137579140Y-91685449D01*
X137808080Y-91730988D01*
X138041504Y-91730988D01*
X138270444Y-91685449D01*
X138486100Y-91596122D01*
X138680186Y-91466438D01*
X138845242Y-91301382D01*
X138974926Y-91107296D01*
X139064253Y-90891640D01*
X139109792Y-90662700D01*
X139109792Y-90429276D01*
X139064253Y-90200336D01*
X138974926Y-89984680D01*
X138845242Y-89790594D01*
X138680186Y-89625538D01*
X138486100Y-89495854D01*
X138270444Y-89406527D01*
X138041504Y-89360988D01*
X137808080Y-89360988D01*
X137579140Y-89406527D01*
X137363484Y-89495854D01*
X137169398Y-89625538D01*
X137137948Y-89656988D01*
X133594224Y-89656988D01*
X131370427Y-87433191D01*
X131638574Y-87379853D01*
X131899727Y-87271680D01*
X132134759Y-87114637D01*
X132334637Y-86914759D01*
X132490000Y-86682241D01*
X132645363Y-86914759D01*
X132845241Y-87114637D01*
X133080273Y-87271680D01*
X133341426Y-87379853D01*
X133618665Y-87435000D01*
X133901335Y-87435000D01*
X134178574Y-87379853D01*
X134439727Y-87271680D01*
X134674759Y-87114637D01*
X134874637Y-86914759D01*
X135030000Y-86682241D01*
X135185363Y-86914759D01*
X135385241Y-87114637D01*
X135620273Y-87271680D01*
X135881426Y-87379853D01*
X136158665Y-87435000D01*
X136441335Y-87435000D01*
X136718574Y-87379853D01*
X136979727Y-87271680D01*
X137214759Y-87114637D01*
X137414637Y-86914759D01*
X137570000Y-86682241D01*
X137725363Y-86914759D01*
X137925241Y-87114637D01*
X138160273Y-87271680D01*
X138421426Y-87379853D01*
X138698665Y-87435000D01*
X138981335Y-87435000D01*
X139258574Y-87379853D01*
X139519727Y-87271680D01*
X139754759Y-87114637D01*
X139954637Y-86914759D01*
X140110000Y-86682241D01*
X140265363Y-86914759D01*
X140465241Y-87114637D01*
X140700273Y-87271680D01*
X140961426Y-87379853D01*
X141238665Y-87435000D01*
X141521335Y-87435000D01*
X141798574Y-87379853D01*
X142059727Y-87271680D01*
X142294759Y-87114637D01*
X142494637Y-86914759D01*
X142650000Y-86682241D01*
X142805363Y-86914759D01*
X143005241Y-87114637D01*
X143240273Y-87271680D01*
X143501426Y-87379853D01*
X143778665Y-87435000D01*
X144061335Y-87435000D01*
X144338574Y-87379853D01*
X144599727Y-87271680D01*
X144834759Y-87114637D01*
X145034637Y-86914759D01*
X145190000Y-86682241D01*
X145345363Y-86914759D01*
X145545241Y-87114637D01*
X145780273Y-87271680D01*
X146041426Y-87379853D01*
X146318665Y-87435000D01*
X146601335Y-87435000D01*
X146878574Y-87379853D01*
X147139727Y-87271680D01*
X147374759Y-87114637D01*
X147573357Y-86916039D01*
X147574188Y-86924482D01*
X147610498Y-87044180D01*
X147669463Y-87154494D01*
X147748815Y-87251185D01*
X147845506Y-87330537D01*
X147955820Y-87389502D01*
X148075518Y-87425812D01*
X148200000Y-87438072D01*
X149800000Y-87438072D01*
X149924482Y-87425812D01*
X150044180Y-87389502D01*
X150154494Y-87330537D01*
X150251185Y-87251185D01*
X150330537Y-87154494D01*
X150389502Y-87044180D01*
X150425812Y-86924482D01*
X150438072Y-86800000D01*
X150438072Y-85240475D01*
X156965000Y-85240475D01*
X156965000Y-85759525D01*
X157066261Y-86268601D01*
X157264893Y-86748141D01*
X157553262Y-87179715D01*
X157920285Y-87546738D01*
X158351859Y-87835107D01*
X158831399Y-88033739D01*
X159340475Y-88135000D01*
X159859525Y-88135000D01*
X160368601Y-88033739D01*
X160848141Y-87835107D01*
X161279715Y-87546738D01*
X161646738Y-87179715D01*
X161935107Y-86748141D01*
X162133739Y-86268601D01*
X162235000Y-85759525D01*
X162235000Y-85240475D01*
X162133739Y-84731399D01*
X161935107Y-84251859D01*
X161646738Y-83820285D01*
X161279715Y-83453262D01*
X160848141Y-83164893D01*
X160368601Y-82966261D01*
X159859525Y-82865000D01*
X159340475Y-82865000D01*
X158831399Y-82966261D01*
X158351859Y-83164893D01*
X157920285Y-83453262D01*
X157553262Y-83820285D01*
X157264893Y-84251859D01*
X157066261Y-84731399D01*
X156965000Y-85240475D01*
X150438072Y-85240475D01*
X150438072Y-85200000D01*
X150425812Y-85075518D01*
X150389502Y-84955820D01*
X150330537Y-84845506D01*
X150251185Y-84748815D01*
X150154494Y-84669463D01*
X150044180Y-84610498D01*
X149924482Y-84574188D01*
X149800000Y-84561928D01*
X148200000Y-84561928D01*
X148075518Y-84574188D01*
X147955820Y-84610498D01*
X147845506Y-84669463D01*
X147748815Y-84748815D01*
X147669463Y-84845506D01*
X147610498Y-84955820D01*
X147574188Y-85075518D01*
X147573357Y-85083961D01*
X147374759Y-84885363D01*
X147139727Y-84728320D01*
X146878574Y-84620147D01*
X146601335Y-84565000D01*
X146318665Y-84565000D01*
X146041426Y-84620147D01*
X145780273Y-84728320D01*
X145545241Y-84885363D01*
X145345363Y-85085241D01*
X145190000Y-85317759D01*
X145034637Y-85085241D01*
X144834759Y-84885363D01*
X144599727Y-84728320D01*
X144338574Y-84620147D01*
X144061335Y-84565000D01*
X143778665Y-84565000D01*
X143501426Y-84620147D01*
X143240273Y-84728320D01*
X143005241Y-84885363D01*
X142805363Y-85085241D01*
X142650000Y-85317759D01*
X142494637Y-85085241D01*
X142294759Y-84885363D01*
X142059727Y-84728320D01*
X141798574Y-84620147D01*
X141521335Y-84565000D01*
X141238665Y-84565000D01*
X140961426Y-84620147D01*
X140700273Y-84728320D01*
X140465241Y-84885363D01*
X140265363Y-85085241D01*
X140110000Y-85317759D01*
X139954637Y-85085241D01*
X139754759Y-84885363D01*
X139519727Y-84728320D01*
X139258574Y-84620147D01*
X138981335Y-84565000D01*
X138698665Y-84565000D01*
X138421426Y-84620147D01*
X138160273Y-84728320D01*
X137925241Y-84885363D01*
X137725363Y-85085241D01*
X137570000Y-85317759D01*
X137414637Y-85085241D01*
X137214759Y-84885363D01*
X136979727Y-84728320D01*
X136718574Y-84620147D01*
X136441335Y-84565000D01*
X136158665Y-84565000D01*
X135881426Y-84620147D01*
X135620273Y-84728320D01*
X135385241Y-84885363D01*
X135185363Y-85085241D01*
X135030000Y-85317759D01*
X134874637Y-85085241D01*
X134674759Y-84885363D01*
X134439727Y-84728320D01*
X134178574Y-84620147D01*
X133901335Y-84565000D01*
X133618665Y-84565000D01*
X133341426Y-84620147D01*
X133080273Y-84728320D01*
X132845241Y-84885363D01*
X132645363Y-85085241D01*
X132490000Y-85317759D01*
X132334637Y-85085241D01*
X132134759Y-84885363D01*
X131899727Y-84728320D01*
X131638574Y-84620147D01*
X131361335Y-84565000D01*
X131078665Y-84565000D01*
X130801426Y-84620147D01*
X130540273Y-84728320D01*
X130305241Y-84885363D01*
X130105363Y-85085241D01*
X129950000Y-85317759D01*
X129794637Y-85085241D01*
X129594759Y-84885363D01*
X129359727Y-84728320D01*
X129098574Y-84620147D01*
X128821335Y-84565000D01*
X128538665Y-84565000D01*
X128261426Y-84620147D01*
X128000273Y-84728320D01*
X127765241Y-84885363D01*
X127565363Y-85085241D01*
X127408320Y-85320273D01*
X127300147Y-85581426D01*
X127245000Y-85858665D01*
X116638072Y-85858665D01*
X116638072Y-85000000D01*
X116625812Y-84875518D01*
X116589502Y-84755820D01*
X116530537Y-84645506D01*
X116451185Y-84548815D01*
X116354494Y-84469463D01*
X116244180Y-84410498D01*
X116124482Y-84374188D01*
X116000000Y-84361928D01*
X114000000Y-84361928D01*
X113875518Y-84374188D01*
X113755820Y-84410498D01*
X113645506Y-84469463D01*
X113548815Y-84548815D01*
X113469463Y-84645506D01*
X113410498Y-84755820D01*
X113374188Y-84875518D01*
X113361928Y-85000000D01*
X109636339Y-85000000D01*
X109561308Y-84949866D01*
X109345652Y-84860539D01*
X109116712Y-84815000D01*
X109072236Y-84815000D01*
X106975602Y-82718367D01*
X106975602Y-82700881D01*
X167478724Y-82700881D01*
X167838912Y-83190548D01*
X168502882Y-83550849D01*
X169224385Y-83774694D01*
X169975695Y-83853480D01*
X170727938Y-83784178D01*
X171452208Y-83569452D01*
X172120670Y-83217555D01*
X172161088Y-83190548D01*
X172521276Y-82700881D01*
X170000000Y-80179605D01*
X167478724Y-82700881D01*
X106975602Y-82700881D01*
X106975602Y-82561949D01*
X106930063Y-82333009D01*
X106840736Y-82117353D01*
X106711052Y-81923267D01*
X106545996Y-81758211D01*
X106351910Y-81628527D01*
X106136254Y-81539200D01*
X105907314Y-81493661D01*
X105673890Y-81493661D01*
X105444950Y-81539200D01*
X105229294Y-81628527D01*
X105035208Y-81758211D01*
X104870152Y-81923267D01*
X104740468Y-82117353D01*
X104651141Y-82333009D01*
X104605602Y-82561949D01*
X62382344Y-82561949D01*
X60000000Y-80179605D01*
X57478724Y-82700881D01*
X44484445Y-82700881D01*
X50464715Y-79975695D01*
X56146520Y-79975695D01*
X56215822Y-80727938D01*
X56430548Y-81452208D01*
X56782445Y-82120670D01*
X56809452Y-82161088D01*
X57299119Y-82521276D01*
X59820395Y-80000000D01*
X60179605Y-80000000D01*
X62700881Y-82521276D01*
X63190548Y-82161088D01*
X63550849Y-81497118D01*
X63774694Y-80775615D01*
X63829812Y-80250000D01*
X90611928Y-80250000D01*
X90611928Y-81750000D01*
X90624188Y-81874482D01*
X90660498Y-81994180D01*
X90719463Y-82104494D01*
X90798815Y-82201185D01*
X90895506Y-82280537D01*
X91005820Y-82339502D01*
X91125518Y-82375812D01*
X91250000Y-82388072D01*
X92750000Y-82388072D01*
X92874482Y-82375812D01*
X92994180Y-82339502D01*
X93104494Y-82280537D01*
X93201185Y-82201185D01*
X93280537Y-82104494D01*
X93339502Y-81994180D01*
X93375812Y-81874482D01*
X93386445Y-81766517D01*
X93464201Y-81882886D01*
X93657114Y-82075799D01*
X93883957Y-82227371D01*
X94136011Y-82331775D01*
X94403589Y-82385000D01*
X94676411Y-82385000D01*
X94943989Y-82331775D01*
X95196043Y-82227371D01*
X95422886Y-82075799D01*
X95615799Y-81882886D01*
X95767371Y-81656043D01*
X95810000Y-81553127D01*
X95852629Y-81656043D01*
X96004201Y-81882886D01*
X96197114Y-82075799D01*
X96423957Y-82227371D01*
X96676011Y-82331775D01*
X96943589Y-82385000D01*
X97216411Y-82385000D01*
X97483989Y-82331775D01*
X97736043Y-82227371D01*
X97962886Y-82075799D01*
X98081692Y-81956993D01*
X98842612Y-81956993D01*
X98908137Y-82195860D01*
X99155116Y-82311760D01*
X99419960Y-82377250D01*
X99692492Y-82389812D01*
X99962238Y-82348965D01*
X100218832Y-82256277D01*
X100331863Y-82195860D01*
X100397388Y-81956993D01*
X99620000Y-81179605D01*
X98842612Y-81956993D01*
X98081692Y-81956993D01*
X98155799Y-81882886D01*
X98307371Y-81656043D01*
X98348511Y-81556721D01*
X98363723Y-81598832D01*
X98424140Y-81711863D01*
X98663007Y-81777388D01*
X99440395Y-81000000D01*
X99799605Y-81000000D01*
X100576993Y-81777388D01*
X100815860Y-81711863D01*
X100931760Y-81464884D01*
X100997250Y-81200040D01*
X101009812Y-80927508D01*
X100968965Y-80657762D01*
X100876277Y-80401168D01*
X100815860Y-80288137D01*
X100576993Y-80222612D01*
X99799605Y-81000000D01*
X99440395Y-81000000D01*
X98663007Y-80222612D01*
X98424140Y-80288137D01*
X98349836Y-80446477D01*
X98307371Y-80343957D01*
X98155799Y-80117114D01*
X98081692Y-80043007D01*
X98842612Y-80043007D01*
X99620000Y-80820395D01*
X100397388Y-80043007D01*
X100331863Y-79804140D01*
X100084884Y-79688240D01*
X99820040Y-79622750D01*
X99547508Y-79610188D01*
X99277762Y-79651035D01*
X99021168Y-79743723D01*
X98908137Y-79804140D01*
X98842612Y-80043007D01*
X98081692Y-80043007D01*
X97962886Y-79924201D01*
X97736043Y-79772629D01*
X97483989Y-79668225D01*
X97216411Y-79615000D01*
X96943589Y-79615000D01*
X96676011Y-79668225D01*
X96423957Y-79772629D01*
X96197114Y-79924201D01*
X96004201Y-80117114D01*
X95852629Y-80343957D01*
X95810000Y-80446873D01*
X95767371Y-80343957D01*
X95615799Y-80117114D01*
X95422886Y-79924201D01*
X95196043Y-79772629D01*
X94943989Y-79668225D01*
X94676411Y-79615000D01*
X94403589Y-79615000D01*
X94136011Y-79668225D01*
X93883957Y-79772629D01*
X93657114Y-79924201D01*
X93464201Y-80117114D01*
X93386445Y-80233483D01*
X93375812Y-80125518D01*
X93339502Y-80005820D01*
X93280537Y-79895506D01*
X93201185Y-79798815D01*
X93104494Y-79719463D01*
X92994180Y-79660498D01*
X92874482Y-79624188D01*
X92750000Y-79611928D01*
X91250000Y-79611928D01*
X91125518Y-79624188D01*
X91005820Y-79660498D01*
X90895506Y-79719463D01*
X90798815Y-79798815D01*
X90719463Y-79895506D01*
X90660498Y-80005820D01*
X90624188Y-80125518D01*
X90611928Y-80250000D01*
X63829812Y-80250000D01*
X63853480Y-80024305D01*
X63784178Y-79272062D01*
X63777071Y-79248090D01*
X105806892Y-79248090D01*
X105806892Y-79422420D01*
X105840902Y-79593400D01*
X105907615Y-79754460D01*
X106004468Y-79899410D01*
X106127737Y-80022679D01*
X106272687Y-80119532D01*
X106433747Y-80186245D01*
X106604727Y-80220255D01*
X106779057Y-80220255D01*
X106950037Y-80186245D01*
X107111097Y-80119532D01*
X107182450Y-80071855D01*
X110030148Y-80071855D01*
X110132268Y-80173976D01*
X110149010Y-80258143D01*
X110215723Y-80419203D01*
X110312576Y-80564153D01*
X110435845Y-80687422D01*
X110580795Y-80784275D01*
X110741855Y-80850988D01*
X110912835Y-80884998D01*
X111087165Y-80884998D01*
X111258145Y-80850988D01*
X111419205Y-80784275D01*
X111564155Y-80687422D01*
X111687424Y-80564153D01*
X111784277Y-80419203D01*
X111850990Y-80258143D01*
X111867732Y-80173975D01*
X112495269Y-79546439D01*
X112508704Y-79535413D01*
X114044192Y-79535413D01*
X114139956Y-79799814D01*
X114429571Y-79940704D01*
X114741108Y-80022384D01*
X115062595Y-80041718D01*
X115381675Y-79997961D01*
X115446126Y-79975695D01*
X166146520Y-79975695D01*
X166215822Y-80727938D01*
X166430548Y-81452208D01*
X166782445Y-82120670D01*
X166809452Y-82161088D01*
X167299119Y-82521276D01*
X169820395Y-80000000D01*
X170179605Y-80000000D01*
X172700881Y-82521276D01*
X173190548Y-82161088D01*
X173550849Y-81497118D01*
X173774694Y-80775615D01*
X173853480Y-80024305D01*
X173784178Y-79272062D01*
X173569452Y-78547792D01*
X173217555Y-77879330D01*
X173190548Y-77838912D01*
X172700881Y-77478724D01*
X170179605Y-80000000D01*
X169820395Y-80000000D01*
X167299119Y-77478724D01*
X166809452Y-77838912D01*
X166449151Y-78502882D01*
X166225306Y-79224385D01*
X166146520Y-79975695D01*
X115446126Y-79975695D01*
X115686088Y-79892795D01*
X115860044Y-79799814D01*
X115955808Y-79535413D01*
X115000000Y-78579605D01*
X114044192Y-79535413D01*
X112508704Y-79535413D01*
X112523375Y-79523373D01*
X112615424Y-79411211D01*
X112683822Y-79283247D01*
X112725942Y-79144397D01*
X112736600Y-79036184D01*
X112740164Y-78999998D01*
X112736600Y-78963812D01*
X112736600Y-78740558D01*
X112784277Y-78669205D01*
X112850990Y-78508145D01*
X112860050Y-78462595D01*
X113358282Y-78462595D01*
X113402039Y-78781675D01*
X113507205Y-79086088D01*
X113600186Y-79260044D01*
X113864587Y-79355808D01*
X114820395Y-78400000D01*
X115179605Y-78400000D01*
X116135413Y-79355808D01*
X116399814Y-79260044D01*
X116540704Y-78970429D01*
X116603992Y-78729040D01*
X127288091Y-78729040D01*
X127382930Y-78993881D01*
X127527615Y-79235131D01*
X127716586Y-79443519D01*
X127942580Y-79611037D01*
X128196913Y-79731246D01*
X128330961Y-79771904D01*
X128553000Y-79649915D01*
X128553000Y-78507000D01*
X127409376Y-78507000D01*
X127288091Y-78729040D01*
X116603992Y-78729040D01*
X116622384Y-78658892D01*
X116641718Y-78337405D01*
X116599694Y-78030960D01*
X127288091Y-78030960D01*
X127409376Y-78253000D01*
X128553000Y-78253000D01*
X128553000Y-77110085D01*
X128807000Y-77110085D01*
X128807000Y-78253000D01*
X128827000Y-78253000D01*
X128827000Y-78507000D01*
X128807000Y-78507000D01*
X128807000Y-79649915D01*
X129029039Y-79771904D01*
X129163087Y-79731246D01*
X129417420Y-79611037D01*
X129643414Y-79443519D01*
X129832385Y-79235131D01*
X129943933Y-79049135D01*
X129948320Y-79059727D01*
X130105363Y-79294759D01*
X130305241Y-79494637D01*
X130540273Y-79651680D01*
X130801426Y-79759853D01*
X131078665Y-79815000D01*
X131361335Y-79815000D01*
X131638574Y-79759853D01*
X131899727Y-79651680D01*
X132134759Y-79494637D01*
X132334637Y-79294759D01*
X132490000Y-79062241D01*
X132645363Y-79294759D01*
X132845241Y-79494637D01*
X133080273Y-79651680D01*
X133341426Y-79759853D01*
X133618665Y-79815000D01*
X133901335Y-79815000D01*
X134178574Y-79759853D01*
X134439727Y-79651680D01*
X134674759Y-79494637D01*
X134874637Y-79294759D01*
X135030000Y-79062241D01*
X135185363Y-79294759D01*
X135385241Y-79494637D01*
X135620273Y-79651680D01*
X135881426Y-79759853D01*
X136158665Y-79815000D01*
X136441335Y-79815000D01*
X136718574Y-79759853D01*
X136979727Y-79651680D01*
X137214759Y-79494637D01*
X137414637Y-79294759D01*
X137570000Y-79062241D01*
X137725363Y-79294759D01*
X137925241Y-79494637D01*
X138160273Y-79651680D01*
X138421426Y-79759853D01*
X138698665Y-79815000D01*
X138981335Y-79815000D01*
X139258574Y-79759853D01*
X139519727Y-79651680D01*
X139754759Y-79494637D01*
X139954637Y-79294759D01*
X140110000Y-79062241D01*
X140265363Y-79294759D01*
X140465241Y-79494637D01*
X140700273Y-79651680D01*
X140961426Y-79759853D01*
X141238665Y-79815000D01*
X141521335Y-79815000D01*
X141798574Y-79759853D01*
X142059727Y-79651680D01*
X142294759Y-79494637D01*
X142494637Y-79294759D01*
X142650000Y-79062241D01*
X142805363Y-79294759D01*
X143005241Y-79494637D01*
X143240273Y-79651680D01*
X143501426Y-79759853D01*
X143778665Y-79815000D01*
X144061335Y-79815000D01*
X144338574Y-79759853D01*
X144599727Y-79651680D01*
X144834759Y-79494637D01*
X145034637Y-79294759D01*
X145190000Y-79062241D01*
X145345363Y-79294759D01*
X145545241Y-79494637D01*
X145780273Y-79651680D01*
X146041426Y-79759853D01*
X146318665Y-79815000D01*
X146601335Y-79815000D01*
X146878574Y-79759853D01*
X147139727Y-79651680D01*
X147374759Y-79494637D01*
X147574637Y-79294759D01*
X147730000Y-79062241D01*
X147885363Y-79294759D01*
X148085241Y-79494637D01*
X148320273Y-79651680D01*
X148581426Y-79759853D01*
X148858665Y-79815000D01*
X149141335Y-79815000D01*
X149418574Y-79759853D01*
X149679727Y-79651680D01*
X149914759Y-79494637D01*
X150114637Y-79294759D01*
X150271680Y-79059727D01*
X150379853Y-78798574D01*
X150435000Y-78521335D01*
X150435000Y-78238665D01*
X150379853Y-77961426D01*
X150271680Y-77700273D01*
X150114637Y-77465241D01*
X149948515Y-77299119D01*
X167478724Y-77299119D01*
X170000000Y-79820395D01*
X172521276Y-77299119D01*
X172161088Y-76809452D01*
X171497118Y-76449151D01*
X170775615Y-76225306D01*
X170024305Y-76146520D01*
X169272062Y-76215822D01*
X168547792Y-76430548D01*
X167879330Y-76782445D01*
X167838912Y-76809452D01*
X167478724Y-77299119D01*
X149948515Y-77299119D01*
X149914759Y-77265363D01*
X149679727Y-77108320D01*
X149418574Y-77000147D01*
X149141335Y-76945000D01*
X148858665Y-76945000D01*
X148581426Y-77000147D01*
X148320273Y-77108320D01*
X148085241Y-77265363D01*
X147885363Y-77465241D01*
X147730000Y-77697759D01*
X147574637Y-77465241D01*
X147374759Y-77265363D01*
X147139727Y-77108320D01*
X146878574Y-77000147D01*
X146601335Y-76945000D01*
X146318665Y-76945000D01*
X146041426Y-77000147D01*
X145780273Y-77108320D01*
X145545241Y-77265363D01*
X145345363Y-77465241D01*
X145190000Y-77697759D01*
X145034637Y-77465241D01*
X144834759Y-77265363D01*
X144599727Y-77108320D01*
X144338574Y-77000147D01*
X144061335Y-76945000D01*
X143778665Y-76945000D01*
X143501426Y-77000147D01*
X143240273Y-77108320D01*
X143005241Y-77265363D01*
X142805363Y-77465241D01*
X142650000Y-77697759D01*
X142494637Y-77465241D01*
X142294759Y-77265363D01*
X142059727Y-77108320D01*
X141798574Y-77000147D01*
X141521335Y-76945000D01*
X141238665Y-76945000D01*
X140961426Y-77000147D01*
X140700273Y-77108320D01*
X140465241Y-77265363D01*
X140265363Y-77465241D01*
X140110000Y-77697759D01*
X139954637Y-77465241D01*
X139754759Y-77265363D01*
X139519727Y-77108320D01*
X139258574Y-77000147D01*
X138981335Y-76945000D01*
X138698665Y-76945000D01*
X138421426Y-77000147D01*
X138160273Y-77108320D01*
X137925241Y-77265363D01*
X137725363Y-77465241D01*
X137570000Y-77697759D01*
X137414637Y-77465241D01*
X137214759Y-77265363D01*
X136979727Y-77108320D01*
X136718574Y-77000147D01*
X136441335Y-76945000D01*
X136158665Y-76945000D01*
X135881426Y-77000147D01*
X135620273Y-77108320D01*
X135385241Y-77265363D01*
X135185363Y-77465241D01*
X135030000Y-77697759D01*
X134874637Y-77465241D01*
X134674759Y-77265363D01*
X134439727Y-77108320D01*
X134178574Y-77000147D01*
X133901335Y-76945000D01*
X133618665Y-76945000D01*
X133341426Y-77000147D01*
X133080273Y-77108320D01*
X132845241Y-77265363D01*
X132645363Y-77465241D01*
X132490000Y-77697759D01*
X132334637Y-77465241D01*
X132134759Y-77265363D01*
X131899727Y-77108320D01*
X131638574Y-77000147D01*
X131361335Y-76945000D01*
X131078665Y-76945000D01*
X130801426Y-77000147D01*
X130540273Y-77108320D01*
X130305241Y-77265363D01*
X130105363Y-77465241D01*
X129948320Y-77700273D01*
X129943933Y-77710865D01*
X129832385Y-77524869D01*
X129643414Y-77316481D01*
X129417420Y-77148963D01*
X129163087Y-77028754D01*
X129029039Y-76988096D01*
X128807000Y-77110085D01*
X128553000Y-77110085D01*
X128330961Y-76988096D01*
X128196913Y-77028754D01*
X127942580Y-77148963D01*
X127716586Y-77316481D01*
X127527615Y-77524869D01*
X127382930Y-77766119D01*
X127288091Y-78030960D01*
X116599694Y-78030960D01*
X116597961Y-78018325D01*
X116492795Y-77713912D01*
X116399814Y-77539956D01*
X116135413Y-77444192D01*
X115179605Y-78400000D01*
X114820395Y-78400000D01*
X113864587Y-77444192D01*
X113600186Y-77539956D01*
X113459296Y-77829571D01*
X113377616Y-78141108D01*
X113358282Y-78462595D01*
X112860050Y-78462595D01*
X112885000Y-78337165D01*
X112885000Y-78162835D01*
X112850990Y-77991855D01*
X112784277Y-77830795D01*
X112687424Y-77685845D01*
X112564155Y-77562576D01*
X112419205Y-77465723D01*
X112258145Y-77399010D01*
X112087165Y-77365000D01*
X111912835Y-77365000D01*
X111741855Y-77399010D01*
X111580795Y-77465723D01*
X111435845Y-77562576D01*
X111312576Y-77685845D01*
X111215723Y-77830795D01*
X111149010Y-77991855D01*
X111115000Y-78162835D01*
X111115000Y-78337165D01*
X111149010Y-78508145D01*
X111215723Y-78669205D01*
X111245107Y-78713181D01*
X111000000Y-78958289D01*
X110881702Y-78839991D01*
X110858632Y-78811880D01*
X110746470Y-78719831D01*
X110618506Y-78651433D01*
X110479656Y-78609313D01*
X110371443Y-78598655D01*
X110371440Y-78598655D01*
X110335257Y-78595091D01*
X110299074Y-78598655D01*
X107182450Y-78598655D01*
X107111097Y-78550978D01*
X106950037Y-78484265D01*
X106779057Y-78450255D01*
X106604727Y-78450255D01*
X106433747Y-78484265D01*
X106272687Y-78550978D01*
X106127737Y-78647831D01*
X106004468Y-78771100D01*
X105907615Y-78916050D01*
X105840902Y-79077110D01*
X105806892Y-79248090D01*
X63777071Y-79248090D01*
X63569452Y-78547792D01*
X63217555Y-77879330D01*
X63190548Y-77838912D01*
X62700881Y-77478724D01*
X60179605Y-80000000D01*
X59820395Y-80000000D01*
X57299119Y-77478724D01*
X56809452Y-77838912D01*
X56449151Y-78502882D01*
X56225306Y-79224385D01*
X56146520Y-79975695D01*
X50464715Y-79975695D01*
X56338312Y-77299119D01*
X57478724Y-77299119D01*
X60000000Y-79820395D01*
X62521276Y-77299119D01*
X62495876Y-77264587D01*
X114044192Y-77264587D01*
X115000000Y-78220395D01*
X115955808Y-77264587D01*
X115860044Y-77000186D01*
X115570429Y-76859296D01*
X115258892Y-76777616D01*
X114937405Y-76758282D01*
X114618325Y-76802039D01*
X114313912Y-76907205D01*
X114139956Y-77000186D01*
X114044192Y-77264587D01*
X62495876Y-77264587D01*
X62161088Y-76809452D01*
X61497118Y-76449151D01*
X60775615Y-76225306D01*
X60024305Y-76146520D01*
X59272062Y-76215822D01*
X58547792Y-76430548D01*
X57879330Y-76782445D01*
X57838912Y-76809452D01*
X57478724Y-77299119D01*
X56338312Y-77299119D01*
X64159575Y-73735000D01*
X165838568Y-73735000D01*
X176720774Y-78757557D01*
G37*
G04 #@! TD.AperFunction*
D39*
X183667118Y-85018835D02*
X183658666Y-85036961D01*
X183676792Y-85045413D01*
X183569447Y-85275616D01*
X183551321Y-85267164D01*
X183047071Y-86348529D01*
X183204150Y-86555639D01*
X183356437Y-86577385D01*
X183647539Y-86575003D01*
X183932583Y-86515874D01*
X184200614Y-86402273D01*
X184308994Y-86328565D01*
X184363981Y-86604999D01*
X184475923Y-86875252D01*
X184638438Y-87118473D01*
X184845281Y-87325316D01*
X185088502Y-87487831D01*
X185358755Y-87599773D01*
X185415856Y-87611131D01*
X183945300Y-89081688D01*
X183945289Y-89081697D01*
X183945280Y-89081706D01*
X183882900Y-89132900D01*
X183831706Y-89195280D01*
X177429907Y-95597081D01*
X177429902Y-95597085D01*
X175766138Y-97260850D01*
X167331359Y-97260850D01*
X167346123Y-97138401D01*
X167336581Y-97013682D01*
X167226892Y-96409297D01*
X167042987Y-96280525D01*
X165812716Y-96497455D01*
X165816189Y-96517151D01*
X165566048Y-96561258D01*
X165562575Y-96541562D01*
X165542879Y-96545035D01*
X165498772Y-96294894D01*
X165518468Y-96291421D01*
X165514995Y-96271725D01*
X165765136Y-96227618D01*
X165768609Y-96247314D01*
X166998880Y-96030384D01*
X167127652Y-95846479D01*
X167040337Y-95336388D01*
X167057863Y-95353914D01*
X167097630Y-95402370D01*
X167291012Y-95561075D01*
X167458269Y-95650475D01*
X167511641Y-95679003D01*
X167602199Y-95706474D01*
X168528751Y-96633026D01*
X168568518Y-96681482D01*
X168761900Y-96840187D01*
X168930126Y-96930105D01*
X168982529Y-96958115D01*
X169221925Y-97030735D01*
X169470888Y-97055256D01*
X169533268Y-97049112D01*
X175187627Y-97049112D01*
X175250000Y-97055255D01*
X175312373Y-97049112D01*
X175312380Y-97049112D01*
X175498963Y-97030735D01*
X175738359Y-96958115D01*
X175958988Y-96840187D01*
X176152370Y-96681482D01*
X176192141Y-96633021D01*
X182368470Y-90456693D01*
X182416926Y-90416926D01*
X182575631Y-90223544D01*
X182693559Y-90002915D01*
X182753978Y-89803741D01*
X182766179Y-89763520D01*
X182770398Y-89720685D01*
X182784556Y-89576936D01*
X182784556Y-89576930D01*
X182790699Y-89514557D01*
X182784556Y-89452184D01*
X182784556Y-88062372D01*
X182790699Y-87999999D01*
X182784556Y-87937626D01*
X182784556Y-87937620D01*
X182766179Y-87751037D01*
X182693559Y-87511641D01*
X182575631Y-87291012D01*
X182416926Y-87097630D01*
X182368471Y-87057864D01*
X180765655Y-85455049D01*
X181041610Y-85509940D01*
X181334130Y-85509940D01*
X181621028Y-85452872D01*
X181891281Y-85340930D01*
X182020310Y-85254715D01*
X182034216Y-85392065D01*
X182119480Y-85670411D01*
X182257408Y-85926774D01*
X182442699Y-86151302D01*
X182557246Y-86253983D01*
X182816869Y-86241184D01*
X183321118Y-85159819D01*
X183302992Y-85151367D01*
X183410337Y-84921164D01*
X183428463Y-84929616D01*
X183436915Y-84911490D01*
X183667118Y-85018835D01*
G04 #@! TA.AperFunction,Conductor*
D40*
G36*
X183667118Y-85018835D02*
G01*
X183658666Y-85036961D01*
X183676792Y-85045413D01*
X183569447Y-85275616D01*
X183551321Y-85267164D01*
X183047071Y-86348529D01*
X183204150Y-86555639D01*
X183356437Y-86577385D01*
X183647539Y-86575003D01*
X183932583Y-86515874D01*
X184200614Y-86402273D01*
X184308994Y-86328565D01*
X184363981Y-86604999D01*
X184475923Y-86875252D01*
X184638438Y-87118473D01*
X184845281Y-87325316D01*
X185088502Y-87487831D01*
X185358755Y-87599773D01*
X185415856Y-87611131D01*
X183945300Y-89081688D01*
X183945289Y-89081697D01*
X183945280Y-89081706D01*
X183882900Y-89132900D01*
X183831706Y-89195280D01*
X177429907Y-95597081D01*
X177429902Y-95597085D01*
X175766138Y-97260850D01*
X167331359Y-97260850D01*
X167346123Y-97138401D01*
X167336581Y-97013682D01*
X167226892Y-96409297D01*
X167042987Y-96280525D01*
X165812716Y-96497455D01*
X165816189Y-96517151D01*
X165566048Y-96561258D01*
X165562575Y-96541562D01*
X165542879Y-96545035D01*
X165498772Y-96294894D01*
X165518468Y-96291421D01*
X165514995Y-96271725D01*
X165765136Y-96227618D01*
X165768609Y-96247314D01*
X166998880Y-96030384D01*
X167127652Y-95846479D01*
X167040337Y-95336388D01*
X167057863Y-95353914D01*
X167097630Y-95402370D01*
X167291012Y-95561075D01*
X167458269Y-95650475D01*
X167511641Y-95679003D01*
X167602199Y-95706474D01*
X168528751Y-96633026D01*
X168568518Y-96681482D01*
X168761900Y-96840187D01*
X168930126Y-96930105D01*
X168982529Y-96958115D01*
X169221925Y-97030735D01*
X169470888Y-97055256D01*
X169533268Y-97049112D01*
X175187627Y-97049112D01*
X175250000Y-97055255D01*
X175312373Y-97049112D01*
X175312380Y-97049112D01*
X175498963Y-97030735D01*
X175738359Y-96958115D01*
X175958988Y-96840187D01*
X176152370Y-96681482D01*
X176192141Y-96633021D01*
X182368470Y-90456693D01*
X182416926Y-90416926D01*
X182575631Y-90223544D01*
X182693559Y-90002915D01*
X182753978Y-89803741D01*
X182766179Y-89763520D01*
X182770398Y-89720685D01*
X182784556Y-89576936D01*
X182784556Y-89576930D01*
X182790699Y-89514557D01*
X182784556Y-89452184D01*
X182784556Y-88062372D01*
X182790699Y-87999999D01*
X182784556Y-87937626D01*
X182784556Y-87937620D01*
X182766179Y-87751037D01*
X182693559Y-87511641D01*
X182575631Y-87291012D01*
X182416926Y-87097630D01*
X182368471Y-87057864D01*
X180765655Y-85455049D01*
X181041610Y-85509940D01*
X181334130Y-85509940D01*
X181621028Y-85452872D01*
X181891281Y-85340930D01*
X182020310Y-85254715D01*
X182034216Y-85392065D01*
X182119480Y-85670411D01*
X182257408Y-85926774D01*
X182442699Y-86151302D01*
X182557246Y-86253983D01*
X182816869Y-86241184D01*
X183321118Y-85159819D01*
X183302992Y-85151367D01*
X183410337Y-84921164D01*
X183428463Y-84929616D01*
X183436915Y-84911490D01*
X183667118Y-85018835D01*
G37*
G04 #@! TD.AperFunction*
D39*
X179063074Y-82871935D02*
X179054622Y-82890061D01*
X179072748Y-82898513D01*
X178965403Y-83128716D01*
X178947277Y-83120264D01*
X178938825Y-83138390D01*
X178708622Y-83031045D01*
X178717074Y-83012919D01*
X178698948Y-83004467D01*
X178806293Y-82774264D01*
X178824419Y-82782716D01*
X178832871Y-82764590D01*
X179063074Y-82871935D01*
G04 #@! TA.AperFunction,Conductor*
D40*
G36*
X179063074Y-82871935D02*
G01*
X179054622Y-82890061D01*
X179072748Y-82898513D01*
X178965403Y-83128716D01*
X178947277Y-83120264D01*
X178938825Y-83138390D01*
X178708622Y-83031045D01*
X178717074Y-83012919D01*
X178698948Y-83004467D01*
X178806293Y-82774264D01*
X178824419Y-82782716D01*
X178832871Y-82764590D01*
X179063074Y-82871935D01*
G37*
G04 #@! TD.AperFunction*
M02*
