G04 #@! TF.GenerationSoftware,KiCad,Pcbnew,5.1.7-a382d34a8~87~ubuntu20.04.1*
G04 #@! TF.CreationDate,2020-12-06T18:05:45+09:00*
G04 #@! TF.ProjectId,ESP32DUALDIAL,45535033-3244-4554-914c-4449414c2e6b,rev?*
G04 #@! TF.SameCoordinates,Original*
G04 #@! TF.FileFunction,Legend,Top*
G04 #@! TF.FilePolarity,Positive*
%FSLAX46Y46*%
G04 Gerber Fmt 4.6, Leading zero omitted, Abs format (unit mm)*
G04 Created by KiCad (PCBNEW 5.1.7-a382d34a8~87~ubuntu20.04.1) date 2020-12-06 18:05:45*
%MOMM*%
%LPD*%
G01*
G04 APERTURE LIST*
%ADD10C,0.120000*%
%ADD11C,0.150000*%
G04 APERTURE END LIST*
D10*
X82600000Y-134300000D02*
X147400000Y-134300000D01*
X147400000Y-85700000D02*
X82600000Y-85700000D01*
X147400000Y-85700000D02*
X147400000Y-134300000D01*
X82600000Y-85700000D02*
X82600000Y-134300000D01*
X79100000Y-137500000D02*
X79100000Y-82500000D01*
X156800000Y-137500000D02*
X156800000Y-82500000D01*
X73300000Y-137500000D02*
X162600000Y-137500000D01*
X73300000Y-82500000D02*
X73300000Y-137500000D01*
X162600000Y-82500000D02*
X73300000Y-82500000D01*
X162600000Y-137500000D02*
X162600000Y-82500000D01*
X196437742Y-95522500D02*
X196912258Y-95522500D01*
X196437742Y-94477500D02*
X196912258Y-94477500D01*
X202262742Y-97477500D02*
X202737258Y-97477500D01*
X202262742Y-98522500D02*
X202737258Y-98522500D01*
X202412164Y-96860000D02*
X202627836Y-96860000D01*
X202412164Y-96140000D02*
X202627836Y-96140000D01*
X164392164Y-80140000D02*
X164607836Y-80140000D01*
X164392164Y-80860000D02*
X164607836Y-80860000D01*
X104377258Y-141492500D02*
X103902742Y-141492500D01*
X104377258Y-140447500D02*
X103902742Y-140447500D01*
X197062258Y-96977500D02*
X196587742Y-96977500D01*
X197062258Y-98022500D02*
X196587742Y-98022500D01*
X185762742Y-89477500D02*
X186237258Y-89477500D01*
X185762742Y-90522500D02*
X186237258Y-90522500D01*
X102522500Y-132762742D02*
X102522500Y-133237258D01*
X101477500Y-132762742D02*
X101477500Y-133237258D01*
X97477500Y-132937742D02*
X97477500Y-133412258D01*
X98522500Y-132937742D02*
X98522500Y-133412258D01*
X94057500Y-132762742D02*
X94057500Y-133237258D01*
X93012500Y-132762742D02*
X93012500Y-133237258D01*
X88477500Y-132762742D02*
X88477500Y-133237258D01*
X89522500Y-132762742D02*
X89522500Y-133237258D01*
X164262742Y-82977500D02*
X164737258Y-82977500D01*
X164262742Y-84022500D02*
X164737258Y-84022500D01*
X164737258Y-87522500D02*
X164262742Y-87522500D01*
X164737258Y-86477500D02*
X164262742Y-86477500D01*
X170000000Y-110500000D02*
X170000000Y-109500000D01*
X169500000Y-110000000D02*
X170500000Y-110000000D01*
X173500000Y-103900000D02*
X175900000Y-103900000D01*
X168700000Y-103900000D02*
X171300000Y-103900000D01*
X164100000Y-103900000D02*
X166500000Y-103900000D01*
X165900000Y-117200000D02*
X166200000Y-117500000D01*
X165900000Y-117800000D02*
X165900000Y-117200000D01*
X166200000Y-117500000D02*
X165900000Y-117800000D01*
X164100000Y-116100000D02*
X175900000Y-116100000D01*
X164100000Y-112000000D02*
X164100000Y-116100000D01*
X175900000Y-112000000D02*
X175900000Y-116100000D01*
X175900000Y-103900000D02*
X175900000Y-108000000D01*
X164100000Y-108000000D02*
X164100000Y-103900000D01*
X173000000Y-110000000D02*
G75*
G03*
X173000000Y-110000000I-3000000J0D01*
G01*
X63000000Y-110000000D02*
G75*
G03*
X63000000Y-110000000I-3000000J0D01*
G01*
X54100000Y-108000000D02*
X54100000Y-103900000D01*
X65900000Y-103900000D02*
X65900000Y-108000000D01*
X65900000Y-112000000D02*
X65900000Y-116100000D01*
X54100000Y-112000000D02*
X54100000Y-116100000D01*
X54100000Y-116100000D02*
X65900000Y-116100000D01*
X56200000Y-117500000D02*
X55900000Y-117800000D01*
X55900000Y-117800000D02*
X55900000Y-117200000D01*
X55900000Y-117200000D02*
X56200000Y-117500000D01*
X54100000Y-103900000D02*
X56500000Y-103900000D01*
X58700000Y-103900000D02*
X61300000Y-103900000D01*
X63500000Y-103900000D02*
X65900000Y-103900000D01*
X59500000Y-110000000D02*
X60500000Y-110000000D01*
X60000000Y-110500000D02*
X60000000Y-109500000D01*
D11*
X205000000Y-101000000D02*
X185500000Y-101000000D01*
X185500000Y-101000000D02*
X185500000Y-119000000D01*
X185500000Y-119000000D02*
X205000000Y-119000000D01*
X205000000Y-110000000D02*
X205000000Y-101000000D01*
X205000000Y-101000000D02*
X211000000Y-101000000D01*
X211000000Y-101000000D02*
X211000000Y-119000000D01*
X211000000Y-119000000D02*
X205000000Y-119000000D01*
X205000000Y-119000000D02*
X205000000Y-110000000D01*
D10*
X167600000Y-87000000D02*
X167600000Y-85000000D01*
X170400000Y-87000000D02*
X167600000Y-87000000D01*
X170400000Y-85000000D02*
X170400000Y-87000000D01*
X167600000Y-85000000D02*
X170400000Y-85000000D01*
X140700000Y-120450000D02*
X141300000Y-120450000D01*
X140000000Y-123900000D02*
X140000000Y-121100000D01*
X141300000Y-124550000D02*
X140700000Y-124550000D01*
X142000000Y-121100000D02*
X142000000Y-123900000D01*
X142000000Y-123850000D02*
G75*
G02*
X141300000Y-124550000I-700000J0D01*
G01*
X140700000Y-124550000D02*
G75*
G02*
X140000000Y-123850000I0J700000D01*
G01*
X140000000Y-121150000D02*
G75*
G02*
X140700000Y-120450000I700000J0D01*
G01*
X141300000Y-120450000D02*
G75*
G02*
X142000000Y-121150000I0J-700000D01*
G01*
X172762742Y-85477500D02*
X173237258Y-85477500D01*
X172762742Y-86522500D02*
X173237258Y-86522500D01*
X163840000Y-87920000D02*
X163840000Y-98080000D01*
X163840000Y-98080000D02*
X184160000Y-98080000D01*
X184160000Y-98080000D02*
X184160000Y-87920000D01*
X184160000Y-87920000D02*
X163840000Y-87920000D01*
X183674903Y-96175000D02*
G75*
G03*
X183674903Y-96175000I-1419903J0D01*
G01*
X175569806Y-91730000D02*
G75*
G03*
X175569806Y-91730000I-2839806J0D01*
G01*
X169555000Y-88555000D02*
X175905000Y-88555000D01*
X175905000Y-88555000D02*
X175905000Y-94905000D01*
X175905000Y-94905000D02*
X169555000Y-94905000D01*
X169555000Y-94905000D02*
X169555000Y-88555000D01*
D11*
X116598095Y-139932380D02*
X116598095Y-140741904D01*
X116645714Y-140837142D01*
X116693333Y-140884761D01*
X116788571Y-140932380D01*
X116979047Y-140932380D01*
X117074285Y-140884761D01*
X117121904Y-140837142D01*
X117169523Y-140741904D01*
X117169523Y-139932380D01*
X118169523Y-140932380D02*
X117598095Y-140932380D01*
X117883809Y-140932380D02*
X117883809Y-139932380D01*
X117788571Y-140075238D01*
X117693333Y-140170476D01*
X117598095Y-140218095D01*
X196508333Y-93927142D02*
X196460714Y-93974761D01*
X196317857Y-94022380D01*
X196222619Y-94022380D01*
X196079761Y-93974761D01*
X195984523Y-93879523D01*
X195936904Y-93784285D01*
X195889285Y-93593809D01*
X195889285Y-93450952D01*
X195936904Y-93260476D01*
X195984523Y-93165238D01*
X196079761Y-93070000D01*
X196222619Y-93022380D01*
X196317857Y-93022380D01*
X196460714Y-93070000D01*
X196508333Y-93117619D01*
X197460714Y-94022380D02*
X196889285Y-94022380D01*
X197175000Y-94022380D02*
X197175000Y-93022380D01*
X197079761Y-93165238D01*
X196984523Y-93260476D01*
X196889285Y-93308095D01*
X202333333Y-96927142D02*
X202285714Y-96974761D01*
X202142857Y-97022380D01*
X202047619Y-97022380D01*
X201904761Y-96974761D01*
X201809523Y-96879523D01*
X201761904Y-96784285D01*
X201714285Y-96593809D01*
X201714285Y-96450952D01*
X201761904Y-96260476D01*
X201809523Y-96165238D01*
X201904761Y-96070000D01*
X202047619Y-96022380D01*
X202142857Y-96022380D01*
X202285714Y-96070000D01*
X202333333Y-96117619D01*
X202714285Y-96117619D02*
X202761904Y-96070000D01*
X202857142Y-96022380D01*
X203095238Y-96022380D01*
X203190476Y-96070000D01*
X203238095Y-96117619D01*
X203285714Y-96212857D01*
X203285714Y-96308095D01*
X203238095Y-96450952D01*
X202666666Y-97022380D01*
X203285714Y-97022380D01*
X202353333Y-95697142D02*
X202305714Y-95744761D01*
X202162857Y-95792380D01*
X202067619Y-95792380D01*
X201924761Y-95744761D01*
X201829523Y-95649523D01*
X201781904Y-95554285D01*
X201734285Y-95363809D01*
X201734285Y-95220952D01*
X201781904Y-95030476D01*
X201829523Y-94935238D01*
X201924761Y-94840000D01*
X202067619Y-94792380D01*
X202162857Y-94792380D01*
X202305714Y-94840000D01*
X202353333Y-94887619D01*
X202686666Y-94792380D02*
X203305714Y-94792380D01*
X202972380Y-95173333D01*
X203115238Y-95173333D01*
X203210476Y-95220952D01*
X203258095Y-95268571D01*
X203305714Y-95363809D01*
X203305714Y-95601904D01*
X203258095Y-95697142D01*
X203210476Y-95744761D01*
X203115238Y-95792380D01*
X202829523Y-95792380D01*
X202734285Y-95744761D01*
X202686666Y-95697142D01*
X164333333Y-79697142D02*
X164285714Y-79744761D01*
X164142857Y-79792380D01*
X164047619Y-79792380D01*
X163904761Y-79744761D01*
X163809523Y-79649523D01*
X163761904Y-79554285D01*
X163714285Y-79363809D01*
X163714285Y-79220952D01*
X163761904Y-79030476D01*
X163809523Y-78935238D01*
X163904761Y-78840000D01*
X164047619Y-78792380D01*
X164142857Y-78792380D01*
X164285714Y-78840000D01*
X164333333Y-78887619D01*
X165190476Y-78792380D02*
X165000000Y-78792380D01*
X164904761Y-78840000D01*
X164857142Y-78887619D01*
X164761904Y-79030476D01*
X164714285Y-79220952D01*
X164714285Y-79601904D01*
X164761904Y-79697142D01*
X164809523Y-79744761D01*
X164904761Y-79792380D01*
X165095238Y-79792380D01*
X165190476Y-79744761D01*
X165238095Y-79697142D01*
X165285714Y-79601904D01*
X165285714Y-79363809D01*
X165238095Y-79268571D01*
X165190476Y-79220952D01*
X165095238Y-79173333D01*
X164904761Y-79173333D01*
X164809523Y-79220952D01*
X164761904Y-79268571D01*
X164714285Y-79363809D01*
X103973333Y-142852380D02*
X103640000Y-142376190D01*
X103401904Y-142852380D02*
X103401904Y-141852380D01*
X103782857Y-141852380D01*
X103878095Y-141900000D01*
X103925714Y-141947619D01*
X103973333Y-142042857D01*
X103973333Y-142185714D01*
X103925714Y-142280952D01*
X103878095Y-142328571D01*
X103782857Y-142376190D01*
X103401904Y-142376190D01*
X104925714Y-142852380D02*
X104354285Y-142852380D01*
X104640000Y-142852380D02*
X104640000Y-141852380D01*
X104544761Y-141995238D01*
X104449523Y-142090476D01*
X104354285Y-142138095D01*
X196658333Y-99382380D02*
X196325000Y-98906190D01*
X196086904Y-99382380D02*
X196086904Y-98382380D01*
X196467857Y-98382380D01*
X196563095Y-98430000D01*
X196610714Y-98477619D01*
X196658333Y-98572857D01*
X196658333Y-98715714D01*
X196610714Y-98810952D01*
X196563095Y-98858571D01*
X196467857Y-98906190D01*
X196086904Y-98906190D01*
X197039285Y-98477619D02*
X197086904Y-98430000D01*
X197182142Y-98382380D01*
X197420238Y-98382380D01*
X197515476Y-98430000D01*
X197563095Y-98477619D01*
X197610714Y-98572857D01*
X197610714Y-98668095D01*
X197563095Y-98810952D01*
X196991666Y-99382380D01*
X197610714Y-99382380D01*
X185833333Y-89022380D02*
X185500000Y-88546190D01*
X185261904Y-89022380D02*
X185261904Y-88022380D01*
X185642857Y-88022380D01*
X185738095Y-88070000D01*
X185785714Y-88117619D01*
X185833333Y-88212857D01*
X185833333Y-88355714D01*
X185785714Y-88450952D01*
X185738095Y-88498571D01*
X185642857Y-88546190D01*
X185261904Y-88546190D01*
X186166666Y-88022380D02*
X186785714Y-88022380D01*
X186452380Y-88403333D01*
X186595238Y-88403333D01*
X186690476Y-88450952D01*
X186738095Y-88498571D01*
X186785714Y-88593809D01*
X186785714Y-88831904D01*
X186738095Y-88927142D01*
X186690476Y-88974761D01*
X186595238Y-89022380D01*
X186309523Y-89022380D01*
X186214285Y-88974761D01*
X186166666Y-88927142D01*
X103882380Y-133166666D02*
X103406190Y-133500000D01*
X103882380Y-133738095D02*
X102882380Y-133738095D01*
X102882380Y-133357142D01*
X102930000Y-133261904D01*
X102977619Y-133214285D01*
X103072857Y-133166666D01*
X103215714Y-133166666D01*
X103310952Y-133214285D01*
X103358571Y-133261904D01*
X103406190Y-133357142D01*
X103406190Y-133738095D01*
X102882380Y-132261904D02*
X102882380Y-132738095D01*
X103358571Y-132785714D01*
X103310952Y-132738095D01*
X103263333Y-132642857D01*
X103263333Y-132404761D01*
X103310952Y-132309523D01*
X103358571Y-132261904D01*
X103453809Y-132214285D01*
X103691904Y-132214285D01*
X103787142Y-132261904D01*
X103834761Y-132309523D01*
X103882380Y-132404761D01*
X103882380Y-132642857D01*
X103834761Y-132738095D01*
X103787142Y-132785714D01*
X99882380Y-133341666D02*
X99406190Y-133675000D01*
X99882380Y-133913095D02*
X98882380Y-133913095D01*
X98882380Y-133532142D01*
X98930000Y-133436904D01*
X98977619Y-133389285D01*
X99072857Y-133341666D01*
X99215714Y-133341666D01*
X99310952Y-133389285D01*
X99358571Y-133436904D01*
X99406190Y-133532142D01*
X99406190Y-133913095D01*
X98882380Y-132484523D02*
X98882380Y-132675000D01*
X98930000Y-132770238D01*
X98977619Y-132817857D01*
X99120476Y-132913095D01*
X99310952Y-132960714D01*
X99691904Y-132960714D01*
X99787142Y-132913095D01*
X99834761Y-132865476D01*
X99882380Y-132770238D01*
X99882380Y-132579761D01*
X99834761Y-132484523D01*
X99787142Y-132436904D01*
X99691904Y-132389285D01*
X99453809Y-132389285D01*
X99358571Y-132436904D01*
X99310952Y-132484523D01*
X99263333Y-132579761D01*
X99263333Y-132770238D01*
X99310952Y-132865476D01*
X99358571Y-132913095D01*
X99453809Y-132960714D01*
X95417380Y-133166666D02*
X94941190Y-133500000D01*
X95417380Y-133738095D02*
X94417380Y-133738095D01*
X94417380Y-133357142D01*
X94465000Y-133261904D01*
X94512619Y-133214285D01*
X94607857Y-133166666D01*
X94750714Y-133166666D01*
X94845952Y-133214285D01*
X94893571Y-133261904D01*
X94941190Y-133357142D01*
X94941190Y-133738095D01*
X94417380Y-132833333D02*
X94417380Y-132166666D01*
X95417380Y-132595238D01*
X90882380Y-133166666D02*
X90406190Y-133500000D01*
X90882380Y-133738095D02*
X89882380Y-133738095D01*
X89882380Y-133357142D01*
X89930000Y-133261904D01*
X89977619Y-133214285D01*
X90072857Y-133166666D01*
X90215714Y-133166666D01*
X90310952Y-133214285D01*
X90358571Y-133261904D01*
X90406190Y-133357142D01*
X90406190Y-133738095D01*
X90310952Y-132595238D02*
X90263333Y-132690476D01*
X90215714Y-132738095D01*
X90120476Y-132785714D01*
X90072857Y-132785714D01*
X89977619Y-132738095D01*
X89930000Y-132690476D01*
X89882380Y-132595238D01*
X89882380Y-132404761D01*
X89930000Y-132309523D01*
X89977619Y-132261904D01*
X90072857Y-132214285D01*
X90120476Y-132214285D01*
X90215714Y-132261904D01*
X90263333Y-132309523D01*
X90310952Y-132404761D01*
X90310952Y-132595238D01*
X90358571Y-132690476D01*
X90406190Y-132738095D01*
X90501428Y-132785714D01*
X90691904Y-132785714D01*
X90787142Y-132738095D01*
X90834761Y-132690476D01*
X90882380Y-132595238D01*
X90882380Y-132404761D01*
X90834761Y-132309523D01*
X90787142Y-132261904D01*
X90691904Y-132214285D01*
X90501428Y-132214285D01*
X90406190Y-132261904D01*
X90358571Y-132309523D01*
X90310952Y-132404761D01*
X164333333Y-82522380D02*
X164000000Y-82046190D01*
X163761904Y-82522380D02*
X163761904Y-81522380D01*
X164142857Y-81522380D01*
X164238095Y-81570000D01*
X164285714Y-81617619D01*
X164333333Y-81712857D01*
X164333333Y-81855714D01*
X164285714Y-81950952D01*
X164238095Y-81998571D01*
X164142857Y-82046190D01*
X163761904Y-82046190D01*
X164809523Y-82522380D02*
X165000000Y-82522380D01*
X165095238Y-82474761D01*
X165142857Y-82427142D01*
X165238095Y-82284285D01*
X165285714Y-82093809D01*
X165285714Y-81712857D01*
X165238095Y-81617619D01*
X165190476Y-81570000D01*
X165095238Y-81522380D01*
X164904761Y-81522380D01*
X164809523Y-81570000D01*
X164761904Y-81617619D01*
X164714285Y-81712857D01*
X164714285Y-81950952D01*
X164761904Y-82046190D01*
X164809523Y-82093809D01*
X164904761Y-82141428D01*
X165095238Y-82141428D01*
X165190476Y-82093809D01*
X165238095Y-82046190D01*
X165285714Y-81950952D01*
X163857142Y-88882380D02*
X163523809Y-88406190D01*
X163285714Y-88882380D02*
X163285714Y-87882380D01*
X163666666Y-87882380D01*
X163761904Y-87930000D01*
X163809523Y-87977619D01*
X163857142Y-88072857D01*
X163857142Y-88215714D01*
X163809523Y-88310952D01*
X163761904Y-88358571D01*
X163666666Y-88406190D01*
X163285714Y-88406190D01*
X164809523Y-88882380D02*
X164238095Y-88882380D01*
X164523809Y-88882380D02*
X164523809Y-87882380D01*
X164428571Y-88025238D01*
X164333333Y-88120476D01*
X164238095Y-88168095D01*
X165428571Y-87882380D02*
X165523809Y-87882380D01*
X165619047Y-87930000D01*
X165666666Y-87977619D01*
X165714285Y-88072857D01*
X165761904Y-88263333D01*
X165761904Y-88501428D01*
X165714285Y-88691904D01*
X165666666Y-88787142D01*
X165619047Y-88834761D01*
X165523809Y-88882380D01*
X165428571Y-88882380D01*
X165333333Y-88834761D01*
X165285714Y-88787142D01*
X165238095Y-88691904D01*
X165190476Y-88501428D01*
X165190476Y-88263333D01*
X165238095Y-88072857D01*
X165285714Y-87977619D01*
X165333333Y-87930000D01*
X165428571Y-87882380D01*
X163204761Y-116033333D02*
X163252380Y-115890476D01*
X163252380Y-115652380D01*
X163204761Y-115557142D01*
X163157142Y-115509523D01*
X163061904Y-115461904D01*
X162966666Y-115461904D01*
X162871428Y-115509523D01*
X162823809Y-115557142D01*
X162776190Y-115652380D01*
X162728571Y-115842857D01*
X162680952Y-115938095D01*
X162633333Y-115985714D01*
X162538095Y-116033333D01*
X162442857Y-116033333D01*
X162347619Y-115985714D01*
X162300000Y-115938095D01*
X162252380Y-115842857D01*
X162252380Y-115604761D01*
X162300000Y-115461904D01*
X162252380Y-115128571D02*
X163252380Y-114890476D01*
X162538095Y-114700000D01*
X163252380Y-114509523D01*
X162252380Y-114271428D01*
X163252380Y-113366666D02*
X163252380Y-113938095D01*
X163252380Y-113652380D02*
X162252380Y-113652380D01*
X162395238Y-113747619D01*
X162490476Y-113842857D01*
X162538095Y-113938095D01*
X53204761Y-116033333D02*
X53252380Y-115890476D01*
X53252380Y-115652380D01*
X53204761Y-115557142D01*
X53157142Y-115509523D01*
X53061904Y-115461904D01*
X52966666Y-115461904D01*
X52871428Y-115509523D01*
X52823809Y-115557142D01*
X52776190Y-115652380D01*
X52728571Y-115842857D01*
X52680952Y-115938095D01*
X52633333Y-115985714D01*
X52538095Y-116033333D01*
X52442857Y-116033333D01*
X52347619Y-115985714D01*
X52300000Y-115938095D01*
X52252380Y-115842857D01*
X52252380Y-115604761D01*
X52300000Y-115461904D01*
X52252380Y-115128571D02*
X53252380Y-114890476D01*
X52538095Y-114700000D01*
X53252380Y-114509523D01*
X52252380Y-114271428D01*
X52347619Y-113938095D02*
X52300000Y-113890476D01*
X52252380Y-113795238D01*
X52252380Y-113557142D01*
X52300000Y-113461904D01*
X52347619Y-113414285D01*
X52442857Y-113366666D01*
X52538095Y-113366666D01*
X52680952Y-113414285D01*
X53252380Y-113985714D01*
X53252380Y-113366666D01*
X211452380Y-110761904D02*
X212261904Y-110761904D01*
X212357142Y-110714285D01*
X212404761Y-110666666D01*
X212452380Y-110571428D01*
X212452380Y-110380952D01*
X212404761Y-110285714D01*
X212357142Y-110238095D01*
X212261904Y-110190476D01*
X211452380Y-110190476D01*
X211547619Y-109761904D02*
X211500000Y-109714285D01*
X211452380Y-109619047D01*
X211452380Y-109380952D01*
X211500000Y-109285714D01*
X211547619Y-109238095D01*
X211642857Y-109190476D01*
X211738095Y-109190476D01*
X211880952Y-109238095D01*
X212452380Y-109809523D01*
X212452380Y-109190476D01*
X59238095Y-136252380D02*
X59238095Y-135252380D01*
X59238095Y-135728571D02*
X59809523Y-135728571D01*
X59809523Y-136252380D02*
X59809523Y-135252380D01*
X60238095Y-135347619D02*
X60285714Y-135300000D01*
X60380952Y-135252380D01*
X60619047Y-135252380D01*
X60714285Y-135300000D01*
X60761904Y-135347619D01*
X60809523Y-135442857D01*
X60809523Y-135538095D01*
X60761904Y-135680952D01*
X60190476Y-136252380D01*
X60809523Y-136252380D01*
X169238095Y-76252380D02*
X169238095Y-75252380D01*
X169238095Y-75728571D02*
X169809523Y-75728571D01*
X169809523Y-76252380D02*
X169809523Y-75252380D01*
X170190476Y-75252380D02*
X170809523Y-75252380D01*
X170476190Y-75633333D01*
X170619047Y-75633333D01*
X170714285Y-75680952D01*
X170761904Y-75728571D01*
X170809523Y-75823809D01*
X170809523Y-76061904D01*
X170761904Y-76157142D01*
X170714285Y-76204761D01*
X170619047Y-76252380D01*
X170333333Y-76252380D01*
X170238095Y-76204761D01*
X170190476Y-76157142D01*
X169238095Y-136252380D02*
X169238095Y-135252380D01*
X169238095Y-135728571D02*
X169809523Y-135728571D01*
X169809523Y-136252380D02*
X169809523Y-135252380D01*
X170714285Y-135585714D02*
X170714285Y-136252380D01*
X170476190Y-135204761D02*
X170238095Y-135919047D01*
X170857142Y-135919047D01*
X59238095Y-76252380D02*
X59238095Y-75252380D01*
X59238095Y-75728571D02*
X59809523Y-75728571D01*
X59809523Y-76252380D02*
X59809523Y-75252380D01*
X60809523Y-76252380D02*
X60238095Y-76252380D01*
X60523809Y-76252380D02*
X60523809Y-75252380D01*
X60428571Y-75395238D01*
X60333333Y-75490476D01*
X60238095Y-75538095D01*
X168166666Y-83652380D02*
X168166666Y-84366666D01*
X168119047Y-84509523D01*
X168023809Y-84604761D01*
X167880952Y-84652380D01*
X167785714Y-84652380D01*
X168642857Y-84652380D02*
X168642857Y-83652380D01*
X169023809Y-83652380D01*
X169119047Y-83700000D01*
X169166666Y-83747619D01*
X169214285Y-83842857D01*
X169214285Y-83985714D01*
X169166666Y-84080952D01*
X169119047Y-84128571D01*
X169023809Y-84176190D01*
X168642857Y-84176190D01*
X170166666Y-84652380D02*
X169595238Y-84652380D01*
X169880952Y-84652380D02*
X169880952Y-83652380D01*
X169785714Y-83795238D01*
X169690476Y-83890476D01*
X169595238Y-83938095D01*
X142252380Y-123333333D02*
X142966666Y-123333333D01*
X143109523Y-123380952D01*
X143204761Y-123476190D01*
X143252380Y-123619047D01*
X143252380Y-123714285D01*
X143252380Y-122857142D02*
X142252380Y-122857142D01*
X142252380Y-122476190D01*
X142300000Y-122380952D01*
X142347619Y-122333333D01*
X142442857Y-122285714D01*
X142585714Y-122285714D01*
X142680952Y-122333333D01*
X142728571Y-122380952D01*
X142776190Y-122476190D01*
X142776190Y-122857142D01*
X142347619Y-121904761D02*
X142300000Y-121857142D01*
X142252380Y-121761904D01*
X142252380Y-121523809D01*
X142300000Y-121428571D01*
X142347619Y-121380952D01*
X142442857Y-121333333D01*
X142538095Y-121333333D01*
X142680952Y-121380952D01*
X143252380Y-121952380D01*
X143252380Y-121333333D01*
X140452380Y-125433333D02*
X140452380Y-124814285D01*
X140833333Y-125147619D01*
X140833333Y-125004761D01*
X140880952Y-124909523D01*
X140928571Y-124861904D01*
X141023809Y-124814285D01*
X141261904Y-124814285D01*
X141357142Y-124861904D01*
X141404761Y-124909523D01*
X141452380Y-125004761D01*
X141452380Y-125290476D01*
X141404761Y-125385714D01*
X141357142Y-125433333D01*
X141452380Y-119614285D02*
X141452380Y-120185714D01*
X141452380Y-119900000D02*
X140452380Y-119900000D01*
X140595238Y-119995238D01*
X140690476Y-120090476D01*
X140738095Y-120185714D01*
X172833333Y-85022380D02*
X172500000Y-84546190D01*
X172261904Y-85022380D02*
X172261904Y-84022380D01*
X172642857Y-84022380D01*
X172738095Y-84070000D01*
X172785714Y-84117619D01*
X172833333Y-84212857D01*
X172833333Y-84355714D01*
X172785714Y-84450952D01*
X172738095Y-84498571D01*
X172642857Y-84546190D01*
X172261904Y-84546190D01*
X173690476Y-84355714D02*
X173690476Y-85022380D01*
X173452380Y-83974761D02*
X173214285Y-84689047D01*
X173833333Y-84689047D01*
X173238095Y-96262380D02*
X173238095Y-97071904D01*
X173285714Y-97167142D01*
X173333333Y-97214761D01*
X173428571Y-97262380D01*
X173619047Y-97262380D01*
X173714285Y-97214761D01*
X173761904Y-97167142D01*
X173809523Y-97071904D01*
X173809523Y-96262380D01*
X174190476Y-96262380D02*
X174809523Y-96262380D01*
X174476190Y-96643333D01*
X174619047Y-96643333D01*
X174714285Y-96690952D01*
X174761904Y-96738571D01*
X174809523Y-96833809D01*
X174809523Y-97071904D01*
X174761904Y-97167142D01*
X174714285Y-97214761D01*
X174619047Y-97262380D01*
X174333333Y-97262380D01*
X174238095Y-97214761D01*
X174190476Y-97167142D01*
M02*
