G04 #@! TF.GenerationSoftware,KiCad,Pcbnew,5.1.7-a382d34a8~87~ubuntu20.04.1*
G04 #@! TF.CreationDate,2020-12-06T18:05:45+09:00*
G04 #@! TF.ProjectId,ESP32DUALDIAL,45535033-3244-4554-914c-4449414c2e6b,rev?*
G04 #@! TF.SameCoordinates,Original*
G04 #@! TF.FileFunction,Legend,Bot*
G04 #@! TF.FilePolarity,Positive*
%FSLAX46Y46*%
G04 Gerber Fmt 4.6, Leading zero omitted, Abs format (unit mm)*
G04 Created by KiCad (PCBNEW 5.1.7-a382d34a8~87~ubuntu20.04.1) date 2020-12-06 18:05:45*
%MOMM*%
%LPD*%
G01*
G04 APERTURE LIST*
%ADD10C,0.177500*%
%ADD11C,0.150000*%
%ADD12C,0.120000*%
G04 APERTURE END LIST*
D10*
X201614875Y-90811874D02*
X201216531Y-90626123D01*
X201270026Y-91071403D01*
X201178101Y-91028537D01*
X201096693Y-91043118D01*
X201045926Y-91071987D01*
X200975035Y-91144013D01*
X200874412Y-91359801D01*
X200864804Y-91460405D01*
X200875321Y-91517851D01*
X200916480Y-91589585D01*
X201100331Y-91675316D01*
X201181739Y-91660736D01*
X201232506Y-91631867D01*
X201032680Y-90540392D02*
X200395569Y-91346680D01*
X200603694Y-90340353D01*
X200450485Y-90268910D02*
X200052141Y-90083159D01*
X200105637Y-90528439D01*
X200013711Y-90485574D01*
X199932303Y-90500154D01*
X199881536Y-90529023D01*
X199810645Y-90601050D01*
X199710022Y-90816837D01*
X199700414Y-90917441D01*
X199710931Y-90974887D01*
X199752090Y-91046621D01*
X199935941Y-91132352D01*
X200017350Y-91117772D01*
X200068116Y-91088903D01*
X198928911Y-89611930D02*
X199010319Y-89597350D01*
X199102244Y-89640215D01*
X199174045Y-89726238D01*
X199195080Y-89841130D01*
X199185472Y-89941734D01*
X199135615Y-90128653D01*
X199075241Y-90258125D01*
X198964101Y-90416467D01*
X198893209Y-90488493D01*
X198791676Y-90546231D01*
X198679626Y-90546523D01*
X198618343Y-90517946D01*
X198546542Y-90431923D01*
X198536025Y-90374477D01*
X198676897Y-90072374D01*
X198799465Y-90129528D01*
X198219999Y-90332195D02*
X198642617Y-89425887D01*
X197852297Y-90160733D01*
X198274915Y-89254425D01*
X197545878Y-90017848D02*
X197968497Y-89111540D01*
X197815287Y-89040097D01*
X197703237Y-89040389D01*
X197601704Y-89098127D01*
X197530813Y-89170154D01*
X197419672Y-89328495D01*
X197359298Y-89457968D01*
X197309442Y-89644886D01*
X197299834Y-89745490D01*
X197320868Y-89860382D01*
X197392669Y-89946405D01*
X197545878Y-90017848D01*
X196412130Y-89489172D02*
X196834749Y-88582865D01*
X196044428Y-89317710D02*
X196561701Y-88928417D01*
X196467047Y-88411402D02*
X196593253Y-89100755D01*
X195990023Y-88714381D02*
X195775531Y-88614361D01*
X195462234Y-89046228D02*
X195768652Y-89189113D01*
X196191270Y-88282806D01*
X195884852Y-88139920D01*
X195265136Y-88428902D02*
X195063890Y-88860477D01*
X195701001Y-88054189D02*
X195265136Y-88428902D01*
X195272015Y-87854150D01*
X194659178Y-87568380D02*
X194291476Y-87396917D01*
X194052709Y-88388956D02*
X194475327Y-87482648D01*
X194138267Y-87325475D02*
X193286663Y-88031743D01*
X193709282Y-87125435D02*
X193715649Y-88231782D01*
X193041529Y-87917435D02*
X193464147Y-87011127D01*
X193310938Y-86939685D01*
X193198888Y-86939977D01*
X193097354Y-86997715D01*
X193026463Y-87069741D01*
X192915323Y-87228083D01*
X192854949Y-87357555D01*
X192805092Y-87544474D01*
X192795484Y-87645077D01*
X192816519Y-87759969D01*
X192888319Y-87845992D01*
X193041529Y-87917435D01*
X191540079Y-87217297D02*
X191955818Y-86885742D01*
X191907781Y-87388760D02*
X192330399Y-86482452D01*
X192085264Y-86368144D01*
X192003856Y-86382724D01*
X191953089Y-86411593D01*
X191882198Y-86483620D01*
X191821824Y-86613092D01*
X191812217Y-86713696D01*
X191822734Y-86771142D01*
X191863893Y-86842876D01*
X192109028Y-86957185D01*
X191748204Y-86210970D02*
X190896600Y-86917238D01*
X191319218Y-86010931D02*
X191325586Y-87117278D01*
X190651466Y-86802930D02*
X191074084Y-85896622D01*
X190920875Y-85825180D01*
X190808824Y-85825472D01*
X190707291Y-85883210D01*
X190636400Y-85955236D01*
X190525260Y-86113578D01*
X190464886Y-86243050D01*
X190415029Y-86429969D01*
X190405421Y-86530572D01*
X190426456Y-86645465D01*
X190498256Y-86731488D01*
X190651466Y-86802930D01*
X190001620Y-85396524D02*
X189603276Y-85210773D01*
X189656771Y-85656053D01*
X189564846Y-85613188D01*
X189483437Y-85627768D01*
X189432671Y-85656637D01*
X189361780Y-85728664D01*
X189261156Y-85944451D01*
X189251549Y-86045055D01*
X189262066Y-86102501D01*
X189303225Y-86174235D01*
X189487076Y-86259966D01*
X189568484Y-86245386D01*
X189619251Y-86216517D01*
X189419425Y-85125042D02*
X188782314Y-85931330D01*
X188990439Y-84925003D01*
X188837230Y-84853560D02*
X188438886Y-84667810D01*
X188492381Y-85113089D01*
X188400456Y-85070224D01*
X188319048Y-85084804D01*
X188268281Y-85113673D01*
X188197390Y-85185700D01*
X188096766Y-85401487D01*
X188087159Y-85502091D01*
X188097676Y-85559537D01*
X188138835Y-85631271D01*
X188322686Y-85717003D01*
X188404094Y-85702422D01*
X188454861Y-85673553D01*
X187250222Y-85216904D02*
X187672840Y-84310596D01*
X187427705Y-84196288D01*
X187346297Y-84210869D01*
X187295531Y-84239738D01*
X187224639Y-84311764D01*
X187164265Y-84441237D01*
X187154658Y-84541840D01*
X187165175Y-84599286D01*
X187206334Y-84671021D01*
X187451469Y-84785329D01*
X186239041Y-84745383D02*
X186654781Y-84413828D01*
X186606743Y-84916845D02*
X187029362Y-84010538D01*
X186784227Y-83896229D01*
X186702819Y-83910810D01*
X186652052Y-83939679D01*
X186581161Y-84011705D01*
X186520787Y-84141178D01*
X186511179Y-84241781D01*
X186521696Y-84299227D01*
X186562855Y-84370962D01*
X186807990Y-84485270D01*
X186028698Y-83596462D02*
X186110107Y-83581882D01*
X186202032Y-83624747D01*
X186273833Y-83710771D01*
X186294867Y-83825663D01*
X186285260Y-83926266D01*
X186235403Y-84113185D01*
X186175029Y-84242657D01*
X186063888Y-84400999D01*
X185992997Y-84473025D01*
X185891464Y-84530763D01*
X185779414Y-84531055D01*
X185718130Y-84502478D01*
X185646329Y-84416455D01*
X185635812Y-84359009D01*
X185776685Y-84056906D01*
X185899252Y-84114061D01*
X184894950Y-83067787D02*
X184976359Y-83053207D01*
X185068284Y-83096072D01*
X185140085Y-83182095D01*
X185161119Y-83296987D01*
X185151512Y-83397591D01*
X185101655Y-83584509D01*
X185041281Y-83713982D01*
X184930140Y-83872323D01*
X184859249Y-83944350D01*
X184757716Y-84002088D01*
X184645666Y-84002380D01*
X184584382Y-83973803D01*
X184512581Y-83887780D01*
X184502064Y-83830334D01*
X184642937Y-83528231D01*
X184765504Y-83585385D01*
X184186038Y-83788052D02*
X184608657Y-82881744D01*
X183818336Y-83616590D01*
X184240955Y-82710282D01*
X183511918Y-83473705D02*
X183934536Y-82567397D01*
X183781327Y-82495954D01*
X183669277Y-82496246D01*
X183567744Y-82553984D01*
X183496853Y-82626011D01*
X183385712Y-82784352D01*
X183325338Y-82913825D01*
X183275481Y-83100743D01*
X183265874Y-83201347D01*
X183286908Y-83316239D01*
X183358709Y-83402262D01*
X183511918Y-83473705D01*
X182010468Y-82773567D02*
X182426208Y-82442012D01*
X182378170Y-82945029D02*
X182800788Y-82038721D01*
X182555654Y-81924413D01*
X182474245Y-81938994D01*
X182423479Y-81967863D01*
X182352588Y-82039889D01*
X182292214Y-82169362D01*
X182282606Y-82269965D01*
X182293123Y-82327411D01*
X182334282Y-82399146D01*
X182579417Y-82513454D01*
X181785458Y-82616101D02*
X181673408Y-82616393D01*
X181520199Y-82544951D01*
X181479040Y-82473216D01*
X181468523Y-82415770D01*
X181478130Y-82315166D01*
X181518379Y-82228851D01*
X181589271Y-82156825D01*
X181640037Y-82127956D01*
X181721446Y-82113375D01*
X181864138Y-82127372D01*
X181945546Y-82112792D01*
X181996312Y-82083923D01*
X182067204Y-82011896D01*
X182107453Y-81925581D01*
X182117061Y-81824978D01*
X182106543Y-81767531D01*
X182065384Y-81695797D01*
X181912175Y-81624354D01*
X181800125Y-81624646D01*
X181636399Y-81495758D02*
X181268697Y-81324295D01*
X181029929Y-82316334D02*
X181452548Y-81410026D01*
X180206750Y-80881643D02*
X180288158Y-80867063D01*
X180380083Y-80909928D01*
X180451884Y-80995951D01*
X180472919Y-81110843D01*
X180463311Y-81211447D01*
X180413454Y-81398365D01*
X180353080Y-81527838D01*
X180241940Y-81686180D01*
X180171048Y-81758206D01*
X180069515Y-81815944D01*
X179957465Y-81816236D01*
X179896182Y-81787659D01*
X179824381Y-81701636D01*
X179813864Y-81644190D01*
X179954736Y-81342087D01*
X180077304Y-81399241D01*
X179497838Y-81601908D02*
X179920456Y-80695600D01*
X179130136Y-81430446D01*
X179552754Y-80524138D01*
X178823717Y-81287561D02*
X179246336Y-80381253D01*
X179093126Y-80309810D01*
X178981076Y-80310102D01*
X178879543Y-80367840D01*
X178808652Y-80439867D01*
X178697511Y-80598208D01*
X178637137Y-80727681D01*
X178587281Y-80914599D01*
X178577673Y-81015203D01*
X178598707Y-81130095D01*
X178670508Y-81216118D01*
X178823717Y-81287561D01*
D11*
X83680000Y-130330000D02*
X83680000Y-89990000D01*
X151120000Y-130330000D02*
X83680000Y-130330000D01*
X151120000Y-89990000D02*
X151120000Y-130330000D01*
X83680000Y-89990000D02*
X151120000Y-89990000D01*
D12*
X117850000Y-138049000D02*
G75*
G03*
X117850000Y-138049000I-6100000J0D01*
G01*
X107450000Y-81890000D02*
X132550000Y-81890000D01*
X107450000Y-81890000D02*
X107450000Y-75590000D01*
X132550000Y-75590000D02*
X132550000Y-81890000D01*
X132550000Y-75590000D02*
X107450000Y-75590000D01*
X133880000Y-80540000D02*
X144040000Y-80540000D01*
X133880000Y-81810000D02*
X133880000Y-74190000D01*
X133880000Y-74190000D02*
X144040000Y-74190000D01*
X144040000Y-74190000D02*
X144040000Y-81810000D01*
X144040000Y-81810000D02*
X133880000Y-81810000D01*
X154870000Y-79000000D02*
X154870000Y-77670000D01*
X154870000Y-77670000D02*
X153540000Y-77670000D01*
X152270000Y-77670000D02*
X149670000Y-77670000D01*
X149670000Y-80330000D02*
X149670000Y-77670000D01*
X152270000Y-80330000D02*
X149670000Y-80330000D01*
X152270000Y-80330000D02*
X152270000Y-77670000D01*
X159730000Y-80070000D02*
X159730000Y-77410000D01*
X159730000Y-80070000D02*
X157130000Y-80070000D01*
X157130000Y-80070000D02*
X157130000Y-77410000D01*
X159730000Y-77410000D02*
X157130000Y-77410000D01*
X162330000Y-77410000D02*
X161000000Y-77410000D01*
X162330000Y-78740000D02*
X162330000Y-77410000D01*
X91000000Y-118650000D02*
X89000000Y-118650000D01*
X139120000Y-118320000D02*
X139120000Y-90880000D01*
X86480000Y-118320000D02*
X139120000Y-118320000D01*
X86480000Y-90880000D02*
X139120000Y-90880000D01*
X86480000Y-118320000D02*
X86480000Y-90880000D01*
X152230000Y-89920000D02*
X152230000Y-100160000D01*
X156871000Y-89920000D02*
X156871000Y-100160000D01*
X152230000Y-89920000D02*
X156871000Y-89920000D01*
X152230000Y-100160000D02*
X156871000Y-100160000D01*
X153740000Y-89920000D02*
X153740000Y-100160000D01*
X152230000Y-93190000D02*
X153740000Y-93190000D01*
X152230000Y-96891000D02*
X153740000Y-96891000D01*
X89628000Y-136957000D02*
X89628000Y-142697000D01*
X89628000Y-142707000D02*
X101888000Y-142707000D01*
X101888000Y-142707000D02*
X101888000Y-136947000D01*
X101888000Y-136947000D02*
X89638000Y-136947000D01*
X89348000Y-136667000D02*
X91348000Y-136667000D01*
X89348000Y-136667000D02*
X89348000Y-138277000D01*
X200247351Y-94380015D02*
X200809433Y-93174625D01*
X199041962Y-93817932D02*
X200247351Y-94380015D01*
X197890951Y-93281207D02*
X199015115Y-90870428D01*
X199015115Y-90870428D02*
X178242541Y-81184018D01*
X197890951Y-93281207D02*
X177118376Y-83594797D01*
X177118376Y-83594797D02*
X178242541Y-81184018D01*
X95540000Y-79540000D02*
X105700000Y-79540000D01*
X95540000Y-80810000D02*
X95540000Y-73190000D01*
X95540000Y-73190000D02*
X105700000Y-73190000D01*
X105700000Y-73190000D02*
X105700000Y-80810000D01*
X105700000Y-80810000D02*
X95540000Y-80810000D01*
X95540000Y-73190000D02*
X95540000Y-80810000D01*
X65060000Y-80810000D02*
X65060000Y-73190000D01*
X95540000Y-79540000D02*
X65060000Y-79540000D01*
X95540000Y-73190000D02*
X65060000Y-73190000D01*
X95540000Y-80810000D02*
X65060000Y-80810000D01*
X114170000Y-125310000D02*
X114170000Y-123660000D01*
X114170000Y-123660000D02*
X137150000Y-123660000D01*
X137150000Y-123660000D02*
X137150000Y-128960000D01*
X137150000Y-128960000D02*
X114170000Y-128960000D01*
X114170000Y-128960000D02*
X114170000Y-127310000D01*
X114170000Y-127310000D02*
G75*
G03*
X114170000Y-125310000I0J1000000D01*
G01*
X49000000Y-98060001D02*
X45000000Y-98060001D01*
X45000000Y-98060001D02*
X45000000Y-121060001D01*
X45000000Y-121060001D02*
X49000000Y-121060001D01*
X49000000Y-121060001D02*
X49000000Y-98060001D01*
X41000000Y-121060001D02*
X41000000Y-98060001D01*
X37000000Y-121060001D02*
X41000000Y-121060001D01*
X37000000Y-98060001D02*
X37000000Y-121060001D01*
X41000000Y-98060001D02*
X37000000Y-98060001D01*
X33000000Y-121060001D02*
X33000000Y-98060001D01*
X29000000Y-121060001D02*
X33000000Y-121060001D01*
X29000000Y-98060001D02*
X29000000Y-121060001D01*
X33000000Y-98060001D02*
X29000000Y-98060001D01*
X25000000Y-98060001D02*
X21000000Y-98060001D01*
X21000000Y-98060001D02*
X21000000Y-121060001D01*
X21000000Y-121060001D02*
X25000000Y-121060001D01*
X25000000Y-121060001D02*
X25000000Y-98060001D01*
D11*
X112630952Y-145177571D02*
X112488095Y-145225190D01*
X112440476Y-145272809D01*
X112392857Y-145368047D01*
X112392857Y-145510904D01*
X112440476Y-145606142D01*
X112488095Y-145653761D01*
X112583333Y-145701380D01*
X112964285Y-145701380D01*
X112964285Y-144701380D01*
X112630952Y-144701380D01*
X112535714Y-144749000D01*
X112488095Y-144796619D01*
X112440476Y-144891857D01*
X112440476Y-144987095D01*
X112488095Y-145082333D01*
X112535714Y-145129952D01*
X112630952Y-145177571D01*
X112964285Y-145177571D01*
X112059523Y-144701380D02*
X111392857Y-144701380D01*
X112059523Y-145701380D01*
X111392857Y-145701380D01*
X110488095Y-145701380D02*
X111059523Y-145701380D01*
X110773809Y-145701380D02*
X110773809Y-144701380D01*
X110869047Y-144844238D01*
X110964285Y-144939476D01*
X111059523Y-144987095D01*
X108320952Y-140660428D02*
X107559047Y-140660428D01*
X107940000Y-141041380D02*
X107940000Y-140279476D01*
X120933333Y-82768571D02*
X121266666Y-82768571D01*
X121266666Y-83292380D02*
X121266666Y-82292380D01*
X120790476Y-82292380D01*
X119885714Y-83292380D02*
X120457142Y-83292380D01*
X120171428Y-83292380D02*
X120171428Y-82292380D01*
X120266666Y-82435238D01*
X120361904Y-82530476D01*
X120457142Y-82578095D01*
X139293333Y-72372380D02*
X139293333Y-73086666D01*
X139340952Y-73229523D01*
X139436190Y-73324761D01*
X139579047Y-73372380D01*
X139674285Y-73372380D01*
X138864761Y-72467619D02*
X138817142Y-72420000D01*
X138721904Y-72372380D01*
X138483809Y-72372380D01*
X138388571Y-72420000D01*
X138340952Y-72467619D01*
X138293333Y-72562857D01*
X138293333Y-72658095D01*
X138340952Y-72800952D01*
X138912380Y-73372380D01*
X138293333Y-73372380D01*
X156857619Y-79333333D02*
X156143333Y-79333333D01*
X156000476Y-79380952D01*
X155905238Y-79476190D01*
X155857619Y-79619047D01*
X155857619Y-79714285D01*
X156857619Y-78952380D02*
X156857619Y-78333333D01*
X156476666Y-78666666D01*
X156476666Y-78523809D01*
X156429047Y-78428571D01*
X156381428Y-78380952D01*
X156286190Y-78333333D01*
X156048095Y-78333333D01*
X155952857Y-78380952D01*
X155905238Y-78428571D01*
X155857619Y-78523809D01*
X155857619Y-78809523D01*
X155905238Y-78904761D01*
X155952857Y-78952380D01*
X164317619Y-79073333D02*
X163603333Y-79073333D01*
X163460476Y-79120952D01*
X163365238Y-79216190D01*
X163317619Y-79359047D01*
X163317619Y-79454285D01*
X163984285Y-78168571D02*
X163317619Y-78168571D01*
X164365238Y-78406666D02*
X163650952Y-78644761D01*
X163650952Y-78025714D01*
X113714285Y-119452380D02*
X113714285Y-118452380D01*
X113333333Y-118452380D01*
X113238095Y-118500000D01*
X113190476Y-118547619D01*
X113142857Y-118642857D01*
X113142857Y-118785714D01*
X113190476Y-118880952D01*
X113238095Y-118928571D01*
X113333333Y-118976190D01*
X113714285Y-118976190D01*
X112761904Y-119404761D02*
X112619047Y-119452380D01*
X112380952Y-119452380D01*
X112285714Y-119404761D01*
X112238095Y-119357142D01*
X112190476Y-119261904D01*
X112190476Y-119166666D01*
X112238095Y-119071428D01*
X112285714Y-119023809D01*
X112380952Y-118976190D01*
X112571428Y-118928571D01*
X112666666Y-118880952D01*
X112714285Y-118833333D01*
X112761904Y-118738095D01*
X112761904Y-118642857D01*
X112714285Y-118547619D01*
X112666666Y-118500000D01*
X112571428Y-118452380D01*
X112333333Y-118452380D01*
X112190476Y-118500000D01*
X111238095Y-119452380D02*
X111809523Y-119452380D01*
X111523809Y-119452380D02*
X111523809Y-118452380D01*
X111619047Y-118595238D01*
X111714285Y-118690476D01*
X111809523Y-118738095D01*
X151777619Y-94944761D02*
X151730000Y-94849523D01*
X151634761Y-94754285D01*
X151491904Y-94611428D01*
X151444285Y-94516190D01*
X151444285Y-94420952D01*
X151682380Y-94468571D02*
X151634761Y-94373333D01*
X151539523Y-94278095D01*
X151349047Y-94230476D01*
X151015714Y-94230476D01*
X150825238Y-94278095D01*
X150730000Y-94373333D01*
X150682380Y-94468571D01*
X150682380Y-94659047D01*
X150730000Y-94754285D01*
X150825238Y-94849523D01*
X151015714Y-94897142D01*
X151349047Y-94897142D01*
X151539523Y-94849523D01*
X151634761Y-94754285D01*
X151682380Y-94659047D01*
X151682380Y-94468571D01*
X151682380Y-95849523D02*
X151682380Y-95278095D01*
X151682380Y-95563809D02*
X150682380Y-95563809D01*
X150825238Y-95468571D01*
X150920476Y-95373333D01*
X150968095Y-95278095D01*
X87900380Y-138065095D02*
X88709904Y-138065095D01*
X88805142Y-138112714D01*
X88852761Y-138160333D01*
X88900380Y-138255571D01*
X88900380Y-138446047D01*
X88852761Y-138541285D01*
X88805142Y-138588904D01*
X88709904Y-138636523D01*
X87900380Y-138636523D01*
X88233714Y-139541285D02*
X88900380Y-139541285D01*
X87852761Y-139303190D02*
X88567047Y-139065095D01*
X88567047Y-139684142D01*
X201360302Y-93063707D02*
X202007665Y-93365577D01*
X202157262Y-93382794D01*
X202283826Y-93336728D01*
X202387358Y-93227380D01*
X202427607Y-93141065D01*
X201843991Y-94392633D02*
X202085488Y-93874743D01*
X201964739Y-94133688D02*
X201058432Y-93711070D01*
X201228154Y-93685129D01*
X201354718Y-93639063D01*
X201438125Y-93572873D01*
X178348470Y-79548397D02*
X178331254Y-79697995D01*
X178230630Y-79913782D01*
X178147223Y-79979973D01*
X178083941Y-80003005D01*
X177977501Y-80005914D01*
X177891186Y-79965664D01*
X177824996Y-79882257D01*
X177801963Y-79818975D01*
X177799055Y-79712535D01*
X177836396Y-79519781D01*
X177833488Y-79413341D01*
X177810455Y-79350059D01*
X177744265Y-79266652D01*
X177657950Y-79226403D01*
X177551510Y-79229311D01*
X177488228Y-79252344D01*
X177404821Y-79318534D01*
X177304198Y-79534321D01*
X177286981Y-79683919D01*
X177494277Y-80253458D02*
X177353404Y-80555561D01*
X177767763Y-80906405D02*
X177969009Y-80474830D01*
X177062702Y-80052212D01*
X176861455Y-80483787D01*
X177345144Y-81812713D02*
X177054442Y-81309363D01*
X177586640Y-81294823D02*
X176680333Y-80872204D01*
X176519335Y-81217465D01*
X176522243Y-81323904D01*
X176545276Y-81387186D01*
X176611467Y-81470593D01*
X176740939Y-81530967D01*
X176847379Y-81528059D01*
X176910661Y-81505026D01*
X176994068Y-81438836D01*
X177155065Y-81093576D01*
X176318088Y-81649040D02*
X177083523Y-82373761D01*
X176036343Y-82253245D01*
X176801778Y-82977966D02*
X175895470Y-82555347D01*
X176272720Y-83887182D02*
X176336002Y-83864149D01*
X176439534Y-83754801D01*
X176479783Y-83668486D01*
X176497000Y-83518889D01*
X176450934Y-83392324D01*
X176384744Y-83308917D01*
X176232238Y-83185261D01*
X176102766Y-83124887D01*
X175910011Y-83087546D01*
X175803571Y-83090454D01*
X175677007Y-83136520D01*
X175573475Y-83245868D01*
X175533226Y-83332183D01*
X175516009Y-83481780D01*
X175539042Y-83545062D01*
X175703180Y-84094477D02*
X175562308Y-84396580D01*
X175976666Y-84747424D02*
X176177913Y-84315849D01*
X175271605Y-83893230D01*
X175070358Y-84324806D01*
X100953333Y-71372380D02*
X100953333Y-72086666D01*
X101000952Y-72229523D01*
X101096190Y-72324761D01*
X101239047Y-72372380D01*
X101334285Y-72372380D01*
X100000952Y-71372380D02*
X100477142Y-71372380D01*
X100524761Y-71848571D01*
X100477142Y-71800952D01*
X100381904Y-71753333D01*
X100143809Y-71753333D01*
X100048571Y-71800952D01*
X100000952Y-71848571D01*
X99953333Y-71943809D01*
X99953333Y-72181904D01*
X100000952Y-72277142D01*
X100048571Y-72324761D01*
X100143809Y-72372380D01*
X100381904Y-72372380D01*
X100477142Y-72324761D01*
X100524761Y-72277142D01*
X80683333Y-71902380D02*
X80683333Y-72616666D01*
X80730952Y-72759523D01*
X80826190Y-72854761D01*
X80969047Y-72902380D01*
X81064285Y-72902380D01*
X79778571Y-71902380D02*
X79969047Y-71902380D01*
X80064285Y-71950000D01*
X80111904Y-71997619D01*
X80207142Y-72140476D01*
X80254761Y-72330952D01*
X80254761Y-72711904D01*
X80207142Y-72807142D01*
X80159523Y-72854761D01*
X80064285Y-72902380D01*
X79873809Y-72902380D01*
X79778571Y-72854761D01*
X79730952Y-72807142D01*
X79683333Y-72711904D01*
X79683333Y-72473809D01*
X79730952Y-72378571D01*
X79778571Y-72330952D01*
X79873809Y-72283333D01*
X80064285Y-72283333D01*
X80159523Y-72330952D01*
X80207142Y-72378571D01*
X80254761Y-72473809D01*
X112622380Y-125548095D02*
X113431904Y-125548095D01*
X113527142Y-125595714D01*
X113574761Y-125643333D01*
X113622380Y-125738571D01*
X113622380Y-125929047D01*
X113574761Y-126024285D01*
X113527142Y-126071904D01*
X113431904Y-126119523D01*
X112622380Y-126119523D01*
X113622380Y-126643333D02*
X113622380Y-126833809D01*
X113574761Y-126929047D01*
X113527142Y-126976666D01*
X113384285Y-127071904D01*
X113193809Y-127119523D01*
X112812857Y-127119523D01*
X112717619Y-127071904D01*
X112670000Y-127024285D01*
X112622380Y-126929047D01*
X112622380Y-126738571D01*
X112670000Y-126643333D01*
X112717619Y-126595714D01*
X112812857Y-126548095D01*
X113050952Y-126548095D01*
X113146190Y-126595714D01*
X113193809Y-126643333D01*
X113241428Y-126738571D01*
X113241428Y-126929047D01*
X113193809Y-127024285D01*
X113146190Y-127071904D01*
X113050952Y-127119523D01*
X43452380Y-108798096D02*
X44261904Y-108798096D01*
X44357142Y-108845715D01*
X44404761Y-108893334D01*
X44452380Y-108988572D01*
X44452380Y-109179048D01*
X44404761Y-109274286D01*
X44357142Y-109321905D01*
X44261904Y-109369524D01*
X43452380Y-109369524D01*
X43452380Y-110321905D02*
X43452380Y-109845715D01*
X43928571Y-109798096D01*
X43880952Y-109845715D01*
X43833333Y-109940953D01*
X43833333Y-110179048D01*
X43880952Y-110274286D01*
X43928571Y-110321905D01*
X44023809Y-110369524D01*
X44261904Y-110369524D01*
X44357142Y-110321905D01*
X44404761Y-110274286D01*
X44452380Y-110179048D01*
X44452380Y-109940953D01*
X44404761Y-109845715D01*
X44357142Y-109798096D01*
X35452380Y-108798096D02*
X36261904Y-108798096D01*
X36357142Y-108845715D01*
X36404761Y-108893334D01*
X36452380Y-108988572D01*
X36452380Y-109179048D01*
X36404761Y-109274286D01*
X36357142Y-109321905D01*
X36261904Y-109369524D01*
X35452380Y-109369524D01*
X35452380Y-110274286D02*
X35452380Y-110083810D01*
X35500000Y-109988572D01*
X35547619Y-109940953D01*
X35690476Y-109845715D01*
X35880952Y-109798096D01*
X36261904Y-109798096D01*
X36357142Y-109845715D01*
X36404761Y-109893334D01*
X36452380Y-109988572D01*
X36452380Y-110179048D01*
X36404761Y-110274286D01*
X36357142Y-110321905D01*
X36261904Y-110369524D01*
X36023809Y-110369524D01*
X35928571Y-110321905D01*
X35880952Y-110274286D01*
X35833333Y-110179048D01*
X35833333Y-109988572D01*
X35880952Y-109893334D01*
X35928571Y-109845715D01*
X36023809Y-109798096D01*
X27452380Y-108798096D02*
X28261904Y-108798096D01*
X28357142Y-108845715D01*
X28404761Y-108893334D01*
X28452380Y-108988572D01*
X28452380Y-109179048D01*
X28404761Y-109274286D01*
X28357142Y-109321905D01*
X28261904Y-109369524D01*
X27452380Y-109369524D01*
X27452380Y-109750477D02*
X27452380Y-110417143D01*
X28452380Y-109988572D01*
X19452380Y-108798096D02*
X20261904Y-108798096D01*
X20357142Y-108845715D01*
X20404761Y-108893334D01*
X20452380Y-108988572D01*
X20452380Y-109179048D01*
X20404761Y-109274286D01*
X20357142Y-109321905D01*
X20261904Y-109369524D01*
X19452380Y-109369524D01*
X19880952Y-109988572D02*
X19833333Y-109893334D01*
X19785714Y-109845715D01*
X19690476Y-109798096D01*
X19642857Y-109798096D01*
X19547619Y-109845715D01*
X19500000Y-109893334D01*
X19452380Y-109988572D01*
X19452380Y-110179048D01*
X19500000Y-110274286D01*
X19547619Y-110321905D01*
X19642857Y-110369524D01*
X19690476Y-110369524D01*
X19785714Y-110321905D01*
X19833333Y-110274286D01*
X19880952Y-110179048D01*
X19880952Y-109988572D01*
X19928571Y-109893334D01*
X19976190Y-109845715D01*
X20071428Y-109798096D01*
X20261904Y-109798096D01*
X20357142Y-109845715D01*
X20404761Y-109893334D01*
X20452380Y-109988572D01*
X20452380Y-110179048D01*
X20404761Y-110274286D01*
X20357142Y-110321905D01*
X20261904Y-110369524D01*
X20071428Y-110369524D01*
X19976190Y-110321905D01*
X19928571Y-110274286D01*
X19880952Y-110179048D01*
M02*
