G04 #@! TF.GenerationSoftware,KiCad,Pcbnew,5.1.7-a382d34a8~87~ubuntu20.04.1*
G04 #@! TF.CreationDate,2020-12-06T18:05:45+09:00*
G04 #@! TF.ProjectId,ESP32DUALDIAL,45535033-3244-4554-914c-4449414c2e6b,rev?*
G04 #@! TF.SameCoordinates,Original*
G04 #@! TF.FileFunction,Soldermask,Bot*
G04 #@! TF.FilePolarity,Negative*
%FSLAX46Y46*%
G04 Gerber Fmt 4.6, Leading zero omitted, Abs format (unit mm)*
G04 Created by KiCad (PCBNEW 5.1.7-a382d34a8~87~ubuntu20.04.1) date 2020-12-06 18:05:45*
%MOMM*%
%LPD*%
G01*
G04 APERTURE LIST*
%ADD10R,1.500000X1.500000*%
%ADD11C,1.500000*%
%ADD12C,4.000000*%
%ADD13C,3.000000*%
%ADD14R,2.000000X2.000000*%
%ADD15C,2.000000*%
%ADD16R,3.000000X3.000000*%
%ADD17O,1.700000X1.700000*%
%ADD18R,1.700000X1.700000*%
%ADD19R,2.000000X1.905000*%
%ADD20O,2.000000X1.905000*%
%ADD21R,2.000000X3.200000*%
%ADD22C,5.000000*%
%ADD23C,0.100000*%
%ADD24C,6.400000*%
%ADD25R,1.600000X1.600000*%
%ADD26O,1.600000X1.600000*%
%ADD27O,3.000000X2.200000*%
%ADD28R,1.800000X1.800000*%
G04 APERTURE END LIST*
D10*
X160600000Y-126501000D03*
D11*
X160600000Y-123961000D03*
X160600000Y-121421000D03*
X160600000Y-118881000D03*
X160600000Y-116341000D03*
X160600000Y-113801000D03*
X160600000Y-111261000D03*
X160600000Y-108721000D03*
X160600000Y-106181000D03*
D12*
X159600000Y-134500000D03*
X159600000Y-85500000D03*
X76300000Y-134500000D03*
D13*
X76300000Y-85500000D03*
D11*
X160600000Y-98561000D03*
X160600000Y-101101000D03*
X160600000Y-103641000D03*
X160600000Y-96021000D03*
X160600000Y-93481000D03*
X76300000Y-111261000D03*
D10*
X76300000Y-113801000D03*
D11*
X76300000Y-108721000D03*
X76300000Y-106181000D03*
D14*
X107950000Y-138049000D03*
D15*
X115550000Y-138049000D03*
X114300000Y-78740000D03*
X125700000Y-78740000D03*
D16*
X141500000Y-78000000D03*
D13*
X136420000Y-78000000D03*
D17*
X151000000Y-79000000D03*
D18*
X153540000Y-79000000D03*
X161000000Y-78740000D03*
D17*
X158460000Y-78740000D03*
D13*
X135000000Y-94200000D03*
X90000000Y-94200000D03*
X135000000Y-102200000D03*
D16*
X90000000Y-115000000D03*
D19*
X155500000Y-92500000D03*
D20*
X155500000Y-95040000D03*
X155500000Y-97580000D03*
D15*
X172500000Y-103000000D03*
X167500000Y-103000000D03*
D21*
X175600000Y-110000000D03*
X164400000Y-110000000D03*
D15*
X172500000Y-117500000D03*
X170000000Y-117500000D03*
D14*
X167500000Y-117500000D03*
X57500000Y-117500000D03*
D15*
X60000000Y-117500000D03*
X62500000Y-117500000D03*
D21*
X54400000Y-110000000D03*
X65600000Y-110000000D03*
D15*
X57500000Y-103000000D03*
X62500000Y-103000000D03*
D22*
X197100000Y-111470000D03*
D10*
X91948000Y-139827000D03*
D11*
X94488000Y-139827000D03*
X97028000Y-139827000D03*
X99568000Y-139827000D03*
G36*
G01*
X178526622Y-83721852D02*
X178526622Y-83721852D01*
G75*
G02*
X178115486Y-82592264I359226J770362D01*
G01*
X178115486Y-82592264D01*
G75*
G02*
X179245074Y-82181128I770362J-359226D01*
G01*
X179245074Y-82181128D01*
G75*
G02*
X179656210Y-83310716I-359226J-770362D01*
G01*
X179656210Y-83310716D01*
G75*
G02*
X178526622Y-83721852I-770362J359226D01*
G01*
G37*
G36*
G01*
X180828644Y-84795302D02*
X180828644Y-84795302D01*
G75*
G02*
X180417508Y-83665714I359226J770362D01*
G01*
X180417508Y-83665714D01*
G75*
G02*
X181547096Y-83254578I770362J-359226D01*
G01*
X181547096Y-83254578D01*
G75*
G02*
X181958232Y-84384166I-359226J-770362D01*
G01*
X181958232Y-84384166D01*
G75*
G02*
X180828644Y-84795302I-770362J359226D01*
G01*
G37*
G36*
G01*
X183130666Y-85868752D02*
X183130666Y-85868752D01*
G75*
G02*
X182719530Y-84739164I359226J770362D01*
G01*
X182719530Y-84739164D01*
G75*
G02*
X183849118Y-84328028I770362J-359226D01*
G01*
X183849118Y-84328028D01*
G75*
G02*
X184260254Y-85457616I-359226J-770362D01*
G01*
X184260254Y-85457616D01*
G75*
G02*
X183130666Y-85868752I-770362J359226D01*
G01*
G37*
G36*
G01*
X185432687Y-86942203D02*
X185432687Y-86942203D01*
G75*
G02*
X185021551Y-85812615I359226J770362D01*
G01*
X185021551Y-85812615D01*
G75*
G02*
X186151139Y-85401479I770362J-359226D01*
G01*
X186151139Y-85401479D01*
G75*
G02*
X186562275Y-86531067I-359226J-770362D01*
G01*
X186562275Y-86531067D01*
G75*
G02*
X185432687Y-86942203I-770362J359226D01*
G01*
G37*
G36*
G01*
X187734709Y-88015653D02*
X187734709Y-88015653D01*
G75*
G02*
X187323573Y-86886065I359226J770362D01*
G01*
X187323573Y-86886065D01*
G75*
G02*
X188453161Y-86474929I770362J-359226D01*
G01*
X188453161Y-86474929D01*
G75*
G02*
X188864297Y-87604517I-359226J-770362D01*
G01*
X188864297Y-87604517D01*
G75*
G02*
X187734709Y-88015653I-770362J359226D01*
G01*
G37*
G36*
G01*
X190036731Y-89089103D02*
X190036731Y-89089103D01*
G75*
G02*
X189625595Y-87959515I359226J770362D01*
G01*
X189625595Y-87959515D01*
G75*
G02*
X190755183Y-87548379I770362J-359226D01*
G01*
X190755183Y-87548379D01*
G75*
G02*
X191166319Y-88677967I-359226J-770362D01*
G01*
X191166319Y-88677967D01*
G75*
G02*
X190036731Y-89089103I-770362J359226D01*
G01*
G37*
G36*
G01*
X192338753Y-90162554D02*
X192338753Y-90162554D01*
G75*
G02*
X191927617Y-89032966I359226J770362D01*
G01*
X191927617Y-89032966D01*
G75*
G02*
X193057205Y-88621830I770362J-359226D01*
G01*
X193057205Y-88621830D01*
G75*
G02*
X193468341Y-89751418I-359226J-770362D01*
G01*
X193468341Y-89751418D01*
G75*
G02*
X192338753Y-90162554I-770362J359226D01*
G01*
G37*
G36*
G01*
X194640774Y-91236004D02*
X194640774Y-91236004D01*
G75*
G02*
X194229638Y-90106416I359226J770362D01*
G01*
X194229638Y-90106416D01*
G75*
G02*
X195359226Y-89695280I770362J-359226D01*
G01*
X195359226Y-89695280D01*
G75*
G02*
X195770362Y-90824868I-359226J-770362D01*
G01*
X195770362Y-90824868D01*
G75*
G02*
X194640774Y-91236004I-770362J359226D01*
G01*
G37*
G36*
G01*
X196942796Y-92309455D02*
X196942796Y-92309455D01*
G75*
G02*
X196531660Y-91179867I359226J770362D01*
G01*
X196531660Y-91179867D01*
G75*
G02*
X197661248Y-90768731I770362J-359226D01*
G01*
X197661248Y-90768731D01*
G75*
G02*
X198072384Y-91898319I-359226J-770362D01*
G01*
X198072384Y-91898319D01*
G75*
G02*
X196942796Y-92309455I-770362J359226D01*
G01*
G37*
D23*
G36*
X200015180Y-93742130D02*
G01*
X198474457Y-93023679D01*
X199192908Y-91482956D01*
X200733631Y-92201407D01*
X200015180Y-93742130D01*
G37*
D24*
X60000000Y-140000000D03*
X170000000Y-80000000D03*
X170000000Y-140000000D03*
X60000000Y-80000000D03*
D16*
X103160000Y-77000000D03*
D13*
X98080000Y-77000000D03*
X87920000Y-77000000D03*
X82840000Y-77000000D03*
D16*
X93000000Y-77000000D03*
D13*
X77760000Y-77000000D03*
X72680000Y-77000000D03*
X67600000Y-77000000D03*
D25*
X115500000Y-122500000D03*
D26*
X135820000Y-130120000D03*
X118040000Y-122500000D03*
X133280000Y-130120000D03*
X120580000Y-122500000D03*
X130740000Y-130120000D03*
X123120000Y-122500000D03*
X128200000Y-130120000D03*
X125660000Y-122500000D03*
X125660000Y-130120000D03*
X128200000Y-122500000D03*
X123120000Y-130120000D03*
X130740000Y-122500000D03*
X120580000Y-130120000D03*
X133280000Y-122500000D03*
X118040000Y-130120000D03*
X135820000Y-122500000D03*
X115500000Y-130120000D03*
D27*
X47000000Y-100680001D03*
X47000000Y-105760001D03*
X47000000Y-115920001D03*
X47000000Y-118460001D03*
X39000000Y-118460001D03*
X39000000Y-115920001D03*
X39000000Y-105760001D03*
X39000000Y-100680001D03*
X31000000Y-118460001D03*
X31000000Y-115920001D03*
X31000000Y-105760001D03*
X31000000Y-100680001D03*
X23000000Y-100680001D03*
X23000000Y-105760001D03*
X23000000Y-115920001D03*
X23000000Y-118460001D03*
D28*
X165110000Y-96810000D03*
X165110000Y-94270000D03*
X165110000Y-91730000D03*
X165110000Y-89190000D03*
M02*
