G04 #@! TF.GenerationSoftware,KiCad,Pcbnew,5.1.9-73d0e3b20d~88~ubuntu20.04.1*
G04 #@! TF.CreationDate,2021-01-28T18:17:13+09:00*
G04 #@! TF.ProjectId,ESP32DUALDIAL,45535033-3244-4554-914c-4449414c2e6b,rev?*
G04 #@! TF.SameCoordinates,Original*
G04 #@! TF.FileFunction,Legend,Top*
G04 #@! TF.FilePolarity,Positive*
%FSLAX46Y46*%
G04 Gerber Fmt 4.6, Leading zero omitted, Abs format (unit mm)*
G04 Created by KiCad (PCBNEW 5.1.9-73d0e3b20d~88~ubuntu20.04.1) date 2021-01-28 18:17:13*
%MOMM*%
%LPD*%
G01*
G04 APERTURE LIST*
%ADD10C,0.150000*%
%ADD11C,0.200000*%
%ADD12C,0.250000*%
%ADD13C,0.120000*%
G04 APERTURE END LIST*
D10*
X149428571Y-119952380D02*
X148857142Y-119952380D01*
X149142857Y-119952380D02*
X149142857Y-118952380D01*
X149047619Y-119095238D01*
X148952380Y-119190476D01*
X148857142Y-119238095D01*
X150047619Y-118952380D02*
X150142857Y-118952380D01*
X150238095Y-119000000D01*
X150285714Y-119047619D01*
X150333333Y-119142857D01*
X150380952Y-119333333D01*
X150380952Y-119571428D01*
X150333333Y-119761904D01*
X150285714Y-119857142D01*
X150238095Y-119904761D01*
X150142857Y-119952380D01*
X150047619Y-119952380D01*
X149952380Y-119904761D01*
X149904761Y-119857142D01*
X149857142Y-119761904D01*
X149809523Y-119571428D01*
X149809523Y-119333333D01*
X149857142Y-119142857D01*
X149904761Y-119047619D01*
X149952380Y-119000000D01*
X150047619Y-118952380D01*
X151000000Y-118952380D02*
X151095238Y-118952380D01*
X151190476Y-119000000D01*
X151238095Y-119047619D01*
X151285714Y-119142857D01*
X151333333Y-119333333D01*
X151333333Y-119571428D01*
X151285714Y-119761904D01*
X151238095Y-119857142D01*
X151190476Y-119904761D01*
X151095238Y-119952380D01*
X151000000Y-119952380D01*
X150904761Y-119904761D01*
X150857142Y-119857142D01*
X150809523Y-119761904D01*
X150761904Y-119571428D01*
X150761904Y-119333333D01*
X150809523Y-119142857D01*
X150857142Y-119047619D01*
X150904761Y-119000000D01*
X151000000Y-118952380D01*
X151761904Y-119952380D02*
X151761904Y-118952380D01*
X151857142Y-119571428D02*
X152142857Y-119952380D01*
X152142857Y-119285714D02*
X151761904Y-119666666D01*
X156361904Y-139300000D02*
X155561904Y-139300000D01*
X156361904Y-138842857D01*
X155561904Y-138842857D01*
X156361904Y-138461904D02*
X155561904Y-138461904D01*
X156133333Y-138195238D01*
X155561904Y-137928571D01*
X156361904Y-137928571D01*
X155561904Y-137395238D02*
X155561904Y-137242857D01*
X155600000Y-137166666D01*
X155676190Y-137090476D01*
X155828571Y-137052380D01*
X156095238Y-137052380D01*
X156247619Y-137090476D01*
X156323809Y-137166666D01*
X156361904Y-137242857D01*
X156361904Y-137395238D01*
X156323809Y-137471428D01*
X156247619Y-137547619D01*
X156095238Y-137585714D01*
X155828571Y-137585714D01*
X155676190Y-137547619D01*
X155600000Y-137471428D01*
X155561904Y-137395238D01*
X156323809Y-136747619D02*
X156361904Y-136633333D01*
X156361904Y-136442857D01*
X156323809Y-136366666D01*
X156285714Y-136328571D01*
X156209523Y-136290476D01*
X156133333Y-136290476D01*
X156057142Y-136328571D01*
X156019047Y-136366666D01*
X155980952Y-136442857D01*
X155942857Y-136595238D01*
X155904761Y-136671428D01*
X155866666Y-136709523D01*
X155790476Y-136747619D01*
X155714285Y-136747619D01*
X155638095Y-136709523D01*
X155600000Y-136671428D01*
X155561904Y-136595238D01*
X155561904Y-136404761D01*
X155600000Y-136290476D01*
X155600000Y-134919047D02*
X155561904Y-134995238D01*
X155561904Y-135109523D01*
X155600000Y-135223809D01*
X155676190Y-135300000D01*
X155752380Y-135338095D01*
X155904761Y-135376190D01*
X156019047Y-135376190D01*
X156171428Y-135338095D01*
X156247619Y-135300000D01*
X156323809Y-135223809D01*
X156361904Y-135109523D01*
X156361904Y-135033333D01*
X156323809Y-134919047D01*
X156285714Y-134880952D01*
X156019047Y-134880952D01*
X156019047Y-135033333D01*
X156361904Y-133319047D02*
X155561904Y-133319047D01*
X155561904Y-133128571D01*
X155600000Y-133014285D01*
X155676190Y-132938095D01*
X155752380Y-132900000D01*
X155904761Y-132861904D01*
X156019047Y-132861904D01*
X156171428Y-132900000D01*
X156247619Y-132938095D01*
X156323809Y-133014285D01*
X156361904Y-133128571D01*
X156361904Y-133319047D01*
X156323809Y-131338095D02*
X156361904Y-131223809D01*
X156361904Y-131033333D01*
X156323809Y-130957142D01*
X156285714Y-130919047D01*
X156209523Y-130880952D01*
X156133333Y-130880952D01*
X156057142Y-130919047D01*
X156019047Y-130957142D01*
X155980952Y-131033333D01*
X155942857Y-131185714D01*
X155904761Y-131261904D01*
X155866666Y-131300000D01*
X155790476Y-131338095D01*
X155714285Y-131338095D01*
X155638095Y-131300000D01*
X155600000Y-131261904D01*
X155561904Y-131185714D01*
X155561904Y-130995238D01*
X155600000Y-130880952D01*
X149000000Y-136500000D02*
X152750000Y-136500000D01*
X151500000Y-137250000D02*
X150500000Y-136500000D01*
X151500000Y-135750000D02*
X151500000Y-137250000D01*
X150250000Y-136500000D02*
X151500000Y-135750000D01*
X150250000Y-135750000D02*
X150250000Y-137250000D01*
X143785714Y-128452380D02*
X143214285Y-128452380D01*
X143500000Y-128452380D02*
X143500000Y-127452380D01*
X143404761Y-127595238D01*
X143309523Y-127690476D01*
X143214285Y-127738095D01*
X144404761Y-127452380D02*
X144500000Y-127452380D01*
X144595238Y-127500000D01*
X144642857Y-127547619D01*
X144690476Y-127642857D01*
X144738095Y-127833333D01*
X144738095Y-128071428D01*
X144690476Y-128261904D01*
X144642857Y-128357142D01*
X144595238Y-128404761D01*
X144500000Y-128452380D01*
X144404761Y-128452380D01*
X144309523Y-128404761D01*
X144261904Y-128357142D01*
X144214285Y-128261904D01*
X144166666Y-128071428D01*
X144166666Y-127833333D01*
X144214285Y-127642857D01*
X144261904Y-127547619D01*
X144309523Y-127500000D01*
X144404761Y-127452380D01*
X145595238Y-127785714D02*
X145595238Y-128452380D01*
X145166666Y-127785714D02*
X145166666Y-128309523D01*
X145214285Y-128404761D01*
X145309523Y-128452380D01*
X145452380Y-128452380D01*
X145547619Y-128404761D01*
X145595238Y-128357142D01*
X146404761Y-127928571D02*
X146071428Y-127928571D01*
X146071428Y-128452380D02*
X146071428Y-127452380D01*
X146547619Y-127452380D01*
X147595238Y-128452380D02*
X148119047Y-127785714D01*
X147595238Y-127785714D02*
X148119047Y-128452380D01*
X149214285Y-127547619D02*
X149261904Y-127500000D01*
X149357142Y-127452380D01*
X149595238Y-127452380D01*
X149690476Y-127500000D01*
X149738095Y-127547619D01*
X149785714Y-127642857D01*
X149785714Y-127738095D01*
X149738095Y-127880952D01*
X149166666Y-128452380D01*
X149785714Y-128452380D01*
X153297142Y-121721619D02*
X153344761Y-121674000D01*
X153440000Y-121626380D01*
X153678095Y-121626380D01*
X153773333Y-121674000D01*
X153820952Y-121721619D01*
X153868571Y-121816857D01*
X153868571Y-121912095D01*
X153820952Y-122054952D01*
X153249523Y-122626380D01*
X153868571Y-122626380D01*
X154487619Y-121626380D02*
X154582857Y-121626380D01*
X154678095Y-121674000D01*
X154725714Y-121721619D01*
X154773333Y-121816857D01*
X154820952Y-122007333D01*
X154820952Y-122245428D01*
X154773333Y-122435904D01*
X154725714Y-122531142D01*
X154678095Y-122578761D01*
X154582857Y-122626380D01*
X154487619Y-122626380D01*
X154392380Y-122578761D01*
X154344761Y-122531142D01*
X154297142Y-122435904D01*
X154249523Y-122245428D01*
X154249523Y-122007333D01*
X154297142Y-121816857D01*
X154344761Y-121721619D01*
X154392380Y-121674000D01*
X154487619Y-121626380D01*
X155249523Y-121959714D02*
X155249523Y-122959714D01*
X155249523Y-122007333D02*
X155344761Y-121959714D01*
X155535238Y-121959714D01*
X155630476Y-122007333D01*
X155678095Y-122054952D01*
X155725714Y-122150190D01*
X155725714Y-122435904D01*
X155678095Y-122531142D01*
X155630476Y-122578761D01*
X155535238Y-122626380D01*
X155344761Y-122626380D01*
X155249523Y-122578761D01*
X156487619Y-122102571D02*
X156154285Y-122102571D01*
X156154285Y-122626380D02*
X156154285Y-121626380D01*
X156630476Y-121626380D01*
X154761904Y-127706380D02*
X154190476Y-127706380D01*
X154476190Y-127706380D02*
X154476190Y-126706380D01*
X154380952Y-126849238D01*
X154285714Y-126944476D01*
X154190476Y-126992095D01*
X155190476Y-127706380D02*
X155190476Y-126706380D01*
X155285714Y-127325428D02*
X155571428Y-127706380D01*
X155571428Y-127039714D02*
X155190476Y-127420666D01*
X156000000Y-127325428D02*
X156761904Y-127325428D01*
X103300000Y-77985714D02*
X103300000Y-78652380D01*
X103061904Y-77604761D02*
X102823809Y-78319047D01*
X103442857Y-78319047D01*
X103823809Y-78557142D02*
X103871428Y-78604761D01*
X103823809Y-78652380D01*
X103776190Y-78604761D01*
X103823809Y-78557142D01*
X103823809Y-78652380D01*
X104204761Y-77652380D02*
X104871428Y-77652380D01*
X104442857Y-78652380D01*
X105252380Y-78271428D02*
X106014285Y-78271428D01*
X107014285Y-78652380D02*
X106442857Y-78652380D01*
X106728571Y-78652380D02*
X106728571Y-77652380D01*
X106633333Y-77795238D01*
X106538095Y-77890476D01*
X106442857Y-77938095D01*
X107633333Y-77652380D02*
X107728571Y-77652380D01*
X107823809Y-77700000D01*
X107871428Y-77747619D01*
X107919047Y-77842857D01*
X107966666Y-78033333D01*
X107966666Y-78271428D01*
X107919047Y-78461904D01*
X107871428Y-78557142D01*
X107823809Y-78604761D01*
X107728571Y-78652380D01*
X107633333Y-78652380D01*
X107538095Y-78604761D01*
X107490476Y-78557142D01*
X107442857Y-78461904D01*
X107395238Y-78271428D01*
X107395238Y-78033333D01*
X107442857Y-77842857D01*
X107490476Y-77747619D01*
X107538095Y-77700000D01*
X107633333Y-77652380D01*
X108395238Y-78652380D02*
X108395238Y-77652380D01*
X108490476Y-78271428D02*
X108776190Y-78652380D01*
X108776190Y-77985714D02*
X108395238Y-78366666D01*
X185985714Y-94500000D02*
X186652380Y-94500000D01*
X185604761Y-94738095D02*
X186319047Y-94976190D01*
X186319047Y-94357142D01*
X186557142Y-93976190D02*
X186604761Y-93928571D01*
X186652380Y-93976190D01*
X186604761Y-94023809D01*
X186557142Y-93976190D01*
X186652380Y-93976190D01*
X185652380Y-93595238D02*
X185652380Y-92928571D01*
X186652380Y-93357142D01*
X186271428Y-92547619D02*
X186271428Y-91785714D01*
X186652380Y-90785714D02*
X186652380Y-91357142D01*
X186652380Y-91071428D02*
X185652380Y-91071428D01*
X185795238Y-91166666D01*
X185890476Y-91261904D01*
X185938095Y-91357142D01*
X185652380Y-90166666D02*
X185652380Y-90071428D01*
X185700000Y-89976190D01*
X185747619Y-89928571D01*
X185842857Y-89880952D01*
X186033333Y-89833333D01*
X186271428Y-89833333D01*
X186461904Y-89880952D01*
X186557142Y-89928571D01*
X186604761Y-89976190D01*
X186652380Y-90071428D01*
X186652380Y-90166666D01*
X186604761Y-90261904D01*
X186557142Y-90309523D01*
X186461904Y-90357142D01*
X186271428Y-90404761D01*
X186033333Y-90404761D01*
X185842857Y-90357142D01*
X185747619Y-90309523D01*
X185700000Y-90261904D01*
X185652380Y-90166666D01*
X186652380Y-89404761D02*
X185652380Y-89404761D01*
X186271428Y-89309523D02*
X186652380Y-89023809D01*
X185985714Y-89023809D02*
X186366666Y-89404761D01*
X199652380Y-97395238D02*
X199652380Y-97966666D01*
X199652380Y-97680952D02*
X198652380Y-97680952D01*
X198795238Y-97776190D01*
X198890476Y-97871428D01*
X198938095Y-97966666D01*
X198652380Y-96776190D02*
X198652380Y-96680952D01*
X198700000Y-96585714D01*
X198747619Y-96538095D01*
X198842857Y-96490476D01*
X199033333Y-96442857D01*
X199271428Y-96442857D01*
X199461904Y-96490476D01*
X199557142Y-96538095D01*
X199604761Y-96585714D01*
X199652380Y-96680952D01*
X199652380Y-96776190D01*
X199604761Y-96871428D01*
X199557142Y-96919047D01*
X199461904Y-96966666D01*
X199271428Y-97014285D01*
X199033333Y-97014285D01*
X198842857Y-96966666D01*
X198747619Y-96919047D01*
X198700000Y-96871428D01*
X198652380Y-96776190D01*
X199652380Y-96014285D02*
X198652380Y-96014285D01*
X199271428Y-95919047D02*
X199652380Y-95633333D01*
X198985714Y-95633333D02*
X199366666Y-96014285D01*
X202652380Y-96671428D02*
X202652380Y-97242857D01*
X202652380Y-96957142D02*
X201652380Y-96957142D01*
X201795238Y-97052380D01*
X201890476Y-97147619D01*
X201938095Y-97242857D01*
X201652380Y-96052380D02*
X201652380Y-95957142D01*
X201700000Y-95861904D01*
X201747619Y-95814285D01*
X201842857Y-95766666D01*
X202033333Y-95719047D01*
X202271428Y-95719047D01*
X202461904Y-95766666D01*
X202557142Y-95814285D01*
X202604761Y-95861904D01*
X202652380Y-95957142D01*
X202652380Y-96052380D01*
X202604761Y-96147619D01*
X202557142Y-96195238D01*
X202461904Y-96242857D01*
X202271428Y-96290476D01*
X202033333Y-96290476D01*
X201842857Y-96242857D01*
X201747619Y-96195238D01*
X201700000Y-96147619D01*
X201652380Y-96052380D01*
X201985714Y-94861904D02*
X202652380Y-94861904D01*
X201985714Y-95290476D02*
X202509523Y-95290476D01*
X202604761Y-95242857D01*
X202652380Y-95147619D01*
X202652380Y-95004761D01*
X202604761Y-94909523D01*
X202557142Y-94861904D01*
X202128571Y-94052380D02*
X202128571Y-94385714D01*
X202652380Y-94385714D02*
X201652380Y-94385714D01*
X201652380Y-93909523D01*
D11*
X203652380Y-105085714D02*
X203652380Y-104990476D01*
X203700000Y-104895238D01*
X203747619Y-104847619D01*
X203842857Y-104800000D01*
X204033333Y-104752380D01*
X204271428Y-104752380D01*
X204461904Y-104800000D01*
X204557142Y-104847619D01*
X204604761Y-104895238D01*
X204652380Y-104990476D01*
X204652380Y-105085714D01*
X204604761Y-105180952D01*
X204557142Y-105228571D01*
X204461904Y-105276190D01*
X204271428Y-105323809D01*
X204033333Y-105323809D01*
X203842857Y-105276190D01*
X203747619Y-105228571D01*
X203700000Y-105180952D01*
X203652380Y-105085714D01*
X204557142Y-104323809D02*
X204604761Y-104276190D01*
X204652380Y-104323809D01*
X204604761Y-104371428D01*
X204557142Y-104323809D01*
X204652380Y-104323809D01*
X204652380Y-103323809D02*
X204652380Y-103895238D01*
X204652380Y-103609523D02*
X203652380Y-103609523D01*
X203795238Y-103704761D01*
X203890476Y-103800000D01*
X203938095Y-103895238D01*
X203985714Y-102466666D02*
X204652380Y-102466666D01*
X203985714Y-102895238D02*
X204509523Y-102895238D01*
X204604761Y-102847619D01*
X204652380Y-102752380D01*
X204652380Y-102609523D01*
X204604761Y-102514285D01*
X204557142Y-102466666D01*
X204128571Y-101657142D02*
X204128571Y-101990476D01*
X204652380Y-101990476D02*
X203652380Y-101990476D01*
X203652380Y-101514285D01*
X204652380Y-100466666D02*
X203985714Y-99942857D01*
X203985714Y-100466666D02*
X204652380Y-99942857D01*
X203747619Y-98847619D02*
X203700000Y-98800000D01*
X203652380Y-98704761D01*
X203652380Y-98466666D01*
X203700000Y-98371428D01*
X203747619Y-98323809D01*
X203842857Y-98276190D01*
X203938095Y-98276190D01*
X204080952Y-98323809D01*
X204652380Y-98895238D01*
X204652380Y-98276190D01*
D12*
X164100285Y-123658380D02*
X164195523Y-123658380D01*
X164290761Y-123706000D01*
X164338380Y-123753619D01*
X164386000Y-123848857D01*
X164433619Y-124039333D01*
X164433619Y-124277428D01*
X164386000Y-124467904D01*
X164338380Y-124563142D01*
X164290761Y-124610761D01*
X164195523Y-124658380D01*
X164100285Y-124658380D01*
X164005047Y-124610761D01*
X163957428Y-124563142D01*
X163909809Y-124467904D01*
X163862190Y-124277428D01*
X163862190Y-124039333D01*
X163909809Y-123848857D01*
X163957428Y-123753619D01*
X164005047Y-123706000D01*
X164100285Y-123658380D01*
X164862190Y-124563142D02*
X164909809Y-124610761D01*
X164862190Y-124658380D01*
X164814571Y-124610761D01*
X164862190Y-124563142D01*
X164862190Y-124658380D01*
X165862190Y-124658380D02*
X165290761Y-124658380D01*
X165576476Y-124658380D02*
X165576476Y-123658380D01*
X165481238Y-123801238D01*
X165386000Y-123896476D01*
X165290761Y-123944095D01*
X166719333Y-123991714D02*
X166719333Y-124658380D01*
X166290761Y-123991714D02*
X166290761Y-124515523D01*
X166338380Y-124610761D01*
X166433619Y-124658380D01*
X166576476Y-124658380D01*
X166671714Y-124610761D01*
X166719333Y-124563142D01*
X167528857Y-124134571D02*
X167195523Y-124134571D01*
X167195523Y-124658380D02*
X167195523Y-123658380D01*
X167671714Y-123658380D01*
X168719333Y-124658380D02*
X169243142Y-123991714D01*
X168719333Y-123991714D02*
X169243142Y-124658380D01*
X170290761Y-123658380D02*
X170909809Y-123658380D01*
X170576476Y-124039333D01*
X170719333Y-124039333D01*
X170814571Y-124086952D01*
X170862190Y-124134571D01*
X170909809Y-124229809D01*
X170909809Y-124467904D01*
X170862190Y-124563142D01*
X170814571Y-124610761D01*
X170719333Y-124658380D01*
X170433619Y-124658380D01*
X170338380Y-124610761D01*
X170290761Y-124563142D01*
X80271428Y-86747619D02*
X80319047Y-86700000D01*
X80414285Y-86652380D01*
X80652380Y-86652380D01*
X80747619Y-86700000D01*
X80795238Y-86747619D01*
X80842857Y-86842857D01*
X80842857Y-86938095D01*
X80795238Y-87080952D01*
X80223809Y-87652380D01*
X80842857Y-87652380D01*
X81176190Y-86652380D02*
X81842857Y-86652380D01*
X81414285Y-87652380D01*
X82414285Y-86652380D02*
X82509523Y-86652380D01*
X82604761Y-86700000D01*
X82652380Y-86747619D01*
X82700000Y-86842857D01*
X82747619Y-87033333D01*
X82747619Y-87271428D01*
X82700000Y-87461904D01*
X82652380Y-87557142D01*
X82604761Y-87604761D01*
X82509523Y-87652380D01*
X82414285Y-87652380D01*
X82319047Y-87604761D01*
X82271428Y-87557142D01*
X82223809Y-87461904D01*
X82176190Y-87271428D01*
X82176190Y-87033333D01*
X82223809Y-86842857D01*
X82271428Y-86747619D01*
X82319047Y-86700000D01*
X82414285Y-86652380D01*
X83176190Y-87271428D02*
X83938095Y-87271428D01*
X84842857Y-86985714D02*
X84842857Y-87652380D01*
X84604761Y-86604761D02*
X84366666Y-87319047D01*
X84985714Y-87319047D01*
X85271428Y-86652380D02*
X85938095Y-86652380D01*
X85509523Y-87652380D01*
X86509523Y-86652380D02*
X86604761Y-86652380D01*
X86700000Y-86700000D01*
X86747619Y-86747619D01*
X86795238Y-86842857D01*
X86842857Y-87033333D01*
X86842857Y-87271428D01*
X86795238Y-87461904D01*
X86747619Y-87557142D01*
X86700000Y-87604761D01*
X86604761Y-87652380D01*
X86509523Y-87652380D01*
X86414285Y-87604761D01*
X86366666Y-87557142D01*
X86319047Y-87461904D01*
X86271428Y-87271428D01*
X86271428Y-87033333D01*
X86319047Y-86842857D01*
X86366666Y-86747619D01*
X86414285Y-86700000D01*
X86509523Y-86652380D01*
X87938095Y-87652380D02*
X88461904Y-86985714D01*
X87938095Y-86985714D02*
X88461904Y-87652380D01*
X90033333Y-86985714D02*
X90033333Y-87652380D01*
X89795238Y-86604761D02*
X89557142Y-87319047D01*
X90176190Y-87319047D01*
X69652380Y-96485714D02*
X69652380Y-96390476D01*
X69700000Y-96295238D01*
X69747619Y-96247619D01*
X69842857Y-96200000D01*
X70033333Y-96152380D01*
X70271428Y-96152380D01*
X70461904Y-96200000D01*
X70557142Y-96247619D01*
X70604761Y-96295238D01*
X70652380Y-96390476D01*
X70652380Y-96485714D01*
X70604761Y-96580952D01*
X70557142Y-96628571D01*
X70461904Y-96676190D01*
X70271428Y-96723809D01*
X70033333Y-96723809D01*
X69842857Y-96676190D01*
X69747619Y-96628571D01*
X69700000Y-96580952D01*
X69652380Y-96485714D01*
X70557142Y-95723809D02*
X70604761Y-95676190D01*
X70652380Y-95723809D01*
X70604761Y-95771428D01*
X70557142Y-95723809D01*
X70652380Y-95723809D01*
X70652380Y-94723809D02*
X70652380Y-95295238D01*
X70652380Y-95009523D02*
X69652380Y-95009523D01*
X69795238Y-95104761D01*
X69890476Y-95200000D01*
X69938095Y-95295238D01*
X69985714Y-93866666D02*
X70652380Y-93866666D01*
X69985714Y-94295238D02*
X70509523Y-94295238D01*
X70604761Y-94247619D01*
X70652380Y-94152380D01*
X70652380Y-94009523D01*
X70604761Y-93914285D01*
X70557142Y-93866666D01*
X70128571Y-93057142D02*
X70128571Y-93390476D01*
X70652380Y-93390476D02*
X69652380Y-93390476D01*
X69652380Y-92914285D01*
X70652380Y-91866666D02*
X69985714Y-91342857D01*
X69985714Y-91866666D02*
X70652380Y-91342857D01*
X69652380Y-90295238D02*
X69652380Y-89676190D01*
X70033333Y-90009523D01*
X70033333Y-89866666D01*
X70080952Y-89771428D01*
X70128571Y-89723809D01*
X70223809Y-89676190D01*
X70461904Y-89676190D01*
X70557142Y-89723809D01*
X70604761Y-89771428D01*
X70652380Y-89866666D01*
X70652380Y-90152380D01*
X70604761Y-90247619D01*
X70557142Y-90295238D01*
D10*
X202888941Y-112441668D02*
X195426614Y-94426018D01*
X195426614Y-94426018D02*
X178796782Y-101314319D01*
X178796782Y-101314319D02*
X186259109Y-119329970D01*
X194574025Y-115885819D02*
X202888941Y-112441668D01*
X202888941Y-112441668D02*
X205185042Y-117984946D01*
X205185042Y-117984946D02*
X188555210Y-124873247D01*
X188555210Y-124873247D02*
X186259109Y-119329970D01*
X186259109Y-119329970D02*
X194574025Y-115885819D01*
D13*
X82600000Y-134300000D02*
X147400000Y-134300000D01*
X147400000Y-85700000D02*
X82600000Y-85700000D01*
X147400000Y-85700000D02*
X147400000Y-134300000D01*
X82600000Y-85700000D02*
X82600000Y-134300000D01*
X79100000Y-137500000D02*
X79100000Y-82500000D01*
X156800000Y-137500000D02*
X156800000Y-82500000D01*
X73300000Y-137500000D02*
X162600000Y-137500000D01*
X73300000Y-82500000D02*
X73300000Y-137500000D01*
X162600000Y-82500000D02*
X73300000Y-82500000D01*
X162600000Y-137500000D02*
X162600000Y-82500000D01*
X201227500Y-101937742D02*
X201227500Y-102412258D01*
X202272500Y-101937742D02*
X202272500Y-102412258D01*
X202227500Y-106237258D02*
X202227500Y-105762742D01*
X203272500Y-106237258D02*
X203272500Y-105762742D01*
X201640000Y-98372164D02*
X201640000Y-98587836D01*
X202360000Y-98372164D02*
X202360000Y-98587836D01*
X155196164Y-123060000D02*
X155411836Y-123060000D01*
X155196164Y-123780000D02*
X155411836Y-123780000D01*
X150146000Y-138724000D02*
X150146000Y-128484000D01*
X154787000Y-138724000D02*
X154787000Y-128484000D01*
X150146000Y-138724000D02*
X154787000Y-138724000D01*
X150146000Y-128484000D02*
X154787000Y-128484000D01*
X151656000Y-138724000D02*
X151656000Y-128484000D01*
X150146000Y-135454000D02*
X151656000Y-135454000D01*
X150146000Y-131753000D02*
X151656000Y-131753000D01*
X105412258Y-81522500D02*
X104937742Y-81522500D01*
X105412258Y-80477500D02*
X104937742Y-80477500D01*
X200227500Y-97937742D02*
X200227500Y-98412258D01*
X201272500Y-97937742D02*
X201272500Y-98412258D01*
X187152500Y-92737258D02*
X187152500Y-92262742D01*
X188197500Y-92737258D02*
X188197500Y-92262742D01*
X102522500Y-85262742D02*
X102522500Y-85737258D01*
X101477500Y-85262742D02*
X101477500Y-85737258D01*
X98477500Y-85087742D02*
X98477500Y-85562258D01*
X99522500Y-85087742D02*
X99522500Y-85562258D01*
X95522500Y-85087742D02*
X95522500Y-85562258D01*
X94477500Y-85087742D02*
X94477500Y-85562258D01*
X90977500Y-85262742D02*
X90977500Y-85737258D01*
X92022500Y-85262742D02*
X92022500Y-85737258D01*
X155121742Y-125297500D02*
X155596258Y-125297500D01*
X155121742Y-126342500D02*
X155596258Y-126342500D01*
X150437742Y-120477500D02*
X150912258Y-120477500D01*
X150437742Y-121522500D02*
X150912258Y-121522500D01*
X170000000Y-110500000D02*
X170000000Y-109500000D01*
X169500000Y-110000000D02*
X170500000Y-110000000D01*
X173500000Y-103900000D02*
X175900000Y-103900000D01*
X168700000Y-103900000D02*
X171300000Y-103900000D01*
X164100000Y-103900000D02*
X166500000Y-103900000D01*
X165900000Y-117200000D02*
X166200000Y-117500000D01*
X165900000Y-117800000D02*
X165900000Y-117200000D01*
X166200000Y-117500000D02*
X165900000Y-117800000D01*
X164100000Y-116100000D02*
X175900000Y-116100000D01*
X164100000Y-112000000D02*
X164100000Y-116100000D01*
X175900000Y-112000000D02*
X175900000Y-116100000D01*
X175900000Y-103900000D02*
X175900000Y-108000000D01*
X164100000Y-108000000D02*
X164100000Y-103900000D01*
X173000000Y-110000000D02*
G75*
G03*
X173000000Y-110000000I-3000000J0D01*
G01*
X63000000Y-110000000D02*
G75*
G03*
X63000000Y-110000000I-3000000J0D01*
G01*
X54100000Y-108000000D02*
X54100000Y-103900000D01*
X65900000Y-103900000D02*
X65900000Y-108000000D01*
X65900000Y-112000000D02*
X65900000Y-116100000D01*
X54100000Y-112000000D02*
X54100000Y-116100000D01*
X54100000Y-116100000D02*
X65900000Y-116100000D01*
X56200000Y-117500000D02*
X55900000Y-117800000D01*
X55900000Y-117800000D02*
X55900000Y-117200000D01*
X55900000Y-117200000D02*
X56200000Y-117500000D01*
X54100000Y-103900000D02*
X56500000Y-103900000D01*
X58700000Y-103900000D02*
X61300000Y-103900000D01*
X63500000Y-103900000D02*
X65900000Y-103900000D01*
X59500000Y-110000000D02*
X60500000Y-110000000D01*
X60000000Y-110500000D02*
X60000000Y-109500000D01*
X150200000Y-93600000D02*
X152200000Y-93600000D01*
X150200000Y-96400000D02*
X150200000Y-93600000D01*
X152200000Y-96400000D02*
X150200000Y-96400000D01*
X152200000Y-93600000D02*
X152200000Y-96400000D01*
X147500000Y-92850000D02*
X148100000Y-92850000D01*
X146800000Y-96300000D02*
X146800000Y-93500000D01*
X148100000Y-96950000D02*
X147500000Y-96950000D01*
X148800000Y-93500000D02*
X148800000Y-96300000D01*
X148800000Y-96250000D02*
G75*
G02*
X148100000Y-96950000I-700000J0D01*
G01*
X147500000Y-96950000D02*
G75*
G02*
X146800000Y-96250000I0J700000D01*
G01*
X146800000Y-93550000D02*
G75*
G02*
X147500000Y-92850000I700000J0D01*
G01*
X148100000Y-92850000D02*
G75*
G02*
X148800000Y-93550000I0J-700000D01*
G01*
X154477500Y-92837258D02*
X154477500Y-92362742D01*
X155522500Y-92837258D02*
X155522500Y-92362742D01*
X163312220Y-90361442D02*
X165076486Y-100367089D01*
X165076486Y-100367089D02*
X185087780Y-96838558D01*
X185087780Y-96838558D02*
X183323514Y-86832911D01*
X183323514Y-86832911D02*
X163312220Y-90361442D01*
X184300824Y-95293299D02*
G75*
G03*
X184300824Y-95293299I-1419903J0D01*
G01*
X175568568Y-92569827D02*
G75*
G03*
X175568568Y-92569827I-2839807J0D01*
G01*
X169050663Y-89994396D02*
X175304193Y-88891730D01*
X175304193Y-88891730D02*
X176406859Y-95145259D01*
X176406859Y-95145259D02*
X170153329Y-96247925D01*
X170153329Y-96247925D02*
X169050663Y-89994396D01*
X165037258Y-121077500D02*
X164562742Y-121077500D01*
X165037258Y-122122500D02*
X164562742Y-122122500D01*
X70412258Y-106022500D02*
X69937742Y-106022500D01*
X70412258Y-104977500D02*
X69937742Y-104977500D01*
X70412258Y-101877500D02*
X69937742Y-101877500D01*
X70412258Y-102922500D02*
X69937742Y-102922500D01*
X163812258Y-118322500D02*
X163337742Y-118322500D01*
X163812258Y-117277500D02*
X163337742Y-117277500D01*
X164212258Y-120122500D02*
X163737742Y-120122500D01*
X164212258Y-119077500D02*
X163737742Y-119077500D01*
X149412164Y-124892000D02*
X149627836Y-124892000D01*
X149412164Y-124172000D02*
X149627836Y-124172000D01*
X149627836Y-126670000D02*
X149412164Y-126670000D01*
X149627836Y-125950000D02*
X149412164Y-125950000D01*
X133300000Y-139500000D02*
X133300000Y-141500000D01*
X133300000Y-141500000D02*
X137150000Y-141500000D01*
X133300000Y-139500000D02*
X137150000Y-139500000D01*
X69962742Y-99277500D02*
X70437258Y-99277500D01*
X69962742Y-100322500D02*
X70437258Y-100322500D01*
X137000000Y-115500000D02*
X126000000Y-115500000D01*
X137000000Y-105500000D02*
X137000000Y-115500000D01*
X126000000Y-105500000D02*
X137000000Y-105500000D01*
X143000000Y-101500000D02*
X141000000Y-101500000D01*
X143000000Y-102500000D02*
X143000000Y-101500000D01*
X141000000Y-102500000D02*
X143000000Y-102500000D01*
X141000000Y-101500000D02*
X141000000Y-102500000D01*
X144000000Y-94500000D02*
X144000000Y-124500000D01*
X126000000Y-94500000D02*
X144000000Y-94500000D01*
X126000000Y-124500000D02*
X126000000Y-94500000D01*
X144000000Y-124500000D02*
X126000000Y-124500000D01*
X144000000Y-94500000D02*
X144000000Y-124500000D01*
X153420000Y-141210000D02*
X153420000Y-140200000D01*
X158500000Y-141210000D02*
X153420000Y-141210000D01*
X158500000Y-140200000D02*
X158500000Y-141210000D01*
X152050000Y-140100000D02*
X159850000Y-140100000D01*
X152050000Y-146150000D02*
X152050000Y-140100000D01*
X159850000Y-146150000D02*
X152050000Y-146150000D01*
X159850000Y-140100000D02*
X159850000Y-146150000D01*
X148350000Y-140100000D02*
X148350000Y-146150000D01*
X148350000Y-146150000D02*
X140550000Y-146150000D01*
X140550000Y-146150000D02*
X140550000Y-140100000D01*
X140550000Y-140100000D02*
X148350000Y-140100000D01*
X147000000Y-140200000D02*
X147000000Y-141210000D01*
X147000000Y-141210000D02*
X141920000Y-141210000D01*
X141920000Y-141210000D02*
X141920000Y-140200000D01*
D10*
X196339336Y-122138610D02*
X196649127Y-122886512D01*
X196729567Y-122956278D01*
X196791784Y-122982049D01*
X196897996Y-122989597D01*
X197073973Y-122916705D01*
X197143739Y-122836265D01*
X197169510Y-122774048D01*
X197177058Y-122667836D01*
X196867267Y-121919934D01*
X197299661Y-121843915D02*
X197325432Y-121781698D01*
X197395198Y-121701257D01*
X197615169Y-121610142D01*
X197721381Y-121617690D01*
X197783598Y-121643462D01*
X197864038Y-121713227D01*
X197900484Y-121801216D01*
X197911159Y-121951422D01*
X197601904Y-122698029D01*
X198173830Y-122461130D01*
X116598095Y-139932380D02*
X116598095Y-140741904D01*
X116645714Y-140837142D01*
X116693333Y-140884761D01*
X116788571Y-140932380D01*
X116979047Y-140932380D01*
X117074285Y-140884761D01*
X117121904Y-140837142D01*
X117169523Y-140741904D01*
X117169523Y-139932380D01*
X118169523Y-140932380D02*
X117598095Y-140932380D01*
X117883809Y-140932380D02*
X117883809Y-139932380D01*
X117788571Y-140075238D01*
X117693333Y-140170476D01*
X117598095Y-140218095D01*
X200757142Y-102166666D02*
X200804761Y-102214285D01*
X200852380Y-102357142D01*
X200852380Y-102452380D01*
X200804761Y-102595238D01*
X200709523Y-102690476D01*
X200614285Y-102738095D01*
X200423809Y-102785714D01*
X200280952Y-102785714D01*
X200090476Y-102738095D01*
X199995238Y-102690476D01*
X199900000Y-102595238D01*
X199852380Y-102452380D01*
X199852380Y-102357142D01*
X199900000Y-102214285D01*
X199947619Y-102166666D01*
X200852380Y-101214285D02*
X200852380Y-101785714D01*
X200852380Y-101500000D02*
X199852380Y-101500000D01*
X199995238Y-101595238D01*
X200090476Y-101690476D01*
X200138095Y-101785714D01*
X201757142Y-104966666D02*
X201804761Y-105014285D01*
X201852380Y-105157142D01*
X201852380Y-105252380D01*
X201804761Y-105395238D01*
X201709523Y-105490476D01*
X201614285Y-105538095D01*
X201423809Y-105585714D01*
X201280952Y-105585714D01*
X201090476Y-105538095D01*
X200995238Y-105490476D01*
X200900000Y-105395238D01*
X200852380Y-105252380D01*
X200852380Y-105157142D01*
X200900000Y-105014285D01*
X200947619Y-104966666D01*
X200947619Y-104585714D02*
X200900000Y-104538095D01*
X200852380Y-104442857D01*
X200852380Y-104204761D01*
X200900000Y-104109523D01*
X200947619Y-104061904D01*
X201042857Y-104014285D01*
X201138095Y-104014285D01*
X201280952Y-104061904D01*
X201852380Y-104633333D01*
X201852380Y-104014285D01*
X203517142Y-98646666D02*
X203564761Y-98694285D01*
X203612380Y-98837142D01*
X203612380Y-98932380D01*
X203564761Y-99075238D01*
X203469523Y-99170476D01*
X203374285Y-99218095D01*
X203183809Y-99265714D01*
X203040952Y-99265714D01*
X202850476Y-99218095D01*
X202755238Y-99170476D01*
X202660000Y-99075238D01*
X202612380Y-98932380D01*
X202612380Y-98837142D01*
X202660000Y-98694285D01*
X202707619Y-98646666D01*
X202612380Y-98313333D02*
X202612380Y-97694285D01*
X202993333Y-98027619D01*
X202993333Y-97884761D01*
X203040952Y-97789523D01*
X203088571Y-97741904D01*
X203183809Y-97694285D01*
X203421904Y-97694285D01*
X203517142Y-97741904D01*
X203564761Y-97789523D01*
X203612380Y-97884761D01*
X203612380Y-98170476D01*
X203564761Y-98265714D01*
X203517142Y-98313333D01*
X152617333Y-123977142D02*
X152569714Y-124024761D01*
X152426857Y-124072380D01*
X152331619Y-124072380D01*
X152188761Y-124024761D01*
X152093523Y-123929523D01*
X152045904Y-123834285D01*
X151998285Y-123643809D01*
X151998285Y-123500952D01*
X152045904Y-123310476D01*
X152093523Y-123215238D01*
X152188761Y-123120000D01*
X152331619Y-123072380D01*
X152426857Y-123072380D01*
X152569714Y-123120000D01*
X152617333Y-123167619D01*
X153474476Y-123072380D02*
X153284000Y-123072380D01*
X153188761Y-123120000D01*
X153141142Y-123167619D01*
X153045904Y-123310476D01*
X152998285Y-123500952D01*
X152998285Y-123881904D01*
X153045904Y-123977142D01*
X153093523Y-124024761D01*
X153188761Y-124072380D01*
X153379238Y-124072380D01*
X153474476Y-124024761D01*
X153522095Y-123977142D01*
X153569714Y-123881904D01*
X153569714Y-123643809D01*
X153522095Y-123548571D01*
X153474476Y-123500952D01*
X153379238Y-123453333D01*
X153188761Y-123453333D01*
X153093523Y-123500952D01*
X153045904Y-123548571D01*
X152998285Y-123643809D01*
X149693619Y-133699238D02*
X149646000Y-133794476D01*
X149550761Y-133889714D01*
X149407904Y-134032571D01*
X149360285Y-134127809D01*
X149360285Y-134223047D01*
X149598380Y-134175428D02*
X149550761Y-134270666D01*
X149455523Y-134365904D01*
X149265047Y-134413523D01*
X148931714Y-134413523D01*
X148741238Y-134365904D01*
X148646000Y-134270666D01*
X148598380Y-134175428D01*
X148598380Y-133984952D01*
X148646000Y-133889714D01*
X148741238Y-133794476D01*
X148931714Y-133746857D01*
X149265047Y-133746857D01*
X149455523Y-133794476D01*
X149550761Y-133889714D01*
X149598380Y-133984952D01*
X149598380Y-134175428D01*
X149598380Y-132794476D02*
X149598380Y-133365904D01*
X149598380Y-133080190D02*
X148598380Y-133080190D01*
X148741238Y-133175428D01*
X148836476Y-133270666D01*
X148884095Y-133365904D01*
X105008333Y-82882380D02*
X104675000Y-82406190D01*
X104436904Y-82882380D02*
X104436904Y-81882380D01*
X104817857Y-81882380D01*
X104913095Y-81930000D01*
X104960714Y-81977619D01*
X105008333Y-82072857D01*
X105008333Y-82215714D01*
X104960714Y-82310952D01*
X104913095Y-82358571D01*
X104817857Y-82406190D01*
X104436904Y-82406190D01*
X105960714Y-82882380D02*
X105389285Y-82882380D01*
X105675000Y-82882380D02*
X105675000Y-81882380D01*
X105579761Y-82025238D01*
X105484523Y-82120476D01*
X105389285Y-82168095D01*
X201202380Y-95666666D02*
X200726190Y-96000000D01*
X201202380Y-96238095D02*
X200202380Y-96238095D01*
X200202380Y-95857142D01*
X200250000Y-95761904D01*
X200297619Y-95714285D01*
X200392857Y-95666666D01*
X200535714Y-95666666D01*
X200630952Y-95714285D01*
X200678571Y-95761904D01*
X200726190Y-95857142D01*
X200726190Y-96238095D01*
X200297619Y-95285714D02*
X200250000Y-95238095D01*
X200202380Y-95142857D01*
X200202380Y-94904761D01*
X200250000Y-94809523D01*
X200297619Y-94761904D01*
X200392857Y-94714285D01*
X200488095Y-94714285D01*
X200630952Y-94761904D01*
X201202380Y-95333333D01*
X201202380Y-94714285D01*
X185452380Y-91366666D02*
X184976190Y-91700000D01*
X185452380Y-91938095D02*
X184452380Y-91938095D01*
X184452380Y-91557142D01*
X184500000Y-91461904D01*
X184547619Y-91414285D01*
X184642857Y-91366666D01*
X184785714Y-91366666D01*
X184880952Y-91414285D01*
X184928571Y-91461904D01*
X184976190Y-91557142D01*
X184976190Y-91938095D01*
X184452380Y-91033333D02*
X184452380Y-90414285D01*
X184833333Y-90747619D01*
X184833333Y-90604761D01*
X184880952Y-90509523D01*
X184928571Y-90461904D01*
X185023809Y-90414285D01*
X185261904Y-90414285D01*
X185357142Y-90461904D01*
X185404761Y-90509523D01*
X185452380Y-90604761D01*
X185452380Y-90890476D01*
X185404761Y-90985714D01*
X185357142Y-91033333D01*
X103882380Y-85666666D02*
X103406190Y-86000000D01*
X103882380Y-86238095D02*
X102882380Y-86238095D01*
X102882380Y-85857142D01*
X102930000Y-85761904D01*
X102977619Y-85714285D01*
X103072857Y-85666666D01*
X103215714Y-85666666D01*
X103310952Y-85714285D01*
X103358571Y-85761904D01*
X103406190Y-85857142D01*
X103406190Y-86238095D01*
X102882380Y-84761904D02*
X102882380Y-85238095D01*
X103358571Y-85285714D01*
X103310952Y-85238095D01*
X103263333Y-85142857D01*
X103263333Y-84904761D01*
X103310952Y-84809523D01*
X103358571Y-84761904D01*
X103453809Y-84714285D01*
X103691904Y-84714285D01*
X103787142Y-84761904D01*
X103834761Y-84809523D01*
X103882380Y-84904761D01*
X103882380Y-85142857D01*
X103834761Y-85238095D01*
X103787142Y-85285714D01*
X100882380Y-85491666D02*
X100406190Y-85825000D01*
X100882380Y-86063095D02*
X99882380Y-86063095D01*
X99882380Y-85682142D01*
X99930000Y-85586904D01*
X99977619Y-85539285D01*
X100072857Y-85491666D01*
X100215714Y-85491666D01*
X100310952Y-85539285D01*
X100358571Y-85586904D01*
X100406190Y-85682142D01*
X100406190Y-86063095D01*
X99882380Y-84634523D02*
X99882380Y-84825000D01*
X99930000Y-84920238D01*
X99977619Y-84967857D01*
X100120476Y-85063095D01*
X100310952Y-85110714D01*
X100691904Y-85110714D01*
X100787142Y-85063095D01*
X100834761Y-85015476D01*
X100882380Y-84920238D01*
X100882380Y-84729761D01*
X100834761Y-84634523D01*
X100787142Y-84586904D01*
X100691904Y-84539285D01*
X100453809Y-84539285D01*
X100358571Y-84586904D01*
X100310952Y-84634523D01*
X100263333Y-84729761D01*
X100263333Y-84920238D01*
X100310952Y-85015476D01*
X100358571Y-85063095D01*
X100453809Y-85110714D01*
X96882380Y-85491666D02*
X96406190Y-85825000D01*
X96882380Y-86063095D02*
X95882380Y-86063095D01*
X95882380Y-85682142D01*
X95930000Y-85586904D01*
X95977619Y-85539285D01*
X96072857Y-85491666D01*
X96215714Y-85491666D01*
X96310952Y-85539285D01*
X96358571Y-85586904D01*
X96406190Y-85682142D01*
X96406190Y-86063095D01*
X95882380Y-85158333D02*
X95882380Y-84491666D01*
X96882380Y-84920238D01*
X93382380Y-85666666D02*
X92906190Y-86000000D01*
X93382380Y-86238095D02*
X92382380Y-86238095D01*
X92382380Y-85857142D01*
X92430000Y-85761904D01*
X92477619Y-85714285D01*
X92572857Y-85666666D01*
X92715714Y-85666666D01*
X92810952Y-85714285D01*
X92858571Y-85761904D01*
X92906190Y-85857142D01*
X92906190Y-86238095D01*
X92810952Y-85095238D02*
X92763333Y-85190476D01*
X92715714Y-85238095D01*
X92620476Y-85285714D01*
X92572857Y-85285714D01*
X92477619Y-85238095D01*
X92430000Y-85190476D01*
X92382380Y-85095238D01*
X92382380Y-84904761D01*
X92430000Y-84809523D01*
X92477619Y-84761904D01*
X92572857Y-84714285D01*
X92620476Y-84714285D01*
X92715714Y-84761904D01*
X92763333Y-84809523D01*
X92810952Y-84904761D01*
X92810952Y-85095238D01*
X92858571Y-85190476D01*
X92906190Y-85238095D01*
X93001428Y-85285714D01*
X93191904Y-85285714D01*
X93287142Y-85238095D01*
X93334761Y-85190476D01*
X93382380Y-85095238D01*
X93382380Y-84904761D01*
X93334761Y-84809523D01*
X93287142Y-84761904D01*
X93191904Y-84714285D01*
X93001428Y-84714285D01*
X92906190Y-84761904D01*
X92858571Y-84809523D01*
X92810952Y-84904761D01*
X152617333Y-126272380D02*
X152284000Y-125796190D01*
X152045904Y-126272380D02*
X152045904Y-125272380D01*
X152426857Y-125272380D01*
X152522095Y-125320000D01*
X152569714Y-125367619D01*
X152617333Y-125462857D01*
X152617333Y-125605714D01*
X152569714Y-125700952D01*
X152522095Y-125748571D01*
X152426857Y-125796190D01*
X152045904Y-125796190D01*
X153093523Y-126272380D02*
X153284000Y-126272380D01*
X153379238Y-126224761D01*
X153426857Y-126177142D01*
X153522095Y-126034285D01*
X153569714Y-125843809D01*
X153569714Y-125462857D01*
X153522095Y-125367619D01*
X153474476Y-125320000D01*
X153379238Y-125272380D01*
X153188761Y-125272380D01*
X153093523Y-125320000D01*
X153045904Y-125367619D01*
X152998285Y-125462857D01*
X152998285Y-125700952D01*
X153045904Y-125796190D01*
X153093523Y-125843809D01*
X153188761Y-125891428D01*
X153379238Y-125891428D01*
X153474476Y-125843809D01*
X153522095Y-125796190D01*
X153569714Y-125700952D01*
X146857142Y-121452380D02*
X146523809Y-120976190D01*
X146285714Y-121452380D02*
X146285714Y-120452380D01*
X146666666Y-120452380D01*
X146761904Y-120500000D01*
X146809523Y-120547619D01*
X146857142Y-120642857D01*
X146857142Y-120785714D01*
X146809523Y-120880952D01*
X146761904Y-120928571D01*
X146666666Y-120976190D01*
X146285714Y-120976190D01*
X147809523Y-121452380D02*
X147238095Y-121452380D01*
X147523809Y-121452380D02*
X147523809Y-120452380D01*
X147428571Y-120595238D01*
X147333333Y-120690476D01*
X147238095Y-120738095D01*
X148428571Y-120452380D02*
X148523809Y-120452380D01*
X148619047Y-120500000D01*
X148666666Y-120547619D01*
X148714285Y-120642857D01*
X148761904Y-120833333D01*
X148761904Y-121071428D01*
X148714285Y-121261904D01*
X148666666Y-121357142D01*
X148619047Y-121404761D01*
X148523809Y-121452380D01*
X148428571Y-121452380D01*
X148333333Y-121404761D01*
X148285714Y-121357142D01*
X148238095Y-121261904D01*
X148190476Y-121071428D01*
X148190476Y-120833333D01*
X148238095Y-120642857D01*
X148285714Y-120547619D01*
X148333333Y-120500000D01*
X148428571Y-120452380D01*
X169354666Y-120546761D02*
X169497523Y-120594380D01*
X169735619Y-120594380D01*
X169830857Y-120546761D01*
X169878476Y-120499142D01*
X169926095Y-120403904D01*
X169926095Y-120308666D01*
X169878476Y-120213428D01*
X169830857Y-120165809D01*
X169735619Y-120118190D01*
X169545142Y-120070571D01*
X169449904Y-120022952D01*
X169402285Y-119975333D01*
X169354666Y-119880095D01*
X169354666Y-119784857D01*
X169402285Y-119689619D01*
X169449904Y-119642000D01*
X169545142Y-119594380D01*
X169783238Y-119594380D01*
X169926095Y-119642000D01*
X170259428Y-119594380D02*
X170497523Y-120594380D01*
X170688000Y-119880095D01*
X170878476Y-120594380D01*
X171116571Y-119594380D01*
X172021333Y-120594380D02*
X171449904Y-120594380D01*
X171735619Y-120594380D02*
X171735619Y-119594380D01*
X171640380Y-119737238D01*
X171545142Y-119832476D01*
X171449904Y-119880095D01*
X53204761Y-116033333D02*
X53252380Y-115890476D01*
X53252380Y-115652380D01*
X53204761Y-115557142D01*
X53157142Y-115509523D01*
X53061904Y-115461904D01*
X52966666Y-115461904D01*
X52871428Y-115509523D01*
X52823809Y-115557142D01*
X52776190Y-115652380D01*
X52728571Y-115842857D01*
X52680952Y-115938095D01*
X52633333Y-115985714D01*
X52538095Y-116033333D01*
X52442857Y-116033333D01*
X52347619Y-115985714D01*
X52300000Y-115938095D01*
X52252380Y-115842857D01*
X52252380Y-115604761D01*
X52300000Y-115461904D01*
X52252380Y-115128571D02*
X53252380Y-114890476D01*
X52538095Y-114700000D01*
X53252380Y-114509523D01*
X52252380Y-114271428D01*
X52347619Y-113938095D02*
X52300000Y-113890476D01*
X52252380Y-113795238D01*
X52252380Y-113557142D01*
X52300000Y-113461904D01*
X52347619Y-113414285D01*
X52442857Y-113366666D01*
X52538095Y-113366666D01*
X52680952Y-113414285D01*
X53252380Y-113985714D01*
X53252380Y-113366666D01*
X152452380Y-95833333D02*
X153166666Y-95833333D01*
X153309523Y-95880952D01*
X153404761Y-95976190D01*
X153452380Y-96119047D01*
X153452380Y-96214285D01*
X153452380Y-95357142D02*
X152452380Y-95357142D01*
X152452380Y-94976190D01*
X152500000Y-94880952D01*
X152547619Y-94833333D01*
X152642857Y-94785714D01*
X152785714Y-94785714D01*
X152880952Y-94833333D01*
X152928571Y-94880952D01*
X152976190Y-94976190D01*
X152976190Y-95357142D01*
X153452380Y-93833333D02*
X153452380Y-94404761D01*
X153452380Y-94119047D02*
X152452380Y-94119047D01*
X152595238Y-94214285D01*
X152690476Y-94309523D01*
X152738095Y-94404761D01*
X149052380Y-95733333D02*
X149766666Y-95733333D01*
X149909523Y-95780952D01*
X150004761Y-95876190D01*
X150052380Y-96019047D01*
X150052380Y-96114285D01*
X150052380Y-95257142D02*
X149052380Y-95257142D01*
X149052380Y-94876190D01*
X149100000Y-94780952D01*
X149147619Y-94733333D01*
X149242857Y-94685714D01*
X149385714Y-94685714D01*
X149480952Y-94733333D01*
X149528571Y-94780952D01*
X149576190Y-94876190D01*
X149576190Y-95257142D01*
X149147619Y-94304761D02*
X149100000Y-94257142D01*
X149052380Y-94161904D01*
X149052380Y-93923809D01*
X149100000Y-93828571D01*
X149147619Y-93780952D01*
X149242857Y-93733333D01*
X149338095Y-93733333D01*
X149480952Y-93780952D01*
X150052380Y-94352380D01*
X150052380Y-93733333D01*
X147252380Y-97833333D02*
X147252380Y-97214285D01*
X147633333Y-97547619D01*
X147633333Y-97404761D01*
X147680952Y-97309523D01*
X147728571Y-97261904D01*
X147823809Y-97214285D01*
X148061904Y-97214285D01*
X148157142Y-97261904D01*
X148204761Y-97309523D01*
X148252380Y-97404761D01*
X148252380Y-97690476D01*
X148204761Y-97785714D01*
X148157142Y-97833333D01*
X148252380Y-92014285D02*
X148252380Y-92585714D01*
X148252380Y-92300000D02*
X147252380Y-92300000D01*
X147395238Y-92395238D01*
X147490476Y-92490476D01*
X147538095Y-92585714D01*
X154022380Y-92766666D02*
X153546190Y-93100000D01*
X154022380Y-93338095D02*
X153022380Y-93338095D01*
X153022380Y-92957142D01*
X153070000Y-92861904D01*
X153117619Y-92814285D01*
X153212857Y-92766666D01*
X153355714Y-92766666D01*
X153450952Y-92814285D01*
X153498571Y-92861904D01*
X153546190Y-92957142D01*
X153546190Y-93338095D01*
X153355714Y-91909523D02*
X154022380Y-91909523D01*
X152974761Y-92147619D02*
X153689047Y-92385714D01*
X153689047Y-91766666D01*
X174016177Y-96945121D02*
X174156749Y-97742347D01*
X174220183Y-97827869D01*
X174275347Y-97866496D01*
X174377407Y-97896853D01*
X174564990Y-97863777D01*
X174650512Y-97800344D01*
X174689139Y-97745179D01*
X174719496Y-97643119D01*
X174578924Y-96845894D01*
X174954089Y-96779742D02*
X175563732Y-96672246D01*
X175301614Y-97105293D01*
X175442301Y-97080486D01*
X175544361Y-97110844D01*
X175599526Y-97149471D01*
X175662959Y-97234993D01*
X175704304Y-97469471D01*
X175673946Y-97571531D01*
X175635320Y-97626696D01*
X175549798Y-97690129D01*
X175268424Y-97739743D01*
X175166364Y-97709385D01*
X175111199Y-97670759D01*
X167219333Y-123039142D02*
X167171714Y-123086761D01*
X167028857Y-123134380D01*
X166933619Y-123134380D01*
X166790761Y-123086761D01*
X166695523Y-122991523D01*
X166647904Y-122896285D01*
X166600285Y-122705809D01*
X166600285Y-122562952D01*
X166647904Y-122372476D01*
X166695523Y-122277238D01*
X166790761Y-122182000D01*
X166933619Y-122134380D01*
X167028857Y-122134380D01*
X167171714Y-122182000D01*
X167219333Y-122229619D01*
X168076476Y-122467714D02*
X168076476Y-123134380D01*
X167838380Y-122086761D02*
X167600285Y-122801047D01*
X168219333Y-122801047D01*
X70008333Y-107287142D02*
X69960714Y-107334761D01*
X69817857Y-107382380D01*
X69722619Y-107382380D01*
X69579761Y-107334761D01*
X69484523Y-107239523D01*
X69436904Y-107144285D01*
X69389285Y-106953809D01*
X69389285Y-106810952D01*
X69436904Y-106620476D01*
X69484523Y-106525238D01*
X69579761Y-106430000D01*
X69722619Y-106382380D01*
X69817857Y-106382380D01*
X69960714Y-106430000D01*
X70008333Y-106477619D01*
X70913095Y-106382380D02*
X70436904Y-106382380D01*
X70389285Y-106858571D01*
X70436904Y-106810952D01*
X70532142Y-106763333D01*
X70770238Y-106763333D01*
X70865476Y-106810952D01*
X70913095Y-106858571D01*
X70960714Y-106953809D01*
X70960714Y-107191904D01*
X70913095Y-107287142D01*
X70865476Y-107334761D01*
X70770238Y-107382380D01*
X70532142Y-107382380D01*
X70436904Y-107334761D01*
X70389285Y-107287142D01*
X70008333Y-104187142D02*
X69960714Y-104234761D01*
X69817857Y-104282380D01*
X69722619Y-104282380D01*
X69579761Y-104234761D01*
X69484523Y-104139523D01*
X69436904Y-104044285D01*
X69389285Y-103853809D01*
X69389285Y-103710952D01*
X69436904Y-103520476D01*
X69484523Y-103425238D01*
X69579761Y-103330000D01*
X69722619Y-103282380D01*
X69817857Y-103282380D01*
X69960714Y-103330000D01*
X70008333Y-103377619D01*
X70341666Y-103282380D02*
X71008333Y-103282380D01*
X70579761Y-104282380D01*
X162901333Y-116689142D02*
X162853714Y-116736761D01*
X162710857Y-116784380D01*
X162615619Y-116784380D01*
X162472761Y-116736761D01*
X162377523Y-116641523D01*
X162329904Y-116546285D01*
X162282285Y-116355809D01*
X162282285Y-116212952D01*
X162329904Y-116022476D01*
X162377523Y-115927238D01*
X162472761Y-115832000D01*
X162615619Y-115784380D01*
X162710857Y-115784380D01*
X162853714Y-115832000D01*
X162901333Y-115879619D01*
X163472761Y-116212952D02*
X163377523Y-116165333D01*
X163329904Y-116117714D01*
X163282285Y-116022476D01*
X163282285Y-115974857D01*
X163329904Y-115879619D01*
X163377523Y-115832000D01*
X163472761Y-115784380D01*
X163663238Y-115784380D01*
X163758476Y-115832000D01*
X163806095Y-115879619D01*
X163853714Y-115974857D01*
X163853714Y-116022476D01*
X163806095Y-116117714D01*
X163758476Y-116165333D01*
X163663238Y-116212952D01*
X163472761Y-116212952D01*
X163377523Y-116260571D01*
X163329904Y-116308190D01*
X163282285Y-116403428D01*
X163282285Y-116593904D01*
X163329904Y-116689142D01*
X163377523Y-116736761D01*
X163472761Y-116784380D01*
X163663238Y-116784380D01*
X163758476Y-116736761D01*
X163806095Y-116689142D01*
X163853714Y-116593904D01*
X163853714Y-116403428D01*
X163806095Y-116308190D01*
X163758476Y-116260571D01*
X163663238Y-116212952D01*
X166457333Y-120499142D02*
X166409714Y-120546761D01*
X166266857Y-120594380D01*
X166171619Y-120594380D01*
X166028761Y-120546761D01*
X165933523Y-120451523D01*
X165885904Y-120356285D01*
X165838285Y-120165809D01*
X165838285Y-120022952D01*
X165885904Y-119832476D01*
X165933523Y-119737238D01*
X166028761Y-119642000D01*
X166171619Y-119594380D01*
X166266857Y-119594380D01*
X166409714Y-119642000D01*
X166457333Y-119689619D01*
X166933523Y-120594380D02*
X167124000Y-120594380D01*
X167219238Y-120546761D01*
X167266857Y-120499142D01*
X167362095Y-120356285D01*
X167409714Y-120165809D01*
X167409714Y-119784857D01*
X167362095Y-119689619D01*
X167314476Y-119642000D01*
X167219238Y-119594380D01*
X167028761Y-119594380D01*
X166933523Y-119642000D01*
X166885904Y-119689619D01*
X166838285Y-119784857D01*
X166838285Y-120022952D01*
X166885904Y-120118190D01*
X166933523Y-120165809D01*
X167028761Y-120213428D01*
X167219238Y-120213428D01*
X167314476Y-120165809D01*
X167362095Y-120118190D01*
X167409714Y-120022952D01*
X146357142Y-124889142D02*
X146309523Y-124936761D01*
X146166666Y-124984380D01*
X146071428Y-124984380D01*
X145928571Y-124936761D01*
X145833333Y-124841523D01*
X145785714Y-124746285D01*
X145738095Y-124555809D01*
X145738095Y-124412952D01*
X145785714Y-124222476D01*
X145833333Y-124127238D01*
X145928571Y-124032000D01*
X146071428Y-123984380D01*
X146166666Y-123984380D01*
X146309523Y-124032000D01*
X146357142Y-124079619D01*
X147309523Y-124984380D02*
X146738095Y-124984380D01*
X147023809Y-124984380D02*
X147023809Y-123984380D01*
X146928571Y-124127238D01*
X146833333Y-124222476D01*
X146738095Y-124270095D01*
X147928571Y-123984380D02*
X148023809Y-123984380D01*
X148119047Y-124032000D01*
X148166666Y-124079619D01*
X148214285Y-124174857D01*
X148261904Y-124365333D01*
X148261904Y-124603428D01*
X148214285Y-124793904D01*
X148166666Y-124889142D01*
X148119047Y-124936761D01*
X148023809Y-124984380D01*
X147928571Y-124984380D01*
X147833333Y-124936761D01*
X147785714Y-124889142D01*
X147738095Y-124793904D01*
X147690476Y-124603428D01*
X147690476Y-124365333D01*
X147738095Y-124174857D01*
X147785714Y-124079619D01*
X147833333Y-124032000D01*
X147928571Y-123984380D01*
X146357142Y-126857142D02*
X146309523Y-126904761D01*
X146166666Y-126952380D01*
X146071428Y-126952380D01*
X145928571Y-126904761D01*
X145833333Y-126809523D01*
X145785714Y-126714285D01*
X145738095Y-126523809D01*
X145738095Y-126380952D01*
X145785714Y-126190476D01*
X145833333Y-126095238D01*
X145928571Y-126000000D01*
X146071428Y-125952380D01*
X146166666Y-125952380D01*
X146309523Y-126000000D01*
X146357142Y-126047619D01*
X147309523Y-126952380D02*
X146738095Y-126952380D01*
X147023809Y-126952380D02*
X147023809Y-125952380D01*
X146928571Y-126095238D01*
X146833333Y-126190476D01*
X146738095Y-126238095D01*
X148261904Y-126952380D02*
X147690476Y-126952380D01*
X147976190Y-126952380D02*
X147976190Y-125952380D01*
X147880952Y-126095238D01*
X147785714Y-126190476D01*
X147690476Y-126238095D01*
X134634904Y-139047380D02*
X134634904Y-138047380D01*
X134873000Y-138047380D01*
X135015857Y-138095000D01*
X135111095Y-138190238D01*
X135158714Y-138285476D01*
X135206333Y-138475952D01*
X135206333Y-138618809D01*
X135158714Y-138809285D01*
X135111095Y-138904523D01*
X135015857Y-138999761D01*
X134873000Y-139047380D01*
X134634904Y-139047380D01*
X136158714Y-139047380D02*
X135587285Y-139047380D01*
X135873000Y-139047380D02*
X135873000Y-138047380D01*
X135777761Y-138190238D01*
X135682523Y-138285476D01*
X135587285Y-138333095D01*
X69557142Y-98727142D02*
X69509523Y-98774761D01*
X69366666Y-98822380D01*
X69271428Y-98822380D01*
X69128571Y-98774761D01*
X69033333Y-98679523D01*
X68985714Y-98584285D01*
X68938095Y-98393809D01*
X68938095Y-98250952D01*
X68985714Y-98060476D01*
X69033333Y-97965238D01*
X69128571Y-97870000D01*
X69271428Y-97822380D01*
X69366666Y-97822380D01*
X69509523Y-97870000D01*
X69557142Y-97917619D01*
X70509523Y-98822380D02*
X69938095Y-98822380D01*
X70223809Y-98822380D02*
X70223809Y-97822380D01*
X70128571Y-97965238D01*
X70033333Y-98060476D01*
X69938095Y-98108095D01*
X70890476Y-97917619D02*
X70938095Y-97870000D01*
X71033333Y-97822380D01*
X71271428Y-97822380D01*
X71366666Y-97870000D01*
X71414285Y-97917619D01*
X71461904Y-98012857D01*
X71461904Y-98108095D01*
X71414285Y-98250952D01*
X70842857Y-98822380D01*
X71461904Y-98822380D01*
X134452380Y-110738095D02*
X135261904Y-110738095D01*
X135357142Y-110690476D01*
X135404761Y-110642857D01*
X135452380Y-110547619D01*
X135452380Y-110357142D01*
X135404761Y-110261904D01*
X135357142Y-110214285D01*
X135261904Y-110166666D01*
X134452380Y-110166666D01*
X135452380Y-109166666D02*
X135452380Y-109738095D01*
X135452380Y-109452380D02*
X134452380Y-109452380D01*
X134595238Y-109547619D01*
X134690476Y-109642857D01*
X134738095Y-109738095D01*
X134452380Y-108547619D02*
X134452380Y-108452380D01*
X134500000Y-108357142D01*
X134547619Y-108309523D01*
X134642857Y-108261904D01*
X134833333Y-108214285D01*
X135071428Y-108214285D01*
X135261904Y-108261904D01*
X135357142Y-108309523D01*
X135404761Y-108357142D01*
X135452380Y-108452380D01*
X135452380Y-108547619D01*
X135404761Y-108642857D01*
X135357142Y-108690476D01*
X135261904Y-108738095D01*
X135071428Y-108785714D01*
X134833333Y-108785714D01*
X134642857Y-108738095D01*
X134547619Y-108690476D01*
X134500000Y-108642857D01*
X134452380Y-108547619D01*
X160690476Y-143952380D02*
X160690476Y-142952380D01*
X161023809Y-143666666D01*
X161357142Y-142952380D01*
X161357142Y-143952380D01*
X162357142Y-143952380D02*
X161785714Y-143952380D01*
X162071428Y-143952380D02*
X162071428Y-142952380D01*
X161976190Y-143095238D01*
X161880952Y-143190476D01*
X161785714Y-143238095D01*
X138190476Y-143952380D02*
X138190476Y-142952380D01*
X138523809Y-143666666D01*
X138857142Y-142952380D01*
X138857142Y-143952380D01*
X139285714Y-143047619D02*
X139333333Y-143000000D01*
X139428571Y-142952380D01*
X139666666Y-142952380D01*
X139761904Y-143000000D01*
X139809523Y-143047619D01*
X139857142Y-143142857D01*
X139857142Y-143238095D01*
X139809523Y-143380952D01*
X139238095Y-143952380D01*
X139857142Y-143952380D01*
M02*
