M48
; DRILL file {KiCad 5.1.7-a382d34a8~87~ubuntu20.04.1} date Mon Nov  9 10:39:42 2020
; FORMAT={-:-/ absolute / inch / decimal}
; #@! TF.CreationDate,2020-11-09T10:39:42+09:00
; #@! TF.GenerationSoftware,Kicad,Pcbnew,5.1.7-a382d34a8~87~ubuntu20.04.1
; #@! TF.FileFunction,Plated,1,2,PTH
FMAT,2
INCH
T1C0.0315
T2C0.0394
T3C0.0394
T4C0.0433
T5C0.0591
T6C0.0598
T7C0.1063
T8C0.1260
T9C0.1575
%
G90
G05
T1
X4.9213Y-4.7453
X6.01Y-4.54
X6.0206Y-4.44
X6.085Y-5.17
X6.085Y-5.25
X6.31Y-4.28
X6.335Y-4.02
X6.365Y-4.07
X6.37Y-4.28
X6.54Y-5.28
X6.5556Y-4.0955
X6.635Y-4.025
X6.65Y-5.02
X6.65Y-5.1001
X6.68Y-3.99
X6.71Y-3.6617
X6.7653Y-3.6876
X6.89Y-5.3129
X7.0094Y-3.7963
X7.02Y-4.0876
X7.0328Y-3.7511
X7.069Y-4.0654
X7.165Y-3.9
X7.3474Y-4.755
X7.3481Y-4.086
X7.41Y-3.775
X7.425Y-3.845
X3.62Y-5.505
X3.72Y-5.505
X3.82Y-5.505
X3.92Y-5.505
T2
X6.15Y-3.1
X6.25Y-3.1
X3.385Y-4.1343
X3.385Y-4.2343
X3.385Y-4.3343
X3.385Y-4.4343
X3.385Y-4.5343
X5.8858Y-3.9343
X5.8858Y-4.0343
X5.8858Y-4.1343
X5.8858Y-4.2343
X5.8858Y-4.3343
X5.8858Y-4.4343
X5.8858Y-4.5343
X5.8858Y-4.6343
X5.8858Y-4.7343
X5.8Y-3.1
X5.9Y-3.1
X6.2402Y-4.0551
X6.2402Y-4.626
X6.3386Y-4.626
X6.437Y-4.0551
X6.437Y-4.626
X4.25Y-5.435
X4.5492Y-5.435
X2.0866Y-3.4646
X2.5354Y-3.4646
X2.4606Y-4.0551
X2.4606Y-4.626
X2.5591Y-4.626
X2.6575Y-4.0551
X2.6575Y-4.626
X6.7481Y-3.2914
X6.8372Y-3.3368
X6.9263Y-3.3822
X7.0154Y-3.4276
X7.1045Y-3.473
X7.1936Y-3.5184
X7.2827Y-3.5638
X7.3718Y-3.6092
X7.4609Y-3.6546
X7.55Y-3.7
T3
X6.825Y-5.125
T4
X2.05Y-3.9102
X2.05Y-4.3039
X2.05Y-4.7764
X2.05Y-4.9732
X4.2913Y-3.7795
X4.2913Y-4.1732
X4.2913Y-4.6457
X4.2913Y-4.8425
X5.85Y-3.35
X5.95Y-3.35
X6.05Y-3.35
X3.7795Y-3.7795
X3.7795Y-4.1732
X3.7795Y-4.6457
X3.7795Y-4.8425
X3.05Y-3.9102
X3.05Y-4.3039
X3.05Y-4.7764
X3.05Y-4.9732
T5
X4.7244Y-3.2677
X5.2283Y-5.0394
X5.5433Y-3.2677
X5.5433Y-5.0394
T6
X3.5701Y-3.2677
X3.7701Y-3.2677
X3.9701Y-3.2677
X4.1701Y-3.2677
X4.3701Y-3.2677
X2.9134Y-3.1496
X3.1134Y-3.1496
T7
X3.4173Y-3.663
X3.4173Y-5.0055
X5.8268Y-3.663
X5.8268Y-5.0055
T8
X2.5591Y-3.1496
X1.1811Y-4.3307
X2.5591Y-5.5118
X6.4961Y-3.1496
X6.4961Y-5.5118
T9
X7.1299Y-4.3886
T5
G00X6.1181Y-4.3563
M15
G01X6.1181Y-4.3051
M16
G05
G00X6.5591Y-4.3563
M15
G01X6.5591Y-4.3051
M16
G05
G00X2.3386Y-4.3563
M15
G01X2.3386Y-4.3051
M16
G05
G00X2.7795Y-4.3563
M15
G01X2.7795Y-4.3051
M16
G05
T0
M30
