M48
; DRILL file {KiCad 5.1.9-73d0e3b20d~88~ubuntu20.04.1} date Thu Jan 28 18:17:16 2021
; FORMAT={-:-/ absolute / inch / decimal}
; #@! TF.CreationDate,2021-01-28T18:17:16+09:00
; #@! TF.GenerationSoftware,Kicad,Pcbnew,5.1.9-73d0e3b20d~88~ubuntu20.04.1
; #@! TF.FileFunction,Plated,1,2,PTH
FMAT,2
INCH
T1C0.0118
T2C0.0315
T3C0.0354
T4C0.0394
T5C0.0402
T6C0.0433
T7C0.0472
T8C0.0500
T9C0.0591
T10C0.0669
T11C0.1063
T12C0.1378
T13C0.1575
%
G90
G05
T1
X4.2005Y-3.1234
X4.3701Y-3.1496
X4.4094Y-3.0807
X6.9037Y-4.6429
X6.9368Y-4.1101
X6.9826Y-4.2303
X6.9844Y-4.7177
X7.0085Y-4.2282
X7.0472Y-4.2717
X7.3206Y-3.711
X7.417Y-3.5511
X7.4304Y-3.4988
X7.4454Y-3.6865
X7.4705Y-3.6811
X7.4803Y-3.5511
X7.4981Y-3.6787
X7.5313Y-3.5604
T2
X3.622Y-3.189
X3.722Y-3.189
X3.822Y-3.189
X3.922Y-3.189
X4.165Y-3.2551
X4.2913Y-3.3858
X5.0661Y-3.0858
X5.0661Y-3.3858
X5.1661Y-3.0858
X5.1661Y-3.3858
X5.2661Y-3.0858
X5.2661Y-3.3858
X5.3661Y-3.0858
X5.3661Y-3.3858
X5.4301Y-3.5648
X5.4661Y-3.0858
X5.4661Y-3.3858
X5.5661Y-3.0858
X5.5661Y-3.3858
X5.6661Y-3.0858
X5.6661Y-3.3858
X5.7661Y-3.0858
X5.7661Y-3.3858
X5.8661Y-3.0858
X5.8661Y-3.3858
X7.4803Y-3.9213
X7.5591Y-3.8976
X7.6299Y-3.8661
X7.9775Y-3.9359
T3
X6.4875Y-3.5981
X6.5049Y-3.6966
X6.5223Y-3.7951
X6.5396Y-3.8935
T4
X2.2638Y-4.0551
X2.2638Y-4.626
X2.3622Y-4.626
X2.4606Y-4.0551
X2.4606Y-4.626
X3.0039Y-4.1804
X3.0039Y-4.2804
X3.0039Y-4.3804
X3.0039Y-4.4804
X4.5276Y-3.0866
X4.5276Y-3.3858
X5.0197Y-3.7047
X5.0197Y-3.7992
X5.0197Y-4.8228
X5.0197Y-4.9173
X5.1197Y-3.7047
X5.1197Y-3.7992
X5.1197Y-4.8228
X5.1197Y-4.9173
X5.5102Y-3.7047
X5.5102Y-3.7992
X5.5102Y-4.8228
X5.5102Y-4.9173
X5.6102Y-3.7047
X5.6102Y-3.7992
X5.6102Y-4.8228
X5.6102Y-4.9173
X5.6299Y-4.6457
X6.3228Y-3.6804
X6.3228Y-3.7804
X6.3228Y-3.8804
X6.3228Y-3.9804
X6.3228Y-4.0804
X6.3228Y-4.1804
X6.3228Y-4.2804
X6.3228Y-4.3804
X6.3228Y-4.4804
X6.3228Y-4.5804
X6.3228Y-4.6804
X6.3228Y-4.7804
X6.3228Y-4.8804
X6.3228Y-4.9804
X6.5945Y-4.0551
X6.5945Y-4.626
X6.6929Y-4.626
X6.7913Y-4.0551
X6.7913Y-4.626
X7.0427Y-3.2658
X7.1334Y-3.3081
X7.224Y-3.3503
X7.3146Y-3.3926
X7.4053Y-3.4349
X7.4959Y-3.4771
X7.5865Y-3.5194
X7.6772Y-3.5616
X7.7678Y-3.6039
X7.8584Y-3.6462
T5
X5.5874Y-5.6496
X5.6874Y-5.6496
X5.7874Y-5.6496
X6.0402Y-5.6496
X6.1402Y-5.6496
X6.2402Y-5.6496
T6
X6.04Y-5.16
X6.04Y-5.26
X6.04Y-5.36
T7
X1.1417Y-3.7835
X1.1417Y-3.8835
X1.1417Y-4.2835
X1.1417Y-4.4835
X1.4173Y-3.9016
X1.4173Y-4.0016
X1.4173Y-4.4016
X1.4173Y-4.6016
X1.6929Y-4.0197
X1.6929Y-4.1197
X1.6929Y-4.5197
X1.6929Y-4.7197
X1.9291Y-4.1378
X1.9291Y-4.2378
X1.9291Y-4.6378
X1.9291Y-4.8378
T8
X4.4134Y-3.8307
X5.863Y-3.893
T9
X3.3858Y-5.0394
X3.5433Y-3.7087
X3.5433Y-4.5276
X3.5827Y-5.0394
X4.0551Y-5.0394
X4.2638Y-5.0394
X5.315Y-3.7087
X5.315Y-4.0236
T10
X1.1417Y-4.8425
X1.3201Y-4.9257
X1.5354Y-5.0197
X1.7138Y-5.1029
X1.9291Y-5.1969
X2.1075Y-5.28
X3.4252Y-5.4724
X3.5811Y-5.4724
X3.737Y-5.4724
X4.0551Y-5.4724
X4.252Y-5.4724
X4.4488Y-5.4724
X4.6457Y-5.4724
T11
X3.0039Y-3.3661
X3.0039Y-5.2953
X6.2835Y-3.3661
X6.2835Y-5.2953
T12
X2.3622Y-3.1496
X2.3622Y-5.5118
X6.6929Y-3.1496
X6.6929Y-5.5118
T13
X7.5948Y-4.2529
T9
G00X2.1417Y-4.3563
M15
G01X2.1417Y-4.3051
M16
G05
G00X2.5827Y-4.3563
M15
G01X2.5827Y-4.3051
M16
G05
G00X6.4724Y-4.3563
M15
G01X6.4724Y-4.3051
M16
G05
G00X6.9134Y-4.3563
M15
G01X6.9134Y-4.3051
M16
G05
T0
M30
