G04 #@! TF.GenerationSoftware,KiCad,Pcbnew,5.1.9-73d0e3b20d~88~ubuntu20.04.1*
G04 #@! TF.CreationDate,2021-02-01T03:30:19+09:00*
G04 #@! TF.ProjectId,ESP32DUALDIAL,45535033-3244-4554-914c-4449414c2e6b,rev?*
G04 #@! TF.SameCoordinates,Original*
G04 #@! TF.FileFunction,Legend,Top*
G04 #@! TF.FilePolarity,Positive*
%FSLAX46Y46*%
G04 Gerber Fmt 4.6, Leading zero omitted, Abs format (unit mm)*
G04 Created by KiCad (PCBNEW 5.1.9-73d0e3b20d~88~ubuntu20.04.1) date 2021-02-01 03:30:19*
%MOMM*%
%LPD*%
G01*
G04 APERTURE LIST*
%ADD10C,0.300000*%
%ADD11C,0.150000*%
%ADD12C,0.200000*%
%ADD13C,0.250000*%
%ADD14C,0.120000*%
G04 APERTURE END LIST*
D10*
X80930952Y-76195238D02*
X80930952Y-74576190D01*
X80835714Y-74385714D01*
X80740476Y-74290476D01*
X80550000Y-74195238D01*
X80169047Y-74195238D01*
X79978571Y-74290476D01*
X79883333Y-74385714D01*
X79788095Y-74576190D01*
X79788095Y-76195238D01*
X77692857Y-74195238D02*
X78359523Y-75147619D01*
X78835714Y-74195238D02*
X78835714Y-76195238D01*
X78073809Y-76195238D01*
X77883333Y-76100000D01*
X77788095Y-76004761D01*
X77692857Y-75814285D01*
X77692857Y-75528571D01*
X77788095Y-75338095D01*
X77883333Y-75242857D01*
X78073809Y-75147619D01*
X78835714Y-75147619D01*
X76835714Y-74195238D02*
X76835714Y-76195238D01*
X75692857Y-74195238D01*
X75692857Y-76195238D01*
X74740476Y-74957142D02*
X73216666Y-74957142D01*
X72454761Y-76195238D02*
X71121428Y-74195238D01*
X71121428Y-76195238D02*
X72454761Y-74195238D01*
X69121428Y-76195238D02*
X68454761Y-74195238D01*
X67788095Y-76195238D01*
X66169047Y-76195238D02*
X67121428Y-76195238D01*
X67216666Y-75242857D01*
X67121428Y-75338095D01*
X66930952Y-75433333D01*
X66454761Y-75433333D01*
X66264285Y-75338095D01*
X66169047Y-75242857D01*
X66073809Y-75052380D01*
X66073809Y-74576190D01*
X66169047Y-74385714D01*
X66264285Y-74290476D01*
X66454761Y-74195238D01*
X66930952Y-74195238D01*
X67121428Y-74290476D01*
X67216666Y-74385714D01*
D11*
X164361904Y-87152380D02*
X163790476Y-87152380D01*
X164076190Y-87152380D02*
X164076190Y-86152380D01*
X163980952Y-86295238D01*
X163885714Y-86390476D01*
X163790476Y-86438095D01*
X164980952Y-86152380D02*
X165076190Y-86152380D01*
X165171428Y-86200000D01*
X165219047Y-86247619D01*
X165266666Y-86342857D01*
X165314285Y-86533333D01*
X165314285Y-86771428D01*
X165266666Y-86961904D01*
X165219047Y-87057142D01*
X165171428Y-87104761D01*
X165076190Y-87152380D01*
X164980952Y-87152380D01*
X164885714Y-87104761D01*
X164838095Y-87057142D01*
X164790476Y-86961904D01*
X164742857Y-86771428D01*
X164742857Y-86533333D01*
X164790476Y-86342857D01*
X164838095Y-86247619D01*
X164885714Y-86200000D01*
X164980952Y-86152380D01*
X165742857Y-87152380D02*
X165742857Y-86152380D01*
X165838095Y-86771428D02*
X166123809Y-87152380D01*
X166123809Y-86485714D02*
X165742857Y-86866666D01*
X167219047Y-87152380D02*
X167742857Y-86485714D01*
X167219047Y-86485714D02*
X167742857Y-87152380D01*
X169314285Y-86485714D02*
X169314285Y-87152380D01*
X169076190Y-86104761D02*
X168838095Y-86819047D01*
X169457142Y-86819047D01*
X156011904Y-82002380D02*
X155440476Y-82002380D01*
X155726190Y-82002380D02*
X155726190Y-81002380D01*
X155630952Y-81145238D01*
X155535714Y-81240476D01*
X155440476Y-81288095D01*
X156630952Y-81002380D02*
X156726190Y-81002380D01*
X156821428Y-81050000D01*
X156869047Y-81097619D01*
X156916666Y-81192857D01*
X156964285Y-81383333D01*
X156964285Y-81621428D01*
X156916666Y-81811904D01*
X156869047Y-81907142D01*
X156821428Y-81954761D01*
X156726190Y-82002380D01*
X156630952Y-82002380D01*
X156535714Y-81954761D01*
X156488095Y-81907142D01*
X156440476Y-81811904D01*
X156392857Y-81621428D01*
X156392857Y-81383333D01*
X156440476Y-81192857D01*
X156488095Y-81097619D01*
X156535714Y-81050000D01*
X156630952Y-81002380D01*
X157392857Y-82002380D02*
X157392857Y-81002380D01*
X157488095Y-81621428D02*
X157773809Y-82002380D01*
X157773809Y-81335714D02*
X157392857Y-81716666D01*
X158869047Y-82002380D02*
X159392857Y-81335714D01*
X158869047Y-81335714D02*
X159392857Y-82002380D01*
X160440476Y-81002380D02*
X161059523Y-81002380D01*
X160726190Y-81383333D01*
X160869047Y-81383333D01*
X160964285Y-81430952D01*
X161011904Y-81478571D01*
X161059523Y-81573809D01*
X161059523Y-81811904D01*
X161011904Y-81907142D01*
X160964285Y-81954761D01*
X160869047Y-82002380D01*
X160583333Y-82002380D01*
X160488095Y-81954761D01*
X160440476Y-81907142D01*
X171419047Y-96497619D02*
X171466666Y-96450000D01*
X171561904Y-96402380D01*
X171800000Y-96402380D01*
X171895238Y-96450000D01*
X171942857Y-96497619D01*
X171990476Y-96592857D01*
X171990476Y-96688095D01*
X171942857Y-96830952D01*
X171371428Y-97402380D01*
X171990476Y-97402380D01*
X172323809Y-96402380D02*
X172990476Y-96402380D01*
X172561904Y-97402380D01*
X173561904Y-96402380D02*
X173657142Y-96402380D01*
X173752380Y-96450000D01*
X173800000Y-96497619D01*
X173847619Y-96592857D01*
X173895238Y-96783333D01*
X173895238Y-97021428D01*
X173847619Y-97211904D01*
X173800000Y-97307142D01*
X173752380Y-97354761D01*
X173657142Y-97402380D01*
X173561904Y-97402380D01*
X173466666Y-97354761D01*
X173419047Y-97307142D01*
X173371428Y-97211904D01*
X173323809Y-97021428D01*
X173323809Y-96783333D01*
X173371428Y-96592857D01*
X173419047Y-96497619D01*
X173466666Y-96450000D01*
X173561904Y-96402380D01*
X174990476Y-97402380D02*
X175514285Y-96735714D01*
X174990476Y-96735714D02*
X175514285Y-97402380D01*
X176561904Y-96402380D02*
X177180952Y-96402380D01*
X176847619Y-96783333D01*
X176990476Y-96783333D01*
X177085714Y-96830952D01*
X177133333Y-96878571D01*
X177180952Y-96973809D01*
X177180952Y-97211904D01*
X177133333Y-97307142D01*
X177085714Y-97354761D01*
X176990476Y-97402380D01*
X176704761Y-97402380D01*
X176609523Y-97354761D01*
X176561904Y-97307142D01*
X149428571Y-119952380D02*
X148857142Y-119952380D01*
X149142857Y-119952380D02*
X149142857Y-118952380D01*
X149047619Y-119095238D01*
X148952380Y-119190476D01*
X148857142Y-119238095D01*
X150047619Y-118952380D02*
X150142857Y-118952380D01*
X150238095Y-119000000D01*
X150285714Y-119047619D01*
X150333333Y-119142857D01*
X150380952Y-119333333D01*
X150380952Y-119571428D01*
X150333333Y-119761904D01*
X150285714Y-119857142D01*
X150238095Y-119904761D01*
X150142857Y-119952380D01*
X150047619Y-119952380D01*
X149952380Y-119904761D01*
X149904761Y-119857142D01*
X149857142Y-119761904D01*
X149809523Y-119571428D01*
X149809523Y-119333333D01*
X149857142Y-119142857D01*
X149904761Y-119047619D01*
X149952380Y-119000000D01*
X150047619Y-118952380D01*
X151000000Y-118952380D02*
X151095238Y-118952380D01*
X151190476Y-119000000D01*
X151238095Y-119047619D01*
X151285714Y-119142857D01*
X151333333Y-119333333D01*
X151333333Y-119571428D01*
X151285714Y-119761904D01*
X151238095Y-119857142D01*
X151190476Y-119904761D01*
X151095238Y-119952380D01*
X151000000Y-119952380D01*
X150904761Y-119904761D01*
X150857142Y-119857142D01*
X150809523Y-119761904D01*
X150761904Y-119571428D01*
X150761904Y-119333333D01*
X150809523Y-119142857D01*
X150857142Y-119047619D01*
X150904761Y-119000000D01*
X151000000Y-118952380D01*
X151761904Y-119952380D02*
X151761904Y-118952380D01*
X151857142Y-119571428D02*
X152142857Y-119952380D01*
X152142857Y-119285714D02*
X151761904Y-119666666D01*
X156361904Y-139300000D02*
X155561904Y-139300000D01*
X156361904Y-138842857D01*
X155561904Y-138842857D01*
X156361904Y-138461904D02*
X155561904Y-138461904D01*
X156133333Y-138195238D01*
X155561904Y-137928571D01*
X156361904Y-137928571D01*
X155561904Y-137395238D02*
X155561904Y-137242857D01*
X155600000Y-137166666D01*
X155676190Y-137090476D01*
X155828571Y-137052380D01*
X156095238Y-137052380D01*
X156247619Y-137090476D01*
X156323809Y-137166666D01*
X156361904Y-137242857D01*
X156361904Y-137395238D01*
X156323809Y-137471428D01*
X156247619Y-137547619D01*
X156095238Y-137585714D01*
X155828571Y-137585714D01*
X155676190Y-137547619D01*
X155600000Y-137471428D01*
X155561904Y-137395238D01*
X156323809Y-136747619D02*
X156361904Y-136633333D01*
X156361904Y-136442857D01*
X156323809Y-136366666D01*
X156285714Y-136328571D01*
X156209523Y-136290476D01*
X156133333Y-136290476D01*
X156057142Y-136328571D01*
X156019047Y-136366666D01*
X155980952Y-136442857D01*
X155942857Y-136595238D01*
X155904761Y-136671428D01*
X155866666Y-136709523D01*
X155790476Y-136747619D01*
X155714285Y-136747619D01*
X155638095Y-136709523D01*
X155600000Y-136671428D01*
X155561904Y-136595238D01*
X155561904Y-136404761D01*
X155600000Y-136290476D01*
X155600000Y-134919047D02*
X155561904Y-134995238D01*
X155561904Y-135109523D01*
X155600000Y-135223809D01*
X155676190Y-135300000D01*
X155752380Y-135338095D01*
X155904761Y-135376190D01*
X156019047Y-135376190D01*
X156171428Y-135338095D01*
X156247619Y-135300000D01*
X156323809Y-135223809D01*
X156361904Y-135109523D01*
X156361904Y-135033333D01*
X156323809Y-134919047D01*
X156285714Y-134880952D01*
X156019047Y-134880952D01*
X156019047Y-135033333D01*
X156361904Y-133319047D02*
X155561904Y-133319047D01*
X155561904Y-133128571D01*
X155600000Y-133014285D01*
X155676190Y-132938095D01*
X155752380Y-132900000D01*
X155904761Y-132861904D01*
X156019047Y-132861904D01*
X156171428Y-132900000D01*
X156247619Y-132938095D01*
X156323809Y-133014285D01*
X156361904Y-133128571D01*
X156361904Y-133319047D01*
X156323809Y-131338095D02*
X156361904Y-131223809D01*
X156361904Y-131033333D01*
X156323809Y-130957142D01*
X156285714Y-130919047D01*
X156209523Y-130880952D01*
X156133333Y-130880952D01*
X156057142Y-130919047D01*
X156019047Y-130957142D01*
X155980952Y-131033333D01*
X155942857Y-131185714D01*
X155904761Y-131261904D01*
X155866666Y-131300000D01*
X155790476Y-131338095D01*
X155714285Y-131338095D01*
X155638095Y-131300000D01*
X155600000Y-131261904D01*
X155561904Y-131185714D01*
X155561904Y-130995238D01*
X155600000Y-130880952D01*
X149000000Y-136500000D02*
X152750000Y-136500000D01*
X151500000Y-137250000D02*
X150500000Y-136500000D01*
X151500000Y-135750000D02*
X151500000Y-137250000D01*
X150250000Y-136500000D02*
X151500000Y-135750000D01*
X150250000Y-135750000D02*
X150250000Y-137250000D01*
X143785714Y-128452380D02*
X143214285Y-128452380D01*
X143500000Y-128452380D02*
X143500000Y-127452380D01*
X143404761Y-127595238D01*
X143309523Y-127690476D01*
X143214285Y-127738095D01*
X144404761Y-127452380D02*
X144500000Y-127452380D01*
X144595238Y-127500000D01*
X144642857Y-127547619D01*
X144690476Y-127642857D01*
X144738095Y-127833333D01*
X144738095Y-128071428D01*
X144690476Y-128261904D01*
X144642857Y-128357142D01*
X144595238Y-128404761D01*
X144500000Y-128452380D01*
X144404761Y-128452380D01*
X144309523Y-128404761D01*
X144261904Y-128357142D01*
X144214285Y-128261904D01*
X144166666Y-128071428D01*
X144166666Y-127833333D01*
X144214285Y-127642857D01*
X144261904Y-127547619D01*
X144309523Y-127500000D01*
X144404761Y-127452380D01*
X145595238Y-127785714D02*
X145595238Y-128452380D01*
X145166666Y-127785714D02*
X145166666Y-128309523D01*
X145214285Y-128404761D01*
X145309523Y-128452380D01*
X145452380Y-128452380D01*
X145547619Y-128404761D01*
X145595238Y-128357142D01*
X146404761Y-127928571D02*
X146071428Y-127928571D01*
X146071428Y-128452380D02*
X146071428Y-127452380D01*
X146547619Y-127452380D01*
X147595238Y-128452380D02*
X148119047Y-127785714D01*
X147595238Y-127785714D02*
X148119047Y-128452380D01*
X149214285Y-127547619D02*
X149261904Y-127500000D01*
X149357142Y-127452380D01*
X149595238Y-127452380D01*
X149690476Y-127500000D01*
X149738095Y-127547619D01*
X149785714Y-127642857D01*
X149785714Y-127738095D01*
X149738095Y-127880952D01*
X149166666Y-128452380D01*
X149785714Y-128452380D01*
X153297142Y-121721619D02*
X153344761Y-121674000D01*
X153440000Y-121626380D01*
X153678095Y-121626380D01*
X153773333Y-121674000D01*
X153820952Y-121721619D01*
X153868571Y-121816857D01*
X153868571Y-121912095D01*
X153820952Y-122054952D01*
X153249523Y-122626380D01*
X153868571Y-122626380D01*
X154487619Y-121626380D02*
X154582857Y-121626380D01*
X154678095Y-121674000D01*
X154725714Y-121721619D01*
X154773333Y-121816857D01*
X154820952Y-122007333D01*
X154820952Y-122245428D01*
X154773333Y-122435904D01*
X154725714Y-122531142D01*
X154678095Y-122578761D01*
X154582857Y-122626380D01*
X154487619Y-122626380D01*
X154392380Y-122578761D01*
X154344761Y-122531142D01*
X154297142Y-122435904D01*
X154249523Y-122245428D01*
X154249523Y-122007333D01*
X154297142Y-121816857D01*
X154344761Y-121721619D01*
X154392380Y-121674000D01*
X154487619Y-121626380D01*
X155249523Y-121959714D02*
X155249523Y-122959714D01*
X155249523Y-122007333D02*
X155344761Y-121959714D01*
X155535238Y-121959714D01*
X155630476Y-122007333D01*
X155678095Y-122054952D01*
X155725714Y-122150190D01*
X155725714Y-122435904D01*
X155678095Y-122531142D01*
X155630476Y-122578761D01*
X155535238Y-122626380D01*
X155344761Y-122626380D01*
X155249523Y-122578761D01*
X156487619Y-122102571D02*
X156154285Y-122102571D01*
X156154285Y-122626380D02*
X156154285Y-121626380D01*
X156630476Y-121626380D01*
X154761904Y-127706380D02*
X154190476Y-127706380D01*
X154476190Y-127706380D02*
X154476190Y-126706380D01*
X154380952Y-126849238D01*
X154285714Y-126944476D01*
X154190476Y-126992095D01*
X155190476Y-127706380D02*
X155190476Y-126706380D01*
X155285714Y-127325428D02*
X155571428Y-127706380D01*
X155571428Y-127039714D02*
X155190476Y-127420666D01*
X156000000Y-127325428D02*
X156761904Y-127325428D01*
X103300000Y-77985714D02*
X103300000Y-78652380D01*
X103061904Y-77604761D02*
X102823809Y-78319047D01*
X103442857Y-78319047D01*
X103823809Y-78557142D02*
X103871428Y-78604761D01*
X103823809Y-78652380D01*
X103776190Y-78604761D01*
X103823809Y-78557142D01*
X103823809Y-78652380D01*
X104204761Y-77652380D02*
X104871428Y-77652380D01*
X104442857Y-78652380D01*
X105252380Y-78271428D02*
X106014285Y-78271428D01*
X107014285Y-78652380D02*
X106442857Y-78652380D01*
X106728571Y-78652380D02*
X106728571Y-77652380D01*
X106633333Y-77795238D01*
X106538095Y-77890476D01*
X106442857Y-77938095D01*
X107633333Y-77652380D02*
X107728571Y-77652380D01*
X107823809Y-77700000D01*
X107871428Y-77747619D01*
X107919047Y-77842857D01*
X107966666Y-78033333D01*
X107966666Y-78271428D01*
X107919047Y-78461904D01*
X107871428Y-78557142D01*
X107823809Y-78604761D01*
X107728571Y-78652380D01*
X107633333Y-78652380D01*
X107538095Y-78604761D01*
X107490476Y-78557142D01*
X107442857Y-78461904D01*
X107395238Y-78271428D01*
X107395238Y-78033333D01*
X107442857Y-77842857D01*
X107490476Y-77747619D01*
X107538095Y-77700000D01*
X107633333Y-77652380D01*
X108395238Y-78652380D02*
X108395238Y-77652380D01*
X108490476Y-78271428D02*
X108776190Y-78652380D01*
X108776190Y-77985714D02*
X108395238Y-78366666D01*
X199652380Y-97395238D02*
X199652380Y-97966666D01*
X199652380Y-97680952D02*
X198652380Y-97680952D01*
X198795238Y-97776190D01*
X198890476Y-97871428D01*
X198938095Y-97966666D01*
X198652380Y-96776190D02*
X198652380Y-96680952D01*
X198700000Y-96585714D01*
X198747619Y-96538095D01*
X198842857Y-96490476D01*
X199033333Y-96442857D01*
X199271428Y-96442857D01*
X199461904Y-96490476D01*
X199557142Y-96538095D01*
X199604761Y-96585714D01*
X199652380Y-96680952D01*
X199652380Y-96776190D01*
X199604761Y-96871428D01*
X199557142Y-96919047D01*
X199461904Y-96966666D01*
X199271428Y-97014285D01*
X199033333Y-97014285D01*
X198842857Y-96966666D01*
X198747619Y-96919047D01*
X198700000Y-96871428D01*
X198652380Y-96776190D01*
X199652380Y-96014285D02*
X198652380Y-96014285D01*
X199271428Y-95919047D02*
X199652380Y-95633333D01*
X198985714Y-95633333D02*
X199366666Y-96014285D01*
X202652380Y-96671428D02*
X202652380Y-97242857D01*
X202652380Y-96957142D02*
X201652380Y-96957142D01*
X201795238Y-97052380D01*
X201890476Y-97147619D01*
X201938095Y-97242857D01*
X201652380Y-96052380D02*
X201652380Y-95957142D01*
X201700000Y-95861904D01*
X201747619Y-95814285D01*
X201842857Y-95766666D01*
X202033333Y-95719047D01*
X202271428Y-95719047D01*
X202461904Y-95766666D01*
X202557142Y-95814285D01*
X202604761Y-95861904D01*
X202652380Y-95957142D01*
X202652380Y-96052380D01*
X202604761Y-96147619D01*
X202557142Y-96195238D01*
X202461904Y-96242857D01*
X202271428Y-96290476D01*
X202033333Y-96290476D01*
X201842857Y-96242857D01*
X201747619Y-96195238D01*
X201700000Y-96147619D01*
X201652380Y-96052380D01*
X201985714Y-94861904D02*
X202652380Y-94861904D01*
X201985714Y-95290476D02*
X202509523Y-95290476D01*
X202604761Y-95242857D01*
X202652380Y-95147619D01*
X202652380Y-95004761D01*
X202604761Y-94909523D01*
X202557142Y-94861904D01*
X202128571Y-94052380D02*
X202128571Y-94385714D01*
X202652380Y-94385714D02*
X201652380Y-94385714D01*
X201652380Y-93909523D01*
D12*
X203652380Y-105085714D02*
X203652380Y-104990476D01*
X203700000Y-104895238D01*
X203747619Y-104847619D01*
X203842857Y-104800000D01*
X204033333Y-104752380D01*
X204271428Y-104752380D01*
X204461904Y-104800000D01*
X204557142Y-104847619D01*
X204604761Y-104895238D01*
X204652380Y-104990476D01*
X204652380Y-105085714D01*
X204604761Y-105180952D01*
X204557142Y-105228571D01*
X204461904Y-105276190D01*
X204271428Y-105323809D01*
X204033333Y-105323809D01*
X203842857Y-105276190D01*
X203747619Y-105228571D01*
X203700000Y-105180952D01*
X203652380Y-105085714D01*
X204557142Y-104323809D02*
X204604761Y-104276190D01*
X204652380Y-104323809D01*
X204604761Y-104371428D01*
X204557142Y-104323809D01*
X204652380Y-104323809D01*
X204652380Y-103323809D02*
X204652380Y-103895238D01*
X204652380Y-103609523D02*
X203652380Y-103609523D01*
X203795238Y-103704761D01*
X203890476Y-103800000D01*
X203938095Y-103895238D01*
X203985714Y-102466666D02*
X204652380Y-102466666D01*
X203985714Y-102895238D02*
X204509523Y-102895238D01*
X204604761Y-102847619D01*
X204652380Y-102752380D01*
X204652380Y-102609523D01*
X204604761Y-102514285D01*
X204557142Y-102466666D01*
X204128571Y-101657142D02*
X204128571Y-101990476D01*
X204652380Y-101990476D02*
X203652380Y-101990476D01*
X203652380Y-101514285D01*
X204652380Y-100466666D02*
X203985714Y-99942857D01*
X203985714Y-100466666D02*
X204652380Y-99942857D01*
X203747619Y-98847619D02*
X203700000Y-98800000D01*
X203652380Y-98704761D01*
X203652380Y-98466666D01*
X203700000Y-98371428D01*
X203747619Y-98323809D01*
X203842857Y-98276190D01*
X203938095Y-98276190D01*
X204080952Y-98323809D01*
X204652380Y-98895238D01*
X204652380Y-98276190D01*
D13*
X166464285Y-123202380D02*
X166559523Y-123202380D01*
X166654761Y-123250000D01*
X166702380Y-123297619D01*
X166750000Y-123392857D01*
X166797619Y-123583333D01*
X166797619Y-123821428D01*
X166750000Y-124011904D01*
X166702380Y-124107142D01*
X166654761Y-124154761D01*
X166559523Y-124202380D01*
X166464285Y-124202380D01*
X166369047Y-124154761D01*
X166321428Y-124107142D01*
X166273809Y-124011904D01*
X166226190Y-123821428D01*
X166226190Y-123583333D01*
X166273809Y-123392857D01*
X166321428Y-123297619D01*
X166369047Y-123250000D01*
X166464285Y-123202380D01*
X167226190Y-124107142D02*
X167273809Y-124154761D01*
X167226190Y-124202380D01*
X167178571Y-124154761D01*
X167226190Y-124107142D01*
X167226190Y-124202380D01*
X168226190Y-124202380D02*
X167654761Y-124202380D01*
X167940476Y-124202380D02*
X167940476Y-123202380D01*
X167845238Y-123345238D01*
X167750000Y-123440476D01*
X167654761Y-123488095D01*
X169083333Y-123535714D02*
X169083333Y-124202380D01*
X168654761Y-123535714D02*
X168654761Y-124059523D01*
X168702380Y-124154761D01*
X168797619Y-124202380D01*
X168940476Y-124202380D01*
X169035714Y-124154761D01*
X169083333Y-124107142D01*
X169892857Y-123678571D02*
X169559523Y-123678571D01*
X169559523Y-124202380D02*
X169559523Y-123202380D01*
X170035714Y-123202380D01*
X171083333Y-124202380D02*
X171607142Y-123535714D01*
X171083333Y-123535714D02*
X171607142Y-124202380D01*
X172702380Y-123297619D02*
X172750000Y-123250000D01*
X172845238Y-123202380D01*
X173083333Y-123202380D01*
X173178571Y-123250000D01*
X173226190Y-123297619D01*
X173273809Y-123392857D01*
X173273809Y-123488095D01*
X173226190Y-123630952D01*
X172654761Y-124202380D01*
X173273809Y-124202380D01*
X85771428Y-88147619D02*
X85819047Y-88100000D01*
X85914285Y-88052380D01*
X86152380Y-88052380D01*
X86247619Y-88100000D01*
X86295238Y-88147619D01*
X86342857Y-88242857D01*
X86342857Y-88338095D01*
X86295238Y-88480952D01*
X85723809Y-89052380D01*
X86342857Y-89052380D01*
X86676190Y-88052380D02*
X87342857Y-88052380D01*
X86914285Y-89052380D01*
X87914285Y-88052380D02*
X88009523Y-88052380D01*
X88104761Y-88100000D01*
X88152380Y-88147619D01*
X88200000Y-88242857D01*
X88247619Y-88433333D01*
X88247619Y-88671428D01*
X88200000Y-88861904D01*
X88152380Y-88957142D01*
X88104761Y-89004761D01*
X88009523Y-89052380D01*
X87914285Y-89052380D01*
X87819047Y-89004761D01*
X87771428Y-88957142D01*
X87723809Y-88861904D01*
X87676190Y-88671428D01*
X87676190Y-88433333D01*
X87723809Y-88242857D01*
X87771428Y-88147619D01*
X87819047Y-88100000D01*
X87914285Y-88052380D01*
X88676190Y-88671428D02*
X89438095Y-88671428D01*
X90342857Y-88385714D02*
X90342857Y-89052380D01*
X90104761Y-88004761D02*
X89866666Y-88719047D01*
X90485714Y-88719047D01*
X90771428Y-88052380D02*
X91438095Y-88052380D01*
X91009523Y-89052380D01*
X92009523Y-88052380D02*
X92104761Y-88052380D01*
X92200000Y-88100000D01*
X92247619Y-88147619D01*
X92295238Y-88242857D01*
X92342857Y-88433333D01*
X92342857Y-88671428D01*
X92295238Y-88861904D01*
X92247619Y-88957142D01*
X92200000Y-89004761D01*
X92104761Y-89052380D01*
X92009523Y-89052380D01*
X91914285Y-89004761D01*
X91866666Y-88957142D01*
X91819047Y-88861904D01*
X91771428Y-88671428D01*
X91771428Y-88433333D01*
X91819047Y-88242857D01*
X91866666Y-88147619D01*
X91914285Y-88100000D01*
X92009523Y-88052380D01*
X93438095Y-89052380D02*
X93961904Y-88385714D01*
X93438095Y-88385714D02*
X93961904Y-89052380D01*
X95009523Y-88052380D02*
X95676190Y-88052380D01*
X95247619Y-89052380D01*
X69652380Y-96485714D02*
X69652380Y-96390476D01*
X69700000Y-96295238D01*
X69747619Y-96247619D01*
X69842857Y-96200000D01*
X70033333Y-96152380D01*
X70271428Y-96152380D01*
X70461904Y-96200000D01*
X70557142Y-96247619D01*
X70604761Y-96295238D01*
X70652380Y-96390476D01*
X70652380Y-96485714D01*
X70604761Y-96580952D01*
X70557142Y-96628571D01*
X70461904Y-96676190D01*
X70271428Y-96723809D01*
X70033333Y-96723809D01*
X69842857Y-96676190D01*
X69747619Y-96628571D01*
X69700000Y-96580952D01*
X69652380Y-96485714D01*
X70557142Y-95723809D02*
X70604761Y-95676190D01*
X70652380Y-95723809D01*
X70604761Y-95771428D01*
X70557142Y-95723809D01*
X70652380Y-95723809D01*
X70652380Y-94723809D02*
X70652380Y-95295238D01*
X70652380Y-95009523D02*
X69652380Y-95009523D01*
X69795238Y-95104761D01*
X69890476Y-95200000D01*
X69938095Y-95295238D01*
X69985714Y-93866666D02*
X70652380Y-93866666D01*
X69985714Y-94295238D02*
X70509523Y-94295238D01*
X70604761Y-94247619D01*
X70652380Y-94152380D01*
X70652380Y-94009523D01*
X70604761Y-93914285D01*
X70557142Y-93866666D01*
X70128571Y-93057142D02*
X70128571Y-93390476D01*
X70652380Y-93390476D02*
X69652380Y-93390476D01*
X69652380Y-92914285D01*
X70652380Y-91866666D02*
X69985714Y-91342857D01*
X69985714Y-91866666D02*
X70652380Y-91342857D01*
X69652380Y-90295238D02*
X69652380Y-89676190D01*
X70033333Y-90009523D01*
X70033333Y-89866666D01*
X70080952Y-89771428D01*
X70128571Y-89723809D01*
X70223809Y-89676190D01*
X70461904Y-89676190D01*
X70557142Y-89723809D01*
X70604761Y-89771428D01*
X70652380Y-89866666D01*
X70652380Y-90152380D01*
X70604761Y-90247619D01*
X70557142Y-90295238D01*
D11*
X186259109Y-119329970D02*
X194574025Y-115885819D01*
X188555210Y-124873247D02*
X186259109Y-119329970D01*
X205185042Y-117984946D02*
X188555210Y-124873247D01*
X202888941Y-112441668D02*
X205185042Y-117984946D01*
X194574025Y-115885819D02*
X202888941Y-112441668D01*
X178796782Y-101314319D02*
X186259109Y-119329970D01*
X195426614Y-94426018D02*
X178796782Y-101314319D01*
X202888941Y-112441668D02*
X195426614Y-94426018D01*
D14*
X162600000Y-137500000D02*
X162600000Y-82500000D01*
X162600000Y-82500000D02*
X73300000Y-82500000D01*
X73300000Y-82500000D02*
X73300000Y-137500000D01*
X73300000Y-137500000D02*
X162600000Y-137500000D01*
X156800000Y-137500000D02*
X156800000Y-82500000D01*
X79100000Y-137500000D02*
X79100000Y-82500000D01*
X82600000Y-85700000D02*
X82600000Y-134300000D01*
X147400000Y-85700000D02*
X147400000Y-134300000D01*
X147400000Y-85700000D02*
X82600000Y-85700000D01*
X82600000Y-134300000D02*
X147400000Y-134300000D01*
X202272500Y-101937742D02*
X202272500Y-102412258D01*
X201227500Y-101937742D02*
X201227500Y-102412258D01*
X203272500Y-106237258D02*
X203272500Y-105762742D01*
X202227500Y-106237258D02*
X202227500Y-105762742D01*
X202360000Y-98372164D02*
X202360000Y-98587836D01*
X201640000Y-98372164D02*
X201640000Y-98587836D01*
X155196164Y-123780000D02*
X155411836Y-123780000D01*
X155196164Y-123060000D02*
X155411836Y-123060000D01*
X150146000Y-131753000D02*
X151656000Y-131753000D01*
X150146000Y-135454000D02*
X151656000Y-135454000D01*
X151656000Y-138724000D02*
X151656000Y-128484000D01*
X150146000Y-128484000D02*
X154787000Y-128484000D01*
X150146000Y-138724000D02*
X154787000Y-138724000D01*
X154787000Y-138724000D02*
X154787000Y-128484000D01*
X150146000Y-138724000D02*
X150146000Y-128484000D01*
X105412258Y-80477500D02*
X104937742Y-80477500D01*
X105412258Y-81522500D02*
X104937742Y-81522500D01*
X201272500Y-97937742D02*
X201272500Y-98412258D01*
X200227500Y-97937742D02*
X200227500Y-98412258D01*
X170972500Y-87237258D02*
X170972500Y-86762742D01*
X169927500Y-87237258D02*
X169927500Y-86762742D01*
X89477500Y-85262742D02*
X89477500Y-85737258D01*
X90522500Y-85262742D02*
X90522500Y-85737258D01*
X88022500Y-85262742D02*
X88022500Y-85737258D01*
X86977500Y-85262742D02*
X86977500Y-85737258D01*
X84477500Y-85262742D02*
X84477500Y-85737258D01*
X85522500Y-85262742D02*
X85522500Y-85737258D01*
X83022500Y-85237742D02*
X83022500Y-85712258D01*
X81977500Y-85237742D02*
X81977500Y-85712258D01*
X155121742Y-126342500D02*
X155596258Y-126342500D01*
X155121742Y-125297500D02*
X155596258Y-125297500D01*
X150437742Y-121522500D02*
X150912258Y-121522500D01*
X150437742Y-120477500D02*
X150912258Y-120477500D01*
X173000000Y-110000000D02*
G75*
G03*
X173000000Y-110000000I-3000000J0D01*
G01*
X164100000Y-108000000D02*
X164100000Y-103900000D01*
X175900000Y-103900000D02*
X175900000Y-108000000D01*
X175900000Y-112000000D02*
X175900000Y-116100000D01*
X164100000Y-112000000D02*
X164100000Y-116100000D01*
X164100000Y-116100000D02*
X175900000Y-116100000D01*
X166200000Y-117500000D02*
X165900000Y-117800000D01*
X165900000Y-117800000D02*
X165900000Y-117200000D01*
X165900000Y-117200000D02*
X166200000Y-117500000D01*
X164100000Y-103900000D02*
X166500000Y-103900000D01*
X168700000Y-103900000D02*
X171300000Y-103900000D01*
X173500000Y-103900000D02*
X175900000Y-103900000D01*
X169500000Y-110000000D02*
X170500000Y-110000000D01*
X170000000Y-110500000D02*
X170000000Y-109500000D01*
X60000000Y-110500000D02*
X60000000Y-109500000D01*
X59500000Y-110000000D02*
X60500000Y-110000000D01*
X63500000Y-103900000D02*
X65900000Y-103900000D01*
X58700000Y-103900000D02*
X61300000Y-103900000D01*
X54100000Y-103900000D02*
X56500000Y-103900000D01*
X55900000Y-117200000D02*
X56200000Y-117500000D01*
X55900000Y-117800000D02*
X55900000Y-117200000D01*
X56200000Y-117500000D02*
X55900000Y-117800000D01*
X54100000Y-116100000D02*
X65900000Y-116100000D01*
X54100000Y-112000000D02*
X54100000Y-116100000D01*
X65900000Y-112000000D02*
X65900000Y-116100000D01*
X65900000Y-103900000D02*
X65900000Y-108000000D01*
X54100000Y-108000000D02*
X54100000Y-103900000D01*
X63000000Y-110000000D02*
G75*
G03*
X63000000Y-110000000I-3000000J0D01*
G01*
X152200000Y-93600000D02*
X152200000Y-96400000D01*
X152200000Y-96400000D02*
X150200000Y-96400000D01*
X150200000Y-96400000D02*
X150200000Y-93600000D01*
X150200000Y-93600000D02*
X152200000Y-93600000D01*
X148800000Y-93500000D02*
X148800000Y-96300000D01*
X148100000Y-96950000D02*
X147500000Y-96950000D01*
X146800000Y-96300000D02*
X146800000Y-93500000D01*
X147500000Y-92850000D02*
X148100000Y-92850000D01*
X148800000Y-96250000D02*
G75*
G02*
X148100000Y-96950000I-700000J0D01*
G01*
X147500000Y-96950000D02*
G75*
G02*
X146800000Y-96250000I0J700000D01*
G01*
X146800000Y-93550000D02*
G75*
G02*
X147500000Y-92850000I700000J0D01*
G01*
X148100000Y-92850000D02*
G75*
G02*
X148800000Y-93550000I0J-700000D01*
G01*
X155522500Y-92837258D02*
X155522500Y-92362742D01*
X154477500Y-92837258D02*
X154477500Y-92362742D01*
X170153329Y-96247925D02*
X169050663Y-89994396D01*
X176406859Y-95145259D02*
X170153329Y-96247925D01*
X175304193Y-88891730D02*
X176406859Y-95145259D01*
X169050663Y-89994396D02*
X175304193Y-88891730D01*
X175568568Y-92569827D02*
G75*
G03*
X175568568Y-92569827I-2839807J0D01*
G01*
X184300824Y-95293299D02*
G75*
G03*
X184300824Y-95293299I-1419903J0D01*
G01*
X183323514Y-86832911D02*
X163312220Y-90361442D01*
X185087780Y-96838558D02*
X183323514Y-86832911D01*
X165076486Y-100367089D02*
X185087780Y-96838558D01*
X163312220Y-90361442D02*
X165076486Y-100367089D01*
X164637258Y-103322500D02*
X164162742Y-103322500D01*
X164637258Y-102277500D02*
X164162742Y-102277500D01*
X70412258Y-104977500D02*
X69937742Y-104977500D01*
X70412258Y-106022500D02*
X69937742Y-106022500D01*
X70412258Y-102922500D02*
X69937742Y-102922500D01*
X70412258Y-101877500D02*
X69937742Y-101877500D01*
X168062742Y-121122500D02*
X168537258Y-121122500D01*
X168062742Y-120077500D02*
X168537258Y-120077500D01*
X172137258Y-120077500D02*
X171662742Y-120077500D01*
X172137258Y-121122500D02*
X171662742Y-121122500D01*
X149412164Y-124172000D02*
X149627836Y-124172000D01*
X149412164Y-124892000D02*
X149627836Y-124892000D01*
X149627836Y-125950000D02*
X149412164Y-125950000D01*
X149627836Y-126670000D02*
X149412164Y-126670000D01*
X133300000Y-139500000D02*
X137150000Y-139500000D01*
X133300000Y-141500000D02*
X137150000Y-141500000D01*
X133300000Y-139500000D02*
X133300000Y-141500000D01*
X69962742Y-100322500D02*
X70437258Y-100322500D01*
X69962742Y-99277500D02*
X70437258Y-99277500D01*
X144000000Y-94500000D02*
X144000000Y-124500000D01*
X144000000Y-124500000D02*
X126000000Y-124500000D01*
X126000000Y-124500000D02*
X126000000Y-94500000D01*
X126000000Y-94500000D02*
X144000000Y-94500000D01*
X144000000Y-94500000D02*
X144000000Y-124500000D01*
X141000000Y-101500000D02*
X141000000Y-102500000D01*
X141000000Y-102500000D02*
X143000000Y-102500000D01*
X143000000Y-102500000D02*
X143000000Y-101500000D01*
X143000000Y-101500000D02*
X141000000Y-101500000D01*
X126000000Y-105500000D02*
X137000000Y-105500000D01*
X137000000Y-105500000D02*
X137000000Y-115500000D01*
X137000000Y-115500000D02*
X126000000Y-115500000D01*
X159850000Y-140100000D02*
X159850000Y-146150000D01*
X159850000Y-146150000D02*
X152050000Y-146150000D01*
X152050000Y-146150000D02*
X152050000Y-140100000D01*
X152050000Y-140100000D02*
X159850000Y-140100000D01*
X158500000Y-140200000D02*
X158500000Y-141210000D01*
X158500000Y-141210000D02*
X153420000Y-141210000D01*
X153420000Y-141210000D02*
X153420000Y-140200000D01*
X141920000Y-141210000D02*
X141920000Y-140200000D01*
X147000000Y-141210000D02*
X141920000Y-141210000D01*
X147000000Y-140200000D02*
X147000000Y-141210000D01*
X140550000Y-140100000D02*
X148350000Y-140100000D01*
X140550000Y-146150000D02*
X140550000Y-140100000D01*
X148350000Y-146150000D02*
X140550000Y-146150000D01*
X148350000Y-140100000D02*
X148350000Y-146150000D01*
X169937742Y-101072500D02*
X170412258Y-101072500D01*
X169937742Y-100027500D02*
X170412258Y-100027500D01*
X173712742Y-100372500D02*
X174187258Y-100372500D01*
X173712742Y-99327500D02*
X174187258Y-99327500D01*
X93677500Y-86437258D02*
X93677500Y-85962742D01*
X94722500Y-86437258D02*
X94722500Y-85962742D01*
X97322500Y-86412258D02*
X97322500Y-85937742D01*
X96277500Y-86412258D02*
X96277500Y-85937742D01*
X98877500Y-86437258D02*
X98877500Y-85962742D01*
X99922500Y-86437258D02*
X99922500Y-85962742D01*
X173422500Y-86712742D02*
X173422500Y-87187258D01*
X172377500Y-86712742D02*
X172377500Y-87187258D01*
X177177500Y-86712742D02*
X177177500Y-87187258D01*
X178222500Y-86712742D02*
X178222500Y-87187258D01*
X158512742Y-80272500D02*
X158987258Y-80272500D01*
X158512742Y-79227500D02*
X158987258Y-79227500D01*
X175822500Y-86762742D02*
X175822500Y-87237258D01*
X174777500Y-86762742D02*
X174777500Y-87237258D01*
X162562742Y-79177500D02*
X163037258Y-79177500D01*
X162562742Y-80222500D02*
X163037258Y-80222500D01*
X154562742Y-80272500D02*
X155037258Y-80272500D01*
X154562742Y-79227500D02*
X155037258Y-79227500D01*
X177362742Y-99722500D02*
X177837258Y-99722500D01*
X177362742Y-98677500D02*
X177837258Y-98677500D01*
D11*
X196339336Y-122138610D02*
X196649127Y-122886512D01*
X196729567Y-122956278D01*
X196791784Y-122982049D01*
X196897996Y-122989597D01*
X197073973Y-122916705D01*
X197143739Y-122836265D01*
X197169510Y-122774048D01*
X197177058Y-122667836D01*
X196867267Y-121919934D01*
X197299661Y-121843915D02*
X197325432Y-121781698D01*
X197395198Y-121701257D01*
X197615169Y-121610142D01*
X197721381Y-121617690D01*
X197783598Y-121643462D01*
X197864038Y-121713227D01*
X197900484Y-121801216D01*
X197911159Y-121951422D01*
X197601904Y-122698029D01*
X198173830Y-122461130D01*
X116598095Y-139932380D02*
X116598095Y-140741904D01*
X116645714Y-140837142D01*
X116693333Y-140884761D01*
X116788571Y-140932380D01*
X116979047Y-140932380D01*
X117074285Y-140884761D01*
X117121904Y-140837142D01*
X117169523Y-140741904D01*
X117169523Y-139932380D01*
X118169523Y-140932380D02*
X117598095Y-140932380D01*
X117883809Y-140932380D02*
X117883809Y-139932380D01*
X117788571Y-140075238D01*
X117693333Y-140170476D01*
X117598095Y-140218095D01*
X200757142Y-102166666D02*
X200804761Y-102214285D01*
X200852380Y-102357142D01*
X200852380Y-102452380D01*
X200804761Y-102595238D01*
X200709523Y-102690476D01*
X200614285Y-102738095D01*
X200423809Y-102785714D01*
X200280952Y-102785714D01*
X200090476Y-102738095D01*
X199995238Y-102690476D01*
X199900000Y-102595238D01*
X199852380Y-102452380D01*
X199852380Y-102357142D01*
X199900000Y-102214285D01*
X199947619Y-102166666D01*
X200852380Y-101214285D02*
X200852380Y-101785714D01*
X200852380Y-101500000D02*
X199852380Y-101500000D01*
X199995238Y-101595238D01*
X200090476Y-101690476D01*
X200138095Y-101785714D01*
X201757142Y-104966666D02*
X201804761Y-105014285D01*
X201852380Y-105157142D01*
X201852380Y-105252380D01*
X201804761Y-105395238D01*
X201709523Y-105490476D01*
X201614285Y-105538095D01*
X201423809Y-105585714D01*
X201280952Y-105585714D01*
X201090476Y-105538095D01*
X200995238Y-105490476D01*
X200900000Y-105395238D01*
X200852380Y-105252380D01*
X200852380Y-105157142D01*
X200900000Y-105014285D01*
X200947619Y-104966666D01*
X200947619Y-104585714D02*
X200900000Y-104538095D01*
X200852380Y-104442857D01*
X200852380Y-104204761D01*
X200900000Y-104109523D01*
X200947619Y-104061904D01*
X201042857Y-104014285D01*
X201138095Y-104014285D01*
X201280952Y-104061904D01*
X201852380Y-104633333D01*
X201852380Y-104014285D01*
X203517142Y-98646666D02*
X203564761Y-98694285D01*
X203612380Y-98837142D01*
X203612380Y-98932380D01*
X203564761Y-99075238D01*
X203469523Y-99170476D01*
X203374285Y-99218095D01*
X203183809Y-99265714D01*
X203040952Y-99265714D01*
X202850476Y-99218095D01*
X202755238Y-99170476D01*
X202660000Y-99075238D01*
X202612380Y-98932380D01*
X202612380Y-98837142D01*
X202660000Y-98694285D01*
X202707619Y-98646666D01*
X202612380Y-98313333D02*
X202612380Y-97694285D01*
X202993333Y-98027619D01*
X202993333Y-97884761D01*
X203040952Y-97789523D01*
X203088571Y-97741904D01*
X203183809Y-97694285D01*
X203421904Y-97694285D01*
X203517142Y-97741904D01*
X203564761Y-97789523D01*
X203612380Y-97884761D01*
X203612380Y-98170476D01*
X203564761Y-98265714D01*
X203517142Y-98313333D01*
X152617333Y-123977142D02*
X152569714Y-124024761D01*
X152426857Y-124072380D01*
X152331619Y-124072380D01*
X152188761Y-124024761D01*
X152093523Y-123929523D01*
X152045904Y-123834285D01*
X151998285Y-123643809D01*
X151998285Y-123500952D01*
X152045904Y-123310476D01*
X152093523Y-123215238D01*
X152188761Y-123120000D01*
X152331619Y-123072380D01*
X152426857Y-123072380D01*
X152569714Y-123120000D01*
X152617333Y-123167619D01*
X153474476Y-123072380D02*
X153284000Y-123072380D01*
X153188761Y-123120000D01*
X153141142Y-123167619D01*
X153045904Y-123310476D01*
X152998285Y-123500952D01*
X152998285Y-123881904D01*
X153045904Y-123977142D01*
X153093523Y-124024761D01*
X153188761Y-124072380D01*
X153379238Y-124072380D01*
X153474476Y-124024761D01*
X153522095Y-123977142D01*
X153569714Y-123881904D01*
X153569714Y-123643809D01*
X153522095Y-123548571D01*
X153474476Y-123500952D01*
X153379238Y-123453333D01*
X153188761Y-123453333D01*
X153093523Y-123500952D01*
X153045904Y-123548571D01*
X152998285Y-123643809D01*
X149693619Y-133699238D02*
X149646000Y-133794476D01*
X149550761Y-133889714D01*
X149407904Y-134032571D01*
X149360285Y-134127809D01*
X149360285Y-134223047D01*
X149598380Y-134175428D02*
X149550761Y-134270666D01*
X149455523Y-134365904D01*
X149265047Y-134413523D01*
X148931714Y-134413523D01*
X148741238Y-134365904D01*
X148646000Y-134270666D01*
X148598380Y-134175428D01*
X148598380Y-133984952D01*
X148646000Y-133889714D01*
X148741238Y-133794476D01*
X148931714Y-133746857D01*
X149265047Y-133746857D01*
X149455523Y-133794476D01*
X149550761Y-133889714D01*
X149598380Y-133984952D01*
X149598380Y-134175428D01*
X149598380Y-132794476D02*
X149598380Y-133365904D01*
X149598380Y-133080190D02*
X148598380Y-133080190D01*
X148741238Y-133175428D01*
X148836476Y-133270666D01*
X148884095Y-133365904D01*
X105008333Y-82882380D02*
X104675000Y-82406190D01*
X104436904Y-82882380D02*
X104436904Y-81882380D01*
X104817857Y-81882380D01*
X104913095Y-81930000D01*
X104960714Y-81977619D01*
X105008333Y-82072857D01*
X105008333Y-82215714D01*
X104960714Y-82310952D01*
X104913095Y-82358571D01*
X104817857Y-82406190D01*
X104436904Y-82406190D01*
X105960714Y-82882380D02*
X105389285Y-82882380D01*
X105675000Y-82882380D02*
X105675000Y-81882380D01*
X105579761Y-82025238D01*
X105484523Y-82120476D01*
X105389285Y-82168095D01*
X201202380Y-95666666D02*
X200726190Y-96000000D01*
X201202380Y-96238095D02*
X200202380Y-96238095D01*
X200202380Y-95857142D01*
X200250000Y-95761904D01*
X200297619Y-95714285D01*
X200392857Y-95666666D01*
X200535714Y-95666666D01*
X200630952Y-95714285D01*
X200678571Y-95761904D01*
X200726190Y-95857142D01*
X200726190Y-96238095D01*
X200297619Y-95285714D02*
X200250000Y-95238095D01*
X200202380Y-95142857D01*
X200202380Y-94904761D01*
X200250000Y-94809523D01*
X200297619Y-94761904D01*
X200392857Y-94714285D01*
X200488095Y-94714285D01*
X200630952Y-94761904D01*
X201202380Y-95333333D01*
X201202380Y-94714285D01*
X172152380Y-87066666D02*
X171676190Y-87400000D01*
X172152380Y-87638095D02*
X171152380Y-87638095D01*
X171152380Y-87257142D01*
X171200000Y-87161904D01*
X171247619Y-87114285D01*
X171342857Y-87066666D01*
X171485714Y-87066666D01*
X171580952Y-87114285D01*
X171628571Y-87161904D01*
X171676190Y-87257142D01*
X171676190Y-87638095D01*
X171152380Y-86733333D02*
X171152380Y-86114285D01*
X171533333Y-86447619D01*
X171533333Y-86304761D01*
X171580952Y-86209523D01*
X171628571Y-86161904D01*
X171723809Y-86114285D01*
X171961904Y-86114285D01*
X172057142Y-86161904D01*
X172104761Y-86209523D01*
X172152380Y-86304761D01*
X172152380Y-86590476D01*
X172104761Y-86685714D01*
X172057142Y-86733333D01*
X91882380Y-85666666D02*
X91406190Y-86000000D01*
X91882380Y-86238095D02*
X90882380Y-86238095D01*
X90882380Y-85857142D01*
X90930000Y-85761904D01*
X90977619Y-85714285D01*
X91072857Y-85666666D01*
X91215714Y-85666666D01*
X91310952Y-85714285D01*
X91358571Y-85761904D01*
X91406190Y-85857142D01*
X91406190Y-86238095D01*
X90882380Y-84761904D02*
X90882380Y-85238095D01*
X91358571Y-85285714D01*
X91310952Y-85238095D01*
X91263333Y-85142857D01*
X91263333Y-84904761D01*
X91310952Y-84809523D01*
X91358571Y-84761904D01*
X91453809Y-84714285D01*
X91691904Y-84714285D01*
X91787142Y-84761904D01*
X91834761Y-84809523D01*
X91882380Y-84904761D01*
X91882380Y-85142857D01*
X91834761Y-85238095D01*
X91787142Y-85285714D01*
X89382380Y-85666666D02*
X88906190Y-86000000D01*
X89382380Y-86238095D02*
X88382380Y-86238095D01*
X88382380Y-85857142D01*
X88430000Y-85761904D01*
X88477619Y-85714285D01*
X88572857Y-85666666D01*
X88715714Y-85666666D01*
X88810952Y-85714285D01*
X88858571Y-85761904D01*
X88906190Y-85857142D01*
X88906190Y-86238095D01*
X88382380Y-84809523D02*
X88382380Y-85000000D01*
X88430000Y-85095238D01*
X88477619Y-85142857D01*
X88620476Y-85238095D01*
X88810952Y-85285714D01*
X89191904Y-85285714D01*
X89287142Y-85238095D01*
X89334761Y-85190476D01*
X89382380Y-85095238D01*
X89382380Y-84904761D01*
X89334761Y-84809523D01*
X89287142Y-84761904D01*
X89191904Y-84714285D01*
X88953809Y-84714285D01*
X88858571Y-84761904D01*
X88810952Y-84809523D01*
X88763333Y-84904761D01*
X88763333Y-85095238D01*
X88810952Y-85190476D01*
X88858571Y-85238095D01*
X88953809Y-85285714D01*
X86882380Y-85666666D02*
X86406190Y-86000000D01*
X86882380Y-86238095D02*
X85882380Y-86238095D01*
X85882380Y-85857142D01*
X85930000Y-85761904D01*
X85977619Y-85714285D01*
X86072857Y-85666666D01*
X86215714Y-85666666D01*
X86310952Y-85714285D01*
X86358571Y-85761904D01*
X86406190Y-85857142D01*
X86406190Y-86238095D01*
X85882380Y-85333333D02*
X85882380Y-84666666D01*
X86882380Y-85095238D01*
X84382380Y-85641666D02*
X83906190Y-85975000D01*
X84382380Y-86213095D02*
X83382380Y-86213095D01*
X83382380Y-85832142D01*
X83430000Y-85736904D01*
X83477619Y-85689285D01*
X83572857Y-85641666D01*
X83715714Y-85641666D01*
X83810952Y-85689285D01*
X83858571Y-85736904D01*
X83906190Y-85832142D01*
X83906190Y-86213095D01*
X83810952Y-85070238D02*
X83763333Y-85165476D01*
X83715714Y-85213095D01*
X83620476Y-85260714D01*
X83572857Y-85260714D01*
X83477619Y-85213095D01*
X83430000Y-85165476D01*
X83382380Y-85070238D01*
X83382380Y-84879761D01*
X83430000Y-84784523D01*
X83477619Y-84736904D01*
X83572857Y-84689285D01*
X83620476Y-84689285D01*
X83715714Y-84736904D01*
X83763333Y-84784523D01*
X83810952Y-84879761D01*
X83810952Y-85070238D01*
X83858571Y-85165476D01*
X83906190Y-85213095D01*
X84001428Y-85260714D01*
X84191904Y-85260714D01*
X84287142Y-85213095D01*
X84334761Y-85165476D01*
X84382380Y-85070238D01*
X84382380Y-84879761D01*
X84334761Y-84784523D01*
X84287142Y-84736904D01*
X84191904Y-84689285D01*
X84001428Y-84689285D01*
X83906190Y-84736904D01*
X83858571Y-84784523D01*
X83810952Y-84879761D01*
X152617333Y-126272380D02*
X152284000Y-125796190D01*
X152045904Y-126272380D02*
X152045904Y-125272380D01*
X152426857Y-125272380D01*
X152522095Y-125320000D01*
X152569714Y-125367619D01*
X152617333Y-125462857D01*
X152617333Y-125605714D01*
X152569714Y-125700952D01*
X152522095Y-125748571D01*
X152426857Y-125796190D01*
X152045904Y-125796190D01*
X153093523Y-126272380D02*
X153284000Y-126272380D01*
X153379238Y-126224761D01*
X153426857Y-126177142D01*
X153522095Y-126034285D01*
X153569714Y-125843809D01*
X153569714Y-125462857D01*
X153522095Y-125367619D01*
X153474476Y-125320000D01*
X153379238Y-125272380D01*
X153188761Y-125272380D01*
X153093523Y-125320000D01*
X153045904Y-125367619D01*
X152998285Y-125462857D01*
X152998285Y-125700952D01*
X153045904Y-125796190D01*
X153093523Y-125843809D01*
X153188761Y-125891428D01*
X153379238Y-125891428D01*
X153474476Y-125843809D01*
X153522095Y-125796190D01*
X153569714Y-125700952D01*
X146857142Y-121452380D02*
X146523809Y-120976190D01*
X146285714Y-121452380D02*
X146285714Y-120452380D01*
X146666666Y-120452380D01*
X146761904Y-120500000D01*
X146809523Y-120547619D01*
X146857142Y-120642857D01*
X146857142Y-120785714D01*
X146809523Y-120880952D01*
X146761904Y-120928571D01*
X146666666Y-120976190D01*
X146285714Y-120976190D01*
X147809523Y-121452380D02*
X147238095Y-121452380D01*
X147523809Y-121452380D02*
X147523809Y-120452380D01*
X147428571Y-120595238D01*
X147333333Y-120690476D01*
X147238095Y-120738095D01*
X148428571Y-120452380D02*
X148523809Y-120452380D01*
X148619047Y-120500000D01*
X148666666Y-120547619D01*
X148714285Y-120642857D01*
X148761904Y-120833333D01*
X148761904Y-121071428D01*
X148714285Y-121261904D01*
X148666666Y-121357142D01*
X148619047Y-121404761D01*
X148523809Y-121452380D01*
X148428571Y-121452380D01*
X148333333Y-121404761D01*
X148285714Y-121357142D01*
X148238095Y-121261904D01*
X148190476Y-121071428D01*
X148190476Y-120833333D01*
X148238095Y-120642857D01*
X148285714Y-120547619D01*
X148333333Y-120500000D01*
X148428571Y-120452380D01*
X174166666Y-118054761D02*
X174309523Y-118102380D01*
X174547619Y-118102380D01*
X174642857Y-118054761D01*
X174690476Y-118007142D01*
X174738095Y-117911904D01*
X174738095Y-117816666D01*
X174690476Y-117721428D01*
X174642857Y-117673809D01*
X174547619Y-117626190D01*
X174357142Y-117578571D01*
X174261904Y-117530952D01*
X174214285Y-117483333D01*
X174166666Y-117388095D01*
X174166666Y-117292857D01*
X174214285Y-117197619D01*
X174261904Y-117150000D01*
X174357142Y-117102380D01*
X174595238Y-117102380D01*
X174738095Y-117150000D01*
X175071428Y-117102380D02*
X175309523Y-118102380D01*
X175500000Y-117388095D01*
X175690476Y-118102380D01*
X175928571Y-117102380D01*
X176833333Y-118102380D02*
X176261904Y-118102380D01*
X176547619Y-118102380D02*
X176547619Y-117102380D01*
X176452380Y-117245238D01*
X176357142Y-117340476D01*
X176261904Y-117388095D01*
X53204761Y-116033333D02*
X53252380Y-115890476D01*
X53252380Y-115652380D01*
X53204761Y-115557142D01*
X53157142Y-115509523D01*
X53061904Y-115461904D01*
X52966666Y-115461904D01*
X52871428Y-115509523D01*
X52823809Y-115557142D01*
X52776190Y-115652380D01*
X52728571Y-115842857D01*
X52680952Y-115938095D01*
X52633333Y-115985714D01*
X52538095Y-116033333D01*
X52442857Y-116033333D01*
X52347619Y-115985714D01*
X52300000Y-115938095D01*
X52252380Y-115842857D01*
X52252380Y-115604761D01*
X52300000Y-115461904D01*
X52252380Y-115128571D02*
X53252380Y-114890476D01*
X52538095Y-114700000D01*
X53252380Y-114509523D01*
X52252380Y-114271428D01*
X52347619Y-113938095D02*
X52300000Y-113890476D01*
X52252380Y-113795238D01*
X52252380Y-113557142D01*
X52300000Y-113461904D01*
X52347619Y-113414285D01*
X52442857Y-113366666D01*
X52538095Y-113366666D01*
X52680952Y-113414285D01*
X53252380Y-113985714D01*
X53252380Y-113366666D01*
X152452380Y-95833333D02*
X153166666Y-95833333D01*
X153309523Y-95880952D01*
X153404761Y-95976190D01*
X153452380Y-96119047D01*
X153452380Y-96214285D01*
X153452380Y-95357142D02*
X152452380Y-95357142D01*
X152452380Y-94976190D01*
X152500000Y-94880952D01*
X152547619Y-94833333D01*
X152642857Y-94785714D01*
X152785714Y-94785714D01*
X152880952Y-94833333D01*
X152928571Y-94880952D01*
X152976190Y-94976190D01*
X152976190Y-95357142D01*
X153452380Y-93833333D02*
X153452380Y-94404761D01*
X153452380Y-94119047D02*
X152452380Y-94119047D01*
X152595238Y-94214285D01*
X152690476Y-94309523D01*
X152738095Y-94404761D01*
X149052380Y-95733333D02*
X149766666Y-95733333D01*
X149909523Y-95780952D01*
X150004761Y-95876190D01*
X150052380Y-96019047D01*
X150052380Y-96114285D01*
X150052380Y-95257142D02*
X149052380Y-95257142D01*
X149052380Y-94876190D01*
X149100000Y-94780952D01*
X149147619Y-94733333D01*
X149242857Y-94685714D01*
X149385714Y-94685714D01*
X149480952Y-94733333D01*
X149528571Y-94780952D01*
X149576190Y-94876190D01*
X149576190Y-95257142D01*
X149147619Y-94304761D02*
X149100000Y-94257142D01*
X149052380Y-94161904D01*
X149052380Y-93923809D01*
X149100000Y-93828571D01*
X149147619Y-93780952D01*
X149242857Y-93733333D01*
X149338095Y-93733333D01*
X149480952Y-93780952D01*
X150052380Y-94352380D01*
X150052380Y-93733333D01*
X147252380Y-97833333D02*
X147252380Y-97214285D01*
X147633333Y-97547619D01*
X147633333Y-97404761D01*
X147680952Y-97309523D01*
X147728571Y-97261904D01*
X147823809Y-97214285D01*
X148061904Y-97214285D01*
X148157142Y-97261904D01*
X148204761Y-97309523D01*
X148252380Y-97404761D01*
X148252380Y-97690476D01*
X148204761Y-97785714D01*
X148157142Y-97833333D01*
X148252380Y-92014285D02*
X148252380Y-92585714D01*
X148252380Y-92300000D02*
X147252380Y-92300000D01*
X147395238Y-92395238D01*
X147490476Y-92490476D01*
X147538095Y-92585714D01*
X154022380Y-92766666D02*
X153546190Y-93100000D01*
X154022380Y-93338095D02*
X153022380Y-93338095D01*
X153022380Y-92957142D01*
X153070000Y-92861904D01*
X153117619Y-92814285D01*
X153212857Y-92766666D01*
X153355714Y-92766666D01*
X153450952Y-92814285D01*
X153498571Y-92861904D01*
X153546190Y-92957142D01*
X153546190Y-93338095D01*
X153355714Y-91909523D02*
X154022380Y-91909523D01*
X152974761Y-92147619D02*
X153689047Y-92385714D01*
X153689047Y-91766666D01*
X167454577Y-94043003D02*
X167595149Y-94840229D01*
X167658583Y-94925751D01*
X167713747Y-94964378D01*
X167815807Y-94994735D01*
X168003390Y-94961659D01*
X168088912Y-94898226D01*
X168127539Y-94843061D01*
X168157896Y-94741001D01*
X168017324Y-93943776D01*
X168392489Y-93877624D02*
X169002132Y-93770128D01*
X168740014Y-94203175D01*
X168880701Y-94178368D01*
X168982761Y-94208726D01*
X169037926Y-94247353D01*
X169101359Y-94332875D01*
X169142704Y-94567353D01*
X169112346Y-94669413D01*
X169073720Y-94724578D01*
X168988198Y-94788011D01*
X168706824Y-94837625D01*
X168604764Y-94807267D01*
X168549599Y-94768641D01*
X166819333Y-104239142D02*
X166771714Y-104286761D01*
X166628857Y-104334380D01*
X166533619Y-104334380D01*
X166390761Y-104286761D01*
X166295523Y-104191523D01*
X166247904Y-104096285D01*
X166200285Y-103905809D01*
X166200285Y-103762952D01*
X166247904Y-103572476D01*
X166295523Y-103477238D01*
X166390761Y-103382000D01*
X166533619Y-103334380D01*
X166628857Y-103334380D01*
X166771714Y-103382000D01*
X166819333Y-103429619D01*
X167676476Y-103667714D02*
X167676476Y-104334380D01*
X167438380Y-103286761D02*
X167200285Y-104001047D01*
X167819333Y-104001047D01*
X162757142Y-100822380D02*
X162852380Y-100822380D01*
X162947619Y-100870000D01*
X162995238Y-100917619D01*
X163042857Y-101012857D01*
X163090476Y-101203333D01*
X163090476Y-101441428D01*
X163042857Y-101631904D01*
X162995238Y-101727142D01*
X162947619Y-101774761D01*
X162852380Y-101822380D01*
X162757142Y-101822380D01*
X162661904Y-101774761D01*
X162614285Y-101727142D01*
X162566666Y-101631904D01*
X162519047Y-101441428D01*
X162519047Y-101203333D01*
X162566666Y-101012857D01*
X162614285Y-100917619D01*
X162661904Y-100870000D01*
X162757142Y-100822380D01*
X163519047Y-101727142D02*
X163566666Y-101774761D01*
X163519047Y-101822380D01*
X163471428Y-101774761D01*
X163519047Y-101727142D01*
X163519047Y-101822380D01*
X164519047Y-101822380D02*
X163947619Y-101822380D01*
X164233333Y-101822380D02*
X164233333Y-100822380D01*
X164138095Y-100965238D01*
X164042857Y-101060476D01*
X163947619Y-101108095D01*
X165376190Y-101155714D02*
X165376190Y-101822380D01*
X164947619Y-101155714D02*
X164947619Y-101679523D01*
X164995238Y-101774761D01*
X165090476Y-101822380D01*
X165233333Y-101822380D01*
X165328571Y-101774761D01*
X165376190Y-101727142D01*
X166185714Y-101298571D02*
X165852380Y-101298571D01*
X165852380Y-101822380D02*
X165852380Y-100822380D01*
X166328571Y-100822380D01*
X70008333Y-107287142D02*
X69960714Y-107334761D01*
X69817857Y-107382380D01*
X69722619Y-107382380D01*
X69579761Y-107334761D01*
X69484523Y-107239523D01*
X69436904Y-107144285D01*
X69389285Y-106953809D01*
X69389285Y-106810952D01*
X69436904Y-106620476D01*
X69484523Y-106525238D01*
X69579761Y-106430000D01*
X69722619Y-106382380D01*
X69817857Y-106382380D01*
X69960714Y-106430000D01*
X70008333Y-106477619D01*
X70913095Y-106382380D02*
X70436904Y-106382380D01*
X70389285Y-106858571D01*
X70436904Y-106810952D01*
X70532142Y-106763333D01*
X70770238Y-106763333D01*
X70865476Y-106810952D01*
X70913095Y-106858571D01*
X70960714Y-106953809D01*
X70960714Y-107191904D01*
X70913095Y-107287142D01*
X70865476Y-107334761D01*
X70770238Y-107382380D01*
X70532142Y-107382380D01*
X70436904Y-107334761D01*
X70389285Y-107287142D01*
X70008333Y-104187142D02*
X69960714Y-104234761D01*
X69817857Y-104282380D01*
X69722619Y-104282380D01*
X69579761Y-104234761D01*
X69484523Y-104139523D01*
X69436904Y-104044285D01*
X69389285Y-103853809D01*
X69389285Y-103710952D01*
X69436904Y-103520476D01*
X69484523Y-103425238D01*
X69579761Y-103330000D01*
X69722619Y-103282380D01*
X69817857Y-103282380D01*
X69960714Y-103330000D01*
X70008333Y-103377619D01*
X70341666Y-103282380D02*
X71008333Y-103282380D01*
X70579761Y-104282380D01*
X168640333Y-122425142D02*
X168592714Y-122472761D01*
X168449857Y-122520380D01*
X168354619Y-122520380D01*
X168211761Y-122472761D01*
X168116523Y-122377523D01*
X168068904Y-122282285D01*
X168021285Y-122091809D01*
X168021285Y-121948952D01*
X168068904Y-121758476D01*
X168116523Y-121663238D01*
X168211761Y-121568000D01*
X168354619Y-121520380D01*
X168449857Y-121520380D01*
X168592714Y-121568000D01*
X168640333Y-121615619D01*
X169211761Y-121948952D02*
X169116523Y-121901333D01*
X169068904Y-121853714D01*
X169021285Y-121758476D01*
X169021285Y-121710857D01*
X169068904Y-121615619D01*
X169116523Y-121568000D01*
X169211761Y-121520380D01*
X169402238Y-121520380D01*
X169497476Y-121568000D01*
X169545095Y-121615619D01*
X169592714Y-121710857D01*
X169592714Y-121758476D01*
X169545095Y-121853714D01*
X169497476Y-121901333D01*
X169402238Y-121948952D01*
X169211761Y-121948952D01*
X169116523Y-121996571D01*
X169068904Y-122044190D01*
X169021285Y-122139428D01*
X169021285Y-122329904D01*
X169068904Y-122425142D01*
X169116523Y-122472761D01*
X169211761Y-122520380D01*
X169402238Y-122520380D01*
X169497476Y-122472761D01*
X169545095Y-122425142D01*
X169592714Y-122329904D01*
X169592714Y-122139428D01*
X169545095Y-122044190D01*
X169497476Y-121996571D01*
X169402238Y-121948952D01*
X172533333Y-122457142D02*
X172485714Y-122504761D01*
X172342857Y-122552380D01*
X172247619Y-122552380D01*
X172104761Y-122504761D01*
X172009523Y-122409523D01*
X171961904Y-122314285D01*
X171914285Y-122123809D01*
X171914285Y-121980952D01*
X171961904Y-121790476D01*
X172009523Y-121695238D01*
X172104761Y-121600000D01*
X172247619Y-121552380D01*
X172342857Y-121552380D01*
X172485714Y-121600000D01*
X172533333Y-121647619D01*
X173009523Y-122552380D02*
X173200000Y-122552380D01*
X173295238Y-122504761D01*
X173342857Y-122457142D01*
X173438095Y-122314285D01*
X173485714Y-122123809D01*
X173485714Y-121742857D01*
X173438095Y-121647619D01*
X173390476Y-121600000D01*
X173295238Y-121552380D01*
X173104761Y-121552380D01*
X173009523Y-121600000D01*
X172961904Y-121647619D01*
X172914285Y-121742857D01*
X172914285Y-121980952D01*
X172961904Y-122076190D01*
X173009523Y-122123809D01*
X173104761Y-122171428D01*
X173295238Y-122171428D01*
X173390476Y-122123809D01*
X173438095Y-122076190D01*
X173485714Y-121980952D01*
X146357142Y-124889142D02*
X146309523Y-124936761D01*
X146166666Y-124984380D01*
X146071428Y-124984380D01*
X145928571Y-124936761D01*
X145833333Y-124841523D01*
X145785714Y-124746285D01*
X145738095Y-124555809D01*
X145738095Y-124412952D01*
X145785714Y-124222476D01*
X145833333Y-124127238D01*
X145928571Y-124032000D01*
X146071428Y-123984380D01*
X146166666Y-123984380D01*
X146309523Y-124032000D01*
X146357142Y-124079619D01*
X147309523Y-124984380D02*
X146738095Y-124984380D01*
X147023809Y-124984380D02*
X147023809Y-123984380D01*
X146928571Y-124127238D01*
X146833333Y-124222476D01*
X146738095Y-124270095D01*
X147928571Y-123984380D02*
X148023809Y-123984380D01*
X148119047Y-124032000D01*
X148166666Y-124079619D01*
X148214285Y-124174857D01*
X148261904Y-124365333D01*
X148261904Y-124603428D01*
X148214285Y-124793904D01*
X148166666Y-124889142D01*
X148119047Y-124936761D01*
X148023809Y-124984380D01*
X147928571Y-124984380D01*
X147833333Y-124936761D01*
X147785714Y-124889142D01*
X147738095Y-124793904D01*
X147690476Y-124603428D01*
X147690476Y-124365333D01*
X147738095Y-124174857D01*
X147785714Y-124079619D01*
X147833333Y-124032000D01*
X147928571Y-123984380D01*
X146357142Y-126857142D02*
X146309523Y-126904761D01*
X146166666Y-126952380D01*
X146071428Y-126952380D01*
X145928571Y-126904761D01*
X145833333Y-126809523D01*
X145785714Y-126714285D01*
X145738095Y-126523809D01*
X145738095Y-126380952D01*
X145785714Y-126190476D01*
X145833333Y-126095238D01*
X145928571Y-126000000D01*
X146071428Y-125952380D01*
X146166666Y-125952380D01*
X146309523Y-126000000D01*
X146357142Y-126047619D01*
X147309523Y-126952380D02*
X146738095Y-126952380D01*
X147023809Y-126952380D02*
X147023809Y-125952380D01*
X146928571Y-126095238D01*
X146833333Y-126190476D01*
X146738095Y-126238095D01*
X148261904Y-126952380D02*
X147690476Y-126952380D01*
X147976190Y-126952380D02*
X147976190Y-125952380D01*
X147880952Y-126095238D01*
X147785714Y-126190476D01*
X147690476Y-126238095D01*
X134634904Y-139047380D02*
X134634904Y-138047380D01*
X134873000Y-138047380D01*
X135015857Y-138095000D01*
X135111095Y-138190238D01*
X135158714Y-138285476D01*
X135206333Y-138475952D01*
X135206333Y-138618809D01*
X135158714Y-138809285D01*
X135111095Y-138904523D01*
X135015857Y-138999761D01*
X134873000Y-139047380D01*
X134634904Y-139047380D01*
X136158714Y-139047380D02*
X135587285Y-139047380D01*
X135873000Y-139047380D02*
X135873000Y-138047380D01*
X135777761Y-138190238D01*
X135682523Y-138285476D01*
X135587285Y-138333095D01*
X69557142Y-98727142D02*
X69509523Y-98774761D01*
X69366666Y-98822380D01*
X69271428Y-98822380D01*
X69128571Y-98774761D01*
X69033333Y-98679523D01*
X68985714Y-98584285D01*
X68938095Y-98393809D01*
X68938095Y-98250952D01*
X68985714Y-98060476D01*
X69033333Y-97965238D01*
X69128571Y-97870000D01*
X69271428Y-97822380D01*
X69366666Y-97822380D01*
X69509523Y-97870000D01*
X69557142Y-97917619D01*
X70509523Y-98822380D02*
X69938095Y-98822380D01*
X70223809Y-98822380D02*
X70223809Y-97822380D01*
X70128571Y-97965238D01*
X70033333Y-98060476D01*
X69938095Y-98108095D01*
X70890476Y-97917619D02*
X70938095Y-97870000D01*
X71033333Y-97822380D01*
X71271428Y-97822380D01*
X71366666Y-97870000D01*
X71414285Y-97917619D01*
X71461904Y-98012857D01*
X71461904Y-98108095D01*
X71414285Y-98250952D01*
X70842857Y-98822380D01*
X71461904Y-98822380D01*
X134452380Y-110738095D02*
X135261904Y-110738095D01*
X135357142Y-110690476D01*
X135404761Y-110642857D01*
X135452380Y-110547619D01*
X135452380Y-110357142D01*
X135404761Y-110261904D01*
X135357142Y-110214285D01*
X135261904Y-110166666D01*
X134452380Y-110166666D01*
X135452380Y-109166666D02*
X135452380Y-109738095D01*
X135452380Y-109452380D02*
X134452380Y-109452380D01*
X134595238Y-109547619D01*
X134690476Y-109642857D01*
X134738095Y-109738095D01*
X134452380Y-108547619D02*
X134452380Y-108452380D01*
X134500000Y-108357142D01*
X134547619Y-108309523D01*
X134642857Y-108261904D01*
X134833333Y-108214285D01*
X135071428Y-108214285D01*
X135261904Y-108261904D01*
X135357142Y-108309523D01*
X135404761Y-108357142D01*
X135452380Y-108452380D01*
X135452380Y-108547619D01*
X135404761Y-108642857D01*
X135357142Y-108690476D01*
X135261904Y-108738095D01*
X135071428Y-108785714D01*
X134833333Y-108785714D01*
X134642857Y-108738095D01*
X134547619Y-108690476D01*
X134500000Y-108642857D01*
X134452380Y-108547619D01*
X160690476Y-143952380D02*
X160690476Y-142952380D01*
X161023809Y-143666666D01*
X161357142Y-142952380D01*
X161357142Y-143952380D01*
X162357142Y-143952380D02*
X161785714Y-143952380D01*
X162071428Y-143952380D02*
X162071428Y-142952380D01*
X161976190Y-143095238D01*
X161880952Y-143190476D01*
X161785714Y-143238095D01*
X138190476Y-143952380D02*
X138190476Y-142952380D01*
X138523809Y-143666666D01*
X138857142Y-142952380D01*
X138857142Y-143952380D01*
X139285714Y-143047619D02*
X139333333Y-143000000D01*
X139428571Y-142952380D01*
X139666666Y-142952380D01*
X139761904Y-143000000D01*
X139809523Y-143047619D01*
X139857142Y-143142857D01*
X139857142Y-143238095D01*
X139809523Y-143380952D01*
X139238095Y-143952380D01*
X139857142Y-143952380D01*
X169532142Y-99572380D02*
X169198809Y-99096190D01*
X168960714Y-99572380D02*
X168960714Y-98572380D01*
X169341666Y-98572380D01*
X169436904Y-98620000D01*
X169484523Y-98667619D01*
X169532142Y-98762857D01*
X169532142Y-98905714D01*
X169484523Y-99000952D01*
X169436904Y-99048571D01*
X169341666Y-99096190D01*
X168960714Y-99096190D01*
X170484523Y-99572380D02*
X169913095Y-99572380D01*
X170198809Y-99572380D02*
X170198809Y-98572380D01*
X170103571Y-98715238D01*
X170008333Y-98810476D01*
X169913095Y-98858095D01*
X171436904Y-99572380D02*
X170865476Y-99572380D01*
X171151190Y-99572380D02*
X171151190Y-98572380D01*
X171055952Y-98715238D01*
X170960714Y-98810476D01*
X170865476Y-98858095D01*
X173307142Y-98872380D02*
X172973809Y-98396190D01*
X172735714Y-98872380D02*
X172735714Y-97872380D01*
X173116666Y-97872380D01*
X173211904Y-97920000D01*
X173259523Y-97967619D01*
X173307142Y-98062857D01*
X173307142Y-98205714D01*
X173259523Y-98300952D01*
X173211904Y-98348571D01*
X173116666Y-98396190D01*
X172735714Y-98396190D01*
X174259523Y-98872380D02*
X173688095Y-98872380D01*
X173973809Y-98872380D02*
X173973809Y-97872380D01*
X173878571Y-98015238D01*
X173783333Y-98110476D01*
X173688095Y-98158095D01*
X174592857Y-97872380D02*
X175211904Y-97872380D01*
X174878571Y-98253333D01*
X175021428Y-98253333D01*
X175116666Y-98300952D01*
X175164285Y-98348571D01*
X175211904Y-98443809D01*
X175211904Y-98681904D01*
X175164285Y-98777142D01*
X175116666Y-98824761D01*
X175021428Y-98872380D01*
X174735714Y-98872380D01*
X174640476Y-98824761D01*
X174592857Y-98777142D01*
X95816666Y-86742857D02*
X95483333Y-87076190D01*
X95816666Y-87314285D02*
X95116666Y-87314285D01*
X95116666Y-86933333D01*
X95150000Y-86838095D01*
X95183333Y-86790476D01*
X95250000Y-86742857D01*
X95350000Y-86742857D01*
X95416666Y-86790476D01*
X95450000Y-86838095D01*
X95483333Y-86933333D01*
X95483333Y-87314285D01*
X95816666Y-85790476D02*
X95816666Y-86361904D01*
X95816666Y-86076190D02*
X95116666Y-86076190D01*
X95216666Y-86171428D01*
X95283333Y-86266666D01*
X95316666Y-86361904D01*
X95350000Y-84933333D02*
X95816666Y-84933333D01*
X95083333Y-85171428D02*
X95583333Y-85409523D01*
X95583333Y-84790476D01*
X98416666Y-86692857D02*
X98083333Y-87026190D01*
X98416666Y-87264285D02*
X97716666Y-87264285D01*
X97716666Y-86883333D01*
X97750000Y-86788095D01*
X97783333Y-86740476D01*
X97850000Y-86692857D01*
X97950000Y-86692857D01*
X98016666Y-86740476D01*
X98050000Y-86788095D01*
X98083333Y-86883333D01*
X98083333Y-87264285D01*
X98416666Y-85740476D02*
X98416666Y-86311904D01*
X98416666Y-86026190D02*
X97716666Y-86026190D01*
X97816666Y-86121428D01*
X97883333Y-86216666D01*
X97916666Y-86311904D01*
X97716666Y-84835714D02*
X97716666Y-85311904D01*
X98050000Y-85359523D01*
X98016666Y-85311904D01*
X97983333Y-85216666D01*
X97983333Y-84978571D01*
X98016666Y-84883333D01*
X98050000Y-84835714D01*
X98116666Y-84788095D01*
X98283333Y-84788095D01*
X98350000Y-84835714D01*
X98383333Y-84883333D01*
X98416666Y-84978571D01*
X98416666Y-85216666D01*
X98383333Y-85311904D01*
X98350000Y-85359523D01*
X101352380Y-86692857D02*
X100876190Y-87026190D01*
X101352380Y-87264285D02*
X100352380Y-87264285D01*
X100352380Y-86883333D01*
X100400000Y-86788095D01*
X100447619Y-86740476D01*
X100542857Y-86692857D01*
X100685714Y-86692857D01*
X100780952Y-86740476D01*
X100828571Y-86788095D01*
X100876190Y-86883333D01*
X100876190Y-87264285D01*
X101352380Y-85740476D02*
X101352380Y-86311904D01*
X101352380Y-86026190D02*
X100352380Y-86026190D01*
X100495238Y-86121428D01*
X100590476Y-86216666D01*
X100638095Y-86311904D01*
X100352380Y-84883333D02*
X100352380Y-85073809D01*
X100400000Y-85169047D01*
X100447619Y-85216666D01*
X100590476Y-85311904D01*
X100780952Y-85359523D01*
X101161904Y-85359523D01*
X101257142Y-85311904D01*
X101304761Y-85264285D01*
X101352380Y-85169047D01*
X101352380Y-84978571D01*
X101304761Y-84883333D01*
X101257142Y-84835714D01*
X101161904Y-84788095D01*
X100923809Y-84788095D01*
X100828571Y-84835714D01*
X100780952Y-84883333D01*
X100733333Y-84978571D01*
X100733333Y-85169047D01*
X100780952Y-85264285D01*
X100828571Y-85311904D01*
X100923809Y-85359523D01*
X174782380Y-87592857D02*
X174306190Y-87926190D01*
X174782380Y-88164285D02*
X173782380Y-88164285D01*
X173782380Y-87783333D01*
X173830000Y-87688095D01*
X173877619Y-87640476D01*
X173972857Y-87592857D01*
X174115714Y-87592857D01*
X174210952Y-87640476D01*
X174258571Y-87688095D01*
X174306190Y-87783333D01*
X174306190Y-88164285D01*
X174782380Y-86640476D02*
X174782380Y-87211904D01*
X174782380Y-86926190D02*
X173782380Y-86926190D01*
X173925238Y-87021428D01*
X174020476Y-87116666D01*
X174068095Y-87211904D01*
X173782380Y-86307142D02*
X173782380Y-85640476D01*
X174782380Y-86069047D01*
X179582380Y-87592857D02*
X179106190Y-87926190D01*
X179582380Y-88164285D02*
X178582380Y-88164285D01*
X178582380Y-87783333D01*
X178630000Y-87688095D01*
X178677619Y-87640476D01*
X178772857Y-87592857D01*
X178915714Y-87592857D01*
X179010952Y-87640476D01*
X179058571Y-87688095D01*
X179106190Y-87783333D01*
X179106190Y-88164285D01*
X179582380Y-86640476D02*
X179582380Y-87211904D01*
X179582380Y-86926190D02*
X178582380Y-86926190D01*
X178725238Y-87021428D01*
X178820476Y-87116666D01*
X178868095Y-87211904D01*
X179010952Y-86069047D02*
X178963333Y-86164285D01*
X178915714Y-86211904D01*
X178820476Y-86259523D01*
X178772857Y-86259523D01*
X178677619Y-86211904D01*
X178630000Y-86164285D01*
X178582380Y-86069047D01*
X178582380Y-85878571D01*
X178630000Y-85783333D01*
X178677619Y-85735714D01*
X178772857Y-85688095D01*
X178820476Y-85688095D01*
X178915714Y-85735714D01*
X178963333Y-85783333D01*
X179010952Y-85878571D01*
X179010952Y-86069047D01*
X179058571Y-86164285D01*
X179106190Y-86211904D01*
X179201428Y-86259523D01*
X179391904Y-86259523D01*
X179487142Y-86211904D01*
X179534761Y-86164285D01*
X179582380Y-86069047D01*
X179582380Y-85878571D01*
X179534761Y-85783333D01*
X179487142Y-85735714D01*
X179391904Y-85688095D01*
X179201428Y-85688095D01*
X179106190Y-85735714D01*
X179058571Y-85783333D01*
X179010952Y-85878571D01*
X158107142Y-78772380D02*
X157773809Y-78296190D01*
X157535714Y-78772380D02*
X157535714Y-77772380D01*
X157916666Y-77772380D01*
X158011904Y-77820000D01*
X158059523Y-77867619D01*
X158107142Y-77962857D01*
X158107142Y-78105714D01*
X158059523Y-78200952D01*
X158011904Y-78248571D01*
X157916666Y-78296190D01*
X157535714Y-78296190D01*
X159059523Y-78772380D02*
X158488095Y-78772380D01*
X158773809Y-78772380D02*
X158773809Y-77772380D01*
X158678571Y-77915238D01*
X158583333Y-78010476D01*
X158488095Y-78058095D01*
X159535714Y-78772380D02*
X159726190Y-78772380D01*
X159821428Y-78724761D01*
X159869047Y-78677142D01*
X159964285Y-78534285D01*
X160011904Y-78343809D01*
X160011904Y-77962857D01*
X159964285Y-77867619D01*
X159916666Y-77820000D01*
X159821428Y-77772380D01*
X159630952Y-77772380D01*
X159535714Y-77820000D01*
X159488095Y-77867619D01*
X159440476Y-77962857D01*
X159440476Y-78200952D01*
X159488095Y-78296190D01*
X159535714Y-78343809D01*
X159630952Y-78391428D01*
X159821428Y-78391428D01*
X159916666Y-78343809D01*
X159964285Y-78296190D01*
X160011904Y-78200952D01*
X177182380Y-87642857D02*
X176706190Y-87976190D01*
X177182380Y-88214285D02*
X176182380Y-88214285D01*
X176182380Y-87833333D01*
X176230000Y-87738095D01*
X176277619Y-87690476D01*
X176372857Y-87642857D01*
X176515714Y-87642857D01*
X176610952Y-87690476D01*
X176658571Y-87738095D01*
X176706190Y-87833333D01*
X176706190Y-88214285D01*
X176277619Y-87261904D02*
X176230000Y-87214285D01*
X176182380Y-87119047D01*
X176182380Y-86880952D01*
X176230000Y-86785714D01*
X176277619Y-86738095D01*
X176372857Y-86690476D01*
X176468095Y-86690476D01*
X176610952Y-86738095D01*
X177182380Y-87309523D01*
X177182380Y-86690476D01*
X176182380Y-86071428D02*
X176182380Y-85976190D01*
X176230000Y-85880952D01*
X176277619Y-85833333D01*
X176372857Y-85785714D01*
X176563333Y-85738095D01*
X176801428Y-85738095D01*
X176991904Y-85785714D01*
X177087142Y-85833333D01*
X177134761Y-85880952D01*
X177182380Y-85976190D01*
X177182380Y-86071428D01*
X177134761Y-86166666D01*
X177087142Y-86214285D01*
X176991904Y-86261904D01*
X176801428Y-86309523D01*
X176563333Y-86309523D01*
X176372857Y-86261904D01*
X176277619Y-86214285D01*
X176230000Y-86166666D01*
X176182380Y-86071428D01*
X162157142Y-78722380D02*
X161823809Y-78246190D01*
X161585714Y-78722380D02*
X161585714Y-77722380D01*
X161966666Y-77722380D01*
X162061904Y-77770000D01*
X162109523Y-77817619D01*
X162157142Y-77912857D01*
X162157142Y-78055714D01*
X162109523Y-78150952D01*
X162061904Y-78198571D01*
X161966666Y-78246190D01*
X161585714Y-78246190D01*
X162538095Y-77817619D02*
X162585714Y-77770000D01*
X162680952Y-77722380D01*
X162919047Y-77722380D01*
X163014285Y-77770000D01*
X163061904Y-77817619D01*
X163109523Y-77912857D01*
X163109523Y-78008095D01*
X163061904Y-78150952D01*
X162490476Y-78722380D01*
X163109523Y-78722380D01*
X164061904Y-78722380D02*
X163490476Y-78722380D01*
X163776190Y-78722380D02*
X163776190Y-77722380D01*
X163680952Y-77865238D01*
X163585714Y-77960476D01*
X163490476Y-78008095D01*
X154157142Y-78772380D02*
X153823809Y-78296190D01*
X153585714Y-78772380D02*
X153585714Y-77772380D01*
X153966666Y-77772380D01*
X154061904Y-77820000D01*
X154109523Y-77867619D01*
X154157142Y-77962857D01*
X154157142Y-78105714D01*
X154109523Y-78200952D01*
X154061904Y-78248571D01*
X153966666Y-78296190D01*
X153585714Y-78296190D01*
X154538095Y-77867619D02*
X154585714Y-77820000D01*
X154680952Y-77772380D01*
X154919047Y-77772380D01*
X155014285Y-77820000D01*
X155061904Y-77867619D01*
X155109523Y-77962857D01*
X155109523Y-78058095D01*
X155061904Y-78200952D01*
X154490476Y-78772380D01*
X155109523Y-78772380D01*
X155490476Y-77867619D02*
X155538095Y-77820000D01*
X155633333Y-77772380D01*
X155871428Y-77772380D01*
X155966666Y-77820000D01*
X156014285Y-77867619D01*
X156061904Y-77962857D01*
X156061904Y-78058095D01*
X156014285Y-78200952D01*
X155442857Y-78772380D01*
X156061904Y-78772380D01*
X176957142Y-98222380D02*
X176623809Y-97746190D01*
X176385714Y-98222380D02*
X176385714Y-97222380D01*
X176766666Y-97222380D01*
X176861904Y-97270000D01*
X176909523Y-97317619D01*
X176957142Y-97412857D01*
X176957142Y-97555714D01*
X176909523Y-97650952D01*
X176861904Y-97698571D01*
X176766666Y-97746190D01*
X176385714Y-97746190D01*
X177909523Y-98222380D02*
X177338095Y-98222380D01*
X177623809Y-98222380D02*
X177623809Y-97222380D01*
X177528571Y-97365238D01*
X177433333Y-97460476D01*
X177338095Y-97508095D01*
X178290476Y-97317619D02*
X178338095Y-97270000D01*
X178433333Y-97222380D01*
X178671428Y-97222380D01*
X178766666Y-97270000D01*
X178814285Y-97317619D01*
X178861904Y-97412857D01*
X178861904Y-97508095D01*
X178814285Y-97650952D01*
X178242857Y-98222380D01*
X178861904Y-98222380D01*
M02*
