G04 #@! TF.GenerationSoftware,KiCad,Pcbnew,5.1.9-73d0e3b20d~88~ubuntu20.04.1*
G04 #@! TF.CreationDate,2021-07-26T19:08:20+09:00*
G04 #@! TF.ProjectId,ESP32DUALDIAL,45535033-3244-4554-914c-4449414c2e6b,rev?*
G04 #@! TF.SameCoordinates,Original*
G04 #@! TF.FileFunction,Legend,Bot*
G04 #@! TF.FilePolarity,Positive*
%FSLAX46Y46*%
G04 Gerber Fmt 4.6, Leading zero omitted, Abs format (unit mm)*
G04 Created by KiCad (PCBNEW 5.1.9-73d0e3b20d~88~ubuntu20.04.1) date 2021-07-26 19:08:20*
%MOMM*%
%LPD*%
G01*
G04 APERTURE LIST*
%ADD10C,0.175000*%
%ADD11C,0.150000*%
%ADD12C,0.177500*%
%ADD13C,0.120000*%
G04 APERTURE END LIST*
D10*
X119157142Y-145907142D02*
X119671428Y-145907142D01*
X119414285Y-145907142D02*
X119414285Y-145007142D01*
X119500000Y-145135714D01*
X119585714Y-145221428D01*
X119671428Y-145264285D01*
X118600000Y-145007142D02*
X118514285Y-145007142D01*
X118428571Y-145050000D01*
X118385714Y-145092857D01*
X118342857Y-145178571D01*
X118300000Y-145350000D01*
X118300000Y-145564285D01*
X118342857Y-145735714D01*
X118385714Y-145821428D01*
X118428571Y-145864285D01*
X118514285Y-145907142D01*
X118600000Y-145907142D01*
X118685714Y-145864285D01*
X118728571Y-145821428D01*
X118771428Y-145735714D01*
X118814285Y-145564285D01*
X118814285Y-145350000D01*
X118771428Y-145178571D01*
X118728571Y-145092857D01*
X118685714Y-145050000D01*
X118600000Y-145007142D01*
X117742857Y-145007142D02*
X117657142Y-145007142D01*
X117571428Y-145050000D01*
X117528571Y-145092857D01*
X117485714Y-145178571D01*
X117442857Y-145350000D01*
X117442857Y-145564285D01*
X117485714Y-145735714D01*
X117528571Y-145821428D01*
X117571428Y-145864285D01*
X117657142Y-145907142D01*
X117742857Y-145907142D01*
X117828571Y-145864285D01*
X117871428Y-145821428D01*
X117914285Y-145735714D01*
X117957142Y-145564285D01*
X117957142Y-145350000D01*
X117914285Y-145178571D01*
X117871428Y-145092857D01*
X117828571Y-145050000D01*
X117742857Y-145007142D01*
X117185714Y-145007142D02*
X116885714Y-145907142D01*
X116585714Y-145007142D01*
X113585714Y-145864285D02*
X113457142Y-145907142D01*
X113242857Y-145907142D01*
X113157142Y-145864285D01*
X113114285Y-145821428D01*
X113071428Y-145735714D01*
X113071428Y-145650000D01*
X113114285Y-145564285D01*
X113157142Y-145521428D01*
X113242857Y-145478571D01*
X113414285Y-145435714D01*
X113500000Y-145392857D01*
X113542857Y-145350000D01*
X113585714Y-145264285D01*
X113585714Y-145178571D01*
X113542857Y-145092857D01*
X113500000Y-145050000D01*
X113414285Y-145007142D01*
X113200000Y-145007142D01*
X113071428Y-145050000D01*
X112771428Y-145007142D02*
X112557142Y-145907142D01*
X112385714Y-145264285D01*
X112214285Y-145907142D01*
X112000000Y-145007142D01*
X108957142Y-145864285D02*
X108828571Y-145907142D01*
X108614285Y-145907142D01*
X108528571Y-145864285D01*
X108485714Y-145821428D01*
X108442857Y-145735714D01*
X108442857Y-145650000D01*
X108485714Y-145564285D01*
X108528571Y-145521428D01*
X108614285Y-145478571D01*
X108785714Y-145435714D01*
X108871428Y-145392857D01*
X108914285Y-145350000D01*
X108957142Y-145264285D01*
X108957142Y-145178571D01*
X108914285Y-145092857D01*
X108871428Y-145050000D01*
X108785714Y-145007142D01*
X108571428Y-145007142D01*
X108442857Y-145050000D01*
X108142857Y-145007142D02*
X107928571Y-145907142D01*
X107757142Y-145264285D01*
X107585714Y-145907142D01*
X107371428Y-145007142D01*
X103814285Y-145907142D02*
X104328571Y-145907142D01*
X104071428Y-145907142D02*
X104071428Y-145007142D01*
X104157142Y-145135714D01*
X104242857Y-145221428D01*
X104328571Y-145264285D01*
X103257142Y-145007142D02*
X103171428Y-145007142D01*
X103085714Y-145050000D01*
X103042857Y-145092857D01*
X103000000Y-145178571D01*
X102957142Y-145350000D01*
X102957142Y-145564285D01*
X103000000Y-145735714D01*
X103042857Y-145821428D01*
X103085714Y-145864285D01*
X103171428Y-145907142D01*
X103257142Y-145907142D01*
X103342857Y-145864285D01*
X103385714Y-145821428D01*
X103428571Y-145735714D01*
X103471428Y-145564285D01*
X103471428Y-145350000D01*
X103428571Y-145178571D01*
X103385714Y-145092857D01*
X103342857Y-145050000D01*
X103257142Y-145007142D01*
X102400000Y-145007142D02*
X102314285Y-145007142D01*
X102228571Y-145050000D01*
X102185714Y-145092857D01*
X102142857Y-145178571D01*
X102100000Y-145350000D01*
X102100000Y-145564285D01*
X102142857Y-145735714D01*
X102185714Y-145821428D01*
X102228571Y-145864285D01*
X102314285Y-145907142D01*
X102400000Y-145907142D01*
X102485714Y-145864285D01*
X102528571Y-145821428D01*
X102571428Y-145735714D01*
X102614285Y-145564285D01*
X102614285Y-145350000D01*
X102571428Y-145178571D01*
X102528571Y-145092857D01*
X102485714Y-145050000D01*
X102400000Y-145007142D01*
X101842857Y-145007142D02*
X101542857Y-145907142D01*
X101242857Y-145007142D01*
X92300000Y-145816666D02*
X92300000Y-145116666D01*
X92033333Y-145116666D01*
X91966666Y-145150000D01*
X91933333Y-145183333D01*
X91900000Y-145250000D01*
X91900000Y-145350000D01*
X91933333Y-145416666D01*
X91966666Y-145450000D01*
X92033333Y-145483333D01*
X92300000Y-145483333D01*
X91600000Y-145116666D02*
X91600000Y-145683333D01*
X91566666Y-145750000D01*
X91533333Y-145783333D01*
X91466666Y-145816666D01*
X91333333Y-145816666D01*
X91266666Y-145783333D01*
X91233333Y-145750000D01*
X91200000Y-145683333D01*
X91200000Y-145116666D01*
X90866666Y-145816666D02*
X90866666Y-145116666D01*
X90633333Y-145616666D01*
X90400000Y-145116666D01*
X90400000Y-145816666D01*
X90066666Y-145816666D02*
X90066666Y-145116666D01*
X89800000Y-145116666D01*
X89733333Y-145150000D01*
X89700000Y-145183333D01*
X89666666Y-145250000D01*
X89666666Y-145350000D01*
X89700000Y-145416666D01*
X89733333Y-145450000D01*
X89800000Y-145483333D01*
X90066666Y-145483333D01*
D11*
X50547359Y-139798584D02*
X50443781Y-139750284D01*
X50377905Y-139756345D01*
X50297941Y-139792616D01*
X50215698Y-139901382D01*
X50117087Y-140112854D01*
X50086632Y-140245770D01*
X50110247Y-140330340D01*
X50147949Y-140384700D01*
X50251527Y-140432999D01*
X50317403Y-140426939D01*
X50397366Y-140390668D01*
X50479610Y-140281901D01*
X50578221Y-140070430D01*
X50608676Y-139937514D01*
X50585061Y-139852944D01*
X50547359Y-139798584D01*
X50133047Y-139605387D02*
X49770524Y-139436339D01*
X49837214Y-140239802D01*
X49474691Y-140070755D01*
X49459790Y-139291442D02*
X49356212Y-139243143D01*
X49290336Y-139249203D01*
X49210372Y-139285474D01*
X49128129Y-139394240D01*
X49029518Y-139605712D01*
X48999063Y-139738628D01*
X49022677Y-139823198D01*
X49060379Y-139877558D01*
X49163957Y-139925857D01*
X49229834Y-139919797D01*
X49309797Y-139883526D01*
X49392041Y-139774759D01*
X49490652Y-139563288D01*
X49521106Y-139430372D01*
X49497492Y-139345802D01*
X49459790Y-139291442D01*
X48697856Y-139708511D02*
X48993689Y-139074095D01*
X48387122Y-139563613D01*
X48682955Y-138929198D01*
X48283137Y-139110552D02*
X48101875Y-139026028D01*
X47869232Y-139322117D02*
X48128177Y-139442865D01*
X48424010Y-138808450D01*
X48165065Y-138687701D01*
X47351342Y-139080621D02*
X47662076Y-139225518D01*
X47506709Y-139153070D02*
X47802541Y-138518654D01*
X47812069Y-138633435D01*
X47835683Y-138718005D01*
X47873385Y-138772365D01*
X30547359Y-130798584D02*
X30443781Y-130750284D01*
X30377905Y-130756345D01*
X30297941Y-130792616D01*
X30215698Y-130901382D01*
X30117087Y-131112854D01*
X30086632Y-131245770D01*
X30110247Y-131330340D01*
X30147949Y-131384700D01*
X30251527Y-131432999D01*
X30317403Y-131426939D01*
X30397366Y-131390668D01*
X30479610Y-131281901D01*
X30578221Y-131070430D01*
X30608676Y-130937514D01*
X30585061Y-130852944D01*
X30547359Y-130798584D01*
X30133047Y-130605387D02*
X29770524Y-130436339D01*
X29837214Y-131239802D01*
X29474691Y-131070755D01*
X29459790Y-130291442D02*
X29356212Y-130243143D01*
X29290336Y-130249203D01*
X29210372Y-130285474D01*
X29128129Y-130394240D01*
X29029518Y-130605712D01*
X28999063Y-130738628D01*
X29022677Y-130823198D01*
X29060379Y-130877558D01*
X29163957Y-130925857D01*
X29229834Y-130919797D01*
X29309797Y-130883526D01*
X29392041Y-130774759D01*
X29490652Y-130563288D01*
X29521106Y-130430372D01*
X29497492Y-130345802D01*
X29459790Y-130291442D01*
X28697856Y-130708511D02*
X28993689Y-130074095D01*
X28387122Y-130563613D01*
X28682955Y-129929198D01*
X28283137Y-130110552D02*
X28101875Y-130026028D01*
X27869232Y-130322117D02*
X28128177Y-130442865D01*
X28424010Y-129808450D01*
X28165065Y-129687701D01*
X27983803Y-129603178D02*
X27647174Y-129446205D01*
X27715738Y-129772411D01*
X27638054Y-129736187D01*
X27572178Y-129742247D01*
X27532196Y-129760383D01*
X27478127Y-129808728D01*
X27407691Y-129959780D01*
X27405411Y-130032275D01*
X27417218Y-130074560D01*
X27454920Y-130128920D01*
X27610287Y-130201369D01*
X27676163Y-130195308D01*
X27716145Y-130177173D01*
X40547359Y-135298584D02*
X40443781Y-135250284D01*
X40377905Y-135256345D01*
X40297941Y-135292616D01*
X40215698Y-135401382D01*
X40117087Y-135612854D01*
X40086632Y-135745770D01*
X40110247Y-135830340D01*
X40147949Y-135884700D01*
X40251527Y-135932999D01*
X40317403Y-135926939D01*
X40397366Y-135890668D01*
X40479610Y-135781901D01*
X40578221Y-135570430D01*
X40608676Y-135437514D01*
X40585061Y-135352944D01*
X40547359Y-135298584D01*
X40133047Y-135105387D02*
X39770524Y-134936339D01*
X39837214Y-135739802D01*
X39474691Y-135570755D01*
X39459790Y-134791442D02*
X39356212Y-134743143D01*
X39290336Y-134749203D01*
X39210372Y-134785474D01*
X39128129Y-134894240D01*
X39029518Y-135105712D01*
X38999063Y-135238628D01*
X39022677Y-135323198D01*
X39060379Y-135377558D01*
X39163957Y-135425857D01*
X39229834Y-135419797D01*
X39309797Y-135383526D01*
X39392041Y-135274759D01*
X39490652Y-135063288D01*
X39521106Y-134930372D01*
X39497492Y-134845802D01*
X39459790Y-134791442D01*
X38697856Y-135208511D02*
X38993689Y-134574095D01*
X38387122Y-135063613D01*
X38682955Y-134429198D01*
X38283137Y-134610552D02*
X38101875Y-134526028D01*
X37869232Y-134822117D02*
X38128177Y-134942865D01*
X38424010Y-134308450D01*
X38165065Y-134187701D01*
X37929734Y-134151523D02*
X37917927Y-134109238D01*
X37880225Y-134054879D01*
X37750752Y-133994505D01*
X37684876Y-134000565D01*
X37644894Y-134018701D01*
X37590825Y-134067046D01*
X37562651Y-134127467D01*
X37546283Y-134230172D01*
X37687970Y-134737593D01*
X37351342Y-134580621D01*
D12*
X201614875Y-90811874D02*
X201216531Y-90626123D01*
X201270026Y-91071403D01*
X201178101Y-91028537D01*
X201096693Y-91043118D01*
X201045926Y-91071987D01*
X200975035Y-91144013D01*
X200874412Y-91359801D01*
X200864804Y-91460405D01*
X200875321Y-91517851D01*
X200916480Y-91589585D01*
X201100331Y-91675316D01*
X201181739Y-91660736D01*
X201232506Y-91631867D01*
X201032680Y-90540392D02*
X200395569Y-91346680D01*
X200603694Y-90340353D01*
X200450485Y-90268910D02*
X200052141Y-90083159D01*
X200105637Y-90528439D01*
X200013711Y-90485574D01*
X199932303Y-90500154D01*
X199881536Y-90529023D01*
X199810645Y-90601050D01*
X199710022Y-90816837D01*
X199700414Y-90917441D01*
X199710931Y-90974887D01*
X199752090Y-91046621D01*
X199935941Y-91132352D01*
X200017350Y-91117772D01*
X200068116Y-91088903D01*
X198928911Y-89611930D02*
X199010319Y-89597350D01*
X199102244Y-89640215D01*
X199174045Y-89726238D01*
X199195080Y-89841130D01*
X199185472Y-89941734D01*
X199135615Y-90128653D01*
X199075241Y-90258125D01*
X198964101Y-90416467D01*
X198893209Y-90488493D01*
X198791676Y-90546231D01*
X198679626Y-90546523D01*
X198618343Y-90517946D01*
X198546542Y-90431923D01*
X198536025Y-90374477D01*
X198676897Y-90072374D01*
X198799465Y-90129528D01*
X198219999Y-90332195D02*
X198642617Y-89425887D01*
X197852297Y-90160733D01*
X198274915Y-89254425D01*
X197545878Y-90017848D02*
X197968497Y-89111540D01*
X197815287Y-89040097D01*
X197703237Y-89040389D01*
X197601704Y-89098127D01*
X197530813Y-89170154D01*
X197419672Y-89328495D01*
X197359298Y-89457968D01*
X197309442Y-89644886D01*
X197299834Y-89745490D01*
X197320868Y-89860382D01*
X197392669Y-89946405D01*
X197545878Y-90017848D01*
X196075070Y-89331999D02*
X196442772Y-89503461D01*
X196258921Y-89417730D02*
X196681540Y-88511422D01*
X196682449Y-88669472D01*
X196703483Y-88784364D01*
X196744642Y-88856098D01*
X196212304Y-88397698D02*
X196201787Y-88340252D01*
X196160628Y-88268517D01*
X196007419Y-88197075D01*
X195926011Y-88211655D01*
X195875244Y-88240524D01*
X195804353Y-88312550D01*
X195764104Y-88398866D01*
X195734372Y-88542627D01*
X195860577Y-89231979D01*
X195462234Y-89046228D01*
X195701001Y-88054189D02*
X195063890Y-88860477D01*
X195272015Y-87854150D01*
X193776933Y-88260360D02*
X194192672Y-87928804D01*
X194144635Y-88431822D02*
X194567253Y-87525514D01*
X194322118Y-87411206D01*
X194240710Y-87425786D01*
X194189943Y-87454655D01*
X194119052Y-87526682D01*
X194058678Y-87656154D01*
X194049071Y-87756758D01*
X194059588Y-87814204D01*
X194100747Y-87885938D01*
X194345881Y-88000247D01*
X193985058Y-87254032D02*
X193133454Y-87960301D01*
X193556072Y-87053993D02*
X193562440Y-88160340D01*
X192888319Y-87845992D02*
X193310938Y-86939685D01*
X193157729Y-86868242D01*
X193045678Y-86868534D01*
X192944145Y-86926272D01*
X192873254Y-86998298D01*
X192762114Y-87156640D01*
X192701740Y-87286112D01*
X192651883Y-87473031D01*
X192642275Y-87573635D01*
X192663309Y-87688527D01*
X192735110Y-87774550D01*
X192888319Y-87845992D01*
X192269115Y-86453875D02*
X191901413Y-86282413D01*
X191662646Y-87274451D02*
X192085264Y-86368144D01*
X191748204Y-86210970D02*
X190896600Y-86917238D01*
X191319218Y-86010931D02*
X191325586Y-87117278D01*
X190651466Y-86802930D02*
X191074084Y-85896622D01*
X190920875Y-85825180D01*
X190808824Y-85825472D01*
X190707291Y-85883210D01*
X190636400Y-85955236D01*
X190525260Y-86113578D01*
X190464886Y-86243050D01*
X190415029Y-86429969D01*
X190405421Y-86530572D01*
X190426456Y-86645465D01*
X190498256Y-86731488D01*
X190651466Y-86802930D01*
X190001620Y-85396524D02*
X189603276Y-85210773D01*
X189656771Y-85656053D01*
X189564846Y-85613188D01*
X189483437Y-85627768D01*
X189432671Y-85656637D01*
X189361780Y-85728664D01*
X189261156Y-85944451D01*
X189251549Y-86045055D01*
X189262066Y-86102501D01*
X189303225Y-86174235D01*
X189487076Y-86259966D01*
X189568484Y-86245386D01*
X189619251Y-86216517D01*
X189419425Y-85125042D02*
X188782314Y-85931330D01*
X188990439Y-84925003D01*
X188837230Y-84853560D02*
X188438886Y-84667810D01*
X188492381Y-85113089D01*
X188400456Y-85070224D01*
X188319048Y-85084804D01*
X188268281Y-85113673D01*
X188197390Y-85185700D01*
X188096766Y-85401487D01*
X188087159Y-85502091D01*
X188097676Y-85559537D01*
X188138835Y-85631271D01*
X188322686Y-85717003D01*
X188404094Y-85702422D01*
X188454861Y-85673553D01*
X187250222Y-85216904D02*
X187672840Y-84310596D01*
X187427705Y-84196288D01*
X187346297Y-84210869D01*
X187295531Y-84239738D01*
X187224639Y-84311764D01*
X187164265Y-84441237D01*
X187154658Y-84541840D01*
X187165175Y-84599286D01*
X187206334Y-84671021D01*
X187451469Y-84785329D01*
X186239041Y-84745383D02*
X186654781Y-84413828D01*
X186606743Y-84916845D02*
X187029362Y-84010538D01*
X186784227Y-83896229D01*
X186702819Y-83910810D01*
X186652052Y-83939679D01*
X186581161Y-84011705D01*
X186520787Y-84141178D01*
X186511179Y-84241781D01*
X186521696Y-84299227D01*
X186562855Y-84370962D01*
X186807990Y-84485270D01*
X186028698Y-83596462D02*
X186110107Y-83581882D01*
X186202032Y-83624747D01*
X186273833Y-83710771D01*
X186294867Y-83825663D01*
X186285260Y-83926266D01*
X186235403Y-84113185D01*
X186175029Y-84242657D01*
X186063888Y-84400999D01*
X185992997Y-84473025D01*
X185891464Y-84530763D01*
X185779414Y-84531055D01*
X185718130Y-84502478D01*
X185646329Y-84416455D01*
X185635812Y-84359009D01*
X185776685Y-84056906D01*
X185899252Y-84114061D01*
X184894950Y-83067787D02*
X184976359Y-83053207D01*
X185068284Y-83096072D01*
X185140085Y-83182095D01*
X185161119Y-83296987D01*
X185151512Y-83397591D01*
X185101655Y-83584509D01*
X185041281Y-83713982D01*
X184930140Y-83872323D01*
X184859249Y-83944350D01*
X184757716Y-84002088D01*
X184645666Y-84002380D01*
X184584382Y-83973803D01*
X184512581Y-83887780D01*
X184502064Y-83830334D01*
X184642937Y-83528231D01*
X184765504Y-83585385D01*
X184186038Y-83788052D02*
X184608657Y-82881744D01*
X183818336Y-83616590D01*
X184240955Y-82710282D01*
X183511918Y-83473705D02*
X183934536Y-82567397D01*
X183781327Y-82495954D01*
X183669277Y-82496246D01*
X183567744Y-82553984D01*
X183496853Y-82626011D01*
X183385712Y-82784352D01*
X183325338Y-82913825D01*
X183275481Y-83100743D01*
X183265874Y-83201347D01*
X183286908Y-83316239D01*
X183358709Y-83402262D01*
X183511918Y-83473705D01*
X182010468Y-82773567D02*
X182426208Y-82442012D01*
X182378170Y-82945029D02*
X182800788Y-82038721D01*
X182555654Y-81924413D01*
X182474245Y-81938994D01*
X182423479Y-81967863D01*
X182352588Y-82039889D01*
X182292214Y-82169362D01*
X182282606Y-82269965D01*
X182293123Y-82327411D01*
X182334282Y-82399146D01*
X182579417Y-82513454D01*
X181785458Y-82616101D02*
X181673408Y-82616393D01*
X181520199Y-82544951D01*
X181479040Y-82473216D01*
X181468523Y-82415770D01*
X181478130Y-82315166D01*
X181518379Y-82228851D01*
X181589271Y-82156825D01*
X181640037Y-82127956D01*
X181721446Y-82113375D01*
X181864138Y-82127372D01*
X181945546Y-82112792D01*
X181996312Y-82083923D01*
X182067204Y-82011896D01*
X182107453Y-81925581D01*
X182117061Y-81824978D01*
X182106543Y-81767531D01*
X182065384Y-81695797D01*
X181912175Y-81624354D01*
X181800125Y-81624646D01*
X181636399Y-81495758D02*
X181268697Y-81324295D01*
X181029929Y-82316334D02*
X181452548Y-81410026D01*
X180206750Y-80881643D02*
X180288158Y-80867063D01*
X180380083Y-80909928D01*
X180451884Y-80995951D01*
X180472919Y-81110843D01*
X180463311Y-81211447D01*
X180413454Y-81398365D01*
X180353080Y-81527838D01*
X180241940Y-81686180D01*
X180171048Y-81758206D01*
X180069515Y-81815944D01*
X179957465Y-81816236D01*
X179896182Y-81787659D01*
X179824381Y-81701636D01*
X179813864Y-81644190D01*
X179954736Y-81342087D01*
X180077304Y-81399241D01*
X179497838Y-81601908D02*
X179920456Y-80695600D01*
X179130136Y-81430446D01*
X179552754Y-80524138D01*
X178823717Y-81287561D02*
X179246336Y-80381253D01*
X179093126Y-80309810D01*
X178981076Y-80310102D01*
X178879543Y-80367840D01*
X178808652Y-80439867D01*
X178697511Y-80598208D01*
X178637137Y-80727681D01*
X178587281Y-80914599D01*
X178577673Y-81015203D01*
X178598707Y-81130095D01*
X178670508Y-81216118D01*
X178823717Y-81287561D01*
D11*
X83680000Y-130330000D02*
X83680000Y-89990000D01*
X151120000Y-130330000D02*
X83680000Y-130330000D01*
X151120000Y-89990000D02*
X151120000Y-130330000D01*
X83680000Y-89990000D02*
X151120000Y-89990000D01*
D13*
X121100000Y-82200000D02*
G75*
G03*
X121100000Y-82200000I-6100000J0D01*
G01*
X47000000Y-126500000D02*
X47000000Y-125000000D01*
X51000000Y-126500000D02*
X51000000Y-125000000D01*
X47000000Y-126500000D02*
X51000000Y-126500000D01*
X47000000Y-101500000D02*
X47000000Y-124500000D01*
X51000000Y-101500000D02*
X47000000Y-101500000D01*
X51000000Y-124500000D02*
X51000000Y-101500000D01*
X47000000Y-124500000D02*
X51000000Y-124500000D01*
X40500000Y-123000000D02*
X40500000Y-121500000D01*
X44500000Y-123000000D02*
X44500000Y-121500000D01*
X40500000Y-123000000D02*
X44500000Y-123000000D01*
X40500000Y-98000000D02*
X40500000Y-121000000D01*
X44500000Y-98000000D02*
X40500000Y-98000000D01*
X44500000Y-121000000D02*
X44500000Y-98000000D01*
X40500000Y-121000000D02*
X44500000Y-121000000D01*
X33500000Y-119000000D02*
X33500000Y-117500000D01*
X37500000Y-119000000D02*
X37500000Y-117500000D01*
X33500000Y-119000000D02*
X37500000Y-119000000D01*
X33500000Y-94000000D02*
X33500000Y-117000000D01*
X37500000Y-94000000D02*
X33500000Y-94000000D01*
X37500000Y-117000000D02*
X37500000Y-94000000D01*
X33500000Y-117000000D02*
X37500000Y-117000000D01*
X26500000Y-116000000D02*
X26500000Y-114500000D01*
X30500000Y-116000000D02*
X30500000Y-114500000D01*
X26500000Y-116000000D02*
X30500000Y-116000000D01*
X26500000Y-91000000D02*
X26500000Y-114000000D01*
X30500000Y-91000000D02*
X26500000Y-91000000D01*
X30500000Y-114000000D02*
X30500000Y-91000000D01*
X26500000Y-114000000D02*
X30500000Y-114000000D01*
X91000000Y-118650000D02*
X89000000Y-118650000D01*
X139120000Y-118320000D02*
X139120000Y-90880000D01*
X86480000Y-118320000D02*
X139120000Y-118320000D01*
X86480000Y-90880000D02*
X139120000Y-90880000D01*
X86480000Y-118320000D02*
X86480000Y-90880000D01*
X89680000Y-78130000D02*
X89680000Y-83870000D01*
X89680000Y-83880000D02*
X101940000Y-83880000D01*
X101940000Y-83880000D02*
X101940000Y-78120000D01*
X101940000Y-78120000D02*
X89690000Y-78120000D01*
X89400000Y-77840000D02*
X91400000Y-77840000D01*
X89400000Y-77840000D02*
X89400000Y-79450000D01*
X200247351Y-94380015D02*
X200809433Y-93174625D01*
X199041962Y-93817932D02*
X200247351Y-94380015D01*
X197890951Y-93281207D02*
X199015115Y-90870428D01*
X199015115Y-90870428D02*
X178242541Y-81184018D01*
X197890951Y-93281207D02*
X177118376Y-83594797D01*
X177118376Y-83594797D02*
X178242541Y-81184018D01*
X110200000Y-132400000D02*
X83700000Y-132400000D01*
X83700000Y-132400000D02*
X83700000Y-123600000D01*
X83700000Y-123600000D02*
X110300000Y-123600000D01*
X110300000Y-123600000D02*
X110300000Y-132400000D01*
X100390000Y-142810000D02*
X100390000Y-134090000D01*
X100390000Y-134090000D02*
X120610000Y-134090000D01*
X120610000Y-134090000D02*
X120610000Y-142810000D01*
X120610000Y-142810000D02*
X100390000Y-142810000D01*
X100190000Y-139000000D02*
X99590000Y-138700000D01*
X99590000Y-138700000D02*
X99590000Y-139300000D01*
X99590000Y-139300000D02*
X100190000Y-139000000D01*
X84940000Y-134090000D02*
X84940000Y-141110000D01*
X84940000Y-141110000D02*
X86140000Y-141110000D01*
X86140000Y-141110000D02*
X86140000Y-142810000D01*
X86140000Y-142810000D02*
X95780000Y-142810000D01*
X95780000Y-142810000D02*
X95780000Y-141110000D01*
X95780000Y-141110000D02*
X96980000Y-141110000D01*
X96980000Y-141110000D02*
X96980000Y-134090000D01*
X96980000Y-134090000D02*
X84940000Y-134090000D01*
X84740000Y-139000000D02*
X84140000Y-138700000D01*
X84140000Y-138700000D02*
X84140000Y-139300000D01*
X84140000Y-139300000D02*
X84740000Y-139000000D01*
X45024361Y-136349999D02*
X48709592Y-128446995D01*
X48709592Y-128446995D02*
X57972058Y-132766154D01*
X57972058Y-132766154D02*
X54286827Y-140669158D01*
X54286827Y-140669158D02*
X45024361Y-136349999D01*
X46453275Y-132812443D02*
X46036276Y-132286979D01*
X46036276Y-132286979D02*
X45782705Y-132830764D01*
X45782705Y-132830764D02*
X46453275Y-132812443D01*
X35024361Y-131849999D02*
X38709592Y-123946995D01*
X38709592Y-123946995D02*
X47972058Y-128266154D01*
X47972058Y-128266154D02*
X44286827Y-136169158D01*
X44286827Y-136169158D02*
X35024361Y-131849999D01*
X36453275Y-128312443D02*
X36036276Y-127786979D01*
X36036276Y-127786979D02*
X35782705Y-128330764D01*
X35782705Y-128330764D02*
X36453275Y-128312443D01*
X25024361Y-127349999D02*
X28709592Y-119446995D01*
X28709592Y-119446995D02*
X37972058Y-123766154D01*
X37972058Y-123766154D02*
X34286827Y-131669158D01*
X34286827Y-131669158D02*
X25024361Y-127349999D01*
X26453275Y-123812443D02*
X26036276Y-123286979D01*
X26036276Y-123286979D02*
X25782705Y-123830764D01*
X25782705Y-123830764D02*
X26453275Y-123812443D01*
X153420000Y-145790000D02*
X153420000Y-146800000D01*
X158500000Y-145790000D02*
X153420000Y-145790000D01*
X158500000Y-146800000D02*
X158500000Y-145790000D01*
X152050000Y-146900000D02*
X159850000Y-146900000D01*
X152050000Y-140850000D02*
X152050000Y-146900000D01*
X159850000Y-140850000D02*
X152050000Y-140850000D01*
X159850000Y-146900000D02*
X159850000Y-140850000D01*
X148350000Y-146900000D02*
X148350000Y-140850000D01*
X148350000Y-140850000D02*
X140550000Y-140850000D01*
X140550000Y-140850000D02*
X140550000Y-146900000D01*
X140550000Y-146900000D02*
X148350000Y-146900000D01*
X147000000Y-146800000D02*
X147000000Y-145790000D01*
X147000000Y-145790000D02*
X141920000Y-145790000D01*
X141920000Y-145790000D02*
X141920000Y-146800000D01*
D11*
X122128571Y-81319047D02*
X122176190Y-81461904D01*
X122223809Y-81509523D01*
X122319047Y-81557142D01*
X122461904Y-81557142D01*
X122557142Y-81509523D01*
X122604761Y-81461904D01*
X122652380Y-81366666D01*
X122652380Y-80985714D01*
X121652380Y-80985714D01*
X121652380Y-81319047D01*
X121700000Y-81414285D01*
X121747619Y-81461904D01*
X121842857Y-81509523D01*
X121938095Y-81509523D01*
X122033333Y-81461904D01*
X122080952Y-81414285D01*
X122128571Y-81319047D01*
X122128571Y-80985714D01*
X121652380Y-81890476D02*
X121652380Y-82557142D01*
X122652380Y-81890476D01*
X122652380Y-82557142D01*
X122652380Y-83461904D02*
X122652380Y-82890476D01*
X122652380Y-83176190D02*
X121652380Y-83176190D01*
X121795238Y-83080952D01*
X121890476Y-82985714D01*
X121938095Y-82890476D01*
X117611428Y-85629047D02*
X117611428Y-86390952D01*
X117992380Y-86010000D02*
X117230476Y-86010000D01*
X51452380Y-112238095D02*
X52261904Y-112238095D01*
X52357142Y-112285714D01*
X52404761Y-112333333D01*
X52452380Y-112428571D01*
X52452380Y-112619047D01*
X52404761Y-112714285D01*
X52357142Y-112761904D01*
X52261904Y-112809523D01*
X51452380Y-112809523D01*
X51452380Y-113761904D02*
X51452380Y-113285714D01*
X51928571Y-113238095D01*
X51880952Y-113285714D01*
X51833333Y-113380952D01*
X51833333Y-113619047D01*
X51880952Y-113714285D01*
X51928571Y-113761904D01*
X52023809Y-113809523D01*
X52261904Y-113809523D01*
X52357142Y-113761904D01*
X52404761Y-113714285D01*
X52452380Y-113619047D01*
X52452380Y-113380952D01*
X52404761Y-113285714D01*
X52357142Y-113238095D01*
X44952380Y-108738095D02*
X45761904Y-108738095D01*
X45857142Y-108785714D01*
X45904761Y-108833333D01*
X45952380Y-108928571D01*
X45952380Y-109119047D01*
X45904761Y-109214285D01*
X45857142Y-109261904D01*
X45761904Y-109309523D01*
X44952380Y-109309523D01*
X44952380Y-110214285D02*
X44952380Y-110023809D01*
X45000000Y-109928571D01*
X45047619Y-109880952D01*
X45190476Y-109785714D01*
X45380952Y-109738095D01*
X45761904Y-109738095D01*
X45857142Y-109785714D01*
X45904761Y-109833333D01*
X45952380Y-109928571D01*
X45952380Y-110119047D01*
X45904761Y-110214285D01*
X45857142Y-110261904D01*
X45761904Y-110309523D01*
X45523809Y-110309523D01*
X45428571Y-110261904D01*
X45380952Y-110214285D01*
X45333333Y-110119047D01*
X45333333Y-109928571D01*
X45380952Y-109833333D01*
X45428571Y-109785714D01*
X45523809Y-109738095D01*
X37952380Y-104738095D02*
X38761904Y-104738095D01*
X38857142Y-104785714D01*
X38904761Y-104833333D01*
X38952380Y-104928571D01*
X38952380Y-105119047D01*
X38904761Y-105214285D01*
X38857142Y-105261904D01*
X38761904Y-105309523D01*
X37952380Y-105309523D01*
X37952380Y-105690476D02*
X37952380Y-106357142D01*
X38952380Y-105928571D01*
X30952380Y-101738095D02*
X31761904Y-101738095D01*
X31857142Y-101785714D01*
X31904761Y-101833333D01*
X31952380Y-101928571D01*
X31952380Y-102119047D01*
X31904761Y-102214285D01*
X31857142Y-102261904D01*
X31761904Y-102309523D01*
X30952380Y-102309523D01*
X31380952Y-102928571D02*
X31333333Y-102833333D01*
X31285714Y-102785714D01*
X31190476Y-102738095D01*
X31142857Y-102738095D01*
X31047619Y-102785714D01*
X31000000Y-102833333D01*
X30952380Y-102928571D01*
X30952380Y-103119047D01*
X31000000Y-103214285D01*
X31047619Y-103261904D01*
X31142857Y-103309523D01*
X31190476Y-103309523D01*
X31285714Y-103261904D01*
X31333333Y-103214285D01*
X31380952Y-103119047D01*
X31380952Y-102928571D01*
X31428571Y-102833333D01*
X31476190Y-102785714D01*
X31571428Y-102738095D01*
X31761904Y-102738095D01*
X31857142Y-102785714D01*
X31904761Y-102833333D01*
X31952380Y-102928571D01*
X31952380Y-103119047D01*
X31904761Y-103214285D01*
X31857142Y-103261904D01*
X31761904Y-103309523D01*
X31571428Y-103309523D01*
X31476190Y-103261904D01*
X31428571Y-103214285D01*
X31380952Y-103119047D01*
X113714285Y-119452380D02*
X113714285Y-118452380D01*
X113333333Y-118452380D01*
X113238095Y-118500000D01*
X113190476Y-118547619D01*
X113142857Y-118642857D01*
X113142857Y-118785714D01*
X113190476Y-118880952D01*
X113238095Y-118928571D01*
X113333333Y-118976190D01*
X113714285Y-118976190D01*
X112761904Y-119404761D02*
X112619047Y-119452380D01*
X112380952Y-119452380D01*
X112285714Y-119404761D01*
X112238095Y-119357142D01*
X112190476Y-119261904D01*
X112190476Y-119166666D01*
X112238095Y-119071428D01*
X112285714Y-119023809D01*
X112380952Y-118976190D01*
X112571428Y-118928571D01*
X112666666Y-118880952D01*
X112714285Y-118833333D01*
X112761904Y-118738095D01*
X112761904Y-118642857D01*
X112714285Y-118547619D01*
X112666666Y-118500000D01*
X112571428Y-118452380D01*
X112333333Y-118452380D01*
X112190476Y-118500000D01*
X111238095Y-119452380D02*
X111809523Y-119452380D01*
X111523809Y-119452380D02*
X111523809Y-118452380D01*
X111619047Y-118595238D01*
X111714285Y-118690476D01*
X111809523Y-118738095D01*
X87952380Y-79238095D02*
X88761904Y-79238095D01*
X88857142Y-79285714D01*
X88904761Y-79333333D01*
X88952380Y-79428571D01*
X88952380Y-79619047D01*
X88904761Y-79714285D01*
X88857142Y-79761904D01*
X88761904Y-79809523D01*
X87952380Y-79809523D01*
X88285714Y-80714285D02*
X88952380Y-80714285D01*
X87904761Y-80476190D02*
X88619047Y-80238095D01*
X88619047Y-80857142D01*
X201360302Y-93063707D02*
X202007665Y-93365577D01*
X202157262Y-93382794D01*
X202283826Y-93336728D01*
X202387358Y-93227380D01*
X202427607Y-93141065D01*
X201843991Y-94392633D02*
X202085488Y-93874743D01*
X201964739Y-94133688D02*
X201058432Y-93711070D01*
X201228154Y-93685129D01*
X201354718Y-93639063D01*
X201438125Y-93572873D01*
X178348470Y-79548397D02*
X178331254Y-79697995D01*
X178230630Y-79913782D01*
X178147223Y-79979973D01*
X178083941Y-80003005D01*
X177977501Y-80005914D01*
X177891186Y-79965664D01*
X177824996Y-79882257D01*
X177801963Y-79818975D01*
X177799055Y-79712535D01*
X177836396Y-79519781D01*
X177833488Y-79413341D01*
X177810455Y-79350059D01*
X177744265Y-79266652D01*
X177657950Y-79226403D01*
X177551510Y-79229311D01*
X177488228Y-79252344D01*
X177404821Y-79318534D01*
X177304198Y-79534321D01*
X177286981Y-79683919D01*
X177494277Y-80253458D02*
X177353404Y-80555561D01*
X177767763Y-80906405D02*
X177969009Y-80474830D01*
X177062702Y-80052212D01*
X176861455Y-80483787D01*
X177345144Y-81812713D02*
X177054442Y-81309363D01*
X177586640Y-81294823D02*
X176680333Y-80872204D01*
X176519335Y-81217465D01*
X176522243Y-81323904D01*
X176545276Y-81387186D01*
X176611467Y-81470593D01*
X176740939Y-81530967D01*
X176847379Y-81528059D01*
X176910661Y-81505026D01*
X176994068Y-81438836D01*
X177155065Y-81093576D01*
X176318088Y-81649040D02*
X177083523Y-82373761D01*
X176036343Y-82253245D01*
X176801778Y-82977966D02*
X175895470Y-82555347D01*
X176272720Y-83887182D02*
X176336002Y-83864149D01*
X176439534Y-83754801D01*
X176479783Y-83668486D01*
X176497000Y-83518889D01*
X176450934Y-83392324D01*
X176384744Y-83308917D01*
X176232238Y-83185261D01*
X176102766Y-83124887D01*
X175910011Y-83087546D01*
X175803571Y-83090454D01*
X175677007Y-83136520D01*
X175573475Y-83245868D01*
X175533226Y-83332183D01*
X175516009Y-83481780D01*
X175539042Y-83545062D01*
X175703180Y-84094477D02*
X175562308Y-84396580D01*
X175976666Y-84747424D02*
X176177913Y-84315849D01*
X175271605Y-83893230D01*
X175070358Y-84324806D01*
X97333333Y-133128571D02*
X97666666Y-133128571D01*
X97666666Y-133652380D02*
X97666666Y-132652380D01*
X97190476Y-132652380D01*
X96285714Y-133652380D02*
X96857142Y-133652380D01*
X96571428Y-133652380D02*
X96571428Y-132652380D01*
X96666666Y-132795238D01*
X96761904Y-132890476D01*
X96857142Y-132938095D01*
X110833333Y-143352380D02*
X110833333Y-144066666D01*
X110880952Y-144209523D01*
X110976190Y-144304761D01*
X111119047Y-144352380D01*
X111214285Y-144352380D01*
X110404761Y-143447619D02*
X110357142Y-143400000D01*
X110261904Y-143352380D01*
X110023809Y-143352380D01*
X109928571Y-143400000D01*
X109880952Y-143447619D01*
X109833333Y-143542857D01*
X109833333Y-143638095D01*
X109880952Y-143780952D01*
X110452380Y-144352380D01*
X109833333Y-144352380D01*
X91293333Y-143352380D02*
X91293333Y-144066666D01*
X91340952Y-144209523D01*
X91436190Y-144304761D01*
X91579047Y-144352380D01*
X91674285Y-144352380D01*
X90340952Y-143352380D02*
X90817142Y-143352380D01*
X90864761Y-143828571D01*
X90817142Y-143780952D01*
X90721904Y-143733333D01*
X90483809Y-143733333D01*
X90388571Y-143780952D01*
X90340952Y-143828571D01*
X90293333Y-143923809D01*
X90293333Y-144161904D01*
X90340952Y-144257142D01*
X90388571Y-144304761D01*
X90483809Y-144352380D01*
X90721904Y-144352380D01*
X90817142Y-144304761D01*
X90864761Y-144257142D01*
X52533536Y-140644561D02*
X52231666Y-141291924D01*
X52214449Y-141441521D01*
X52260515Y-141568085D01*
X52369863Y-141671617D01*
X52456178Y-141711866D01*
X51713543Y-140262192D02*
X51886173Y-140342691D01*
X51952364Y-140426098D01*
X51975396Y-140489380D01*
X52001337Y-140659102D01*
X51963996Y-140851856D01*
X51802999Y-141197116D01*
X51719592Y-141263307D01*
X51656310Y-141286340D01*
X51549870Y-141289248D01*
X51377240Y-141208749D01*
X51311050Y-141125342D01*
X51288017Y-141062060D01*
X51285109Y-140955620D01*
X51385732Y-140739833D01*
X51469139Y-140673642D01*
X51532421Y-140650610D01*
X51638861Y-140647701D01*
X51811491Y-140728200D01*
X51877681Y-140811607D01*
X51900714Y-140874889D01*
X51903622Y-140981329D01*
X42533536Y-136144561D02*
X42231666Y-136791924D01*
X42214449Y-136941521D01*
X42260515Y-137068085D01*
X42369863Y-137171617D01*
X42456178Y-137211866D01*
X42188276Y-135983563D02*
X41584071Y-135701818D01*
X41549870Y-136789248D01*
X32533536Y-131394561D02*
X32231666Y-132041924D01*
X32214449Y-132191521D01*
X32260515Y-132318085D01*
X32369863Y-132421617D01*
X32456178Y-132461866D01*
X31791366Y-131521358D02*
X31897806Y-131518449D01*
X31961088Y-131495417D01*
X32044495Y-131429226D01*
X32064620Y-131386069D01*
X32061711Y-131279629D01*
X32038679Y-131216347D01*
X31972488Y-131132940D01*
X31799858Y-131052441D01*
X31693418Y-131055349D01*
X31630136Y-131078382D01*
X31546729Y-131144573D01*
X31526605Y-131187730D01*
X31529513Y-131294170D01*
X31552546Y-131357452D01*
X31618736Y-131440859D01*
X31791366Y-131521358D01*
X31857556Y-131604765D01*
X31880589Y-131668047D01*
X31883497Y-131774486D01*
X31802999Y-131947116D01*
X31719592Y-132013307D01*
X31656310Y-132036340D01*
X31549870Y-132039248D01*
X31377240Y-131958749D01*
X31311050Y-131875342D01*
X31288017Y-131812060D01*
X31285109Y-131705620D01*
X31365607Y-131532990D01*
X31449014Y-131466800D01*
X31512296Y-131443767D01*
X31618736Y-131440859D01*
X162309523Y-143952380D02*
X162309523Y-142952380D01*
X161976190Y-143666666D01*
X161642857Y-142952380D01*
X161642857Y-143952380D01*
X160642857Y-143952380D02*
X161214285Y-143952380D01*
X160928571Y-143952380D02*
X160928571Y-142952380D01*
X161023809Y-143095238D01*
X161119047Y-143190476D01*
X161214285Y-143238095D01*
X139809523Y-143952380D02*
X139809523Y-142952380D01*
X139476190Y-143666666D01*
X139142857Y-142952380D01*
X139142857Y-143952380D01*
X138714285Y-143047619D02*
X138666666Y-143000000D01*
X138571428Y-142952380D01*
X138333333Y-142952380D01*
X138238095Y-143000000D01*
X138190476Y-143047619D01*
X138142857Y-143142857D01*
X138142857Y-143238095D01*
X138190476Y-143380952D01*
X138761904Y-143952380D01*
X138142857Y-143952380D01*
M02*
