G04 #@! TF.GenerationSoftware,KiCad,Pcbnew,5.1.9-73d0e3b20d~88~ubuntu20.04.1*
G04 #@! TF.CreationDate,2021-07-26T19:08:20+09:00*
G04 #@! TF.ProjectId,ESP32DUALDIAL,45535033-3244-4554-914c-4449414c2e6b,rev?*
G04 #@! TF.SameCoordinates,Original*
G04 #@! TF.FileFunction,Legend,Top*
G04 #@! TF.FilePolarity,Positive*
%FSLAX46Y46*%
G04 Gerber Fmt 4.6, Leading zero omitted, Abs format (unit mm)*
G04 Created by KiCad (PCBNEW 5.1.9-73d0e3b20d~88~ubuntu20.04.1) date 2021-07-26 19:08:20*
%MOMM*%
%LPD*%
G01*
G04 APERTURE LIST*
%ADD10C,0.175000*%
%ADD11C,0.150000*%
%ADD12C,0.300000*%
%ADD13C,0.250000*%
%ADD14C,0.177500*%
%ADD15C,0.200000*%
%ADD16C,0.120000*%
%ADD17C,0.125000*%
G04 APERTURE END LIST*
D10*
X101842857Y-145907142D02*
X101328571Y-145907142D01*
X101585714Y-145907142D02*
X101585714Y-145007142D01*
X101500000Y-145135714D01*
X101414285Y-145221428D01*
X101328571Y-145264285D01*
X102400000Y-145007142D02*
X102485714Y-145007142D01*
X102571428Y-145050000D01*
X102614285Y-145092857D01*
X102657142Y-145178571D01*
X102700000Y-145350000D01*
X102700000Y-145564285D01*
X102657142Y-145735714D01*
X102614285Y-145821428D01*
X102571428Y-145864285D01*
X102485714Y-145907142D01*
X102400000Y-145907142D01*
X102314285Y-145864285D01*
X102271428Y-145821428D01*
X102228571Y-145735714D01*
X102185714Y-145564285D01*
X102185714Y-145350000D01*
X102228571Y-145178571D01*
X102271428Y-145092857D01*
X102314285Y-145050000D01*
X102400000Y-145007142D01*
X103257142Y-145007142D02*
X103342857Y-145007142D01*
X103428571Y-145050000D01*
X103471428Y-145092857D01*
X103514285Y-145178571D01*
X103557142Y-145350000D01*
X103557142Y-145564285D01*
X103514285Y-145735714D01*
X103471428Y-145821428D01*
X103428571Y-145864285D01*
X103342857Y-145907142D01*
X103257142Y-145907142D01*
X103171428Y-145864285D01*
X103128571Y-145821428D01*
X103085714Y-145735714D01*
X103042857Y-145564285D01*
X103042857Y-145350000D01*
X103085714Y-145178571D01*
X103128571Y-145092857D01*
X103171428Y-145050000D01*
X103257142Y-145007142D01*
X103814285Y-145007142D02*
X104114285Y-145907142D01*
X104414285Y-145007142D01*
X107414285Y-145864285D02*
X107542857Y-145907142D01*
X107757142Y-145907142D01*
X107842857Y-145864285D01*
X107885714Y-145821428D01*
X107928571Y-145735714D01*
X107928571Y-145650000D01*
X107885714Y-145564285D01*
X107842857Y-145521428D01*
X107757142Y-145478571D01*
X107585714Y-145435714D01*
X107500000Y-145392857D01*
X107457142Y-145350000D01*
X107414285Y-145264285D01*
X107414285Y-145178571D01*
X107457142Y-145092857D01*
X107500000Y-145050000D01*
X107585714Y-145007142D01*
X107800000Y-145007142D01*
X107928571Y-145050000D01*
X108228571Y-145007142D02*
X108442857Y-145907142D01*
X108614285Y-145264285D01*
X108785714Y-145907142D01*
X109000000Y-145007142D01*
X112042857Y-145864285D02*
X112171428Y-145907142D01*
X112385714Y-145907142D01*
X112471428Y-145864285D01*
X112514285Y-145821428D01*
X112557142Y-145735714D01*
X112557142Y-145650000D01*
X112514285Y-145564285D01*
X112471428Y-145521428D01*
X112385714Y-145478571D01*
X112214285Y-145435714D01*
X112128571Y-145392857D01*
X112085714Y-145350000D01*
X112042857Y-145264285D01*
X112042857Y-145178571D01*
X112085714Y-145092857D01*
X112128571Y-145050000D01*
X112214285Y-145007142D01*
X112428571Y-145007142D01*
X112557142Y-145050000D01*
X112857142Y-145007142D02*
X113071428Y-145907142D01*
X113242857Y-145264285D01*
X113414285Y-145907142D01*
X113628571Y-145007142D01*
X117185714Y-145907142D02*
X116671428Y-145907142D01*
X116928571Y-145907142D02*
X116928571Y-145007142D01*
X116842857Y-145135714D01*
X116757142Y-145221428D01*
X116671428Y-145264285D01*
X117742857Y-145007142D02*
X117828571Y-145007142D01*
X117914285Y-145050000D01*
X117957142Y-145092857D01*
X117999999Y-145178571D01*
X118042857Y-145350000D01*
X118042857Y-145564285D01*
X117999999Y-145735714D01*
X117957142Y-145821428D01*
X117914285Y-145864285D01*
X117828571Y-145907142D01*
X117742857Y-145907142D01*
X117657142Y-145864285D01*
X117614285Y-145821428D01*
X117571428Y-145735714D01*
X117528571Y-145564285D01*
X117528571Y-145350000D01*
X117571428Y-145178571D01*
X117614285Y-145092857D01*
X117657142Y-145050000D01*
X117742857Y-145007142D01*
X118600000Y-145007142D02*
X118685714Y-145007142D01*
X118771428Y-145050000D01*
X118814285Y-145092857D01*
X118857142Y-145178571D01*
X118900000Y-145350000D01*
X118900000Y-145564285D01*
X118857142Y-145735714D01*
X118814285Y-145821428D01*
X118771428Y-145864285D01*
X118685714Y-145907142D01*
X118600000Y-145907142D01*
X118514285Y-145864285D01*
X118471428Y-145821428D01*
X118428571Y-145735714D01*
X118385714Y-145564285D01*
X118385714Y-145350000D01*
X118428571Y-145178571D01*
X118471428Y-145092857D01*
X118514285Y-145050000D01*
X118600000Y-145007142D01*
X119157142Y-145007142D02*
X119457142Y-145907142D01*
X119757142Y-145007142D01*
X89700000Y-145816666D02*
X89700000Y-145116666D01*
X89966666Y-145116666D01*
X90033333Y-145150000D01*
X90066666Y-145183333D01*
X90100000Y-145250000D01*
X90100000Y-145350000D01*
X90066666Y-145416666D01*
X90033333Y-145450000D01*
X89966666Y-145483333D01*
X89700000Y-145483333D01*
X90400000Y-145116666D02*
X90400000Y-145683333D01*
X90433333Y-145750000D01*
X90466666Y-145783333D01*
X90533333Y-145816666D01*
X90666666Y-145816666D01*
X90733333Y-145783333D01*
X90766666Y-145750000D01*
X90800000Y-145683333D01*
X90800000Y-145116666D01*
X91133333Y-145816666D02*
X91133333Y-145116666D01*
X91366666Y-145616666D01*
X91600000Y-145116666D01*
X91600000Y-145816666D01*
X91933333Y-145816666D02*
X91933333Y-145116666D01*
X92200000Y-145116666D01*
X92266666Y-145150000D01*
X92300000Y-145183333D01*
X92333333Y-145250000D01*
X92333333Y-145350000D01*
X92300000Y-145416666D01*
X92266666Y-145450000D01*
X92200000Y-145483333D01*
X91933333Y-145483333D01*
D11*
X47776647Y-138506579D02*
X47880225Y-138554879D01*
X47917927Y-138609238D01*
X47941541Y-138693809D01*
X47911087Y-138826724D01*
X47812476Y-139038196D01*
X47730232Y-139146962D01*
X47650269Y-139183233D01*
X47584392Y-139189294D01*
X47480814Y-139140995D01*
X47443112Y-139086635D01*
X47419498Y-139002065D01*
X47449953Y-138869149D01*
X47548564Y-138657677D01*
X47630807Y-138548911D01*
X47710771Y-138512640D01*
X47776647Y-138506579D01*
X48190959Y-138699776D02*
X48553482Y-138868824D01*
X47895126Y-139334192D01*
X48257649Y-139503239D01*
X48864216Y-139013721D02*
X48967794Y-139062020D01*
X49005496Y-139116380D01*
X49029111Y-139200950D01*
X48998656Y-139333866D01*
X48900045Y-139545338D01*
X48817801Y-139654104D01*
X48737838Y-139690375D01*
X48671962Y-139696436D01*
X48568384Y-139648137D01*
X48530682Y-139593777D01*
X48507067Y-139509207D01*
X48537522Y-139376291D01*
X48636133Y-139164819D01*
X48718376Y-139056053D01*
X48798340Y-139019782D01*
X48864216Y-139013721D01*
X49034485Y-139865483D02*
X49330317Y-139231068D01*
X49345219Y-140010381D01*
X49641052Y-139375965D01*
X49759124Y-139798816D02*
X49940385Y-139883340D01*
X49863109Y-140251877D02*
X49604164Y-140131129D01*
X49899997Y-139496714D01*
X50158942Y-139617462D01*
X50380999Y-140493373D02*
X50070265Y-140348476D01*
X50225632Y-140420924D02*
X50521465Y-139786509D01*
X50427414Y-139852990D01*
X50347450Y-139889261D01*
X50281574Y-139895322D01*
X37776647Y-134006579D02*
X37880225Y-134054879D01*
X37917927Y-134109238D01*
X37941541Y-134193809D01*
X37911087Y-134326724D01*
X37812476Y-134538196D01*
X37730232Y-134646962D01*
X37650269Y-134683233D01*
X37584392Y-134689294D01*
X37480814Y-134640995D01*
X37443112Y-134586635D01*
X37419498Y-134502065D01*
X37449953Y-134369149D01*
X37548564Y-134157677D01*
X37630807Y-134048911D01*
X37710771Y-134012640D01*
X37776647Y-134006579D01*
X38190959Y-134199776D02*
X38553482Y-134368824D01*
X37895126Y-134834192D01*
X38257649Y-135003239D01*
X38864216Y-134513721D02*
X38967794Y-134562020D01*
X39005496Y-134616380D01*
X39029111Y-134700950D01*
X38998656Y-134833866D01*
X38900045Y-135045338D01*
X38817801Y-135154104D01*
X38737838Y-135190375D01*
X38671962Y-135196436D01*
X38568384Y-135148137D01*
X38530682Y-135093777D01*
X38507067Y-135009207D01*
X38537522Y-134876291D01*
X38636133Y-134664819D01*
X38718376Y-134556053D01*
X38798340Y-134519782D01*
X38864216Y-134513721D01*
X39034485Y-135365483D02*
X39330317Y-134731068D01*
X39345219Y-135510381D01*
X39641052Y-134875965D01*
X39759124Y-135298816D02*
X39940385Y-135383340D01*
X39863109Y-135751877D02*
X39604164Y-135631129D01*
X39899997Y-134996714D01*
X40158942Y-135117462D01*
X40337923Y-135274481D02*
X40377905Y-135256345D01*
X40443781Y-135250284D01*
X40573254Y-135310659D01*
X40610956Y-135365018D01*
X40622763Y-135407303D01*
X40620483Y-135479799D01*
X40592308Y-135540219D01*
X40524152Y-135618775D01*
X40044371Y-135836401D01*
X40380999Y-135993373D01*
X27776647Y-129506579D02*
X27880225Y-129554879D01*
X27917927Y-129609238D01*
X27941541Y-129693809D01*
X27911087Y-129826724D01*
X27812476Y-130038196D01*
X27730232Y-130146962D01*
X27650269Y-130183233D01*
X27584392Y-130189294D01*
X27480814Y-130140995D01*
X27443112Y-130086635D01*
X27419498Y-130002065D01*
X27449953Y-129869149D01*
X27548564Y-129657677D01*
X27630807Y-129548911D01*
X27710771Y-129512640D01*
X27776647Y-129506579D01*
X28190959Y-129699776D02*
X28553482Y-129868824D01*
X27895126Y-130334192D01*
X28257649Y-130503239D01*
X28864216Y-130013721D02*
X28967794Y-130062020D01*
X29005496Y-130116380D01*
X29029111Y-130200950D01*
X28998656Y-130333866D01*
X28900045Y-130545338D01*
X28817801Y-130654104D01*
X28737838Y-130690375D01*
X28671962Y-130696436D01*
X28568384Y-130648137D01*
X28530682Y-130593777D01*
X28507067Y-130509207D01*
X28537522Y-130376291D01*
X28636133Y-130164819D01*
X28718376Y-130056053D01*
X28798340Y-130019782D01*
X28864216Y-130013721D01*
X29034485Y-130865483D02*
X29330317Y-130231068D01*
X29345219Y-131010381D01*
X29641052Y-130375965D01*
X29759124Y-130798816D02*
X29940385Y-130883340D01*
X29863109Y-131251877D02*
X29604164Y-131131129D01*
X29899997Y-130496714D01*
X30158942Y-130617462D01*
X30340203Y-130701985D02*
X30676832Y-130858958D01*
X30382872Y-131016116D01*
X30460556Y-131052341D01*
X30498257Y-131106700D01*
X30510065Y-131148986D01*
X30507785Y-131221481D01*
X30437348Y-131372532D01*
X30383279Y-131420878D01*
X30343297Y-131439013D01*
X30277421Y-131445074D01*
X30122054Y-131372625D01*
X30084352Y-131318265D01*
X30072545Y-131275980D01*
X154014285Y-75950000D02*
X153814285Y-75950000D01*
X153814285Y-76316666D02*
X153814285Y-75616666D01*
X154100000Y-75616666D01*
X154300000Y-76116666D02*
X154585714Y-76116666D01*
X154242857Y-76316666D02*
X154442857Y-75616666D01*
X154642857Y-76316666D01*
X154842857Y-76316666D02*
X154842857Y-75616666D01*
X155185714Y-76316666D01*
X155185714Y-75616666D01*
X177485714Y-93783333D02*
X177571428Y-93816666D01*
X177714285Y-93816666D01*
X177771428Y-93783333D01*
X177800000Y-93750000D01*
X177828571Y-93683333D01*
X177828571Y-93616666D01*
X177800000Y-93550000D01*
X177771428Y-93516666D01*
X177714285Y-93483333D01*
X177600000Y-93450000D01*
X177542857Y-93416666D01*
X177514285Y-93383333D01*
X177485714Y-93316666D01*
X177485714Y-93250000D01*
X177514285Y-93183333D01*
X177542857Y-93150000D01*
X177600000Y-93116666D01*
X177742857Y-93116666D01*
X177828571Y-93150000D01*
X178028571Y-93116666D02*
X178171428Y-93816666D01*
X178285714Y-93316666D01*
X178400000Y-93816666D01*
X178542857Y-93116666D01*
X124985714Y-78283333D02*
X125071428Y-78316666D01*
X125214285Y-78316666D01*
X125271428Y-78283333D01*
X125300000Y-78250000D01*
X125328571Y-78183333D01*
X125328571Y-78116666D01*
X125300000Y-78050000D01*
X125271428Y-78016666D01*
X125214285Y-77983333D01*
X125100000Y-77950000D01*
X125042857Y-77916666D01*
X125014285Y-77883333D01*
X124985714Y-77816666D01*
X124985714Y-77750000D01*
X125014285Y-77683333D01*
X125042857Y-77650000D01*
X125100000Y-77616666D01*
X125242857Y-77616666D01*
X125328571Y-77650000D01*
X125528571Y-77616666D02*
X125671428Y-78316666D01*
X125785714Y-77816666D01*
X125900000Y-78316666D01*
X126042857Y-77616666D01*
X83471428Y-81116666D02*
X83585714Y-81116666D01*
X83642857Y-81150000D01*
X83700000Y-81216666D01*
X83728571Y-81350000D01*
X83728571Y-81583333D01*
X83700000Y-81716666D01*
X83642857Y-81783333D01*
X83585714Y-81816666D01*
X83471428Y-81816666D01*
X83414285Y-81783333D01*
X83357142Y-81716666D01*
X83328571Y-81583333D01*
X83328571Y-81350000D01*
X83357142Y-81216666D01*
X83414285Y-81150000D01*
X83471428Y-81116666D01*
X83928571Y-81116666D02*
X84328571Y-81116666D01*
X83928571Y-81816666D01*
X84328571Y-81816666D01*
X84671428Y-81116666D02*
X84785714Y-81116666D01*
X84842857Y-81150000D01*
X84900000Y-81216666D01*
X84928571Y-81350000D01*
X84928571Y-81583333D01*
X84900000Y-81716666D01*
X84842857Y-81783333D01*
X84785714Y-81816666D01*
X84671428Y-81816666D01*
X84614285Y-81783333D01*
X84557142Y-81716666D01*
X84528571Y-81583333D01*
X84528571Y-81350000D01*
X84557142Y-81216666D01*
X84614285Y-81150000D01*
X84671428Y-81116666D01*
X85185714Y-81816666D02*
X85185714Y-81116666D01*
X85528571Y-81816666D01*
X85528571Y-81116666D01*
X85814285Y-81450000D02*
X86014285Y-81450000D01*
X86100000Y-81816666D02*
X85814285Y-81816666D01*
X85814285Y-81116666D01*
X86100000Y-81116666D01*
X86300000Y-81116666D02*
X86671428Y-81116666D01*
X86471428Y-81383333D01*
X86557142Y-81383333D01*
X86614285Y-81416666D01*
X86642857Y-81450000D01*
X86671428Y-81516666D01*
X86671428Y-81683333D01*
X86642857Y-81750000D01*
X86614285Y-81783333D01*
X86557142Y-81816666D01*
X86385714Y-81816666D01*
X86328571Y-81783333D01*
X86300000Y-81750000D01*
X79471428Y-81116666D02*
X79585714Y-81116666D01*
X79642857Y-81150000D01*
X79700000Y-81216666D01*
X79728571Y-81350000D01*
X79728571Y-81583333D01*
X79700000Y-81716666D01*
X79642857Y-81783333D01*
X79585714Y-81816666D01*
X79471428Y-81816666D01*
X79414285Y-81783333D01*
X79357142Y-81716666D01*
X79328571Y-81583333D01*
X79328571Y-81350000D01*
X79357142Y-81216666D01*
X79414285Y-81150000D01*
X79471428Y-81116666D01*
X79928571Y-81116666D02*
X80328571Y-81116666D01*
X79928571Y-81816666D01*
X80328571Y-81816666D01*
X80671428Y-81116666D02*
X80785714Y-81116666D01*
X80842857Y-81150000D01*
X80900000Y-81216666D01*
X80928571Y-81350000D01*
X80928571Y-81583333D01*
X80900000Y-81716666D01*
X80842857Y-81783333D01*
X80785714Y-81816666D01*
X80671428Y-81816666D01*
X80614285Y-81783333D01*
X80557142Y-81716666D01*
X80528571Y-81583333D01*
X80528571Y-81350000D01*
X80557142Y-81216666D01*
X80614285Y-81150000D01*
X80671428Y-81116666D01*
X81185714Y-81816666D02*
X81185714Y-81116666D01*
X81528571Y-81816666D01*
X81528571Y-81116666D01*
X81814285Y-81450000D02*
X82014285Y-81450000D01*
X82100000Y-81816666D02*
X81814285Y-81816666D01*
X81814285Y-81116666D01*
X82100000Y-81116666D01*
X82328571Y-81183333D02*
X82357142Y-81150000D01*
X82414285Y-81116666D01*
X82557142Y-81116666D01*
X82614285Y-81150000D01*
X82642857Y-81183333D01*
X82671428Y-81250000D01*
X82671428Y-81316666D01*
X82642857Y-81416666D01*
X82300000Y-81816666D01*
X82671428Y-81816666D01*
X75471428Y-81116666D02*
X75585714Y-81116666D01*
X75642857Y-81150000D01*
X75700000Y-81216666D01*
X75728571Y-81350000D01*
X75728571Y-81583333D01*
X75700000Y-81716666D01*
X75642857Y-81783333D01*
X75585714Y-81816666D01*
X75471428Y-81816666D01*
X75414285Y-81783333D01*
X75357142Y-81716666D01*
X75328571Y-81583333D01*
X75328571Y-81350000D01*
X75357142Y-81216666D01*
X75414285Y-81150000D01*
X75471428Y-81116666D01*
X75928571Y-81116666D02*
X76328571Y-81116666D01*
X75928571Y-81816666D01*
X76328571Y-81816666D01*
X76671428Y-81116666D02*
X76785714Y-81116666D01*
X76842857Y-81150000D01*
X76900000Y-81216666D01*
X76928571Y-81350000D01*
X76928571Y-81583333D01*
X76900000Y-81716666D01*
X76842857Y-81783333D01*
X76785714Y-81816666D01*
X76671428Y-81816666D01*
X76614285Y-81783333D01*
X76557142Y-81716666D01*
X76528571Y-81583333D01*
X76528571Y-81350000D01*
X76557142Y-81216666D01*
X76614285Y-81150000D01*
X76671428Y-81116666D01*
X77185714Y-81816666D02*
X77185714Y-81116666D01*
X77528571Y-81816666D01*
X77528571Y-81116666D01*
X77814285Y-81450000D02*
X78014285Y-81450000D01*
X78100000Y-81816666D02*
X77814285Y-81816666D01*
X77814285Y-81116666D01*
X78100000Y-81116666D01*
X78671428Y-81816666D02*
X78328571Y-81816666D01*
X78500000Y-81816666D02*
X78500000Y-81116666D01*
X78442857Y-81216666D01*
X78385714Y-81283333D01*
X78328571Y-81316666D01*
D10*
X71700000Y-81816666D02*
X71700000Y-81116666D01*
X71966666Y-81116666D01*
X72033333Y-81150000D01*
X72066666Y-81183333D01*
X72100000Y-81250000D01*
X72100000Y-81350000D01*
X72066666Y-81416666D01*
X72033333Y-81450000D01*
X71966666Y-81483333D01*
X71700000Y-81483333D01*
X72400000Y-81116666D02*
X72400000Y-81683333D01*
X72433333Y-81750000D01*
X72466666Y-81783333D01*
X72533333Y-81816666D01*
X72666666Y-81816666D01*
X72733333Y-81783333D01*
X72766666Y-81750000D01*
X72800000Y-81683333D01*
X72800000Y-81116666D01*
X73133333Y-81816666D02*
X73133333Y-81116666D01*
X73366666Y-81616666D01*
X73600000Y-81116666D01*
X73600000Y-81816666D01*
X73933333Y-81816666D02*
X73933333Y-81116666D01*
X74200000Y-81116666D01*
X74266666Y-81150000D01*
X74300000Y-81183333D01*
X74333333Y-81250000D01*
X74333333Y-81350000D01*
X74300000Y-81416666D01*
X74266666Y-81450000D01*
X74200000Y-81483333D01*
X73933333Y-81483333D01*
D11*
X144500000Y-137250000D02*
X144500000Y-139000000D01*
D12*
X107071428Y-92678571D02*
X106214285Y-92678571D01*
X106642857Y-92678571D02*
X106642857Y-91178571D01*
X106500000Y-91392857D01*
X106357142Y-91535714D01*
X106214285Y-91607142D01*
X107642857Y-91321428D02*
X107714285Y-91250000D01*
X107857142Y-91178571D01*
X108214285Y-91178571D01*
X108357142Y-91250000D01*
X108428571Y-91321428D01*
X108500000Y-91464285D01*
X108500000Y-91607142D01*
X108428571Y-91821428D01*
X107571428Y-92678571D01*
X108500000Y-92678571D01*
X108928571Y-91178571D02*
X109428571Y-92678571D01*
X109928571Y-91178571D01*
X101142857Y-91178571D02*
X102071428Y-91178571D01*
X101571428Y-91750000D01*
X101785714Y-91750000D01*
X101928571Y-91821428D01*
X102000000Y-91892857D01*
X102071428Y-92035714D01*
X102071428Y-92392857D01*
X102000000Y-92535714D01*
X101928571Y-92607142D01*
X101785714Y-92678571D01*
X101357142Y-92678571D01*
X101214285Y-92607142D01*
X101142857Y-92535714D01*
X102500000Y-91178571D02*
X103000000Y-92678571D01*
X103500000Y-91178571D01*
X103857142Y-91178571D02*
X104785714Y-91178571D01*
X104285714Y-91750000D01*
X104500000Y-91750000D01*
X104642857Y-91821428D01*
X104714285Y-91892857D01*
X104785714Y-92035714D01*
X104785714Y-92392857D01*
X104714285Y-92535714D01*
X104642857Y-92607142D01*
X104500000Y-92678571D01*
X104071428Y-92678571D01*
X103928571Y-92607142D01*
X103857142Y-92535714D01*
D13*
X177488095Y-116452380D02*
X177488095Y-115785714D01*
X177488095Y-115880952D02*
X177535714Y-115833333D01*
X177630952Y-115785714D01*
X177773809Y-115785714D01*
X177869047Y-115833333D01*
X177916666Y-115928571D01*
X177916666Y-116452380D01*
X177916666Y-115928571D02*
X177964285Y-115833333D01*
X178059523Y-115785714D01*
X178202380Y-115785714D01*
X178297619Y-115833333D01*
X178345238Y-115928571D01*
X178345238Y-116452380D01*
X178964285Y-116452380D02*
X178869047Y-116404761D01*
X178821428Y-116357142D01*
X178773809Y-116261904D01*
X178773809Y-115976190D01*
X178821428Y-115880952D01*
X178869047Y-115833333D01*
X178964285Y-115785714D01*
X179107142Y-115785714D01*
X179202380Y-115833333D01*
X179250000Y-115880952D01*
X179297619Y-115976190D01*
X179297619Y-116261904D01*
X179250000Y-116357142D01*
X179202380Y-116404761D01*
X179107142Y-116452380D01*
X178964285Y-116452380D01*
X180154761Y-116452380D02*
X180154761Y-115452380D01*
X180154761Y-116404761D02*
X180059523Y-116452380D01*
X179869047Y-116452380D01*
X179773809Y-116404761D01*
X179726190Y-116357142D01*
X179678571Y-116261904D01*
X179678571Y-115976190D01*
X179726190Y-115880952D01*
X179773809Y-115833333D01*
X179869047Y-115785714D01*
X180059523Y-115785714D01*
X180154761Y-115833333D01*
X181011904Y-116404761D02*
X180916666Y-116452380D01*
X180726190Y-116452380D01*
X180630952Y-116404761D01*
X180583333Y-116309523D01*
X180583333Y-115928571D01*
X180630952Y-115833333D01*
X180726190Y-115785714D01*
X180916666Y-115785714D01*
X181011904Y-115833333D01*
X181059523Y-115928571D01*
X181059523Y-116023809D01*
X180583333Y-116119047D01*
D14*
X201152007Y-91804497D02*
X200753663Y-91618746D01*
X201129154Y-91373506D01*
X201037228Y-91330640D01*
X200996069Y-91258906D01*
X200985552Y-91201459D01*
X200995160Y-91100856D01*
X201095783Y-90885068D01*
X201166674Y-90813042D01*
X201217441Y-90784173D01*
X201298849Y-90769592D01*
X201482700Y-90855324D01*
X201523859Y-90927058D01*
X201534376Y-90984504D01*
X200569812Y-91533015D02*
X200777938Y-90526688D01*
X200140827Y-91332976D01*
X199987618Y-91261533D02*
X199589274Y-91075782D01*
X199964764Y-90830542D01*
X199872838Y-90787676D01*
X199831679Y-90715942D01*
X199821162Y-90658496D01*
X199830770Y-90557892D01*
X199931393Y-90342105D01*
X200002284Y-90270078D01*
X200053051Y-90241209D01*
X200134459Y-90226629D01*
X200318310Y-90312360D01*
X200359469Y-90384094D01*
X200369986Y-90441540D01*
X198506292Y-90518238D02*
X198547451Y-90589973D01*
X198639377Y-90632838D01*
X198751427Y-90632546D01*
X198852960Y-90574808D01*
X198923851Y-90502782D01*
X199034992Y-90344440D01*
X199095366Y-90214968D01*
X199145223Y-90028049D01*
X199154830Y-89927445D01*
X199133796Y-89812553D01*
X199061995Y-89726530D01*
X199000711Y-89697953D01*
X198888661Y-89698245D01*
X198837895Y-89727114D01*
X198697022Y-90029217D01*
X198819589Y-90086371D01*
X198602368Y-89512202D02*
X198179749Y-90418510D01*
X198234666Y-89340740D01*
X197812047Y-90247048D01*
X197928247Y-89197855D02*
X197505629Y-90104163D01*
X197352420Y-90032720D01*
X197280619Y-89946697D01*
X197259585Y-89831805D01*
X197269192Y-89731201D01*
X197319049Y-89544283D01*
X197379423Y-89414810D01*
X197490564Y-89256469D01*
X197561455Y-89184442D01*
X197662988Y-89126704D01*
X197775038Y-89126412D01*
X197928247Y-89197855D01*
X196457439Y-88512006D02*
X196825141Y-88683468D01*
X196641290Y-88597737D02*
X196218672Y-89504045D01*
X196340330Y-89403149D01*
X196441863Y-89345411D01*
X196523271Y-89330831D01*
X195829936Y-89217690D02*
X195779169Y-89246559D01*
X195697761Y-89261140D01*
X195544552Y-89189697D01*
X195503393Y-89117963D01*
X195492875Y-89060517D01*
X195502483Y-88959913D01*
X195542732Y-88873598D01*
X195633748Y-88758414D01*
X196242946Y-88411986D01*
X195844602Y-88226235D01*
X195238133Y-89046812D02*
X195446259Y-88040485D01*
X194809147Y-88846773D01*
X194159302Y-87440367D02*
X194172548Y-87971962D01*
X194527004Y-87611829D02*
X194104385Y-88518137D01*
X193859251Y-88403829D01*
X193818092Y-88332094D01*
X193807574Y-88274648D01*
X193817182Y-88174044D01*
X193877556Y-88044572D01*
X193948447Y-87972545D01*
X193999214Y-87943676D01*
X194080622Y-87929096D01*
X194325757Y-88043404D01*
X193522190Y-88246655D02*
X193515823Y-87140308D01*
X193093205Y-88046616D02*
X193944809Y-87340347D01*
X193270688Y-87026000D02*
X192848070Y-87932307D01*
X192694861Y-87860865D01*
X192623060Y-87774842D01*
X192602026Y-87659950D01*
X192611633Y-87559346D01*
X192661490Y-87372427D01*
X192721864Y-87242955D01*
X192833005Y-87084613D01*
X192903896Y-87012587D01*
X193005429Y-86954849D01*
X193117479Y-86954557D01*
X193270688Y-87026000D01*
X191806248Y-87446498D02*
X191438546Y-87275035D01*
X192045015Y-86454459D02*
X191622397Y-87360766D01*
X191285337Y-87203593D02*
X191278969Y-86097246D01*
X190856351Y-87003553D02*
X191707955Y-86297285D01*
X191033834Y-85982937D02*
X190611216Y-86889245D01*
X190458007Y-86817803D01*
X190386206Y-86731780D01*
X190365172Y-86616888D01*
X190374779Y-86516284D01*
X190424636Y-86329365D01*
X190485010Y-86199893D01*
X190596151Y-86041551D01*
X190667042Y-85969525D01*
X190768575Y-85911787D01*
X190880625Y-85911495D01*
X191033834Y-85982937D01*
X189538752Y-86389147D02*
X189140408Y-86203396D01*
X189515898Y-85958156D01*
X189423973Y-85915290D01*
X189382814Y-85843556D01*
X189372297Y-85786110D01*
X189381904Y-85685506D01*
X189482528Y-85469718D01*
X189553419Y-85397692D01*
X189604185Y-85368823D01*
X189685594Y-85354243D01*
X189869445Y-85439974D01*
X189910604Y-85511708D01*
X189921121Y-85569154D01*
X188956557Y-86117665D02*
X189164682Y-85111338D01*
X188527571Y-85917626D01*
X188374362Y-85846183D02*
X187976018Y-85660432D01*
X188351509Y-85415192D01*
X188259583Y-85372326D01*
X188218424Y-85300592D01*
X188207907Y-85243146D01*
X188217515Y-85142542D01*
X188318138Y-84926755D01*
X188389029Y-84854728D01*
X188439796Y-84825859D01*
X188521204Y-84811279D01*
X188705055Y-84897010D01*
X188746214Y-84968744D01*
X188756731Y-85026190D01*
X187632591Y-84396912D02*
X187209972Y-85303219D01*
X186964838Y-85188911D01*
X186923679Y-85117177D01*
X186913162Y-85059731D01*
X186922769Y-84959127D01*
X186983143Y-84829654D01*
X187054034Y-84757628D01*
X187104801Y-84728759D01*
X187186209Y-84714178D01*
X187431344Y-84828487D01*
X186621410Y-83925390D02*
X186634656Y-84456985D01*
X186989112Y-84096853D02*
X186566494Y-85003160D01*
X186321359Y-84888852D01*
X186280200Y-84817118D01*
X186269683Y-84759672D01*
X186279291Y-84659068D01*
X186339665Y-84529595D01*
X186410556Y-84457569D01*
X186461322Y-84428700D01*
X186542731Y-84414120D01*
X186787865Y-84528428D01*
X185606080Y-84502770D02*
X185647239Y-84574505D01*
X185739164Y-84617370D01*
X185851215Y-84617078D01*
X185952748Y-84559340D01*
X186023639Y-84487314D01*
X186134779Y-84328972D01*
X186195153Y-84199500D01*
X186245010Y-84012581D01*
X186254618Y-83911978D01*
X186233584Y-83797086D01*
X186161783Y-83711062D01*
X186100499Y-83682485D01*
X185988449Y-83682777D01*
X185937682Y-83711646D01*
X185796810Y-84013749D01*
X185919377Y-84070903D01*
X184472332Y-83974095D02*
X184513491Y-84045829D01*
X184605417Y-84088695D01*
X184717467Y-84088403D01*
X184819000Y-84030665D01*
X184889891Y-83958638D01*
X185001031Y-83800297D01*
X185061406Y-83670824D01*
X185111262Y-83483906D01*
X185120870Y-83383302D01*
X185099836Y-83268410D01*
X185028035Y-83182387D01*
X184966751Y-83153810D01*
X184854701Y-83154102D01*
X184803934Y-83182971D01*
X184663062Y-83485074D01*
X184785629Y-83542228D01*
X184568407Y-82968059D02*
X184145789Y-83874367D01*
X184200705Y-82796597D01*
X183778087Y-83702905D01*
X183894287Y-82653712D02*
X183471669Y-83560020D01*
X183318459Y-83488577D01*
X183246659Y-83402554D01*
X183225624Y-83287662D01*
X183235232Y-83187058D01*
X183285089Y-83000140D01*
X183345463Y-82870667D01*
X183456603Y-82712326D01*
X183527495Y-82640299D01*
X183629028Y-82582561D01*
X183741078Y-82582269D01*
X183894287Y-82653712D01*
X182392837Y-81953574D02*
X182406083Y-82485169D01*
X182760539Y-82125036D02*
X182337921Y-83031344D01*
X182092786Y-82917036D01*
X182051627Y-82845302D01*
X182041110Y-82787856D01*
X182050717Y-82687252D01*
X182111092Y-82557779D01*
X182181983Y-82485753D01*
X182232749Y-82456884D01*
X182314158Y-82442303D01*
X182559292Y-82556612D01*
X182127578Y-81882424D02*
X182055777Y-81796400D01*
X181902568Y-81724958D01*
X181821159Y-81739538D01*
X181770393Y-81768407D01*
X181699502Y-81840434D01*
X181659252Y-81926749D01*
X181649645Y-82027352D01*
X181660162Y-82084798D01*
X181701321Y-82156533D01*
X181803764Y-82256845D01*
X181844923Y-82328579D01*
X181855440Y-82386025D01*
X181845832Y-82486629D01*
X181805583Y-82572944D01*
X181734692Y-82644970D01*
X181683925Y-82673839D01*
X181602517Y-82688420D01*
X181449308Y-82616977D01*
X181377507Y-82530954D01*
X181173531Y-82488380D02*
X180805829Y-82316918D01*
X181412298Y-81496342D02*
X180989680Y-82402649D01*
X179784131Y-81787951D02*
X179825290Y-81859685D01*
X179917216Y-81902551D01*
X180029266Y-81902259D01*
X180130799Y-81844521D01*
X180201690Y-81772495D01*
X180312831Y-81614153D01*
X180373205Y-81484681D01*
X180423062Y-81297762D01*
X180432669Y-81197158D01*
X180411635Y-81082266D01*
X180339834Y-80996243D01*
X180278550Y-80967666D01*
X180166500Y-80967958D01*
X180115734Y-80996827D01*
X179974861Y-81298930D01*
X180097428Y-81356084D01*
X179880207Y-80781915D02*
X179457588Y-81688223D01*
X179512505Y-80610453D01*
X179089886Y-81516761D01*
X179206086Y-80467568D02*
X178783468Y-81373876D01*
X178630259Y-81302433D01*
X178558458Y-81216410D01*
X178537424Y-81101518D01*
X178547031Y-81000914D01*
X178596888Y-80813996D01*
X178657262Y-80684523D01*
X178768403Y-80526182D01*
X178839294Y-80454155D01*
X178940827Y-80396417D01*
X179052877Y-80396125D01*
X179206086Y-80467568D01*
D12*
X95214285Y-75242857D02*
X94547619Y-75242857D01*
X94261904Y-74195238D02*
X95214285Y-74195238D01*
X95214285Y-76195238D01*
X94261904Y-76195238D01*
X93500000Y-74290476D02*
X93214285Y-74195238D01*
X92738095Y-74195238D01*
X92547619Y-74290476D01*
X92452380Y-74385714D01*
X92357142Y-74576190D01*
X92357142Y-74766666D01*
X92452380Y-74957142D01*
X92547619Y-75052380D01*
X92738095Y-75147619D01*
X93119047Y-75242857D01*
X93309523Y-75338095D01*
X93404761Y-75433333D01*
X93500000Y-75623809D01*
X93500000Y-75814285D01*
X93404761Y-76004761D01*
X93309523Y-76100000D01*
X93119047Y-76195238D01*
X92642857Y-76195238D01*
X92357142Y-76100000D01*
X91500000Y-74195238D02*
X91500000Y-76195238D01*
X90738095Y-76195238D01*
X90547619Y-76100000D01*
X90452380Y-76004761D01*
X90357142Y-75814285D01*
X90357142Y-75528571D01*
X90452380Y-75338095D01*
X90547619Y-75242857D01*
X90738095Y-75147619D01*
X91500000Y-75147619D01*
X89500000Y-74957142D02*
X87976190Y-74957142D01*
X87214285Y-76195238D02*
X85976190Y-76195238D01*
X86642857Y-75433333D01*
X86357142Y-75433333D01*
X86166666Y-75338095D01*
X86071428Y-75242857D01*
X85976190Y-75052380D01*
X85976190Y-74576190D01*
X86071428Y-74385714D01*
X86166666Y-74290476D01*
X86357142Y-74195238D01*
X86928571Y-74195238D01*
X87119047Y-74290476D01*
X87214285Y-74385714D01*
X85214285Y-76004761D02*
X85119047Y-76100000D01*
X84928571Y-76195238D01*
X84452380Y-76195238D01*
X84261904Y-76100000D01*
X84166666Y-76004761D01*
X84071428Y-75814285D01*
X84071428Y-75623809D01*
X84166666Y-75338095D01*
X85309523Y-74195238D01*
X84071428Y-74195238D01*
X81690476Y-74195238D02*
X81690476Y-76195238D01*
X81214285Y-76195238D01*
X80928571Y-76100000D01*
X80738095Y-75909523D01*
X80642857Y-75719047D01*
X80547619Y-75338095D01*
X80547619Y-75052380D01*
X80642857Y-74671428D01*
X80738095Y-74480952D01*
X80928571Y-74290476D01*
X81214285Y-74195238D01*
X81690476Y-74195238D01*
X79690476Y-76195238D02*
X79690476Y-74576190D01*
X79595238Y-74385714D01*
X79500000Y-74290476D01*
X79309523Y-74195238D01*
X78928571Y-74195238D01*
X78738095Y-74290476D01*
X78642857Y-74385714D01*
X78547619Y-74576190D01*
X78547619Y-76195238D01*
X77690476Y-74766666D02*
X76738095Y-74766666D01*
X77880952Y-74195238D02*
X77214285Y-76195238D01*
X76547619Y-74195238D01*
X74928571Y-74195238D02*
X75880952Y-74195238D01*
X75880952Y-76195238D01*
X74261904Y-74195238D02*
X74261904Y-76195238D01*
X73785714Y-76195238D01*
X73500000Y-76100000D01*
X73309523Y-75909523D01*
X73214285Y-75719047D01*
X73119047Y-75338095D01*
X73119047Y-75052380D01*
X73214285Y-74671428D01*
X73309523Y-74480952D01*
X73500000Y-74290476D01*
X73785714Y-74195238D01*
X74261904Y-74195238D01*
X72261904Y-74195238D02*
X72261904Y-76195238D01*
X71404761Y-74766666D02*
X70452380Y-74766666D01*
X71595238Y-74195238D02*
X70928571Y-76195238D01*
X70261904Y-74195238D01*
X68642857Y-74195238D02*
X69595238Y-74195238D01*
X69595238Y-76195238D01*
X66738095Y-76195238D02*
X66071428Y-74195238D01*
X65404761Y-76195238D01*
X64928571Y-76195238D02*
X63595238Y-76195238D01*
X64452380Y-74195238D01*
D11*
X164361904Y-87152380D02*
X163790476Y-87152380D01*
X164076190Y-87152380D02*
X164076190Y-86152380D01*
X163980952Y-86295238D01*
X163885714Y-86390476D01*
X163790476Y-86438095D01*
X164980952Y-86152380D02*
X165076190Y-86152380D01*
X165171428Y-86200000D01*
X165219047Y-86247619D01*
X165266666Y-86342857D01*
X165314285Y-86533333D01*
X165314285Y-86771428D01*
X165266666Y-86961904D01*
X165219047Y-87057142D01*
X165171428Y-87104761D01*
X165076190Y-87152380D01*
X164980952Y-87152380D01*
X164885714Y-87104761D01*
X164838095Y-87057142D01*
X164790476Y-86961904D01*
X164742857Y-86771428D01*
X164742857Y-86533333D01*
X164790476Y-86342857D01*
X164838095Y-86247619D01*
X164885714Y-86200000D01*
X164980952Y-86152380D01*
X165742857Y-87152380D02*
X165742857Y-86152380D01*
X165838095Y-86771428D02*
X166123809Y-87152380D01*
X166123809Y-86485714D02*
X165742857Y-86866666D01*
X167219047Y-87152380D02*
X167742857Y-86485714D01*
X167219047Y-86485714D02*
X167742857Y-87152380D01*
X169314285Y-86485714D02*
X169314285Y-87152380D01*
X169076190Y-86104761D02*
X168838095Y-86819047D01*
X169457142Y-86819047D01*
X156011904Y-82002380D02*
X155440476Y-82002380D01*
X155726190Y-82002380D02*
X155726190Y-81002380D01*
X155630952Y-81145238D01*
X155535714Y-81240476D01*
X155440476Y-81288095D01*
X156630952Y-81002380D02*
X156726190Y-81002380D01*
X156821428Y-81050000D01*
X156869047Y-81097619D01*
X156916666Y-81192857D01*
X156964285Y-81383333D01*
X156964285Y-81621428D01*
X156916666Y-81811904D01*
X156869047Y-81907142D01*
X156821428Y-81954761D01*
X156726190Y-82002380D01*
X156630952Y-82002380D01*
X156535714Y-81954761D01*
X156488095Y-81907142D01*
X156440476Y-81811904D01*
X156392857Y-81621428D01*
X156392857Y-81383333D01*
X156440476Y-81192857D01*
X156488095Y-81097619D01*
X156535714Y-81050000D01*
X156630952Y-81002380D01*
X157392857Y-82002380D02*
X157392857Y-81002380D01*
X157488095Y-81621428D02*
X157773809Y-82002380D01*
X157773809Y-81335714D02*
X157392857Y-81716666D01*
X158869047Y-82002380D02*
X159392857Y-81335714D01*
X158869047Y-81335714D02*
X159392857Y-82002380D01*
X160440476Y-81002380D02*
X161059523Y-81002380D01*
X160726190Y-81383333D01*
X160869047Y-81383333D01*
X160964285Y-81430952D01*
X161011904Y-81478571D01*
X161059523Y-81573809D01*
X161059523Y-81811904D01*
X161011904Y-81907142D01*
X160964285Y-81954761D01*
X160869047Y-82002380D01*
X160583333Y-82002380D01*
X160488095Y-81954761D01*
X160440476Y-81907142D01*
X171419047Y-96497619D02*
X171466666Y-96450000D01*
X171561904Y-96402380D01*
X171800000Y-96402380D01*
X171895238Y-96450000D01*
X171942857Y-96497619D01*
X171990476Y-96592857D01*
X171990476Y-96688095D01*
X171942857Y-96830952D01*
X171371428Y-97402380D01*
X171990476Y-97402380D01*
X172323809Y-96402380D02*
X172990476Y-96402380D01*
X172561904Y-97402380D01*
X173561904Y-96402380D02*
X173657142Y-96402380D01*
X173752380Y-96450000D01*
X173800000Y-96497619D01*
X173847619Y-96592857D01*
X173895238Y-96783333D01*
X173895238Y-97021428D01*
X173847619Y-97211904D01*
X173800000Y-97307142D01*
X173752380Y-97354761D01*
X173657142Y-97402380D01*
X173561904Y-97402380D01*
X173466666Y-97354761D01*
X173419047Y-97307142D01*
X173371428Y-97211904D01*
X173323809Y-97021428D01*
X173323809Y-96783333D01*
X173371428Y-96592857D01*
X173419047Y-96497619D01*
X173466666Y-96450000D01*
X173561904Y-96402380D01*
X174990476Y-97402380D02*
X175514285Y-96735714D01*
X174990476Y-96735714D02*
X175514285Y-97402380D01*
X176561904Y-96402380D02*
X177180952Y-96402380D01*
X176847619Y-96783333D01*
X176990476Y-96783333D01*
X177085714Y-96830952D01*
X177133333Y-96878571D01*
X177180952Y-96973809D01*
X177180952Y-97211904D01*
X177133333Y-97307142D01*
X177085714Y-97354761D01*
X176990476Y-97402380D01*
X176704761Y-97402380D01*
X176609523Y-97354761D01*
X176561904Y-97307142D01*
X148928571Y-127452380D02*
X148357142Y-127452380D01*
X148642857Y-127452380D02*
X148642857Y-126452380D01*
X148547619Y-126595238D01*
X148452380Y-126690476D01*
X148357142Y-126738095D01*
X149547619Y-126452380D02*
X149642857Y-126452380D01*
X149738095Y-126500000D01*
X149785714Y-126547619D01*
X149833333Y-126642857D01*
X149880952Y-126833333D01*
X149880952Y-127071428D01*
X149833333Y-127261904D01*
X149785714Y-127357142D01*
X149738095Y-127404761D01*
X149642857Y-127452380D01*
X149547619Y-127452380D01*
X149452380Y-127404761D01*
X149404761Y-127357142D01*
X149357142Y-127261904D01*
X149309523Y-127071428D01*
X149309523Y-126833333D01*
X149357142Y-126642857D01*
X149404761Y-126547619D01*
X149452380Y-126500000D01*
X149547619Y-126452380D01*
X150500000Y-126452380D02*
X150595238Y-126452380D01*
X150690476Y-126500000D01*
X150738095Y-126547619D01*
X150785714Y-126642857D01*
X150833333Y-126833333D01*
X150833333Y-127071428D01*
X150785714Y-127261904D01*
X150738095Y-127357142D01*
X150690476Y-127404761D01*
X150595238Y-127452380D01*
X150500000Y-127452380D01*
X150404761Y-127404761D01*
X150357142Y-127357142D01*
X150309523Y-127261904D01*
X150261904Y-127071428D01*
X150261904Y-126833333D01*
X150309523Y-126642857D01*
X150357142Y-126547619D01*
X150404761Y-126500000D01*
X150500000Y-126452380D01*
X151261904Y-127452380D02*
X151261904Y-126452380D01*
X151357142Y-127071428D02*
X151642857Y-127452380D01*
X151642857Y-126785714D02*
X151261904Y-127166666D01*
X156361904Y-139300000D02*
X155561904Y-139300000D01*
X156361904Y-138842857D01*
X155561904Y-138842857D01*
X156361904Y-138461904D02*
X155561904Y-138461904D01*
X156133333Y-138195238D01*
X155561904Y-137928571D01*
X156361904Y-137928571D01*
X155561904Y-137395238D02*
X155561904Y-137242857D01*
X155600000Y-137166666D01*
X155676190Y-137090476D01*
X155828571Y-137052380D01*
X156095238Y-137052380D01*
X156247619Y-137090476D01*
X156323809Y-137166666D01*
X156361904Y-137242857D01*
X156361904Y-137395238D01*
X156323809Y-137471428D01*
X156247619Y-137547619D01*
X156095238Y-137585714D01*
X155828571Y-137585714D01*
X155676190Y-137547619D01*
X155600000Y-137471428D01*
X155561904Y-137395238D01*
X156323809Y-136747619D02*
X156361904Y-136633333D01*
X156361904Y-136442857D01*
X156323809Y-136366666D01*
X156285714Y-136328571D01*
X156209523Y-136290476D01*
X156133333Y-136290476D01*
X156057142Y-136328571D01*
X156019047Y-136366666D01*
X155980952Y-136442857D01*
X155942857Y-136595238D01*
X155904761Y-136671428D01*
X155866666Y-136709523D01*
X155790476Y-136747619D01*
X155714285Y-136747619D01*
X155638095Y-136709523D01*
X155600000Y-136671428D01*
X155561904Y-136595238D01*
X155561904Y-136404761D01*
X155600000Y-136290476D01*
X155600000Y-134919047D02*
X155561904Y-134995238D01*
X155561904Y-135109523D01*
X155600000Y-135223809D01*
X155676190Y-135300000D01*
X155752380Y-135338095D01*
X155904761Y-135376190D01*
X156019047Y-135376190D01*
X156171428Y-135338095D01*
X156247619Y-135300000D01*
X156323809Y-135223809D01*
X156361904Y-135109523D01*
X156361904Y-135033333D01*
X156323809Y-134919047D01*
X156285714Y-134880952D01*
X156019047Y-134880952D01*
X156019047Y-135033333D01*
X156361904Y-133319047D02*
X155561904Y-133319047D01*
X155561904Y-133128571D01*
X155600000Y-133014285D01*
X155676190Y-132938095D01*
X155752380Y-132900000D01*
X155904761Y-132861904D01*
X156019047Y-132861904D01*
X156171428Y-132900000D01*
X156247619Y-132938095D01*
X156323809Y-133014285D01*
X156361904Y-133128571D01*
X156361904Y-133319047D01*
X156323809Y-131338095D02*
X156361904Y-131223809D01*
X156361904Y-131033333D01*
X156323809Y-130957142D01*
X156285714Y-130919047D01*
X156209523Y-130880952D01*
X156133333Y-130880952D01*
X156057142Y-130919047D01*
X156019047Y-130957142D01*
X155980952Y-131033333D01*
X155942857Y-131185714D01*
X155904761Y-131261904D01*
X155866666Y-131300000D01*
X155790476Y-131338095D01*
X155714285Y-131338095D01*
X155638095Y-131300000D01*
X155600000Y-131261904D01*
X155561904Y-131185714D01*
X155561904Y-130995238D01*
X155600000Y-130880952D01*
X142750000Y-138000000D02*
X146500000Y-138000000D01*
X145500000Y-138750000D02*
X144500000Y-138000000D01*
X145500000Y-137250000D02*
X145500000Y-139000000D01*
X144500000Y-138000000D02*
X145500000Y-137250000D01*
X150250000Y-135750000D02*
X150250000Y-137250000D01*
X141285714Y-130952380D02*
X140714285Y-130952380D01*
X141000000Y-130952380D02*
X141000000Y-129952380D01*
X140904761Y-130095238D01*
X140809523Y-130190476D01*
X140714285Y-130238095D01*
X141904761Y-129952380D02*
X142000000Y-129952380D01*
X142095238Y-130000000D01*
X142142857Y-130047619D01*
X142190476Y-130142857D01*
X142238095Y-130333333D01*
X142238095Y-130571428D01*
X142190476Y-130761904D01*
X142142857Y-130857142D01*
X142095238Y-130904761D01*
X142000000Y-130952380D01*
X141904761Y-130952380D01*
X141809523Y-130904761D01*
X141761904Y-130857142D01*
X141714285Y-130761904D01*
X141666666Y-130571428D01*
X141666666Y-130333333D01*
X141714285Y-130142857D01*
X141761904Y-130047619D01*
X141809523Y-130000000D01*
X141904761Y-129952380D01*
X143095238Y-130285714D02*
X143095238Y-130952380D01*
X142666666Y-130285714D02*
X142666666Y-130809523D01*
X142714285Y-130904761D01*
X142809523Y-130952380D01*
X142952380Y-130952380D01*
X143047619Y-130904761D01*
X143095238Y-130857142D01*
X143904761Y-130428571D02*
X143571428Y-130428571D01*
X143571428Y-130952380D02*
X143571428Y-129952380D01*
X144047619Y-129952380D01*
X145095238Y-130952380D02*
X145619047Y-130285714D01*
X145095238Y-130285714D02*
X145619047Y-130952380D01*
X146714285Y-130047619D02*
X146761904Y-130000000D01*
X146857142Y-129952380D01*
X147095238Y-129952380D01*
X147190476Y-130000000D01*
X147238095Y-130047619D01*
X147285714Y-130142857D01*
X147285714Y-130238095D01*
X147238095Y-130380952D01*
X146666666Y-130952380D01*
X147285714Y-130952380D01*
X153297142Y-121721619D02*
X153344761Y-121674000D01*
X153440000Y-121626380D01*
X153678095Y-121626380D01*
X153773333Y-121674000D01*
X153820952Y-121721619D01*
X153868571Y-121816857D01*
X153868571Y-121912095D01*
X153820952Y-122054952D01*
X153249523Y-122626380D01*
X153868571Y-122626380D01*
X154487619Y-121626380D02*
X154582857Y-121626380D01*
X154678095Y-121674000D01*
X154725714Y-121721619D01*
X154773333Y-121816857D01*
X154820952Y-122007333D01*
X154820952Y-122245428D01*
X154773333Y-122435904D01*
X154725714Y-122531142D01*
X154678095Y-122578761D01*
X154582857Y-122626380D01*
X154487619Y-122626380D01*
X154392380Y-122578761D01*
X154344761Y-122531142D01*
X154297142Y-122435904D01*
X154249523Y-122245428D01*
X154249523Y-122007333D01*
X154297142Y-121816857D01*
X154344761Y-121721619D01*
X154392380Y-121674000D01*
X154487619Y-121626380D01*
X155249523Y-121959714D02*
X155249523Y-122959714D01*
X155249523Y-122007333D02*
X155344761Y-121959714D01*
X155535238Y-121959714D01*
X155630476Y-122007333D01*
X155678095Y-122054952D01*
X155725714Y-122150190D01*
X155725714Y-122435904D01*
X155678095Y-122531142D01*
X155630476Y-122578761D01*
X155535238Y-122626380D01*
X155344761Y-122626380D01*
X155249523Y-122578761D01*
X156487619Y-122102571D02*
X156154285Y-122102571D01*
X156154285Y-122626380D02*
X156154285Y-121626380D01*
X156630476Y-121626380D01*
X154761904Y-127706380D02*
X154190476Y-127706380D01*
X154476190Y-127706380D02*
X154476190Y-126706380D01*
X154380952Y-126849238D01*
X154285714Y-126944476D01*
X154190476Y-126992095D01*
X155190476Y-127706380D02*
X155190476Y-126706380D01*
X155285714Y-127325428D02*
X155571428Y-127706380D01*
X155571428Y-127039714D02*
X155190476Y-127420666D01*
X156000000Y-127325428D02*
X156761904Y-127325428D01*
X103300000Y-77985714D02*
X103300000Y-78652380D01*
X103061904Y-77604761D02*
X102823809Y-78319047D01*
X103442857Y-78319047D01*
X103823809Y-78557142D02*
X103871428Y-78604761D01*
X103823809Y-78652380D01*
X103776190Y-78604761D01*
X103823809Y-78557142D01*
X103823809Y-78652380D01*
X104204761Y-77652380D02*
X104871428Y-77652380D01*
X104442857Y-78652380D01*
X105252380Y-78271428D02*
X106014285Y-78271428D01*
X107014285Y-78652380D02*
X106442857Y-78652380D01*
X106728571Y-78652380D02*
X106728571Y-77652380D01*
X106633333Y-77795238D01*
X106538095Y-77890476D01*
X106442857Y-77938095D01*
X107633333Y-77652380D02*
X107728571Y-77652380D01*
X107823809Y-77700000D01*
X107871428Y-77747619D01*
X107919047Y-77842857D01*
X107966666Y-78033333D01*
X107966666Y-78271428D01*
X107919047Y-78461904D01*
X107871428Y-78557142D01*
X107823809Y-78604761D01*
X107728571Y-78652380D01*
X107633333Y-78652380D01*
X107538095Y-78604761D01*
X107490476Y-78557142D01*
X107442857Y-78461904D01*
X107395238Y-78271428D01*
X107395238Y-78033333D01*
X107442857Y-77842857D01*
X107490476Y-77747619D01*
X107538095Y-77700000D01*
X107633333Y-77652380D01*
X108395238Y-78652380D02*
X108395238Y-77652380D01*
X108490476Y-78271428D02*
X108776190Y-78652380D01*
X108776190Y-77985714D02*
X108395238Y-78366666D01*
X199652380Y-97395238D02*
X199652380Y-97966666D01*
X199652380Y-97680952D02*
X198652380Y-97680952D01*
X198795238Y-97776190D01*
X198890476Y-97871428D01*
X198938095Y-97966666D01*
X198652380Y-96776190D02*
X198652380Y-96680952D01*
X198700000Y-96585714D01*
X198747619Y-96538095D01*
X198842857Y-96490476D01*
X199033333Y-96442857D01*
X199271428Y-96442857D01*
X199461904Y-96490476D01*
X199557142Y-96538095D01*
X199604761Y-96585714D01*
X199652380Y-96680952D01*
X199652380Y-96776190D01*
X199604761Y-96871428D01*
X199557142Y-96919047D01*
X199461904Y-96966666D01*
X199271428Y-97014285D01*
X199033333Y-97014285D01*
X198842857Y-96966666D01*
X198747619Y-96919047D01*
X198700000Y-96871428D01*
X198652380Y-96776190D01*
X199652380Y-96014285D02*
X198652380Y-96014285D01*
X199271428Y-95919047D02*
X199652380Y-95633333D01*
X198985714Y-95633333D02*
X199366666Y-96014285D01*
X202652380Y-96671428D02*
X202652380Y-97242857D01*
X202652380Y-96957142D02*
X201652380Y-96957142D01*
X201795238Y-97052380D01*
X201890476Y-97147619D01*
X201938095Y-97242857D01*
X201652380Y-96052380D02*
X201652380Y-95957142D01*
X201700000Y-95861904D01*
X201747619Y-95814285D01*
X201842857Y-95766666D01*
X202033333Y-95719047D01*
X202271428Y-95719047D01*
X202461904Y-95766666D01*
X202557142Y-95814285D01*
X202604761Y-95861904D01*
X202652380Y-95957142D01*
X202652380Y-96052380D01*
X202604761Y-96147619D01*
X202557142Y-96195238D01*
X202461904Y-96242857D01*
X202271428Y-96290476D01*
X202033333Y-96290476D01*
X201842857Y-96242857D01*
X201747619Y-96195238D01*
X201700000Y-96147619D01*
X201652380Y-96052380D01*
X201985714Y-94861904D02*
X202652380Y-94861904D01*
X201985714Y-95290476D02*
X202509523Y-95290476D01*
X202604761Y-95242857D01*
X202652380Y-95147619D01*
X202652380Y-95004761D01*
X202604761Y-94909523D01*
X202557142Y-94861904D01*
X202128571Y-94052380D02*
X202128571Y-94385714D01*
X202652380Y-94385714D02*
X201652380Y-94385714D01*
X201652380Y-93909523D01*
D15*
X203652380Y-105085714D02*
X203652380Y-104990476D01*
X203700000Y-104895238D01*
X203747619Y-104847619D01*
X203842857Y-104800000D01*
X204033333Y-104752380D01*
X204271428Y-104752380D01*
X204461904Y-104800000D01*
X204557142Y-104847619D01*
X204604761Y-104895238D01*
X204652380Y-104990476D01*
X204652380Y-105085714D01*
X204604761Y-105180952D01*
X204557142Y-105228571D01*
X204461904Y-105276190D01*
X204271428Y-105323809D01*
X204033333Y-105323809D01*
X203842857Y-105276190D01*
X203747619Y-105228571D01*
X203700000Y-105180952D01*
X203652380Y-105085714D01*
X204557142Y-104323809D02*
X204604761Y-104276190D01*
X204652380Y-104323809D01*
X204604761Y-104371428D01*
X204557142Y-104323809D01*
X204652380Y-104323809D01*
X204652380Y-103323809D02*
X204652380Y-103895238D01*
X204652380Y-103609523D02*
X203652380Y-103609523D01*
X203795238Y-103704761D01*
X203890476Y-103800000D01*
X203938095Y-103895238D01*
X203985714Y-102466666D02*
X204652380Y-102466666D01*
X203985714Y-102895238D02*
X204509523Y-102895238D01*
X204604761Y-102847619D01*
X204652380Y-102752380D01*
X204652380Y-102609523D01*
X204604761Y-102514285D01*
X204557142Y-102466666D01*
X204128571Y-101657142D02*
X204128571Y-101990476D01*
X204652380Y-101990476D02*
X203652380Y-101990476D01*
X203652380Y-101514285D01*
X204652380Y-100466666D02*
X203985714Y-99942857D01*
X203985714Y-100466666D02*
X204652380Y-99942857D01*
X203747619Y-98847619D02*
X203700000Y-98800000D01*
X203652380Y-98704761D01*
X203652380Y-98466666D01*
X203700000Y-98371428D01*
X203747619Y-98323809D01*
X203842857Y-98276190D01*
X203938095Y-98276190D01*
X204080952Y-98323809D01*
X204652380Y-98895238D01*
X204652380Y-98276190D01*
D13*
X166464285Y-123202380D02*
X166559523Y-123202380D01*
X166654761Y-123250000D01*
X166702380Y-123297619D01*
X166750000Y-123392857D01*
X166797619Y-123583333D01*
X166797619Y-123821428D01*
X166750000Y-124011904D01*
X166702380Y-124107142D01*
X166654761Y-124154761D01*
X166559523Y-124202380D01*
X166464285Y-124202380D01*
X166369047Y-124154761D01*
X166321428Y-124107142D01*
X166273809Y-124011904D01*
X166226190Y-123821428D01*
X166226190Y-123583333D01*
X166273809Y-123392857D01*
X166321428Y-123297619D01*
X166369047Y-123250000D01*
X166464285Y-123202380D01*
X167226190Y-124107142D02*
X167273809Y-124154761D01*
X167226190Y-124202380D01*
X167178571Y-124154761D01*
X167226190Y-124107142D01*
X167226190Y-124202380D01*
X168226190Y-124202380D02*
X167654761Y-124202380D01*
X167940476Y-124202380D02*
X167940476Y-123202380D01*
X167845238Y-123345238D01*
X167750000Y-123440476D01*
X167654761Y-123488095D01*
X169083333Y-123535714D02*
X169083333Y-124202380D01*
X168654761Y-123535714D02*
X168654761Y-124059523D01*
X168702380Y-124154761D01*
X168797619Y-124202380D01*
X168940476Y-124202380D01*
X169035714Y-124154761D01*
X169083333Y-124107142D01*
X169892857Y-123678571D02*
X169559523Y-123678571D01*
X169559523Y-124202380D02*
X169559523Y-123202380D01*
X170035714Y-123202380D01*
X171083333Y-124202380D02*
X171607142Y-123535714D01*
X171083333Y-123535714D02*
X171607142Y-124202380D01*
X172702380Y-123297619D02*
X172750000Y-123250000D01*
X172845238Y-123202380D01*
X173083333Y-123202380D01*
X173178571Y-123250000D01*
X173226190Y-123297619D01*
X173273809Y-123392857D01*
X173273809Y-123488095D01*
X173226190Y-123630952D01*
X172654761Y-124202380D01*
X173273809Y-124202380D01*
X85771428Y-88147619D02*
X85819047Y-88100000D01*
X85914285Y-88052380D01*
X86152380Y-88052380D01*
X86247619Y-88100000D01*
X86295238Y-88147619D01*
X86342857Y-88242857D01*
X86342857Y-88338095D01*
X86295238Y-88480952D01*
X85723809Y-89052380D01*
X86342857Y-89052380D01*
X86676190Y-88052380D02*
X87342857Y-88052380D01*
X86914285Y-89052380D01*
X87914285Y-88052380D02*
X88009523Y-88052380D01*
X88104761Y-88100000D01*
X88152380Y-88147619D01*
X88200000Y-88242857D01*
X88247619Y-88433333D01*
X88247619Y-88671428D01*
X88200000Y-88861904D01*
X88152380Y-88957142D01*
X88104761Y-89004761D01*
X88009523Y-89052380D01*
X87914285Y-89052380D01*
X87819047Y-89004761D01*
X87771428Y-88957142D01*
X87723809Y-88861904D01*
X87676190Y-88671428D01*
X87676190Y-88433333D01*
X87723809Y-88242857D01*
X87771428Y-88147619D01*
X87819047Y-88100000D01*
X87914285Y-88052380D01*
X88676190Y-88671428D02*
X89438095Y-88671428D01*
X90342857Y-88385714D02*
X90342857Y-89052380D01*
X90104761Y-88004761D02*
X89866666Y-88719047D01*
X90485714Y-88719047D01*
X90771428Y-88052380D02*
X91438095Y-88052380D01*
X91009523Y-89052380D01*
X92009523Y-88052380D02*
X92104761Y-88052380D01*
X92200000Y-88100000D01*
X92247619Y-88147619D01*
X92295238Y-88242857D01*
X92342857Y-88433333D01*
X92342857Y-88671428D01*
X92295238Y-88861904D01*
X92247619Y-88957142D01*
X92200000Y-89004761D01*
X92104761Y-89052380D01*
X92009523Y-89052380D01*
X91914285Y-89004761D01*
X91866666Y-88957142D01*
X91819047Y-88861904D01*
X91771428Y-88671428D01*
X91771428Y-88433333D01*
X91819047Y-88242857D01*
X91866666Y-88147619D01*
X91914285Y-88100000D01*
X92009523Y-88052380D01*
X93438095Y-89052380D02*
X93961904Y-88385714D01*
X93438095Y-88385714D02*
X93961904Y-89052380D01*
X95009523Y-88052380D02*
X95676190Y-88052380D01*
X95247619Y-89052380D01*
X69652380Y-96485714D02*
X69652380Y-96390476D01*
X69700000Y-96295238D01*
X69747619Y-96247619D01*
X69842857Y-96200000D01*
X70033333Y-96152380D01*
X70271428Y-96152380D01*
X70461904Y-96200000D01*
X70557142Y-96247619D01*
X70604761Y-96295238D01*
X70652380Y-96390476D01*
X70652380Y-96485714D01*
X70604761Y-96580952D01*
X70557142Y-96628571D01*
X70461904Y-96676190D01*
X70271428Y-96723809D01*
X70033333Y-96723809D01*
X69842857Y-96676190D01*
X69747619Y-96628571D01*
X69700000Y-96580952D01*
X69652380Y-96485714D01*
X70557142Y-95723809D02*
X70604761Y-95676190D01*
X70652380Y-95723809D01*
X70604761Y-95771428D01*
X70557142Y-95723809D01*
X70652380Y-95723809D01*
X70652380Y-94723809D02*
X70652380Y-95295238D01*
X70652380Y-95009523D02*
X69652380Y-95009523D01*
X69795238Y-95104761D01*
X69890476Y-95200000D01*
X69938095Y-95295238D01*
X69985714Y-93866666D02*
X70652380Y-93866666D01*
X69985714Y-94295238D02*
X70509523Y-94295238D01*
X70604761Y-94247619D01*
X70652380Y-94152380D01*
X70652380Y-94009523D01*
X70604761Y-93914285D01*
X70557142Y-93866666D01*
X70128571Y-93057142D02*
X70128571Y-93390476D01*
X70652380Y-93390476D02*
X69652380Y-93390476D01*
X69652380Y-92914285D01*
X70652380Y-91866666D02*
X69985714Y-91342857D01*
X69985714Y-91866666D02*
X70652380Y-91342857D01*
X69652380Y-90295238D02*
X69652380Y-89676190D01*
X70033333Y-90009523D01*
X70033333Y-89866666D01*
X70080952Y-89771428D01*
X70128571Y-89723809D01*
X70223809Y-89676190D01*
X70461904Y-89676190D01*
X70557142Y-89723809D01*
X70604761Y-89771428D01*
X70652380Y-89866666D01*
X70652380Y-90152380D01*
X70604761Y-90247619D01*
X70557142Y-90295238D01*
D16*
X82600000Y-134300000D02*
X147400000Y-134300000D01*
X147400000Y-85700000D02*
X82600000Y-85700000D01*
X147400000Y-85700000D02*
X147400000Y-134300000D01*
X82600000Y-85700000D02*
X82600000Y-134300000D01*
X79100000Y-137500000D02*
X79100000Y-82500000D01*
X156800000Y-137500000D02*
X156800000Y-82500000D01*
X73300000Y-137500000D02*
X162600000Y-137500000D01*
X73300000Y-82500000D02*
X73300000Y-137500000D01*
X162600000Y-82500000D02*
X73300000Y-82500000D01*
X162600000Y-137500000D02*
X162600000Y-82500000D01*
D11*
X186259109Y-119329970D02*
X194574025Y-115885819D01*
X188555210Y-124873247D02*
X186259109Y-119329970D01*
X205185042Y-117984946D02*
X188555210Y-124873247D01*
X202888941Y-112441668D02*
X205185042Y-117984946D01*
X194574025Y-115885819D02*
X202888941Y-112441668D01*
X178796782Y-101314319D02*
X186259109Y-119329970D01*
X195426614Y-94426018D02*
X178796782Y-101314319D01*
X202888941Y-112441668D02*
X195426614Y-94426018D01*
D16*
X201227500Y-101937742D02*
X201227500Y-102412258D01*
X202272500Y-101937742D02*
X202272500Y-102412258D01*
X202227500Y-106237258D02*
X202227500Y-105762742D01*
X203272500Y-106237258D02*
X203272500Y-105762742D01*
X201640000Y-98372164D02*
X201640000Y-98587836D01*
X202360000Y-98372164D02*
X202360000Y-98587836D01*
X155196164Y-123060000D02*
X155411836Y-123060000D01*
X155196164Y-123780000D02*
X155411836Y-123780000D01*
X105412258Y-81522500D02*
X104937742Y-81522500D01*
X105412258Y-80477500D02*
X104937742Y-80477500D01*
X200227500Y-97937742D02*
X200227500Y-98412258D01*
X201272500Y-97937742D02*
X201272500Y-98412258D01*
X169927500Y-87237258D02*
X169927500Y-86762742D01*
X170972500Y-87237258D02*
X170972500Y-86762742D01*
X90522500Y-85262742D02*
X90522500Y-85737258D01*
X89477500Y-85262742D02*
X89477500Y-85737258D01*
X86977500Y-85262742D02*
X86977500Y-85737258D01*
X88022500Y-85262742D02*
X88022500Y-85737258D01*
X85522500Y-85262742D02*
X85522500Y-85737258D01*
X84477500Y-85262742D02*
X84477500Y-85737258D01*
X81977500Y-85237742D02*
X81977500Y-85712258D01*
X83022500Y-85237742D02*
X83022500Y-85712258D01*
X155121742Y-125297500D02*
X155596258Y-125297500D01*
X155121742Y-126342500D02*
X155596258Y-126342500D01*
X149837742Y-124727500D02*
X150312258Y-124727500D01*
X149837742Y-125772500D02*
X150312258Y-125772500D01*
X170000000Y-110500000D02*
X170000000Y-109500000D01*
X169500000Y-110000000D02*
X170500000Y-110000000D01*
X173500000Y-103900000D02*
X175900000Y-103900000D01*
X168700000Y-103900000D02*
X171300000Y-103900000D01*
X164100000Y-103900000D02*
X166500000Y-103900000D01*
X165900000Y-117200000D02*
X166200000Y-117500000D01*
X165900000Y-117800000D02*
X165900000Y-117200000D01*
X166200000Y-117500000D02*
X165900000Y-117800000D01*
X164100000Y-116100000D02*
X175900000Y-116100000D01*
X164100000Y-112000000D02*
X164100000Y-116100000D01*
X175900000Y-112000000D02*
X175900000Y-116100000D01*
X175900000Y-103900000D02*
X175900000Y-108000000D01*
X164100000Y-108000000D02*
X164100000Y-103900000D01*
X173000000Y-110000000D02*
G75*
G03*
X173000000Y-110000000I-3000000J0D01*
G01*
X63000000Y-110000000D02*
G75*
G03*
X63000000Y-110000000I-3000000J0D01*
G01*
X54100000Y-108000000D02*
X54100000Y-103900000D01*
X65900000Y-103900000D02*
X65900000Y-108000000D01*
X65900000Y-112000000D02*
X65900000Y-116100000D01*
X54100000Y-112000000D02*
X54100000Y-116100000D01*
X54100000Y-116100000D02*
X65900000Y-116100000D01*
X56200000Y-117500000D02*
X55900000Y-117800000D01*
X55900000Y-117800000D02*
X55900000Y-117200000D01*
X55900000Y-117200000D02*
X56200000Y-117500000D01*
X54100000Y-103900000D02*
X56500000Y-103900000D01*
X58700000Y-103900000D02*
X61300000Y-103900000D01*
X63500000Y-103900000D02*
X65900000Y-103900000D01*
X59500000Y-110000000D02*
X60500000Y-110000000D01*
X60000000Y-110500000D02*
X60000000Y-109500000D01*
X150200000Y-93600000D02*
X152200000Y-93600000D01*
X150200000Y-96400000D02*
X150200000Y-93600000D01*
X152200000Y-96400000D02*
X150200000Y-96400000D01*
X152200000Y-93600000D02*
X152200000Y-96400000D01*
X147500000Y-92850000D02*
X148100000Y-92850000D01*
X146800000Y-96300000D02*
X146800000Y-93500000D01*
X148100000Y-96950000D02*
X147500000Y-96950000D01*
X148800000Y-93500000D02*
X148800000Y-96300000D01*
X148800000Y-96250000D02*
G75*
G02*
X148100000Y-96950000I-700000J0D01*
G01*
X147500000Y-96950000D02*
G75*
G02*
X146800000Y-96250000I0J700000D01*
G01*
X146800000Y-93550000D02*
G75*
G02*
X147500000Y-92850000I700000J0D01*
G01*
X148100000Y-92850000D02*
G75*
G02*
X148800000Y-93550000I0J-700000D01*
G01*
X154477500Y-92837258D02*
X154477500Y-92362742D01*
X155522500Y-92837258D02*
X155522500Y-92362742D01*
X163312220Y-90361442D02*
X165076486Y-100367089D01*
X165076486Y-100367089D02*
X185087780Y-96838558D01*
X185087780Y-96838558D02*
X183323514Y-86832911D01*
X183323514Y-86832911D02*
X163312220Y-90361442D01*
X184300824Y-95293299D02*
G75*
G03*
X184300824Y-95293299I-1419903J0D01*
G01*
X175568568Y-92569827D02*
G75*
G03*
X175568568Y-92569827I-2839807J0D01*
G01*
X169050663Y-89994396D02*
X175304193Y-88891730D01*
X175304193Y-88891730D02*
X176406859Y-95145259D01*
X176406859Y-95145259D02*
X170153329Y-96247925D01*
X170153329Y-96247925D02*
X169050663Y-89994396D01*
X164637258Y-102277500D02*
X164162742Y-102277500D01*
X164637258Y-103322500D02*
X164162742Y-103322500D01*
X70412258Y-106022500D02*
X69937742Y-106022500D01*
X70412258Y-104977500D02*
X69937742Y-104977500D01*
X70412258Y-101877500D02*
X69937742Y-101877500D01*
X70412258Y-102922500D02*
X69937742Y-102922500D01*
X168062742Y-120077500D02*
X168537258Y-120077500D01*
X168062742Y-121122500D02*
X168537258Y-121122500D01*
X172137258Y-121122500D02*
X171662742Y-121122500D01*
X172137258Y-120077500D02*
X171662742Y-120077500D01*
X144892164Y-126360000D02*
X145107836Y-126360000D01*
X144892164Y-125640000D02*
X145107836Y-125640000D01*
X145107836Y-128860000D02*
X144892164Y-128860000D01*
X145107836Y-128140000D02*
X144892164Y-128140000D01*
X142800000Y-139000000D02*
X142800000Y-141000000D01*
X142800000Y-141000000D02*
X146650000Y-141000000D01*
X142800000Y-139000000D02*
X146650000Y-139000000D01*
X69962742Y-99277500D02*
X70437258Y-99277500D01*
X69962742Y-100322500D02*
X70437258Y-100322500D01*
X123000000Y-115500000D02*
X123000000Y-104500000D01*
X133000000Y-115500000D02*
X123000000Y-115500000D01*
X133000000Y-104500000D02*
X133000000Y-115500000D01*
X137000000Y-121500000D02*
X137000000Y-119500000D01*
X136000000Y-121500000D02*
X137000000Y-121500000D01*
X136000000Y-119500000D02*
X136000000Y-121500000D01*
X137000000Y-119500000D02*
X136000000Y-119500000D01*
X144000000Y-122500000D02*
X114000000Y-122500000D01*
X144000000Y-104500000D02*
X144000000Y-122500000D01*
X114000000Y-104500000D02*
X144000000Y-104500000D01*
X114000000Y-122500000D02*
X114000000Y-104500000D01*
X144000000Y-122500000D02*
X114000000Y-122500000D01*
X169937742Y-100027500D02*
X170412258Y-100027500D01*
X169937742Y-101072500D02*
X170412258Y-101072500D01*
X173712742Y-99327500D02*
X174187258Y-99327500D01*
X173712742Y-100372500D02*
X174187258Y-100372500D01*
X94722500Y-86437258D02*
X94722500Y-85962742D01*
X93677500Y-86437258D02*
X93677500Y-85962742D01*
X96277500Y-86412258D02*
X96277500Y-85937742D01*
X97322500Y-86412258D02*
X97322500Y-85937742D01*
X99922500Y-86437258D02*
X99922500Y-85962742D01*
X98877500Y-86437258D02*
X98877500Y-85962742D01*
X172377500Y-86712742D02*
X172377500Y-87187258D01*
X173422500Y-86712742D02*
X173422500Y-87187258D01*
X178222500Y-86712742D02*
X178222500Y-87187258D01*
X177177500Y-86712742D02*
X177177500Y-87187258D01*
X158512742Y-79227500D02*
X158987258Y-79227500D01*
X158512742Y-80272500D02*
X158987258Y-80272500D01*
X174777500Y-86762742D02*
X174777500Y-87237258D01*
X175822500Y-86762742D02*
X175822500Y-87237258D01*
X162562742Y-80222500D02*
X163037258Y-80222500D01*
X162562742Y-79177500D02*
X163037258Y-79177500D01*
X154562742Y-79227500D02*
X155037258Y-79227500D01*
X154562742Y-80272500D02*
X155037258Y-80272500D01*
X177362742Y-98677500D02*
X177837258Y-98677500D01*
X177362742Y-99722500D02*
X177837258Y-99722500D01*
X180330000Y-114830000D02*
X180330000Y-109630000D01*
X180270000Y-114830000D02*
X180330000Y-114830000D01*
X177670000Y-109630000D02*
X180330000Y-109630000D01*
X180270000Y-114830000D02*
X180270000Y-112230000D01*
X180270000Y-112230000D02*
X177670000Y-112230000D01*
X177670000Y-112230000D02*
X177670000Y-109630000D01*
X179000000Y-114830000D02*
X177670000Y-114830000D01*
X177670000Y-114830000D02*
X177670000Y-113500000D01*
X179200000Y-91500000D02*
G75*
G03*
X179200000Y-91500000I-1200000J0D01*
G01*
X182200000Y-91500000D02*
G75*
G03*
X182200000Y-91500000I-1200000J0D01*
G01*
X185200000Y-91500000D02*
G75*
G03*
X185200000Y-91500000I-1200000J0D01*
G01*
X125200000Y-79500000D02*
G75*
G03*
X125200000Y-79500000I-1200000J0D01*
G01*
X125200000Y-83000000D02*
G75*
G03*
X125200000Y-83000000I-1200000J0D01*
G01*
X125200000Y-86500000D02*
G75*
G03*
X125200000Y-86500000I-1200000J0D01*
G01*
X104750000Y-89000000D02*
G75*
G03*
X104750000Y-89000000I-1750000J0D01*
G01*
X153200000Y-76000000D02*
G75*
G03*
X153200000Y-76000000I-1200000J0D01*
G01*
X74200000Y-79500000D02*
G75*
G03*
X74200000Y-79500000I-1200000J0D01*
G01*
X78200000Y-79500000D02*
G75*
G03*
X78200000Y-79500000I-1200000J0D01*
G01*
X82200000Y-79500000D02*
G75*
G03*
X82200000Y-79500000I-1200000J0D01*
G01*
X86200000Y-79500000D02*
G75*
G03*
X86200000Y-79500000I-1200000J0D01*
G01*
X109750000Y-89000000D02*
G75*
G03*
X109750000Y-89000000I-1750000J0D01*
G01*
X130100000Y-81450000D02*
X130700000Y-81450000D01*
X129400000Y-84900000D02*
X129400000Y-82100000D01*
X130700000Y-85550000D02*
X130100000Y-85550000D01*
X131400000Y-82100000D02*
X131400000Y-84900000D01*
X131400000Y-84850000D02*
G75*
G02*
X130700000Y-85550000I-700000J0D01*
G01*
X130100000Y-85550000D02*
G75*
G02*
X129400000Y-84850000I0J700000D01*
G01*
X129400000Y-82150000D02*
G75*
G02*
X130100000Y-81450000I700000J0D01*
G01*
X130700000Y-81450000D02*
G75*
G02*
X131400000Y-82150000I0J-700000D01*
G01*
X136615000Y-81500000D02*
X136615000Y-85360000D01*
X136615000Y-85360000D02*
X136860000Y-85360000D01*
X136615000Y-81500000D02*
X136615000Y-77640000D01*
X136615000Y-77640000D02*
X136860000Y-77640000D01*
X148385000Y-81500000D02*
X148385000Y-85360000D01*
X148385000Y-85360000D02*
X148140000Y-85360000D01*
X148385000Y-81500000D02*
X148385000Y-77640000D01*
X148385000Y-77640000D02*
X148140000Y-77640000D01*
X148140000Y-77640000D02*
X148140000Y-75825000D01*
X152270000Y-130020000D02*
X153370000Y-130020000D01*
X152270000Y-129750000D02*
X152270000Y-130020000D01*
X150770000Y-129750000D02*
X152270000Y-129750000D01*
X152270000Y-136380000D02*
X155100000Y-136380000D01*
X152270000Y-136650000D02*
X152270000Y-136380000D01*
X150770000Y-136650000D02*
X152270000Y-136650000D01*
D11*
X116598095Y-139932380D02*
X116598095Y-140741904D01*
X116645714Y-140837142D01*
X116693333Y-140884761D01*
X116788571Y-140932380D01*
X116979047Y-140932380D01*
X117074285Y-140884761D01*
X117121904Y-140837142D01*
X117169523Y-140741904D01*
X117169523Y-139932380D01*
X118169523Y-140932380D02*
X117598095Y-140932380D01*
X117883809Y-140932380D02*
X117883809Y-139932380D01*
X117788571Y-140075238D01*
X117693333Y-140170476D01*
X117598095Y-140218095D01*
X196339336Y-122138610D02*
X196649127Y-122886512D01*
X196729567Y-122956278D01*
X196791784Y-122982049D01*
X196897996Y-122989597D01*
X197073973Y-122916705D01*
X197143739Y-122836265D01*
X197169510Y-122774048D01*
X197177058Y-122667836D01*
X196867267Y-121919934D01*
X197299661Y-121843915D02*
X197325432Y-121781698D01*
X197395198Y-121701257D01*
X197615169Y-121610142D01*
X197721381Y-121617690D01*
X197783598Y-121643462D01*
X197864038Y-121713227D01*
X197900484Y-121801216D01*
X197911159Y-121951422D01*
X197601904Y-122698029D01*
X198173830Y-122461130D01*
X200757142Y-102166666D02*
X200804761Y-102214285D01*
X200852380Y-102357142D01*
X200852380Y-102452380D01*
X200804761Y-102595238D01*
X200709523Y-102690476D01*
X200614285Y-102738095D01*
X200423809Y-102785714D01*
X200280952Y-102785714D01*
X200090476Y-102738095D01*
X199995238Y-102690476D01*
X199900000Y-102595238D01*
X199852380Y-102452380D01*
X199852380Y-102357142D01*
X199900000Y-102214285D01*
X199947619Y-102166666D01*
X200852380Y-101214285D02*
X200852380Y-101785714D01*
X200852380Y-101500000D02*
X199852380Y-101500000D01*
X199995238Y-101595238D01*
X200090476Y-101690476D01*
X200138095Y-101785714D01*
X201757142Y-104966666D02*
X201804761Y-105014285D01*
X201852380Y-105157142D01*
X201852380Y-105252380D01*
X201804761Y-105395238D01*
X201709523Y-105490476D01*
X201614285Y-105538095D01*
X201423809Y-105585714D01*
X201280952Y-105585714D01*
X201090476Y-105538095D01*
X200995238Y-105490476D01*
X200900000Y-105395238D01*
X200852380Y-105252380D01*
X200852380Y-105157142D01*
X200900000Y-105014285D01*
X200947619Y-104966666D01*
X200947619Y-104585714D02*
X200900000Y-104538095D01*
X200852380Y-104442857D01*
X200852380Y-104204761D01*
X200900000Y-104109523D01*
X200947619Y-104061904D01*
X201042857Y-104014285D01*
X201138095Y-104014285D01*
X201280952Y-104061904D01*
X201852380Y-104633333D01*
X201852380Y-104014285D01*
X203517142Y-98646666D02*
X203564761Y-98694285D01*
X203612380Y-98837142D01*
X203612380Y-98932380D01*
X203564761Y-99075238D01*
X203469523Y-99170476D01*
X203374285Y-99218095D01*
X203183809Y-99265714D01*
X203040952Y-99265714D01*
X202850476Y-99218095D01*
X202755238Y-99170476D01*
X202660000Y-99075238D01*
X202612380Y-98932380D01*
X202612380Y-98837142D01*
X202660000Y-98694285D01*
X202707619Y-98646666D01*
X202612380Y-98313333D02*
X202612380Y-97694285D01*
X202993333Y-98027619D01*
X202993333Y-97884761D01*
X203040952Y-97789523D01*
X203088571Y-97741904D01*
X203183809Y-97694285D01*
X203421904Y-97694285D01*
X203517142Y-97741904D01*
X203564761Y-97789523D01*
X203612380Y-97884761D01*
X203612380Y-98170476D01*
X203564761Y-98265714D01*
X203517142Y-98313333D01*
X152617333Y-123977142D02*
X152569714Y-124024761D01*
X152426857Y-124072380D01*
X152331619Y-124072380D01*
X152188761Y-124024761D01*
X152093523Y-123929523D01*
X152045904Y-123834285D01*
X151998285Y-123643809D01*
X151998285Y-123500952D01*
X152045904Y-123310476D01*
X152093523Y-123215238D01*
X152188761Y-123120000D01*
X152331619Y-123072380D01*
X152426857Y-123072380D01*
X152569714Y-123120000D01*
X152617333Y-123167619D01*
X153474476Y-123072380D02*
X153284000Y-123072380D01*
X153188761Y-123120000D01*
X153141142Y-123167619D01*
X153045904Y-123310476D01*
X152998285Y-123500952D01*
X152998285Y-123881904D01*
X153045904Y-123977142D01*
X153093523Y-124024761D01*
X153188761Y-124072380D01*
X153379238Y-124072380D01*
X153474476Y-124024761D01*
X153522095Y-123977142D01*
X153569714Y-123881904D01*
X153569714Y-123643809D01*
X153522095Y-123548571D01*
X153474476Y-123500952D01*
X153379238Y-123453333D01*
X153188761Y-123453333D01*
X153093523Y-123500952D01*
X153045904Y-123548571D01*
X152998285Y-123643809D01*
X105008333Y-82882380D02*
X104675000Y-82406190D01*
X104436904Y-82882380D02*
X104436904Y-81882380D01*
X104817857Y-81882380D01*
X104913095Y-81930000D01*
X104960714Y-81977619D01*
X105008333Y-82072857D01*
X105008333Y-82215714D01*
X104960714Y-82310952D01*
X104913095Y-82358571D01*
X104817857Y-82406190D01*
X104436904Y-82406190D01*
X105960714Y-82882380D02*
X105389285Y-82882380D01*
X105675000Y-82882380D02*
X105675000Y-81882380D01*
X105579761Y-82025238D01*
X105484523Y-82120476D01*
X105389285Y-82168095D01*
X201202380Y-95666666D02*
X200726190Y-96000000D01*
X201202380Y-96238095D02*
X200202380Y-96238095D01*
X200202380Y-95857142D01*
X200250000Y-95761904D01*
X200297619Y-95714285D01*
X200392857Y-95666666D01*
X200535714Y-95666666D01*
X200630952Y-95714285D01*
X200678571Y-95761904D01*
X200726190Y-95857142D01*
X200726190Y-96238095D01*
X200297619Y-95285714D02*
X200250000Y-95238095D01*
X200202380Y-95142857D01*
X200202380Y-94904761D01*
X200250000Y-94809523D01*
X200297619Y-94761904D01*
X200392857Y-94714285D01*
X200488095Y-94714285D01*
X200630952Y-94761904D01*
X201202380Y-95333333D01*
X201202380Y-94714285D01*
X172152380Y-87066666D02*
X171676190Y-87400000D01*
X172152380Y-87638095D02*
X171152380Y-87638095D01*
X171152380Y-87257142D01*
X171200000Y-87161904D01*
X171247619Y-87114285D01*
X171342857Y-87066666D01*
X171485714Y-87066666D01*
X171580952Y-87114285D01*
X171628571Y-87161904D01*
X171676190Y-87257142D01*
X171676190Y-87638095D01*
X171152380Y-86733333D02*
X171152380Y-86114285D01*
X171533333Y-86447619D01*
X171533333Y-86304761D01*
X171580952Y-86209523D01*
X171628571Y-86161904D01*
X171723809Y-86114285D01*
X171961904Y-86114285D01*
X172057142Y-86161904D01*
X172104761Y-86209523D01*
X172152380Y-86304761D01*
X172152380Y-86590476D01*
X172104761Y-86685714D01*
X172057142Y-86733333D01*
X91882380Y-85666666D02*
X91406190Y-86000000D01*
X91882380Y-86238095D02*
X90882380Y-86238095D01*
X90882380Y-85857142D01*
X90930000Y-85761904D01*
X90977619Y-85714285D01*
X91072857Y-85666666D01*
X91215714Y-85666666D01*
X91310952Y-85714285D01*
X91358571Y-85761904D01*
X91406190Y-85857142D01*
X91406190Y-86238095D01*
X90882380Y-84761904D02*
X90882380Y-85238095D01*
X91358571Y-85285714D01*
X91310952Y-85238095D01*
X91263333Y-85142857D01*
X91263333Y-84904761D01*
X91310952Y-84809523D01*
X91358571Y-84761904D01*
X91453809Y-84714285D01*
X91691904Y-84714285D01*
X91787142Y-84761904D01*
X91834761Y-84809523D01*
X91882380Y-84904761D01*
X91882380Y-85142857D01*
X91834761Y-85238095D01*
X91787142Y-85285714D01*
X89382380Y-85666666D02*
X88906190Y-86000000D01*
X89382380Y-86238095D02*
X88382380Y-86238095D01*
X88382380Y-85857142D01*
X88430000Y-85761904D01*
X88477619Y-85714285D01*
X88572857Y-85666666D01*
X88715714Y-85666666D01*
X88810952Y-85714285D01*
X88858571Y-85761904D01*
X88906190Y-85857142D01*
X88906190Y-86238095D01*
X88382380Y-84809523D02*
X88382380Y-85000000D01*
X88430000Y-85095238D01*
X88477619Y-85142857D01*
X88620476Y-85238095D01*
X88810952Y-85285714D01*
X89191904Y-85285714D01*
X89287142Y-85238095D01*
X89334761Y-85190476D01*
X89382380Y-85095238D01*
X89382380Y-84904761D01*
X89334761Y-84809523D01*
X89287142Y-84761904D01*
X89191904Y-84714285D01*
X88953809Y-84714285D01*
X88858571Y-84761904D01*
X88810952Y-84809523D01*
X88763333Y-84904761D01*
X88763333Y-85095238D01*
X88810952Y-85190476D01*
X88858571Y-85238095D01*
X88953809Y-85285714D01*
X86882380Y-85666666D02*
X86406190Y-86000000D01*
X86882380Y-86238095D02*
X85882380Y-86238095D01*
X85882380Y-85857142D01*
X85930000Y-85761904D01*
X85977619Y-85714285D01*
X86072857Y-85666666D01*
X86215714Y-85666666D01*
X86310952Y-85714285D01*
X86358571Y-85761904D01*
X86406190Y-85857142D01*
X86406190Y-86238095D01*
X85882380Y-85333333D02*
X85882380Y-84666666D01*
X86882380Y-85095238D01*
X84382380Y-85641666D02*
X83906190Y-85975000D01*
X84382380Y-86213095D02*
X83382380Y-86213095D01*
X83382380Y-85832142D01*
X83430000Y-85736904D01*
X83477619Y-85689285D01*
X83572857Y-85641666D01*
X83715714Y-85641666D01*
X83810952Y-85689285D01*
X83858571Y-85736904D01*
X83906190Y-85832142D01*
X83906190Y-86213095D01*
X83810952Y-85070238D02*
X83763333Y-85165476D01*
X83715714Y-85213095D01*
X83620476Y-85260714D01*
X83572857Y-85260714D01*
X83477619Y-85213095D01*
X83430000Y-85165476D01*
X83382380Y-85070238D01*
X83382380Y-84879761D01*
X83430000Y-84784523D01*
X83477619Y-84736904D01*
X83572857Y-84689285D01*
X83620476Y-84689285D01*
X83715714Y-84736904D01*
X83763333Y-84784523D01*
X83810952Y-84879761D01*
X83810952Y-85070238D01*
X83858571Y-85165476D01*
X83906190Y-85213095D01*
X84001428Y-85260714D01*
X84191904Y-85260714D01*
X84287142Y-85213095D01*
X84334761Y-85165476D01*
X84382380Y-85070238D01*
X84382380Y-84879761D01*
X84334761Y-84784523D01*
X84287142Y-84736904D01*
X84191904Y-84689285D01*
X84001428Y-84689285D01*
X83906190Y-84736904D01*
X83858571Y-84784523D01*
X83810952Y-84879761D01*
X152617333Y-126272380D02*
X152284000Y-125796190D01*
X152045904Y-126272380D02*
X152045904Y-125272380D01*
X152426857Y-125272380D01*
X152522095Y-125320000D01*
X152569714Y-125367619D01*
X152617333Y-125462857D01*
X152617333Y-125605714D01*
X152569714Y-125700952D01*
X152522095Y-125748571D01*
X152426857Y-125796190D01*
X152045904Y-125796190D01*
X153093523Y-126272380D02*
X153284000Y-126272380D01*
X153379238Y-126224761D01*
X153426857Y-126177142D01*
X153522095Y-126034285D01*
X153569714Y-125843809D01*
X153569714Y-125462857D01*
X153522095Y-125367619D01*
X153474476Y-125320000D01*
X153379238Y-125272380D01*
X153188761Y-125272380D01*
X153093523Y-125320000D01*
X153045904Y-125367619D01*
X152998285Y-125462857D01*
X152998285Y-125700952D01*
X153045904Y-125796190D01*
X153093523Y-125843809D01*
X153188761Y-125891428D01*
X153379238Y-125891428D01*
X153474476Y-125843809D01*
X153522095Y-125796190D01*
X153569714Y-125700952D01*
X148857142Y-124452380D02*
X148523809Y-123976190D01*
X148285714Y-124452380D02*
X148285714Y-123452380D01*
X148666666Y-123452380D01*
X148761904Y-123500000D01*
X148809523Y-123547619D01*
X148857142Y-123642857D01*
X148857142Y-123785714D01*
X148809523Y-123880952D01*
X148761904Y-123928571D01*
X148666666Y-123976190D01*
X148285714Y-123976190D01*
X149809523Y-124452380D02*
X149238095Y-124452380D01*
X149523809Y-124452380D02*
X149523809Y-123452380D01*
X149428571Y-123595238D01*
X149333333Y-123690476D01*
X149238095Y-123738095D01*
X150428571Y-123452380D02*
X150523809Y-123452380D01*
X150619047Y-123500000D01*
X150666666Y-123547619D01*
X150714285Y-123642857D01*
X150761904Y-123833333D01*
X150761904Y-124071428D01*
X150714285Y-124261904D01*
X150666666Y-124357142D01*
X150619047Y-124404761D01*
X150523809Y-124452380D01*
X150428571Y-124452380D01*
X150333333Y-124404761D01*
X150285714Y-124357142D01*
X150238095Y-124261904D01*
X150190476Y-124071428D01*
X150190476Y-123833333D01*
X150238095Y-123642857D01*
X150285714Y-123547619D01*
X150333333Y-123500000D01*
X150428571Y-123452380D01*
X174166666Y-118054761D02*
X174309523Y-118102380D01*
X174547619Y-118102380D01*
X174642857Y-118054761D01*
X174690476Y-118007142D01*
X174738095Y-117911904D01*
X174738095Y-117816666D01*
X174690476Y-117721428D01*
X174642857Y-117673809D01*
X174547619Y-117626190D01*
X174357142Y-117578571D01*
X174261904Y-117530952D01*
X174214285Y-117483333D01*
X174166666Y-117388095D01*
X174166666Y-117292857D01*
X174214285Y-117197619D01*
X174261904Y-117150000D01*
X174357142Y-117102380D01*
X174595238Y-117102380D01*
X174738095Y-117150000D01*
X175071428Y-117102380D02*
X175309523Y-118102380D01*
X175500000Y-117388095D01*
X175690476Y-118102380D01*
X175928571Y-117102380D01*
X176833333Y-118102380D02*
X176261904Y-118102380D01*
X176547619Y-118102380D02*
X176547619Y-117102380D01*
X176452380Y-117245238D01*
X176357142Y-117340476D01*
X176261904Y-117388095D01*
X53204761Y-116033333D02*
X53252380Y-115890476D01*
X53252380Y-115652380D01*
X53204761Y-115557142D01*
X53157142Y-115509523D01*
X53061904Y-115461904D01*
X52966666Y-115461904D01*
X52871428Y-115509523D01*
X52823809Y-115557142D01*
X52776190Y-115652380D01*
X52728571Y-115842857D01*
X52680952Y-115938095D01*
X52633333Y-115985714D01*
X52538095Y-116033333D01*
X52442857Y-116033333D01*
X52347619Y-115985714D01*
X52300000Y-115938095D01*
X52252380Y-115842857D01*
X52252380Y-115604761D01*
X52300000Y-115461904D01*
X52252380Y-115128571D02*
X53252380Y-114890476D01*
X52538095Y-114700000D01*
X53252380Y-114509523D01*
X52252380Y-114271428D01*
X52347619Y-113938095D02*
X52300000Y-113890476D01*
X52252380Y-113795238D01*
X52252380Y-113557142D01*
X52300000Y-113461904D01*
X52347619Y-113414285D01*
X52442857Y-113366666D01*
X52538095Y-113366666D01*
X52680952Y-113414285D01*
X53252380Y-113985714D01*
X53252380Y-113366666D01*
X152452380Y-95833333D02*
X153166666Y-95833333D01*
X153309523Y-95880952D01*
X153404761Y-95976190D01*
X153452380Y-96119047D01*
X153452380Y-96214285D01*
X153452380Y-95357142D02*
X152452380Y-95357142D01*
X152452380Y-94976190D01*
X152500000Y-94880952D01*
X152547619Y-94833333D01*
X152642857Y-94785714D01*
X152785714Y-94785714D01*
X152880952Y-94833333D01*
X152928571Y-94880952D01*
X152976190Y-94976190D01*
X152976190Y-95357142D01*
X153452380Y-93833333D02*
X153452380Y-94404761D01*
X153452380Y-94119047D02*
X152452380Y-94119047D01*
X152595238Y-94214285D01*
X152690476Y-94309523D01*
X152738095Y-94404761D01*
X149052380Y-95733333D02*
X149766666Y-95733333D01*
X149909523Y-95780952D01*
X150004761Y-95876190D01*
X150052380Y-96019047D01*
X150052380Y-96114285D01*
X150052380Y-95257142D02*
X149052380Y-95257142D01*
X149052380Y-94876190D01*
X149100000Y-94780952D01*
X149147619Y-94733333D01*
X149242857Y-94685714D01*
X149385714Y-94685714D01*
X149480952Y-94733333D01*
X149528571Y-94780952D01*
X149576190Y-94876190D01*
X149576190Y-95257142D01*
X149147619Y-94304761D02*
X149100000Y-94257142D01*
X149052380Y-94161904D01*
X149052380Y-93923809D01*
X149100000Y-93828571D01*
X149147619Y-93780952D01*
X149242857Y-93733333D01*
X149338095Y-93733333D01*
X149480952Y-93780952D01*
X150052380Y-94352380D01*
X150052380Y-93733333D01*
X147252380Y-97833333D02*
X147252380Y-97214285D01*
X147633333Y-97547619D01*
X147633333Y-97404761D01*
X147680952Y-97309523D01*
X147728571Y-97261904D01*
X147823809Y-97214285D01*
X148061904Y-97214285D01*
X148157142Y-97261904D01*
X148204761Y-97309523D01*
X148252380Y-97404761D01*
X148252380Y-97690476D01*
X148204761Y-97785714D01*
X148157142Y-97833333D01*
X148252380Y-92014285D02*
X148252380Y-92585714D01*
X148252380Y-92300000D02*
X147252380Y-92300000D01*
X147395238Y-92395238D01*
X147490476Y-92490476D01*
X147538095Y-92585714D01*
X154022380Y-92766666D02*
X153546190Y-93100000D01*
X154022380Y-93338095D02*
X153022380Y-93338095D01*
X153022380Y-92957142D01*
X153070000Y-92861904D01*
X153117619Y-92814285D01*
X153212857Y-92766666D01*
X153355714Y-92766666D01*
X153450952Y-92814285D01*
X153498571Y-92861904D01*
X153546190Y-92957142D01*
X153546190Y-93338095D01*
X153355714Y-91909523D02*
X154022380Y-91909523D01*
X152974761Y-92147619D02*
X153689047Y-92385714D01*
X153689047Y-91766666D01*
X167454577Y-94043003D02*
X167595149Y-94840229D01*
X167658583Y-94925751D01*
X167713747Y-94964378D01*
X167815807Y-94994735D01*
X168003390Y-94961659D01*
X168088912Y-94898226D01*
X168127539Y-94843061D01*
X168157896Y-94741001D01*
X168017324Y-93943776D01*
X168392489Y-93877624D02*
X169002132Y-93770128D01*
X168740014Y-94203175D01*
X168880701Y-94178368D01*
X168982761Y-94208726D01*
X169037926Y-94247353D01*
X169101359Y-94332875D01*
X169142704Y-94567353D01*
X169112346Y-94669413D01*
X169073720Y-94724578D01*
X168988198Y-94788011D01*
X168706824Y-94837625D01*
X168604764Y-94807267D01*
X168549599Y-94768641D01*
X166819333Y-104239142D02*
X166771714Y-104286761D01*
X166628857Y-104334380D01*
X166533619Y-104334380D01*
X166390761Y-104286761D01*
X166295523Y-104191523D01*
X166247904Y-104096285D01*
X166200285Y-103905809D01*
X166200285Y-103762952D01*
X166247904Y-103572476D01*
X166295523Y-103477238D01*
X166390761Y-103382000D01*
X166533619Y-103334380D01*
X166628857Y-103334380D01*
X166771714Y-103382000D01*
X166819333Y-103429619D01*
X167676476Y-103667714D02*
X167676476Y-104334380D01*
X167438380Y-103286761D02*
X167200285Y-104001047D01*
X167819333Y-104001047D01*
X162757142Y-100822380D02*
X162852380Y-100822380D01*
X162947619Y-100870000D01*
X162995238Y-100917619D01*
X163042857Y-101012857D01*
X163090476Y-101203333D01*
X163090476Y-101441428D01*
X163042857Y-101631904D01*
X162995238Y-101727142D01*
X162947619Y-101774761D01*
X162852380Y-101822380D01*
X162757142Y-101822380D01*
X162661904Y-101774761D01*
X162614285Y-101727142D01*
X162566666Y-101631904D01*
X162519047Y-101441428D01*
X162519047Y-101203333D01*
X162566666Y-101012857D01*
X162614285Y-100917619D01*
X162661904Y-100870000D01*
X162757142Y-100822380D01*
X163519047Y-101727142D02*
X163566666Y-101774761D01*
X163519047Y-101822380D01*
X163471428Y-101774761D01*
X163519047Y-101727142D01*
X163519047Y-101822380D01*
X164519047Y-101822380D02*
X163947619Y-101822380D01*
X164233333Y-101822380D02*
X164233333Y-100822380D01*
X164138095Y-100965238D01*
X164042857Y-101060476D01*
X163947619Y-101108095D01*
X165376190Y-101155714D02*
X165376190Y-101822380D01*
X164947619Y-101155714D02*
X164947619Y-101679523D01*
X164995238Y-101774761D01*
X165090476Y-101822380D01*
X165233333Y-101822380D01*
X165328571Y-101774761D01*
X165376190Y-101727142D01*
X166185714Y-101298571D02*
X165852380Y-101298571D01*
X165852380Y-101822380D02*
X165852380Y-100822380D01*
X166328571Y-100822380D01*
X70008333Y-107287142D02*
X69960714Y-107334761D01*
X69817857Y-107382380D01*
X69722619Y-107382380D01*
X69579761Y-107334761D01*
X69484523Y-107239523D01*
X69436904Y-107144285D01*
X69389285Y-106953809D01*
X69389285Y-106810952D01*
X69436904Y-106620476D01*
X69484523Y-106525238D01*
X69579761Y-106430000D01*
X69722619Y-106382380D01*
X69817857Y-106382380D01*
X69960714Y-106430000D01*
X70008333Y-106477619D01*
X70913095Y-106382380D02*
X70436904Y-106382380D01*
X70389285Y-106858571D01*
X70436904Y-106810952D01*
X70532142Y-106763333D01*
X70770238Y-106763333D01*
X70865476Y-106810952D01*
X70913095Y-106858571D01*
X70960714Y-106953809D01*
X70960714Y-107191904D01*
X70913095Y-107287142D01*
X70865476Y-107334761D01*
X70770238Y-107382380D01*
X70532142Y-107382380D01*
X70436904Y-107334761D01*
X70389285Y-107287142D01*
X70008333Y-104187142D02*
X69960714Y-104234761D01*
X69817857Y-104282380D01*
X69722619Y-104282380D01*
X69579761Y-104234761D01*
X69484523Y-104139523D01*
X69436904Y-104044285D01*
X69389285Y-103853809D01*
X69389285Y-103710952D01*
X69436904Y-103520476D01*
X69484523Y-103425238D01*
X69579761Y-103330000D01*
X69722619Y-103282380D01*
X69817857Y-103282380D01*
X69960714Y-103330000D01*
X70008333Y-103377619D01*
X70341666Y-103282380D02*
X71008333Y-103282380D01*
X70579761Y-104282380D01*
X168640333Y-122425142D02*
X168592714Y-122472761D01*
X168449857Y-122520380D01*
X168354619Y-122520380D01*
X168211761Y-122472761D01*
X168116523Y-122377523D01*
X168068904Y-122282285D01*
X168021285Y-122091809D01*
X168021285Y-121948952D01*
X168068904Y-121758476D01*
X168116523Y-121663238D01*
X168211761Y-121568000D01*
X168354619Y-121520380D01*
X168449857Y-121520380D01*
X168592714Y-121568000D01*
X168640333Y-121615619D01*
X169211761Y-121948952D02*
X169116523Y-121901333D01*
X169068904Y-121853714D01*
X169021285Y-121758476D01*
X169021285Y-121710857D01*
X169068904Y-121615619D01*
X169116523Y-121568000D01*
X169211761Y-121520380D01*
X169402238Y-121520380D01*
X169497476Y-121568000D01*
X169545095Y-121615619D01*
X169592714Y-121710857D01*
X169592714Y-121758476D01*
X169545095Y-121853714D01*
X169497476Y-121901333D01*
X169402238Y-121948952D01*
X169211761Y-121948952D01*
X169116523Y-121996571D01*
X169068904Y-122044190D01*
X169021285Y-122139428D01*
X169021285Y-122329904D01*
X169068904Y-122425142D01*
X169116523Y-122472761D01*
X169211761Y-122520380D01*
X169402238Y-122520380D01*
X169497476Y-122472761D01*
X169545095Y-122425142D01*
X169592714Y-122329904D01*
X169592714Y-122139428D01*
X169545095Y-122044190D01*
X169497476Y-121996571D01*
X169402238Y-121948952D01*
X172533333Y-122457142D02*
X172485714Y-122504761D01*
X172342857Y-122552380D01*
X172247619Y-122552380D01*
X172104761Y-122504761D01*
X172009523Y-122409523D01*
X171961904Y-122314285D01*
X171914285Y-122123809D01*
X171914285Y-121980952D01*
X171961904Y-121790476D01*
X172009523Y-121695238D01*
X172104761Y-121600000D01*
X172247619Y-121552380D01*
X172342857Y-121552380D01*
X172485714Y-121600000D01*
X172533333Y-121647619D01*
X173009523Y-122552380D02*
X173200000Y-122552380D01*
X173295238Y-122504761D01*
X173342857Y-122457142D01*
X173438095Y-122314285D01*
X173485714Y-122123809D01*
X173485714Y-121742857D01*
X173438095Y-121647619D01*
X173390476Y-121600000D01*
X173295238Y-121552380D01*
X173104761Y-121552380D01*
X173009523Y-121600000D01*
X172961904Y-121647619D01*
X172914285Y-121742857D01*
X172914285Y-121980952D01*
X172961904Y-122076190D01*
X173009523Y-122123809D01*
X173104761Y-122171428D01*
X173295238Y-122171428D01*
X173390476Y-122123809D01*
X173438095Y-122076190D01*
X173485714Y-121980952D01*
X141837142Y-126357142D02*
X141789523Y-126404761D01*
X141646666Y-126452380D01*
X141551428Y-126452380D01*
X141408571Y-126404761D01*
X141313333Y-126309523D01*
X141265714Y-126214285D01*
X141218095Y-126023809D01*
X141218095Y-125880952D01*
X141265714Y-125690476D01*
X141313333Y-125595238D01*
X141408571Y-125500000D01*
X141551428Y-125452380D01*
X141646666Y-125452380D01*
X141789523Y-125500000D01*
X141837142Y-125547619D01*
X142789523Y-126452380D02*
X142218095Y-126452380D01*
X142503809Y-126452380D02*
X142503809Y-125452380D01*
X142408571Y-125595238D01*
X142313333Y-125690476D01*
X142218095Y-125738095D01*
X143408571Y-125452380D02*
X143503809Y-125452380D01*
X143599047Y-125500000D01*
X143646666Y-125547619D01*
X143694285Y-125642857D01*
X143741904Y-125833333D01*
X143741904Y-126071428D01*
X143694285Y-126261904D01*
X143646666Y-126357142D01*
X143599047Y-126404761D01*
X143503809Y-126452380D01*
X143408571Y-126452380D01*
X143313333Y-126404761D01*
X143265714Y-126357142D01*
X143218095Y-126261904D01*
X143170476Y-126071428D01*
X143170476Y-125833333D01*
X143218095Y-125642857D01*
X143265714Y-125547619D01*
X143313333Y-125500000D01*
X143408571Y-125452380D01*
X141837142Y-129047142D02*
X141789523Y-129094761D01*
X141646666Y-129142380D01*
X141551428Y-129142380D01*
X141408571Y-129094761D01*
X141313333Y-128999523D01*
X141265714Y-128904285D01*
X141218095Y-128713809D01*
X141218095Y-128570952D01*
X141265714Y-128380476D01*
X141313333Y-128285238D01*
X141408571Y-128190000D01*
X141551428Y-128142380D01*
X141646666Y-128142380D01*
X141789523Y-128190000D01*
X141837142Y-128237619D01*
X142789523Y-129142380D02*
X142218095Y-129142380D01*
X142503809Y-129142380D02*
X142503809Y-128142380D01*
X142408571Y-128285238D01*
X142313333Y-128380476D01*
X142218095Y-128428095D01*
X143741904Y-129142380D02*
X143170476Y-129142380D01*
X143456190Y-129142380D02*
X143456190Y-128142380D01*
X143360952Y-128285238D01*
X143265714Y-128380476D01*
X143170476Y-128428095D01*
X140261904Y-140452380D02*
X140261904Y-139452380D01*
X140500000Y-139452380D01*
X140642857Y-139500000D01*
X140738095Y-139595238D01*
X140785714Y-139690476D01*
X140833333Y-139880952D01*
X140833333Y-140023809D01*
X140785714Y-140214285D01*
X140738095Y-140309523D01*
X140642857Y-140404761D01*
X140500000Y-140452380D01*
X140261904Y-140452380D01*
X141785714Y-140452380D02*
X141214285Y-140452380D01*
X141500000Y-140452380D02*
X141500000Y-139452380D01*
X141404761Y-139595238D01*
X141309523Y-139690476D01*
X141214285Y-139738095D01*
X69557142Y-98727142D02*
X69509523Y-98774761D01*
X69366666Y-98822380D01*
X69271428Y-98822380D01*
X69128571Y-98774761D01*
X69033333Y-98679523D01*
X68985714Y-98584285D01*
X68938095Y-98393809D01*
X68938095Y-98250952D01*
X68985714Y-98060476D01*
X69033333Y-97965238D01*
X69128571Y-97870000D01*
X69271428Y-97822380D01*
X69366666Y-97822380D01*
X69509523Y-97870000D01*
X69557142Y-97917619D01*
X70509523Y-98822380D02*
X69938095Y-98822380D01*
X70223809Y-98822380D02*
X70223809Y-97822380D01*
X70128571Y-97965238D01*
X70033333Y-98060476D01*
X69938095Y-98108095D01*
X70890476Y-97917619D02*
X70938095Y-97870000D01*
X71033333Y-97822380D01*
X71271428Y-97822380D01*
X71366666Y-97870000D01*
X71414285Y-97917619D01*
X71461904Y-98012857D01*
X71461904Y-98108095D01*
X71414285Y-98250952D01*
X70842857Y-98822380D01*
X71461904Y-98822380D01*
X127761904Y-112952380D02*
X127761904Y-113761904D01*
X127809523Y-113857142D01*
X127857142Y-113904761D01*
X127952380Y-113952380D01*
X128142857Y-113952380D01*
X128238095Y-113904761D01*
X128285714Y-113857142D01*
X128333333Y-113761904D01*
X128333333Y-112952380D01*
X129333333Y-113952380D02*
X128761904Y-113952380D01*
X129047619Y-113952380D02*
X129047619Y-112952380D01*
X128952380Y-113095238D01*
X128857142Y-113190476D01*
X128761904Y-113238095D01*
X129952380Y-112952380D02*
X130047619Y-112952380D01*
X130142857Y-113000000D01*
X130190476Y-113047619D01*
X130238095Y-113142857D01*
X130285714Y-113333333D01*
X130285714Y-113571428D01*
X130238095Y-113761904D01*
X130190476Y-113857142D01*
X130142857Y-113904761D01*
X130047619Y-113952380D01*
X129952380Y-113952380D01*
X129857142Y-113904761D01*
X129809523Y-113857142D01*
X129761904Y-113761904D01*
X129714285Y-113571428D01*
X129714285Y-113333333D01*
X129761904Y-113142857D01*
X129809523Y-113047619D01*
X129857142Y-113000000D01*
X129952380Y-112952380D01*
X169532142Y-99572380D02*
X169198809Y-99096190D01*
X168960714Y-99572380D02*
X168960714Y-98572380D01*
X169341666Y-98572380D01*
X169436904Y-98620000D01*
X169484523Y-98667619D01*
X169532142Y-98762857D01*
X169532142Y-98905714D01*
X169484523Y-99000952D01*
X169436904Y-99048571D01*
X169341666Y-99096190D01*
X168960714Y-99096190D01*
X170484523Y-99572380D02*
X169913095Y-99572380D01*
X170198809Y-99572380D02*
X170198809Y-98572380D01*
X170103571Y-98715238D01*
X170008333Y-98810476D01*
X169913095Y-98858095D01*
X171436904Y-99572380D02*
X170865476Y-99572380D01*
X171151190Y-99572380D02*
X171151190Y-98572380D01*
X171055952Y-98715238D01*
X170960714Y-98810476D01*
X170865476Y-98858095D01*
X173307142Y-98872380D02*
X172973809Y-98396190D01*
X172735714Y-98872380D02*
X172735714Y-97872380D01*
X173116666Y-97872380D01*
X173211904Y-97920000D01*
X173259523Y-97967619D01*
X173307142Y-98062857D01*
X173307142Y-98205714D01*
X173259523Y-98300952D01*
X173211904Y-98348571D01*
X173116666Y-98396190D01*
X172735714Y-98396190D01*
X174259523Y-98872380D02*
X173688095Y-98872380D01*
X173973809Y-98872380D02*
X173973809Y-97872380D01*
X173878571Y-98015238D01*
X173783333Y-98110476D01*
X173688095Y-98158095D01*
X174592857Y-97872380D02*
X175211904Y-97872380D01*
X174878571Y-98253333D01*
X175021428Y-98253333D01*
X175116666Y-98300952D01*
X175164285Y-98348571D01*
X175211904Y-98443809D01*
X175211904Y-98681904D01*
X175164285Y-98777142D01*
X175116666Y-98824761D01*
X175021428Y-98872380D01*
X174735714Y-98872380D01*
X174640476Y-98824761D01*
X174592857Y-98777142D01*
X95816666Y-86742857D02*
X95483333Y-87076190D01*
X95816666Y-87314285D02*
X95116666Y-87314285D01*
X95116666Y-86933333D01*
X95150000Y-86838095D01*
X95183333Y-86790476D01*
X95250000Y-86742857D01*
X95350000Y-86742857D01*
X95416666Y-86790476D01*
X95450000Y-86838095D01*
X95483333Y-86933333D01*
X95483333Y-87314285D01*
X95816666Y-85790476D02*
X95816666Y-86361904D01*
X95816666Y-86076190D02*
X95116666Y-86076190D01*
X95216666Y-86171428D01*
X95283333Y-86266666D01*
X95316666Y-86361904D01*
X95350000Y-84933333D02*
X95816666Y-84933333D01*
X95083333Y-85171428D02*
X95583333Y-85409523D01*
X95583333Y-84790476D01*
X98416666Y-86692857D02*
X98083333Y-87026190D01*
X98416666Y-87264285D02*
X97716666Y-87264285D01*
X97716666Y-86883333D01*
X97750000Y-86788095D01*
X97783333Y-86740476D01*
X97850000Y-86692857D01*
X97950000Y-86692857D01*
X98016666Y-86740476D01*
X98050000Y-86788095D01*
X98083333Y-86883333D01*
X98083333Y-87264285D01*
X98416666Y-85740476D02*
X98416666Y-86311904D01*
X98416666Y-86026190D02*
X97716666Y-86026190D01*
X97816666Y-86121428D01*
X97883333Y-86216666D01*
X97916666Y-86311904D01*
X97716666Y-84835714D02*
X97716666Y-85311904D01*
X98050000Y-85359523D01*
X98016666Y-85311904D01*
X97983333Y-85216666D01*
X97983333Y-84978571D01*
X98016666Y-84883333D01*
X98050000Y-84835714D01*
X98116666Y-84788095D01*
X98283333Y-84788095D01*
X98350000Y-84835714D01*
X98383333Y-84883333D01*
X98416666Y-84978571D01*
X98416666Y-85216666D01*
X98383333Y-85311904D01*
X98350000Y-85359523D01*
X101352380Y-86692857D02*
X100876190Y-87026190D01*
X101352380Y-87264285D02*
X100352380Y-87264285D01*
X100352380Y-86883333D01*
X100400000Y-86788095D01*
X100447619Y-86740476D01*
X100542857Y-86692857D01*
X100685714Y-86692857D01*
X100780952Y-86740476D01*
X100828571Y-86788095D01*
X100876190Y-86883333D01*
X100876190Y-87264285D01*
X101352380Y-85740476D02*
X101352380Y-86311904D01*
X101352380Y-86026190D02*
X100352380Y-86026190D01*
X100495238Y-86121428D01*
X100590476Y-86216666D01*
X100638095Y-86311904D01*
X100352380Y-84883333D02*
X100352380Y-85073809D01*
X100400000Y-85169047D01*
X100447619Y-85216666D01*
X100590476Y-85311904D01*
X100780952Y-85359523D01*
X101161904Y-85359523D01*
X101257142Y-85311904D01*
X101304761Y-85264285D01*
X101352380Y-85169047D01*
X101352380Y-84978571D01*
X101304761Y-84883333D01*
X101257142Y-84835714D01*
X101161904Y-84788095D01*
X100923809Y-84788095D01*
X100828571Y-84835714D01*
X100780952Y-84883333D01*
X100733333Y-84978571D01*
X100733333Y-85169047D01*
X100780952Y-85264285D01*
X100828571Y-85311904D01*
X100923809Y-85359523D01*
X174782380Y-87592857D02*
X174306190Y-87926190D01*
X174782380Y-88164285D02*
X173782380Y-88164285D01*
X173782380Y-87783333D01*
X173830000Y-87688095D01*
X173877619Y-87640476D01*
X173972857Y-87592857D01*
X174115714Y-87592857D01*
X174210952Y-87640476D01*
X174258571Y-87688095D01*
X174306190Y-87783333D01*
X174306190Y-88164285D01*
X174782380Y-86640476D02*
X174782380Y-87211904D01*
X174782380Y-86926190D02*
X173782380Y-86926190D01*
X173925238Y-87021428D01*
X174020476Y-87116666D01*
X174068095Y-87211904D01*
X173782380Y-86307142D02*
X173782380Y-85640476D01*
X174782380Y-86069047D01*
X179582380Y-87592857D02*
X179106190Y-87926190D01*
X179582380Y-88164285D02*
X178582380Y-88164285D01*
X178582380Y-87783333D01*
X178630000Y-87688095D01*
X178677619Y-87640476D01*
X178772857Y-87592857D01*
X178915714Y-87592857D01*
X179010952Y-87640476D01*
X179058571Y-87688095D01*
X179106190Y-87783333D01*
X179106190Y-88164285D01*
X179582380Y-86640476D02*
X179582380Y-87211904D01*
X179582380Y-86926190D02*
X178582380Y-86926190D01*
X178725238Y-87021428D01*
X178820476Y-87116666D01*
X178868095Y-87211904D01*
X179010952Y-86069047D02*
X178963333Y-86164285D01*
X178915714Y-86211904D01*
X178820476Y-86259523D01*
X178772857Y-86259523D01*
X178677619Y-86211904D01*
X178630000Y-86164285D01*
X178582380Y-86069047D01*
X178582380Y-85878571D01*
X178630000Y-85783333D01*
X178677619Y-85735714D01*
X178772857Y-85688095D01*
X178820476Y-85688095D01*
X178915714Y-85735714D01*
X178963333Y-85783333D01*
X179010952Y-85878571D01*
X179010952Y-86069047D01*
X179058571Y-86164285D01*
X179106190Y-86211904D01*
X179201428Y-86259523D01*
X179391904Y-86259523D01*
X179487142Y-86211904D01*
X179534761Y-86164285D01*
X179582380Y-86069047D01*
X179582380Y-85878571D01*
X179534761Y-85783333D01*
X179487142Y-85735714D01*
X179391904Y-85688095D01*
X179201428Y-85688095D01*
X179106190Y-85735714D01*
X179058571Y-85783333D01*
X179010952Y-85878571D01*
X158107142Y-78772380D02*
X157773809Y-78296190D01*
X157535714Y-78772380D02*
X157535714Y-77772380D01*
X157916666Y-77772380D01*
X158011904Y-77820000D01*
X158059523Y-77867619D01*
X158107142Y-77962857D01*
X158107142Y-78105714D01*
X158059523Y-78200952D01*
X158011904Y-78248571D01*
X157916666Y-78296190D01*
X157535714Y-78296190D01*
X159059523Y-78772380D02*
X158488095Y-78772380D01*
X158773809Y-78772380D02*
X158773809Y-77772380D01*
X158678571Y-77915238D01*
X158583333Y-78010476D01*
X158488095Y-78058095D01*
X159535714Y-78772380D02*
X159726190Y-78772380D01*
X159821428Y-78724761D01*
X159869047Y-78677142D01*
X159964285Y-78534285D01*
X160011904Y-78343809D01*
X160011904Y-77962857D01*
X159964285Y-77867619D01*
X159916666Y-77820000D01*
X159821428Y-77772380D01*
X159630952Y-77772380D01*
X159535714Y-77820000D01*
X159488095Y-77867619D01*
X159440476Y-77962857D01*
X159440476Y-78200952D01*
X159488095Y-78296190D01*
X159535714Y-78343809D01*
X159630952Y-78391428D01*
X159821428Y-78391428D01*
X159916666Y-78343809D01*
X159964285Y-78296190D01*
X160011904Y-78200952D01*
X177182380Y-87642857D02*
X176706190Y-87976190D01*
X177182380Y-88214285D02*
X176182380Y-88214285D01*
X176182380Y-87833333D01*
X176230000Y-87738095D01*
X176277619Y-87690476D01*
X176372857Y-87642857D01*
X176515714Y-87642857D01*
X176610952Y-87690476D01*
X176658571Y-87738095D01*
X176706190Y-87833333D01*
X176706190Y-88214285D01*
X176277619Y-87261904D02*
X176230000Y-87214285D01*
X176182380Y-87119047D01*
X176182380Y-86880952D01*
X176230000Y-86785714D01*
X176277619Y-86738095D01*
X176372857Y-86690476D01*
X176468095Y-86690476D01*
X176610952Y-86738095D01*
X177182380Y-87309523D01*
X177182380Y-86690476D01*
X176182380Y-86071428D02*
X176182380Y-85976190D01*
X176230000Y-85880952D01*
X176277619Y-85833333D01*
X176372857Y-85785714D01*
X176563333Y-85738095D01*
X176801428Y-85738095D01*
X176991904Y-85785714D01*
X177087142Y-85833333D01*
X177134761Y-85880952D01*
X177182380Y-85976190D01*
X177182380Y-86071428D01*
X177134761Y-86166666D01*
X177087142Y-86214285D01*
X176991904Y-86261904D01*
X176801428Y-86309523D01*
X176563333Y-86309523D01*
X176372857Y-86261904D01*
X176277619Y-86214285D01*
X176230000Y-86166666D01*
X176182380Y-86071428D01*
X162157142Y-78722380D02*
X161823809Y-78246190D01*
X161585714Y-78722380D02*
X161585714Y-77722380D01*
X161966666Y-77722380D01*
X162061904Y-77770000D01*
X162109523Y-77817619D01*
X162157142Y-77912857D01*
X162157142Y-78055714D01*
X162109523Y-78150952D01*
X162061904Y-78198571D01*
X161966666Y-78246190D01*
X161585714Y-78246190D01*
X162538095Y-77817619D02*
X162585714Y-77770000D01*
X162680952Y-77722380D01*
X162919047Y-77722380D01*
X163014285Y-77770000D01*
X163061904Y-77817619D01*
X163109523Y-77912857D01*
X163109523Y-78008095D01*
X163061904Y-78150952D01*
X162490476Y-78722380D01*
X163109523Y-78722380D01*
X164061904Y-78722380D02*
X163490476Y-78722380D01*
X163776190Y-78722380D02*
X163776190Y-77722380D01*
X163680952Y-77865238D01*
X163585714Y-77960476D01*
X163490476Y-78008095D01*
X154157142Y-78772380D02*
X153823809Y-78296190D01*
X153585714Y-78772380D02*
X153585714Y-77772380D01*
X153966666Y-77772380D01*
X154061904Y-77820000D01*
X154109523Y-77867619D01*
X154157142Y-77962857D01*
X154157142Y-78105714D01*
X154109523Y-78200952D01*
X154061904Y-78248571D01*
X153966666Y-78296190D01*
X153585714Y-78296190D01*
X154538095Y-77867619D02*
X154585714Y-77820000D01*
X154680952Y-77772380D01*
X154919047Y-77772380D01*
X155014285Y-77820000D01*
X155061904Y-77867619D01*
X155109523Y-77962857D01*
X155109523Y-78058095D01*
X155061904Y-78200952D01*
X154490476Y-78772380D01*
X155109523Y-78772380D01*
X155490476Y-77867619D02*
X155538095Y-77820000D01*
X155633333Y-77772380D01*
X155871428Y-77772380D01*
X155966666Y-77820000D01*
X156014285Y-77867619D01*
X156061904Y-77962857D01*
X156061904Y-78058095D01*
X156014285Y-78200952D01*
X155442857Y-78772380D01*
X156061904Y-78772380D01*
X176957142Y-98222380D02*
X176623809Y-97746190D01*
X176385714Y-98222380D02*
X176385714Y-97222380D01*
X176766666Y-97222380D01*
X176861904Y-97270000D01*
X176909523Y-97317619D01*
X176957142Y-97412857D01*
X176957142Y-97555714D01*
X176909523Y-97650952D01*
X176861904Y-97698571D01*
X176766666Y-97746190D01*
X176385714Y-97746190D01*
X177909523Y-98222380D02*
X177338095Y-98222380D01*
X177623809Y-98222380D02*
X177623809Y-97222380D01*
X177528571Y-97365238D01*
X177433333Y-97460476D01*
X177338095Y-97508095D01*
X178290476Y-97317619D02*
X178338095Y-97270000D01*
X178433333Y-97222380D01*
X178671428Y-97222380D01*
X178766666Y-97270000D01*
X178814285Y-97317619D01*
X178861904Y-97412857D01*
X178861904Y-97508095D01*
X178814285Y-97650952D01*
X178242857Y-98222380D01*
X178861904Y-98222380D01*
X180952380Y-114083333D02*
X181666666Y-114083333D01*
X181809523Y-114130952D01*
X181904761Y-114226190D01*
X181952380Y-114369047D01*
X181952380Y-114464285D01*
X180952380Y-113702380D02*
X180952380Y-113083333D01*
X181333333Y-113416666D01*
X181333333Y-113273809D01*
X181380952Y-113178571D01*
X181428571Y-113130952D01*
X181523809Y-113083333D01*
X181761904Y-113083333D01*
X181857142Y-113130952D01*
X181904761Y-113178571D01*
X181952380Y-113273809D01*
X181952380Y-113559523D01*
X181904761Y-113654761D01*
X181857142Y-113702380D01*
X176738095Y-88954380D02*
X177309523Y-88954380D01*
X177023809Y-89954380D02*
X177023809Y-88954380D01*
X177642857Y-89954380D02*
X177642857Y-88954380D01*
X178023809Y-88954380D01*
X178119047Y-89002000D01*
X178166666Y-89049619D01*
X178214285Y-89144857D01*
X178214285Y-89287714D01*
X178166666Y-89382952D01*
X178119047Y-89430571D01*
X178023809Y-89478190D01*
X177642857Y-89478190D01*
X179166666Y-89954380D02*
X178595238Y-89954380D01*
X178880952Y-89954380D02*
X178880952Y-88954380D01*
X178785714Y-89097238D01*
X178690476Y-89192476D01*
X178595238Y-89240095D01*
X179738095Y-88954380D02*
X180309523Y-88954380D01*
X180023809Y-89954380D02*
X180023809Y-88954380D01*
X180642857Y-89954380D02*
X180642857Y-88954380D01*
X181023809Y-88954380D01*
X181119047Y-89002000D01*
X181166666Y-89049619D01*
X181214285Y-89144857D01*
X181214285Y-89287714D01*
X181166666Y-89382952D01*
X181119047Y-89430571D01*
X181023809Y-89478190D01*
X180642857Y-89478190D01*
X181595238Y-89049619D02*
X181642857Y-89002000D01*
X181738095Y-88954380D01*
X181976190Y-88954380D01*
X182071428Y-89002000D01*
X182119047Y-89049619D01*
X182166666Y-89144857D01*
X182166666Y-89240095D01*
X182119047Y-89382952D01*
X181547619Y-89954380D01*
X182166666Y-89954380D01*
X182738095Y-88954380D02*
X183309523Y-88954380D01*
X183023809Y-89954380D02*
X183023809Y-88954380D01*
X183642857Y-89954380D02*
X183642857Y-88954380D01*
X184023809Y-88954380D01*
X184119047Y-89002000D01*
X184166666Y-89049619D01*
X184214285Y-89144857D01*
X184214285Y-89287714D01*
X184166666Y-89382952D01*
X184119047Y-89430571D01*
X184023809Y-89478190D01*
X183642857Y-89478190D01*
X184547619Y-88954380D02*
X185166666Y-88954380D01*
X184833333Y-89335333D01*
X184976190Y-89335333D01*
X185071428Y-89382952D01*
X185119047Y-89430571D01*
X185166666Y-89525809D01*
X185166666Y-89763904D01*
X185119047Y-89859142D01*
X185071428Y-89906761D01*
X184976190Y-89954380D01*
X184690476Y-89954380D01*
X184595238Y-89906761D01*
X184547619Y-89859142D01*
X121616666Y-77616666D02*
X122016666Y-77616666D01*
X121816666Y-78316666D02*
X121816666Y-77616666D01*
X122250000Y-78316666D02*
X122250000Y-77616666D01*
X122516666Y-77616666D01*
X122583333Y-77650000D01*
X122616666Y-77683333D01*
X122650000Y-77750000D01*
X122650000Y-77850000D01*
X122616666Y-77916666D01*
X122583333Y-77950000D01*
X122516666Y-77983333D01*
X122250000Y-77983333D01*
X123250000Y-77850000D02*
X123250000Y-78316666D01*
X123083333Y-77583333D02*
X122916666Y-78083333D01*
X123350000Y-78083333D01*
D17*
X121616666Y-81116666D02*
X122016666Y-81116666D01*
X121816666Y-81816666D02*
X121816666Y-81116666D01*
X122250000Y-81816666D02*
X122250000Y-81116666D01*
X122516666Y-81116666D01*
X122583333Y-81150000D01*
X122616666Y-81183333D01*
X122650000Y-81250000D01*
X122650000Y-81350000D01*
X122616666Y-81416666D01*
X122583333Y-81450000D01*
X122516666Y-81483333D01*
X122250000Y-81483333D01*
X123283333Y-81116666D02*
X122950000Y-81116666D01*
X122916666Y-81450000D01*
X122950000Y-81416666D01*
X123016666Y-81383333D01*
X123183333Y-81383333D01*
X123250000Y-81416666D01*
X123283333Y-81450000D01*
X123316666Y-81516666D01*
X123316666Y-81683333D01*
X123283333Y-81750000D01*
X123250000Y-81783333D01*
X123183333Y-81816666D01*
X123016666Y-81816666D01*
X122950000Y-81783333D01*
X122916666Y-81750000D01*
D11*
X121616666Y-84616666D02*
X122016666Y-84616666D01*
X121816666Y-85316666D02*
X121816666Y-84616666D01*
X122250000Y-85316666D02*
X122250000Y-84616666D01*
X122516666Y-84616666D01*
X122583333Y-84650000D01*
X122616666Y-84683333D01*
X122650000Y-84750000D01*
X122650000Y-84850000D01*
X122616666Y-84916666D01*
X122583333Y-84950000D01*
X122516666Y-84983333D01*
X122250000Y-84983333D01*
X123250000Y-84616666D02*
X123116666Y-84616666D01*
X123050000Y-84650000D01*
X123016666Y-84683333D01*
X122950000Y-84783333D01*
X122916666Y-84916666D01*
X122916666Y-85183333D01*
X122950000Y-85250000D01*
X122983333Y-85283333D01*
X123050000Y-85316666D01*
X123183333Y-85316666D01*
X123250000Y-85283333D01*
X123283333Y-85250000D01*
X123316666Y-85183333D01*
X123316666Y-85016666D01*
X123283333Y-84950000D01*
X123250000Y-84916666D01*
X123183333Y-84883333D01*
X123050000Y-84883333D01*
X122983333Y-84916666D01*
X122950000Y-84950000D01*
X122916666Y-85016666D01*
X101738095Y-86054380D02*
X102309523Y-86054380D01*
X102023809Y-87054380D02*
X102023809Y-86054380D01*
X102642857Y-87054380D02*
X102642857Y-86054380D01*
X103023809Y-86054380D01*
X103119047Y-86102000D01*
X103166666Y-86149619D01*
X103214285Y-86244857D01*
X103214285Y-86387714D01*
X103166666Y-86482952D01*
X103119047Y-86530571D01*
X103023809Y-86578190D01*
X102642857Y-86578190D01*
X103547619Y-86054380D02*
X104214285Y-86054380D01*
X103785714Y-87054380D01*
X150738095Y-73454380D02*
X151309523Y-73454380D01*
X151023809Y-74454380D02*
X151023809Y-73454380D01*
X151642857Y-74454380D02*
X151642857Y-73454380D01*
X152023809Y-73454380D01*
X152119047Y-73502000D01*
X152166666Y-73549619D01*
X152214285Y-73644857D01*
X152214285Y-73787714D01*
X152166666Y-73882952D01*
X152119047Y-73930571D01*
X152023809Y-73978190D01*
X151642857Y-73978190D01*
X152785714Y-73882952D02*
X152690476Y-73835333D01*
X152642857Y-73787714D01*
X152595238Y-73692476D01*
X152595238Y-73644857D01*
X152642857Y-73549619D01*
X152690476Y-73502000D01*
X152785714Y-73454380D01*
X152976190Y-73454380D01*
X153071428Y-73502000D01*
X153119047Y-73549619D01*
X153166666Y-73644857D01*
X153166666Y-73692476D01*
X153119047Y-73787714D01*
X153071428Y-73835333D01*
X152976190Y-73882952D01*
X152785714Y-73882952D01*
X152690476Y-73930571D01*
X152642857Y-73978190D01*
X152595238Y-74073428D01*
X152595238Y-74263904D01*
X152642857Y-74359142D01*
X152690476Y-74406761D01*
X152785714Y-74454380D01*
X152976190Y-74454380D01*
X153071428Y-74406761D01*
X153119047Y-74359142D01*
X153166666Y-74263904D01*
X153166666Y-74073428D01*
X153119047Y-73978190D01*
X153071428Y-73930571D01*
X152976190Y-73882952D01*
X71738095Y-76954380D02*
X72309523Y-76954380D01*
X72023809Y-77954380D02*
X72023809Y-76954380D01*
X72642857Y-77954380D02*
X72642857Y-76954380D01*
X73023809Y-76954380D01*
X73119047Y-77002000D01*
X73166666Y-77049619D01*
X73214285Y-77144857D01*
X73214285Y-77287714D01*
X73166666Y-77382952D01*
X73119047Y-77430571D01*
X73023809Y-77478190D01*
X72642857Y-77478190D01*
X73690476Y-77954380D02*
X73880952Y-77954380D01*
X73976190Y-77906761D01*
X74023809Y-77859142D01*
X74119047Y-77716285D01*
X74166666Y-77525809D01*
X74166666Y-77144857D01*
X74119047Y-77049619D01*
X74071428Y-77002000D01*
X73976190Y-76954380D01*
X73785714Y-76954380D01*
X73690476Y-77002000D01*
X73642857Y-77049619D01*
X73595238Y-77144857D01*
X73595238Y-77382952D01*
X73642857Y-77478190D01*
X73690476Y-77525809D01*
X73785714Y-77573428D01*
X73976190Y-77573428D01*
X74071428Y-77525809D01*
X74119047Y-77478190D01*
X74166666Y-77382952D01*
X75261904Y-76954380D02*
X75833333Y-76954380D01*
X75547619Y-77954380D02*
X75547619Y-76954380D01*
X76166666Y-77954380D02*
X76166666Y-76954380D01*
X76547619Y-76954380D01*
X76642857Y-77002000D01*
X76690476Y-77049619D01*
X76738095Y-77144857D01*
X76738095Y-77287714D01*
X76690476Y-77382952D01*
X76642857Y-77430571D01*
X76547619Y-77478190D01*
X76166666Y-77478190D01*
X77690476Y-77954380D02*
X77119047Y-77954380D01*
X77404761Y-77954380D02*
X77404761Y-76954380D01*
X77309523Y-77097238D01*
X77214285Y-77192476D01*
X77119047Y-77240095D01*
X78309523Y-76954380D02*
X78404761Y-76954380D01*
X78500000Y-77002000D01*
X78547619Y-77049619D01*
X78595238Y-77144857D01*
X78642857Y-77335333D01*
X78642857Y-77573428D01*
X78595238Y-77763904D01*
X78547619Y-77859142D01*
X78500000Y-77906761D01*
X78404761Y-77954380D01*
X78309523Y-77954380D01*
X78214285Y-77906761D01*
X78166666Y-77859142D01*
X78119047Y-77763904D01*
X78071428Y-77573428D01*
X78071428Y-77335333D01*
X78119047Y-77144857D01*
X78166666Y-77049619D01*
X78214285Y-77002000D01*
X78309523Y-76954380D01*
X79261904Y-76954380D02*
X79833333Y-76954380D01*
X79547619Y-77954380D02*
X79547619Y-76954380D01*
X80166666Y-77954380D02*
X80166666Y-76954380D01*
X80547619Y-76954380D01*
X80642857Y-77002000D01*
X80690476Y-77049619D01*
X80738095Y-77144857D01*
X80738095Y-77287714D01*
X80690476Y-77382952D01*
X80642857Y-77430571D01*
X80547619Y-77478190D01*
X80166666Y-77478190D01*
X81690476Y-77954380D02*
X81119047Y-77954380D01*
X81404761Y-77954380D02*
X81404761Y-76954380D01*
X81309523Y-77097238D01*
X81214285Y-77192476D01*
X81119047Y-77240095D01*
X82642857Y-77954380D02*
X82071428Y-77954380D01*
X82357142Y-77954380D02*
X82357142Y-76954380D01*
X82261904Y-77097238D01*
X82166666Y-77192476D01*
X82071428Y-77240095D01*
X83261904Y-76954380D02*
X83833333Y-76954380D01*
X83547619Y-77954380D02*
X83547619Y-76954380D01*
X84166666Y-77954380D02*
X84166666Y-76954380D01*
X84547619Y-76954380D01*
X84642857Y-77002000D01*
X84690476Y-77049619D01*
X84738095Y-77144857D01*
X84738095Y-77287714D01*
X84690476Y-77382952D01*
X84642857Y-77430571D01*
X84547619Y-77478190D01*
X84166666Y-77478190D01*
X85690476Y-77954380D02*
X85119047Y-77954380D01*
X85404761Y-77954380D02*
X85404761Y-76954380D01*
X85309523Y-77097238D01*
X85214285Y-77192476D01*
X85119047Y-77240095D01*
X86071428Y-77049619D02*
X86119047Y-77002000D01*
X86214285Y-76954380D01*
X86452380Y-76954380D01*
X86547619Y-77002000D01*
X86595238Y-77049619D01*
X86642857Y-77144857D01*
X86642857Y-77240095D01*
X86595238Y-77382952D01*
X86023809Y-77954380D01*
X86642857Y-77954380D01*
X106261904Y-86054380D02*
X106833333Y-86054380D01*
X106547619Y-87054380D02*
X106547619Y-86054380D01*
X107166666Y-87054380D02*
X107166666Y-86054380D01*
X107547619Y-86054380D01*
X107642857Y-86102000D01*
X107690476Y-86149619D01*
X107738095Y-86244857D01*
X107738095Y-86387714D01*
X107690476Y-86482952D01*
X107642857Y-86530571D01*
X107547619Y-86578190D01*
X107166666Y-86578190D01*
X108690476Y-87054380D02*
X108119047Y-87054380D01*
X108404761Y-87054380D02*
X108404761Y-86054380D01*
X108309523Y-86197238D01*
X108214285Y-86292476D01*
X108119047Y-86340095D01*
X109023809Y-86054380D02*
X109642857Y-86054380D01*
X109309523Y-86435333D01*
X109452380Y-86435333D01*
X109547619Y-86482952D01*
X109595238Y-86530571D01*
X109642857Y-86625809D01*
X109642857Y-86863904D01*
X109595238Y-86959142D01*
X109547619Y-87006761D01*
X109452380Y-87054380D01*
X109166666Y-87054380D01*
X109071428Y-87006761D01*
X109023809Y-86959142D01*
X131652380Y-84333333D02*
X132366666Y-84333333D01*
X132509523Y-84380952D01*
X132604761Y-84476190D01*
X132652380Y-84619047D01*
X132652380Y-84714285D01*
X132652380Y-83857142D02*
X131652380Y-83857142D01*
X131652380Y-83476190D01*
X131700000Y-83380952D01*
X131747619Y-83333333D01*
X131842857Y-83285714D01*
X131985714Y-83285714D01*
X132080952Y-83333333D01*
X132128571Y-83380952D01*
X132176190Y-83476190D01*
X132176190Y-83857142D01*
X131652380Y-82952380D02*
X131652380Y-82333333D01*
X132033333Y-82666666D01*
X132033333Y-82523809D01*
X132080952Y-82428571D01*
X132128571Y-82380952D01*
X132223809Y-82333333D01*
X132461904Y-82333333D01*
X132557142Y-82380952D01*
X132604761Y-82428571D01*
X132652380Y-82523809D01*
X132652380Y-82809523D01*
X132604761Y-82904761D01*
X132557142Y-82952380D01*
X129852380Y-86433333D02*
X129852380Y-85814285D01*
X130233333Y-86147619D01*
X130233333Y-86004761D01*
X130280952Y-85909523D01*
X130328571Y-85861904D01*
X130423809Y-85814285D01*
X130661904Y-85814285D01*
X130757142Y-85861904D01*
X130804761Y-85909523D01*
X130852380Y-86004761D01*
X130852380Y-86290476D01*
X130804761Y-86385714D01*
X130757142Y-86433333D01*
X130852380Y-80614285D02*
X130852380Y-81185714D01*
X130852380Y-80900000D02*
X129852380Y-80900000D01*
X129995238Y-80995238D01*
X130090476Y-81090476D01*
X130138095Y-81185714D01*
X148672380Y-82261904D02*
X149481904Y-82261904D01*
X149577142Y-82214285D01*
X149624761Y-82166666D01*
X149672380Y-82071428D01*
X149672380Y-81880952D01*
X149624761Y-81785714D01*
X149577142Y-81738095D01*
X149481904Y-81690476D01*
X148672380Y-81690476D01*
X149672380Y-81166666D02*
X149672380Y-80976190D01*
X149624761Y-80880952D01*
X149577142Y-80833333D01*
X149434285Y-80738095D01*
X149243809Y-80690476D01*
X148862857Y-80690476D01*
X148767619Y-80738095D01*
X148720000Y-80785714D01*
X148672380Y-80880952D01*
X148672380Y-81071428D01*
X148720000Y-81166666D01*
X148767619Y-81214285D01*
X148862857Y-81261904D01*
X149100952Y-81261904D01*
X149196190Y-81214285D01*
X149243809Y-81166666D01*
X149291428Y-81071428D01*
X149291428Y-80880952D01*
X149243809Y-80785714D01*
X149196190Y-80738095D01*
X149100952Y-80690476D01*
X149704761Y-138247619D02*
X149609523Y-138200000D01*
X149514285Y-138104761D01*
X149371428Y-137961904D01*
X149276190Y-137914285D01*
X149180952Y-137914285D01*
X149228571Y-138152380D02*
X149133333Y-138104761D01*
X149038095Y-138009523D01*
X148990476Y-137819047D01*
X148990476Y-137485714D01*
X149038095Y-137295238D01*
X149133333Y-137200000D01*
X149228571Y-137152380D01*
X149419047Y-137152380D01*
X149514285Y-137200000D01*
X149609523Y-137295238D01*
X149657142Y-137485714D01*
X149657142Y-137819047D01*
X149609523Y-138009523D01*
X149514285Y-138104761D01*
X149419047Y-138152380D01*
X149228571Y-138152380D01*
X150609523Y-138152380D02*
X150038095Y-138152380D01*
X150323809Y-138152380D02*
X150323809Y-137152380D01*
X150228571Y-137295238D01*
X150133333Y-137390476D01*
X150038095Y-137438095D01*
M02*
