G04 #@! TF.GenerationSoftware,KiCad,Pcbnew,7.0.8-7.0.8~ubuntu22.04.1*
G04 #@! TF.CreationDate,2023-12-01T18:43:59+09:00*
G04 #@! TF.ProjectId,ESP32DUALDIAL,45535033-3244-4554-914c-4449414c2e6b,rev?*
G04 #@! TF.SameCoordinates,Original*
G04 #@! TF.FileFunction,Soldermask,Top*
G04 #@! TF.FilePolarity,Negative*
%FSLAX46Y46*%
G04 Gerber Fmt 4.6, Leading zero omitted, Abs format (unit mm)*
G04 Created by KiCad (PCBNEW 7.0.8-7.0.8~ubuntu22.04.1) date 2023-12-01 18:43:59*
%MOMM*%
%LPD*%
G01*
G04 APERTURE LIST*
G04 Aperture macros list*
%AMRoundRect*
0 Rectangle with rounded corners*
0 $1 Rounding radius*
0 $2 $3 $4 $5 $6 $7 $8 $9 X,Y pos of 4 corners*
0 Add a 4 corners polygon primitive as box body*
4,1,4,$2,$3,$4,$5,$6,$7,$8,$9,$2,$3,0*
0 Add four circle primitives for the rounded corners*
1,1,$1+$1,$2,$3*
1,1,$1+$1,$4,$5*
1,1,$1+$1,$6,$7*
1,1,$1+$1,$8,$9*
0 Add four rect primitives between the rounded corners*
20,1,$1+$1,$2,$3,$4,$5,0*
20,1,$1+$1,$4,$5,$6,$7,0*
20,1,$1+$1,$6,$7,$8,$9,0*
20,1,$1+$1,$8,$9,$2,$3,0*%
%AMHorizOval*
0 Thick line with rounded ends*
0 $1 width*
0 $2 $3 position (X,Y) of the first rounded end (center of the circle)*
0 $4 $5 position (X,Y) of the second rounded end (center of the circle)*
0 Add line between two ends*
20,1,$1,$2,$3,$4,$5,0*
0 Add two circle primitives to create the rounded ends*
1,1,$1,$2,$3*
1,1,$1,$4,$5*%
%AMRotRect*
0 Rectangle, with rotation*
0 The origin of the aperture is its center*
0 $1 length*
0 $2 width*
0 $3 Rotation angle, in degrees counterclockwise*
0 Add horizontal line*
21,1,$1,$2,0,0,$3*%
%AMFreePoly0*
4,1,19,0.550000,-0.750000,0.000000,-0.750000,0.000000,-0.744911,-0.071157,-0.744911,-0.207708,-0.704816,-0.327430,-0.627875,-0.420627,-0.520320,-0.479746,-0.390866,-0.500000,-0.250000,-0.500000,0.250000,-0.479746,0.390866,-0.420627,0.520320,-0.327430,0.627875,-0.207708,0.704816,-0.071157,0.744911,0.000000,0.744911,0.000000,0.750000,0.550000,0.750000,0.550000,-0.750000,0.550000,-0.750000,
$1*%
%AMFreePoly1*
4,1,19,0.000000,0.744911,0.071157,0.744911,0.207708,0.704816,0.327430,0.627875,0.420627,0.520320,0.479746,0.390866,0.500000,0.250000,0.500000,-0.250000,0.479746,-0.390866,0.420627,-0.520320,0.327430,-0.627875,0.207708,-0.704816,0.071157,-0.744911,0.000000,-0.744911,0.000000,-0.750000,-0.550000,-0.750000,-0.550000,0.750000,0.000000,0.750000,0.000000,0.744911,0.000000,0.744911,
$1*%
G04 Aperture macros list end*
%ADD10O,2.300000X1.500000*%
%ADD11R,2.300000X1.500000*%
%ADD12RoundRect,0.225000X0.250000X-0.225000X0.250000X0.225000X-0.250000X0.225000X-0.250000X-0.225000X0*%
%ADD13RoundRect,0.225000X-0.250000X0.225000X-0.250000X-0.225000X0.250000X-0.225000X0.250000X0.225000X0*%
%ADD14C,1.600000*%
%ADD15R,1.600000X1.600000*%
%ADD16RoundRect,0.200000X-0.275000X0.200000X-0.275000X-0.200000X0.275000X-0.200000X0.275000X0.200000X0*%
%ADD17RoundRect,0.140000X0.170000X-0.140000X0.170000X0.140000X-0.170000X0.140000X-0.170000X-0.140000X0*%
%ADD18RoundRect,0.200000X-0.200000X-0.275000X0.200000X-0.275000X0.200000X0.275000X-0.200000X0.275000X0*%
%ADD19R,2.000000X2.000000*%
%ADD20C,2.000000*%
%ADD21R,2.000000X3.200000*%
%ADD22RoundRect,0.200000X0.200000X0.275000X-0.200000X0.275000X-0.200000X-0.275000X0.200000X-0.275000X0*%
%ADD23C,6.400000*%
%ADD24RoundRect,0.140000X-0.140000X-0.170000X0.140000X-0.170000X0.140000X0.170000X-0.140000X0.170000X0*%
%ADD25RoundRect,0.200000X0.275000X-0.200000X0.275000X0.200000X-0.275000X0.200000X-0.275000X-0.200000X0*%
%ADD26FreePoly0,270.000000*%
%ADD27R,1.500000X1.000000*%
%ADD28FreePoly1,270.000000*%
%ADD29RotRect,1.400000X0.900000X202.000000*%
%ADD30RotRect,1.400000X0.900000X292.000000*%
%ADD31RotRect,4.000000X4.000000X202.000000*%
%ADD32RoundRect,0.140000X0.140000X0.170000X-0.140000X0.170000X-0.140000X-0.170000X0.140000X-0.170000X0*%
%ADD33R,1.100000X1.100000*%
%ADD34C,4.000000*%
%ADD35C,3.000000*%
%ADD36R,1.500000X1.500000*%
%ADD37C,1.500000*%
%ADD38R,1.700000X1.700000*%
%ADD39O,1.700000X1.700000*%
%ADD40RoundRect,0.150000X-0.150000X0.875000X-0.150000X-0.875000X0.150000X-0.875000X0.150000X0.875000X0*%
%ADD41R,2.200000X1.200000*%
%ADD42R,6.400000X5.800000*%
%ADD43RotRect,1.700000X1.700000X65.000000*%
%ADD44HorizOval,1.700000X0.000000X0.000000X0.000000X0.000000X0*%
%ADD45R,3.000000X3.000000*%
%ADD46RoundRect,0.250001X-1.099999X-1.099999X1.099999X-1.099999X1.099999X1.099999X-1.099999X1.099999X0*%
%ADD47C,2.700000*%
%ADD48RoundRect,0.250001X-1.461817X-0.532058X0.532058X-1.461817X1.461817X0.532058X-0.532058X1.461817X0*%
%ADD49R,2.700000X2.700000*%
%ADD50R,1.730000X2.030000*%
%ADD51O,1.730000X2.030000*%
%ADD52O,3.000000X2.600000*%
%ADD53O,3.000000X2.200000*%
%ADD54O,3.000000X1.800000*%
%ADD55O,1.600000X1.600000*%
G04 APERTURE END LIST*
D10*
X165400000Y-97800000D03*
X165400000Y-95260000D03*
D11*
X165400000Y-92720000D03*
D12*
X167500000Y-97375000D03*
X167500000Y-95825000D03*
X135100000Y-99075000D03*
X135100000Y-97525000D03*
D13*
X167500000Y-92850000D03*
X167500000Y-94400000D03*
D14*
X171900000Y-97000000D03*
D15*
X169900000Y-97000000D03*
X169900000Y-90800000D03*
D14*
X172400000Y-90800000D03*
D16*
X203700000Y-108075000D03*
X203700000Y-109725000D03*
D17*
X201900000Y-105160000D03*
X201900000Y-104200000D03*
D16*
X200200000Y-96575000D03*
X200200000Y-98225000D03*
X87500000Y-84675000D03*
X87500000Y-86325000D03*
X85000000Y-84675000D03*
X85000000Y-86325000D03*
D18*
X154534000Y-125820000D03*
X156184000Y-125820000D03*
D19*
X167500000Y-117500000D03*
D20*
X172500000Y-117500000D03*
X170000000Y-117500000D03*
D21*
X164400000Y-110000000D03*
X175600000Y-110000000D03*
D20*
X172500000Y-103000000D03*
X167500000Y-103000000D03*
D22*
X106000000Y-81000000D03*
X104350000Y-81000000D03*
D23*
X170000000Y-140000000D03*
X60000000Y-140000000D03*
D24*
X154824000Y-123420000D03*
X155784000Y-123420000D03*
D25*
X200400000Y-101325000D03*
X200400000Y-99675000D03*
D19*
X57500000Y-117500000D03*
D20*
X62500000Y-117500000D03*
X60000000Y-117500000D03*
D21*
X54400000Y-110000000D03*
X65600000Y-110000000D03*
D20*
X62500000Y-103000000D03*
X57500000Y-103000000D03*
D23*
X170000000Y-80000000D03*
X60000000Y-80000000D03*
D26*
X147800000Y-93600000D03*
D27*
X147800000Y-94900000D03*
D28*
X147800000Y-96200000D03*
D29*
X202242664Y-111169747D03*
X201766914Y-109992224D03*
X201291164Y-108814700D03*
X200815413Y-107637177D03*
X200339663Y-106459653D03*
X199863913Y-105282130D03*
X199388162Y-104104606D03*
X198912412Y-102927083D03*
X198436661Y-101749559D03*
X197960911Y-100572036D03*
X197485161Y-99394512D03*
X197009410Y-98216989D03*
X196533660Y-97039465D03*
X196057910Y-95861942D03*
D30*
X192543200Y-95638290D03*
X191365677Y-96114040D03*
X190188153Y-96589790D03*
X189010630Y-97065541D03*
X187833106Y-97541291D03*
X186655583Y-98017042D03*
X185478059Y-98492792D03*
X184300536Y-98968542D03*
X183123012Y-99444293D03*
X181945489Y-99920043D03*
D29*
X179572581Y-102522447D03*
X180048331Y-103699971D03*
X180524081Y-104877494D03*
X180999832Y-106055018D03*
X181475582Y-107232541D03*
X181951333Y-108410065D03*
X182427083Y-109587588D03*
X182902833Y-110765112D03*
X183378584Y-111942635D03*
X183854334Y-113120159D03*
X184330084Y-114297682D03*
X184805835Y-115475206D03*
X185281585Y-116652729D03*
X185757336Y-117830253D03*
D31*
X192498813Y-106780231D03*
D22*
X165225000Y-102800000D03*
X163575000Y-102800000D03*
X71000000Y-105500000D03*
X69350000Y-105500000D03*
X71000000Y-102400000D03*
X69350000Y-102400000D03*
X172725000Y-120600000D03*
X171075000Y-120600000D03*
D24*
X144520000Y-126000000D03*
X145480000Y-126000000D03*
D32*
X145480000Y-128500000D03*
X144520000Y-128500000D03*
D33*
X143600000Y-140000000D03*
X146400000Y-140000000D03*
D34*
X159600000Y-134500000D03*
X159600000Y-85500000D03*
X76300000Y-134500000D03*
D35*
X76300000Y-85500000D03*
D36*
X160600000Y-126501000D03*
D37*
X160600000Y-123961000D03*
X160600000Y-121421000D03*
X160600000Y-118881000D03*
X160600000Y-116341000D03*
X160600000Y-113801000D03*
X160600000Y-111261000D03*
X160600000Y-108721000D03*
X160600000Y-106181000D03*
X160600000Y-103641000D03*
X160600000Y-101101000D03*
X160600000Y-98561000D03*
X160600000Y-96021000D03*
X160600000Y-93481000D03*
D36*
X76300000Y-113801000D03*
D37*
X76300000Y-111261000D03*
X76300000Y-108721000D03*
X76300000Y-106181000D03*
D18*
X69375000Y-99800000D03*
X71025000Y-99800000D03*
D25*
X173100000Y-84775000D03*
X173100000Y-86425000D03*
D16*
X82500000Y-84650000D03*
X82500000Y-86300000D03*
D18*
X169350000Y-100550000D03*
X171000000Y-100550000D03*
D25*
X96800000Y-87000000D03*
X96800000Y-85350000D03*
X99400000Y-87025000D03*
X99400000Y-85375000D03*
D16*
X175300000Y-84775000D03*
X175300000Y-86425000D03*
X179300000Y-86100000D03*
X179300000Y-87750000D03*
X177200000Y-85100000D03*
X177200000Y-86750000D03*
X181400000Y-87150000D03*
X181400000Y-88800000D03*
D18*
X173125000Y-99850000D03*
X174775000Y-99850000D03*
D16*
X90000000Y-84675000D03*
X90000000Y-86325000D03*
D25*
X94200000Y-87025000D03*
X94200000Y-85375000D03*
D18*
X167475000Y-120600000D03*
X169125000Y-120600000D03*
X176775000Y-99200000D03*
X178425000Y-99200000D03*
D38*
X179000000Y-113500000D03*
D39*
X179000000Y-110960000D03*
D20*
X179500000Y-91000000D03*
X182500000Y-91000000D03*
X185500000Y-91000000D03*
X124000000Y-83000000D03*
X124000000Y-86500000D03*
D35*
X103000000Y-89000000D03*
D20*
X162700000Y-143300000D03*
X73000000Y-79500000D03*
X77000000Y-79500000D03*
X81000000Y-79500000D03*
X85000000Y-79500000D03*
D35*
X108000000Y-89000000D03*
D18*
X149250000Y-125250000D03*
X150900000Y-125250000D03*
D20*
X124000000Y-79500000D03*
D26*
X130400000Y-82200000D03*
D27*
X130400000Y-83500000D03*
D28*
X130400000Y-84800000D03*
D40*
X147580000Y-76850000D03*
X146310000Y-76850000D03*
X145040000Y-76850000D03*
X143770000Y-76850000D03*
X142500000Y-76850000D03*
X141230000Y-76850000D03*
X139960000Y-76850000D03*
X138690000Y-76850000D03*
X137420000Y-76850000D03*
X137420000Y-86150000D03*
X138690000Y-86150000D03*
X139960000Y-86150000D03*
X141230000Y-86150000D03*
X142500000Y-86150000D03*
X143770000Y-86150000D03*
X145040000Y-86150000D03*
X146310000Y-86150000D03*
X147580000Y-86150000D03*
D41*
X154000000Y-135480000D03*
D42*
X147700000Y-133200000D03*
D41*
X154000000Y-130920000D03*
D43*
X199604044Y-92612543D03*
D44*
X197302022Y-91539093D03*
X195000000Y-90465642D03*
X192697979Y-89392192D03*
X190395957Y-88318741D03*
X188093935Y-87245291D03*
X185791913Y-86171841D03*
X183489892Y-85098390D03*
X181187870Y-84024940D03*
X178885848Y-82951490D03*
D36*
X92000000Y-81000000D03*
D37*
X94540000Y-81000000D03*
X97080000Y-81000000D03*
X99620000Y-81000000D03*
D45*
X90000000Y-115000000D03*
D35*
X90000000Y-94200000D03*
X135000000Y-94200000D03*
X135000000Y-102200000D03*
X86000000Y-128000000D03*
X91000000Y-128000000D03*
X103000000Y-128000000D03*
X108300000Y-128000000D03*
D46*
X87000000Y-139000000D03*
D47*
X90960000Y-139000000D03*
X94920000Y-139000000D03*
D48*
X49000000Y-134000000D03*
D47*
X53531539Y-136113091D03*
D49*
X103000000Y-139000000D03*
D47*
X108000000Y-139000000D03*
X113000000Y-139000000D03*
X118000000Y-139000000D03*
D48*
X39000000Y-129500000D03*
D47*
X43531539Y-131613091D03*
D48*
X29000000Y-125000000D03*
D47*
X33531539Y-127113091D03*
D50*
X158500000Y-143500000D03*
D51*
X155960000Y-143500000D03*
X153420000Y-143500000D03*
D50*
X147000000Y-143500000D03*
D51*
X144460000Y-143500000D03*
X141920000Y-143500000D03*
D19*
X115000000Y-86000000D03*
X115000000Y-83500000D03*
D20*
X115000000Y-78400000D03*
D52*
X42500000Y-120600000D03*
X42500000Y-118380000D03*
D53*
X42500000Y-113300000D03*
D54*
X42500000Y-103140000D03*
X42500000Y-100600000D03*
D52*
X35500000Y-116600000D03*
X35500000Y-114380000D03*
D53*
X35500000Y-109300000D03*
D54*
X35500000Y-99140000D03*
X35500000Y-96600000D03*
D52*
X28500000Y-113600000D03*
X28500000Y-111380000D03*
D53*
X28500000Y-106300000D03*
D54*
X28500000Y-96140000D03*
X28500000Y-93600000D03*
D52*
X49000000Y-124100000D03*
X49000000Y-121880000D03*
D53*
X49000000Y-116800000D03*
D54*
X49000000Y-106640000D03*
X49000000Y-104100000D03*
D20*
X136600000Y-124000000D03*
X126600000Y-124000000D03*
D14*
X136760000Y-129800000D03*
D55*
X126600000Y-129800000D03*
D20*
X123600000Y-124000000D03*
X113600000Y-124000000D03*
D14*
X123600000Y-129800000D03*
D55*
X113440000Y-129800000D03*
M02*
