M48
; DRILL file {KiCad 7.0.8-7.0.8~ubuntu22.04.1} date 2023年12月01日 18時43分57秒
; FORMAT={-:-/ absolute / inch / decimal}
; #@! TF.CreationDate,2023-12-01T18:43:57+09:00
; #@! TF.GenerationSoftware,Kicad,Pcbnew,7.0.8-7.0.8~ubuntu22.04.1
; #@! TF.FileFunction,Plated,1,2,PTH
FMAT,2
INCH
; #@! TA.AperFunction,Plated,PTH,ViaDrill
T1C0.0118
; #@! TA.AperFunction,Plated,PTH,ViaDrill
T2C0.0157
; #@! TA.AperFunction,Plated,PTH,ViaDrill
T3C0.0236
; #@! TA.AperFunction,Plated,PTH,ViaDrill
T4C0.0315
; #@! TA.AperFunction,Plated,PTH,ComponentDrill
T5C0.0315
; #@! TA.AperFunction,Plated,PTH,ComponentDrill
T6C0.0394
; #@! TA.AperFunction,Plated,PTH,ViaDrill
T7C0.0394
; #@! TA.AperFunction,Plated,PTH,ComponentDrill
T8C0.0402
; #@! TA.AperFunction,Plated,PTH,ComponentDrill
T9C0.0472
; #@! TA.AperFunction,Plated,PTH,ViaDrill
T10C0.0500
; #@! TA.AperFunction,Plated,PTH,ComponentDrill
T11C0.0591
; #@! TA.AperFunction,Plated,PTH,ComponentDrill
T12C0.0669
; #@! TA.AperFunction,Plated,PTH,ComponentDrill
T13C0.1063
; #@! TA.AperFunction,Plated,PTH,ComponentDrill
T14C0.1378
%
G90
G05
T1
X4.2244Y-3.2244
X4.315Y-3.4055
X5.8854Y-3.5536
X5.8898Y-3.4345
X6.8235Y-4.2319
X6.8386Y-3.4173
X6.8448Y-4.2461
X6.8543Y-3.8071
X6.8625Y-4.0846
X6.872Y-3.8748
X6.8884Y-4.0846
X6.9257Y-3.4374
X6.9291Y-3.8801
X6.9807Y-4.2292
X6.9961Y-3.4567
X7.0085Y-4.2282
X7.0315Y-3.8227
X7.0866Y-3.6457
X7.3866Y-3.6312
X7.4142Y-3.6312
X7.4811Y-3.5212
X7.5416Y-3.5479
T2
X6.8898Y-3.8465
X6.9367Y-3.4885
X7.1181Y-3.7289
X7.1271Y-3.5289
T3
X6.4803Y-4.8209
T4
X4.165Y-3.2462
X4.273Y-3.3991
X5.4301Y-3.5651
X6.4035Y-3.939
X6.4587Y-4.002
X6.6791Y-3.6614
X7.4803Y-3.9213
X7.5591Y-3.8976
X7.6299Y-3.8661
X7.9213Y-4.0472
T5
X3.622Y-3.189
X3.722Y-3.189
X3.822Y-3.189
X3.922Y-3.189
X4.4661Y-5.1102
X4.8661Y-5.1102
X4.9843Y-5.1102
X5.3843Y-5.1102
X6.689Y-3.5748
X6.689Y-3.8189
X6.7677Y-3.8189
X6.7874Y-3.5748
T6
X1.122Y-3.685
X1.122Y-3.785
X1.3976Y-3.8031
X1.3976Y-3.9031
X1.6732Y-3.9606
X1.6732Y-4.0606
X1.9291Y-4.0984
X1.9291Y-4.1984
X2.2638Y-4.0551
X2.2638Y-4.626
X2.3622Y-4.626
X2.4606Y-4.0551
X2.4606Y-4.626
X3.0039Y-4.1804
X3.0039Y-4.2804
X3.0039Y-4.3804
X3.0039Y-4.4804
X4.4724Y-4.8819
X4.5276Y-3.0866
X4.5276Y-3.2874
X4.5276Y-3.3858
X4.8661Y-4.8819
X4.9843Y-4.8819
X5.378Y-4.8819
X6.3228Y-3.6804
X6.3228Y-3.7804
X6.3228Y-3.8804
X6.3228Y-3.9804
X6.3228Y-4.0804
X6.3228Y-4.1804
X6.3228Y-4.2804
X6.3228Y-4.3804
X6.3228Y-4.4804
X6.3228Y-4.5804
X6.3228Y-4.6804
X6.3228Y-4.7804
X6.3228Y-4.8804
X6.3228Y-4.9804
X6.5118Y-3.6504
X6.5118Y-3.7504
X6.5118Y-3.8504
X6.5945Y-4.0551
X6.5945Y-4.626
X6.6929Y-4.626
X6.7913Y-4.0551
X6.7913Y-4.626
X7.0427Y-3.2658
X7.0472Y-4.3685
X7.0472Y-4.4685
X7.1334Y-3.3081
X7.224Y-3.3503
X7.3146Y-3.3926
X7.4053Y-3.4349
X7.4959Y-3.4771
X7.5865Y-3.5194
X7.6772Y-3.5616
X7.7678Y-3.6039
X7.8584Y-3.6462
T7
X5.2933Y-3.3917
X5.3465Y-3.0945
T8
X5.5874Y-5.6496
X5.6874Y-5.6496
X5.7874Y-5.6496
X6.0402Y-5.6496
X6.1402Y-5.6496
X6.2402Y-5.6496
T9
X1.122Y-4.185
X1.122Y-4.385
X1.122Y-4.4724
X1.3976Y-4.3031
X1.3976Y-4.5031
X1.3976Y-4.5906
X1.6732Y-4.4606
X1.6732Y-4.6606
X1.6732Y-4.748
X1.9291Y-4.5984
X1.9291Y-4.7984
X1.9291Y-4.8858
T10
X4.4134Y-3.8307
X5.863Y-3.893
X5.9252Y-4.4783
X7.3425Y-4.2126
X7.4016Y-4.3701
X7.6575Y-4.3898
X7.7756Y-4.1929
T11
X3.3858Y-5.0394
X3.5433Y-3.7087
X3.5433Y-4.5276
X3.5827Y-5.0394
X4.0551Y-5.0394
X4.2638Y-5.0394
X5.315Y-3.7087
X5.315Y-4.0236
T12
X1.1417Y-4.9213
X1.3201Y-5.0045
X1.5354Y-5.0984
X1.7138Y-5.1816
X1.9291Y-5.2756
X2.1075Y-5.3588
X3.4252Y-5.4724
X3.5811Y-5.4724
X3.737Y-5.4724
X4.0551Y-5.4724
X4.252Y-5.4724
X4.4488Y-5.4724
X4.6457Y-5.4724
T13
X3.0039Y-3.3661
X3.0039Y-5.2953
X6.2835Y-3.3661
X6.2835Y-5.2953
T14
X2.3622Y-3.1496
X2.3622Y-5.5118
X6.6929Y-3.1496
X6.6929Y-5.5118
T11
G00X2.1417Y-4.3563
M15
G01X2.1417Y-4.3051
M16
G05
G00X2.5827Y-4.3563
M15
G01X2.5827Y-4.3051
M16
G05
G00X6.4724Y-4.3563
M15
G01X6.4724Y-4.3051
M16
G05
G00X6.9134Y-4.3563
M15
G01X6.9134Y-4.3051
M16
G05
T0
M30
