G04 #@! TF.GenerationSoftware,KiCad,Pcbnew,7.0.8-7.0.8~ubuntu22.04.1*
G04 #@! TF.CreationDate,2023-12-01T18:43:59+09:00*
G04 #@! TF.ProjectId,ESP32DUALDIAL,45535033-3244-4554-914c-4449414c2e6b,rev?*
G04 #@! TF.SameCoordinates,Original*
G04 #@! TF.FileFunction,Soldermask,Bot*
G04 #@! TF.FilePolarity,Negative*
%FSLAX46Y46*%
G04 Gerber Fmt 4.6, Leading zero omitted, Abs format (unit mm)*
G04 Created by KiCad (PCBNEW 7.0.8-7.0.8~ubuntu22.04.1) date 2023-12-01 18:43:59*
%MOMM*%
%LPD*%
G01*
G04 APERTURE LIST*
G04 Aperture macros list*
%AMRoundRect*
0 Rectangle with rounded corners*
0 $1 Rounding radius*
0 $2 $3 $4 $5 $6 $7 $8 $9 X,Y pos of 4 corners*
0 Add a 4 corners polygon primitive as box body*
4,1,4,$2,$3,$4,$5,$6,$7,$8,$9,$2,$3,0*
0 Add four circle primitives for the rounded corners*
1,1,$1+$1,$2,$3*
1,1,$1+$1,$4,$5*
1,1,$1+$1,$6,$7*
1,1,$1+$1,$8,$9*
0 Add four rect primitives between the rounded corners*
20,1,$1+$1,$2,$3,$4,$5,0*
20,1,$1+$1,$4,$5,$6,$7,0*
20,1,$1+$1,$6,$7,$8,$9,0*
20,1,$1+$1,$8,$9,$2,$3,0*%
%AMHorizOval*
0 Thick line with rounded ends*
0 $1 width*
0 $2 $3 position (X,Y) of the first rounded end (center of the circle)*
0 $4 $5 position (X,Y) of the second rounded end (center of the circle)*
0 Add line between two ends*
20,1,$1,$2,$3,$4,$5,0*
0 Add two circle primitives to create the rounded ends*
1,1,$1,$2,$3*
1,1,$1,$4,$5*%
%AMRotRect*
0 Rectangle, with rotation*
0 The origin of the aperture is its center*
0 $1 length*
0 $2 width*
0 $3 Rotation angle, in degrees counterclockwise*
0 Add horizontal line*
21,1,$1,$2,0,0,$3*%
G04 Aperture macros list end*
%ADD10O,2.300000X1.500000*%
%ADD11R,2.300000X1.500000*%
%ADD12C,1.600000*%
%ADD13R,1.600000X1.600000*%
%ADD14R,2.000000X2.000000*%
%ADD15C,2.000000*%
%ADD16R,2.000000X3.200000*%
%ADD17C,6.400000*%
%ADD18C,4.000000*%
%ADD19C,3.000000*%
%ADD20R,1.500000X1.500000*%
%ADD21C,1.500000*%
%ADD22R,1.700000X1.700000*%
%ADD23O,1.700000X1.700000*%
%ADD24RotRect,1.700000X1.700000X65.000000*%
%ADD25HorizOval,1.700000X0.000000X0.000000X0.000000X0.000000X0*%
%ADD26R,3.000000X3.000000*%
%ADD27RoundRect,0.250001X-1.099999X-1.099999X1.099999X-1.099999X1.099999X1.099999X-1.099999X1.099999X0*%
%ADD28C,2.700000*%
%ADD29RoundRect,0.250001X-1.461817X-0.532058X0.532058X-1.461817X1.461817X0.532058X-0.532058X1.461817X0*%
%ADD30R,2.700000X2.700000*%
%ADD31R,1.730000X2.030000*%
%ADD32O,1.730000X2.030000*%
%ADD33O,3.000000X2.600000*%
%ADD34O,3.000000X2.200000*%
%ADD35O,3.000000X1.800000*%
%ADD36O,1.600000X1.600000*%
G04 APERTURE END LIST*
D10*
X165400000Y-97800000D03*
X165400000Y-95260000D03*
D11*
X165400000Y-92720000D03*
D12*
X171900000Y-97000000D03*
D13*
X169900000Y-97000000D03*
X169900000Y-90800000D03*
D12*
X172400000Y-90800000D03*
D14*
X167500000Y-117500000D03*
D15*
X172500000Y-117500000D03*
X170000000Y-117500000D03*
D16*
X164400000Y-110000000D03*
X175600000Y-110000000D03*
D15*
X172500000Y-103000000D03*
X167500000Y-103000000D03*
D17*
X170000000Y-140000000D03*
X60000000Y-140000000D03*
D14*
X57500000Y-117500000D03*
D15*
X62500000Y-117500000D03*
X60000000Y-117500000D03*
D16*
X54400000Y-110000000D03*
X65600000Y-110000000D03*
D15*
X62500000Y-103000000D03*
X57500000Y-103000000D03*
D17*
X170000000Y-80000000D03*
X60000000Y-80000000D03*
D18*
X159600000Y-134500000D03*
X159600000Y-85500000D03*
X76300000Y-134500000D03*
D19*
X76300000Y-85500000D03*
D20*
X160600000Y-126501000D03*
D21*
X160600000Y-123961000D03*
X160600000Y-121421000D03*
X160600000Y-118881000D03*
X160600000Y-116341000D03*
X160600000Y-113801000D03*
X160600000Y-111261000D03*
X160600000Y-108721000D03*
X160600000Y-106181000D03*
X160600000Y-103641000D03*
X160600000Y-101101000D03*
X160600000Y-98561000D03*
X160600000Y-96021000D03*
X160600000Y-93481000D03*
D20*
X76300000Y-113801000D03*
D21*
X76300000Y-111261000D03*
X76300000Y-108721000D03*
X76300000Y-106181000D03*
D22*
X179000000Y-113500000D03*
D23*
X179000000Y-110960000D03*
D24*
X199604044Y-92612543D03*
D25*
X197302022Y-91539093D03*
X195000000Y-90465642D03*
X192697979Y-89392192D03*
X190395957Y-88318741D03*
X188093935Y-87245291D03*
X185791913Y-86171841D03*
X183489892Y-85098390D03*
X181187870Y-84024940D03*
X178885848Y-82951490D03*
D20*
X92000000Y-81000000D03*
D21*
X94540000Y-81000000D03*
X97080000Y-81000000D03*
X99620000Y-81000000D03*
D26*
X90000000Y-115000000D03*
D19*
X90000000Y-94200000D03*
X135000000Y-94200000D03*
X135000000Y-102200000D03*
X86000000Y-128000000D03*
X91000000Y-128000000D03*
X103000000Y-128000000D03*
X108300000Y-128000000D03*
D27*
X87000000Y-139000000D03*
D28*
X90960000Y-139000000D03*
X94920000Y-139000000D03*
D29*
X49000000Y-134000000D03*
D28*
X53531539Y-136113091D03*
D30*
X103000000Y-139000000D03*
D28*
X108000000Y-139000000D03*
X113000000Y-139000000D03*
X118000000Y-139000000D03*
D29*
X39000000Y-129500000D03*
D28*
X43531539Y-131613091D03*
D29*
X29000000Y-125000000D03*
D28*
X33531539Y-127113091D03*
D31*
X158500000Y-143500000D03*
D32*
X155960000Y-143500000D03*
X153420000Y-143500000D03*
D31*
X147000000Y-143500000D03*
D32*
X144460000Y-143500000D03*
X141920000Y-143500000D03*
D14*
X115000000Y-86000000D03*
X115000000Y-83500000D03*
D15*
X115000000Y-78400000D03*
D33*
X42500000Y-120600000D03*
X42500000Y-118380000D03*
D34*
X42500000Y-113300000D03*
D35*
X42500000Y-103140000D03*
X42500000Y-100600000D03*
D33*
X35500000Y-116600000D03*
X35500000Y-114380000D03*
D34*
X35500000Y-109300000D03*
D35*
X35500000Y-99140000D03*
X35500000Y-96600000D03*
D33*
X28500000Y-113600000D03*
X28500000Y-111380000D03*
D34*
X28500000Y-106300000D03*
D35*
X28500000Y-96140000D03*
X28500000Y-93600000D03*
D33*
X49000000Y-124100000D03*
X49000000Y-121880000D03*
D34*
X49000000Y-116800000D03*
D35*
X49000000Y-106640000D03*
X49000000Y-104100000D03*
D15*
X136600000Y-124000000D03*
X126600000Y-124000000D03*
D12*
X136760000Y-129800000D03*
D36*
X126600000Y-129800000D03*
D15*
X123600000Y-124000000D03*
X113600000Y-124000000D03*
D12*
X123600000Y-129800000D03*
D36*
X113440000Y-129800000D03*
M02*
