G04 #@! TF.GenerationSoftware,KiCad,Pcbnew,7.0.7-7.0.7~ubuntu22.04.1*
G04 #@! TF.CreationDate,2023-09-28T17:26:37+09:00*
G04 #@! TF.ProjectId,ESP32DUALDIAL,45535033-3244-4554-914c-4449414c2e6b,rev?*
G04 #@! TF.SameCoordinates,Original*
G04 #@! TF.FileFunction,Legend,Top*
G04 #@! TF.FilePolarity,Positive*
%FSLAX46Y46*%
G04 Gerber Fmt 4.6, Leading zero omitted, Abs format (unit mm)*
G04 Created by KiCad (PCBNEW 7.0.7-7.0.7~ubuntu22.04.1) date 2023-09-28 17:26:37*
%MOMM*%
%LPD*%
G01*
G04 APERTURE LIST*
%ADD10C,0.150000*%
%ADD11C,0.250000*%
%ADD12C,0.200000*%
%ADD13C,0.175000*%
%ADD14C,0.177500*%
%ADD15C,0.300000*%
%ADD16C,0.125000*%
%ADD17C,0.120000*%
G04 APERTURE END LIST*
D10*
X144500000Y-137250000D02*
X144500000Y-139000000D01*
X145500000Y-138750000D02*
X144500000Y-138000000D01*
X150250000Y-135750000D02*
X150250000Y-137250000D01*
X142750000Y-138000000D02*
X146500000Y-138000000D01*
X145500000Y-137250000D02*
X145500000Y-139000000D01*
X147565685Y-78800000D02*
G75*
G03*
X147565685Y-78800000I-565685J0D01*
G01*
X144500000Y-138000000D02*
X145500000Y-137250000D01*
D11*
X86319047Y-88144857D02*
X86366666Y-88097238D01*
X86366666Y-88097238D02*
X86461904Y-88049619D01*
X86461904Y-88049619D02*
X86699999Y-88049619D01*
X86699999Y-88049619D02*
X86795237Y-88097238D01*
X86795237Y-88097238D02*
X86842856Y-88144857D01*
X86842856Y-88144857D02*
X86890475Y-88240095D01*
X86890475Y-88240095D02*
X86890475Y-88335333D01*
X86890475Y-88335333D02*
X86842856Y-88478190D01*
X86842856Y-88478190D02*
X86271428Y-89049619D01*
X86271428Y-89049619D02*
X86890475Y-89049619D01*
X87223809Y-88049619D02*
X87890475Y-88049619D01*
X87890475Y-88049619D02*
X87461904Y-89049619D01*
X88461904Y-88049619D02*
X88557142Y-88049619D01*
X88557142Y-88049619D02*
X88652380Y-88097238D01*
X88652380Y-88097238D02*
X88699999Y-88144857D01*
X88699999Y-88144857D02*
X88747618Y-88240095D01*
X88747618Y-88240095D02*
X88795237Y-88430571D01*
X88795237Y-88430571D02*
X88795237Y-88668666D01*
X88795237Y-88668666D02*
X88747618Y-88859142D01*
X88747618Y-88859142D02*
X88699999Y-88954380D01*
X88699999Y-88954380D02*
X88652380Y-89002000D01*
X88652380Y-89002000D02*
X88557142Y-89049619D01*
X88557142Y-89049619D02*
X88461904Y-89049619D01*
X88461904Y-89049619D02*
X88366666Y-89002000D01*
X88366666Y-89002000D02*
X88319047Y-88954380D01*
X88319047Y-88954380D02*
X88271428Y-88859142D01*
X88271428Y-88859142D02*
X88223809Y-88668666D01*
X88223809Y-88668666D02*
X88223809Y-88430571D01*
X88223809Y-88430571D02*
X88271428Y-88240095D01*
X88271428Y-88240095D02*
X88319047Y-88144857D01*
X88319047Y-88144857D02*
X88366666Y-88097238D01*
X88366666Y-88097238D02*
X88461904Y-88049619D01*
X89223809Y-88668666D02*
X89985714Y-88668666D01*
X90985713Y-89049619D02*
X90414285Y-89049619D01*
X90699999Y-89049619D02*
X90699999Y-88049619D01*
X90699999Y-88049619D02*
X90604761Y-88192476D01*
X90604761Y-88192476D02*
X90509523Y-88287714D01*
X90509523Y-88287714D02*
X90414285Y-88335333D01*
X91414285Y-89049619D02*
X91414285Y-88049619D01*
X91509523Y-88668666D02*
X91795237Y-89049619D01*
X91795237Y-88382952D02*
X91414285Y-88763904D01*
X92890476Y-89049619D02*
X93414285Y-88382952D01*
X92890476Y-88382952D02*
X93414285Y-89049619D01*
X94461905Y-88049619D02*
X95128571Y-88049619D01*
X95128571Y-88049619D02*
X94700000Y-89049619D01*
D12*
X203652219Y-105085714D02*
X203652219Y-104990476D01*
X203652219Y-104990476D02*
X203699838Y-104895238D01*
X203699838Y-104895238D02*
X203747457Y-104847619D01*
X203747457Y-104847619D02*
X203842695Y-104800000D01*
X203842695Y-104800000D02*
X204033171Y-104752381D01*
X204033171Y-104752381D02*
X204271266Y-104752381D01*
X204271266Y-104752381D02*
X204461742Y-104800000D01*
X204461742Y-104800000D02*
X204556980Y-104847619D01*
X204556980Y-104847619D02*
X204604600Y-104895238D01*
X204604600Y-104895238D02*
X204652219Y-104990476D01*
X204652219Y-104990476D02*
X204652219Y-105085714D01*
X204652219Y-105085714D02*
X204604600Y-105180952D01*
X204604600Y-105180952D02*
X204556980Y-105228571D01*
X204556980Y-105228571D02*
X204461742Y-105276190D01*
X204461742Y-105276190D02*
X204271266Y-105323809D01*
X204271266Y-105323809D02*
X204033171Y-105323809D01*
X204033171Y-105323809D02*
X203842695Y-105276190D01*
X203842695Y-105276190D02*
X203747457Y-105228571D01*
X203747457Y-105228571D02*
X203699838Y-105180952D01*
X203699838Y-105180952D02*
X203652219Y-105085714D01*
X204556980Y-104323809D02*
X204604600Y-104276190D01*
X204604600Y-104276190D02*
X204652219Y-104323809D01*
X204652219Y-104323809D02*
X204604600Y-104371428D01*
X204604600Y-104371428D02*
X204556980Y-104323809D01*
X204556980Y-104323809D02*
X204652219Y-104323809D01*
X204652219Y-103323810D02*
X204652219Y-103895238D01*
X204652219Y-103609524D02*
X203652219Y-103609524D01*
X203652219Y-103609524D02*
X203795076Y-103704762D01*
X203795076Y-103704762D02*
X203890314Y-103800000D01*
X203890314Y-103800000D02*
X203937933Y-103895238D01*
X203985552Y-102466667D02*
X204652219Y-102466667D01*
X203985552Y-102895238D02*
X204509361Y-102895238D01*
X204509361Y-102895238D02*
X204604600Y-102847619D01*
X204604600Y-102847619D02*
X204652219Y-102752381D01*
X204652219Y-102752381D02*
X204652219Y-102609524D01*
X204652219Y-102609524D02*
X204604600Y-102514286D01*
X204604600Y-102514286D02*
X204556980Y-102466667D01*
X204128409Y-101657143D02*
X204128409Y-101990476D01*
X204652219Y-101990476D02*
X203652219Y-101990476D01*
X203652219Y-101990476D02*
X203652219Y-101514286D01*
X204652219Y-100466666D02*
X203985552Y-99942857D01*
X203985552Y-100466666D02*
X204652219Y-99942857D01*
X203747457Y-98847618D02*
X203699838Y-98799999D01*
X203699838Y-98799999D02*
X203652219Y-98704761D01*
X203652219Y-98704761D02*
X203652219Y-98466666D01*
X203652219Y-98466666D02*
X203699838Y-98371428D01*
X203699838Y-98371428D02*
X203747457Y-98323809D01*
X203747457Y-98323809D02*
X203842695Y-98276190D01*
X203842695Y-98276190D02*
X203937933Y-98276190D01*
X203937933Y-98276190D02*
X204080790Y-98323809D01*
X204080790Y-98323809D02*
X204652219Y-98895237D01*
X204652219Y-98895237D02*
X204652219Y-98276190D01*
D10*
X202654819Y-96671428D02*
X202654819Y-97242856D01*
X202654819Y-96957142D02*
X201654819Y-96957142D01*
X201654819Y-96957142D02*
X201797676Y-97052380D01*
X201797676Y-97052380D02*
X201892914Y-97147618D01*
X201892914Y-97147618D02*
X201940533Y-97242856D01*
X201654819Y-96052380D02*
X201654819Y-95957142D01*
X201654819Y-95957142D02*
X201702438Y-95861904D01*
X201702438Y-95861904D02*
X201750057Y-95814285D01*
X201750057Y-95814285D02*
X201845295Y-95766666D01*
X201845295Y-95766666D02*
X202035771Y-95719047D01*
X202035771Y-95719047D02*
X202273866Y-95719047D01*
X202273866Y-95719047D02*
X202464342Y-95766666D01*
X202464342Y-95766666D02*
X202559580Y-95814285D01*
X202559580Y-95814285D02*
X202607200Y-95861904D01*
X202607200Y-95861904D02*
X202654819Y-95957142D01*
X202654819Y-95957142D02*
X202654819Y-96052380D01*
X202654819Y-96052380D02*
X202607200Y-96147618D01*
X202607200Y-96147618D02*
X202559580Y-96195237D01*
X202559580Y-96195237D02*
X202464342Y-96242856D01*
X202464342Y-96242856D02*
X202273866Y-96290475D01*
X202273866Y-96290475D02*
X202035771Y-96290475D01*
X202035771Y-96290475D02*
X201845295Y-96242856D01*
X201845295Y-96242856D02*
X201750057Y-96195237D01*
X201750057Y-96195237D02*
X201702438Y-96147618D01*
X201702438Y-96147618D02*
X201654819Y-96052380D01*
X201988152Y-94861904D02*
X202654819Y-94861904D01*
X201988152Y-95290475D02*
X202511961Y-95290475D01*
X202511961Y-95290475D02*
X202607200Y-95242856D01*
X202607200Y-95242856D02*
X202654819Y-95147618D01*
X202654819Y-95147618D02*
X202654819Y-95004761D01*
X202654819Y-95004761D02*
X202607200Y-94909523D01*
X202607200Y-94909523D02*
X202559580Y-94861904D01*
X202131009Y-94052380D02*
X202131009Y-94385713D01*
X202654819Y-94385713D02*
X201654819Y-94385713D01*
X201654819Y-94385713D02*
X201654819Y-93909523D01*
X199654819Y-97395238D02*
X199654819Y-97966666D01*
X199654819Y-97680952D02*
X198654819Y-97680952D01*
X198654819Y-97680952D02*
X198797676Y-97776190D01*
X198797676Y-97776190D02*
X198892914Y-97871428D01*
X198892914Y-97871428D02*
X198940533Y-97966666D01*
X198654819Y-96776190D02*
X198654819Y-96680952D01*
X198654819Y-96680952D02*
X198702438Y-96585714D01*
X198702438Y-96585714D02*
X198750057Y-96538095D01*
X198750057Y-96538095D02*
X198845295Y-96490476D01*
X198845295Y-96490476D02*
X199035771Y-96442857D01*
X199035771Y-96442857D02*
X199273866Y-96442857D01*
X199273866Y-96442857D02*
X199464342Y-96490476D01*
X199464342Y-96490476D02*
X199559580Y-96538095D01*
X199559580Y-96538095D02*
X199607200Y-96585714D01*
X199607200Y-96585714D02*
X199654819Y-96680952D01*
X199654819Y-96680952D02*
X199654819Y-96776190D01*
X199654819Y-96776190D02*
X199607200Y-96871428D01*
X199607200Y-96871428D02*
X199559580Y-96919047D01*
X199559580Y-96919047D02*
X199464342Y-96966666D01*
X199464342Y-96966666D02*
X199273866Y-97014285D01*
X199273866Y-97014285D02*
X199035771Y-97014285D01*
X199035771Y-97014285D02*
X198845295Y-96966666D01*
X198845295Y-96966666D02*
X198750057Y-96919047D01*
X198750057Y-96919047D02*
X198702438Y-96871428D01*
X198702438Y-96871428D02*
X198654819Y-96776190D01*
X199654819Y-96014285D02*
X198654819Y-96014285D01*
X199273866Y-95919047D02*
X199654819Y-95633333D01*
X198988152Y-95633333D02*
X199369104Y-96014285D01*
X103300000Y-77988152D02*
X103300000Y-78654819D01*
X103061905Y-77607200D02*
X102823810Y-78321485D01*
X102823810Y-78321485D02*
X103442857Y-78321485D01*
X103823810Y-78559580D02*
X103871429Y-78607200D01*
X103871429Y-78607200D02*
X103823810Y-78654819D01*
X103823810Y-78654819D02*
X103776191Y-78607200D01*
X103776191Y-78607200D02*
X103823810Y-78559580D01*
X103823810Y-78559580D02*
X103823810Y-78654819D01*
X104204762Y-77654819D02*
X104871428Y-77654819D01*
X104871428Y-77654819D02*
X104442857Y-78654819D01*
X105252381Y-78273866D02*
X106014286Y-78273866D01*
X107014285Y-78654819D02*
X106442857Y-78654819D01*
X106728571Y-78654819D02*
X106728571Y-77654819D01*
X106728571Y-77654819D02*
X106633333Y-77797676D01*
X106633333Y-77797676D02*
X106538095Y-77892914D01*
X106538095Y-77892914D02*
X106442857Y-77940533D01*
X107633333Y-77654819D02*
X107728571Y-77654819D01*
X107728571Y-77654819D02*
X107823809Y-77702438D01*
X107823809Y-77702438D02*
X107871428Y-77750057D01*
X107871428Y-77750057D02*
X107919047Y-77845295D01*
X107919047Y-77845295D02*
X107966666Y-78035771D01*
X107966666Y-78035771D02*
X107966666Y-78273866D01*
X107966666Y-78273866D02*
X107919047Y-78464342D01*
X107919047Y-78464342D02*
X107871428Y-78559580D01*
X107871428Y-78559580D02*
X107823809Y-78607200D01*
X107823809Y-78607200D02*
X107728571Y-78654819D01*
X107728571Y-78654819D02*
X107633333Y-78654819D01*
X107633333Y-78654819D02*
X107538095Y-78607200D01*
X107538095Y-78607200D02*
X107490476Y-78559580D01*
X107490476Y-78559580D02*
X107442857Y-78464342D01*
X107442857Y-78464342D02*
X107395238Y-78273866D01*
X107395238Y-78273866D02*
X107395238Y-78035771D01*
X107395238Y-78035771D02*
X107442857Y-77845295D01*
X107442857Y-77845295D02*
X107490476Y-77750057D01*
X107490476Y-77750057D02*
X107538095Y-77702438D01*
X107538095Y-77702438D02*
X107633333Y-77654819D01*
X108395238Y-78654819D02*
X108395238Y-77654819D01*
X108490476Y-78273866D02*
X108776190Y-78654819D01*
X108776190Y-77988152D02*
X108395238Y-78369104D01*
X153297143Y-121724057D02*
X153344762Y-121676438D01*
X153344762Y-121676438D02*
X153440000Y-121628819D01*
X153440000Y-121628819D02*
X153678095Y-121628819D01*
X153678095Y-121628819D02*
X153773333Y-121676438D01*
X153773333Y-121676438D02*
X153820952Y-121724057D01*
X153820952Y-121724057D02*
X153868571Y-121819295D01*
X153868571Y-121819295D02*
X153868571Y-121914533D01*
X153868571Y-121914533D02*
X153820952Y-122057390D01*
X153820952Y-122057390D02*
X153249524Y-122628819D01*
X153249524Y-122628819D02*
X153868571Y-122628819D01*
X154487619Y-121628819D02*
X154582857Y-121628819D01*
X154582857Y-121628819D02*
X154678095Y-121676438D01*
X154678095Y-121676438D02*
X154725714Y-121724057D01*
X154725714Y-121724057D02*
X154773333Y-121819295D01*
X154773333Y-121819295D02*
X154820952Y-122009771D01*
X154820952Y-122009771D02*
X154820952Y-122247866D01*
X154820952Y-122247866D02*
X154773333Y-122438342D01*
X154773333Y-122438342D02*
X154725714Y-122533580D01*
X154725714Y-122533580D02*
X154678095Y-122581200D01*
X154678095Y-122581200D02*
X154582857Y-122628819D01*
X154582857Y-122628819D02*
X154487619Y-122628819D01*
X154487619Y-122628819D02*
X154392381Y-122581200D01*
X154392381Y-122581200D02*
X154344762Y-122533580D01*
X154344762Y-122533580D02*
X154297143Y-122438342D01*
X154297143Y-122438342D02*
X154249524Y-122247866D01*
X154249524Y-122247866D02*
X154249524Y-122009771D01*
X154249524Y-122009771D02*
X154297143Y-121819295D01*
X154297143Y-121819295D02*
X154344762Y-121724057D01*
X154344762Y-121724057D02*
X154392381Y-121676438D01*
X154392381Y-121676438D02*
X154487619Y-121628819D01*
X155249524Y-121962152D02*
X155249524Y-122962152D01*
X155249524Y-122009771D02*
X155344762Y-121962152D01*
X155344762Y-121962152D02*
X155535238Y-121962152D01*
X155535238Y-121962152D02*
X155630476Y-122009771D01*
X155630476Y-122009771D02*
X155678095Y-122057390D01*
X155678095Y-122057390D02*
X155725714Y-122152628D01*
X155725714Y-122152628D02*
X155725714Y-122438342D01*
X155725714Y-122438342D02*
X155678095Y-122533580D01*
X155678095Y-122533580D02*
X155630476Y-122581200D01*
X155630476Y-122581200D02*
X155535238Y-122628819D01*
X155535238Y-122628819D02*
X155344762Y-122628819D01*
X155344762Y-122628819D02*
X155249524Y-122581200D01*
X156487619Y-122105009D02*
X156154286Y-122105009D01*
X156154286Y-122628819D02*
X156154286Y-121628819D01*
X156154286Y-121628819D02*
X156630476Y-121628819D01*
X156362295Y-139300000D02*
X155562295Y-139300000D01*
X155562295Y-139300000D02*
X156362295Y-138842857D01*
X156362295Y-138842857D02*
X155562295Y-138842857D01*
X156362295Y-138461905D02*
X155562295Y-138461905D01*
X155562295Y-138461905D02*
X156133723Y-138195239D01*
X156133723Y-138195239D02*
X155562295Y-137928572D01*
X155562295Y-137928572D02*
X156362295Y-137928572D01*
X155562295Y-137395238D02*
X155562295Y-137242857D01*
X155562295Y-137242857D02*
X155600390Y-137166667D01*
X155600390Y-137166667D02*
X155676580Y-137090476D01*
X155676580Y-137090476D02*
X155828961Y-137052381D01*
X155828961Y-137052381D02*
X156095628Y-137052381D01*
X156095628Y-137052381D02*
X156248009Y-137090476D01*
X156248009Y-137090476D02*
X156324200Y-137166667D01*
X156324200Y-137166667D02*
X156362295Y-137242857D01*
X156362295Y-137242857D02*
X156362295Y-137395238D01*
X156362295Y-137395238D02*
X156324200Y-137471429D01*
X156324200Y-137471429D02*
X156248009Y-137547619D01*
X156248009Y-137547619D02*
X156095628Y-137585715D01*
X156095628Y-137585715D02*
X155828961Y-137585715D01*
X155828961Y-137585715D02*
X155676580Y-137547619D01*
X155676580Y-137547619D02*
X155600390Y-137471429D01*
X155600390Y-137471429D02*
X155562295Y-137395238D01*
X156324200Y-136747620D02*
X156362295Y-136633334D01*
X156362295Y-136633334D02*
X156362295Y-136442858D01*
X156362295Y-136442858D02*
X156324200Y-136366667D01*
X156324200Y-136366667D02*
X156286104Y-136328572D01*
X156286104Y-136328572D02*
X156209914Y-136290477D01*
X156209914Y-136290477D02*
X156133723Y-136290477D01*
X156133723Y-136290477D02*
X156057533Y-136328572D01*
X156057533Y-136328572D02*
X156019438Y-136366667D01*
X156019438Y-136366667D02*
X155981342Y-136442858D01*
X155981342Y-136442858D02*
X155943247Y-136595239D01*
X155943247Y-136595239D02*
X155905152Y-136671429D01*
X155905152Y-136671429D02*
X155867057Y-136709524D01*
X155867057Y-136709524D02*
X155790866Y-136747620D01*
X155790866Y-136747620D02*
X155714676Y-136747620D01*
X155714676Y-136747620D02*
X155638485Y-136709524D01*
X155638485Y-136709524D02*
X155600390Y-136671429D01*
X155600390Y-136671429D02*
X155562295Y-136595239D01*
X155562295Y-136595239D02*
X155562295Y-136404762D01*
X155562295Y-136404762D02*
X155600390Y-136290477D01*
X155600390Y-134919048D02*
X155562295Y-134995238D01*
X155562295Y-134995238D02*
X155562295Y-135109524D01*
X155562295Y-135109524D02*
X155600390Y-135223810D01*
X155600390Y-135223810D02*
X155676580Y-135300000D01*
X155676580Y-135300000D02*
X155752771Y-135338095D01*
X155752771Y-135338095D02*
X155905152Y-135376191D01*
X155905152Y-135376191D02*
X156019438Y-135376191D01*
X156019438Y-135376191D02*
X156171819Y-135338095D01*
X156171819Y-135338095D02*
X156248009Y-135300000D01*
X156248009Y-135300000D02*
X156324200Y-135223810D01*
X156324200Y-135223810D02*
X156362295Y-135109524D01*
X156362295Y-135109524D02*
X156362295Y-135033333D01*
X156362295Y-135033333D02*
X156324200Y-134919048D01*
X156324200Y-134919048D02*
X156286104Y-134880952D01*
X156286104Y-134880952D02*
X156019438Y-134880952D01*
X156019438Y-134880952D02*
X156019438Y-135033333D01*
X156362295Y-133319047D02*
X155562295Y-133319047D01*
X155562295Y-133319047D02*
X155562295Y-133128571D01*
X155562295Y-133128571D02*
X155600390Y-133014285D01*
X155600390Y-133014285D02*
X155676580Y-132938095D01*
X155676580Y-132938095D02*
X155752771Y-132900000D01*
X155752771Y-132900000D02*
X155905152Y-132861904D01*
X155905152Y-132861904D02*
X156019438Y-132861904D01*
X156019438Y-132861904D02*
X156171819Y-132900000D01*
X156171819Y-132900000D02*
X156248009Y-132938095D01*
X156248009Y-132938095D02*
X156324200Y-133014285D01*
X156324200Y-133014285D02*
X156362295Y-133128571D01*
X156362295Y-133128571D02*
X156362295Y-133319047D01*
X156324200Y-131338095D02*
X156362295Y-131223809D01*
X156362295Y-131223809D02*
X156362295Y-131033333D01*
X156362295Y-131033333D02*
X156324200Y-130957142D01*
X156324200Y-130957142D02*
X156286104Y-130919047D01*
X156286104Y-130919047D02*
X156209914Y-130880952D01*
X156209914Y-130880952D02*
X156133723Y-130880952D01*
X156133723Y-130880952D02*
X156057533Y-130919047D01*
X156057533Y-130919047D02*
X156019438Y-130957142D01*
X156019438Y-130957142D02*
X155981342Y-131033333D01*
X155981342Y-131033333D02*
X155943247Y-131185714D01*
X155943247Y-131185714D02*
X155905152Y-131261904D01*
X155905152Y-131261904D02*
X155867057Y-131299999D01*
X155867057Y-131299999D02*
X155790866Y-131338095D01*
X155790866Y-131338095D02*
X155714676Y-131338095D01*
X155714676Y-131338095D02*
X155638485Y-131299999D01*
X155638485Y-131299999D02*
X155600390Y-131261904D01*
X155600390Y-131261904D02*
X155562295Y-131185714D01*
X155562295Y-131185714D02*
X155562295Y-130995237D01*
X155562295Y-130995237D02*
X155600390Y-130880952D01*
X141035713Y-124454819D02*
X140464285Y-124454819D01*
X140749999Y-124454819D02*
X140749999Y-123454819D01*
X140749999Y-123454819D02*
X140654761Y-123597676D01*
X140654761Y-123597676D02*
X140559523Y-123692914D01*
X140559523Y-123692914D02*
X140464285Y-123740533D01*
X141654761Y-123454819D02*
X141749999Y-123454819D01*
X141749999Y-123454819D02*
X141845237Y-123502438D01*
X141845237Y-123502438D02*
X141892856Y-123550057D01*
X141892856Y-123550057D02*
X141940475Y-123645295D01*
X141940475Y-123645295D02*
X141988094Y-123835771D01*
X141988094Y-123835771D02*
X141988094Y-124073866D01*
X141988094Y-124073866D02*
X141940475Y-124264342D01*
X141940475Y-124264342D02*
X141892856Y-124359580D01*
X141892856Y-124359580D02*
X141845237Y-124407200D01*
X141845237Y-124407200D02*
X141749999Y-124454819D01*
X141749999Y-124454819D02*
X141654761Y-124454819D01*
X141654761Y-124454819D02*
X141559523Y-124407200D01*
X141559523Y-124407200D02*
X141511904Y-124359580D01*
X141511904Y-124359580D02*
X141464285Y-124264342D01*
X141464285Y-124264342D02*
X141416666Y-124073866D01*
X141416666Y-124073866D02*
X141416666Y-123835771D01*
X141416666Y-123835771D02*
X141464285Y-123645295D01*
X141464285Y-123645295D02*
X141511904Y-123550057D01*
X141511904Y-123550057D02*
X141559523Y-123502438D01*
X141559523Y-123502438D02*
X141654761Y-123454819D01*
X142845237Y-123788152D02*
X142845237Y-124454819D01*
X142416666Y-123788152D02*
X142416666Y-124311961D01*
X142416666Y-124311961D02*
X142464285Y-124407200D01*
X142464285Y-124407200D02*
X142559523Y-124454819D01*
X142559523Y-124454819D02*
X142702380Y-124454819D01*
X142702380Y-124454819D02*
X142797618Y-124407200D01*
X142797618Y-124407200D02*
X142845237Y-124359580D01*
X143654761Y-123931009D02*
X143321428Y-123931009D01*
X143321428Y-124454819D02*
X143321428Y-123454819D01*
X143321428Y-123454819D02*
X143797618Y-123454819D01*
X144845238Y-124454819D02*
X145369047Y-123788152D01*
X144845238Y-123788152D02*
X145369047Y-124454819D01*
X146464286Y-123550057D02*
X146511905Y-123502438D01*
X146511905Y-123502438D02*
X146607143Y-123454819D01*
X146607143Y-123454819D02*
X146845238Y-123454819D01*
X146845238Y-123454819D02*
X146940476Y-123502438D01*
X146940476Y-123502438D02*
X146988095Y-123550057D01*
X146988095Y-123550057D02*
X147035714Y-123645295D01*
X147035714Y-123645295D02*
X147035714Y-123740533D01*
X147035714Y-123740533D02*
X146988095Y-123883390D01*
X146988095Y-123883390D02*
X146416667Y-124454819D01*
X146416667Y-124454819D02*
X147035714Y-124454819D01*
X155011904Y-128454819D02*
X154440476Y-128454819D01*
X154726190Y-128454819D02*
X154726190Y-127454819D01*
X154726190Y-127454819D02*
X154630952Y-127597676D01*
X154630952Y-127597676D02*
X154535714Y-127692914D01*
X154535714Y-127692914D02*
X154440476Y-127740533D01*
X155440476Y-128454819D02*
X155440476Y-127454819D01*
X155535714Y-128073866D02*
X155821428Y-128454819D01*
X155821428Y-127788152D02*
X155440476Y-128169104D01*
X156250000Y-128073866D02*
X157011905Y-128073866D01*
X148928571Y-127454819D02*
X148357143Y-127454819D01*
X148642857Y-127454819D02*
X148642857Y-126454819D01*
X148642857Y-126454819D02*
X148547619Y-126597676D01*
X148547619Y-126597676D02*
X148452381Y-126692914D01*
X148452381Y-126692914D02*
X148357143Y-126740533D01*
X149547619Y-126454819D02*
X149642857Y-126454819D01*
X149642857Y-126454819D02*
X149738095Y-126502438D01*
X149738095Y-126502438D02*
X149785714Y-126550057D01*
X149785714Y-126550057D02*
X149833333Y-126645295D01*
X149833333Y-126645295D02*
X149880952Y-126835771D01*
X149880952Y-126835771D02*
X149880952Y-127073866D01*
X149880952Y-127073866D02*
X149833333Y-127264342D01*
X149833333Y-127264342D02*
X149785714Y-127359580D01*
X149785714Y-127359580D02*
X149738095Y-127407200D01*
X149738095Y-127407200D02*
X149642857Y-127454819D01*
X149642857Y-127454819D02*
X149547619Y-127454819D01*
X149547619Y-127454819D02*
X149452381Y-127407200D01*
X149452381Y-127407200D02*
X149404762Y-127359580D01*
X149404762Y-127359580D02*
X149357143Y-127264342D01*
X149357143Y-127264342D02*
X149309524Y-127073866D01*
X149309524Y-127073866D02*
X149309524Y-126835771D01*
X149309524Y-126835771D02*
X149357143Y-126645295D01*
X149357143Y-126645295D02*
X149404762Y-126550057D01*
X149404762Y-126550057D02*
X149452381Y-126502438D01*
X149452381Y-126502438D02*
X149547619Y-126454819D01*
X150500000Y-126454819D02*
X150595238Y-126454819D01*
X150595238Y-126454819D02*
X150690476Y-126502438D01*
X150690476Y-126502438D02*
X150738095Y-126550057D01*
X150738095Y-126550057D02*
X150785714Y-126645295D01*
X150785714Y-126645295D02*
X150833333Y-126835771D01*
X150833333Y-126835771D02*
X150833333Y-127073866D01*
X150833333Y-127073866D02*
X150785714Y-127264342D01*
X150785714Y-127264342D02*
X150738095Y-127359580D01*
X150738095Y-127359580D02*
X150690476Y-127407200D01*
X150690476Y-127407200D02*
X150595238Y-127454819D01*
X150595238Y-127454819D02*
X150500000Y-127454819D01*
X150500000Y-127454819D02*
X150404762Y-127407200D01*
X150404762Y-127407200D02*
X150357143Y-127359580D01*
X150357143Y-127359580D02*
X150309524Y-127264342D01*
X150309524Y-127264342D02*
X150261905Y-127073866D01*
X150261905Y-127073866D02*
X150261905Y-126835771D01*
X150261905Y-126835771D02*
X150309524Y-126645295D01*
X150309524Y-126645295D02*
X150357143Y-126550057D01*
X150357143Y-126550057D02*
X150404762Y-126502438D01*
X150404762Y-126502438D02*
X150500000Y-126454819D01*
X151261905Y-127454819D02*
X151261905Y-126454819D01*
X151357143Y-127073866D02*
X151642857Y-127454819D01*
X151642857Y-126788152D02*
X151261905Y-127169104D01*
D11*
X166464285Y-123199619D02*
X166559523Y-123199619D01*
X166559523Y-123199619D02*
X166654761Y-123247238D01*
X166654761Y-123247238D02*
X166702380Y-123294857D01*
X166702380Y-123294857D02*
X166749999Y-123390095D01*
X166749999Y-123390095D02*
X166797618Y-123580571D01*
X166797618Y-123580571D02*
X166797618Y-123818666D01*
X166797618Y-123818666D02*
X166749999Y-124009142D01*
X166749999Y-124009142D02*
X166702380Y-124104380D01*
X166702380Y-124104380D02*
X166654761Y-124152000D01*
X166654761Y-124152000D02*
X166559523Y-124199619D01*
X166559523Y-124199619D02*
X166464285Y-124199619D01*
X166464285Y-124199619D02*
X166369047Y-124152000D01*
X166369047Y-124152000D02*
X166321428Y-124104380D01*
X166321428Y-124104380D02*
X166273809Y-124009142D01*
X166273809Y-124009142D02*
X166226190Y-123818666D01*
X166226190Y-123818666D02*
X166226190Y-123580571D01*
X166226190Y-123580571D02*
X166273809Y-123390095D01*
X166273809Y-123390095D02*
X166321428Y-123294857D01*
X166321428Y-123294857D02*
X166369047Y-123247238D01*
X166369047Y-123247238D02*
X166464285Y-123199619D01*
X167226190Y-124104380D02*
X167273809Y-124152000D01*
X167273809Y-124152000D02*
X167226190Y-124199619D01*
X167226190Y-124199619D02*
X167178571Y-124152000D01*
X167178571Y-124152000D02*
X167226190Y-124104380D01*
X167226190Y-124104380D02*
X167226190Y-124199619D01*
X168226189Y-124199619D02*
X167654761Y-124199619D01*
X167940475Y-124199619D02*
X167940475Y-123199619D01*
X167940475Y-123199619D02*
X167845237Y-123342476D01*
X167845237Y-123342476D02*
X167749999Y-123437714D01*
X167749999Y-123437714D02*
X167654761Y-123485333D01*
X169083332Y-123532952D02*
X169083332Y-124199619D01*
X168654761Y-123532952D02*
X168654761Y-124056761D01*
X168654761Y-124056761D02*
X168702380Y-124152000D01*
X168702380Y-124152000D02*
X168797618Y-124199619D01*
X168797618Y-124199619D02*
X168940475Y-124199619D01*
X168940475Y-124199619D02*
X169035713Y-124152000D01*
X169035713Y-124152000D02*
X169083332Y-124104380D01*
X169892856Y-123675809D02*
X169559523Y-123675809D01*
X169559523Y-124199619D02*
X169559523Y-123199619D01*
X169559523Y-123199619D02*
X170035713Y-123199619D01*
X171083333Y-124199619D02*
X171607142Y-123532952D01*
X171083333Y-123532952D02*
X171607142Y-124199619D01*
X172702381Y-123294857D02*
X172750000Y-123247238D01*
X172750000Y-123247238D02*
X172845238Y-123199619D01*
X172845238Y-123199619D02*
X173083333Y-123199619D01*
X173083333Y-123199619D02*
X173178571Y-123247238D01*
X173178571Y-123247238D02*
X173226190Y-123294857D01*
X173226190Y-123294857D02*
X173273809Y-123390095D01*
X173273809Y-123390095D02*
X173273809Y-123485333D01*
X173273809Y-123485333D02*
X173226190Y-123628190D01*
X173226190Y-123628190D02*
X172654762Y-124199619D01*
X172654762Y-124199619D02*
X173273809Y-124199619D01*
D10*
X169538095Y-96500057D02*
X169585714Y-96452438D01*
X169585714Y-96452438D02*
X169680952Y-96404819D01*
X169680952Y-96404819D02*
X169919047Y-96404819D01*
X169919047Y-96404819D02*
X170014285Y-96452438D01*
X170014285Y-96452438D02*
X170061904Y-96500057D01*
X170061904Y-96500057D02*
X170109523Y-96595295D01*
X170109523Y-96595295D02*
X170109523Y-96690533D01*
X170109523Y-96690533D02*
X170061904Y-96833390D01*
X170061904Y-96833390D02*
X169490476Y-97404819D01*
X169490476Y-97404819D02*
X170109523Y-97404819D01*
X170442857Y-96404819D02*
X171109523Y-96404819D01*
X171109523Y-96404819D02*
X170680952Y-97404819D01*
X171680952Y-96404819D02*
X171776190Y-96404819D01*
X171776190Y-96404819D02*
X171871428Y-96452438D01*
X171871428Y-96452438D02*
X171919047Y-96500057D01*
X171919047Y-96500057D02*
X171966666Y-96595295D01*
X171966666Y-96595295D02*
X172014285Y-96785771D01*
X172014285Y-96785771D02*
X172014285Y-97023866D01*
X172014285Y-97023866D02*
X171966666Y-97214342D01*
X171966666Y-97214342D02*
X171919047Y-97309580D01*
X171919047Y-97309580D02*
X171871428Y-97357200D01*
X171871428Y-97357200D02*
X171776190Y-97404819D01*
X171776190Y-97404819D02*
X171680952Y-97404819D01*
X171680952Y-97404819D02*
X171585714Y-97357200D01*
X171585714Y-97357200D02*
X171538095Y-97309580D01*
X171538095Y-97309580D02*
X171490476Y-97214342D01*
X171490476Y-97214342D02*
X171442857Y-97023866D01*
X171442857Y-97023866D02*
X171442857Y-96785771D01*
X171442857Y-96785771D02*
X171490476Y-96595295D01*
X171490476Y-96595295D02*
X171538095Y-96500057D01*
X171538095Y-96500057D02*
X171585714Y-96452438D01*
X171585714Y-96452438D02*
X171680952Y-96404819D01*
X173204762Y-97023866D02*
X173966667Y-97023866D01*
X174966666Y-97404819D02*
X174395238Y-97404819D01*
X174680952Y-97404819D02*
X174680952Y-96404819D01*
X174680952Y-96404819D02*
X174585714Y-96547676D01*
X174585714Y-96547676D02*
X174490476Y-96642914D01*
X174490476Y-96642914D02*
X174395238Y-96690533D01*
X175395238Y-97404819D02*
X175395238Y-96404819D01*
X175490476Y-97023866D02*
X175776190Y-97404819D01*
X175776190Y-96738152D02*
X175395238Y-97119104D01*
X176871429Y-97404819D02*
X177395238Y-96738152D01*
X176871429Y-96738152D02*
X177395238Y-97404819D01*
X178442858Y-96404819D02*
X179061905Y-96404819D01*
X179061905Y-96404819D02*
X178728572Y-96785771D01*
X178728572Y-96785771D02*
X178871429Y-96785771D01*
X178871429Y-96785771D02*
X178966667Y-96833390D01*
X178966667Y-96833390D02*
X179014286Y-96881009D01*
X179014286Y-96881009D02*
X179061905Y-96976247D01*
X179061905Y-96976247D02*
X179061905Y-97214342D01*
X179061905Y-97214342D02*
X179014286Y-97309580D01*
X179014286Y-97309580D02*
X178966667Y-97357200D01*
X178966667Y-97357200D02*
X178871429Y-97404819D01*
X178871429Y-97404819D02*
X178585715Y-97404819D01*
X178585715Y-97404819D02*
X178490477Y-97357200D01*
X178490477Y-97357200D02*
X178442858Y-97309580D01*
X164261904Y-85054819D02*
X163690476Y-85054819D01*
X163976190Y-85054819D02*
X163976190Y-84054819D01*
X163976190Y-84054819D02*
X163880952Y-84197676D01*
X163880952Y-84197676D02*
X163785714Y-84292914D01*
X163785714Y-84292914D02*
X163690476Y-84340533D01*
X164880952Y-84054819D02*
X164976190Y-84054819D01*
X164976190Y-84054819D02*
X165071428Y-84102438D01*
X165071428Y-84102438D02*
X165119047Y-84150057D01*
X165119047Y-84150057D02*
X165166666Y-84245295D01*
X165166666Y-84245295D02*
X165214285Y-84435771D01*
X165214285Y-84435771D02*
X165214285Y-84673866D01*
X165214285Y-84673866D02*
X165166666Y-84864342D01*
X165166666Y-84864342D02*
X165119047Y-84959580D01*
X165119047Y-84959580D02*
X165071428Y-85007200D01*
X165071428Y-85007200D02*
X164976190Y-85054819D01*
X164976190Y-85054819D02*
X164880952Y-85054819D01*
X164880952Y-85054819D02*
X164785714Y-85007200D01*
X164785714Y-85007200D02*
X164738095Y-84959580D01*
X164738095Y-84959580D02*
X164690476Y-84864342D01*
X164690476Y-84864342D02*
X164642857Y-84673866D01*
X164642857Y-84673866D02*
X164642857Y-84435771D01*
X164642857Y-84435771D02*
X164690476Y-84245295D01*
X164690476Y-84245295D02*
X164738095Y-84150057D01*
X164738095Y-84150057D02*
X164785714Y-84102438D01*
X164785714Y-84102438D02*
X164880952Y-84054819D01*
X165642857Y-85054819D02*
X165642857Y-84054819D01*
X165738095Y-84673866D02*
X166023809Y-85054819D01*
X166023809Y-84388152D02*
X165642857Y-84769104D01*
X167119048Y-85054819D02*
X167642857Y-84388152D01*
X167119048Y-84388152D02*
X167642857Y-85054819D01*
X169261905Y-84054819D02*
X168785715Y-84054819D01*
X168785715Y-84054819D02*
X168738096Y-84531009D01*
X168738096Y-84531009D02*
X168785715Y-84483390D01*
X168785715Y-84483390D02*
X168880953Y-84435771D01*
X168880953Y-84435771D02*
X169119048Y-84435771D01*
X169119048Y-84435771D02*
X169214286Y-84483390D01*
X169214286Y-84483390D02*
X169261905Y-84531009D01*
X169261905Y-84531009D02*
X169309524Y-84626247D01*
X169309524Y-84626247D02*
X169309524Y-84864342D01*
X169309524Y-84864342D02*
X169261905Y-84959580D01*
X169261905Y-84959580D02*
X169214286Y-85007200D01*
X169214286Y-85007200D02*
X169119048Y-85054819D01*
X169119048Y-85054819D02*
X168880953Y-85054819D01*
X168880953Y-85054819D02*
X168785715Y-85007200D01*
X168785715Y-85007200D02*
X168738096Y-84959580D01*
X75471428Y-81116033D02*
X75585714Y-81116033D01*
X75585714Y-81116033D02*
X75642857Y-81149366D01*
X75642857Y-81149366D02*
X75700000Y-81216033D01*
X75700000Y-81216033D02*
X75728571Y-81349366D01*
X75728571Y-81349366D02*
X75728571Y-81582700D01*
X75728571Y-81582700D02*
X75700000Y-81716033D01*
X75700000Y-81716033D02*
X75642857Y-81782700D01*
X75642857Y-81782700D02*
X75585714Y-81816033D01*
X75585714Y-81816033D02*
X75471428Y-81816033D01*
X75471428Y-81816033D02*
X75414286Y-81782700D01*
X75414286Y-81782700D02*
X75357143Y-81716033D01*
X75357143Y-81716033D02*
X75328571Y-81582700D01*
X75328571Y-81582700D02*
X75328571Y-81349366D01*
X75328571Y-81349366D02*
X75357143Y-81216033D01*
X75357143Y-81216033D02*
X75414286Y-81149366D01*
X75414286Y-81149366D02*
X75471428Y-81116033D01*
X75928571Y-81116033D02*
X76328571Y-81116033D01*
X76328571Y-81116033D02*
X75928571Y-81816033D01*
X75928571Y-81816033D02*
X76328571Y-81816033D01*
X76671428Y-81116033D02*
X76785714Y-81116033D01*
X76785714Y-81116033D02*
X76842857Y-81149366D01*
X76842857Y-81149366D02*
X76900000Y-81216033D01*
X76900000Y-81216033D02*
X76928571Y-81349366D01*
X76928571Y-81349366D02*
X76928571Y-81582700D01*
X76928571Y-81582700D02*
X76900000Y-81716033D01*
X76900000Y-81716033D02*
X76842857Y-81782700D01*
X76842857Y-81782700D02*
X76785714Y-81816033D01*
X76785714Y-81816033D02*
X76671428Y-81816033D01*
X76671428Y-81816033D02*
X76614286Y-81782700D01*
X76614286Y-81782700D02*
X76557143Y-81716033D01*
X76557143Y-81716033D02*
X76528571Y-81582700D01*
X76528571Y-81582700D02*
X76528571Y-81349366D01*
X76528571Y-81349366D02*
X76557143Y-81216033D01*
X76557143Y-81216033D02*
X76614286Y-81149366D01*
X76614286Y-81149366D02*
X76671428Y-81116033D01*
X77185714Y-81816033D02*
X77185714Y-81116033D01*
X77185714Y-81116033D02*
X77528571Y-81816033D01*
X77528571Y-81816033D02*
X77528571Y-81116033D01*
X77814285Y-81449366D02*
X78014285Y-81449366D01*
X78099999Y-81816033D02*
X77814285Y-81816033D01*
X77814285Y-81816033D02*
X77814285Y-81116033D01*
X77814285Y-81116033D02*
X78099999Y-81116033D01*
X78671427Y-81816033D02*
X78328570Y-81816033D01*
X78499999Y-81816033D02*
X78499999Y-81116033D01*
X78499999Y-81116033D02*
X78442856Y-81216033D01*
X78442856Y-81216033D02*
X78385713Y-81282700D01*
X78385713Y-81282700D02*
X78328570Y-81316033D01*
X79471428Y-81116033D02*
X79585714Y-81116033D01*
X79585714Y-81116033D02*
X79642857Y-81149366D01*
X79642857Y-81149366D02*
X79700000Y-81216033D01*
X79700000Y-81216033D02*
X79728571Y-81349366D01*
X79728571Y-81349366D02*
X79728571Y-81582700D01*
X79728571Y-81582700D02*
X79700000Y-81716033D01*
X79700000Y-81716033D02*
X79642857Y-81782700D01*
X79642857Y-81782700D02*
X79585714Y-81816033D01*
X79585714Y-81816033D02*
X79471428Y-81816033D01*
X79471428Y-81816033D02*
X79414286Y-81782700D01*
X79414286Y-81782700D02*
X79357143Y-81716033D01*
X79357143Y-81716033D02*
X79328571Y-81582700D01*
X79328571Y-81582700D02*
X79328571Y-81349366D01*
X79328571Y-81349366D02*
X79357143Y-81216033D01*
X79357143Y-81216033D02*
X79414286Y-81149366D01*
X79414286Y-81149366D02*
X79471428Y-81116033D01*
X79928571Y-81116033D02*
X80328571Y-81116033D01*
X80328571Y-81116033D02*
X79928571Y-81816033D01*
X79928571Y-81816033D02*
X80328571Y-81816033D01*
X80671428Y-81116033D02*
X80785714Y-81116033D01*
X80785714Y-81116033D02*
X80842857Y-81149366D01*
X80842857Y-81149366D02*
X80900000Y-81216033D01*
X80900000Y-81216033D02*
X80928571Y-81349366D01*
X80928571Y-81349366D02*
X80928571Y-81582700D01*
X80928571Y-81582700D02*
X80900000Y-81716033D01*
X80900000Y-81716033D02*
X80842857Y-81782700D01*
X80842857Y-81782700D02*
X80785714Y-81816033D01*
X80785714Y-81816033D02*
X80671428Y-81816033D01*
X80671428Y-81816033D02*
X80614286Y-81782700D01*
X80614286Y-81782700D02*
X80557143Y-81716033D01*
X80557143Y-81716033D02*
X80528571Y-81582700D01*
X80528571Y-81582700D02*
X80528571Y-81349366D01*
X80528571Y-81349366D02*
X80557143Y-81216033D01*
X80557143Y-81216033D02*
X80614286Y-81149366D01*
X80614286Y-81149366D02*
X80671428Y-81116033D01*
X81185714Y-81816033D02*
X81185714Y-81116033D01*
X81185714Y-81116033D02*
X81528571Y-81816033D01*
X81528571Y-81816033D02*
X81528571Y-81116033D01*
X81814285Y-81449366D02*
X82014285Y-81449366D01*
X82099999Y-81816033D02*
X81814285Y-81816033D01*
X81814285Y-81816033D02*
X81814285Y-81116033D01*
X81814285Y-81116033D02*
X82099999Y-81116033D01*
X82328570Y-81182700D02*
X82357142Y-81149366D01*
X82357142Y-81149366D02*
X82414285Y-81116033D01*
X82414285Y-81116033D02*
X82557142Y-81116033D01*
X82557142Y-81116033D02*
X82614285Y-81149366D01*
X82614285Y-81149366D02*
X82642856Y-81182700D01*
X82642856Y-81182700D02*
X82671427Y-81249366D01*
X82671427Y-81249366D02*
X82671427Y-81316033D01*
X82671427Y-81316033D02*
X82642856Y-81416033D01*
X82642856Y-81416033D02*
X82299999Y-81816033D01*
X82299999Y-81816033D02*
X82671427Y-81816033D01*
X83471428Y-81116033D02*
X83585714Y-81116033D01*
X83585714Y-81116033D02*
X83642857Y-81149366D01*
X83642857Y-81149366D02*
X83700000Y-81216033D01*
X83700000Y-81216033D02*
X83728571Y-81349366D01*
X83728571Y-81349366D02*
X83728571Y-81582700D01*
X83728571Y-81582700D02*
X83700000Y-81716033D01*
X83700000Y-81716033D02*
X83642857Y-81782700D01*
X83642857Y-81782700D02*
X83585714Y-81816033D01*
X83585714Y-81816033D02*
X83471428Y-81816033D01*
X83471428Y-81816033D02*
X83414286Y-81782700D01*
X83414286Y-81782700D02*
X83357143Y-81716033D01*
X83357143Y-81716033D02*
X83328571Y-81582700D01*
X83328571Y-81582700D02*
X83328571Y-81349366D01*
X83328571Y-81349366D02*
X83357143Y-81216033D01*
X83357143Y-81216033D02*
X83414286Y-81149366D01*
X83414286Y-81149366D02*
X83471428Y-81116033D01*
X83928571Y-81116033D02*
X84328571Y-81116033D01*
X84328571Y-81116033D02*
X83928571Y-81816033D01*
X83928571Y-81816033D02*
X84328571Y-81816033D01*
X84671428Y-81116033D02*
X84785714Y-81116033D01*
X84785714Y-81116033D02*
X84842857Y-81149366D01*
X84842857Y-81149366D02*
X84900000Y-81216033D01*
X84900000Y-81216033D02*
X84928571Y-81349366D01*
X84928571Y-81349366D02*
X84928571Y-81582700D01*
X84928571Y-81582700D02*
X84900000Y-81716033D01*
X84900000Y-81716033D02*
X84842857Y-81782700D01*
X84842857Y-81782700D02*
X84785714Y-81816033D01*
X84785714Y-81816033D02*
X84671428Y-81816033D01*
X84671428Y-81816033D02*
X84614286Y-81782700D01*
X84614286Y-81782700D02*
X84557143Y-81716033D01*
X84557143Y-81716033D02*
X84528571Y-81582700D01*
X84528571Y-81582700D02*
X84528571Y-81349366D01*
X84528571Y-81349366D02*
X84557143Y-81216033D01*
X84557143Y-81216033D02*
X84614286Y-81149366D01*
X84614286Y-81149366D02*
X84671428Y-81116033D01*
X85185714Y-81816033D02*
X85185714Y-81116033D01*
X85185714Y-81116033D02*
X85528571Y-81816033D01*
X85528571Y-81816033D02*
X85528571Y-81116033D01*
X85814285Y-81449366D02*
X86014285Y-81449366D01*
X86099999Y-81816033D02*
X85814285Y-81816033D01*
X85814285Y-81816033D02*
X85814285Y-81116033D01*
X85814285Y-81116033D02*
X86099999Y-81116033D01*
X86299999Y-81116033D02*
X86671427Y-81116033D01*
X86671427Y-81116033D02*
X86471427Y-81382700D01*
X86471427Y-81382700D02*
X86557142Y-81382700D01*
X86557142Y-81382700D02*
X86614285Y-81416033D01*
X86614285Y-81416033D02*
X86642856Y-81449366D01*
X86642856Y-81449366D02*
X86671427Y-81516033D01*
X86671427Y-81516033D02*
X86671427Y-81682700D01*
X86671427Y-81682700D02*
X86642856Y-81749366D01*
X86642856Y-81749366D02*
X86614285Y-81782700D01*
X86614285Y-81782700D02*
X86557142Y-81816033D01*
X86557142Y-81816033D02*
X86385713Y-81816033D01*
X86385713Y-81816033D02*
X86328570Y-81782700D01*
X86328570Y-81782700D02*
X86299999Y-81749366D01*
X124985714Y-78282700D02*
X125071429Y-78316033D01*
X125071429Y-78316033D02*
X125214286Y-78316033D01*
X125214286Y-78316033D02*
X125271429Y-78282700D01*
X125271429Y-78282700D02*
X125300000Y-78249366D01*
X125300000Y-78249366D02*
X125328571Y-78182700D01*
X125328571Y-78182700D02*
X125328571Y-78116033D01*
X125328571Y-78116033D02*
X125300000Y-78049366D01*
X125300000Y-78049366D02*
X125271429Y-78016033D01*
X125271429Y-78016033D02*
X125214286Y-77982700D01*
X125214286Y-77982700D02*
X125100000Y-77949366D01*
X125100000Y-77949366D02*
X125042857Y-77916033D01*
X125042857Y-77916033D02*
X125014286Y-77882700D01*
X125014286Y-77882700D02*
X124985714Y-77816033D01*
X124985714Y-77816033D02*
X124985714Y-77749366D01*
X124985714Y-77749366D02*
X125014286Y-77682700D01*
X125014286Y-77682700D02*
X125042857Y-77649366D01*
X125042857Y-77649366D02*
X125100000Y-77616033D01*
X125100000Y-77616033D02*
X125242857Y-77616033D01*
X125242857Y-77616033D02*
X125328571Y-77649366D01*
X125528572Y-77616033D02*
X125671429Y-78316033D01*
X125671429Y-78316033D02*
X125785715Y-77816033D01*
X125785715Y-77816033D02*
X125900000Y-78316033D01*
X125900000Y-78316033D02*
X126042858Y-77616033D01*
X177485714Y-93782700D02*
X177571429Y-93816033D01*
X177571429Y-93816033D02*
X177714286Y-93816033D01*
X177714286Y-93816033D02*
X177771429Y-93782700D01*
X177771429Y-93782700D02*
X177800000Y-93749366D01*
X177800000Y-93749366D02*
X177828571Y-93682700D01*
X177828571Y-93682700D02*
X177828571Y-93616033D01*
X177828571Y-93616033D02*
X177800000Y-93549366D01*
X177800000Y-93549366D02*
X177771429Y-93516033D01*
X177771429Y-93516033D02*
X177714286Y-93482700D01*
X177714286Y-93482700D02*
X177600000Y-93449366D01*
X177600000Y-93449366D02*
X177542857Y-93416033D01*
X177542857Y-93416033D02*
X177514286Y-93382700D01*
X177514286Y-93382700D02*
X177485714Y-93316033D01*
X177485714Y-93316033D02*
X177485714Y-93249366D01*
X177485714Y-93249366D02*
X177514286Y-93182700D01*
X177514286Y-93182700D02*
X177542857Y-93149366D01*
X177542857Y-93149366D02*
X177600000Y-93116033D01*
X177600000Y-93116033D02*
X177742857Y-93116033D01*
X177742857Y-93116033D02*
X177828571Y-93149366D01*
X178028572Y-93116033D02*
X178171429Y-93816033D01*
X178171429Y-93816033D02*
X178285715Y-93316033D01*
X178285715Y-93316033D02*
X178400000Y-93816033D01*
X178400000Y-93816033D02*
X178542858Y-93116033D01*
X164214286Y-142449366D02*
X164014286Y-142449366D01*
X164014286Y-142816033D02*
X164014286Y-142116033D01*
X164014286Y-142116033D02*
X164300000Y-142116033D01*
X164500000Y-142616033D02*
X164785715Y-142616033D01*
X164442857Y-142816033D02*
X164642857Y-142116033D01*
X164642857Y-142116033D02*
X164842857Y-142816033D01*
X165042858Y-142816033D02*
X165042858Y-142116033D01*
X165042858Y-142116033D02*
X165385715Y-142816033D01*
X165385715Y-142816033D02*
X165385715Y-142116033D01*
X27776915Y-129506005D02*
X27880493Y-129554305D01*
X27880493Y-129554305D02*
X27918195Y-129608665D01*
X27918195Y-129608665D02*
X27941809Y-129693235D01*
X27941809Y-129693235D02*
X27911355Y-129826151D01*
X27911355Y-129826151D02*
X27812744Y-130037622D01*
X27812744Y-130037622D02*
X27730500Y-130146389D01*
X27730500Y-130146389D02*
X27650536Y-130182659D01*
X27650536Y-130182659D02*
X27584660Y-130188720D01*
X27584660Y-130188720D02*
X27481082Y-130140421D01*
X27481082Y-130140421D02*
X27443380Y-130086061D01*
X27443380Y-130086061D02*
X27419766Y-130001491D01*
X27419766Y-130001491D02*
X27450220Y-129868575D01*
X27450220Y-129868575D02*
X27548831Y-129657103D01*
X27548831Y-129657103D02*
X27631075Y-129548337D01*
X27631075Y-129548337D02*
X27711039Y-129512066D01*
X27711039Y-129512066D02*
X27776915Y-129506005D01*
X28191227Y-129699202D02*
X28553750Y-129868249D01*
X28553750Y-129868249D02*
X27895394Y-130333618D01*
X27895394Y-130333618D02*
X28257917Y-130502665D01*
X28864484Y-130013147D02*
X28968062Y-130061447D01*
X28968062Y-130061447D02*
X29005764Y-130115806D01*
X29005764Y-130115806D02*
X29029378Y-130200377D01*
X29029378Y-130200377D02*
X28998924Y-130333292D01*
X28998924Y-130333292D02*
X28900313Y-130544764D01*
X28900313Y-130544764D02*
X28818069Y-130653530D01*
X28818069Y-130653530D02*
X28738106Y-130689801D01*
X28738106Y-130689801D02*
X28672229Y-130695862D01*
X28672229Y-130695862D02*
X28568651Y-130647563D01*
X28568651Y-130647563D02*
X28530950Y-130593203D01*
X28530950Y-130593203D02*
X28507335Y-130508633D01*
X28507335Y-130508633D02*
X28537790Y-130375717D01*
X28537790Y-130375717D02*
X28636401Y-130164245D01*
X28636401Y-130164245D02*
X28718644Y-130055479D01*
X28718644Y-130055479D02*
X28798608Y-130019208D01*
X28798608Y-130019208D02*
X28864484Y-130013147D01*
X29034752Y-130864909D02*
X29330585Y-130230494D01*
X29330585Y-130230494D02*
X29345486Y-131009807D01*
X29345486Y-131009807D02*
X29641319Y-130375391D01*
X29759391Y-130798242D02*
X29940653Y-130882766D01*
X29863376Y-131251303D02*
X29604431Y-131130555D01*
X29604431Y-131130555D02*
X29900264Y-130496139D01*
X29900264Y-130496139D02*
X30159209Y-130616887D01*
X30340470Y-130701411D02*
X30677099Y-130858383D01*
X30677099Y-130858383D02*
X30383139Y-131015542D01*
X30383139Y-131015542D02*
X30460823Y-131051766D01*
X30460823Y-131051766D02*
X30498524Y-131106126D01*
X30498524Y-131106126D02*
X30510332Y-131148411D01*
X30510332Y-131148411D02*
X30508052Y-131220907D01*
X30508052Y-131220907D02*
X30437615Y-131371958D01*
X30437615Y-131371958D02*
X30383546Y-131420304D01*
X30383546Y-131420304D02*
X30343564Y-131438439D01*
X30343564Y-131438439D02*
X30277688Y-131444500D01*
X30277688Y-131444500D02*
X30122321Y-131372051D01*
X30122321Y-131372051D02*
X30084619Y-131317691D01*
X30084619Y-131317691D02*
X30072812Y-131275406D01*
X37776915Y-134006005D02*
X37880493Y-134054305D01*
X37880493Y-134054305D02*
X37918195Y-134108665D01*
X37918195Y-134108665D02*
X37941809Y-134193235D01*
X37941809Y-134193235D02*
X37911355Y-134326151D01*
X37911355Y-134326151D02*
X37812744Y-134537622D01*
X37812744Y-134537622D02*
X37730500Y-134646389D01*
X37730500Y-134646389D02*
X37650536Y-134682659D01*
X37650536Y-134682659D02*
X37584660Y-134688720D01*
X37584660Y-134688720D02*
X37481082Y-134640421D01*
X37481082Y-134640421D02*
X37443380Y-134586061D01*
X37443380Y-134586061D02*
X37419766Y-134501491D01*
X37419766Y-134501491D02*
X37450220Y-134368575D01*
X37450220Y-134368575D02*
X37548831Y-134157103D01*
X37548831Y-134157103D02*
X37631075Y-134048337D01*
X37631075Y-134048337D02*
X37711039Y-134012066D01*
X37711039Y-134012066D02*
X37776915Y-134006005D01*
X38191227Y-134199202D02*
X38553750Y-134368249D01*
X38553750Y-134368249D02*
X37895394Y-134833618D01*
X37895394Y-134833618D02*
X38257917Y-135002665D01*
X38864484Y-134513147D02*
X38968062Y-134561447D01*
X38968062Y-134561447D02*
X39005764Y-134615806D01*
X39005764Y-134615806D02*
X39029378Y-134700377D01*
X39029378Y-134700377D02*
X38998924Y-134833292D01*
X38998924Y-134833292D02*
X38900313Y-135044764D01*
X38900313Y-135044764D02*
X38818069Y-135153530D01*
X38818069Y-135153530D02*
X38738106Y-135189801D01*
X38738106Y-135189801D02*
X38672229Y-135195862D01*
X38672229Y-135195862D02*
X38568651Y-135147563D01*
X38568651Y-135147563D02*
X38530950Y-135093203D01*
X38530950Y-135093203D02*
X38507335Y-135008633D01*
X38507335Y-135008633D02*
X38537790Y-134875717D01*
X38537790Y-134875717D02*
X38636401Y-134664245D01*
X38636401Y-134664245D02*
X38718644Y-134555479D01*
X38718644Y-134555479D02*
X38798608Y-134519208D01*
X38798608Y-134519208D02*
X38864484Y-134513147D01*
X39034752Y-135364909D02*
X39330585Y-134730494D01*
X39330585Y-134730494D02*
X39345486Y-135509807D01*
X39345486Y-135509807D02*
X39641319Y-134875391D01*
X39759391Y-135298242D02*
X39940653Y-135382766D01*
X39863376Y-135751303D02*
X39604431Y-135630555D01*
X39604431Y-135630555D02*
X39900264Y-134996139D01*
X39900264Y-134996139D02*
X40159209Y-135116887D01*
X40338190Y-135273906D02*
X40378172Y-135255771D01*
X40378172Y-135255771D02*
X40444048Y-135249710D01*
X40444048Y-135249710D02*
X40573521Y-135310084D01*
X40573521Y-135310084D02*
X40611223Y-135364444D01*
X40611223Y-135364444D02*
X40623030Y-135406729D01*
X40623030Y-135406729D02*
X40620750Y-135479224D01*
X40620750Y-135479224D02*
X40592575Y-135539645D01*
X40592575Y-135539645D02*
X40524419Y-135618201D01*
X40524419Y-135618201D02*
X40044638Y-135835826D01*
X40044638Y-135835826D02*
X40381266Y-135992799D01*
X47776915Y-138506005D02*
X47880493Y-138554305D01*
X47880493Y-138554305D02*
X47918195Y-138608665D01*
X47918195Y-138608665D02*
X47941809Y-138693235D01*
X47941809Y-138693235D02*
X47911355Y-138826151D01*
X47911355Y-138826151D02*
X47812744Y-139037622D01*
X47812744Y-139037622D02*
X47730500Y-139146389D01*
X47730500Y-139146389D02*
X47650536Y-139182659D01*
X47650536Y-139182659D02*
X47584660Y-139188720D01*
X47584660Y-139188720D02*
X47481082Y-139140421D01*
X47481082Y-139140421D02*
X47443380Y-139086061D01*
X47443380Y-139086061D02*
X47419766Y-139001491D01*
X47419766Y-139001491D02*
X47450220Y-138868575D01*
X47450220Y-138868575D02*
X47548831Y-138657103D01*
X47548831Y-138657103D02*
X47631075Y-138548337D01*
X47631075Y-138548337D02*
X47711039Y-138512066D01*
X47711039Y-138512066D02*
X47776915Y-138506005D01*
X48191227Y-138699202D02*
X48553750Y-138868249D01*
X48553750Y-138868249D02*
X47895394Y-139333618D01*
X47895394Y-139333618D02*
X48257917Y-139502665D01*
X48864484Y-139013147D02*
X48968062Y-139061447D01*
X48968062Y-139061447D02*
X49005764Y-139115806D01*
X49005764Y-139115806D02*
X49029378Y-139200377D01*
X49029378Y-139200377D02*
X48998924Y-139333292D01*
X48998924Y-139333292D02*
X48900313Y-139544764D01*
X48900313Y-139544764D02*
X48818069Y-139653530D01*
X48818069Y-139653530D02*
X48738106Y-139689801D01*
X48738106Y-139689801D02*
X48672229Y-139695862D01*
X48672229Y-139695862D02*
X48568651Y-139647563D01*
X48568651Y-139647563D02*
X48530950Y-139593203D01*
X48530950Y-139593203D02*
X48507335Y-139508633D01*
X48507335Y-139508633D02*
X48537790Y-139375717D01*
X48537790Y-139375717D02*
X48636401Y-139164245D01*
X48636401Y-139164245D02*
X48718644Y-139055479D01*
X48718644Y-139055479D02*
X48798608Y-139019208D01*
X48798608Y-139019208D02*
X48864484Y-139013147D01*
X49034752Y-139864909D02*
X49330585Y-139230494D01*
X49330585Y-139230494D02*
X49345486Y-140009807D01*
X49345486Y-140009807D02*
X49641319Y-139375391D01*
X49759391Y-139798242D02*
X49940653Y-139882766D01*
X49863376Y-140251303D02*
X49604431Y-140130555D01*
X49604431Y-140130555D02*
X49900264Y-139496139D01*
X49900264Y-139496139D02*
X50159209Y-139616887D01*
X50381266Y-140492799D02*
X50070532Y-140347901D01*
X50225899Y-140420350D02*
X50521732Y-139785935D01*
X50521732Y-139785935D02*
X50427681Y-139852416D01*
X50427681Y-139852416D02*
X50347717Y-139888687D01*
X50347717Y-139888687D02*
X50281841Y-139894747D01*
D13*
X89700000Y-145814733D02*
X89700000Y-145114733D01*
X89700000Y-145114733D02*
X89966667Y-145114733D01*
X89966667Y-145114733D02*
X90033334Y-145148066D01*
X90033334Y-145148066D02*
X90066667Y-145181400D01*
X90066667Y-145181400D02*
X90100000Y-145248066D01*
X90100000Y-145248066D02*
X90100000Y-145348066D01*
X90100000Y-145348066D02*
X90066667Y-145414733D01*
X90066667Y-145414733D02*
X90033334Y-145448066D01*
X90033334Y-145448066D02*
X89966667Y-145481400D01*
X89966667Y-145481400D02*
X89700000Y-145481400D01*
X90400000Y-145114733D02*
X90400000Y-145681400D01*
X90400000Y-145681400D02*
X90433334Y-145748066D01*
X90433334Y-145748066D02*
X90466667Y-145781400D01*
X90466667Y-145781400D02*
X90533334Y-145814733D01*
X90533334Y-145814733D02*
X90666667Y-145814733D01*
X90666667Y-145814733D02*
X90733334Y-145781400D01*
X90733334Y-145781400D02*
X90766667Y-145748066D01*
X90766667Y-145748066D02*
X90800000Y-145681400D01*
X90800000Y-145681400D02*
X90800000Y-145114733D01*
X91133333Y-145814733D02*
X91133333Y-145114733D01*
X91133333Y-145114733D02*
X91366667Y-145614733D01*
X91366667Y-145614733D02*
X91600000Y-145114733D01*
X91600000Y-145114733D02*
X91600000Y-145814733D01*
X91933333Y-145814733D02*
X91933333Y-145114733D01*
X91933333Y-145114733D02*
X92200000Y-145114733D01*
X92200000Y-145114733D02*
X92266667Y-145148066D01*
X92266667Y-145148066D02*
X92300000Y-145181400D01*
X92300000Y-145181400D02*
X92333333Y-145248066D01*
X92333333Y-145248066D02*
X92333333Y-145348066D01*
X92333333Y-145348066D02*
X92300000Y-145414733D01*
X92300000Y-145414733D02*
X92266667Y-145448066D01*
X92266667Y-145448066D02*
X92200000Y-145481400D01*
X92200000Y-145481400D02*
X91933333Y-145481400D01*
X101842858Y-145907257D02*
X101328572Y-145907257D01*
X101585715Y-145907257D02*
X101585715Y-145007257D01*
X101585715Y-145007257D02*
X101500001Y-145135828D01*
X101500001Y-145135828D02*
X101414286Y-145221542D01*
X101414286Y-145221542D02*
X101328572Y-145264400D01*
X102400001Y-145007257D02*
X102485715Y-145007257D01*
X102485715Y-145007257D02*
X102571429Y-145050114D01*
X102571429Y-145050114D02*
X102614287Y-145092971D01*
X102614287Y-145092971D02*
X102657144Y-145178685D01*
X102657144Y-145178685D02*
X102700001Y-145350114D01*
X102700001Y-145350114D02*
X102700001Y-145564400D01*
X102700001Y-145564400D02*
X102657144Y-145735828D01*
X102657144Y-145735828D02*
X102614287Y-145821542D01*
X102614287Y-145821542D02*
X102571429Y-145864400D01*
X102571429Y-145864400D02*
X102485715Y-145907257D01*
X102485715Y-145907257D02*
X102400001Y-145907257D01*
X102400001Y-145907257D02*
X102314287Y-145864400D01*
X102314287Y-145864400D02*
X102271429Y-145821542D01*
X102271429Y-145821542D02*
X102228572Y-145735828D01*
X102228572Y-145735828D02*
X102185715Y-145564400D01*
X102185715Y-145564400D02*
X102185715Y-145350114D01*
X102185715Y-145350114D02*
X102228572Y-145178685D01*
X102228572Y-145178685D02*
X102271429Y-145092971D01*
X102271429Y-145092971D02*
X102314287Y-145050114D01*
X102314287Y-145050114D02*
X102400001Y-145007257D01*
X103257144Y-145007257D02*
X103342858Y-145007257D01*
X103342858Y-145007257D02*
X103428572Y-145050114D01*
X103428572Y-145050114D02*
X103471430Y-145092971D01*
X103471430Y-145092971D02*
X103514287Y-145178685D01*
X103514287Y-145178685D02*
X103557144Y-145350114D01*
X103557144Y-145350114D02*
X103557144Y-145564400D01*
X103557144Y-145564400D02*
X103514287Y-145735828D01*
X103514287Y-145735828D02*
X103471430Y-145821542D01*
X103471430Y-145821542D02*
X103428572Y-145864400D01*
X103428572Y-145864400D02*
X103342858Y-145907257D01*
X103342858Y-145907257D02*
X103257144Y-145907257D01*
X103257144Y-145907257D02*
X103171430Y-145864400D01*
X103171430Y-145864400D02*
X103128572Y-145821542D01*
X103128572Y-145821542D02*
X103085715Y-145735828D01*
X103085715Y-145735828D02*
X103042858Y-145564400D01*
X103042858Y-145564400D02*
X103042858Y-145350114D01*
X103042858Y-145350114D02*
X103085715Y-145178685D01*
X103085715Y-145178685D02*
X103128572Y-145092971D01*
X103128572Y-145092971D02*
X103171430Y-145050114D01*
X103171430Y-145050114D02*
X103257144Y-145007257D01*
X103814287Y-145007257D02*
X104114287Y-145907257D01*
X104114287Y-145907257D02*
X104414287Y-145007257D01*
X107414286Y-145864400D02*
X107542858Y-145907257D01*
X107542858Y-145907257D02*
X107757143Y-145907257D01*
X107757143Y-145907257D02*
X107842858Y-145864400D01*
X107842858Y-145864400D02*
X107885715Y-145821542D01*
X107885715Y-145821542D02*
X107928572Y-145735828D01*
X107928572Y-145735828D02*
X107928572Y-145650114D01*
X107928572Y-145650114D02*
X107885715Y-145564400D01*
X107885715Y-145564400D02*
X107842858Y-145521542D01*
X107842858Y-145521542D02*
X107757143Y-145478685D01*
X107757143Y-145478685D02*
X107585715Y-145435828D01*
X107585715Y-145435828D02*
X107500000Y-145392971D01*
X107500000Y-145392971D02*
X107457143Y-145350114D01*
X107457143Y-145350114D02*
X107414286Y-145264400D01*
X107414286Y-145264400D02*
X107414286Y-145178685D01*
X107414286Y-145178685D02*
X107457143Y-145092971D01*
X107457143Y-145092971D02*
X107500000Y-145050114D01*
X107500000Y-145050114D02*
X107585715Y-145007257D01*
X107585715Y-145007257D02*
X107800000Y-145007257D01*
X107800000Y-145007257D02*
X107928572Y-145050114D01*
X108228572Y-145007257D02*
X108442858Y-145907257D01*
X108442858Y-145907257D02*
X108614286Y-145264400D01*
X108614286Y-145264400D02*
X108785715Y-145907257D01*
X108785715Y-145907257D02*
X109000001Y-145007257D01*
X112042856Y-145864400D02*
X112171428Y-145907257D01*
X112171428Y-145907257D02*
X112385713Y-145907257D01*
X112385713Y-145907257D02*
X112471428Y-145864400D01*
X112471428Y-145864400D02*
X112514285Y-145821542D01*
X112514285Y-145821542D02*
X112557142Y-145735828D01*
X112557142Y-145735828D02*
X112557142Y-145650114D01*
X112557142Y-145650114D02*
X112514285Y-145564400D01*
X112514285Y-145564400D02*
X112471428Y-145521542D01*
X112471428Y-145521542D02*
X112385713Y-145478685D01*
X112385713Y-145478685D02*
X112214285Y-145435828D01*
X112214285Y-145435828D02*
X112128570Y-145392971D01*
X112128570Y-145392971D02*
X112085713Y-145350114D01*
X112085713Y-145350114D02*
X112042856Y-145264400D01*
X112042856Y-145264400D02*
X112042856Y-145178685D01*
X112042856Y-145178685D02*
X112085713Y-145092971D01*
X112085713Y-145092971D02*
X112128570Y-145050114D01*
X112128570Y-145050114D02*
X112214285Y-145007257D01*
X112214285Y-145007257D02*
X112428570Y-145007257D01*
X112428570Y-145007257D02*
X112557142Y-145050114D01*
X112857142Y-145007257D02*
X113071428Y-145907257D01*
X113071428Y-145907257D02*
X113242856Y-145264400D01*
X113242856Y-145264400D02*
X113414285Y-145907257D01*
X113414285Y-145907257D02*
X113628571Y-145007257D01*
X117185712Y-145907257D02*
X116671426Y-145907257D01*
X116928569Y-145907257D02*
X116928569Y-145007257D01*
X116928569Y-145007257D02*
X116842855Y-145135828D01*
X116842855Y-145135828D02*
X116757140Y-145221542D01*
X116757140Y-145221542D02*
X116671426Y-145264400D01*
X117742855Y-145007257D02*
X117828569Y-145007257D01*
X117828569Y-145007257D02*
X117914283Y-145050114D01*
X117914283Y-145050114D02*
X117957141Y-145092971D01*
X117957141Y-145092971D02*
X117999998Y-145178685D01*
X117999998Y-145178685D02*
X118042855Y-145350114D01*
X118042855Y-145350114D02*
X118042855Y-145564400D01*
X118042855Y-145564400D02*
X117999998Y-145735828D01*
X117999998Y-145735828D02*
X117957141Y-145821542D01*
X117957141Y-145821542D02*
X117914283Y-145864400D01*
X117914283Y-145864400D02*
X117828569Y-145907257D01*
X117828569Y-145907257D02*
X117742855Y-145907257D01*
X117742855Y-145907257D02*
X117657141Y-145864400D01*
X117657141Y-145864400D02*
X117614283Y-145821542D01*
X117614283Y-145821542D02*
X117571426Y-145735828D01*
X117571426Y-145735828D02*
X117528569Y-145564400D01*
X117528569Y-145564400D02*
X117528569Y-145350114D01*
X117528569Y-145350114D02*
X117571426Y-145178685D01*
X117571426Y-145178685D02*
X117614283Y-145092971D01*
X117614283Y-145092971D02*
X117657141Y-145050114D01*
X117657141Y-145050114D02*
X117742855Y-145007257D01*
X118599998Y-145007257D02*
X118685712Y-145007257D01*
X118685712Y-145007257D02*
X118771426Y-145050114D01*
X118771426Y-145050114D02*
X118814284Y-145092971D01*
X118814284Y-145092971D02*
X118857141Y-145178685D01*
X118857141Y-145178685D02*
X118899998Y-145350114D01*
X118899998Y-145350114D02*
X118899998Y-145564400D01*
X118899998Y-145564400D02*
X118857141Y-145735828D01*
X118857141Y-145735828D02*
X118814284Y-145821542D01*
X118814284Y-145821542D02*
X118771426Y-145864400D01*
X118771426Y-145864400D02*
X118685712Y-145907257D01*
X118685712Y-145907257D02*
X118599998Y-145907257D01*
X118599998Y-145907257D02*
X118514284Y-145864400D01*
X118514284Y-145864400D02*
X118471426Y-145821542D01*
X118471426Y-145821542D02*
X118428569Y-145735828D01*
X118428569Y-145735828D02*
X118385712Y-145564400D01*
X118385712Y-145564400D02*
X118385712Y-145350114D01*
X118385712Y-145350114D02*
X118428569Y-145178685D01*
X118428569Y-145178685D02*
X118471426Y-145092971D01*
X118471426Y-145092971D02*
X118514284Y-145050114D01*
X118514284Y-145050114D02*
X118599998Y-145007257D01*
X119157141Y-145007257D02*
X119457141Y-145907257D01*
X119457141Y-145907257D02*
X119757141Y-145007257D01*
D14*
X201152429Y-91803581D02*
X200754085Y-91617830D01*
X200754085Y-91617830D02*
X201129576Y-91372590D01*
X201129576Y-91372590D02*
X201037650Y-91329724D01*
X201037650Y-91329724D02*
X200996491Y-91257990D01*
X200996491Y-91257990D02*
X200985974Y-91200544D01*
X200985974Y-91200544D02*
X200995581Y-91099940D01*
X200995581Y-91099940D02*
X201096205Y-90884153D01*
X201096205Y-90884153D02*
X201167096Y-90812126D01*
X201167096Y-90812126D02*
X201217862Y-90783257D01*
X201217862Y-90783257D02*
X201299271Y-90768677D01*
X201299271Y-90768677D02*
X201483122Y-90854408D01*
X201483122Y-90854408D02*
X201524281Y-90926142D01*
X201524281Y-90926142D02*
X201534798Y-90983589D01*
X200570235Y-91532100D02*
X200778360Y-90525772D01*
X200778360Y-90525772D02*
X200141249Y-91332060D01*
X199988040Y-91260618D02*
X199589696Y-91074867D01*
X199589696Y-91074867D02*
X199965187Y-90829627D01*
X199965187Y-90829627D02*
X199873261Y-90786761D01*
X199873261Y-90786761D02*
X199832102Y-90715026D01*
X199832102Y-90715026D02*
X199821585Y-90657580D01*
X199821585Y-90657580D02*
X199831192Y-90556977D01*
X199831192Y-90556977D02*
X199931816Y-90341189D01*
X199931816Y-90341189D02*
X200002707Y-90269163D01*
X200002707Y-90269163D02*
X200053474Y-90240294D01*
X200053474Y-90240294D02*
X200134882Y-90225713D01*
X200134882Y-90225713D02*
X200318733Y-90311444D01*
X200318733Y-90311444D02*
X200359892Y-90383179D01*
X200359892Y-90383179D02*
X200370409Y-90440625D01*
X198506716Y-90517323D02*
X198547875Y-90589058D01*
X198547875Y-90589058D02*
X198639800Y-90631923D01*
X198639800Y-90631923D02*
X198751850Y-90631631D01*
X198751850Y-90631631D02*
X198853383Y-90573893D01*
X198853383Y-90573893D02*
X198924275Y-90501867D01*
X198924275Y-90501867D02*
X199035415Y-90343525D01*
X199035415Y-90343525D02*
X199095789Y-90214053D01*
X199095789Y-90214053D02*
X199145646Y-90027134D01*
X199145646Y-90027134D02*
X199155254Y-89926531D01*
X199155254Y-89926531D02*
X199134219Y-89811639D01*
X199134219Y-89811639D02*
X199062419Y-89725615D01*
X199062419Y-89725615D02*
X199001135Y-89697038D01*
X199001135Y-89697038D02*
X198889085Y-89697330D01*
X198889085Y-89697330D02*
X198838318Y-89726199D01*
X198838318Y-89726199D02*
X198697445Y-90028302D01*
X198697445Y-90028302D02*
X198820013Y-90085456D01*
X198602791Y-89511288D02*
X198180173Y-90417595D01*
X198180173Y-90417595D02*
X198235089Y-89339825D01*
X198235089Y-89339825D02*
X197812471Y-90246133D01*
X197928670Y-89196940D02*
X197506052Y-90103248D01*
X197506052Y-90103248D02*
X197352843Y-90031805D01*
X197352843Y-90031805D02*
X197281042Y-89945782D01*
X197281042Y-89945782D02*
X197260008Y-89830890D01*
X197260008Y-89830890D02*
X197269615Y-89730286D01*
X197269615Y-89730286D02*
X197319472Y-89543368D01*
X197319472Y-89543368D02*
X197379846Y-89413895D01*
X197379846Y-89413895D02*
X197490987Y-89255554D01*
X197490987Y-89255554D02*
X197561878Y-89183527D01*
X197561878Y-89183527D02*
X197663411Y-89125789D01*
X197663411Y-89125789D02*
X197775461Y-89125497D01*
X197775461Y-89125497D02*
X197928670Y-89196940D01*
X196457862Y-88511091D02*
X196825564Y-88682553D01*
X196641713Y-88596822D02*
X196219095Y-89503130D01*
X196219095Y-89503130D02*
X196340753Y-89402234D01*
X196340753Y-89402234D02*
X196442286Y-89344496D01*
X196442286Y-89344496D02*
X196523694Y-89329916D01*
X195830359Y-89216776D02*
X195779593Y-89245645D01*
X195779593Y-89245645D02*
X195698184Y-89260225D01*
X195698184Y-89260225D02*
X195544975Y-89188783D01*
X195544975Y-89188783D02*
X195503816Y-89117048D01*
X195503816Y-89117048D02*
X195493299Y-89059602D01*
X195493299Y-89059602D02*
X195502907Y-88958998D01*
X195502907Y-88958998D02*
X195543156Y-88872683D01*
X195543156Y-88872683D02*
X195634172Y-88757499D01*
X195634172Y-88757499D02*
X196243370Y-88411072D01*
X196243370Y-88411072D02*
X195845026Y-88225321D01*
X195238557Y-89045898D02*
X195446683Y-88039570D01*
X195446683Y-88039570D02*
X194809572Y-88845858D01*
X194159726Y-87439453D02*
X194172973Y-87971047D01*
X194527428Y-87610915D02*
X194104810Y-88517223D01*
X194104810Y-88517223D02*
X193859676Y-88402914D01*
X193859676Y-88402914D02*
X193818517Y-88331180D01*
X193818517Y-88331180D02*
X193807999Y-88273734D01*
X193807999Y-88273734D02*
X193817607Y-88173130D01*
X193817607Y-88173130D02*
X193877981Y-88043658D01*
X193877981Y-88043658D02*
X193948872Y-87971631D01*
X193948872Y-87971631D02*
X193999639Y-87942762D01*
X193999639Y-87942762D02*
X194081047Y-87928182D01*
X194081047Y-87928182D02*
X194326182Y-88042490D01*
X193522615Y-88245741D02*
X193516248Y-87139394D01*
X193093630Y-88045701D02*
X193945234Y-87339433D01*
X193271114Y-87025086D02*
X192848495Y-87931393D01*
X192848495Y-87931393D02*
X192695286Y-87859951D01*
X192695286Y-87859951D02*
X192623485Y-87773928D01*
X192623485Y-87773928D02*
X192602451Y-87659036D01*
X192602451Y-87659036D02*
X192612059Y-87558432D01*
X192612059Y-87558432D02*
X192661916Y-87371514D01*
X192661916Y-87371514D02*
X192722290Y-87242041D01*
X192722290Y-87242041D02*
X192833430Y-87083699D01*
X192833430Y-87083699D02*
X192904321Y-87011673D01*
X192904321Y-87011673D02*
X193005854Y-86953935D01*
X193005854Y-86953935D02*
X193117905Y-86953643D01*
X193117905Y-86953643D02*
X193271114Y-87025086D01*
X191806673Y-87445584D02*
X191438971Y-87274122D01*
X192045441Y-86453545D02*
X191622822Y-87359853D01*
X191285763Y-87202679D02*
X191279395Y-86096332D01*
X190856777Y-87002640D02*
X191708381Y-86296371D01*
X191034261Y-85982024D02*
X190611643Y-86888332D01*
X190611643Y-86888332D02*
X190458433Y-86816889D01*
X190458433Y-86816889D02*
X190386633Y-86730866D01*
X190386633Y-86730866D02*
X190365598Y-86615974D01*
X190365598Y-86615974D02*
X190375206Y-86515371D01*
X190375206Y-86515371D02*
X190425063Y-86328452D01*
X190425063Y-86328452D02*
X190485437Y-86198979D01*
X190485437Y-86198979D02*
X190596577Y-86040638D01*
X190596577Y-86040638D02*
X190667468Y-85968611D01*
X190667468Y-85968611D02*
X190769002Y-85910873D01*
X190769002Y-85910873D02*
X190881052Y-85910581D01*
X190881052Y-85910581D02*
X191034261Y-85982024D01*
X189539179Y-86388234D02*
X189140835Y-86202483D01*
X189140835Y-86202483D02*
X189516325Y-85957242D01*
X189516325Y-85957242D02*
X189424400Y-85914377D01*
X189424400Y-85914377D02*
X189383241Y-85842642D01*
X189383241Y-85842642D02*
X189372724Y-85785196D01*
X189372724Y-85785196D02*
X189382331Y-85684593D01*
X189382331Y-85684593D02*
X189482954Y-85468805D01*
X189482954Y-85468805D02*
X189553846Y-85396779D01*
X189553846Y-85396779D02*
X189604612Y-85367910D01*
X189604612Y-85367910D02*
X189686020Y-85353329D01*
X189686020Y-85353329D02*
X189869872Y-85439060D01*
X189869872Y-85439060D02*
X189911030Y-85510795D01*
X189911030Y-85510795D02*
X189921548Y-85568241D01*
X188956984Y-86116752D02*
X189165110Y-85110425D01*
X189165110Y-85110425D02*
X188527999Y-85916713D01*
X188374790Y-85845270D02*
X187976446Y-85659519D01*
X187976446Y-85659519D02*
X188351936Y-85414279D01*
X188351936Y-85414279D02*
X188260011Y-85371413D01*
X188260011Y-85371413D02*
X188218852Y-85299679D01*
X188218852Y-85299679D02*
X188208335Y-85242233D01*
X188208335Y-85242233D02*
X188217942Y-85141629D01*
X188217942Y-85141629D02*
X188318566Y-84925842D01*
X188318566Y-84925842D02*
X188389457Y-84853815D01*
X188389457Y-84853815D02*
X188440223Y-84824946D01*
X188440223Y-84824946D02*
X188521632Y-84810366D01*
X188521632Y-84810366D02*
X188705483Y-84896097D01*
X188705483Y-84896097D02*
X188746642Y-84967831D01*
X188746642Y-84967831D02*
X188757159Y-85025277D01*
X187633019Y-84395999D02*
X187210401Y-85302307D01*
X187210401Y-85302307D02*
X186965266Y-85187999D01*
X186965266Y-85187999D02*
X186924107Y-85116264D01*
X186924107Y-85116264D02*
X186913590Y-85058818D01*
X186913590Y-85058818D02*
X186923198Y-84958214D01*
X186923198Y-84958214D02*
X186983572Y-84828742D01*
X186983572Y-84828742D02*
X187054463Y-84756715D01*
X187054463Y-84756715D02*
X187105229Y-84727846D01*
X187105229Y-84727846D02*
X187186638Y-84713266D01*
X187186638Y-84713266D02*
X187431772Y-84827574D01*
X186621839Y-83924478D02*
X186635085Y-84456073D01*
X186989541Y-84095940D02*
X186566922Y-85002248D01*
X186566922Y-85002248D02*
X186321788Y-84887940D01*
X186321788Y-84887940D02*
X186280629Y-84816205D01*
X186280629Y-84816205D02*
X186270112Y-84758759D01*
X186270112Y-84758759D02*
X186279719Y-84658155D01*
X186279719Y-84658155D02*
X186340093Y-84528683D01*
X186340093Y-84528683D02*
X186410984Y-84456656D01*
X186410984Y-84456656D02*
X186461751Y-84427787D01*
X186461751Y-84427787D02*
X186543159Y-84413207D01*
X186543159Y-84413207D02*
X186788294Y-84527515D01*
X185606508Y-84501858D02*
X185647667Y-84573592D01*
X185647667Y-84573592D02*
X185739593Y-84616458D01*
X185739593Y-84616458D02*
X185851643Y-84616166D01*
X185851643Y-84616166D02*
X185953176Y-84558428D01*
X185953176Y-84558428D02*
X186024067Y-84486401D01*
X186024067Y-84486401D02*
X186135208Y-84328060D01*
X186135208Y-84328060D02*
X186195582Y-84198587D01*
X186195582Y-84198587D02*
X186245439Y-84011669D01*
X186245439Y-84011669D02*
X186255046Y-83911065D01*
X186255046Y-83911065D02*
X186234012Y-83796173D01*
X186234012Y-83796173D02*
X186162211Y-83710150D01*
X186162211Y-83710150D02*
X186100927Y-83681573D01*
X186100927Y-83681573D02*
X185988877Y-83681865D01*
X185988877Y-83681865D02*
X185938111Y-83710734D01*
X185938111Y-83710734D02*
X185797238Y-84012836D01*
X185797238Y-84012836D02*
X185919805Y-84069990D01*
X184472761Y-83973182D02*
X184513920Y-84044917D01*
X184513920Y-84044917D02*
X184605845Y-84087783D01*
X184605845Y-84087783D02*
X184717895Y-84087491D01*
X184717895Y-84087491D02*
X184819429Y-84029753D01*
X184819429Y-84029753D02*
X184890320Y-83957726D01*
X184890320Y-83957726D02*
X185001460Y-83799385D01*
X185001460Y-83799385D02*
X185061834Y-83669912D01*
X185061834Y-83669912D02*
X185111691Y-83482993D01*
X185111691Y-83482993D02*
X185121299Y-83382390D01*
X185121299Y-83382390D02*
X185100264Y-83267498D01*
X185100264Y-83267498D02*
X185028464Y-83181475D01*
X185028464Y-83181475D02*
X184967180Y-83152898D01*
X184967180Y-83152898D02*
X184855130Y-83153190D01*
X184855130Y-83153190D02*
X184804363Y-83182059D01*
X184804363Y-83182059D02*
X184663490Y-83484161D01*
X184663490Y-83484161D02*
X184786058Y-83541315D01*
X184568836Y-82967147D02*
X184146218Y-83873455D01*
X184146218Y-83873455D02*
X184201134Y-82795685D01*
X184201134Y-82795685D02*
X183778516Y-83701992D01*
X183894715Y-82652799D02*
X183472097Y-83559107D01*
X183472097Y-83559107D02*
X183318888Y-83487664D01*
X183318888Y-83487664D02*
X183247087Y-83401641D01*
X183247087Y-83401641D02*
X183226053Y-83286749D01*
X183226053Y-83286749D02*
X183235660Y-83186146D01*
X183235660Y-83186146D02*
X183285517Y-82999227D01*
X183285517Y-82999227D02*
X183345891Y-82869755D01*
X183345891Y-82869755D02*
X183457032Y-82711413D01*
X183457032Y-82711413D02*
X183527923Y-82639387D01*
X183527923Y-82639387D02*
X183629456Y-82581649D01*
X183629456Y-82581649D02*
X183741506Y-82581357D01*
X183741506Y-82581357D02*
X183894715Y-82652799D01*
X182393266Y-81952662D02*
X182406512Y-82484257D01*
X182760968Y-82124124D02*
X182338349Y-83030432D01*
X182338349Y-83030432D02*
X182093215Y-82916124D01*
X182093215Y-82916124D02*
X182052056Y-82844389D01*
X182052056Y-82844389D02*
X182041539Y-82786943D01*
X182041539Y-82786943D02*
X182051146Y-82686340D01*
X182051146Y-82686340D02*
X182111520Y-82556867D01*
X182111520Y-82556867D02*
X182182411Y-82484840D01*
X182182411Y-82484840D02*
X182233178Y-82455972D01*
X182233178Y-82455972D02*
X182314586Y-82441391D01*
X182314586Y-82441391D02*
X182559721Y-82555699D01*
X182128006Y-81881511D02*
X182056206Y-81795488D01*
X182056206Y-81795488D02*
X181902996Y-81724045D01*
X181902996Y-81724045D02*
X181821588Y-81738626D01*
X181821588Y-81738626D02*
X181770821Y-81767495D01*
X181770821Y-81767495D02*
X181699930Y-81839521D01*
X181699930Y-81839521D02*
X181659681Y-81925836D01*
X181659681Y-81925836D02*
X181650073Y-82026440D01*
X181650073Y-82026440D02*
X181660591Y-82083886D01*
X181660591Y-82083886D02*
X181701750Y-82155621D01*
X181701750Y-82155621D02*
X181804192Y-82255932D01*
X181804192Y-82255932D02*
X181845351Y-82327667D01*
X181845351Y-82327667D02*
X181855868Y-82385113D01*
X181855868Y-82385113D02*
X181846261Y-82485716D01*
X181846261Y-82485716D02*
X181806011Y-82572031D01*
X181806011Y-82572031D02*
X181735120Y-82644058D01*
X181735120Y-82644058D02*
X181684354Y-82672927D01*
X181684354Y-82672927D02*
X181602945Y-82687507D01*
X181602945Y-82687507D02*
X181449736Y-82616065D01*
X181449736Y-82616065D02*
X181377935Y-82530042D01*
X181173960Y-82487468D02*
X180806258Y-82316006D01*
X181412727Y-81495429D02*
X180990109Y-82401737D01*
X179784561Y-81787039D02*
X179825720Y-81858774D01*
X179825720Y-81858774D02*
X179917646Y-81901639D01*
X179917646Y-81901639D02*
X180029696Y-81901347D01*
X180029696Y-81901347D02*
X180131229Y-81843609D01*
X180131229Y-81843609D02*
X180202120Y-81771583D01*
X180202120Y-81771583D02*
X180313261Y-81613241D01*
X180313261Y-81613241D02*
X180373635Y-81483769D01*
X180373635Y-81483769D02*
X180423492Y-81296850D01*
X180423492Y-81296850D02*
X180433099Y-81196246D01*
X180433099Y-81196246D02*
X180412065Y-81081354D01*
X180412065Y-81081354D02*
X180340264Y-80995331D01*
X180340264Y-80995331D02*
X180278980Y-80966754D01*
X180278980Y-80966754D02*
X180166930Y-80967046D01*
X180166930Y-80967046D02*
X180116164Y-80995915D01*
X180116164Y-80995915D02*
X179975291Y-81298018D01*
X179975291Y-81298018D02*
X180097858Y-81355172D01*
X179880636Y-80781004D02*
X179458018Y-81687311D01*
X179458018Y-81687311D02*
X179512934Y-80609541D01*
X179512934Y-80609541D02*
X179090316Y-81515849D01*
X179206516Y-80466656D02*
X178783897Y-81372964D01*
X178783897Y-81372964D02*
X178630688Y-81301521D01*
X178630688Y-81301521D02*
X178558887Y-81215498D01*
X178558887Y-81215498D02*
X178537853Y-81100606D01*
X178537853Y-81100606D02*
X178547461Y-81000002D01*
X178547461Y-81000002D02*
X178597317Y-80813084D01*
X178597317Y-80813084D02*
X178657691Y-80683611D01*
X178657691Y-80683611D02*
X178768832Y-80525270D01*
X178768832Y-80525270D02*
X178839723Y-80453243D01*
X178839723Y-80453243D02*
X178941256Y-80395505D01*
X178941256Y-80395505D02*
X179053306Y-80395213D01*
X179053306Y-80395213D02*
X179206516Y-80466656D01*
D15*
X107071429Y-92678328D02*
X106214286Y-92678328D01*
X106642857Y-92678328D02*
X106642857Y-91178328D01*
X106642857Y-91178328D02*
X106500000Y-91392614D01*
X106500000Y-91392614D02*
X106357143Y-91535471D01*
X106357143Y-91535471D02*
X106214286Y-91606900D01*
X107642857Y-91321185D02*
X107714285Y-91249757D01*
X107714285Y-91249757D02*
X107857143Y-91178328D01*
X107857143Y-91178328D02*
X108214285Y-91178328D01*
X108214285Y-91178328D02*
X108357143Y-91249757D01*
X108357143Y-91249757D02*
X108428571Y-91321185D01*
X108428571Y-91321185D02*
X108500000Y-91464042D01*
X108500000Y-91464042D02*
X108500000Y-91606900D01*
X108500000Y-91606900D02*
X108428571Y-91821185D01*
X108428571Y-91821185D02*
X107571428Y-92678328D01*
X107571428Y-92678328D02*
X108500000Y-92678328D01*
X108928571Y-91178328D02*
X109428571Y-92678328D01*
X109428571Y-92678328D02*
X109928571Y-91178328D01*
X101142857Y-91178328D02*
X102071429Y-91178328D01*
X102071429Y-91178328D02*
X101571429Y-91749757D01*
X101571429Y-91749757D02*
X101785714Y-91749757D01*
X101785714Y-91749757D02*
X101928572Y-91821185D01*
X101928572Y-91821185D02*
X102000000Y-91892614D01*
X102000000Y-91892614D02*
X102071429Y-92035471D01*
X102071429Y-92035471D02*
X102071429Y-92392614D01*
X102071429Y-92392614D02*
X102000000Y-92535471D01*
X102000000Y-92535471D02*
X101928572Y-92606900D01*
X101928572Y-92606900D02*
X101785714Y-92678328D01*
X101785714Y-92678328D02*
X101357143Y-92678328D01*
X101357143Y-92678328D02*
X101214286Y-92606900D01*
X101214286Y-92606900D02*
X101142857Y-92535471D01*
X102500000Y-91178328D02*
X103000000Y-92678328D01*
X103000000Y-92678328D02*
X103500000Y-91178328D01*
X103857142Y-91178328D02*
X104785714Y-91178328D01*
X104785714Y-91178328D02*
X104285714Y-91749757D01*
X104285714Y-91749757D02*
X104499999Y-91749757D01*
X104499999Y-91749757D02*
X104642857Y-91821185D01*
X104642857Y-91821185D02*
X104714285Y-91892614D01*
X104714285Y-91892614D02*
X104785714Y-92035471D01*
X104785714Y-92035471D02*
X104785714Y-92392614D01*
X104785714Y-92392614D02*
X104714285Y-92535471D01*
X104714285Y-92535471D02*
X104642857Y-92606900D01*
X104642857Y-92606900D02*
X104499999Y-92678328D01*
X104499999Y-92678328D02*
X104071428Y-92678328D01*
X104071428Y-92678328D02*
X103928571Y-92606900D01*
X103928571Y-92606900D02*
X103857142Y-92535471D01*
X99042858Y-75037980D02*
X98376191Y-75037980D01*
X98090477Y-73990361D02*
X99042858Y-73990361D01*
X99042858Y-73990361D02*
X99042858Y-75990361D01*
X99042858Y-75990361D02*
X98090477Y-75990361D01*
X97328572Y-74085600D02*
X97042858Y-73990361D01*
X97042858Y-73990361D02*
X96566667Y-73990361D01*
X96566667Y-73990361D02*
X96376191Y-74085600D01*
X96376191Y-74085600D02*
X96280953Y-74180838D01*
X96280953Y-74180838D02*
X96185715Y-74371314D01*
X96185715Y-74371314D02*
X96185715Y-74561790D01*
X96185715Y-74561790D02*
X96280953Y-74752266D01*
X96280953Y-74752266D02*
X96376191Y-74847504D01*
X96376191Y-74847504D02*
X96566667Y-74942742D01*
X96566667Y-74942742D02*
X96947620Y-75037980D01*
X96947620Y-75037980D02*
X97138096Y-75133219D01*
X97138096Y-75133219D02*
X97233334Y-75228457D01*
X97233334Y-75228457D02*
X97328572Y-75418933D01*
X97328572Y-75418933D02*
X97328572Y-75609409D01*
X97328572Y-75609409D02*
X97233334Y-75799885D01*
X97233334Y-75799885D02*
X97138096Y-75895123D01*
X97138096Y-75895123D02*
X96947620Y-75990361D01*
X96947620Y-75990361D02*
X96471429Y-75990361D01*
X96471429Y-75990361D02*
X96185715Y-75895123D01*
X95328572Y-73990361D02*
X95328572Y-75990361D01*
X95328572Y-75990361D02*
X94566667Y-75990361D01*
X94566667Y-75990361D02*
X94376191Y-75895123D01*
X94376191Y-75895123D02*
X94280953Y-75799885D01*
X94280953Y-75799885D02*
X94185715Y-75609409D01*
X94185715Y-75609409D02*
X94185715Y-75323695D01*
X94185715Y-75323695D02*
X94280953Y-75133219D01*
X94280953Y-75133219D02*
X94376191Y-75037980D01*
X94376191Y-75037980D02*
X94566667Y-74942742D01*
X94566667Y-74942742D02*
X95328572Y-74942742D01*
X93328572Y-74752266D02*
X91804763Y-74752266D01*
X91042858Y-75990361D02*
X89804763Y-75990361D01*
X89804763Y-75990361D02*
X90471430Y-75228457D01*
X90471430Y-75228457D02*
X90185715Y-75228457D01*
X90185715Y-75228457D02*
X89995239Y-75133219D01*
X89995239Y-75133219D02*
X89900001Y-75037980D01*
X89900001Y-75037980D02*
X89804763Y-74847504D01*
X89804763Y-74847504D02*
X89804763Y-74371314D01*
X89804763Y-74371314D02*
X89900001Y-74180838D01*
X89900001Y-74180838D02*
X89995239Y-74085600D01*
X89995239Y-74085600D02*
X90185715Y-73990361D01*
X90185715Y-73990361D02*
X90757144Y-73990361D01*
X90757144Y-73990361D02*
X90947620Y-74085600D01*
X90947620Y-74085600D02*
X91042858Y-74180838D01*
X89042858Y-75799885D02*
X88947620Y-75895123D01*
X88947620Y-75895123D02*
X88757144Y-75990361D01*
X88757144Y-75990361D02*
X88280953Y-75990361D01*
X88280953Y-75990361D02*
X88090477Y-75895123D01*
X88090477Y-75895123D02*
X87995239Y-75799885D01*
X87995239Y-75799885D02*
X87900001Y-75609409D01*
X87900001Y-75609409D02*
X87900001Y-75418933D01*
X87900001Y-75418933D02*
X87995239Y-75133219D01*
X87995239Y-75133219D02*
X89138096Y-73990361D01*
X89138096Y-73990361D02*
X87900001Y-73990361D01*
X85519048Y-73990361D02*
X85519048Y-75990361D01*
X85519048Y-75990361D02*
X85042858Y-75990361D01*
X85042858Y-75990361D02*
X84757143Y-75895123D01*
X84757143Y-75895123D02*
X84566667Y-75704647D01*
X84566667Y-75704647D02*
X84471429Y-75514171D01*
X84471429Y-75514171D02*
X84376191Y-75133219D01*
X84376191Y-75133219D02*
X84376191Y-74847504D01*
X84376191Y-74847504D02*
X84471429Y-74466552D01*
X84471429Y-74466552D02*
X84566667Y-74276076D01*
X84566667Y-74276076D02*
X84757143Y-74085600D01*
X84757143Y-74085600D02*
X85042858Y-73990361D01*
X85042858Y-73990361D02*
X85519048Y-73990361D01*
X83519048Y-75990361D02*
X83519048Y-74371314D01*
X83519048Y-74371314D02*
X83423810Y-74180838D01*
X83423810Y-74180838D02*
X83328572Y-74085600D01*
X83328572Y-74085600D02*
X83138096Y-73990361D01*
X83138096Y-73990361D02*
X82757143Y-73990361D01*
X82757143Y-73990361D02*
X82566667Y-74085600D01*
X82566667Y-74085600D02*
X82471429Y-74180838D01*
X82471429Y-74180838D02*
X82376191Y-74371314D01*
X82376191Y-74371314D02*
X82376191Y-75990361D01*
X81519048Y-74561790D02*
X80566667Y-74561790D01*
X81709524Y-73990361D02*
X81042858Y-75990361D01*
X81042858Y-75990361D02*
X80376191Y-73990361D01*
X78757143Y-73990361D02*
X79709524Y-73990361D01*
X79709524Y-73990361D02*
X79709524Y-75990361D01*
X78090476Y-73990361D02*
X78090476Y-75990361D01*
X78090476Y-75990361D02*
X77614286Y-75990361D01*
X77614286Y-75990361D02*
X77328571Y-75895123D01*
X77328571Y-75895123D02*
X77138095Y-75704647D01*
X77138095Y-75704647D02*
X77042857Y-75514171D01*
X77042857Y-75514171D02*
X76947619Y-75133219D01*
X76947619Y-75133219D02*
X76947619Y-74847504D01*
X76947619Y-74847504D02*
X77042857Y-74466552D01*
X77042857Y-74466552D02*
X77138095Y-74276076D01*
X77138095Y-74276076D02*
X77328571Y-74085600D01*
X77328571Y-74085600D02*
X77614286Y-73990361D01*
X77614286Y-73990361D02*
X78090476Y-73990361D01*
X76090476Y-73990361D02*
X76090476Y-75990361D01*
X75233333Y-74561790D02*
X74280952Y-74561790D01*
X75423809Y-73990361D02*
X74757143Y-75990361D01*
X74757143Y-75990361D02*
X74090476Y-73990361D01*
X72471428Y-73990361D02*
X73423809Y-73990361D01*
X73423809Y-73990361D02*
X73423809Y-75990361D01*
X70566665Y-75990361D02*
X69899999Y-73990361D01*
X69899999Y-73990361D02*
X69233332Y-75990361D01*
X68280951Y-75133219D02*
X68471427Y-75228457D01*
X68471427Y-75228457D02*
X68566665Y-75323695D01*
X68566665Y-75323695D02*
X68661903Y-75514171D01*
X68661903Y-75514171D02*
X68661903Y-75609409D01*
X68661903Y-75609409D02*
X68566665Y-75799885D01*
X68566665Y-75799885D02*
X68471427Y-75895123D01*
X68471427Y-75895123D02*
X68280951Y-75990361D01*
X68280951Y-75990361D02*
X67899998Y-75990361D01*
X67899998Y-75990361D02*
X67709522Y-75895123D01*
X67709522Y-75895123D02*
X67614284Y-75799885D01*
X67614284Y-75799885D02*
X67519046Y-75609409D01*
X67519046Y-75609409D02*
X67519046Y-75514171D01*
X67519046Y-75514171D02*
X67614284Y-75323695D01*
X67614284Y-75323695D02*
X67709522Y-75228457D01*
X67709522Y-75228457D02*
X67899998Y-75133219D01*
X67899998Y-75133219D02*
X68280951Y-75133219D01*
X68280951Y-75133219D02*
X68471427Y-75037980D01*
X68471427Y-75037980D02*
X68566665Y-74942742D01*
X68566665Y-74942742D02*
X68661903Y-74752266D01*
X68661903Y-74752266D02*
X68661903Y-74371314D01*
X68661903Y-74371314D02*
X68566665Y-74180838D01*
X68566665Y-74180838D02*
X68471427Y-74085600D01*
X68471427Y-74085600D02*
X68280951Y-73990361D01*
X68280951Y-73990361D02*
X67899998Y-73990361D01*
X67899998Y-73990361D02*
X67709522Y-74085600D01*
X67709522Y-74085600D02*
X67614284Y-74180838D01*
X67614284Y-74180838D02*
X67519046Y-74371314D01*
X67519046Y-74371314D02*
X67519046Y-74752266D01*
X67519046Y-74752266D02*
X67614284Y-74942742D01*
X67614284Y-74942742D02*
X67709522Y-75037980D01*
X67709522Y-75037980D02*
X67899998Y-75133219D01*
X66661903Y-74180838D02*
X66566665Y-74085600D01*
X66566665Y-74085600D02*
X66661903Y-73990361D01*
X66661903Y-73990361D02*
X66757141Y-74085600D01*
X66757141Y-74085600D02*
X66661903Y-74180838D01*
X66661903Y-74180838D02*
X66661903Y-73990361D01*
X64661903Y-73990361D02*
X65804760Y-73990361D01*
X65233332Y-73990361D02*
X65233332Y-75990361D01*
X65233332Y-75990361D02*
X65423808Y-75704647D01*
X65423808Y-75704647D02*
X65614284Y-75514171D01*
X65614284Y-75514171D02*
X65804760Y-75418933D01*
D13*
X71700000Y-81814733D02*
X71700000Y-81114733D01*
X71700000Y-81114733D02*
X71966667Y-81114733D01*
X71966667Y-81114733D02*
X72033334Y-81148066D01*
X72033334Y-81148066D02*
X72066667Y-81181400D01*
X72066667Y-81181400D02*
X72100000Y-81248066D01*
X72100000Y-81248066D02*
X72100000Y-81348066D01*
X72100000Y-81348066D02*
X72066667Y-81414733D01*
X72066667Y-81414733D02*
X72033334Y-81448066D01*
X72033334Y-81448066D02*
X71966667Y-81481400D01*
X71966667Y-81481400D02*
X71700000Y-81481400D01*
X72400000Y-81114733D02*
X72400000Y-81681400D01*
X72400000Y-81681400D02*
X72433334Y-81748066D01*
X72433334Y-81748066D02*
X72466667Y-81781400D01*
X72466667Y-81781400D02*
X72533334Y-81814733D01*
X72533334Y-81814733D02*
X72666667Y-81814733D01*
X72666667Y-81814733D02*
X72733334Y-81781400D01*
X72733334Y-81781400D02*
X72766667Y-81748066D01*
X72766667Y-81748066D02*
X72800000Y-81681400D01*
X72800000Y-81681400D02*
X72800000Y-81114733D01*
X73133333Y-81814733D02*
X73133333Y-81114733D01*
X73133333Y-81114733D02*
X73366667Y-81614733D01*
X73366667Y-81614733D02*
X73600000Y-81114733D01*
X73600000Y-81114733D02*
X73600000Y-81814733D01*
X73933333Y-81814733D02*
X73933333Y-81114733D01*
X73933333Y-81114733D02*
X74200000Y-81114733D01*
X74200000Y-81114733D02*
X74266667Y-81148066D01*
X74266667Y-81148066D02*
X74300000Y-81181400D01*
X74300000Y-81181400D02*
X74333333Y-81248066D01*
X74333333Y-81248066D02*
X74333333Y-81348066D01*
X74333333Y-81348066D02*
X74300000Y-81414733D01*
X74300000Y-81414733D02*
X74266667Y-81448066D01*
X74266667Y-81448066D02*
X74200000Y-81481400D01*
X74200000Y-81481400D02*
X73933333Y-81481400D01*
D11*
X177488095Y-116449619D02*
X177488095Y-115782952D01*
X177488095Y-115878190D02*
X177535714Y-115830571D01*
X177535714Y-115830571D02*
X177630952Y-115782952D01*
X177630952Y-115782952D02*
X177773809Y-115782952D01*
X177773809Y-115782952D02*
X177869047Y-115830571D01*
X177869047Y-115830571D02*
X177916666Y-115925809D01*
X177916666Y-115925809D02*
X177916666Y-116449619D01*
X177916666Y-115925809D02*
X177964285Y-115830571D01*
X177964285Y-115830571D02*
X178059523Y-115782952D01*
X178059523Y-115782952D02*
X178202380Y-115782952D01*
X178202380Y-115782952D02*
X178297619Y-115830571D01*
X178297619Y-115830571D02*
X178345238Y-115925809D01*
X178345238Y-115925809D02*
X178345238Y-116449619D01*
X178964285Y-116449619D02*
X178869047Y-116402000D01*
X178869047Y-116402000D02*
X178821428Y-116354380D01*
X178821428Y-116354380D02*
X178773809Y-116259142D01*
X178773809Y-116259142D02*
X178773809Y-115973428D01*
X178773809Y-115973428D02*
X178821428Y-115878190D01*
X178821428Y-115878190D02*
X178869047Y-115830571D01*
X178869047Y-115830571D02*
X178964285Y-115782952D01*
X178964285Y-115782952D02*
X179107142Y-115782952D01*
X179107142Y-115782952D02*
X179202380Y-115830571D01*
X179202380Y-115830571D02*
X179249999Y-115878190D01*
X179249999Y-115878190D02*
X179297618Y-115973428D01*
X179297618Y-115973428D02*
X179297618Y-116259142D01*
X179297618Y-116259142D02*
X179249999Y-116354380D01*
X179249999Y-116354380D02*
X179202380Y-116402000D01*
X179202380Y-116402000D02*
X179107142Y-116449619D01*
X179107142Y-116449619D02*
X178964285Y-116449619D01*
X180154761Y-116449619D02*
X180154761Y-115449619D01*
X180154761Y-116402000D02*
X180059523Y-116449619D01*
X180059523Y-116449619D02*
X179869047Y-116449619D01*
X179869047Y-116449619D02*
X179773809Y-116402000D01*
X179773809Y-116402000D02*
X179726190Y-116354380D01*
X179726190Y-116354380D02*
X179678571Y-116259142D01*
X179678571Y-116259142D02*
X179678571Y-115973428D01*
X179678571Y-115973428D02*
X179726190Y-115878190D01*
X179726190Y-115878190D02*
X179773809Y-115830571D01*
X179773809Y-115830571D02*
X179869047Y-115782952D01*
X179869047Y-115782952D02*
X180059523Y-115782952D01*
X180059523Y-115782952D02*
X180154761Y-115830571D01*
X181011904Y-116402000D02*
X180916666Y-116449619D01*
X180916666Y-116449619D02*
X180726190Y-116449619D01*
X180726190Y-116449619D02*
X180630952Y-116402000D01*
X180630952Y-116402000D02*
X180583333Y-116306761D01*
X180583333Y-116306761D02*
X180583333Y-115925809D01*
X180583333Y-115925809D02*
X180630952Y-115830571D01*
X180630952Y-115830571D02*
X180726190Y-115782952D01*
X180726190Y-115782952D02*
X180916666Y-115782952D01*
X180916666Y-115782952D02*
X181011904Y-115830571D01*
X181011904Y-115830571D02*
X181059523Y-115925809D01*
X181059523Y-115925809D02*
X181059523Y-116021047D01*
X181059523Y-116021047D02*
X180583333Y-116116285D01*
X69649619Y-96485714D02*
X69649619Y-96390476D01*
X69649619Y-96390476D02*
X69697238Y-96295238D01*
X69697238Y-96295238D02*
X69744857Y-96247619D01*
X69744857Y-96247619D02*
X69840095Y-96200000D01*
X69840095Y-96200000D02*
X70030571Y-96152381D01*
X70030571Y-96152381D02*
X70268666Y-96152381D01*
X70268666Y-96152381D02*
X70459142Y-96200000D01*
X70459142Y-96200000D02*
X70554380Y-96247619D01*
X70554380Y-96247619D02*
X70602000Y-96295238D01*
X70602000Y-96295238D02*
X70649619Y-96390476D01*
X70649619Y-96390476D02*
X70649619Y-96485714D01*
X70649619Y-96485714D02*
X70602000Y-96580952D01*
X70602000Y-96580952D02*
X70554380Y-96628571D01*
X70554380Y-96628571D02*
X70459142Y-96676190D01*
X70459142Y-96676190D02*
X70268666Y-96723809D01*
X70268666Y-96723809D02*
X70030571Y-96723809D01*
X70030571Y-96723809D02*
X69840095Y-96676190D01*
X69840095Y-96676190D02*
X69744857Y-96628571D01*
X69744857Y-96628571D02*
X69697238Y-96580952D01*
X69697238Y-96580952D02*
X69649619Y-96485714D01*
X70554380Y-95723809D02*
X70602000Y-95676190D01*
X70602000Y-95676190D02*
X70649619Y-95723809D01*
X70649619Y-95723809D02*
X70602000Y-95771428D01*
X70602000Y-95771428D02*
X70554380Y-95723809D01*
X70554380Y-95723809D02*
X70649619Y-95723809D01*
X70649619Y-94723810D02*
X70649619Y-95295238D01*
X70649619Y-95009524D02*
X69649619Y-95009524D01*
X69649619Y-95009524D02*
X69792476Y-95104762D01*
X69792476Y-95104762D02*
X69887714Y-95200000D01*
X69887714Y-95200000D02*
X69935333Y-95295238D01*
X69982952Y-93866667D02*
X70649619Y-93866667D01*
X69982952Y-94295238D02*
X70506761Y-94295238D01*
X70506761Y-94295238D02*
X70602000Y-94247619D01*
X70602000Y-94247619D02*
X70649619Y-94152381D01*
X70649619Y-94152381D02*
X70649619Y-94009524D01*
X70649619Y-94009524D02*
X70602000Y-93914286D01*
X70602000Y-93914286D02*
X70554380Y-93866667D01*
X70125809Y-93057143D02*
X70125809Y-93390476D01*
X70649619Y-93390476D02*
X69649619Y-93390476D01*
X69649619Y-93390476D02*
X69649619Y-92914286D01*
X70649619Y-91866666D02*
X69982952Y-91342857D01*
X69982952Y-91866666D02*
X70649619Y-91342857D01*
X69649619Y-90295237D02*
X69649619Y-89676190D01*
X69649619Y-89676190D02*
X70030571Y-90009523D01*
X70030571Y-90009523D02*
X70030571Y-89866666D01*
X70030571Y-89866666D02*
X70078190Y-89771428D01*
X70078190Y-89771428D02*
X70125809Y-89723809D01*
X70125809Y-89723809D02*
X70221047Y-89676190D01*
X70221047Y-89676190D02*
X70459142Y-89676190D01*
X70459142Y-89676190D02*
X70554380Y-89723809D01*
X70554380Y-89723809D02*
X70602000Y-89771428D01*
X70602000Y-89771428D02*
X70649619Y-89866666D01*
X70649619Y-89866666D02*
X70649619Y-90152380D01*
X70649619Y-90152380D02*
X70602000Y-90247618D01*
X70602000Y-90247618D02*
X70554380Y-90295237D01*
D10*
X201759580Y-104966666D02*
X201807200Y-105014285D01*
X201807200Y-105014285D02*
X201854819Y-105157142D01*
X201854819Y-105157142D02*
X201854819Y-105252380D01*
X201854819Y-105252380D02*
X201807200Y-105395237D01*
X201807200Y-105395237D02*
X201711961Y-105490475D01*
X201711961Y-105490475D02*
X201616723Y-105538094D01*
X201616723Y-105538094D02*
X201426247Y-105585713D01*
X201426247Y-105585713D02*
X201283390Y-105585713D01*
X201283390Y-105585713D02*
X201092914Y-105538094D01*
X201092914Y-105538094D02*
X200997676Y-105490475D01*
X200997676Y-105490475D02*
X200902438Y-105395237D01*
X200902438Y-105395237D02*
X200854819Y-105252380D01*
X200854819Y-105252380D02*
X200854819Y-105157142D01*
X200854819Y-105157142D02*
X200902438Y-105014285D01*
X200902438Y-105014285D02*
X200950057Y-104966666D01*
X200950057Y-104585713D02*
X200902438Y-104538094D01*
X200902438Y-104538094D02*
X200854819Y-104442856D01*
X200854819Y-104442856D02*
X200854819Y-104204761D01*
X200854819Y-104204761D02*
X200902438Y-104109523D01*
X200902438Y-104109523D02*
X200950057Y-104061904D01*
X200950057Y-104061904D02*
X201045295Y-104014285D01*
X201045295Y-104014285D02*
X201140533Y-104014285D01*
X201140533Y-104014285D02*
X201283390Y-104061904D01*
X201283390Y-104061904D02*
X201854819Y-104633332D01*
X201854819Y-104633332D02*
X201854819Y-104014285D01*
X203519580Y-98646666D02*
X203567200Y-98694285D01*
X203567200Y-98694285D02*
X203614819Y-98837142D01*
X203614819Y-98837142D02*
X203614819Y-98932380D01*
X203614819Y-98932380D02*
X203567200Y-99075237D01*
X203567200Y-99075237D02*
X203471961Y-99170475D01*
X203471961Y-99170475D02*
X203376723Y-99218094D01*
X203376723Y-99218094D02*
X203186247Y-99265713D01*
X203186247Y-99265713D02*
X203043390Y-99265713D01*
X203043390Y-99265713D02*
X202852914Y-99218094D01*
X202852914Y-99218094D02*
X202757676Y-99170475D01*
X202757676Y-99170475D02*
X202662438Y-99075237D01*
X202662438Y-99075237D02*
X202614819Y-98932380D01*
X202614819Y-98932380D02*
X202614819Y-98837142D01*
X202614819Y-98837142D02*
X202662438Y-98694285D01*
X202662438Y-98694285D02*
X202710057Y-98646666D01*
X202614819Y-98313332D02*
X202614819Y-97694285D01*
X202614819Y-97694285D02*
X202995771Y-98027618D01*
X202995771Y-98027618D02*
X202995771Y-97884761D01*
X202995771Y-97884761D02*
X203043390Y-97789523D01*
X203043390Y-97789523D02*
X203091009Y-97741904D01*
X203091009Y-97741904D02*
X203186247Y-97694285D01*
X203186247Y-97694285D02*
X203424342Y-97694285D01*
X203424342Y-97694285D02*
X203519580Y-97741904D01*
X203519580Y-97741904D02*
X203567200Y-97789523D01*
X203567200Y-97789523D02*
X203614819Y-97884761D01*
X203614819Y-97884761D02*
X203614819Y-98170475D01*
X203614819Y-98170475D02*
X203567200Y-98265713D01*
X203567200Y-98265713D02*
X203519580Y-98313332D01*
X201204819Y-95666666D02*
X200728628Y-95999999D01*
X201204819Y-96238094D02*
X200204819Y-96238094D01*
X200204819Y-96238094D02*
X200204819Y-95857142D01*
X200204819Y-95857142D02*
X200252438Y-95761904D01*
X200252438Y-95761904D02*
X200300057Y-95714285D01*
X200300057Y-95714285D02*
X200395295Y-95666666D01*
X200395295Y-95666666D02*
X200538152Y-95666666D01*
X200538152Y-95666666D02*
X200633390Y-95714285D01*
X200633390Y-95714285D02*
X200681009Y-95761904D01*
X200681009Y-95761904D02*
X200728628Y-95857142D01*
X200728628Y-95857142D02*
X200728628Y-96238094D01*
X200300057Y-95285713D02*
X200252438Y-95238094D01*
X200252438Y-95238094D02*
X200204819Y-95142856D01*
X200204819Y-95142856D02*
X200204819Y-94904761D01*
X200204819Y-94904761D02*
X200252438Y-94809523D01*
X200252438Y-94809523D02*
X200300057Y-94761904D01*
X200300057Y-94761904D02*
X200395295Y-94714285D01*
X200395295Y-94714285D02*
X200490533Y-94714285D01*
X200490533Y-94714285D02*
X200633390Y-94761904D01*
X200633390Y-94761904D02*
X201204819Y-95333332D01*
X201204819Y-95333332D02*
X201204819Y-94714285D01*
X89384819Y-85666666D02*
X88908628Y-85999999D01*
X89384819Y-86238094D02*
X88384819Y-86238094D01*
X88384819Y-86238094D02*
X88384819Y-85857142D01*
X88384819Y-85857142D02*
X88432438Y-85761904D01*
X88432438Y-85761904D02*
X88480057Y-85714285D01*
X88480057Y-85714285D02*
X88575295Y-85666666D01*
X88575295Y-85666666D02*
X88718152Y-85666666D01*
X88718152Y-85666666D02*
X88813390Y-85714285D01*
X88813390Y-85714285D02*
X88861009Y-85761904D01*
X88861009Y-85761904D02*
X88908628Y-85857142D01*
X88908628Y-85857142D02*
X88908628Y-86238094D01*
X88384819Y-84809523D02*
X88384819Y-84999999D01*
X88384819Y-84999999D02*
X88432438Y-85095237D01*
X88432438Y-85095237D02*
X88480057Y-85142856D01*
X88480057Y-85142856D02*
X88622914Y-85238094D01*
X88622914Y-85238094D02*
X88813390Y-85285713D01*
X88813390Y-85285713D02*
X89194342Y-85285713D01*
X89194342Y-85285713D02*
X89289580Y-85238094D01*
X89289580Y-85238094D02*
X89337200Y-85190475D01*
X89337200Y-85190475D02*
X89384819Y-85095237D01*
X89384819Y-85095237D02*
X89384819Y-84904761D01*
X89384819Y-84904761D02*
X89337200Y-84809523D01*
X89337200Y-84809523D02*
X89289580Y-84761904D01*
X89289580Y-84761904D02*
X89194342Y-84714285D01*
X89194342Y-84714285D02*
X88956247Y-84714285D01*
X88956247Y-84714285D02*
X88861009Y-84761904D01*
X88861009Y-84761904D02*
X88813390Y-84809523D01*
X88813390Y-84809523D02*
X88765771Y-84904761D01*
X88765771Y-84904761D02*
X88765771Y-85095237D01*
X88765771Y-85095237D02*
X88813390Y-85190475D01*
X88813390Y-85190475D02*
X88861009Y-85238094D01*
X88861009Y-85238094D02*
X88956247Y-85285713D01*
X86884819Y-85666666D02*
X86408628Y-85999999D01*
X86884819Y-86238094D02*
X85884819Y-86238094D01*
X85884819Y-86238094D02*
X85884819Y-85857142D01*
X85884819Y-85857142D02*
X85932438Y-85761904D01*
X85932438Y-85761904D02*
X85980057Y-85714285D01*
X85980057Y-85714285D02*
X86075295Y-85666666D01*
X86075295Y-85666666D02*
X86218152Y-85666666D01*
X86218152Y-85666666D02*
X86313390Y-85714285D01*
X86313390Y-85714285D02*
X86361009Y-85761904D01*
X86361009Y-85761904D02*
X86408628Y-85857142D01*
X86408628Y-85857142D02*
X86408628Y-86238094D01*
X85884819Y-85333332D02*
X85884819Y-84666666D01*
X85884819Y-84666666D02*
X86884819Y-85095237D01*
X155083333Y-127454819D02*
X154750000Y-126978628D01*
X154511905Y-127454819D02*
X154511905Y-126454819D01*
X154511905Y-126454819D02*
X154892857Y-126454819D01*
X154892857Y-126454819D02*
X154988095Y-126502438D01*
X154988095Y-126502438D02*
X155035714Y-126550057D01*
X155035714Y-126550057D02*
X155083333Y-126645295D01*
X155083333Y-126645295D02*
X155083333Y-126788152D01*
X155083333Y-126788152D02*
X155035714Y-126883390D01*
X155035714Y-126883390D02*
X154988095Y-126931009D01*
X154988095Y-126931009D02*
X154892857Y-126978628D01*
X154892857Y-126978628D02*
X154511905Y-126978628D01*
X155559524Y-127454819D02*
X155750000Y-127454819D01*
X155750000Y-127454819D02*
X155845238Y-127407200D01*
X155845238Y-127407200D02*
X155892857Y-127359580D01*
X155892857Y-127359580D02*
X155988095Y-127216723D01*
X155988095Y-127216723D02*
X156035714Y-127026247D01*
X156035714Y-127026247D02*
X156035714Y-126645295D01*
X156035714Y-126645295D02*
X155988095Y-126550057D01*
X155988095Y-126550057D02*
X155940476Y-126502438D01*
X155940476Y-126502438D02*
X155845238Y-126454819D01*
X155845238Y-126454819D02*
X155654762Y-126454819D01*
X155654762Y-126454819D02*
X155559524Y-126502438D01*
X155559524Y-126502438D02*
X155511905Y-126550057D01*
X155511905Y-126550057D02*
X155464286Y-126645295D01*
X155464286Y-126645295D02*
X155464286Y-126883390D01*
X155464286Y-126883390D02*
X155511905Y-126978628D01*
X155511905Y-126978628D02*
X155559524Y-127026247D01*
X155559524Y-127026247D02*
X155654762Y-127073866D01*
X155654762Y-127073866D02*
X155845238Y-127073866D01*
X155845238Y-127073866D02*
X155940476Y-127026247D01*
X155940476Y-127026247D02*
X155988095Y-126978628D01*
X155988095Y-126978628D02*
X156035714Y-126883390D01*
X174166667Y-118057200D02*
X174309524Y-118104819D01*
X174309524Y-118104819D02*
X174547619Y-118104819D01*
X174547619Y-118104819D02*
X174642857Y-118057200D01*
X174642857Y-118057200D02*
X174690476Y-118009580D01*
X174690476Y-118009580D02*
X174738095Y-117914342D01*
X174738095Y-117914342D02*
X174738095Y-117819104D01*
X174738095Y-117819104D02*
X174690476Y-117723866D01*
X174690476Y-117723866D02*
X174642857Y-117676247D01*
X174642857Y-117676247D02*
X174547619Y-117628628D01*
X174547619Y-117628628D02*
X174357143Y-117581009D01*
X174357143Y-117581009D02*
X174261905Y-117533390D01*
X174261905Y-117533390D02*
X174214286Y-117485771D01*
X174214286Y-117485771D02*
X174166667Y-117390533D01*
X174166667Y-117390533D02*
X174166667Y-117295295D01*
X174166667Y-117295295D02*
X174214286Y-117200057D01*
X174214286Y-117200057D02*
X174261905Y-117152438D01*
X174261905Y-117152438D02*
X174357143Y-117104819D01*
X174357143Y-117104819D02*
X174595238Y-117104819D01*
X174595238Y-117104819D02*
X174738095Y-117152438D01*
X175071429Y-117104819D02*
X175309524Y-118104819D01*
X175309524Y-118104819D02*
X175500000Y-117390533D01*
X175500000Y-117390533D02*
X175690476Y-118104819D01*
X175690476Y-118104819D02*
X175928572Y-117104819D01*
X176833333Y-118104819D02*
X176261905Y-118104819D01*
X176547619Y-118104819D02*
X176547619Y-117104819D01*
X176547619Y-117104819D02*
X176452381Y-117247676D01*
X176452381Y-117247676D02*
X176357143Y-117342914D01*
X176357143Y-117342914D02*
X176261905Y-117390533D01*
X103833333Y-82954819D02*
X103500000Y-82478628D01*
X103261905Y-82954819D02*
X103261905Y-81954819D01*
X103261905Y-81954819D02*
X103642857Y-81954819D01*
X103642857Y-81954819D02*
X103738095Y-82002438D01*
X103738095Y-82002438D02*
X103785714Y-82050057D01*
X103785714Y-82050057D02*
X103833333Y-82145295D01*
X103833333Y-82145295D02*
X103833333Y-82288152D01*
X103833333Y-82288152D02*
X103785714Y-82383390D01*
X103785714Y-82383390D02*
X103738095Y-82431009D01*
X103738095Y-82431009D02*
X103642857Y-82478628D01*
X103642857Y-82478628D02*
X103261905Y-82478628D01*
X104785714Y-82954819D02*
X104214286Y-82954819D01*
X104500000Y-82954819D02*
X104500000Y-81954819D01*
X104500000Y-81954819D02*
X104404762Y-82097676D01*
X104404762Y-82097676D02*
X104309524Y-82192914D01*
X104309524Y-82192914D02*
X104214286Y-82240533D01*
X155333333Y-121359580D02*
X155285714Y-121407200D01*
X155285714Y-121407200D02*
X155142857Y-121454819D01*
X155142857Y-121454819D02*
X155047619Y-121454819D01*
X155047619Y-121454819D02*
X154904762Y-121407200D01*
X154904762Y-121407200D02*
X154809524Y-121311961D01*
X154809524Y-121311961D02*
X154761905Y-121216723D01*
X154761905Y-121216723D02*
X154714286Y-121026247D01*
X154714286Y-121026247D02*
X154714286Y-120883390D01*
X154714286Y-120883390D02*
X154761905Y-120692914D01*
X154761905Y-120692914D02*
X154809524Y-120597676D01*
X154809524Y-120597676D02*
X154904762Y-120502438D01*
X154904762Y-120502438D02*
X155047619Y-120454819D01*
X155047619Y-120454819D02*
X155142857Y-120454819D01*
X155142857Y-120454819D02*
X155285714Y-120502438D01*
X155285714Y-120502438D02*
X155333333Y-120550057D01*
X156190476Y-120454819D02*
X156000000Y-120454819D01*
X156000000Y-120454819D02*
X155904762Y-120502438D01*
X155904762Y-120502438D02*
X155857143Y-120550057D01*
X155857143Y-120550057D02*
X155761905Y-120692914D01*
X155761905Y-120692914D02*
X155714286Y-120883390D01*
X155714286Y-120883390D02*
X155714286Y-121264342D01*
X155714286Y-121264342D02*
X155761905Y-121359580D01*
X155761905Y-121359580D02*
X155809524Y-121407200D01*
X155809524Y-121407200D02*
X155904762Y-121454819D01*
X155904762Y-121454819D02*
X156095238Y-121454819D01*
X156095238Y-121454819D02*
X156190476Y-121407200D01*
X156190476Y-121407200D02*
X156238095Y-121359580D01*
X156238095Y-121359580D02*
X156285714Y-121264342D01*
X156285714Y-121264342D02*
X156285714Y-121026247D01*
X156285714Y-121026247D02*
X156238095Y-120931009D01*
X156238095Y-120931009D02*
X156190476Y-120883390D01*
X156190476Y-120883390D02*
X156095238Y-120835771D01*
X156095238Y-120835771D02*
X155904762Y-120835771D01*
X155904762Y-120835771D02*
X155809524Y-120883390D01*
X155809524Y-120883390D02*
X155761905Y-120931009D01*
X155761905Y-120931009D02*
X155714286Y-121026247D01*
X200759580Y-102166666D02*
X200807200Y-102214285D01*
X200807200Y-102214285D02*
X200854819Y-102357142D01*
X200854819Y-102357142D02*
X200854819Y-102452380D01*
X200854819Y-102452380D02*
X200807200Y-102595237D01*
X200807200Y-102595237D02*
X200711961Y-102690475D01*
X200711961Y-102690475D02*
X200616723Y-102738094D01*
X200616723Y-102738094D02*
X200426247Y-102785713D01*
X200426247Y-102785713D02*
X200283390Y-102785713D01*
X200283390Y-102785713D02*
X200092914Y-102738094D01*
X200092914Y-102738094D02*
X199997676Y-102690475D01*
X199997676Y-102690475D02*
X199902438Y-102595237D01*
X199902438Y-102595237D02*
X199854819Y-102452380D01*
X199854819Y-102452380D02*
X199854819Y-102357142D01*
X199854819Y-102357142D02*
X199902438Y-102214285D01*
X199902438Y-102214285D02*
X199950057Y-102166666D01*
X200854819Y-101214285D02*
X200854819Y-101785713D01*
X200854819Y-101499999D02*
X199854819Y-101499999D01*
X199854819Y-101499999D02*
X199997676Y-101595237D01*
X199997676Y-101595237D02*
X200092914Y-101690475D01*
X200092914Y-101690475D02*
X200140533Y-101785713D01*
X53207200Y-116033332D02*
X53254819Y-115890475D01*
X53254819Y-115890475D02*
X53254819Y-115652380D01*
X53254819Y-115652380D02*
X53207200Y-115557142D01*
X53207200Y-115557142D02*
X53159580Y-115509523D01*
X53159580Y-115509523D02*
X53064342Y-115461904D01*
X53064342Y-115461904D02*
X52969104Y-115461904D01*
X52969104Y-115461904D02*
X52873866Y-115509523D01*
X52873866Y-115509523D02*
X52826247Y-115557142D01*
X52826247Y-115557142D02*
X52778628Y-115652380D01*
X52778628Y-115652380D02*
X52731009Y-115842856D01*
X52731009Y-115842856D02*
X52683390Y-115938094D01*
X52683390Y-115938094D02*
X52635771Y-115985713D01*
X52635771Y-115985713D02*
X52540533Y-116033332D01*
X52540533Y-116033332D02*
X52445295Y-116033332D01*
X52445295Y-116033332D02*
X52350057Y-115985713D01*
X52350057Y-115985713D02*
X52302438Y-115938094D01*
X52302438Y-115938094D02*
X52254819Y-115842856D01*
X52254819Y-115842856D02*
X52254819Y-115604761D01*
X52254819Y-115604761D02*
X52302438Y-115461904D01*
X52254819Y-115128570D02*
X53254819Y-114890475D01*
X53254819Y-114890475D02*
X52540533Y-114699999D01*
X52540533Y-114699999D02*
X53254819Y-114509523D01*
X53254819Y-114509523D02*
X52254819Y-114271428D01*
X52350057Y-113938094D02*
X52302438Y-113890475D01*
X52302438Y-113890475D02*
X52254819Y-113795237D01*
X52254819Y-113795237D02*
X52254819Y-113557142D01*
X52254819Y-113557142D02*
X52302438Y-113461904D01*
X52302438Y-113461904D02*
X52350057Y-113414285D01*
X52350057Y-113414285D02*
X52445295Y-113366666D01*
X52445295Y-113366666D02*
X52540533Y-113366666D01*
X52540533Y-113366666D02*
X52683390Y-113414285D01*
X52683390Y-113414285D02*
X53254819Y-113985713D01*
X53254819Y-113985713D02*
X53254819Y-113366666D01*
X149054819Y-95733333D02*
X149769104Y-95733333D01*
X149769104Y-95733333D02*
X149911961Y-95780952D01*
X149911961Y-95780952D02*
X150007200Y-95876190D01*
X150007200Y-95876190D02*
X150054819Y-96019047D01*
X150054819Y-96019047D02*
X150054819Y-96114285D01*
X150054819Y-95257142D02*
X149054819Y-95257142D01*
X149054819Y-95257142D02*
X149054819Y-94876190D01*
X149054819Y-94876190D02*
X149102438Y-94780952D01*
X149102438Y-94780952D02*
X149150057Y-94733333D01*
X149150057Y-94733333D02*
X149245295Y-94685714D01*
X149245295Y-94685714D02*
X149388152Y-94685714D01*
X149388152Y-94685714D02*
X149483390Y-94733333D01*
X149483390Y-94733333D02*
X149531009Y-94780952D01*
X149531009Y-94780952D02*
X149578628Y-94876190D01*
X149578628Y-94876190D02*
X149578628Y-95257142D01*
X149150057Y-94304761D02*
X149102438Y-94257142D01*
X149102438Y-94257142D02*
X149054819Y-94161904D01*
X149054819Y-94161904D02*
X149054819Y-93923809D01*
X149054819Y-93923809D02*
X149102438Y-93828571D01*
X149102438Y-93828571D02*
X149150057Y-93780952D01*
X149150057Y-93780952D02*
X149245295Y-93733333D01*
X149245295Y-93733333D02*
X149340533Y-93733333D01*
X149340533Y-93733333D02*
X149483390Y-93780952D01*
X149483390Y-93780952D02*
X150054819Y-94352380D01*
X150054819Y-94352380D02*
X150054819Y-93733333D01*
X147254819Y-97833332D02*
X147254819Y-97214285D01*
X147254819Y-97214285D02*
X147635771Y-97547618D01*
X147635771Y-97547618D02*
X147635771Y-97404761D01*
X147635771Y-97404761D02*
X147683390Y-97309523D01*
X147683390Y-97309523D02*
X147731009Y-97261904D01*
X147731009Y-97261904D02*
X147826247Y-97214285D01*
X147826247Y-97214285D02*
X148064342Y-97214285D01*
X148064342Y-97214285D02*
X148159580Y-97261904D01*
X148159580Y-97261904D02*
X148207200Y-97309523D01*
X148207200Y-97309523D02*
X148254819Y-97404761D01*
X148254819Y-97404761D02*
X148254819Y-97690475D01*
X148254819Y-97690475D02*
X148207200Y-97785713D01*
X148207200Y-97785713D02*
X148159580Y-97833332D01*
X148254819Y-92014285D02*
X148254819Y-92585713D01*
X148254819Y-92299999D02*
X147254819Y-92299999D01*
X147254819Y-92299999D02*
X147397676Y-92395237D01*
X147397676Y-92395237D02*
X147492914Y-92490475D01*
X147492914Y-92490475D02*
X147540533Y-92585713D01*
X196273501Y-122160994D02*
X196576754Y-122911571D01*
X196576754Y-122911571D02*
X196656583Y-122982036D01*
X196656583Y-122982036D02*
X196718573Y-123008349D01*
X196718573Y-123008349D02*
X196824714Y-123016824D01*
X196824714Y-123016824D02*
X197001321Y-122945471D01*
X197001321Y-122945471D02*
X197071786Y-122865642D01*
X197071786Y-122865642D02*
X197098099Y-122803652D01*
X197098099Y-122803652D02*
X197106574Y-122697511D01*
X197106574Y-122697511D02*
X196803321Y-121946933D01*
X197236362Y-121874691D02*
X197262675Y-121812701D01*
X197262675Y-121812701D02*
X197333140Y-121732872D01*
X197333140Y-121732872D02*
X197553898Y-121643680D01*
X197553898Y-121643680D02*
X197660040Y-121652155D01*
X197660040Y-121652155D02*
X197722030Y-121678468D01*
X197722030Y-121678468D02*
X197801858Y-121748933D01*
X197801858Y-121748933D02*
X197837535Y-121837236D01*
X197837535Y-121837236D02*
X197846899Y-121987530D01*
X197846899Y-121987530D02*
X197531140Y-122731410D01*
X197531140Y-122731410D02*
X198105111Y-122499510D01*
X166819333Y-104241580D02*
X166771714Y-104289200D01*
X166771714Y-104289200D02*
X166628857Y-104336819D01*
X166628857Y-104336819D02*
X166533619Y-104336819D01*
X166533619Y-104336819D02*
X166390762Y-104289200D01*
X166390762Y-104289200D02*
X166295524Y-104193961D01*
X166295524Y-104193961D02*
X166247905Y-104098723D01*
X166247905Y-104098723D02*
X166200286Y-103908247D01*
X166200286Y-103908247D02*
X166200286Y-103765390D01*
X166200286Y-103765390D02*
X166247905Y-103574914D01*
X166247905Y-103574914D02*
X166295524Y-103479676D01*
X166295524Y-103479676D02*
X166390762Y-103384438D01*
X166390762Y-103384438D02*
X166533619Y-103336819D01*
X166533619Y-103336819D02*
X166628857Y-103336819D01*
X166628857Y-103336819D02*
X166771714Y-103384438D01*
X166771714Y-103384438D02*
X166819333Y-103432057D01*
X167676476Y-103670152D02*
X167676476Y-104336819D01*
X167438381Y-103289200D02*
X167200286Y-104003485D01*
X167200286Y-104003485D02*
X167819333Y-104003485D01*
X162757143Y-100824819D02*
X162852381Y-100824819D01*
X162852381Y-100824819D02*
X162947619Y-100872438D01*
X162947619Y-100872438D02*
X162995238Y-100920057D01*
X162995238Y-100920057D02*
X163042857Y-101015295D01*
X163042857Y-101015295D02*
X163090476Y-101205771D01*
X163090476Y-101205771D02*
X163090476Y-101443866D01*
X163090476Y-101443866D02*
X163042857Y-101634342D01*
X163042857Y-101634342D02*
X162995238Y-101729580D01*
X162995238Y-101729580D02*
X162947619Y-101777200D01*
X162947619Y-101777200D02*
X162852381Y-101824819D01*
X162852381Y-101824819D02*
X162757143Y-101824819D01*
X162757143Y-101824819D02*
X162661905Y-101777200D01*
X162661905Y-101777200D02*
X162614286Y-101729580D01*
X162614286Y-101729580D02*
X162566667Y-101634342D01*
X162566667Y-101634342D02*
X162519048Y-101443866D01*
X162519048Y-101443866D02*
X162519048Y-101205771D01*
X162519048Y-101205771D02*
X162566667Y-101015295D01*
X162566667Y-101015295D02*
X162614286Y-100920057D01*
X162614286Y-100920057D02*
X162661905Y-100872438D01*
X162661905Y-100872438D02*
X162757143Y-100824819D01*
X163519048Y-101729580D02*
X163566667Y-101777200D01*
X163566667Y-101777200D02*
X163519048Y-101824819D01*
X163519048Y-101824819D02*
X163471429Y-101777200D01*
X163471429Y-101777200D02*
X163519048Y-101729580D01*
X163519048Y-101729580D02*
X163519048Y-101824819D01*
X164519047Y-101824819D02*
X163947619Y-101824819D01*
X164233333Y-101824819D02*
X164233333Y-100824819D01*
X164233333Y-100824819D02*
X164138095Y-100967676D01*
X164138095Y-100967676D02*
X164042857Y-101062914D01*
X164042857Y-101062914D02*
X163947619Y-101110533D01*
X165376190Y-101158152D02*
X165376190Y-101824819D01*
X164947619Y-101158152D02*
X164947619Y-101681961D01*
X164947619Y-101681961D02*
X164995238Y-101777200D01*
X164995238Y-101777200D02*
X165090476Y-101824819D01*
X165090476Y-101824819D02*
X165233333Y-101824819D01*
X165233333Y-101824819D02*
X165328571Y-101777200D01*
X165328571Y-101777200D02*
X165376190Y-101729580D01*
X166185714Y-101301009D02*
X165852381Y-101301009D01*
X165852381Y-101824819D02*
X165852381Y-100824819D01*
X165852381Y-100824819D02*
X166328571Y-100824819D01*
X70008333Y-107289580D02*
X69960714Y-107337200D01*
X69960714Y-107337200D02*
X69817857Y-107384819D01*
X69817857Y-107384819D02*
X69722619Y-107384819D01*
X69722619Y-107384819D02*
X69579762Y-107337200D01*
X69579762Y-107337200D02*
X69484524Y-107241961D01*
X69484524Y-107241961D02*
X69436905Y-107146723D01*
X69436905Y-107146723D02*
X69389286Y-106956247D01*
X69389286Y-106956247D02*
X69389286Y-106813390D01*
X69389286Y-106813390D02*
X69436905Y-106622914D01*
X69436905Y-106622914D02*
X69484524Y-106527676D01*
X69484524Y-106527676D02*
X69579762Y-106432438D01*
X69579762Y-106432438D02*
X69722619Y-106384819D01*
X69722619Y-106384819D02*
X69817857Y-106384819D01*
X69817857Y-106384819D02*
X69960714Y-106432438D01*
X69960714Y-106432438D02*
X70008333Y-106480057D01*
X70913095Y-106384819D02*
X70436905Y-106384819D01*
X70436905Y-106384819D02*
X70389286Y-106861009D01*
X70389286Y-106861009D02*
X70436905Y-106813390D01*
X70436905Y-106813390D02*
X70532143Y-106765771D01*
X70532143Y-106765771D02*
X70770238Y-106765771D01*
X70770238Y-106765771D02*
X70865476Y-106813390D01*
X70865476Y-106813390D02*
X70913095Y-106861009D01*
X70913095Y-106861009D02*
X70960714Y-106956247D01*
X70960714Y-106956247D02*
X70960714Y-107194342D01*
X70960714Y-107194342D02*
X70913095Y-107289580D01*
X70913095Y-107289580D02*
X70865476Y-107337200D01*
X70865476Y-107337200D02*
X70770238Y-107384819D01*
X70770238Y-107384819D02*
X70532143Y-107384819D01*
X70532143Y-107384819D02*
X70436905Y-107337200D01*
X70436905Y-107337200D02*
X70389286Y-107289580D01*
X70008333Y-104189580D02*
X69960714Y-104237200D01*
X69960714Y-104237200D02*
X69817857Y-104284819D01*
X69817857Y-104284819D02*
X69722619Y-104284819D01*
X69722619Y-104284819D02*
X69579762Y-104237200D01*
X69579762Y-104237200D02*
X69484524Y-104141961D01*
X69484524Y-104141961D02*
X69436905Y-104046723D01*
X69436905Y-104046723D02*
X69389286Y-103856247D01*
X69389286Y-103856247D02*
X69389286Y-103713390D01*
X69389286Y-103713390D02*
X69436905Y-103522914D01*
X69436905Y-103522914D02*
X69484524Y-103427676D01*
X69484524Y-103427676D02*
X69579762Y-103332438D01*
X69579762Y-103332438D02*
X69722619Y-103284819D01*
X69722619Y-103284819D02*
X69817857Y-103284819D01*
X69817857Y-103284819D02*
X69960714Y-103332438D01*
X69960714Y-103332438D02*
X70008333Y-103380057D01*
X70341667Y-103284819D02*
X71008333Y-103284819D01*
X71008333Y-103284819D02*
X70579762Y-104284819D01*
X172533333Y-122459580D02*
X172485714Y-122507200D01*
X172485714Y-122507200D02*
X172342857Y-122554819D01*
X172342857Y-122554819D02*
X172247619Y-122554819D01*
X172247619Y-122554819D02*
X172104762Y-122507200D01*
X172104762Y-122507200D02*
X172009524Y-122411961D01*
X172009524Y-122411961D02*
X171961905Y-122316723D01*
X171961905Y-122316723D02*
X171914286Y-122126247D01*
X171914286Y-122126247D02*
X171914286Y-121983390D01*
X171914286Y-121983390D02*
X171961905Y-121792914D01*
X171961905Y-121792914D02*
X172009524Y-121697676D01*
X172009524Y-121697676D02*
X172104762Y-121602438D01*
X172104762Y-121602438D02*
X172247619Y-121554819D01*
X172247619Y-121554819D02*
X172342857Y-121554819D01*
X172342857Y-121554819D02*
X172485714Y-121602438D01*
X172485714Y-121602438D02*
X172533333Y-121650057D01*
X173009524Y-122554819D02*
X173200000Y-122554819D01*
X173200000Y-122554819D02*
X173295238Y-122507200D01*
X173295238Y-122507200D02*
X173342857Y-122459580D01*
X173342857Y-122459580D02*
X173438095Y-122316723D01*
X173438095Y-122316723D02*
X173485714Y-122126247D01*
X173485714Y-122126247D02*
X173485714Y-121745295D01*
X173485714Y-121745295D02*
X173438095Y-121650057D01*
X173438095Y-121650057D02*
X173390476Y-121602438D01*
X173390476Y-121602438D02*
X173295238Y-121554819D01*
X173295238Y-121554819D02*
X173104762Y-121554819D01*
X173104762Y-121554819D02*
X173009524Y-121602438D01*
X173009524Y-121602438D02*
X172961905Y-121650057D01*
X172961905Y-121650057D02*
X172914286Y-121745295D01*
X172914286Y-121745295D02*
X172914286Y-121983390D01*
X172914286Y-121983390D02*
X172961905Y-122078628D01*
X172961905Y-122078628D02*
X173009524Y-122126247D01*
X173009524Y-122126247D02*
X173104762Y-122173866D01*
X173104762Y-122173866D02*
X173295238Y-122173866D01*
X173295238Y-122173866D02*
X173390476Y-122126247D01*
X173390476Y-122126247D02*
X173438095Y-122078628D01*
X173438095Y-122078628D02*
X173485714Y-121983390D01*
X141837142Y-126359580D02*
X141789523Y-126407200D01*
X141789523Y-126407200D02*
X141646666Y-126454819D01*
X141646666Y-126454819D02*
X141551428Y-126454819D01*
X141551428Y-126454819D02*
X141408571Y-126407200D01*
X141408571Y-126407200D02*
X141313333Y-126311961D01*
X141313333Y-126311961D02*
X141265714Y-126216723D01*
X141265714Y-126216723D02*
X141218095Y-126026247D01*
X141218095Y-126026247D02*
X141218095Y-125883390D01*
X141218095Y-125883390D02*
X141265714Y-125692914D01*
X141265714Y-125692914D02*
X141313333Y-125597676D01*
X141313333Y-125597676D02*
X141408571Y-125502438D01*
X141408571Y-125502438D02*
X141551428Y-125454819D01*
X141551428Y-125454819D02*
X141646666Y-125454819D01*
X141646666Y-125454819D02*
X141789523Y-125502438D01*
X141789523Y-125502438D02*
X141837142Y-125550057D01*
X142789523Y-126454819D02*
X142218095Y-126454819D01*
X142503809Y-126454819D02*
X142503809Y-125454819D01*
X142503809Y-125454819D02*
X142408571Y-125597676D01*
X142408571Y-125597676D02*
X142313333Y-125692914D01*
X142313333Y-125692914D02*
X142218095Y-125740533D01*
X143408571Y-125454819D02*
X143503809Y-125454819D01*
X143503809Y-125454819D02*
X143599047Y-125502438D01*
X143599047Y-125502438D02*
X143646666Y-125550057D01*
X143646666Y-125550057D02*
X143694285Y-125645295D01*
X143694285Y-125645295D02*
X143741904Y-125835771D01*
X143741904Y-125835771D02*
X143741904Y-126073866D01*
X143741904Y-126073866D02*
X143694285Y-126264342D01*
X143694285Y-126264342D02*
X143646666Y-126359580D01*
X143646666Y-126359580D02*
X143599047Y-126407200D01*
X143599047Y-126407200D02*
X143503809Y-126454819D01*
X143503809Y-126454819D02*
X143408571Y-126454819D01*
X143408571Y-126454819D02*
X143313333Y-126407200D01*
X143313333Y-126407200D02*
X143265714Y-126359580D01*
X143265714Y-126359580D02*
X143218095Y-126264342D01*
X143218095Y-126264342D02*
X143170476Y-126073866D01*
X143170476Y-126073866D02*
X143170476Y-125835771D01*
X143170476Y-125835771D02*
X143218095Y-125645295D01*
X143218095Y-125645295D02*
X143265714Y-125550057D01*
X143265714Y-125550057D02*
X143313333Y-125502438D01*
X143313333Y-125502438D02*
X143408571Y-125454819D01*
X141837142Y-129049580D02*
X141789523Y-129097200D01*
X141789523Y-129097200D02*
X141646666Y-129144819D01*
X141646666Y-129144819D02*
X141551428Y-129144819D01*
X141551428Y-129144819D02*
X141408571Y-129097200D01*
X141408571Y-129097200D02*
X141313333Y-129001961D01*
X141313333Y-129001961D02*
X141265714Y-128906723D01*
X141265714Y-128906723D02*
X141218095Y-128716247D01*
X141218095Y-128716247D02*
X141218095Y-128573390D01*
X141218095Y-128573390D02*
X141265714Y-128382914D01*
X141265714Y-128382914D02*
X141313333Y-128287676D01*
X141313333Y-128287676D02*
X141408571Y-128192438D01*
X141408571Y-128192438D02*
X141551428Y-128144819D01*
X141551428Y-128144819D02*
X141646666Y-128144819D01*
X141646666Y-128144819D02*
X141789523Y-128192438D01*
X141789523Y-128192438D02*
X141837142Y-128240057D01*
X142789523Y-129144819D02*
X142218095Y-129144819D01*
X142503809Y-129144819D02*
X142503809Y-128144819D01*
X142503809Y-128144819D02*
X142408571Y-128287676D01*
X142408571Y-128287676D02*
X142313333Y-128382914D01*
X142313333Y-128382914D02*
X142218095Y-128430533D01*
X143741904Y-129144819D02*
X143170476Y-129144819D01*
X143456190Y-129144819D02*
X143456190Y-128144819D01*
X143456190Y-128144819D02*
X143360952Y-128287676D01*
X143360952Y-128287676D02*
X143265714Y-128382914D01*
X143265714Y-128382914D02*
X143170476Y-128430533D01*
X140261905Y-140454819D02*
X140261905Y-139454819D01*
X140261905Y-139454819D02*
X140500000Y-139454819D01*
X140500000Y-139454819D02*
X140642857Y-139502438D01*
X140642857Y-139502438D02*
X140738095Y-139597676D01*
X140738095Y-139597676D02*
X140785714Y-139692914D01*
X140785714Y-139692914D02*
X140833333Y-139883390D01*
X140833333Y-139883390D02*
X140833333Y-140026247D01*
X140833333Y-140026247D02*
X140785714Y-140216723D01*
X140785714Y-140216723D02*
X140738095Y-140311961D01*
X140738095Y-140311961D02*
X140642857Y-140407200D01*
X140642857Y-140407200D02*
X140500000Y-140454819D01*
X140500000Y-140454819D02*
X140261905Y-140454819D01*
X141785714Y-140454819D02*
X141214286Y-140454819D01*
X141500000Y-140454819D02*
X141500000Y-139454819D01*
X141500000Y-139454819D02*
X141404762Y-139597676D01*
X141404762Y-139597676D02*
X141309524Y-139692914D01*
X141309524Y-139692914D02*
X141214286Y-139740533D01*
X116598095Y-139934819D02*
X116598095Y-140744342D01*
X116598095Y-140744342D02*
X116645714Y-140839580D01*
X116645714Y-140839580D02*
X116693333Y-140887200D01*
X116693333Y-140887200D02*
X116788571Y-140934819D01*
X116788571Y-140934819D02*
X116979047Y-140934819D01*
X116979047Y-140934819D02*
X117074285Y-140887200D01*
X117074285Y-140887200D02*
X117121904Y-140839580D01*
X117121904Y-140839580D02*
X117169523Y-140744342D01*
X117169523Y-140744342D02*
X117169523Y-139934819D01*
X118169523Y-140934819D02*
X117598095Y-140934819D01*
X117883809Y-140934819D02*
X117883809Y-139934819D01*
X117883809Y-139934819D02*
X117788571Y-140077676D01*
X117788571Y-140077676D02*
X117693333Y-140172914D01*
X117693333Y-140172914D02*
X117598095Y-140220533D01*
X69557142Y-98729580D02*
X69509523Y-98777200D01*
X69509523Y-98777200D02*
X69366666Y-98824819D01*
X69366666Y-98824819D02*
X69271428Y-98824819D01*
X69271428Y-98824819D02*
X69128571Y-98777200D01*
X69128571Y-98777200D02*
X69033333Y-98681961D01*
X69033333Y-98681961D02*
X68985714Y-98586723D01*
X68985714Y-98586723D02*
X68938095Y-98396247D01*
X68938095Y-98396247D02*
X68938095Y-98253390D01*
X68938095Y-98253390D02*
X68985714Y-98062914D01*
X68985714Y-98062914D02*
X69033333Y-97967676D01*
X69033333Y-97967676D02*
X69128571Y-97872438D01*
X69128571Y-97872438D02*
X69271428Y-97824819D01*
X69271428Y-97824819D02*
X69366666Y-97824819D01*
X69366666Y-97824819D02*
X69509523Y-97872438D01*
X69509523Y-97872438D02*
X69557142Y-97920057D01*
X70509523Y-98824819D02*
X69938095Y-98824819D01*
X70223809Y-98824819D02*
X70223809Y-97824819D01*
X70223809Y-97824819D02*
X70128571Y-97967676D01*
X70128571Y-97967676D02*
X70033333Y-98062914D01*
X70033333Y-98062914D02*
X69938095Y-98110533D01*
X70890476Y-97920057D02*
X70938095Y-97872438D01*
X70938095Y-97872438D02*
X71033333Y-97824819D01*
X71033333Y-97824819D02*
X71271428Y-97824819D01*
X71271428Y-97824819D02*
X71366666Y-97872438D01*
X71366666Y-97872438D02*
X71414285Y-97920057D01*
X71414285Y-97920057D02*
X71461904Y-98015295D01*
X71461904Y-98015295D02*
X71461904Y-98110533D01*
X71461904Y-98110533D02*
X71414285Y-98253390D01*
X71414285Y-98253390D02*
X70842857Y-98824819D01*
X70842857Y-98824819D02*
X71461904Y-98824819D01*
X171204819Y-87166666D02*
X170728628Y-87499999D01*
X171204819Y-87738094D02*
X170204819Y-87738094D01*
X170204819Y-87738094D02*
X170204819Y-87357142D01*
X170204819Y-87357142D02*
X170252438Y-87261904D01*
X170252438Y-87261904D02*
X170300057Y-87214285D01*
X170300057Y-87214285D02*
X170395295Y-87166666D01*
X170395295Y-87166666D02*
X170538152Y-87166666D01*
X170538152Y-87166666D02*
X170633390Y-87214285D01*
X170633390Y-87214285D02*
X170681009Y-87261904D01*
X170681009Y-87261904D02*
X170728628Y-87357142D01*
X170728628Y-87357142D02*
X170728628Y-87738094D01*
X170204819Y-86833332D02*
X170204819Y-86214285D01*
X170204819Y-86214285D02*
X170585771Y-86547618D01*
X170585771Y-86547618D02*
X170585771Y-86404761D01*
X170585771Y-86404761D02*
X170633390Y-86309523D01*
X170633390Y-86309523D02*
X170681009Y-86261904D01*
X170681009Y-86261904D02*
X170776247Y-86214285D01*
X170776247Y-86214285D02*
X171014342Y-86214285D01*
X171014342Y-86214285D02*
X171109580Y-86261904D01*
X171109580Y-86261904D02*
X171157200Y-86309523D01*
X171157200Y-86309523D02*
X171204819Y-86404761D01*
X171204819Y-86404761D02*
X171204819Y-86690475D01*
X171204819Y-86690475D02*
X171157200Y-86785713D01*
X171157200Y-86785713D02*
X171109580Y-86833332D01*
X84384819Y-85641666D02*
X83908628Y-85974999D01*
X84384819Y-86213094D02*
X83384819Y-86213094D01*
X83384819Y-86213094D02*
X83384819Y-85832142D01*
X83384819Y-85832142D02*
X83432438Y-85736904D01*
X83432438Y-85736904D02*
X83480057Y-85689285D01*
X83480057Y-85689285D02*
X83575295Y-85641666D01*
X83575295Y-85641666D02*
X83718152Y-85641666D01*
X83718152Y-85641666D02*
X83813390Y-85689285D01*
X83813390Y-85689285D02*
X83861009Y-85736904D01*
X83861009Y-85736904D02*
X83908628Y-85832142D01*
X83908628Y-85832142D02*
X83908628Y-86213094D01*
X83813390Y-85070237D02*
X83765771Y-85165475D01*
X83765771Y-85165475D02*
X83718152Y-85213094D01*
X83718152Y-85213094D02*
X83622914Y-85260713D01*
X83622914Y-85260713D02*
X83575295Y-85260713D01*
X83575295Y-85260713D02*
X83480057Y-85213094D01*
X83480057Y-85213094D02*
X83432438Y-85165475D01*
X83432438Y-85165475D02*
X83384819Y-85070237D01*
X83384819Y-85070237D02*
X83384819Y-84879761D01*
X83384819Y-84879761D02*
X83432438Y-84784523D01*
X83432438Y-84784523D02*
X83480057Y-84736904D01*
X83480057Y-84736904D02*
X83575295Y-84689285D01*
X83575295Y-84689285D02*
X83622914Y-84689285D01*
X83622914Y-84689285D02*
X83718152Y-84736904D01*
X83718152Y-84736904D02*
X83765771Y-84784523D01*
X83765771Y-84784523D02*
X83813390Y-84879761D01*
X83813390Y-84879761D02*
X83813390Y-85070237D01*
X83813390Y-85070237D02*
X83861009Y-85165475D01*
X83861009Y-85165475D02*
X83908628Y-85213094D01*
X83908628Y-85213094D02*
X84003866Y-85260713D01*
X84003866Y-85260713D02*
X84194342Y-85260713D01*
X84194342Y-85260713D02*
X84289580Y-85213094D01*
X84289580Y-85213094D02*
X84337200Y-85165475D01*
X84337200Y-85165475D02*
X84384819Y-85070237D01*
X84384819Y-85070237D02*
X84384819Y-84879761D01*
X84384819Y-84879761D02*
X84337200Y-84784523D01*
X84337200Y-84784523D02*
X84289580Y-84736904D01*
X84289580Y-84736904D02*
X84194342Y-84689285D01*
X84194342Y-84689285D02*
X84003866Y-84689285D01*
X84003866Y-84689285D02*
X83908628Y-84736904D01*
X83908628Y-84736904D02*
X83861009Y-84784523D01*
X83861009Y-84784523D02*
X83813390Y-84879761D01*
X169532142Y-99574819D02*
X169198809Y-99098628D01*
X168960714Y-99574819D02*
X168960714Y-98574819D01*
X168960714Y-98574819D02*
X169341666Y-98574819D01*
X169341666Y-98574819D02*
X169436904Y-98622438D01*
X169436904Y-98622438D02*
X169484523Y-98670057D01*
X169484523Y-98670057D02*
X169532142Y-98765295D01*
X169532142Y-98765295D02*
X169532142Y-98908152D01*
X169532142Y-98908152D02*
X169484523Y-99003390D01*
X169484523Y-99003390D02*
X169436904Y-99051009D01*
X169436904Y-99051009D02*
X169341666Y-99098628D01*
X169341666Y-99098628D02*
X168960714Y-99098628D01*
X170484523Y-99574819D02*
X169913095Y-99574819D01*
X170198809Y-99574819D02*
X170198809Y-98574819D01*
X170198809Y-98574819D02*
X170103571Y-98717676D01*
X170103571Y-98717676D02*
X170008333Y-98812914D01*
X170008333Y-98812914D02*
X169913095Y-98860533D01*
X171436904Y-99574819D02*
X170865476Y-99574819D01*
X171151190Y-99574819D02*
X171151190Y-98574819D01*
X171151190Y-98574819D02*
X171055952Y-98717676D01*
X171055952Y-98717676D02*
X170960714Y-98812914D01*
X170960714Y-98812914D02*
X170865476Y-98860533D01*
X98416033Y-86692857D02*
X98082700Y-87026190D01*
X98416033Y-87264285D02*
X97716033Y-87264285D01*
X97716033Y-87264285D02*
X97716033Y-86883333D01*
X97716033Y-86883333D02*
X97749366Y-86788095D01*
X97749366Y-86788095D02*
X97782700Y-86740476D01*
X97782700Y-86740476D02*
X97849366Y-86692857D01*
X97849366Y-86692857D02*
X97949366Y-86692857D01*
X97949366Y-86692857D02*
X98016033Y-86740476D01*
X98016033Y-86740476D02*
X98049366Y-86788095D01*
X98049366Y-86788095D02*
X98082700Y-86883333D01*
X98082700Y-86883333D02*
X98082700Y-87264285D01*
X98416033Y-85740476D02*
X98416033Y-86311904D01*
X98416033Y-86026190D02*
X97716033Y-86026190D01*
X97716033Y-86026190D02*
X97816033Y-86121428D01*
X97816033Y-86121428D02*
X97882700Y-86216666D01*
X97882700Y-86216666D02*
X97916033Y-86311904D01*
X97716033Y-84835714D02*
X97716033Y-85311904D01*
X97716033Y-85311904D02*
X98049366Y-85359523D01*
X98049366Y-85359523D02*
X98016033Y-85311904D01*
X98016033Y-85311904D02*
X97982700Y-85216666D01*
X97982700Y-85216666D02*
X97982700Y-84978571D01*
X97982700Y-84978571D02*
X98016033Y-84883333D01*
X98016033Y-84883333D02*
X98049366Y-84835714D01*
X98049366Y-84835714D02*
X98116033Y-84788095D01*
X98116033Y-84788095D02*
X98282700Y-84788095D01*
X98282700Y-84788095D02*
X98349366Y-84835714D01*
X98349366Y-84835714D02*
X98382700Y-84883333D01*
X98382700Y-84883333D02*
X98416033Y-84978571D01*
X98416033Y-84978571D02*
X98416033Y-85216666D01*
X98416033Y-85216666D02*
X98382700Y-85311904D01*
X98382700Y-85311904D02*
X98349366Y-85359523D01*
X101354819Y-86692857D02*
X100878628Y-87026190D01*
X101354819Y-87264285D02*
X100354819Y-87264285D01*
X100354819Y-87264285D02*
X100354819Y-86883333D01*
X100354819Y-86883333D02*
X100402438Y-86788095D01*
X100402438Y-86788095D02*
X100450057Y-86740476D01*
X100450057Y-86740476D02*
X100545295Y-86692857D01*
X100545295Y-86692857D02*
X100688152Y-86692857D01*
X100688152Y-86692857D02*
X100783390Y-86740476D01*
X100783390Y-86740476D02*
X100831009Y-86788095D01*
X100831009Y-86788095D02*
X100878628Y-86883333D01*
X100878628Y-86883333D02*
X100878628Y-87264285D01*
X101354819Y-85740476D02*
X101354819Y-86311904D01*
X101354819Y-86026190D02*
X100354819Y-86026190D01*
X100354819Y-86026190D02*
X100497676Y-86121428D01*
X100497676Y-86121428D02*
X100592914Y-86216666D01*
X100592914Y-86216666D02*
X100640533Y-86311904D01*
X100354819Y-84883333D02*
X100354819Y-85073809D01*
X100354819Y-85073809D02*
X100402438Y-85169047D01*
X100402438Y-85169047D02*
X100450057Y-85216666D01*
X100450057Y-85216666D02*
X100592914Y-85311904D01*
X100592914Y-85311904D02*
X100783390Y-85359523D01*
X100783390Y-85359523D02*
X101164342Y-85359523D01*
X101164342Y-85359523D02*
X101259580Y-85311904D01*
X101259580Y-85311904D02*
X101307200Y-85264285D01*
X101307200Y-85264285D02*
X101354819Y-85169047D01*
X101354819Y-85169047D02*
X101354819Y-84978571D01*
X101354819Y-84978571D02*
X101307200Y-84883333D01*
X101307200Y-84883333D02*
X101259580Y-84835714D01*
X101259580Y-84835714D02*
X101164342Y-84788095D01*
X101164342Y-84788095D02*
X100926247Y-84788095D01*
X100926247Y-84788095D02*
X100831009Y-84835714D01*
X100831009Y-84835714D02*
X100783390Y-84883333D01*
X100783390Y-84883333D02*
X100735771Y-84978571D01*
X100735771Y-84978571D02*
X100735771Y-85169047D01*
X100735771Y-85169047D02*
X100783390Y-85264285D01*
X100783390Y-85264285D02*
X100831009Y-85311904D01*
X100831009Y-85311904D02*
X100926247Y-85359523D01*
X173784819Y-87717857D02*
X173308628Y-88051190D01*
X173784819Y-88289285D02*
X172784819Y-88289285D01*
X172784819Y-88289285D02*
X172784819Y-87908333D01*
X172784819Y-87908333D02*
X172832438Y-87813095D01*
X172832438Y-87813095D02*
X172880057Y-87765476D01*
X172880057Y-87765476D02*
X172975295Y-87717857D01*
X172975295Y-87717857D02*
X173118152Y-87717857D01*
X173118152Y-87717857D02*
X173213390Y-87765476D01*
X173213390Y-87765476D02*
X173261009Y-87813095D01*
X173261009Y-87813095D02*
X173308628Y-87908333D01*
X173308628Y-87908333D02*
X173308628Y-88289285D01*
X173784819Y-86765476D02*
X173784819Y-87336904D01*
X173784819Y-87051190D02*
X172784819Y-87051190D01*
X172784819Y-87051190D02*
X172927676Y-87146428D01*
X172927676Y-87146428D02*
X173022914Y-87241666D01*
X173022914Y-87241666D02*
X173070533Y-87336904D01*
X172784819Y-86432142D02*
X172784819Y-85765476D01*
X172784819Y-85765476D02*
X173784819Y-86194047D01*
X178784819Y-87717857D02*
X178308628Y-88051190D01*
X178784819Y-88289285D02*
X177784819Y-88289285D01*
X177784819Y-88289285D02*
X177784819Y-87908333D01*
X177784819Y-87908333D02*
X177832438Y-87813095D01*
X177832438Y-87813095D02*
X177880057Y-87765476D01*
X177880057Y-87765476D02*
X177975295Y-87717857D01*
X177975295Y-87717857D02*
X178118152Y-87717857D01*
X178118152Y-87717857D02*
X178213390Y-87765476D01*
X178213390Y-87765476D02*
X178261009Y-87813095D01*
X178261009Y-87813095D02*
X178308628Y-87908333D01*
X178308628Y-87908333D02*
X178308628Y-88289285D01*
X178784819Y-86765476D02*
X178784819Y-87336904D01*
X178784819Y-87051190D02*
X177784819Y-87051190D01*
X177784819Y-87051190D02*
X177927676Y-87146428D01*
X177927676Y-87146428D02*
X178022914Y-87241666D01*
X178022914Y-87241666D02*
X178070533Y-87336904D01*
X178213390Y-86194047D02*
X178165771Y-86289285D01*
X178165771Y-86289285D02*
X178118152Y-86336904D01*
X178118152Y-86336904D02*
X178022914Y-86384523D01*
X178022914Y-86384523D02*
X177975295Y-86384523D01*
X177975295Y-86384523D02*
X177880057Y-86336904D01*
X177880057Y-86336904D02*
X177832438Y-86289285D01*
X177832438Y-86289285D02*
X177784819Y-86194047D01*
X177784819Y-86194047D02*
X177784819Y-86003571D01*
X177784819Y-86003571D02*
X177832438Y-85908333D01*
X177832438Y-85908333D02*
X177880057Y-85860714D01*
X177880057Y-85860714D02*
X177975295Y-85813095D01*
X177975295Y-85813095D02*
X178022914Y-85813095D01*
X178022914Y-85813095D02*
X178118152Y-85860714D01*
X178118152Y-85860714D02*
X178165771Y-85908333D01*
X178165771Y-85908333D02*
X178213390Y-86003571D01*
X178213390Y-86003571D02*
X178213390Y-86194047D01*
X178213390Y-86194047D02*
X178261009Y-86289285D01*
X178261009Y-86289285D02*
X178308628Y-86336904D01*
X178308628Y-86336904D02*
X178403866Y-86384523D01*
X178403866Y-86384523D02*
X178594342Y-86384523D01*
X178594342Y-86384523D02*
X178689580Y-86336904D01*
X178689580Y-86336904D02*
X178737200Y-86289285D01*
X178737200Y-86289285D02*
X178784819Y-86194047D01*
X178784819Y-86194047D02*
X178784819Y-86003571D01*
X178784819Y-86003571D02*
X178737200Y-85908333D01*
X178737200Y-85908333D02*
X178689580Y-85860714D01*
X178689580Y-85860714D02*
X178594342Y-85813095D01*
X178594342Y-85813095D02*
X178403866Y-85813095D01*
X178403866Y-85813095D02*
X178308628Y-85860714D01*
X178308628Y-85860714D02*
X178261009Y-85908333D01*
X178261009Y-85908333D02*
X178213390Y-86003571D01*
X176284819Y-87717857D02*
X175808628Y-88051190D01*
X176284819Y-88289285D02*
X175284819Y-88289285D01*
X175284819Y-88289285D02*
X175284819Y-87908333D01*
X175284819Y-87908333D02*
X175332438Y-87813095D01*
X175332438Y-87813095D02*
X175380057Y-87765476D01*
X175380057Y-87765476D02*
X175475295Y-87717857D01*
X175475295Y-87717857D02*
X175618152Y-87717857D01*
X175618152Y-87717857D02*
X175713390Y-87765476D01*
X175713390Y-87765476D02*
X175761009Y-87813095D01*
X175761009Y-87813095D02*
X175808628Y-87908333D01*
X175808628Y-87908333D02*
X175808628Y-88289285D01*
X175380057Y-87336904D02*
X175332438Y-87289285D01*
X175332438Y-87289285D02*
X175284819Y-87194047D01*
X175284819Y-87194047D02*
X175284819Y-86955952D01*
X175284819Y-86955952D02*
X175332438Y-86860714D01*
X175332438Y-86860714D02*
X175380057Y-86813095D01*
X175380057Y-86813095D02*
X175475295Y-86765476D01*
X175475295Y-86765476D02*
X175570533Y-86765476D01*
X175570533Y-86765476D02*
X175713390Y-86813095D01*
X175713390Y-86813095D02*
X176284819Y-87384523D01*
X176284819Y-87384523D02*
X176284819Y-86765476D01*
X175284819Y-86146428D02*
X175284819Y-86051190D01*
X175284819Y-86051190D02*
X175332438Y-85955952D01*
X175332438Y-85955952D02*
X175380057Y-85908333D01*
X175380057Y-85908333D02*
X175475295Y-85860714D01*
X175475295Y-85860714D02*
X175665771Y-85813095D01*
X175665771Y-85813095D02*
X175903866Y-85813095D01*
X175903866Y-85813095D02*
X176094342Y-85860714D01*
X176094342Y-85860714D02*
X176189580Y-85908333D01*
X176189580Y-85908333D02*
X176237200Y-85955952D01*
X176237200Y-85955952D02*
X176284819Y-86051190D01*
X176284819Y-86051190D02*
X176284819Y-86146428D01*
X176284819Y-86146428D02*
X176237200Y-86241666D01*
X176237200Y-86241666D02*
X176189580Y-86289285D01*
X176189580Y-86289285D02*
X176094342Y-86336904D01*
X176094342Y-86336904D02*
X175903866Y-86384523D01*
X175903866Y-86384523D02*
X175665771Y-86384523D01*
X175665771Y-86384523D02*
X175475295Y-86336904D01*
X175475295Y-86336904D02*
X175380057Y-86289285D01*
X175380057Y-86289285D02*
X175332438Y-86241666D01*
X175332438Y-86241666D02*
X175284819Y-86146428D01*
X181184819Y-87717857D02*
X180708628Y-88051190D01*
X181184819Y-88289285D02*
X180184819Y-88289285D01*
X180184819Y-88289285D02*
X180184819Y-87908333D01*
X180184819Y-87908333D02*
X180232438Y-87813095D01*
X180232438Y-87813095D02*
X180280057Y-87765476D01*
X180280057Y-87765476D02*
X180375295Y-87717857D01*
X180375295Y-87717857D02*
X180518152Y-87717857D01*
X180518152Y-87717857D02*
X180613390Y-87765476D01*
X180613390Y-87765476D02*
X180661009Y-87813095D01*
X180661009Y-87813095D02*
X180708628Y-87908333D01*
X180708628Y-87908333D02*
X180708628Y-88289285D01*
X180280057Y-87336904D02*
X180232438Y-87289285D01*
X180232438Y-87289285D02*
X180184819Y-87194047D01*
X180184819Y-87194047D02*
X180184819Y-86955952D01*
X180184819Y-86955952D02*
X180232438Y-86860714D01*
X180232438Y-86860714D02*
X180280057Y-86813095D01*
X180280057Y-86813095D02*
X180375295Y-86765476D01*
X180375295Y-86765476D02*
X180470533Y-86765476D01*
X180470533Y-86765476D02*
X180613390Y-86813095D01*
X180613390Y-86813095D02*
X181184819Y-87384523D01*
X181184819Y-87384523D02*
X181184819Y-86765476D01*
X180280057Y-86384523D02*
X180232438Y-86336904D01*
X180232438Y-86336904D02*
X180184819Y-86241666D01*
X180184819Y-86241666D02*
X180184819Y-86003571D01*
X180184819Y-86003571D02*
X180232438Y-85908333D01*
X180232438Y-85908333D02*
X180280057Y-85860714D01*
X180280057Y-85860714D02*
X180375295Y-85813095D01*
X180375295Y-85813095D02*
X180470533Y-85813095D01*
X180470533Y-85813095D02*
X180613390Y-85860714D01*
X180613390Y-85860714D02*
X181184819Y-86432142D01*
X181184819Y-86432142D02*
X181184819Y-85813095D01*
X173307142Y-98874819D02*
X172973809Y-98398628D01*
X172735714Y-98874819D02*
X172735714Y-97874819D01*
X172735714Y-97874819D02*
X173116666Y-97874819D01*
X173116666Y-97874819D02*
X173211904Y-97922438D01*
X173211904Y-97922438D02*
X173259523Y-97970057D01*
X173259523Y-97970057D02*
X173307142Y-98065295D01*
X173307142Y-98065295D02*
X173307142Y-98208152D01*
X173307142Y-98208152D02*
X173259523Y-98303390D01*
X173259523Y-98303390D02*
X173211904Y-98351009D01*
X173211904Y-98351009D02*
X173116666Y-98398628D01*
X173116666Y-98398628D02*
X172735714Y-98398628D01*
X174259523Y-98874819D02*
X173688095Y-98874819D01*
X173973809Y-98874819D02*
X173973809Y-97874819D01*
X173973809Y-97874819D02*
X173878571Y-98017676D01*
X173878571Y-98017676D02*
X173783333Y-98112914D01*
X173783333Y-98112914D02*
X173688095Y-98160533D01*
X174592857Y-97874819D02*
X175211904Y-97874819D01*
X175211904Y-97874819D02*
X174878571Y-98255771D01*
X174878571Y-98255771D02*
X175021428Y-98255771D01*
X175021428Y-98255771D02*
X175116666Y-98303390D01*
X175116666Y-98303390D02*
X175164285Y-98351009D01*
X175164285Y-98351009D02*
X175211904Y-98446247D01*
X175211904Y-98446247D02*
X175211904Y-98684342D01*
X175211904Y-98684342D02*
X175164285Y-98779580D01*
X175164285Y-98779580D02*
X175116666Y-98827200D01*
X175116666Y-98827200D02*
X175021428Y-98874819D01*
X175021428Y-98874819D02*
X174735714Y-98874819D01*
X174735714Y-98874819D02*
X174640476Y-98827200D01*
X174640476Y-98827200D02*
X174592857Y-98779580D01*
X91884819Y-85666666D02*
X91408628Y-85999999D01*
X91884819Y-86238094D02*
X90884819Y-86238094D01*
X90884819Y-86238094D02*
X90884819Y-85857142D01*
X90884819Y-85857142D02*
X90932438Y-85761904D01*
X90932438Y-85761904D02*
X90980057Y-85714285D01*
X90980057Y-85714285D02*
X91075295Y-85666666D01*
X91075295Y-85666666D02*
X91218152Y-85666666D01*
X91218152Y-85666666D02*
X91313390Y-85714285D01*
X91313390Y-85714285D02*
X91361009Y-85761904D01*
X91361009Y-85761904D02*
X91408628Y-85857142D01*
X91408628Y-85857142D02*
X91408628Y-86238094D01*
X90884819Y-84761904D02*
X90884819Y-85238094D01*
X90884819Y-85238094D02*
X91361009Y-85285713D01*
X91361009Y-85285713D02*
X91313390Y-85238094D01*
X91313390Y-85238094D02*
X91265771Y-85142856D01*
X91265771Y-85142856D02*
X91265771Y-84904761D01*
X91265771Y-84904761D02*
X91313390Y-84809523D01*
X91313390Y-84809523D02*
X91361009Y-84761904D01*
X91361009Y-84761904D02*
X91456247Y-84714285D01*
X91456247Y-84714285D02*
X91694342Y-84714285D01*
X91694342Y-84714285D02*
X91789580Y-84761904D01*
X91789580Y-84761904D02*
X91837200Y-84809523D01*
X91837200Y-84809523D02*
X91884819Y-84904761D01*
X91884819Y-84904761D02*
X91884819Y-85142856D01*
X91884819Y-85142856D02*
X91837200Y-85238094D01*
X91837200Y-85238094D02*
X91789580Y-85285713D01*
X95816033Y-86742857D02*
X95482700Y-87076190D01*
X95816033Y-87314285D02*
X95116033Y-87314285D01*
X95116033Y-87314285D02*
X95116033Y-86933333D01*
X95116033Y-86933333D02*
X95149366Y-86838095D01*
X95149366Y-86838095D02*
X95182700Y-86790476D01*
X95182700Y-86790476D02*
X95249366Y-86742857D01*
X95249366Y-86742857D02*
X95349366Y-86742857D01*
X95349366Y-86742857D02*
X95416033Y-86790476D01*
X95416033Y-86790476D02*
X95449366Y-86838095D01*
X95449366Y-86838095D02*
X95482700Y-86933333D01*
X95482700Y-86933333D02*
X95482700Y-87314285D01*
X95816033Y-85790476D02*
X95816033Y-86361904D01*
X95816033Y-86076190D02*
X95116033Y-86076190D01*
X95116033Y-86076190D02*
X95216033Y-86171428D01*
X95216033Y-86171428D02*
X95282700Y-86266666D01*
X95282700Y-86266666D02*
X95316033Y-86361904D01*
X95349366Y-84933333D02*
X95816033Y-84933333D01*
X95082700Y-85171428D02*
X95582700Y-85409523D01*
X95582700Y-85409523D02*
X95582700Y-84790476D01*
X168640333Y-122427580D02*
X168592714Y-122475200D01*
X168592714Y-122475200D02*
X168449857Y-122522819D01*
X168449857Y-122522819D02*
X168354619Y-122522819D01*
X168354619Y-122522819D02*
X168211762Y-122475200D01*
X168211762Y-122475200D02*
X168116524Y-122379961D01*
X168116524Y-122379961D02*
X168068905Y-122284723D01*
X168068905Y-122284723D02*
X168021286Y-122094247D01*
X168021286Y-122094247D02*
X168021286Y-121951390D01*
X168021286Y-121951390D02*
X168068905Y-121760914D01*
X168068905Y-121760914D02*
X168116524Y-121665676D01*
X168116524Y-121665676D02*
X168211762Y-121570438D01*
X168211762Y-121570438D02*
X168354619Y-121522819D01*
X168354619Y-121522819D02*
X168449857Y-121522819D01*
X168449857Y-121522819D02*
X168592714Y-121570438D01*
X168592714Y-121570438D02*
X168640333Y-121618057D01*
X169211762Y-121951390D02*
X169116524Y-121903771D01*
X169116524Y-121903771D02*
X169068905Y-121856152D01*
X169068905Y-121856152D02*
X169021286Y-121760914D01*
X169021286Y-121760914D02*
X169021286Y-121713295D01*
X169021286Y-121713295D02*
X169068905Y-121618057D01*
X169068905Y-121618057D02*
X169116524Y-121570438D01*
X169116524Y-121570438D02*
X169211762Y-121522819D01*
X169211762Y-121522819D02*
X169402238Y-121522819D01*
X169402238Y-121522819D02*
X169497476Y-121570438D01*
X169497476Y-121570438D02*
X169545095Y-121618057D01*
X169545095Y-121618057D02*
X169592714Y-121713295D01*
X169592714Y-121713295D02*
X169592714Y-121760914D01*
X169592714Y-121760914D02*
X169545095Y-121856152D01*
X169545095Y-121856152D02*
X169497476Y-121903771D01*
X169497476Y-121903771D02*
X169402238Y-121951390D01*
X169402238Y-121951390D02*
X169211762Y-121951390D01*
X169211762Y-121951390D02*
X169116524Y-121999009D01*
X169116524Y-121999009D02*
X169068905Y-122046628D01*
X169068905Y-122046628D02*
X169021286Y-122141866D01*
X169021286Y-122141866D02*
X169021286Y-122332342D01*
X169021286Y-122332342D02*
X169068905Y-122427580D01*
X169068905Y-122427580D02*
X169116524Y-122475200D01*
X169116524Y-122475200D02*
X169211762Y-122522819D01*
X169211762Y-122522819D02*
X169402238Y-122522819D01*
X169402238Y-122522819D02*
X169497476Y-122475200D01*
X169497476Y-122475200D02*
X169545095Y-122427580D01*
X169545095Y-122427580D02*
X169592714Y-122332342D01*
X169592714Y-122332342D02*
X169592714Y-122141866D01*
X169592714Y-122141866D02*
X169545095Y-122046628D01*
X169545095Y-122046628D02*
X169497476Y-121999009D01*
X169497476Y-121999009D02*
X169402238Y-121951390D01*
X178857142Y-98704819D02*
X178523809Y-98228628D01*
X178285714Y-98704819D02*
X178285714Y-97704819D01*
X178285714Y-97704819D02*
X178666666Y-97704819D01*
X178666666Y-97704819D02*
X178761904Y-97752438D01*
X178761904Y-97752438D02*
X178809523Y-97800057D01*
X178809523Y-97800057D02*
X178857142Y-97895295D01*
X178857142Y-97895295D02*
X178857142Y-98038152D01*
X178857142Y-98038152D02*
X178809523Y-98133390D01*
X178809523Y-98133390D02*
X178761904Y-98181009D01*
X178761904Y-98181009D02*
X178666666Y-98228628D01*
X178666666Y-98228628D02*
X178285714Y-98228628D01*
X179809523Y-98704819D02*
X179238095Y-98704819D01*
X179523809Y-98704819D02*
X179523809Y-97704819D01*
X179523809Y-97704819D02*
X179428571Y-97847676D01*
X179428571Y-97847676D02*
X179333333Y-97942914D01*
X179333333Y-97942914D02*
X179238095Y-97990533D01*
X180190476Y-97800057D02*
X180238095Y-97752438D01*
X180238095Y-97752438D02*
X180333333Y-97704819D01*
X180333333Y-97704819D02*
X180571428Y-97704819D01*
X180571428Y-97704819D02*
X180666666Y-97752438D01*
X180666666Y-97752438D02*
X180714285Y-97800057D01*
X180714285Y-97800057D02*
X180761904Y-97895295D01*
X180761904Y-97895295D02*
X180761904Y-97990533D01*
X180761904Y-97990533D02*
X180714285Y-98133390D01*
X180714285Y-98133390D02*
X180142857Y-98704819D01*
X180142857Y-98704819D02*
X180761904Y-98704819D01*
X180954819Y-114083333D02*
X181669104Y-114083333D01*
X181669104Y-114083333D02*
X181811961Y-114130952D01*
X181811961Y-114130952D02*
X181907200Y-114226190D01*
X181907200Y-114226190D02*
X181954819Y-114369047D01*
X181954819Y-114369047D02*
X181954819Y-114464285D01*
X180954819Y-113702380D02*
X180954819Y-113083333D01*
X180954819Y-113083333D02*
X181335771Y-113416666D01*
X181335771Y-113416666D02*
X181335771Y-113273809D01*
X181335771Y-113273809D02*
X181383390Y-113178571D01*
X181383390Y-113178571D02*
X181431009Y-113130952D01*
X181431009Y-113130952D02*
X181526247Y-113083333D01*
X181526247Y-113083333D02*
X181764342Y-113083333D01*
X181764342Y-113083333D02*
X181859580Y-113130952D01*
X181859580Y-113130952D02*
X181907200Y-113178571D01*
X181907200Y-113178571D02*
X181954819Y-113273809D01*
X181954819Y-113273809D02*
X181954819Y-113559523D01*
X181954819Y-113559523D02*
X181907200Y-113654761D01*
X181907200Y-113654761D02*
X181859580Y-113702380D01*
X176738095Y-88956819D02*
X177309523Y-88956819D01*
X177023809Y-89956819D02*
X177023809Y-88956819D01*
X177642857Y-89956819D02*
X177642857Y-88956819D01*
X177642857Y-88956819D02*
X178023809Y-88956819D01*
X178023809Y-88956819D02*
X178119047Y-89004438D01*
X178119047Y-89004438D02*
X178166666Y-89052057D01*
X178166666Y-89052057D02*
X178214285Y-89147295D01*
X178214285Y-89147295D02*
X178214285Y-89290152D01*
X178214285Y-89290152D02*
X178166666Y-89385390D01*
X178166666Y-89385390D02*
X178119047Y-89433009D01*
X178119047Y-89433009D02*
X178023809Y-89480628D01*
X178023809Y-89480628D02*
X177642857Y-89480628D01*
X179166666Y-89956819D02*
X178595238Y-89956819D01*
X178880952Y-89956819D02*
X178880952Y-88956819D01*
X178880952Y-88956819D02*
X178785714Y-89099676D01*
X178785714Y-89099676D02*
X178690476Y-89194914D01*
X178690476Y-89194914D02*
X178595238Y-89242533D01*
X179738095Y-88956819D02*
X180309523Y-88956819D01*
X180023809Y-89956819D02*
X180023809Y-88956819D01*
X180642857Y-89956819D02*
X180642857Y-88956819D01*
X180642857Y-88956819D02*
X181023809Y-88956819D01*
X181023809Y-88956819D02*
X181119047Y-89004438D01*
X181119047Y-89004438D02*
X181166666Y-89052057D01*
X181166666Y-89052057D02*
X181214285Y-89147295D01*
X181214285Y-89147295D02*
X181214285Y-89290152D01*
X181214285Y-89290152D02*
X181166666Y-89385390D01*
X181166666Y-89385390D02*
X181119047Y-89433009D01*
X181119047Y-89433009D02*
X181023809Y-89480628D01*
X181023809Y-89480628D02*
X180642857Y-89480628D01*
X181595238Y-89052057D02*
X181642857Y-89004438D01*
X181642857Y-89004438D02*
X181738095Y-88956819D01*
X181738095Y-88956819D02*
X181976190Y-88956819D01*
X181976190Y-88956819D02*
X182071428Y-89004438D01*
X182071428Y-89004438D02*
X182119047Y-89052057D01*
X182119047Y-89052057D02*
X182166666Y-89147295D01*
X182166666Y-89147295D02*
X182166666Y-89242533D01*
X182166666Y-89242533D02*
X182119047Y-89385390D01*
X182119047Y-89385390D02*
X181547619Y-89956819D01*
X181547619Y-89956819D02*
X182166666Y-89956819D01*
X182738095Y-88956819D02*
X183309523Y-88956819D01*
X183023809Y-89956819D02*
X183023809Y-88956819D01*
X183642857Y-89956819D02*
X183642857Y-88956819D01*
X183642857Y-88956819D02*
X184023809Y-88956819D01*
X184023809Y-88956819D02*
X184119047Y-89004438D01*
X184119047Y-89004438D02*
X184166666Y-89052057D01*
X184166666Y-89052057D02*
X184214285Y-89147295D01*
X184214285Y-89147295D02*
X184214285Y-89290152D01*
X184214285Y-89290152D02*
X184166666Y-89385390D01*
X184166666Y-89385390D02*
X184119047Y-89433009D01*
X184119047Y-89433009D02*
X184023809Y-89480628D01*
X184023809Y-89480628D02*
X183642857Y-89480628D01*
X184547619Y-88956819D02*
X185166666Y-88956819D01*
X185166666Y-88956819D02*
X184833333Y-89337771D01*
X184833333Y-89337771D02*
X184976190Y-89337771D01*
X184976190Y-89337771D02*
X185071428Y-89385390D01*
X185071428Y-89385390D02*
X185119047Y-89433009D01*
X185119047Y-89433009D02*
X185166666Y-89528247D01*
X185166666Y-89528247D02*
X185166666Y-89766342D01*
X185166666Y-89766342D02*
X185119047Y-89861580D01*
X185119047Y-89861580D02*
X185071428Y-89909200D01*
X185071428Y-89909200D02*
X184976190Y-89956819D01*
X184976190Y-89956819D02*
X184690476Y-89956819D01*
X184690476Y-89956819D02*
X184595238Y-89909200D01*
X184595238Y-89909200D02*
X184547619Y-89861580D01*
D16*
X121616666Y-81117333D02*
X122016666Y-81117333D01*
X121816666Y-81817333D02*
X121816666Y-81117333D01*
X122249999Y-81817333D02*
X122249999Y-81117333D01*
X122249999Y-81117333D02*
X122516666Y-81117333D01*
X122516666Y-81117333D02*
X122583333Y-81150666D01*
X122583333Y-81150666D02*
X122616666Y-81184000D01*
X122616666Y-81184000D02*
X122649999Y-81250666D01*
X122649999Y-81250666D02*
X122649999Y-81350666D01*
X122649999Y-81350666D02*
X122616666Y-81417333D01*
X122616666Y-81417333D02*
X122583333Y-81450666D01*
X122583333Y-81450666D02*
X122516666Y-81484000D01*
X122516666Y-81484000D02*
X122249999Y-81484000D01*
X123283333Y-81117333D02*
X122949999Y-81117333D01*
X122949999Y-81117333D02*
X122916666Y-81450666D01*
X122916666Y-81450666D02*
X122949999Y-81417333D01*
X122949999Y-81417333D02*
X123016666Y-81384000D01*
X123016666Y-81384000D02*
X123183333Y-81384000D01*
X123183333Y-81384000D02*
X123249999Y-81417333D01*
X123249999Y-81417333D02*
X123283333Y-81450666D01*
X123283333Y-81450666D02*
X123316666Y-81517333D01*
X123316666Y-81517333D02*
X123316666Y-81684000D01*
X123316666Y-81684000D02*
X123283333Y-81750666D01*
X123283333Y-81750666D02*
X123249999Y-81784000D01*
X123249999Y-81784000D02*
X123183333Y-81817333D01*
X123183333Y-81817333D02*
X123016666Y-81817333D01*
X123016666Y-81817333D02*
X122949999Y-81784000D01*
X122949999Y-81784000D02*
X122916666Y-81750666D01*
D10*
X121616666Y-84616033D02*
X122016666Y-84616033D01*
X121816666Y-85316033D02*
X121816666Y-84616033D01*
X122249999Y-85316033D02*
X122249999Y-84616033D01*
X122249999Y-84616033D02*
X122516666Y-84616033D01*
X122516666Y-84616033D02*
X122583333Y-84649366D01*
X122583333Y-84649366D02*
X122616666Y-84682700D01*
X122616666Y-84682700D02*
X122649999Y-84749366D01*
X122649999Y-84749366D02*
X122649999Y-84849366D01*
X122649999Y-84849366D02*
X122616666Y-84916033D01*
X122616666Y-84916033D02*
X122583333Y-84949366D01*
X122583333Y-84949366D02*
X122516666Y-84982700D01*
X122516666Y-84982700D02*
X122249999Y-84982700D01*
X123249999Y-84616033D02*
X123116666Y-84616033D01*
X123116666Y-84616033D02*
X123049999Y-84649366D01*
X123049999Y-84649366D02*
X123016666Y-84682700D01*
X123016666Y-84682700D02*
X122949999Y-84782700D01*
X122949999Y-84782700D02*
X122916666Y-84916033D01*
X122916666Y-84916033D02*
X122916666Y-85182700D01*
X122916666Y-85182700D02*
X122949999Y-85249366D01*
X122949999Y-85249366D02*
X122983333Y-85282700D01*
X122983333Y-85282700D02*
X123049999Y-85316033D01*
X123049999Y-85316033D02*
X123183333Y-85316033D01*
X123183333Y-85316033D02*
X123249999Y-85282700D01*
X123249999Y-85282700D02*
X123283333Y-85249366D01*
X123283333Y-85249366D02*
X123316666Y-85182700D01*
X123316666Y-85182700D02*
X123316666Y-85016033D01*
X123316666Y-85016033D02*
X123283333Y-84949366D01*
X123283333Y-84949366D02*
X123249999Y-84916033D01*
X123249999Y-84916033D02*
X123183333Y-84882700D01*
X123183333Y-84882700D02*
X123049999Y-84882700D01*
X123049999Y-84882700D02*
X122983333Y-84916033D01*
X122983333Y-84916033D02*
X122949999Y-84949366D01*
X122949999Y-84949366D02*
X122916666Y-85016033D01*
X101738095Y-86056819D02*
X102309523Y-86056819D01*
X102023809Y-87056819D02*
X102023809Y-86056819D01*
X102642857Y-87056819D02*
X102642857Y-86056819D01*
X102642857Y-86056819D02*
X103023809Y-86056819D01*
X103023809Y-86056819D02*
X103119047Y-86104438D01*
X103119047Y-86104438D02*
X103166666Y-86152057D01*
X103166666Y-86152057D02*
X103214285Y-86247295D01*
X103214285Y-86247295D02*
X103214285Y-86390152D01*
X103214285Y-86390152D02*
X103166666Y-86485390D01*
X103166666Y-86485390D02*
X103119047Y-86533009D01*
X103119047Y-86533009D02*
X103023809Y-86580628D01*
X103023809Y-86580628D02*
X102642857Y-86580628D01*
X103547619Y-86056819D02*
X104214285Y-86056819D01*
X104214285Y-86056819D02*
X103785714Y-87056819D01*
X161438095Y-140756819D02*
X162009523Y-140756819D01*
X161723809Y-141756819D02*
X161723809Y-140756819D01*
X162342857Y-141756819D02*
X162342857Y-140756819D01*
X162342857Y-140756819D02*
X162723809Y-140756819D01*
X162723809Y-140756819D02*
X162819047Y-140804438D01*
X162819047Y-140804438D02*
X162866666Y-140852057D01*
X162866666Y-140852057D02*
X162914285Y-140947295D01*
X162914285Y-140947295D02*
X162914285Y-141090152D01*
X162914285Y-141090152D02*
X162866666Y-141185390D01*
X162866666Y-141185390D02*
X162819047Y-141233009D01*
X162819047Y-141233009D02*
X162723809Y-141280628D01*
X162723809Y-141280628D02*
X162342857Y-141280628D01*
X163485714Y-141185390D02*
X163390476Y-141137771D01*
X163390476Y-141137771D02*
X163342857Y-141090152D01*
X163342857Y-141090152D02*
X163295238Y-140994914D01*
X163295238Y-140994914D02*
X163295238Y-140947295D01*
X163295238Y-140947295D02*
X163342857Y-140852057D01*
X163342857Y-140852057D02*
X163390476Y-140804438D01*
X163390476Y-140804438D02*
X163485714Y-140756819D01*
X163485714Y-140756819D02*
X163676190Y-140756819D01*
X163676190Y-140756819D02*
X163771428Y-140804438D01*
X163771428Y-140804438D02*
X163819047Y-140852057D01*
X163819047Y-140852057D02*
X163866666Y-140947295D01*
X163866666Y-140947295D02*
X163866666Y-140994914D01*
X163866666Y-140994914D02*
X163819047Y-141090152D01*
X163819047Y-141090152D02*
X163771428Y-141137771D01*
X163771428Y-141137771D02*
X163676190Y-141185390D01*
X163676190Y-141185390D02*
X163485714Y-141185390D01*
X163485714Y-141185390D02*
X163390476Y-141233009D01*
X163390476Y-141233009D02*
X163342857Y-141280628D01*
X163342857Y-141280628D02*
X163295238Y-141375866D01*
X163295238Y-141375866D02*
X163295238Y-141566342D01*
X163295238Y-141566342D02*
X163342857Y-141661580D01*
X163342857Y-141661580D02*
X163390476Y-141709200D01*
X163390476Y-141709200D02*
X163485714Y-141756819D01*
X163485714Y-141756819D02*
X163676190Y-141756819D01*
X163676190Y-141756819D02*
X163771428Y-141709200D01*
X163771428Y-141709200D02*
X163819047Y-141661580D01*
X163819047Y-141661580D02*
X163866666Y-141566342D01*
X163866666Y-141566342D02*
X163866666Y-141375866D01*
X163866666Y-141375866D02*
X163819047Y-141280628D01*
X163819047Y-141280628D02*
X163771428Y-141233009D01*
X163771428Y-141233009D02*
X163676190Y-141185390D01*
X71738095Y-76956819D02*
X72309523Y-76956819D01*
X72023809Y-77956819D02*
X72023809Y-76956819D01*
X72642857Y-77956819D02*
X72642857Y-76956819D01*
X72642857Y-76956819D02*
X73023809Y-76956819D01*
X73023809Y-76956819D02*
X73119047Y-77004438D01*
X73119047Y-77004438D02*
X73166666Y-77052057D01*
X73166666Y-77052057D02*
X73214285Y-77147295D01*
X73214285Y-77147295D02*
X73214285Y-77290152D01*
X73214285Y-77290152D02*
X73166666Y-77385390D01*
X73166666Y-77385390D02*
X73119047Y-77433009D01*
X73119047Y-77433009D02*
X73023809Y-77480628D01*
X73023809Y-77480628D02*
X72642857Y-77480628D01*
X73690476Y-77956819D02*
X73880952Y-77956819D01*
X73880952Y-77956819D02*
X73976190Y-77909200D01*
X73976190Y-77909200D02*
X74023809Y-77861580D01*
X74023809Y-77861580D02*
X74119047Y-77718723D01*
X74119047Y-77718723D02*
X74166666Y-77528247D01*
X74166666Y-77528247D02*
X74166666Y-77147295D01*
X74166666Y-77147295D02*
X74119047Y-77052057D01*
X74119047Y-77052057D02*
X74071428Y-77004438D01*
X74071428Y-77004438D02*
X73976190Y-76956819D01*
X73976190Y-76956819D02*
X73785714Y-76956819D01*
X73785714Y-76956819D02*
X73690476Y-77004438D01*
X73690476Y-77004438D02*
X73642857Y-77052057D01*
X73642857Y-77052057D02*
X73595238Y-77147295D01*
X73595238Y-77147295D02*
X73595238Y-77385390D01*
X73595238Y-77385390D02*
X73642857Y-77480628D01*
X73642857Y-77480628D02*
X73690476Y-77528247D01*
X73690476Y-77528247D02*
X73785714Y-77575866D01*
X73785714Y-77575866D02*
X73976190Y-77575866D01*
X73976190Y-77575866D02*
X74071428Y-77528247D01*
X74071428Y-77528247D02*
X74119047Y-77480628D01*
X74119047Y-77480628D02*
X74166666Y-77385390D01*
X75261905Y-76956819D02*
X75833333Y-76956819D01*
X75547619Y-77956819D02*
X75547619Y-76956819D01*
X76166667Y-77956819D02*
X76166667Y-76956819D01*
X76166667Y-76956819D02*
X76547619Y-76956819D01*
X76547619Y-76956819D02*
X76642857Y-77004438D01*
X76642857Y-77004438D02*
X76690476Y-77052057D01*
X76690476Y-77052057D02*
X76738095Y-77147295D01*
X76738095Y-77147295D02*
X76738095Y-77290152D01*
X76738095Y-77290152D02*
X76690476Y-77385390D01*
X76690476Y-77385390D02*
X76642857Y-77433009D01*
X76642857Y-77433009D02*
X76547619Y-77480628D01*
X76547619Y-77480628D02*
X76166667Y-77480628D01*
X77690476Y-77956819D02*
X77119048Y-77956819D01*
X77404762Y-77956819D02*
X77404762Y-76956819D01*
X77404762Y-76956819D02*
X77309524Y-77099676D01*
X77309524Y-77099676D02*
X77214286Y-77194914D01*
X77214286Y-77194914D02*
X77119048Y-77242533D01*
X78309524Y-76956819D02*
X78404762Y-76956819D01*
X78404762Y-76956819D02*
X78500000Y-77004438D01*
X78500000Y-77004438D02*
X78547619Y-77052057D01*
X78547619Y-77052057D02*
X78595238Y-77147295D01*
X78595238Y-77147295D02*
X78642857Y-77337771D01*
X78642857Y-77337771D02*
X78642857Y-77575866D01*
X78642857Y-77575866D02*
X78595238Y-77766342D01*
X78595238Y-77766342D02*
X78547619Y-77861580D01*
X78547619Y-77861580D02*
X78500000Y-77909200D01*
X78500000Y-77909200D02*
X78404762Y-77956819D01*
X78404762Y-77956819D02*
X78309524Y-77956819D01*
X78309524Y-77956819D02*
X78214286Y-77909200D01*
X78214286Y-77909200D02*
X78166667Y-77861580D01*
X78166667Y-77861580D02*
X78119048Y-77766342D01*
X78119048Y-77766342D02*
X78071429Y-77575866D01*
X78071429Y-77575866D02*
X78071429Y-77337771D01*
X78071429Y-77337771D02*
X78119048Y-77147295D01*
X78119048Y-77147295D02*
X78166667Y-77052057D01*
X78166667Y-77052057D02*
X78214286Y-77004438D01*
X78214286Y-77004438D02*
X78309524Y-76956819D01*
X79261905Y-76956819D02*
X79833333Y-76956819D01*
X79547619Y-77956819D02*
X79547619Y-76956819D01*
X80166667Y-77956819D02*
X80166667Y-76956819D01*
X80166667Y-76956819D02*
X80547619Y-76956819D01*
X80547619Y-76956819D02*
X80642857Y-77004438D01*
X80642857Y-77004438D02*
X80690476Y-77052057D01*
X80690476Y-77052057D02*
X80738095Y-77147295D01*
X80738095Y-77147295D02*
X80738095Y-77290152D01*
X80738095Y-77290152D02*
X80690476Y-77385390D01*
X80690476Y-77385390D02*
X80642857Y-77433009D01*
X80642857Y-77433009D02*
X80547619Y-77480628D01*
X80547619Y-77480628D02*
X80166667Y-77480628D01*
X81690476Y-77956819D02*
X81119048Y-77956819D01*
X81404762Y-77956819D02*
X81404762Y-76956819D01*
X81404762Y-76956819D02*
X81309524Y-77099676D01*
X81309524Y-77099676D02*
X81214286Y-77194914D01*
X81214286Y-77194914D02*
X81119048Y-77242533D01*
X82642857Y-77956819D02*
X82071429Y-77956819D01*
X82357143Y-77956819D02*
X82357143Y-76956819D01*
X82357143Y-76956819D02*
X82261905Y-77099676D01*
X82261905Y-77099676D02*
X82166667Y-77194914D01*
X82166667Y-77194914D02*
X82071429Y-77242533D01*
X83261905Y-76956819D02*
X83833333Y-76956819D01*
X83547619Y-77956819D02*
X83547619Y-76956819D01*
X84166667Y-77956819D02*
X84166667Y-76956819D01*
X84166667Y-76956819D02*
X84547619Y-76956819D01*
X84547619Y-76956819D02*
X84642857Y-77004438D01*
X84642857Y-77004438D02*
X84690476Y-77052057D01*
X84690476Y-77052057D02*
X84738095Y-77147295D01*
X84738095Y-77147295D02*
X84738095Y-77290152D01*
X84738095Y-77290152D02*
X84690476Y-77385390D01*
X84690476Y-77385390D02*
X84642857Y-77433009D01*
X84642857Y-77433009D02*
X84547619Y-77480628D01*
X84547619Y-77480628D02*
X84166667Y-77480628D01*
X85690476Y-77956819D02*
X85119048Y-77956819D01*
X85404762Y-77956819D02*
X85404762Y-76956819D01*
X85404762Y-76956819D02*
X85309524Y-77099676D01*
X85309524Y-77099676D02*
X85214286Y-77194914D01*
X85214286Y-77194914D02*
X85119048Y-77242533D01*
X86071429Y-77052057D02*
X86119048Y-77004438D01*
X86119048Y-77004438D02*
X86214286Y-76956819D01*
X86214286Y-76956819D02*
X86452381Y-76956819D01*
X86452381Y-76956819D02*
X86547619Y-77004438D01*
X86547619Y-77004438D02*
X86595238Y-77052057D01*
X86595238Y-77052057D02*
X86642857Y-77147295D01*
X86642857Y-77147295D02*
X86642857Y-77242533D01*
X86642857Y-77242533D02*
X86595238Y-77385390D01*
X86595238Y-77385390D02*
X86023810Y-77956819D01*
X86023810Y-77956819D02*
X86642857Y-77956819D01*
X109511905Y-86954819D02*
X110083333Y-86954819D01*
X109797619Y-87954819D02*
X109797619Y-86954819D01*
X110416667Y-87954819D02*
X110416667Y-86954819D01*
X110416667Y-86954819D02*
X110797619Y-86954819D01*
X110797619Y-86954819D02*
X110892857Y-87002438D01*
X110892857Y-87002438D02*
X110940476Y-87050057D01*
X110940476Y-87050057D02*
X110988095Y-87145295D01*
X110988095Y-87145295D02*
X110988095Y-87288152D01*
X110988095Y-87288152D02*
X110940476Y-87383390D01*
X110940476Y-87383390D02*
X110892857Y-87431009D01*
X110892857Y-87431009D02*
X110797619Y-87478628D01*
X110797619Y-87478628D02*
X110416667Y-87478628D01*
X111940476Y-87954819D02*
X111369048Y-87954819D01*
X111654762Y-87954819D02*
X111654762Y-86954819D01*
X111654762Y-86954819D02*
X111559524Y-87097676D01*
X111559524Y-87097676D02*
X111464286Y-87192914D01*
X111464286Y-87192914D02*
X111369048Y-87240533D01*
X112273810Y-86954819D02*
X112892857Y-86954819D01*
X112892857Y-86954819D02*
X112559524Y-87335771D01*
X112559524Y-87335771D02*
X112702381Y-87335771D01*
X112702381Y-87335771D02*
X112797619Y-87383390D01*
X112797619Y-87383390D02*
X112845238Y-87431009D01*
X112845238Y-87431009D02*
X112892857Y-87526247D01*
X112892857Y-87526247D02*
X112892857Y-87764342D01*
X112892857Y-87764342D02*
X112845238Y-87859580D01*
X112845238Y-87859580D02*
X112797619Y-87907200D01*
X112797619Y-87907200D02*
X112702381Y-87954819D01*
X112702381Y-87954819D02*
X112416667Y-87954819D01*
X112416667Y-87954819D02*
X112321429Y-87907200D01*
X112321429Y-87907200D02*
X112273810Y-87859580D01*
X148857142Y-124454819D02*
X148523809Y-123978628D01*
X148285714Y-124454819D02*
X148285714Y-123454819D01*
X148285714Y-123454819D02*
X148666666Y-123454819D01*
X148666666Y-123454819D02*
X148761904Y-123502438D01*
X148761904Y-123502438D02*
X148809523Y-123550057D01*
X148809523Y-123550057D02*
X148857142Y-123645295D01*
X148857142Y-123645295D02*
X148857142Y-123788152D01*
X148857142Y-123788152D02*
X148809523Y-123883390D01*
X148809523Y-123883390D02*
X148761904Y-123931009D01*
X148761904Y-123931009D02*
X148666666Y-123978628D01*
X148666666Y-123978628D02*
X148285714Y-123978628D01*
X149809523Y-124454819D02*
X149238095Y-124454819D01*
X149523809Y-124454819D02*
X149523809Y-123454819D01*
X149523809Y-123454819D02*
X149428571Y-123597676D01*
X149428571Y-123597676D02*
X149333333Y-123692914D01*
X149333333Y-123692914D02*
X149238095Y-123740533D01*
X150428571Y-123454819D02*
X150523809Y-123454819D01*
X150523809Y-123454819D02*
X150619047Y-123502438D01*
X150619047Y-123502438D02*
X150666666Y-123550057D01*
X150666666Y-123550057D02*
X150714285Y-123645295D01*
X150714285Y-123645295D02*
X150761904Y-123835771D01*
X150761904Y-123835771D02*
X150761904Y-124073866D01*
X150761904Y-124073866D02*
X150714285Y-124264342D01*
X150714285Y-124264342D02*
X150666666Y-124359580D01*
X150666666Y-124359580D02*
X150619047Y-124407200D01*
X150619047Y-124407200D02*
X150523809Y-124454819D01*
X150523809Y-124454819D02*
X150428571Y-124454819D01*
X150428571Y-124454819D02*
X150333333Y-124407200D01*
X150333333Y-124407200D02*
X150285714Y-124359580D01*
X150285714Y-124359580D02*
X150238095Y-124264342D01*
X150238095Y-124264342D02*
X150190476Y-124073866D01*
X150190476Y-124073866D02*
X150190476Y-123835771D01*
X150190476Y-123835771D02*
X150238095Y-123645295D01*
X150238095Y-123645295D02*
X150285714Y-123550057D01*
X150285714Y-123550057D02*
X150333333Y-123502438D01*
X150333333Y-123502438D02*
X150428571Y-123454819D01*
X121616666Y-77616033D02*
X122016666Y-77616033D01*
X121816666Y-78316033D02*
X121816666Y-77616033D01*
X122249999Y-78316033D02*
X122249999Y-77616033D01*
X122249999Y-77616033D02*
X122516666Y-77616033D01*
X122516666Y-77616033D02*
X122583333Y-77649366D01*
X122583333Y-77649366D02*
X122616666Y-77682700D01*
X122616666Y-77682700D02*
X122649999Y-77749366D01*
X122649999Y-77749366D02*
X122649999Y-77849366D01*
X122649999Y-77849366D02*
X122616666Y-77916033D01*
X122616666Y-77916033D02*
X122583333Y-77949366D01*
X122583333Y-77949366D02*
X122516666Y-77982700D01*
X122516666Y-77982700D02*
X122249999Y-77982700D01*
X123249999Y-77849366D02*
X123249999Y-78316033D01*
X123083333Y-77582700D02*
X122916666Y-78082700D01*
X122916666Y-78082700D02*
X123349999Y-78082700D01*
X131654819Y-84333333D02*
X132369104Y-84333333D01*
X132369104Y-84333333D02*
X132511961Y-84380952D01*
X132511961Y-84380952D02*
X132607200Y-84476190D01*
X132607200Y-84476190D02*
X132654819Y-84619047D01*
X132654819Y-84619047D02*
X132654819Y-84714285D01*
X132654819Y-83857142D02*
X131654819Y-83857142D01*
X131654819Y-83857142D02*
X131654819Y-83476190D01*
X131654819Y-83476190D02*
X131702438Y-83380952D01*
X131702438Y-83380952D02*
X131750057Y-83333333D01*
X131750057Y-83333333D02*
X131845295Y-83285714D01*
X131845295Y-83285714D02*
X131988152Y-83285714D01*
X131988152Y-83285714D02*
X132083390Y-83333333D01*
X132083390Y-83333333D02*
X132131009Y-83380952D01*
X132131009Y-83380952D02*
X132178628Y-83476190D01*
X132178628Y-83476190D02*
X132178628Y-83857142D01*
X131654819Y-82952380D02*
X131654819Y-82333333D01*
X131654819Y-82333333D02*
X132035771Y-82666666D01*
X132035771Y-82666666D02*
X132035771Y-82523809D01*
X132035771Y-82523809D02*
X132083390Y-82428571D01*
X132083390Y-82428571D02*
X132131009Y-82380952D01*
X132131009Y-82380952D02*
X132226247Y-82333333D01*
X132226247Y-82333333D02*
X132464342Y-82333333D01*
X132464342Y-82333333D02*
X132559580Y-82380952D01*
X132559580Y-82380952D02*
X132607200Y-82428571D01*
X132607200Y-82428571D02*
X132654819Y-82523809D01*
X132654819Y-82523809D02*
X132654819Y-82809523D01*
X132654819Y-82809523D02*
X132607200Y-82904761D01*
X132607200Y-82904761D02*
X132559580Y-82952380D01*
X130854819Y-80614285D02*
X130854819Y-81185713D01*
X130854819Y-80899999D02*
X129854819Y-80899999D01*
X129854819Y-80899999D02*
X129997676Y-80995237D01*
X129997676Y-80995237D02*
X130092914Y-81090475D01*
X130092914Y-81090475D02*
X130140533Y-81185713D01*
X129854819Y-86433332D02*
X129854819Y-85814285D01*
X129854819Y-85814285D02*
X130235771Y-86147618D01*
X130235771Y-86147618D02*
X130235771Y-86004761D01*
X130235771Y-86004761D02*
X130283390Y-85909523D01*
X130283390Y-85909523D02*
X130331009Y-85861904D01*
X130331009Y-85861904D02*
X130426247Y-85814285D01*
X130426247Y-85814285D02*
X130664342Y-85814285D01*
X130664342Y-85814285D02*
X130759580Y-85861904D01*
X130759580Y-85861904D02*
X130807200Y-85909523D01*
X130807200Y-85909523D02*
X130854819Y-86004761D01*
X130854819Y-86004761D02*
X130854819Y-86290475D01*
X130854819Y-86290475D02*
X130807200Y-86385713D01*
X130807200Y-86385713D02*
X130759580Y-86433332D01*
X148674819Y-82261904D02*
X149484342Y-82261904D01*
X149484342Y-82261904D02*
X149579580Y-82214285D01*
X149579580Y-82214285D02*
X149627200Y-82166666D01*
X149627200Y-82166666D02*
X149674819Y-82071428D01*
X149674819Y-82071428D02*
X149674819Y-81880952D01*
X149674819Y-81880952D02*
X149627200Y-81785714D01*
X149627200Y-81785714D02*
X149579580Y-81738095D01*
X149579580Y-81738095D02*
X149484342Y-81690476D01*
X149484342Y-81690476D02*
X148674819Y-81690476D01*
X149674819Y-81166666D02*
X149674819Y-80976190D01*
X149674819Y-80976190D02*
X149627200Y-80880952D01*
X149627200Y-80880952D02*
X149579580Y-80833333D01*
X149579580Y-80833333D02*
X149436723Y-80738095D01*
X149436723Y-80738095D02*
X149246247Y-80690476D01*
X149246247Y-80690476D02*
X148865295Y-80690476D01*
X148865295Y-80690476D02*
X148770057Y-80738095D01*
X148770057Y-80738095D02*
X148722438Y-80785714D01*
X148722438Y-80785714D02*
X148674819Y-80880952D01*
X148674819Y-80880952D02*
X148674819Y-81071428D01*
X148674819Y-81071428D02*
X148722438Y-81166666D01*
X148722438Y-81166666D02*
X148770057Y-81214285D01*
X148770057Y-81214285D02*
X148865295Y-81261904D01*
X148865295Y-81261904D02*
X149103390Y-81261904D01*
X149103390Y-81261904D02*
X149198628Y-81214285D01*
X149198628Y-81214285D02*
X149246247Y-81166666D01*
X149246247Y-81166666D02*
X149293866Y-81071428D01*
X149293866Y-81071428D02*
X149293866Y-80880952D01*
X149293866Y-80880952D02*
X149246247Y-80785714D01*
X149246247Y-80785714D02*
X149198628Y-80738095D01*
X149198628Y-80738095D02*
X149103390Y-80690476D01*
X149704761Y-138250057D02*
X149609523Y-138202438D01*
X149609523Y-138202438D02*
X149514285Y-138107200D01*
X149514285Y-138107200D02*
X149371428Y-137964342D01*
X149371428Y-137964342D02*
X149276190Y-137916723D01*
X149276190Y-137916723D02*
X149180952Y-137916723D01*
X149228571Y-138154819D02*
X149133333Y-138107200D01*
X149133333Y-138107200D02*
X149038095Y-138011961D01*
X149038095Y-138011961D02*
X148990476Y-137821485D01*
X148990476Y-137821485D02*
X148990476Y-137488152D01*
X148990476Y-137488152D02*
X149038095Y-137297676D01*
X149038095Y-137297676D02*
X149133333Y-137202438D01*
X149133333Y-137202438D02*
X149228571Y-137154819D01*
X149228571Y-137154819D02*
X149419047Y-137154819D01*
X149419047Y-137154819D02*
X149514285Y-137202438D01*
X149514285Y-137202438D02*
X149609523Y-137297676D01*
X149609523Y-137297676D02*
X149657142Y-137488152D01*
X149657142Y-137488152D02*
X149657142Y-137821485D01*
X149657142Y-137821485D02*
X149609523Y-138011961D01*
X149609523Y-138011961D02*
X149514285Y-138107200D01*
X149514285Y-138107200D02*
X149419047Y-138154819D01*
X149419047Y-138154819D02*
X149228571Y-138154819D01*
X150609523Y-138154819D02*
X150038095Y-138154819D01*
X150323809Y-138154819D02*
X150323809Y-137154819D01*
X150323809Y-137154819D02*
X150228571Y-137297676D01*
X150228571Y-137297676D02*
X150133333Y-137392914D01*
X150133333Y-137392914D02*
X150038095Y-137440533D01*
X172414819Y-96498094D02*
X173224342Y-96498094D01*
X173224342Y-96498094D02*
X173319580Y-96450475D01*
X173319580Y-96450475D02*
X173367200Y-96402856D01*
X173367200Y-96402856D02*
X173414819Y-96307618D01*
X173414819Y-96307618D02*
X173414819Y-96117142D01*
X173414819Y-96117142D02*
X173367200Y-96021904D01*
X173367200Y-96021904D02*
X173319580Y-95974285D01*
X173319580Y-95974285D02*
X173224342Y-95926666D01*
X173224342Y-95926666D02*
X172414819Y-95926666D01*
X173414819Y-94926666D02*
X173414819Y-95498094D01*
X173414819Y-95212380D02*
X172414819Y-95212380D01*
X172414819Y-95212380D02*
X172557676Y-95307618D01*
X172557676Y-95307618D02*
X172652914Y-95402856D01*
X172652914Y-95402856D02*
X172700533Y-95498094D01*
X172414819Y-94307618D02*
X172414819Y-94212380D01*
X172414819Y-94212380D02*
X172462438Y-94117142D01*
X172462438Y-94117142D02*
X172510057Y-94069523D01*
X172510057Y-94069523D02*
X172605295Y-94021904D01*
X172605295Y-94021904D02*
X172795771Y-93974285D01*
X172795771Y-93974285D02*
X173033866Y-93974285D01*
X173033866Y-93974285D02*
X173224342Y-94021904D01*
X173224342Y-94021904D02*
X173319580Y-94069523D01*
X173319580Y-94069523D02*
X173367200Y-94117142D01*
X173367200Y-94117142D02*
X173414819Y-94212380D01*
X173414819Y-94212380D02*
X173414819Y-94307618D01*
X173414819Y-94307618D02*
X173367200Y-94402856D01*
X173367200Y-94402856D02*
X173319580Y-94450475D01*
X173319580Y-94450475D02*
X173224342Y-94498094D01*
X173224342Y-94498094D02*
X173033866Y-94545713D01*
X173033866Y-94545713D02*
X172795771Y-94545713D01*
X172795771Y-94545713D02*
X172605295Y-94498094D01*
X172605295Y-94498094D02*
X172510057Y-94450475D01*
X172510057Y-94450475D02*
X172462438Y-94402856D01*
X172462438Y-94402856D02*
X172414819Y-94307618D01*
D17*
X202227500Y-106237258D02*
X202227500Y-105762742D01*
X203272500Y-106237258D02*
X203272500Y-105762742D01*
X202360000Y-98372164D02*
X202360000Y-98587836D01*
X201640000Y-98372164D02*
X201640000Y-98587836D01*
X201272500Y-97937742D02*
X201272500Y-98412258D01*
X200227500Y-97937742D02*
X200227500Y-98412258D01*
X88022500Y-85262742D02*
X88022500Y-85737258D01*
X86977500Y-85262742D02*
X86977500Y-85737258D01*
X85522500Y-85262742D02*
X85522500Y-85737258D01*
X84477500Y-85262742D02*
X84477500Y-85737258D01*
X155121742Y-125297500D02*
X155596258Y-125297500D01*
X155121742Y-126342500D02*
X155596258Y-126342500D01*
X165900000Y-117800000D02*
X165900000Y-117200000D01*
X166200000Y-117500000D02*
X165900000Y-117800000D01*
X165900000Y-117200000D02*
X166200000Y-117500000D01*
X164100000Y-116100000D02*
X175900000Y-116100000D01*
X164100000Y-112000000D02*
X164100000Y-116100000D01*
X175900000Y-112000000D02*
X175900000Y-116100000D01*
X170000000Y-110500000D02*
X170000000Y-109500000D01*
X169500000Y-110000000D02*
X170500000Y-110000000D01*
X164100000Y-108000000D02*
X164100000Y-103900000D01*
X164100000Y-103900000D02*
X166500000Y-103900000D01*
X168700000Y-103900000D02*
X171300000Y-103900000D01*
X173500000Y-103900000D02*
X175900000Y-103900000D01*
X175900000Y-103900000D02*
X175900000Y-108000000D01*
X173000000Y-110000000D02*
G75*
G03*
X173000000Y-110000000I-3000000J0D01*
G01*
X105412258Y-81522500D02*
X104937742Y-81522500D01*
X105412258Y-80477500D02*
X104937742Y-80477500D01*
X155196164Y-123060000D02*
X155411836Y-123060000D01*
X155196164Y-123780000D02*
X155411836Y-123780000D01*
X202272500Y-101937742D02*
X202272500Y-102412258D01*
X201227500Y-101937742D02*
X201227500Y-102412258D01*
X55900000Y-117800000D02*
X55900000Y-117200000D01*
X56200000Y-117500000D02*
X55900000Y-117800000D01*
X55900000Y-117200000D02*
X56200000Y-117500000D01*
X54100000Y-116100000D02*
X65900000Y-116100000D01*
X54100000Y-112000000D02*
X54100000Y-116100000D01*
X65900000Y-112000000D02*
X65900000Y-116100000D01*
X60000000Y-110500000D02*
X60000000Y-109500000D01*
X59500000Y-110000000D02*
X60500000Y-110000000D01*
X54100000Y-108000000D02*
X54100000Y-103900000D01*
X54100000Y-103900000D02*
X56500000Y-103900000D01*
X58700000Y-103900000D02*
X61300000Y-103900000D01*
X63500000Y-103900000D02*
X65900000Y-103900000D01*
X65900000Y-103900000D02*
X65900000Y-108000000D01*
X63000000Y-110000000D02*
G75*
G03*
X63000000Y-110000000I-3000000J0D01*
G01*
X147500000Y-92850000D02*
X148100000Y-92850000D01*
X148800000Y-93500000D02*
X148800000Y-96300000D01*
X146800000Y-96300000D02*
X146800000Y-93500000D01*
X148100000Y-96950000D02*
X147500000Y-96950000D01*
X148800000Y-93550000D02*
G75*
G03*
X148100000Y-92850000I-699999J1D01*
G01*
X147500000Y-92850000D02*
G75*
G03*
X146800000Y-93550000I-1J-699999D01*
G01*
X148100000Y-96950000D02*
G75*
G03*
X148800000Y-96250000I0J700000D01*
G01*
X146800000Y-96250000D02*
G75*
G03*
X147500000Y-96950000I700000J0D01*
G01*
D10*
X205154204Y-118082420D02*
X188464895Y-124825338D01*
X202906565Y-112519316D02*
X205154204Y-118082420D01*
X202906565Y-112519316D02*
X195601736Y-94439231D01*
X195601736Y-94439231D02*
X178912427Y-101182150D01*
X194561910Y-115890776D02*
X202906565Y-112519316D01*
X188464895Y-124825338D02*
X186217255Y-119262235D01*
X186217255Y-119262235D02*
X194561910Y-115890776D01*
X178912427Y-101182150D02*
X186217255Y-119262235D01*
D17*
X164637258Y-103322500D02*
X164162742Y-103322500D01*
X164637258Y-102277500D02*
X164162742Y-102277500D01*
X70412258Y-106022500D02*
X69937742Y-106022500D01*
X70412258Y-104977500D02*
X69937742Y-104977500D01*
X70412258Y-102922500D02*
X69937742Y-102922500D01*
X70412258Y-101877500D02*
X69937742Y-101877500D01*
X172137258Y-121122500D02*
X171662742Y-121122500D01*
X172137258Y-120077500D02*
X171662742Y-120077500D01*
X144892164Y-125640000D02*
X145107836Y-125640000D01*
X144892164Y-126360000D02*
X145107836Y-126360000D01*
X145107836Y-128860000D02*
X144892164Y-128860000D01*
X145107836Y-128140000D02*
X144892164Y-128140000D01*
X142800000Y-139000000D02*
X142800000Y-141000000D01*
X142800000Y-139000000D02*
X146650000Y-139000000D01*
X142800000Y-141000000D02*
X146650000Y-141000000D01*
X162600000Y-137500000D02*
X162600000Y-82500000D01*
X162600000Y-82500000D02*
X73300000Y-82500000D01*
X156800000Y-137500000D02*
X156800000Y-82500000D01*
X147400000Y-85700000D02*
X147400000Y-134300000D01*
X147400000Y-85700000D02*
X82600000Y-85700000D01*
X82600000Y-134300000D02*
X147400000Y-134300000D01*
X82600000Y-85700000D02*
X82600000Y-134300000D01*
X79100000Y-137500000D02*
X79100000Y-82500000D01*
X73300000Y-137500000D02*
X162600000Y-137500000D01*
X73300000Y-82500000D02*
X73300000Y-137500000D01*
X69962742Y-99277500D02*
X70437258Y-99277500D01*
X69962742Y-100322500D02*
X70437258Y-100322500D01*
X168977500Y-87337258D02*
X168977500Y-86862742D01*
X170022500Y-87337258D02*
X170022500Y-86862742D01*
X83022500Y-85237742D02*
X83022500Y-85712258D01*
X81977500Y-85237742D02*
X81977500Y-85712258D01*
X169937742Y-100027500D02*
X170412258Y-100027500D01*
X169937742Y-101072500D02*
X170412258Y-101072500D01*
X96277500Y-86412258D02*
X96277500Y-85937742D01*
X97322500Y-86412258D02*
X97322500Y-85937742D01*
X98877500Y-86437258D02*
X98877500Y-85962742D01*
X99922500Y-86437258D02*
X99922500Y-85962742D01*
X172422500Y-86837742D02*
X172422500Y-87312258D01*
X171377500Y-86837742D02*
X171377500Y-87312258D01*
X177422500Y-86837742D02*
X177422500Y-87312258D01*
X176377500Y-86837742D02*
X176377500Y-87312258D01*
X174922500Y-86837742D02*
X174922500Y-87312258D01*
X173877500Y-86837742D02*
X173877500Y-87312258D01*
X179822500Y-86837742D02*
X179822500Y-87312258D01*
X178777500Y-86837742D02*
X178777500Y-87312258D01*
X173712742Y-99327500D02*
X174187258Y-99327500D01*
X173712742Y-100372500D02*
X174187258Y-100372500D01*
X90522500Y-85262742D02*
X90522500Y-85737258D01*
X89477500Y-85262742D02*
X89477500Y-85737258D01*
X93677500Y-86437258D02*
X93677500Y-85962742D01*
X94722500Y-86437258D02*
X94722500Y-85962742D01*
X168062742Y-120077500D02*
X168537258Y-120077500D01*
X168062742Y-121122500D02*
X168537258Y-121122500D01*
X177362742Y-98677500D02*
X177837258Y-98677500D01*
X177362742Y-99722500D02*
X177837258Y-99722500D01*
X177670000Y-114830000D02*
X177670000Y-113500000D01*
X179000000Y-114830000D02*
X177670000Y-114830000D01*
X180270000Y-114830000D02*
X180330000Y-114830000D01*
X180270000Y-114830000D02*
X180270000Y-112230000D01*
X180330000Y-114830000D02*
X180330000Y-109630000D01*
X177670000Y-112230000D02*
X177670000Y-109630000D01*
X180270000Y-112230000D02*
X177670000Y-112230000D01*
X177670000Y-109630000D02*
X180330000Y-109630000D01*
X179200000Y-91500000D02*
G75*
G03*
X179200000Y-91500000I-1200000J0D01*
G01*
X182200000Y-91500000D02*
G75*
G03*
X182200000Y-91500000I-1200000J0D01*
G01*
X185200000Y-91500000D02*
G75*
G03*
X185200000Y-91500000I-1200000J0D01*
G01*
X125200000Y-83000000D02*
G75*
G03*
X125200000Y-83000000I-1200000J0D01*
G01*
X125200000Y-86500000D02*
G75*
G03*
X125200000Y-86500000I-1200000J0D01*
G01*
X104750000Y-89000000D02*
G75*
G03*
X104750000Y-89000000I-1750000J0D01*
G01*
X163900000Y-143300000D02*
G75*
G03*
X163900000Y-143300000I-1200000J0D01*
G01*
X74200000Y-79500000D02*
G75*
G03*
X74200000Y-79500000I-1200000J0D01*
G01*
X78200000Y-79500000D02*
G75*
G03*
X78200000Y-79500000I-1200000J0D01*
G01*
X82200000Y-79500000D02*
G75*
G03*
X82200000Y-79500000I-1200000J0D01*
G01*
X86200000Y-79500000D02*
G75*
G03*
X86200000Y-79500000I-1200000J0D01*
G01*
X109750000Y-89000000D02*
G75*
G03*
X109750000Y-89000000I-1750000J0D01*
G01*
X149837742Y-124727500D02*
X150312258Y-124727500D01*
X149837742Y-125772500D02*
X150312258Y-125772500D01*
X125200000Y-79500000D02*
G75*
G03*
X125200000Y-79500000I-1200000J0D01*
G01*
X130100000Y-81450000D02*
X130700000Y-81450000D01*
X131400000Y-82100000D02*
X131400000Y-84900000D01*
X129400000Y-84900000D02*
X129400000Y-82100000D01*
X130700000Y-85550000D02*
X130100000Y-85550000D01*
X131400000Y-82150000D02*
G75*
G03*
X130700000Y-81450000I-699999J1D01*
G01*
X130100000Y-81450000D02*
G75*
G03*
X129400000Y-82150000I-1J-699999D01*
G01*
X130700000Y-85550000D02*
G75*
G03*
X131400000Y-84850000I0J700000D01*
G01*
X129400000Y-84850000D02*
G75*
G03*
X130100000Y-85550000I700000J0D01*
G01*
X148385000Y-77640000D02*
X148140000Y-77640000D01*
X148140000Y-77640000D02*
X148140000Y-75825000D01*
X136615000Y-77640000D02*
X136860000Y-77640000D01*
X148385000Y-81500000D02*
X148385000Y-77640000D01*
X148385000Y-81500000D02*
X148385000Y-85360000D01*
X136615000Y-81500000D02*
X136615000Y-77640000D01*
X136615000Y-81500000D02*
X136615000Y-85360000D01*
X148385000Y-85360000D02*
X148140000Y-85360000D01*
X136615000Y-85360000D02*
X136860000Y-85360000D01*
X152270000Y-136650000D02*
X152270000Y-136380000D01*
X152270000Y-136380000D02*
X155100000Y-136380000D01*
X152270000Y-130020000D02*
X153370000Y-130020000D01*
X152270000Y-129750000D02*
X152270000Y-130020000D01*
X150770000Y-136650000D02*
X152270000Y-136650000D01*
X150770000Y-129750000D02*
X152270000Y-129750000D01*
X164340000Y-89109000D02*
X163100000Y-89109000D01*
X163100000Y-89109000D02*
X163100000Y-90349000D01*
X171960000Y-89349000D02*
X163340000Y-89349000D01*
X171960000Y-89349000D02*
X171960000Y-101070000D01*
X163340000Y-89349000D02*
X163340000Y-101070000D01*
X171960000Y-101070000D02*
X163340000Y-101070000D01*
M02*
